<svg xmlns="http://www.w3.org/2000/svg" xmlns:xlink="http://www.w3.org/1999/xlink" width="119.324" height="96.229" viewBox="0 0 119.324 96.229">
  <defs>
    <clipPath id="clip-path">
      <path id="Path_4052" data-name="Path 4052" d="M1804,434h119.324v96.229H1804Z" transform="translate(-1804 -434)" clip-rule="evenodd"/>
    </clipPath>
  </defs>
  <g id="Automated_Technology" data-name="Automated Technology" clip-path="url(#clip-path)">
    <g id="Group_2012" data-name="Group 2012" clip-path="url(#clip-path)">
      <g id="Group_2011" data-name="Group 2011" clip-path="url(#clip-path)">
        <path id="Path_4022" data-name="Path 4022" d="M572.592,444.621V433.652a1.81,1.81,0,0,1,1.805-1.813h8.244m22.026,0h4.393a1.809,1.809,0,0,1,1.805,1.813v21.032" transform="translate(-520.223 -408.274)" fill="none" stroke="#3d4642" stroke-width="0.4" fill-rule="evenodd"/>
        <path id="Path_4023" data-name="Path 4023" d="M630.616,473.911l.686,1.285a11.4,11.4,0,0,0-2.175,2.518l-1.541-.468a.746.746,0,0,0-.931.5h0l-1.264,4.188a.751.751,0,0,0,.5.935l1.449.44a11.458,11.458,0,0,0,.293,3.244l-1.535.826a.752.752,0,0,0-.307,1.015h0l2.058,3.857a.744.744,0,0,0,1.01.308h0l1.536-.826a11.331,11.331,0,0,0,2.365,1.944l-.58,1.925a.75.75,0,0,0,.5.935l4.171,1.267a.746.746,0,0,0,.931-.5l.578-1.925a11.33,11.33,0,0,0,2.857-.259l1.054,1.977a.745.745,0,0,0,1.011.307l3.84-2.067a.751.751,0,0,0,.307-1.014h0l-1.008-1.892a11.391,11.391,0,0,0,1.828-2.115l2.21.672a.747.747,0,0,0,.932-.5l1.261-4.188a.751.751,0,0,0-.5-.935l-1.986-.6a11.459,11.459,0,0,0-.144-2.871l1.925-1.035a.751.751,0,0,0,.306-1.015h0l-2.058-3.857a.744.744,0,0,0-1.01-.307h0l-1.634.879a11.363,11.363,0,0,0-2.245-2.07l.445-1.477a1.143,1.143,0,0,0-.758-1.423l-3.8-1.154a.747.747,0,0,0-.931.5l-.462,1.535a11.341,11.341,0,0,0-3.233.163l-.794-1.492a.745.745,0,0,0-1.011-.307h0l-3.841,2.067A.752.752,0,0,0,630.616,473.911Zm13.162,7.294a5.7,5.7,0,1,1-7.7-2.34A5.727,5.727,0,0,1,643.778,481.205Z" transform="translate(-547.602 -428.281)" fill="#89c19d" stroke="#3d4642" stroke-width="0.4" fill-rule="evenodd"/>
        <path id="Path_4024" data-name="Path 4024" d="M174.959,112.153a1.085,1.085,0,0,1,1.084,1.088v39.695a1.086,1.086,0,0,1-1.084,1.088H111.094a1.086,1.086,0,0,1-1.084-1.088V113.24a1.085,1.085,0,0,1,1.084-1.088Z" transform="translate(-57.079 -58.174)" fill="#f7f8fa"/>
        <path id="Path_4025" data-name="Path 4025" d="M689.068,520.8v-2.877h-2.5V520.8h-2.88v2.511h2.88v2.905l2.5-.045v-2.861h2.849V520.8h-2.849Z" transform="translate(-577.865 -452.941)" fill="#f7b0c4" stroke="#3d4642" stroke-linejoin="round" stroke-width="0.4" fill-rule="evenodd"/>
        <path id="Path_4026" data-name="Path 4026" d="M689.068,544.92v-2.876h-2.5v2.876h-2.88v2.512h2.88v2.905l2.5-.046V547.43h2.849v-2.512h-2.849Z" transform="translate(-577.865 -465.455)" fill="#f7b0c4" stroke="#3d4642" stroke-linejoin="round" stroke-width="0.4" fill-rule="evenodd"/>
        <path id="Path_4027" data-name="Path 4027" d="M689.068,574.494v-.686h2.849V571.3h-2.849V568.42h-2.5V571.3h-2.88v2.511h2.88v.73" transform="translate(-577.865 -479.14)" fill="#f7b0c4" stroke="#3d4642" stroke-linejoin="round" stroke-width="0.4" fill-rule="evenodd"/>
        <path id="Path_4028" data-name="Path 4028" d="M574.093,504.943H640.17" transform="translate(-521.002 -446.205)" fill="none" stroke="#3d4642" stroke-linejoin="round" stroke-width="0.4" fill-rule="evenodd"/>
        <path id="Path_4029" data-name="Path 4029" d="M116.647,116.167a.9.9,0,1,1-.9-.906A.9.9,0,0,1,116.647,116.167Z" transform="translate(-59.586 -59.786)" fill="#f7f8fa" stroke="#3d4642" stroke-linejoin="round" stroke-width="0.4"/>
        <path id="Path_4030" data-name="Path 4030" d="M124.152,116.167a.9.9,0,1,1-.9-.906A.9.9,0,0,1,124.152,116.167Z" transform="translate(-63.48 -59.786)" fill="#f7f8fa" stroke="#3d4642" stroke-linejoin="round" stroke-width="0.4"/>
        <path id="Path_4031" data-name="Path 4031" d="M131.656,116.167a.9.9,0,1,1-.9-.906A.9.9,0,0,1,131.656,116.167Z" transform="translate(-67.374 -59.786)" fill="#f7f8fa" stroke="#3d4642" stroke-linejoin="round" stroke-width="0.4"/>
        <path id="Path_4032" data-name="Path 4032" d="M607.835,498.913H650.8a.725.725,0,0,1,0,1.451H607.835a.725.725,0,0,1,0-1.451Z" transform="translate(-538.135 -443.076)" fill="#f7f8fa" stroke="#3d4642" stroke-linejoin="round" stroke-width="0.4" fill-rule="evenodd"/>
        <path id="Path_4033" data-name="Path 4033" d="M588.685,519.262H628.4a1.085,1.085,0,0,1,1.083,1.088v5.077a1.085,1.085,0,0,1-1.083,1.088H588.685a1.086,1.086,0,0,1-1.084-1.088v-5.077A1.086,1.086,0,0,1,588.685,519.262Z" transform="translate(-528.011 -453.634)" fill="#89c19d" stroke="#3d4642" stroke-linejoin="round" stroke-width="0.4" fill-rule="evenodd"/>
        <path id="Path_4034" data-name="Path 4034" d="M588.685,543.378H628.4a1.086,1.086,0,0,1,1.083,1.088v5.076a1.085,1.085,0,0,1-1.083,1.088H588.685a1.085,1.085,0,0,1-1.084-1.088v-5.076A1.086,1.086,0,0,1,588.685,543.378Z" transform="translate(-528.011 -466.147)" fill="#89c19d" stroke="#3d4642" stroke-linejoin="round" stroke-width="0.4" fill-rule="evenodd"/>
        <path id="Path_4035" data-name="Path 4035" d="M587.6,575.2v-4.352a1.086,1.086,0,0,1,1.084-1.088H628.4a1.086,1.086,0,0,1,1.083,1.088V575.2" transform="translate(-528.011 -479.833)" fill="#89c19d" stroke="#3d4642" stroke-linejoin="round" stroke-width="0.4" fill-rule="evenodd"/>
        <path id="Path_4036" data-name="Path 4036" stroke="#3d4642" d="M606.236,429.355a3.4,3.4,0,0,1-.722.417,1.379,1.379,0,0,1-.755,0,1.818,1.818,0,0,1-.459-.417,2.346,2.346,0,0,1-2.92-2.055,1.786,1.786,0,0,1-.966-.168,3.148,3.148,0,0,1-1.2-2.228,8.141,8.141,0,0,1,.554-4.735,7.7,7.7,0,0,1,2.27-3.048,9.935,9.935,0,0,1,5.219-1.6,12.3,12.3,0,0,1,3.882.464,8.927,8.927,0,0,1,5.085,3.807,3.011,3.011,0,0,1-1.294,4.364l-2.1.313a.234.234,0,0,0-.128.065c-.195.205.2.762.1,1.2a1.367,1.367,0,0,1-.832.834,2.768,2.768,0,0,1-1.919.593,2.63,2.63,0,0,1-1.039-.315,6.251,6.251,0,0,0-.74,1.114,4.924,4.924,0,0,0-.495,1.291c-.042.466.065.81-.153,1.031-.251.254-.774.186-1.39-.036v-.9h0Z" fill="#f7b0c4" transform="translate(-533.967 -399.805)" stroke-linecap="round" stroke-linejoin="round" stroke-width="0.4" fill-rule="evenodd"/>
        <path id="Path_4037" data-name="Path 4037" stroke="#3d4642" d="M492.294,391.522v28.359H464.5v-36.22h19.9C485.2,383.963,491.694,390.845,492.294,391.522Z" fill="#f7f8fa" transform="translate(-464.14 -383.277)" stroke-linecap="round" stroke-linejoin="round" stroke-width="0.4" fill-rule="evenodd"/>
        <path id="Path_4038" data-name="Path 4038" d="M476.505,397.227a4.665,4.665,0,1,0,4.646,4.665l-4.636-.01Z" transform="translate(-467.958 -390.316)" fill="#f7b0c4" stroke="#3d4642" stroke-linejoin="round" stroke-width="0.4" fill-rule="evenodd"/>
        <path id="Path_4039" data-name="Path 4039" stroke="#3d4642" d="M505.856,383.929v8.439h7.8" fill="#f7f8fa" transform="translate(-485.597 -383.416)" stroke-linecap="round" stroke-linejoin="round" stroke-width="0.4" fill-rule="evenodd"/>
        <path id="Path_4040" data-name="Path 4040" d="M542.181,467.706h4.455a5.172,5.172,0,0,0,1.48-10.117,6.8,6.8,0,0,0,.036-.714,7.372,7.372,0,0,0-7.568-7.158,7.644,7.644,0,0,0-6.617,3.682,7.061,7.061,0,0,0-1.579-.179,6.676,6.676,0,0,0-6.277,4.149h-1.884a5.169,5.169,0,0,0,0,10.337h17.954Z" transform="translate(-492.481 -417.551)" fill="#f7f8fa" stroke="#3d4642" stroke-width="0.4" fill-rule="evenodd"/>
        <path id="Path_4041" data-name="Path 4041" d="M527.07,426.813h9.474a1.719,1.719,0,0,1,1.716,1.723v12.877m-.1,7.564v28.381a1.721,1.721,0,0,0,1.716,1.724h5.912" transform="translate(-496.604 -405.667)" fill="none" stroke="#3d4642" stroke-width="0.4" fill-rule="evenodd"/>
        <path id="Path_4042" data-name="Path 4042" d="M544.205,474.972a2.981,2.981,0,1,1,5.961,0" transform="translate(-505.495 -429.101)" fill="none" stroke="#3d4642" stroke-linecap="round" stroke-width="0.4" fill-rule="evenodd"/>
        <path id="Path_4043" data-name="Path 4043" d="M59.04,41.023a2.669,2.669,0,1,1-2.669-2.68A2.674,2.674,0,0,1,59.04,41.023Z" transform="translate(-27.864 -19.877)" fill="#89c19d" stroke="#3d4642" stroke-width="0.4"/>
        <path id="Path_4044" data-name="Path 4044" d="M107.375,149.876a2.669,2.669,0,1,1-2.669-2.68A2.675,2.675,0,0,1,107.375,149.876Z" transform="translate(-52.943 -76.356)" fill="#f7b0c4" stroke="#3d4642" stroke-width="0.4"/>
        <path id="Path_4045" data-name="Path 4045" stroke="#3d4642" d="M491.576,433.616l-3.164,2.415,0,6.854,3.163,0Zm-4.183,2.839-2.448,1.868-.716-.47,0,5.027,3.163,0Zm-5.708.036-1.636,1.163,0,5.224,3.163,0,0-5.389Zm-2.655,1.557-3.164,2.248v2.578l3.163,0Z" fill="none" transform="translate(-470.036 -409.197)" stroke-linecap="round" stroke-linejoin="round" stroke-width="0.4" fill-rule="evenodd"/>
        <path id="Path_4046" data-name="Path 4046" stroke="#3d4642" d="M474.983,435.547l6.034-4.662,3.25,2.331,6.963-5.128" fill="none" transform="translate(-469.578 -406.329)" stroke-linecap="round" stroke-linejoin="round" stroke-width="0.4" fill-rule="evenodd"/>
        <path id="Path_4047" data-name="Path 4047" stroke="#3d4642" d="M504.89,427.031h1.9v1.907" fill="none" transform="translate(-485.096 -405.78)" stroke-linecap="round" stroke-linejoin="round" stroke-width="0.4" fill-rule="evenodd"/>
        <path id="Path_4048" data-name="Path 4048" d="M489.72,398.379a5.539,5.539,0,0,0-5.53-5.548h0l-.011,5.536Z" transform="translate(-474.35 -388.035)" fill="#89c19d" stroke="#3d4642" stroke-linejoin="round" stroke-width="0.4" fill-rule="evenodd"/>
        <path id="Path_4049" data-name="Path 4049" d="M574.848,495.051h63.865a1.085,1.085,0,0,1,1.083,1.088v39.695a1.085,1.085,0,0,1-1.083,1.088H574.848a1.085,1.085,0,0,1-1.084-1.088V496.139A1.086,1.086,0,0,1,574.848,495.051Z" transform="translate(-520.831 -441.072)" fill="none" stroke="#3d4642" stroke-linejoin="round" stroke-width="0.4" fill-rule="evenodd"/>
      </g>
    </g>
  </g>
</svg>
