<svg xmlns="http://www.w3.org/2000/svg" xmlns:xlink="http://www.w3.org/1999/xlink" width="146.749" height="94.786" viewBox="0 0 146.749 94.786">
  <defs>
    <clipPath id="clip-path">
      <path id="Path_3535" data-name="Path 3535" d="M1711,973h146.749v94.786H1711Z" transform="translate(-1711 -973)" clip-rule="evenodd"/>
    </clipPath>
  </defs>
  <g id="Delivery" clip-path="url(#clip-path)">
    <g id="Group_1859" data-name="Group 1859" clip-path="url(#clip-path)">
      <g id="Group_1858" data-name="Group 1858" clip-path="url(#clip-path)">
        <path id="Path_3492" data-name="Path 3492" d="M998.9,148.426h27.392a1.562,1.562,0,0,1,1.564,1.56v39.577a1.562,1.562,0,0,1-1.564,1.56H998.9a1.562,1.562,0,0,1-1.565-1.56V149.986A1.562,1.562,0,0,1,998.9,148.426Z" transform="translate(-954.471 -134.314)" fill="#f7b0c4" stroke="#3d4642" stroke-linejoin="round" stroke-width="0.4" fill-rule="evenodd"/>
        <path id="Path_3493" data-name="Path 3493" stroke="#3d4642" d="M1009.37,167.785h19.506" fill="none" transform="translate(-960.717 -144.358)" stroke-linecap="round" stroke-linejoin="round" stroke-width="0.4" fill-rule="evenodd"/>
        <path id="Path_3494" data-name="Path 3494" stroke="#3d4642" d="M1009.37,174.873h17.112" fill="none" transform="translate(-960.717 -148.036)" stroke-linecap="round" stroke-linejoin="round" stroke-width="0.4" fill-rule="evenodd"/>
        <path id="Path_3495" data-name="Path 3495" stroke="#3d4642" d="M1009.37,181.958h18.821" fill="none" transform="translate(-960.717 -151.712)" stroke-linecap="round" stroke-linejoin="round" stroke-width="0.4" fill-rule="evenodd"/>
        <path id="Path_3496" data-name="Path 3496" stroke="#3d4642" d="M1009.37,189.049h19.506" fill="none" transform="translate(-960.717 -155.391)" stroke-linecap="round" stroke-linejoin="round" stroke-width="0.4" fill-rule="evenodd"/>
        <path id="Path_3497" data-name="Path 3497" stroke="#3d4642" d="M1009.37,203.224h19.506" fill="none" transform="translate(-960.717 -162.746)" stroke-linecap="round" stroke-linejoin="round" stroke-width="0.4" fill-rule="evenodd"/>
        <path id="Path_3498" data-name="Path 3498" stroke="#3d4642" d="M1009.37,210.312h17.793" fill="none" transform="translate(-960.717 -166.423)" stroke-linecap="round" stroke-linejoin="round" stroke-width="0.4" fill-rule="evenodd"/>
        <path id="Path_3499" data-name="Path 3499" stroke="#3d4642" d="M1009.37,223.78h4.788" fill="none" transform="translate(-960.717 -173.411)" stroke-linecap="round" stroke-linejoin="round" stroke-width="0.4" fill-rule="evenodd"/>
        <path id="Path_3500" data-name="Path 3500" stroke="#3d4642" d="M948.974,133.907h33.1v40.752h-33.1Z" fill="#f7f8fa" transform="translate(-929.38 -126.78)" stroke-linecap="round" stroke-linejoin="round" stroke-width="0.4" fill-rule="evenodd"/>
        <path id="Path_3501" data-name="Path 3501" d="M974.689,122.971v1.56l-.939.936-2.5-.312,3.443,4.684,4.386-.312,1.882-4.372-1.252-.624v-2.186l-2.508-1.872s-1.823-.058-2.508.624C974.137,121.65,974.689,122.971,974.689,122.971Z" transform="translate(-940.936 -119.809)" fill="#89c19d" fill-rule="evenodd"/>
        <path id="Path_3502" data-name="Path 3502" stroke="#3d4642" d="M978.766,130.208h3.99v4.684h-13.47v-4.684h3.838" fill="#89c19d" transform="translate(-939.919 -124.861)" stroke-linecap="round" stroke-linejoin="round" stroke-width="0.4" fill-rule="evenodd"/>
        <path id="Path_3503" data-name="Path 3503" stroke="#3d4642" d="M977.5,124.809a3.1,3.1,0,1,1,5.074.105" fill="#89c19d" transform="translate(-943.907 -119.565)" stroke-linecap="round" stroke-linejoin="round" stroke-width="0.4" fill-rule="evenodd"/>
        <path id="Path_3504" data-name="Path 3504" stroke="#3d4642" d="M940.78,156.833h7.2a.782.782,0,0,1,.782.78v3.738a.782.782,0,0,1-.782.78h-7.2a.782.782,0,0,1-.782-.78v-3.738A.782.782,0,0,1,940.78,156.833Z" fill="#89c19d" transform="translate(-924.723 -138.676)" stroke-linecap="round" stroke-linejoin="round" stroke-width="0.4" fill-rule="evenodd"/>
        <path id="Path_3505" data-name="Path 3505" stroke="#3d4642" d="M962.131,178.71v-3.747a.626.626,0,0,1,.626-.624h18.795a.624.624,0,0,1,.624.624v3.747" fill="none" transform="translate(-936.207 -147.759)" stroke-linecap="round" stroke-linejoin="round" stroke-width="0.4" fill-rule="evenodd"/>
        <path id="Path_3506" data-name="Path 3506" stroke="#3d4642" d="M955.766,184.061h5.008a.782.782,0,0,1,.782.78V188.6a.782.782,0,0,1-.782.78h-5.008a.782.782,0,0,1-.782-.78v-3.761A.782.782,0,0,1,955.766,184.061Z" fill="#f7b0c4" transform="translate(-932.498 -152.803)" stroke-linecap="round" stroke-linejoin="round" stroke-width="0.4" fill-rule="evenodd"/>
        <path id="Path_3507" data-name="Path 3507" stroke="#3d4642" d="M977.233,184.061h5.016a.782.782,0,0,1,.782.78V188.6a.783.783,0,0,1-.782.78h-5.016a.782.782,0,0,1-.782-.78v-3.761A.782.782,0,0,1,977.233,184.061Z" fill="#f7b0c4" transform="translate(-943.636 -152.803)" stroke-linecap="round" stroke-linejoin="round" stroke-width="0.4" fill-rule="evenodd"/>
        <path id="Path_3508" data-name="Path 3508" stroke="#3d4642" d="M998.089,184.061h5a.782.782,0,0,1,.782.78V188.6a.782.782,0,0,1-.782.78h-5a.783.783,0,0,1-.782-.78v-3.761A.782.782,0,0,1,998.089,184.061Z" fill="#f7b0c4" transform="translate(-954.458 -152.803)" stroke-linecap="round" stroke-linejoin="round" stroke-width="0.4" fill-rule="evenodd"/>
        <path id="Path_3509" data-name="Path 3509" stroke="#3d4642" d="M958.845,162.966H969.6a.626.626,0,0,1,.626.624v9.362" fill="none" transform="translate(-934.502 -141.858)" stroke-linecap="round" stroke-linejoin="round" stroke-width="0.4" fill-rule="evenodd"/>
        <path id="Path_3510" data-name="Path 3510" d="M1169.447,290.372h18.319a1.562,1.562,0,0,1,1.564,1.56v8.822a1.562,1.562,0,0,1-1.564,1.56h-18.319a1.562,1.562,0,0,1-1.564-1.56v-8.822A1.562,1.562,0,0,1,1169.447,290.372Z" transform="translate(-1042.963 -207.963)" fill="#f7f8fa" stroke="#3d4642" stroke-linejoin="round" stroke-width="0.4" fill-rule="evenodd"/>
        <path id="Path_3511" data-name="Path 3511" stroke="#3d4642" d="M1056.5,301.508H958.692" fill="none" transform="translate(-934.422 -213.741)" stroke-linecap="round" stroke-width="0.4" stroke-dasharray="3.242 6.484" fill-rule="evenodd"/>
        <path id="Path_3512" data-name="Path 3512" d="M291.7,180.57a3.13,3.13,0,1,1-3.13-3.12A3.125,3.125,0,0,1,291.7,180.57Z" transform="translate(-148.1 -92.023)" fill="#f7f8fa" stroke="#3d4642" stroke-linecap="round" stroke-linejoin="round" stroke-width="0.4"/>
        <path id="Path_3513" data-name="Path 3513" stroke="#3d4642" d="M1197.75,303.129h2.351" fill="none" transform="translate(-1058.459 -214.582)" stroke-linecap="round" stroke-linejoin="round" stroke-width="0.4" fill-rule="evenodd"/>
        <path id="Path_3514" data-name="Path 3514" d="M1174.157,258.946a7.3,7.3,0,0,0-6.444,10.794l6.444,10.738,6.439-10.738a7.3,7.3,0,0,0-6.439-10.794Zm-.082,4.24h.082a3.135,3.135,0,1,1-.082,0Z" transform="translate(-1042.411 -191.657)" fill="#f7f8fa" stroke="#3d4642" stroke-linejoin="round" stroke-width="0.4" fill-rule="evenodd"/>
        <path id="Path_3515" data-name="Path 3515" d="M911.679,290.372H930a1.562,1.562,0,0,1,1.565,1.56v8.822a1.562,1.562,0,0,1-1.565,1.56H911.679a1.562,1.562,0,0,1-1.565-1.56v-8.822A1.562,1.562,0,0,1,911.679,290.372Z" transform="translate(-909.218 -207.963)" fill="#89c19d" stroke="#3d4642" stroke-linejoin="round" stroke-width="0.4" fill-rule="evenodd"/>
        <path id="Path_3516" data-name="Path 3516" d="M916.393,258.946a7.3,7.3,0,0,0-6.444,10.794l6.444,10.738,6.44-10.738a7.3,7.3,0,0,0-6.44-10.794Zm-.082,4.24h.082a3.136,3.136,0,1,1-.082,0Z" transform="translate(-908.669 -191.657)" fill="#89c19d" stroke="#3d4642" stroke-linejoin="round" stroke-width="0.4" fill-rule="evenodd"/>
        <path id="Path_3517" data-name="Path 3517" d="M31.492,180.57a3.13,3.13,0,1,1-3.13-3.12A3.125,3.125,0,0,1,31.492,180.57Z" transform="translate(-13.092 -92.023)" fill="#f7f8fa" stroke="#3d4642" stroke-linecap="round" stroke-linejoin="round" stroke-width="0.4"/>
        <path id="Path_3518" data-name="Path 3518" stroke="#3d4642" d="M937.046,302.546l1,1,2.007-2" fill="none" transform="translate(-923.191 -213.761)" stroke-linecap="round" stroke-linejoin="round" stroke-width="0.4" fill-rule="evenodd"/>
        <path id="Path_3519" data-name="Path 3519" d="M1043.758,212.554a1.3,1.3,0,0,0,.241.05,3.067,3.067,0,0,1,2.08,1.21.092.092,0,0,0,.043.065,1.7,1.7,0,0,1,.27.363,1.151,1.151,0,0,0,.092.169,1.789,1.789,0,0,1,.217.663.789.789,0,0,1-.5.3,1.165,1.165,0,0,0-.208.072.678.678,0,0,0,.024.354,1.369,1.369,0,0,1,.014.712.465.465,0,0,0,.063.42c.058.163.14.357.174.435a1.064,1.064,0,0,1,.082.3c.015.147.01.16-.068.2a.686.686,0,0,1-.237.039h-.145l0,.166a2.677,2.677,0,0,1-.212.819.641.641,0,0,1-.328.363.127.127,0,0,0-.092.044,1.539,1.539,0,0,1-.883.085.422.422,0,0,0-.429.2c-.13.128-.174.231-.106.231a.211.211,0,0,1,.034.141.163.163,0,0,0,.029.141.132.132,0,0,1,.034.11.116.116,0,0,0,.029.11.035.035,0,0,1,.034.034,10.232,10.232,0,0,0,.642,1.241,8.3,8.3,0,0,1,.671,1.3,2.074,2.074,0,0,0,.227.423,1.3,1.3,0,0,1,.145.219.349.349,0,0,0,.053.091.475.475,0,0,1,.14.195.172.172,0,0,0,.015.069,1.731,1.731,0,0,1,.053.219,1.351,1.351,0,0,0,.159.47,4.148,4.148,0,0,1,.381.348,1.807,1.807,0,0,0,.637.482c.154.072.42.213.584.312a7.055,7.055,0,0,0,1.6.846c.222.081.517.21.661.282s.574.263.946.42.845.379,1.052.495a2.046,2.046,0,0,0,.864.354c.154,0,.154,0,.318-.322a2.194,2.194,0,0,1,.99-1.022,1.264,1.264,0,0,1,.294-.128.054.054,0,0,0,.058-.025,1.23,1.23,0,0,1,.521-.135,1.2,1.2,0,0,0,.28-.06,3.112,3.112,0,0,1,.792-.075c.405-.019.4-.023.512.279a1.89,1.89,0,0,0,.1.241.253.253,0,0,1,.029.1.379.379,0,0,0,.029.1,9.465,9.465,0,0,1,.376,1.457,1.294,1.294,0,0,1-.048.8c-.183.373-.546.517-1.361.551-.676.028-.724.039-.888.188a.373.373,0,0,0-.116.507,2.656,2.656,0,0,1,.246.526.621.621,0,0,0,.082.178c.043.075.092.172.116.217a.351.351,0,0,0,.058.094.436.436,0,0,1,.053.131.227.227,0,0,0,.068.119.2.2,0,0,1,.058.123.486.486,0,0,0,.082.16.122.122,0,0,1,.048.075,5.528,5.528,0,0,0,.357.708c.068.128.188.354.266.5s.188.351.246.454.135.244.174.312.072.147.087.172a1.619,1.619,0,0,1,.1.2,1.6,1.6,0,0,0,.111.2,2.3,2.3,0,0,1,.159.282,6.622,6.622,0,0,0,.333.589c.019.025.082.144.145.266a.81.81,0,0,0,.178.254.743.743,0,0,1,.077.053.281.281,0,0,0,.111.039l.28.051a1.753,1.753,0,0,1,.3.078,1.612,1.612,0,0,0,.159.059.227.227,0,0,1,.1.113.187.187,0,0,0,.208.117.505.505,0,0,1,.212.063.4.4,0,0,0,.169.062.531.531,0,0,1,.381.335.171.171,0,0,0,.019.1,1.226,1.226,0,0,1,.135.364c.135.554.058.5.772.5.328,0,.743.022.927.047a5.77,5.77,0,0,1,.975.169,2.177,2.177,0,0,0,.328.131,1.638,1.638,0,0,1,.343.144.521.521,0,0,0,.15.088.413.413,0,0,1,.14.078.092.092,0,0,0,.077.031.084.084,0,0,1,.068.025.918.918,0,0,0,.183.144,5.223,5.223,0,0,1,.874.849c.058.078.121.154.183.226.019.022.063.091.106.156a.74.74,0,0,0,.1.138.3.3,0,0,1,.068.135c.034.1.034.119-.015.144a.349.349,0,0,1-.154.032.108.108,0,0,0-.1.028.423.423,0,0,1-.2.047c-.106.013-.294.043-.415.068-.159.033-.323.058-.483.076a.964.964,0,0,0-.285.056.7.7,0,0,1-.208.065c-.1.023-.246.06-.323.085a.959.959,0,0,1-.256.044.205.205,0,0,0-.15.044.711.711,0,0,1-.256.1c-.261.063-.251.088.029.141a.67.67,0,0,1,.183.056,1.651,1.651,0,0,0,.425.2.216.216,0,0,1,.1.047,1.788,1.788,0,0,0,.362.219.094.094,0,0,1,.063.044.614.614,0,0,0,.145.128,4.815,4.815,0,0,1,1.255,1.4c.039.083.087.164.13.242a5.686,5.686,0,0,1,.328.915,9.882,9.882,0,0,1,0,1.926c-.082.266-.169.527-.27.784a4.548,4.548,0,0,1-.328.579,1.161,1.161,0,0,1-.183.244.081.081,0,0,0-.039.069,5.228,5.228,0,0,1-1,.956.516.516,0,0,0-.1.063,1.7,1.7,0,0,1-.348.2.254.254,0,0,0-.1.053,1.687,1.687,0,0,1-.521.213.077.077,0,0,0-.072.025.492.492,0,0,1-.261.1.259.259,0,0,0-.106.028,2.078,2.078,0,0,1-.246.072,11.957,11.957,0,0,1-2.008,0c-.092-.022-.217-.057-.285-.076a.852.852,0,0,1-.178-.06.323.323,0,0,0-.121-.028.054.054,0,0,1-.063-.031.044.044,0,0,0-.048-.031,1.812,1.812,0,0,1-.5-.207.12.12,0,0,0-.077-.044.881.881,0,0,1-.347-.219.043.043,0,0,0-.053-.031c-.1,0-.271-.147-.748-.62a2.494,2.494,0,0,1-.328-.367.14.14,0,0,0-.053-.085,3.284,3.284,0,0,1-.492-.8,6.674,6.674,0,0,1-.3-.965,6.42,6.42,0,0,1-.053-.68,3.773,3.773,0,0,1,.135-1.272c.072-.219.072-.222-.15-.213-.111.006-.415.013-.671.016l-.468.006-.154.232a4.693,4.693,0,0,1-.753.83.234.234,0,0,0-.082.063c-.063.056-.063.078-.029.223a1.081,1.081,0,0,1-.048.567,1.1,1.1,0,0,1-.5.445.181.181,0,0,0-.121.059c-.024.06-13.077.072-13.135.01a.388.388,0,0,0-.15-.066.59.59,0,0,1-.227-.144,1.485,1.485,0,0,0-.14-.117.9.9,0,0,0-.077.276.232.232,0,0,1-.043.138.2.2,0,0,0-.048.125.09.09,0,0,1-.034.082.07.07,0,0,0-.029.078.082.082,0,0,1-.034.078.07.07,0,0,0-.029.078.082.082,0,0,1-.034.078.055.055,0,0,0-.029.063.059.059,0,0,1-.034.063.07.07,0,0,0-.029.078.073.073,0,0,1-.034.078.038.038,0,0,0-.029.045v0a.041.041,0,0,1-.029.047.066.066,0,0,0-.034.078.079.079,0,0,1-.029.078.038.038,0,0,0-.034.045v0a.04.04,0,0,1-.029.047.042.042,0,0,0-.034.045v0a.041.041,0,0,1-.029.047.039.039,0,0,0-.034.039.141.141,0,0,1-.068.085.189.189,0,0,0-.063.084.036.036,0,0,1-.029.039.04.04,0,0,0-.034.035.279.279,0,0,1-.159.153.043.043,0,0,0-.024.051,1.074,1.074,0,0,1-.338.357.691.691,0,0,1-.15.1.117.117,0,0,0-.077.063.311.311,0,0,1-.193.166,1.474,1.474,0,0,0-.145.091.338.338,0,0,1-.169.113.192.192,0,0,0-.082.047.182.182,0,0,1-.106.047.061.061,0,0,0-.063.028,1.362,1.362,0,0,1-.512.222.108.108,0,0,0-.087.022.706.706,0,0,1-.241.1c-.13.039-.29.088-.338.106a11.829,11.829,0,0,1-1.791.028,3.408,3.408,0,0,1-.864-.222.258.258,0,0,0-.111-.041,1.222,1.222,0,0,1-.454-.21.051.051,0,0,0-.058-.031.983.983,0,0,1-.381-.217.1.1,0,0,0-.077-.047.733.733,0,0,1-.208-.144.524.524,0,0,0-.15-.126.606.606,0,0,1-.155-.131,2.8,2.8,0,0,0-.2-.2,3.183,3.183,0,0,1-.526-.645.166.166,0,0,0-.048-.081,3.333,3.333,0,0,1-.381-.746.139.139,0,0,0-.048-.1.093.093,0,0,1-.029-.091.15.15,0,0,0-.029-.11.32.32,0,0,1-.043-.117c-.01-.057-.039-.216-.063-.351a4.307,4.307,0,0,1-.058-1.194,2.966,2.966,0,0,1,.116-.649c.024-.053-.068-.056-1.482-.063l-1.506-.01,0-.085c-.015-.088-.044-.106-.227-.125-.092-.01-.087.039-.034-.589.019-.216.048-.476.063-.58s.043-.273.058-.376a4.249,4.249,0,0,1,.164-.812.119.119,0,0,0,.029-.088,5.473,5.473,0,0,1,.208-.733.794.794,0,0,0,.063-.351c-.019-.072-.034-3.337-.024-3.713a.069.069,0,0,1,.077-.054h.082v-.6c0-.554,0-.6-.053-.6-.106,0-.135-.122-.125-.448.01-.266,0-.3-.043-.3a.169.169,0,0,1-.1-.047,1.938,1.938,0,0,0-.647-.132l-.13-.016v-8.6l.068-.01a.778.778,0,0,1,.2.012c.063.013,1.873.022,4.006.025,2.558,0,3.9.009,3.91.031a.464.464,0,0,0,.212.031,2.3,2.3,0,0,1,.328.031c.072.019.193.044.256.06a.429.429,0,0,1,.174.072.922.922,0,0,0,.362.088l.314.039v8.423h1.057c.941,0,1.047-.006,1-.047a.388.388,0,0,0-.183-.066.16.16,0,0,1-.145-.063.045.045,0,0,0-.034-.044,9.429,9.429,0,0,1,0-1.567.05.05,0,0,0,.034-.047c0-.094.227-.113,1.361-.1,1.168.009,1.134.015.782-.11a.173.173,0,0,1-.1-.076.039.039,0,0,0-.029-.041.469.469,0,0,1-.13-.094.4.4,0,0,0-.13-.094.039.039,0,0,1-.024-.047.045.045,0,0,0-.034-.047.035.035,0,0,1-.029-.045h0a.043.043,0,0,0-.029-.047,2.079,2.079,0,0,1-.169-.611c-.014-.1-.043-.348-.048-.546l-.024-.36-.1-.025c-.125-.031-.125-.031-.154-.683a2.742,2.742,0,0,0-.048-.526,1.194,1.194,0,0,1-.029-.37.9.9,0,0,0-.034-.357,1.437,1.437,0,0,1-.029-.455,1.307,1.307,0,0,0-.034-.454.38.38,0,0,1-.029-.219.38.38,0,0,0-.034-.219,1.339,1.339,0,0,1-.029-.439,1.227,1.227,0,0,0-.034-.439,1.519,1.519,0,0,1-.029-.468,1.41,1.41,0,0,0-.034-.471,12.8,12.8,0,0,1,0-1.723.976.976,0,0,0,.034-.39,1.172,1.172,0,0,1,.029-.39.564.564,0,0,0,.034-.282.7.7,0,0,1,.029-.282.381.381,0,0,0,.034-.219.378.378,0,0,1,.029-.219.3.3,0,0,0,.034-.172.239.239,0,0,1,.029-.173.13.13,0,0,0,.034-.109.131.131,0,0,1,.029-.11.316.316,0,0,0,.058-.172.642.642,0,0,1,.072-.188.087.087,0,0,0,.029-.065,2.925,2.925,0,0,1,.169-.4,3.759,3.759,0,0,0,.179-.385.123.123,0,0,1,.063-.078.145.145,0,0,0,.063-.1.047.047,0,0,1,.029-.057.058.058,0,0,0,.034-.063.05.05,0,0,1,.029-.063.045.045,0,0,0,.034-.047.037.037,0,0,1,.029-.047h0a.045.045,0,0,0,.034-.047.036.036,0,0,1,.029-.047h0a.036.036,0,0,0,.034-.031.8.8,0,0,1,.208-.269.579.579,0,0,0,.106-.128,1.176,1.176,0,0,1,.159-.166c.087-.078.275-.257.425-.4.256-.247.27-.26.372-.238l.111.019V218.6a.262.262,0,0,1,.029-.16.191.191,0,0,0,.034-.135c0-.117-.014-.144-.077-.172a.361.361,0,0,0-.125-.039.049.049,0,0,1-.048-.025.124.124,0,0,0-.077-.063.951.951,0,0,1-.3-.232.549.549,0,0,1-.125-.147.032.032,0,0,0-.029-.035.042.042,0,0,1-.034-.045h0a.041.041,0,0,0-.029-.047.05.05,0,0,1-.034-.056.147.147,0,0,0-.063-.1.168.168,0,0,1-.068-.1.048.048,0,0,0-.029-.057.066.066,0,0,1-.034-.063.055.055,0,0,0-.029-.063.056.056,0,0,1-.029-.063.066.066,0,0,0-.034-.063.064.064,0,0,1-.029-.078.093.093,0,0,0-.034-.078.064.064,0,0,1-.029-.078.093.093,0,0,0-.034-.078.088.088,0,0,1-.029-.094.1.1,0,0,0-.034-.094.147.147,0,0,1-.029-.126.166.166,0,0,0-.034-.125.165.165,0,0,1-.029-.141.207.207,0,0,0-.034-.141.382.382,0,0,1-.029-.22.381.381,0,0,0-.034-.219,1.68,1.68,0,0,1,0-.658.286.286,0,0,0,.034-.189.283.283,0,0,1,.029-.188.13.13,0,0,0,.034-.109.128.128,0,0,1,.029-.11.1.1,0,0,0,.034-.094.088.088,0,0,1,.029-.094.066.066,0,0,0,.034-.063.05.05,0,0,1,.029-.063.049.049,0,0,0,.034-.047.036.036,0,0,1,.029-.047h0a.066.066,0,0,0,.034-.063.049.049,0,0,1,.029-.063.05.05,0,0,0,.034-.047.042.042,0,0,1,.029-.048.04.04,0,0,0,.029-.047.05.05,0,0,1,.034-.047.715.715,0,0,0,.183-.151,2.846,2.846,0,0,1,.227-.195l.116-.088a.14.14,0,0,1,.082-.039.052.052,0,0,0,.053-.026,3.2,3.2,0,0,1,1.033-.385A9.723,9.723,0,0,1,1043.758,212.554Zm1,13.5a.207.207,0,0,0,.034.151.368.368,0,0,1,.058.2c.019.1.043.282.063.4s.043.288.048.376.034.226.048.312.043.312.063.5.048.435.068.549.039.379.048.6c.029.448,0,.4.425.555a2.9,2.9,0,0,1,.434.169.359.359,0,0,0,.125.028.3.3,0,0,1,.116.028c.029.016.266.094.526.176l.536.172c.106.039,1.443.451,1.632.5a3.641,3.641,0,0,1,.492.156.256.256,0,0,0,.106.031.254.254,0,0,1,.1.028,1.245,1.245,0,0,0,.183.063c.063.016.241.069.381.113a2.1,2.1,0,0,0,.3.078.154.154,0,0,1,.087.039.609.609,0,0,0,.246.066.769.769,0,0,1,.236.05.554.554,0,0,0,.13.044.41.41,0,0,1,.314.1.089.089,0,0,0,.077.044,1.133,1.133,0,0,1,.623.468.087.087,0,0,0,.043.072.441.441,0,0,1,.125.185,4.7,4.7,0,0,1,.082,2.782c-.077.423-.111.667-.183,1.3-.019.153-.053.445-.082.642l-.077.564c-.015.113-.043.317-.063.454-.039.279-.087.585-.13.893-.015.113-.039.273-.048.36a.848.848,0,0,1-.039.219.778.778,0,0,0-.043.234c-.019.173-.048.383-.116.8-.015.119-.053.367-.077.549s-.068.414-.082.517-.043.282-.063.4-.034.244-.048.285c-.014.069,0,.081.077.1a.18.18,0,0,1,.1.047,1.794,1.794,0,0,0,.623.182.66.66,0,0,1,.217.056.584.584,0,0,0,.183.072.255.255,0,0,0,.227,0,.137.137,0,0,0,.068-.063.314.314,0,0,1,.116-.085.7.7,0,0,0,.188-.135,2.427,2.427,0,0,1,.179-.166.417.417,0,0,0,.111-.119.521.521,0,0,1,.13-.134.614.614,0,0,0,.126-.156.036.036,0,0,1,.024-.044,2.456,2.456,0,0,0,.319-.429.6.6,0,0,1,.077-.122,1.322,1.322,0,0,0,.116-.175,1.631,1.631,0,0,1,.106-.2c.092-.156.29-.564.454-.928a9.661,9.661,0,0,0,.478-1.642,5.291,5.291,0,0,0-.063-2.35,1.844,1.844,0,0,0-.169-.445,1.059,1.059,0,0,1-.058-.179.054.054,0,0,0-.024-.056,4.566,4.566,0,0,1-.237-.432c-.111-.234-.222-.445-.236-.471s-.043-.081-.068-.125c-.193-.357-.265-.5-.309-.564a1.194,1.194,0,0,1-.1-.172,1.1,1.1,0,0,0-.072-.126c-.068-.082-.372-.576-.415-.663-.024-.057-.174-.3-.328-.542a4.547,4.547,0,0,1-.285-.47.555.555,0,0,0-.1-.188,2.444,2.444,0,0,1-.28-.724,1,1,0,0,0-.092-.285,2.125,2.125,0,0,1-.116-.292.389.389,0,0,0-.053-.125,1.135,1.135,0,0,1-.058-.179.381.381,0,0,0-.082-.185.188.188,0,0,1-.043-.113.3.3,0,0,0-.068-.166.4.4,0,0,1-.048-.339c.019-.251,0-.319-.1-.319a.489.489,0,0,1-.14-.044q-.435-.136-.869-.226a.379.379,0,0,1-.14-.044,2.886,2.886,0,0,0-.57-.141c-.121-.022-.3-.065-.405-.094-.512-.141-.618-.159-.647-.128a.215.215,0,0,1-.174-.006.917.917,0,0,0-.2-.039.311.311,0,0,1-.121-.028,1.384,1.384,0,0,0-.256-.063,8.71,8.71,0,0,1-1.115-.319,1.58,1.58,0,0,0-.208-.076,7.71,7.71,0,0,1-.9-.445.358.358,0,0,0-.121-.072,6.139,6.139,0,0,1-1.091-.994,1.77,1.77,0,0,0-.256-.229A.243.243,0,0,0,1044.762,226.059Zm2.23,8.1a.124.124,0,0,1-.029.082.142.142,0,0,0-.034.106.185.185,0,0,1-.029.113.455.455,0,0,0-.063.156c-.024.069-.063.166-.082.22s-.063.175-.1.276a.761.761,0,0,1-.092.225.141.141,0,0,0-.048.072.574.574,0,0,1-.323.242.251.251,0,0,0-.121.056.737.737,0,0,1-.261.048l-.236.015v.185a.745.745,0,0,0,.1.379c.058.106.217.46.362.79s.338.73.43.893c.169.323.936,1.66,1.086,1.9l.092.144.019-.123c.019-.066.039-.191.053-.276s.039-.242.053-.345.053-.288.072-.407.048-.291.068-.376a3.346,3.346,0,0,0,.043-.345.681.681,0,0,1,.048-.219.24.24,0,0,0,.029-.141,4.659,4.659,0,0,1,.068-.5c.034-.217.068-.454.082-.533a.589.589,0,0,1,.039-.2,1.036,1.036,0,0,0,.043-.172,5.869,5.869,0,0,1,.145-.705,2.908,2.908,0,0,0,.082-.354.256.256,0,0,1,.043-.119.1.1,0,0,0,.029-.078,2.329,2.329,0,0,1,.145-.507,1.354,1.354,0,0,0,.048-.144.313.313,0,0,0-.179-.039.4.4,0,0,1-.193-.047.268.268,0,0,0-.135-.051,1.831,1.831,0,0,1-.391-.084,1.9,1.9,0,0,0-.483-.085.465.465,0,0,1-.193-.041c0-.022-.034-.034-.169-.06A.058.058,0,0,0,1046.992,234.158Zm6.077-6.373a.1.1,0,0,1-.034.047.145.145,0,0,1-.01-.047.036.036,0,0,1,.029-.046h0C1053.075,227.738,1053.079,227.76,1053.07,227.785Z" transform="translate(-969.754 -167.585)" fill="#f7f8fa" stroke="#3d4642" stroke-linejoin="round" stroke-width="0.4" fill-rule="evenodd"/>
        <path id="Path_3520" data-name="Path 3520" d="M1064.245,218.026l-3.91,1.17,1.955,2.73" transform="translate(-987.161 -170.426)" fill="none" stroke="#3d4642" stroke-linejoin="round" stroke-width="0.4" fill-rule="evenodd"/>
        <path id="Path_3521" data-name="Path 3521" d="M1051.316,259.153s6.222,1.041,6.994.815" transform="translate(-982.481 -191.765)" fill="#f7f8fa" stroke="#3d4642" stroke-linejoin="round" stroke-width="0.4" fill-rule="evenodd"/>
        <path id="Path_3522" data-name="Path 3522" d="M1028.482,259.153s8.993.068,8.993,0" transform="translate(-970.633 -191.765)" fill="#f7f8fa" stroke="#3d4642" stroke-linejoin="round" stroke-width="0.4" fill-rule="evenodd"/>
        <path id="Path_3523" data-name="Path 3523" d="M1055.469,255.014s2.65.175,4.552.5a7.568,7.568,0,0,1,1.9.591" transform="translate(-984.636 -189.617)" fill="#f7f8fa" stroke="#3d4642" stroke-linejoin="round" stroke-width="0.4" fill-rule="evenodd"/>
        <path id="Path_3524" data-name="Path 3524" d="M1059.223,247.865s-4.1,1.6-5.45,1.449" transform="translate(-983.756 -185.908)" fill="#f7f8fa" stroke="#3d4642" stroke-linejoin="round" stroke-width="0.4" fill-rule="evenodd"/>
        <path id="Path_3525" data-name="Path 3525" d="M1057.927,225.483a12.293,12.293,0,0,0,1.994,1.176" transform="translate(-985.911 -174.295)" fill="#f7f8fa" stroke="#3d4642" stroke-linejoin="round" stroke-width="0.4" fill-rule="evenodd"/>
        <path id="Path_3526" data-name="Path 3526" d="M1065.429,235.826,1064.338,238" transform="translate(-989.237 -179.661)" fill="#f7f8fa" stroke="#3d4642" stroke-linejoin="round" stroke-width="0.4" fill-rule="evenodd"/>
        <path id="Path_3527" data-name="Path 3527" d="M1080.533,244.48s1.472.905,1.545,1.267-.314.784-.637.634-1.994-.634-1.994-.634" transform="translate(-997.077 -184.152)" fill="#f7f8fa" stroke="#3d4642" stroke-linejoin="round" stroke-width="0.4" fill-rule="evenodd"/>
        <path id="Path_3528" data-name="Path 3528" d="M1069.2,269.311a22.814,22.814,0,0,0-.907,3.077c.068.3,4.687-.151,4.721-.724" transform="translate(-991.29 -197.035)" fill="#f7f8fa" stroke="#3d4642" stroke-linejoin="round" stroke-width="0.4" fill-rule="evenodd"/>
        <path id="Path_3529" data-name="Path 3529" d="M1069.244,275.7s.024.633,0,.814,5.807,1.117,6,.724.266-1.357-.367-1.72" transform="translate(-991.783 -200.256)" fill="#f7f8fa" stroke="#3d4642" stroke-linejoin="round" stroke-width="0.4" fill-rule="evenodd"/>
        <path id="Path_3530" data-name="Path 3530" d="M1050.717,259.341s-1.583,3.349-.092,5.25a10.545,10.545,0,0,0,7.086,3.62c2.4.031,1.54-.091,1.54-.091" transform="translate(-981.791 -191.862)" fill="#f7f8fa" stroke="#3d4642" stroke-linejoin="round" stroke-width="0.4" fill-rule="evenodd"/>
        <path id="Path_3531" data-name="Path 3531" d="M135.3,157.661a3.13,3.13,0,1,1-3.13-3.12A3.125,3.125,0,0,1,135.3,157.661Z" transform="translate(-66.952 -80.137)" fill="#f7f8fa" stroke="#3d4642" stroke-linejoin="round" stroke-width="0.4"/>
        <path id="Path_3532" data-name="Path 3532" d="M188.894,157.655a3.136,3.136,0,1,1-3.136-3.126A3.131,3.131,0,0,1,188.894,157.655Z" transform="translate(-94.755 -80.131)" fill="#f7f8fa" stroke="#3d4642" stroke-linejoin="round" stroke-width="0.4"/>
      </g>
    </g>
  </g>
</svg>
