<svg xmlns="http://www.w3.org/2000/svg" xmlns:xlink="http://www.w3.org/1999/xlink" width="103.446" height="103.927" viewBox="0 0 103.446 103.927">
  <defs>
    <clipPath id="clip-path">
      <path id="Path_4114" data-name="Path 4114" d="M912,133h103.446V236.927H912Z" transform="translate(-912 -133)" clip-rule="evenodd"/>
    </clipPath>
  </defs>
  <g id="e-commerce" clip-path="url(#clip-path)">
    <g id="Group_2015" data-name="Group 2015" clip-path="url(#clip-path)">
      <g id="Group_2014" data-name="Group 2014" clip-path="url(#clip-path)">
        <path id="Path_4053" data-name="Path 4053" d="M120.757,136.185h64.229a1.088,1.088,0,0,1,1.089,1.087v39.66a1.088,1.088,0,0,1-1.089,1.087H120.757a1.088,1.088,0,0,1-1.089-1.087v-39.66A1.088,1.088,0,0,1,120.757,136.185Z" transform="translate(-119.305 -126.394)" fill="#f7f8fa" stroke="#3d4642" stroke-linejoin="round" stroke-width="0.4" fill-rule="evenodd"/>
        <path id="Path_4054" data-name="Path 4054" d="M128.637,164.141h5.447a1.088,1.088,0,0,1,1.089,1.087v3.623a1.088,1.088,0,0,1-1.089,1.087h-5.447a1.088,1.088,0,0,1-1.089-1.087v-3.623A1.088,1.088,0,0,1,128.637,164.141Z" transform="translate(-123.393 -140.899)" fill="#f7f8fa" stroke="#3d4642" stroke-linejoin="round" stroke-width="0.4" fill-rule="evenodd"/>
        <path id="Path_4055" data-name="Path 4055" d="M153.361,189.741H193.3a.906.906,0,1,1,0,1.812H153.361a.906.906,0,1,1,0-1.812Z" transform="translate(-136.316 -154.182)" fill="#f7f8fa" stroke="#3d4642" stroke-linejoin="round" stroke-width="0.4" fill-rule="evenodd"/>
        <path id="Path_4056" data-name="Path 4056" d="M153.361,196.518h22.877a.906.906,0,1,1,0,1.811H153.361a.906.906,0,1,1,0-1.811Z" transform="translate(-136.316 -157.698)" fill="#f7f8fa" stroke="#3d4642" stroke-linejoin="round" stroke-width="0.4" fill-rule="evenodd"/>
        <path id="Path_4057" data-name="Path 4057" d="M153.361,203.294h14.525a.906.906,0,1,1,0,1.811H153.361a.906.906,0,1,1,0-1.811Z" transform="translate(-136.316 -161.214)" fill="#f7f8fa" stroke="#3d4642" stroke-linejoin="round" stroke-width="0.4" fill-rule="evenodd"/>
        <path id="Path_4058" data-name="Path 4058" d="M158.491,169.263V156.946a1.088,1.088,0,0,1,1.089-1.087h1.089a1.088,1.088,0,0,1,1.089,1.087v12.317" transform="translate(-139.449 -136.602)" fill="#f7f8fa" stroke="#3d4642" stroke-linejoin="round" stroke-width="0.4" fill-rule="evenodd"/>
        <path id="Path_4059" data-name="Path 4059" d="M168.3,173.951v-7.97a1.088,1.088,0,0,1,1.089-1.087h1.089a1.088,1.088,0,0,1,1.089,1.087v7.97" transform="translate(-144.539 -141.29)" fill="#89c19d" stroke="#3d4642" stroke-linejoin="round" stroke-width="0.4" fill-rule="evenodd"/>
        <path id="Path_4060" data-name="Path 4060" d="M178.113,171.607V161.463a1.088,1.088,0,0,1,1.089-1.087h1.089a1.089,1.089,0,0,1,1.089,1.087v10.144" transform="translate(-149.63 -138.946)" fill="#f7b0c4" stroke="#3d4642" stroke-linejoin="round" stroke-width="0.4" fill-rule="evenodd"/>
        <path id="Path_4061" data-name="Path 4061" d="M187.924,179.42v-2.9a1.088,1.088,0,0,1,1.089-1.087H190.1a1.088,1.088,0,0,1,1.089,1.087v2.9" transform="translate(-154.72 -146.759)" fill="#89c19d" stroke="#3d4642" stroke-linejoin="round" stroke-width="0.4" fill-rule="evenodd"/>
        <path id="Path_4062" data-name="Path 4062" stroke="#3d4642" d="M174.632,168.51H153.208v-13.4" fill="none" transform="translate(-136.707 -136.211)" stroke-linecap="round" stroke-linejoin="round" stroke-width="0.4" fill-rule="evenodd"/>
        <path id="Path_4063" data-name="Path 4063" d="M128.637,180.706h5.447a1.088,1.088,0,0,1,1.089,1.087v3.623a1.088,1.088,0,0,1-1.089,1.087h-5.447a1.088,1.088,0,0,1-1.089-1.087v-3.623A1.088,1.088,0,0,1,128.637,180.706Z" transform="translate(-123.393 -149.494)" fill="#f7f8fa" stroke="#3d4642" stroke-linejoin="round" stroke-width="0.4" fill-rule="evenodd"/>
        <path id="Path_4064" data-name="Path 4064" d="M128.637,197.27h5.447a1.088,1.088,0,0,1,1.089,1.087v3.623a1.088,1.088,0,0,1-1.089,1.087h-5.447a1.088,1.088,0,0,1-1.089-1.087v-3.623A1.088,1.088,0,0,1,128.637,197.27Z" transform="translate(-123.393 -158.088)" fill="#f7f8fa" stroke="#3d4642" stroke-linejoin="round" stroke-width="0.4" fill-rule="evenodd"/>
        <path id="Path_4065" data-name="Path 4065" d="M127.547,218.182v-3.26a1.088,1.088,0,0,1,1.089-1.087h5.447a1.088,1.088,0,0,1,1.089,1.087v3.26" transform="translate(-123.393 -166.683)" fill="none" stroke="#3d4642" stroke-linejoin="round" stroke-width="0.4" fill-rule="evenodd"/>
        <path id="Path_4066" data-name="Path 4066" d="M120,146.071h66.452" transform="translate(-119.478 -131.523)" fill="none" stroke="#3d4642" stroke-linejoin="round" stroke-width="0.4" fill-rule="evenodd"/>
        <path id="Path_4067" data-name="Path 4067" d="M7.429,24.341a.908.908,0,1,1-.908-.906A.907.907,0,0,1,7.429,24.341Z" transform="translate(-2.913 -12.148)" fill="#f7f8fa" stroke="#3d4642" stroke-linejoin="round" stroke-width="0.4"/>
        <path id="Path_4068" data-name="Path 4068" d="M14.976,24.341a.908.908,0,1,1-.908-.906A.907.907,0,0,1,14.976,24.341Z" transform="translate(-6.829 -12.148)" fill="#f7f8fa" stroke="#3d4642" stroke-linejoin="round" stroke-width="0.4"/>
        <path id="Path_4069" data-name="Path 4069" d="M22.524,24.341a.908.908,0,1,1-.908-.906A.907.907,0,0,1,22.524,24.341Z" transform="translate(-10.744 -12.148)" fill="#f7f8fa" stroke="#3d4642" stroke-linejoin="round" stroke-width="0.4"/>
        <path id="Path_4070" data-name="Path 4070" d="M153.934,140.047h43.212a.725.725,0,1,1,0,1.449H153.934a.725.725,0,1,1,0-1.449Z" transform="translate(-136.707 -128.398)" fill="#f7f8fa" stroke="#3d4642" stroke-linejoin="round" stroke-width="0.4" fill-rule="evenodd"/>
        <path id="Path_4071" data-name="Path 4071" d="M196.228,116.609h64.229a1.088,1.088,0,0,1,1.089,1.087v39.66a1.088,1.088,0,0,1-1.089,1.087H196.228a1.088,1.088,0,0,1-1.089-1.087V117.7A1.088,1.088,0,0,1,196.228,116.609Z" transform="translate(-158.464 -116.237)" fill="#f7f8fa" stroke="#3d4642" stroke-linejoin="round" stroke-width="0.4" fill-rule="evenodd"/>
        <path id="Path_4072" data-name="Path 4072" d="M269.769,136.282h23.966a1.088,1.088,0,0,1,1.089,1.087v2.536a1.089,1.089,0,0,1-1.089,1.087H269.769a1.088,1.088,0,0,1-1.089-1.087v-2.536A1.088,1.088,0,0,1,269.769,136.282Z" transform="translate(-196.621 -126.444)" fill="#f7f8fa" stroke="#3d4642" stroke-linejoin="round" stroke-width="0.4" fill-rule="evenodd"/>
        <path id="Path_4073" data-name="Path 4073" d="M269.769,149.835h23.966a1.088,1.088,0,0,1,1.089,1.087v2.536a1.088,1.088,0,0,1-1.089,1.086H269.769a1.088,1.088,0,0,1-1.089-1.086v-2.536A1.088,1.088,0,0,1,269.769,149.835Z" transform="translate(-196.621 -133.476)" fill="#89c19d" stroke="#3d4642" stroke-linejoin="round" stroke-width="0.4" fill-rule="evenodd"/>
        <path id="Path_4074" data-name="Path 4074" d="M269.769,163.388h23.966a1.088,1.088,0,0,1,1.089,1.087v2.536a1.088,1.088,0,0,1-1.089,1.086H269.769a1.088,1.088,0,0,1-1.089-1.086v-2.536A1.088,1.088,0,0,1,269.769,163.388Z" transform="translate(-196.621 -140.508)" fill="#89c19d" stroke="#3d4642" stroke-linejoin="round" stroke-width="0.4" fill-rule="evenodd"/>
        <path id="Path_4075" data-name="Path 4075" d="M269.769,176.941h23.966a1.088,1.088,0,0,1,1.089,1.087v2.536a1.088,1.088,0,0,1-1.089,1.086H269.769a1.088,1.088,0,0,1-1.089-1.086v-2.536A1.088,1.088,0,0,1,269.769,176.941Z" transform="translate(-196.621 -147.54)" fill="#f7f8fa" stroke="#3d4642" stroke-linejoin="round" stroke-width="0.4" fill-rule="evenodd"/>
        <path id="Path_4076" data-name="Path 4076" d="M227.633,160.675H213.108l-2.542-11.593h22.151" transform="translate(-166.468 -133.086)" fill="#f7b0c4" stroke="#3d4642" stroke-linejoin="round" stroke-width="0.4" fill-rule="evenodd"/>
        <path id="Path_4077" data-name="Path 4077" stroke="#3d4642" d="M252.575,140.8a2.131,2.131,0,0,0-1.816,1.087c-.6.924.422,2.233.128,2.935l-4.848,11.556" fill="none" transform="translate(-184.873 -128.788)" stroke-linecap="round" stroke-linejoin="round" stroke-width="0.4" fill-rule="evenodd"/>
        <path id="Path_4078" data-name="Path 4078" d="M211.321,152.847h20.7" transform="translate(-166.86 -135.039)" fill="none" stroke="#3d4642" stroke-linejoin="round" stroke-width="0.4" fill-rule="evenodd"/>
        <path id="Path_4079" data-name="Path 4079" d="M212.83,158.118h18.883" transform="translate(-167.643 -137.774)" fill="none" stroke="#3d4642" stroke-linejoin="round" stroke-width="0.4" fill-rule="evenodd"/>
        <path id="Path_4080" data-name="Path 4080" d="M213.585,163.388h17.793" transform="translate(-168.034 -140.508)" fill="none" stroke="#3d4642" stroke-linejoin="round" stroke-width="0.4" fill-rule="evenodd"/>
        <path id="Path_4081" data-name="Path 4081" d="M215.094,168.659h15.978" transform="translate(-168.818 -143.243)" fill="none" stroke="#3d4642" stroke-linejoin="round" stroke-width="0.4" fill-rule="evenodd"/>
        <path id="Path_4082" data-name="Path 4082" d="M216.6,148.329l2.542,11.593" transform="translate(-169.601 -132.695)" fill="#f7b0c4" stroke="#3d4642" stroke-linejoin="round" stroke-width="0.4" fill-rule="evenodd"/>
        <path id="Path_4083" data-name="Path 4083" d="M224.906,149.082l1.453,11.593" transform="translate(-173.908 -133.086)" fill="#f7b0c4" stroke="#3d4642" stroke-linejoin="round" stroke-width="0.4" fill-rule="evenodd"/>
        <path id="Path_4084" data-name="Path 4084" d="M314.717,153.572l.726.725,1.453-1.449" transform="translate(-220.507 -135.039)" fill="none" stroke="#3d4642" stroke-linejoin="round" stroke-width="0.4" fill-rule="evenodd"/>
        <path id="Path_4085" data-name="Path 4085" d="M314.717,167.125l.726.725L316.9,166.4" transform="translate(-220.507 -142.071)" fill="none" stroke="#3d4642" stroke-linejoin="round" stroke-width="0.4" fill-rule="evenodd"/>
        <path id="Path_4086" data-name="Path 4086" d="M314.717,182.212H316.9" transform="translate(-220.507 -150.275)" fill="none" stroke="#3d4642" stroke-linejoin="round" stroke-width="0.4" fill-rule="evenodd"/>
        <path id="Path_4087" data-name="Path 4087" d="M314.717,141.553H316.9" transform="translate(-220.507 -129.179)" fill="none" stroke="#3d4642" stroke-linejoin="round" stroke-width="0.4" fill-rule="evenodd"/>
        <path id="Path_4088" data-name="Path 4088" d="M244.075,149.082l-2.542,11.593" transform="translate(-182.535 -133.086)" fill="#f7b0c4" stroke="#3d4642" stroke-linejoin="round" stroke-width="0.4" fill-rule="evenodd"/>
        <path id="Path_4089" data-name="Path 4089" d="M238.458,149.082l-1.453,11.593" transform="translate(-180.186 -133.086)" fill="#f7b0c4" stroke="#3d4642" stroke-linejoin="round" stroke-width="0.4" fill-rule="evenodd"/>
        <path id="Path_4090" data-name="Path 4090" d="M232.453,149.082v11.593" transform="translate(-177.824 -133.086)" fill="none" stroke="#3d4642" stroke-linejoin="round" stroke-width="0.4" fill-rule="evenodd"/>
        <path id="Path_4091" data-name="Path 4091" stroke="#3d4642" d="M229.983,173.176l1.815,2.174s.629.725,0,.725h-16.7" fill="none" transform="translate(-168.818 -145.587)" stroke-linecap="round" stroke-linejoin="round" stroke-width="0.4" fill-rule="evenodd"/>
        <path id="Path_4092" data-name="Path 4092" d="M99.84,65.543a1.453,1.453,0,1,1-1.453-1.449A1.451,1.451,0,0,1,99.84,65.543Z" transform="translate(-50.295 -33.244)" fill="none" stroke="#3d4642" stroke-linecap="round" stroke-linejoin="round" stroke-width="0.4"/>
        <path id="Path_4093" data-name="Path 4093" d="M127.009,65.543a1.453,1.453,0,1,1-1.453-1.449A1.451,1.451,0,0,1,127.009,65.543Z" transform="translate(-64.392 -33.244)" fill="none" stroke="#3d4642" stroke-linecap="round" stroke-linejoin="round" stroke-width="0.4"/>
        <path id="Path_4094" data-name="Path 4094" d="M195.472,126.494h66.452" transform="translate(-158.637 -121.366)" fill="none" stroke="#3d4642" stroke-linejoin="round" stroke-width="0.4" fill-rule="evenodd"/>
        <path id="Path_4095" data-name="Path 4095" d="M82.9,4.765a.908.908,0,1,1-.908-.906A.907.907,0,0,1,82.9,4.765Z" transform="translate(-42.072 -1.991)" fill="#f7f8fa" stroke="#3d4642" stroke-linejoin="round" stroke-width="0.4"/>
        <path id="Path_4096" data-name="Path 4096" d="M90.448,4.765a.908.908,0,1,1-.908-.906A.907.907,0,0,1,90.448,4.765Z" transform="translate(-45.987 -1.991)" fill="#f7f8fa" stroke="#3d4642" stroke-linejoin="round" stroke-width="0.4"/>
        <path id="Path_4097" data-name="Path 4097" d="M98,4.765a.908.908,0,1,1-.908-.906A.907.907,0,0,1,98,4.765Z" transform="translate(-49.903 -1.991)" fill="#f7f8fa" stroke="#3d4642" stroke-linejoin="round" stroke-width="0.4"/>
        <path id="Path_4098" data-name="Path 4098" d="M229.406,120.471h43.212a.724.724,0,1,1,0,1.449H229.406a.724.724,0,1,1,0-1.449Z" transform="translate(-175.866 -118.241)" fill="#f7f8fa" stroke="#3d4642" stroke-linejoin="round" stroke-width="0.4" fill-rule="evenodd"/>
        <path id="Path_4099" data-name="Path 4099" d="M214.835,216.739l.589,4.115s1.562,2.91,1.179,4.7a8.833,8.833,0,0,1-1.179,2.94l4.125,4.7,7.072-2.352.589-3.527s-1.5.911-2.357-1.176.617-6.262.589-7.644S214.835,216.739,214.835,216.739Z" transform="translate(-168.683 -168.19)" fill="#f7f8fa" fill-rule="evenodd"/>
        <path id="Path_4100" data-name="Path 4100" d="M200.286,241.684l-2.947.588a11.77,11.77,0,0,1-3.465-.914,13.928,13.928,0,0,1-1.839-1.439l-4.713.588-5.3,2.352a11.312,11.312,0,0,0-5.893,4.116c-2.263,3.312-2.947,8.819-2.947,8.819a113.6,113.6,0,0,0-2.263,12.938c-.776,7.279-1.159,15.324-1.159,15.324s3.661-.058,8.549-.058c.291,0,2.053-11.812,2.442-11.879.488-.084-.7,11.879-.305,11.879,6.379,0,14.7-.211,21.371-.211,6.818,0,12.212.154,12.212.154s-.8-9.6-.774-11.687a88.637,88.637,0,0,0-.611-9.124c-.229-1.681,3.536-4.116,3.536-4.116l3.558-2.047V254.03a34.289,34.289,0,0,0-2.02-7.115c-1.248-2.8-6.607-6.071-8.352-6.521a16.64,16.64,0,0,0-3.628-.507c-1.336.011-2.5.034-2.5.034Z" transform="translate(-145.294 -180.2)" fill="#89c19d" fill-rule="evenodd"/>
        <path id="Path_4101" data-name="Path 4101" d="M244.02,204.087s1.6-2.079,1.388,1.238-1.146,3.073-1.825,2.732" transform="translate(-183.599 -161.291)" fill="#fff" stroke="#3d4642" stroke-linejoin="round" stroke-width="0.4" fill-rule="evenodd"/>
        <path id="Path_4102" data-name="Path 4102" d="M204.726,204.114s-1.409-2.21-1.491,1.112.872,3.162,1.578,2.882" transform="translate(-162.662 -161.266)" fill="#fff" stroke="#3d4642" stroke-linejoin="round" stroke-width="0.4" fill-rule="evenodd"/>
        <path id="Path_4103" data-name="Path 4103" d="M224.7,189.287c0,2.515-.681,7.254-1.818,9.068s-7.8,5.138-8.483,4.231-4.468-1.511-6.665-3.627-2.53-9.1-.606-13.9c1.768-4.42,4.241-3.627,4.241-3.627a8.207,8.207,0,0,1,7.877-1.813C222.154,180.478,224.7,183.968,224.7,189.287Z" transform="translate(-164.029 -148.752)" fill="#f7f8fa" stroke="#3d4642" stroke-linejoin="round" stroke-width="0.4" fill-rule="evenodd"/>
        <path id="Path_4104" data-name="Path 4104" d="M266.818,190.183a26.243,26.243,0,0,1,.658-3.284c.363-1.364,1.171-3.012.675-3.754-1.151-1.721-5.658-6.093-5.511-8.525.1-1.615,1.318-.956,1.934-.276.341.376,1.119,1.3,1.382,1.654a4.527,4.527,0,0,0,1.208,1.242s-1.316-9.433-.987-10.826,1.973-1.558,1.973,0,.986,7.873.986,7.873-.135-5.1.688-5.18,1.07.482,1.1,1.654,0,3.859,0,3.859.242-4.686.829-4.963,1.14,0,1.105,1.377,0,3.859,0,3.859.38-4.411.553-4.686,1.38-.758,1.38.551v6.064a9.784,9.784,0,0,1-.829,4.686c-.933,1.827-.4,6.081-.5,7.358" transform="translate(-193.485 -141.503)" fill="#f7f8fa" stroke="#3d4642" stroke-linejoin="round" stroke-width="0.4" fill-rule="evenodd"/>
        <path id="Path_4105" data-name="Path 4105" d="M193.105,224.587s2.052,6.862-1.321,7.518-12.754.821-16.457,9.194-5.513,31.195-5.266,34.807" transform="translate(-145.44 -172.262)" fill="none" stroke="#3d4642" stroke-linejoin="round" stroke-width="0.4" fill-rule="evenodd"/>
        <path id="Path_4106" data-name="Path 4106" d="M261.134,227.205c.026-.191.054-.394.082-.609.77-5.652,2.635-19.245,2.96-20.541.219-.876,2.08-1.191,3.767-1.294a4.942,4.942,0,0,1,2.879,1.009,10.081,10.081,0,0,0-.069,1.908c-.036,8.26-.286,31.378-1.97,35.811-2.057,5.418-2.55,5.911-4.608,5.253s-6.665-3.612-7.9-5.253" transform="translate(-190.186 -161.972)" fill="#89c19d" stroke="#3d4642" stroke-linejoin="round" stroke-width="0.4" fill-rule="evenodd"/>
        <path id="Path_4107" data-name="Path 4107" d="M236.674,221.1s-4.2,7.717.658,8.538,9.078,1.613,11.463,4.076,5.179,8.566,6.083,11.029" transform="translate(-179.141 -170.454)" fill="none" stroke="#3d4642" stroke-linejoin="round" stroke-width="0.4" fill-rule="evenodd"/>
        <path id="Path_4108" data-name="Path 4108" d="M259.014,287.986s1.4,16.678,1.316,20.947" transform="translate(-191.606 -205.157)" fill="#fff" stroke="#3d4642" stroke-linejoin="round" stroke-width="0.4" fill-rule="evenodd"/>
        <path id="Path_4109" data-name="Path 4109" d="M192.254,280.094a33.006,33.006,0,0,0-1.048,4.479c-.938,6.033-2.687,17.154-3.337,20.334" transform="translate(-154.692 -201.062)" fill="none" stroke="#3d4642" stroke-linejoin="round" stroke-width="0.4" fill-rule="evenodd"/>
        <path id="Path_4110" data-name="Path 4110" d="M192.531,298.707s-1.07,13.722-.658,15.857" transform="translate(-156.72 -210.719)" fill="#fff" stroke="#3d4642" stroke-linejoin="round" stroke-width="0.4" fill-rule="evenodd"/>
        <path id="Path_4111" data-name="Path 4111" d="M216.6,239.5a6.829,6.829,0,0,0,5.467,1.982,9.911,9.911,0,0,0,5.724-2.639" transform="translate(-169.601 -179.661)" fill="#fff" stroke="#3d4642" stroke-linejoin="round" stroke-width="0.4" fill-rule="evenodd"/>
      </g>
    </g>
  </g>
</svg>
