<svg xmlns="http://www.w3.org/2000/svg" xmlns:xlink="http://www.w3.org/1999/xlink" width="114.994" height="79.389" viewBox="0 0 114.994 79.389">
  <defs>
    <clipPath id="clip-path">
      <path id="Path_4021" data-name="Path 4021" d="M335,1091H449.994v79.389H335Z" transform="translate(-335 -1091)" clip-rule="evenodd"/>
    </clipPath>
  </defs>
  <g id="Payments" clip-path="url(#clip-path)">
    <g id="Group_2009" data-name="Group 2009" clip-path="url(#clip-path)">
      <g id="Group_2008" data-name="Group 2008" clip-path="url(#clip-path)">
        <path id="Path_3983" data-name="Path 3983" d="M238.72,470.834h38.143a3.7,3.7,0,0,1,3.705,3.7v.23a3.7,3.7,0,0,1-3.7,3.7H238.72a3.7,3.7,0,0,1-3.7-3.7v-.23A3.7,3.7,0,0,1,238.72,470.834Z" transform="translate(-170.471 -437.843)" fill="#89c19d" stroke="#3d4642" stroke-linejoin="round" stroke-width="0.4" fill-rule="evenodd"/>
        <path id="Path_3984" data-name="Path 3984" d="M238.72,492.156h38.143a3.7,3.7,0,0,1,3.705,3.7h0v.23a3.7,3.7,0,0,1-3.705,3.7H238.72a3.7,3.7,0,0,1-3.7-3.7v-.23A3.7,3.7,0,0,1,238.72,492.156Z" transform="translate(-170.471 -448.906)" fill="#f7f8fa" stroke="#3d4642" stroke-linejoin="round" stroke-width="0.4" fill-rule="evenodd"/>
        <path id="Path_3985" data-name="Path 3985" d="M242.126,495.219a2.2,2.2,0,1,1-2.2,2.2h0a2.2,2.2,0,0,1,2.2-2.2Z" transform="translate(-173.017 -450.495)" fill="#f7f8fa" stroke="#3d4642" stroke-linejoin="round" stroke-width="0.4" fill-rule="evenodd"/>
        <path id="Path_3986" data-name="Path 3986" d="M242.126,473.875a2.2,2.2,0,1,1-2.2,2.2h0a2.2,2.2,0,0,1,2.2-2.2Z" transform="translate(-173.017 -439.421)" fill="#f7f8fa" stroke="#3d4642" stroke-linejoin="round" stroke-width="0.4" fill-rule="evenodd"/>
        <path id="Path_3987" data-name="Path 3987" d="M242.963,478.122l.587.587,1.176-1.174" transform="translate(-174.595 -441.32)" fill="none" stroke="#3d4642" stroke-linejoin="round" stroke-width="0.4" fill-rule="evenodd"/>
        <path id="Path_3988" data-name="Path 3988" d="M238.72,513.5h38.143a3.7,3.7,0,0,1,3.705,3.7h0v.23a3.7,3.7,0,0,1-3.705,3.7H238.72a3.7,3.7,0,0,1-3.7-3.7h0V517.2a3.7,3.7,0,0,1,3.7-3.7Z" transform="translate(-170.471 -459.981)" fill="#f7f8fa" stroke="#3d4642" stroke-linejoin="round" stroke-width="0.4" fill-rule="evenodd"/>
        <path id="Path_3989" data-name="Path 3989" d="M102.967,462.9h22.222a1.082,1.082,0,0,1,1.083,1.081v45.348a1.081,1.081,0,0,1-1.083,1.081H102.967a1.082,1.082,0,0,1-1.083-1.081V463.979A1.082,1.082,0,0,1,102.967,462.9Z" transform="translate(-101.395 -433.725)" fill="#f7f8fa" stroke="#3d4642" stroke-linejoin="round" stroke-width="0.4" fill-rule="evenodd"/>
        <path id="Path_3990" data-name="Path 3990" d="M105.3,466.015h4.584c.382,0,.335,1.906,1.469,1.759h8.374c1.661,0,1.1-1.759,1.616-1.759h4.143a.881.881,0,0,1,.881.88h0v43.047a.881.881,0,0,1-.881.88H105.3a.881.881,0,0,1-.881-.88V466.9a.881.881,0,0,1,.88-.88Z" transform="translate(-102.71 -435.342)" fill="#f7b0c4" stroke="#3d4642" stroke-linejoin="round" stroke-width="0.4" fill-rule="evenodd"/>
        <path id="Path_3991" data-name="Path 3991" d="M296.707,452.548s.671,1.173,1.323,1.173c.373,0,.837-1.173,1.371-1.173.445,0,.939,1.173,1.47,1.173.493,0,1.018-1.173,1.567-1.173.566,0,1.155,1.173,1.763,1.173.418,0,.844-1.173,1.273-1.173.357,0,.716,1.173,1.077,1.173.424,0,.85-1.173,1.274-1.173.593,0,.89,1.173,1.469,1.173.673,0,1.036-1.173,1.665-1.173.44,0,.866,1.173,1.273,1.173.448,0,1.168-1.173,1.567-1.173.426,0,1.114,1.173,1.47,1.173.357.1,1.714-1.173,1.714-1.173V505.33H296.707Z" transform="translate(-202.48 -428.355)" fill="#f7f8fa" stroke="#3d4642" stroke-linejoin="round" stroke-width="0.4" fill-rule="evenodd"/>
        <path id="Path_3992" data-name="Path 3992" d="M242.126,516.541a2.2,2.2,0,1,1-2.2,2.2,2.2,2.2,0,0,1,2.2-2.2Z" transform="translate(-173.017 -461.558)" fill="#f7f8fa" stroke="#3d4642" stroke-linejoin="round" stroke-width="0.4" fill-rule="evenodd"/>
        <path id="Path_3993" data-name="Path 3993" d="M301.975,465.335h5.643a1,1,0,0,1,1,1h0v.061a1,1,0,0,1-1,1h-5.643a1,1,0,0,1-1-1h0v-.061A1,1,0,0,1,301.975,465.335Z" transform="translate(-204.695 -434.99)" fill="#89c19d" stroke="#3d4642" stroke-linejoin="round" stroke-width="0.4" fill-rule="evenodd"/>
        <path id="Path_3994" data-name="Path 3994" d="M301.686,475.707H315.84a.708.708,0,0,1,.709.707h0v.047a.708.708,0,0,1-.709.707H301.686a.708.708,0,0,1-.709-.707h0v-.047a.708.708,0,0,1,.709-.707Z" transform="translate(-204.695 -440.371)" fill="#89c19d" stroke="#3d4642" stroke-linejoin="round" stroke-width="0.4" fill-rule="evenodd"/>
        <path id="Path_3995" data-name="Path 3995" d="M301.691,481.811h12.1a.713.713,0,0,1,.714.713v.036a.713.713,0,0,1-.714.713h-12.1a.713.713,0,0,1-.714-.713v-.036A.714.714,0,0,1,301.691,481.811Z" transform="translate(-204.695 -443.538)" fill="#89c19d" stroke="#3d4642" stroke-linejoin="round" stroke-width="0.4" fill-rule="evenodd"/>
        <path id="Path_3996" data-name="Path 3996" d="M301.691,487.887h13.271a.713.713,0,0,1,.714.712v.049a.713.713,0,0,1-.714.713H301.691a.714.714,0,0,1-.714-.713V488.6A.713.713,0,0,1,301.691,487.887Z" transform="translate(-204.695 -446.691)" fill="#89c19d" stroke="#3d4642" stroke-linejoin="round" stroke-width="0.4" fill-rule="evenodd"/>
        <path id="Path_3997" data-name="Path 3997" d="M301.686,493.989h10.63a.708.708,0,0,1,.709.708v.047a.708.708,0,0,1-.709.707h-10.63a.708.708,0,0,1-.709-.707h0V494.7a.708.708,0,0,1,.709-.708Z" transform="translate(-204.695 -449.857)" fill="#89c19d" stroke="#3d4642" stroke-linejoin="round" stroke-width="0.4" fill-rule="evenodd"/>
        <path id="Path_3998" data-name="Path 3998" d="M301.691,500.091h14.144a.714.714,0,0,1,.714.714h0v.036a.714.714,0,0,1-.714.713H301.691a.714.714,0,0,1-.714-.713V500.8a.714.714,0,0,1,.714-.714Z" transform="translate(-204.695 -453.023)" fill="#89c19d" stroke="#3d4642" stroke-linejoin="round" stroke-width="0.4" fill-rule="evenodd"/>
        <path id="Path_3999" data-name="Path 3999" d="M301.686,506.193h11.223a.708.708,0,0,1,.709.708h0v.047a.708.708,0,0,1-.709.708H301.686a.709.709,0,0,1-.709-.708V506.9A.709.709,0,0,1,301.686,506.193Z" transform="translate(-204.695 -456.189)" fill="#89c19d" stroke="#3d4642" stroke-linejoin="round" stroke-width="0.4" fill-rule="evenodd"/>
        <path id="Path_4000" data-name="Path 4000" d="M301.691,518.35h8.271a.713.713,0,0,1,.714.713v.049a.714.714,0,0,1-.714.713h-8.271a.714.714,0,0,1-.714-.713v-.049A.713.713,0,0,1,301.691,518.35Z" transform="translate(-204.695 -462.497)" fill="#89c19d" stroke="#3d4642" stroke-linejoin="round" stroke-width="0.4" fill-rule="evenodd"/>
        <path id="Path_4001" data-name="Path 4001" stroke="#3d4642" d="M324.8,537.965a2.442,2.442,0,0,0-.452-1.533,2.834,2.834,0,0,0-1.115-.879,10.764,10.764,0,0,0-1.673-.549V531.74a4.763,4.763,0,0,1,2.382,1.083l.661-1.413a4.367,4.367,0,0,0-1.3-.8,6.252,6.252,0,0,0-1.642-.421v-1.654h-1.538v1.669a4.225,4.225,0,0,0-1.68.564,3.312,3.312,0,0,0-1.137,1.112,2.8,2.8,0,0,0-.407,1.481,2.534,2.534,0,0,0,.467,1.585,2.953,2.953,0,0,0,1.16.917,10.693,10.693,0,0,0,1.7.564v3.127a5.113,5.113,0,0,1-2.833-1.128l-.663,1.413a5.01,5.01,0,0,0,1.514.857,6.979,6.979,0,0,0,1.877.391v1.639h1.537v-1.669a3.987,3.987,0,0,0,2.283-1.045,2.763,2.763,0,0,0,.851-2.053h0Zm-5.951-4.706a1.367,1.367,0,0,1,.369-.977,1.882,1.882,0,0,1,1.017-.526v2.9a2.947,2.947,0,0,1-1.025-.549,1.081,1.081,0,0,1-.361-.849h0Zm2.712,6.225v-2.692a2.7,2.7,0,0,1,.964.482.946.946,0,0,1,.332.752,1.377,1.377,0,0,1-.332.955,1.745,1.745,0,0,1-.964.5h0Z" fill="#89c19d" transform="translate(-212.873 -467.783)" stroke-linecap="round" stroke-linejoin="round" stroke-width="0.4" fill-rule="evenodd"/>
        <path id="Path_4002" data-name="Path 4002" d="M136.084,514.011l28.8-2.346,1.763,8.8-25.858,3.812Z" transform="translate(-119.14 -459.028)" fill="#89c19d" stroke="#3d4642" stroke-linejoin="round" stroke-width="0.4" fill-rule="evenodd"/>
        <path id="Path_4003" data-name="Path 4003" d="M132.043,518.35h31.78a1.443,1.443,0,0,1,1.444,1.441v20.294a1.442,1.442,0,0,1-1.444,1.441h-31.78a1.442,1.442,0,0,1-1.444-1.441V519.791A1.443,1.443,0,0,1,132.043,518.35Z" transform="translate(-116.294 -462.497)" fill="#f7f8fa" stroke="#3d4642" stroke-linejoin="round" stroke-width="0.4" fill-rule="evenodd"/>
        <path id="Path_4004" data-name="Path 4004" d="M194.1,518.369a1.174,1.174,0,0,1,1.176,1.172h0v20.82a1.174,1.174,0,0,1-1.175,1.173" transform="translate(-149.244 -462.507)" fill="#f7f8fa" stroke="#3d4642" stroke-linejoin="round" stroke-width="0.4" fill-rule="evenodd"/>
        <path id="Path_4005" data-name="Path 4005" d="M111.885,492.156H144.84a1.442,1.442,0,0,1,1.444,1.441v18.82a1.442,1.442,0,0,1-1.444,1.441H111.885a1.442,1.442,0,0,1-1.444-1.441V493.6A1.442,1.442,0,0,1,111.885,492.156Z" transform="translate(-105.835 -448.906)" fill="#f7f8fa" stroke="#3d4642" stroke-linejoin="round" stroke-width="0.4" fill-rule="evenodd"/>
        <path id="Path_4006" data-name="Path 4006" d="M110.434,502.523h35.85v4.4h-35.85Z" transform="translate(-105.832 -454.285)" fill="#f7b0c4" fill-rule="evenodd"/>
        <path id="Path_4007" data-name="Path 4007" d="M111.046,502.523H146.6" transform="translate(-106.149 -454.285)" fill="none" stroke="#3d4642" stroke-linejoin="round" stroke-width="0.4" fill-rule="evenodd"/>
        <path id="Path_4008" data-name="Path 4008" d="M188.271,543.466H178.28a2.492,2.492,0,1,1,0-4.985h9.991" transform="translate(-139.738 -472.942)" fill="#f7f8fa" stroke="#3d4642" stroke-linejoin="round" stroke-width="0.4" fill-rule="evenodd"/>
        <path id="Path_4009" data-name="Path 4009" d="M181.227,540.9a1.178,1.178,0,1,1-1.175,1.184v-.006A1.176,1.176,0,0,1,181.227,540.9Z" transform="translate(-141.953 -474.198)" fill="#f7f8fa" stroke="#3d4642" stroke-linejoin="round" stroke-width="0.4" fill-rule="evenodd"/>
        <path id="Path_4010" data-name="Path 4010" d="M111.046,511.665H146.6" transform="translate(-106.149 -459.028)" fill="none" stroke="#3d4642" stroke-linejoin="round" stroke-width="0.4" fill-rule="evenodd"/>
        <path id="Path_4011" data-name="Path 4011" d="M118.479,520.208h19.434a.712.712,0,0,1,.714.712h0v.036a.713.713,0,0,1-.713.713H118.479a.713.713,0,0,1-.714-.713v-.036A.713.713,0,0,1,118.479,520.208Z" transform="translate(-109.635 -463.461)" fill="#f7f8fa" stroke="#3d4642" stroke-linejoin="round" stroke-width="0.4" fill-rule="evenodd"/>
        <path id="Path_4012" data-name="Path 4012" d="M118.479,526.913H129.1a.713.713,0,0,1,.714.713v.036a.713.713,0,0,1-.714.712h-10.62a.713.713,0,0,1-.714-.712v-.036A.713.713,0,0,1,118.479,526.913Z" transform="translate(-109.635 -466.94)" fill="#f7f8fa" stroke="#3d4642" stroke-linejoin="round" stroke-width="0.4" fill-rule="evenodd"/>
        <path id="Path_4013" data-name="Path 4013" d="M111.885,492.156H144.84a1.442,1.442,0,0,1,1.444,1.441v18.82a1.442,1.442,0,0,1-1.444,1.441H111.885a1.442,1.442,0,0,1-1.444-1.441V493.6A1.442,1.442,0,0,1,111.885,492.156Z" transform="translate(-105.835 -448.906)" fill="none" stroke="#3d4642" stroke-linejoin="round" stroke-width="0.4" fill-rule="evenodd"/>
        <path id="Path_4014" data-name="Path 4014" d="M171.009,524.476h3.255a.721.721,0,0,1,.722.72v2.366a.721.721,0,0,1-.722.721h-3.255a.721.721,0,0,1-.722-.721V525.2A.721.721,0,0,1,171.009,524.476Z" transform="translate(-136.886 -465.675)" fill="none" stroke="#3d4642" stroke-linejoin="round" stroke-width="0.4" fill-rule="evenodd"/>
        <path id="Path_4015" data-name="Path 4015" stroke="#3d4642" d="M126.314,440.371V426.882a1.761,1.761,0,0,1,1.763-1.759h17.19m19.1,0h17.19a1.761,1.761,0,0,1,1.763,1.759v21.406" fill="none" transform="translate(-114.071 -414.125)" stroke-linecap="round" stroke-linejoin="round" stroke-width="0.4" fill-rule="evenodd"/>
        <path id="Path_4016" data-name="Path 4016" d="M25.3,50.042a2.205,2.205,0,1,1-2.205-2.2A2.2,2.2,0,0,1,25.3,50.042Z" transform="translate(-10.71 -24.823)" fill="#f7f8fa" stroke="#3d4642" stroke-linejoin="round" stroke-width="0.4"/>
        <path id="Path_4017" data-name="Path 4017" d="M125.092,454.354l.588.587,1.175-1.173" transform="translate(-113.437 -428.988)" fill="none" stroke="#3d4642" stroke-linejoin="round" stroke-width="0.4" fill-rule="evenodd"/>
        <path id="Path_4018" data-name="Path 4018" stroke="#3d4642" d="M177.669,416.759a3.4,3.4,0,0,1-.722.414,1.386,1.386,0,0,1-.755,0,1.8,1.8,0,0,1-.459-.414,2.343,2.343,0,0,1-2.919-2.042,1.8,1.8,0,0,1-.966-.166,3.127,3.127,0,0,1-1.2-2.214,8.035,8.035,0,0,1,.554-4.7,7.648,7.648,0,0,1,2.269-3.028,9.972,9.972,0,0,1,5.217-1.585,12.366,12.366,0,0,1,3.881.461,8.917,8.917,0,0,1,5.083,3.782,2.985,2.985,0,0,1-.912,4.128,3.016,3.016,0,0,1-.382.206l-2.1.31a.235.235,0,0,0-.128.064c-.195.2.2.756.1,1.193a1.362,1.362,0,0,1-.832.828,2.78,2.78,0,0,1-1.919.589,2.637,2.637,0,0,1-1.039-.313,6.2,6.2,0,0,0-.739,1.107,4.888,4.888,0,0,0-.494,1.281c-.042.463.065.8-.152,1.024-.251.253-.774.184-1.39-.036v-.893h0Z" fill="#f7f8fa" transform="translate(-137.005 -402.653)" stroke-linecap="round" stroke-linejoin="round" stroke-width="0.4" fill-rule="evenodd"/>
      </g>
    </g>
  </g>
</svg>
