<svg xmlns="http://www.w3.org/2000/svg" width="948" height="955.666" viewBox="0 0 948 955.666">
  <g id="bgX_works_with_and_improves_" data-name="bgX works with, and improves " transform="translate(-486 -3535)">
    <g id="Ellipse_1199" data-name="Ellipse 1199" transform="translate(486 3535)" fill="#fff" stroke="#e8e8e8" stroke-linecap="round" stroke-width="1" stroke-dasharray="20 10">
      <circle cx="474" cy="474" r="474" stroke="none"/>
      <circle cx="474" cy="474" r="473.5" fill="none"/>
    </g>
    <line id="Line_89" data-name="Line 89" x2="108" transform="translate(745 3977)" fill="none" stroke="#e8e8e8" stroke-linecap="round" stroke-width="1" stroke-dasharray="5"/>
    <line id="Line_90" data-name="Line 90" x2="108" transform="translate(1067 3977)" fill="none" stroke="#e8e8e8" stroke-linecap="round" stroke-width="1" stroke-dasharray="5"/>
    <line id="Line_91" data-name="Line 91" y2="181" transform="translate(960 3717)" fill="none" stroke="#e8e8e8" stroke-linecap="round" stroke-width="1" stroke-dasharray="5"/>
    <line id="Line_92" data-name="Line 92" x1="147" y2="202" transform="translate(746.5 4101.5)" fill="none" stroke="#e8e8e8" stroke-linecap="round" stroke-width="1" stroke-dasharray="5"/>
    <line id="Line_93" data-name="Line 93" x2="147" y2="202" transform="translate(1028.5 4101.5)" fill="none" stroke="#e8e8e8" stroke-linecap="round" stroke-width="1" stroke-dasharray="5"/>
    <g id="Ellipse_1200" data-name="Ellipse 1200" transform="translate(845 3894)" fill="#fff" stroke="#e8e8e8" stroke-linecap="round" stroke-width="1" stroke-dasharray="10 5">
      <circle cx="115" cy="115" r="115" stroke="none"/>
      <circle cx="115" cy="115" r="114.5" fill="none"/>
    </g>
    <g id="logo" transform="translate(930 3991)">
      <path id="Path_3197" data-name="Path 3197" d="M1284.774,464.514a9.7,9.7,0,0,0-6.186,2.18v-9.429h-3.548v16.6c0,5.343,3.312,10.215,9.671,10.215a9.7,9.7,0,0,0,9.812-9.79v-.055a9.638,9.638,0,0,0-9.749-9.715Zm6.092,9.852a6.16,6.16,0,0,1-6.123,6.451,6.283,6.283,0,0,1-6.17-6.519v-.069a6.162,6.162,0,0,1,6.091-6.486,6.321,6.321,0,0,1,6.2,6.555v.068Zm25.433-.4a9.561,9.561,0,0,0-9.718-9.352,9.671,9.671,0,0,0-9.765,9.792v.069a9.605,9.605,0,0,0,9.7,9.721,9.726,9.726,0,0,0,6.2-2.178v1.628h0v.629a6.089,6.089,0,0,1-11.963,1.644l-.094-.314h-3.69l.11.534a9.756,9.756,0,0,0,19.232-1.542V473.983Zm-3.6.509a6.148,6.148,0,0,1-6.123,6.443,6.283,6.283,0,0,1-6.154-6.519v-.069a6.161,6.161,0,0,1,6.091-6.484,6.307,6.307,0,0,1,6.185,6.553v.069Z" transform="translate(-1275.04 -457.265)" fill="#7dc3a6" fill-rule="evenodd"/>
      <path id="Path_3198" data-name="Path 3198" d="M1313.629,472.077l5.386,9.379h-4.9l-3.055-6.227-3.055,6.235h-4.866l5.355-9.379-5.119-9.174h4.741l2.945,6.15,2.945-6.15h4.741Z" transform="translate(-1259.016 -454.019)" fill="#7dc3a6" fill-rule="evenodd"/>
    </g>
    <g id="Group_2052" data-name="Group 2052" transform="translate(0 302)">
      <path id="Path_3486" data-name="Path 3486" d="M1464.8,736.221a115.11,115.11,0,0,1-16.118,48.7l6.869,5.081-17.958-.089-6.177-17.758,6.869,5.079A102.221,102.221,0,0,0,1451.994,735Z" transform="translate(-389.805 2981.628)" fill="#89c19d" stroke="#3d4642" stroke-miterlimit="8" stroke-width="0.5" fill-rule="evenodd"/>
      <path id="Path_3487" data-name="Path 3487" d="M1282.733,906.612a115.083,115.083,0,0,1-58.881,1.654l-2.713,8.1-5.459-17.107,14.987-11.359-2.713,8.1a102.238,102.238,0,0,0,51.143-1.735Z" transform="translate(-289.746 2910.712)" fill="#89c19d" stroke="#3d4642" stroke-miterlimit="8" stroke-width="0.5" fill-rule="evenodd"/>
      <path id="Path_3488" data-name="Path 3488" d="M1081.251,787.95a115.108,115.108,0,0,1-21.759-54.742l-8.542.233,14.193-11,15.813,10.177-8.542.233a102.233,102.233,0,0,0,19.18,47.44Z" transform="translate(-213.345 2987.451)" fill="#89c19d" stroke="#3d4642" stroke-miterlimit="8" stroke-width="0.5" fill-rule="evenodd"/>
      <path id="Path_3489" data-name="Path 3489" d="M1105.29,555.965a115.081,115.081,0,0,1,38.355-34.059l-3.4-7.841,15.5,9.075-3.555,18.465-3.4-7.837a102.265,102.265,0,0,0-33.025,29.673Z" transform="translate(-238.547 3084.096)" fill="#89c19d" stroke="#3d4642" stroke-miterlimit="8" stroke-width="0.5" fill-rule="evenodd"/>
      <path id="Path_3490" data-name="Path 3490" d="M1347.308,514.342a115.092,115.092,0,0,1,46.661,30.717l6.794-5.18-5.094,17.217-18.778.978,6.794-5.178a102.255,102.255,0,0,0-40.634-26.41Z" transform="translate(-348.819 3083.968)" fill="#89c19d" stroke="#3d4642" stroke-miterlimit="8" stroke-width="0.5" fill-rule="evenodd"/>
    </g>
    <path id="chevron-right" d="M9,18l6-6L9,6" transform="translate(605.029 3677) rotate(-45)" fill="none" stroke="#7dc3a6" stroke-linecap="round" stroke-linejoin="round" stroke-width="2.5"/>
    <path id="chevron-right-2" data-name="chevron-right" d="M0,0,6,6,0,12" transform="translate(553.441 4262.798) rotate(-125)" fill="none" stroke="#7dc3a6" stroke-linecap="round" stroke-linejoin="round" stroke-width="2.5"/>
    <path id="chevron-right-3" data-name="chevron-right" d="M0,12,6,6,0,0" transform="matrix(-0.574, 0.819, -0.819, -0.574, 1370.271, 4257.883)" fill="none" stroke="#7dc3a6" stroke-linecap="round" stroke-linejoin="round" stroke-width="2.5"/>
    <path id="chevron-right-4" data-name="chevron-right" d="M6,12,0,6,6,0" transform="translate(957.5 4476.898)" fill="none" stroke="#7dc3a6" stroke-linecap="round" stroke-linejoin="round" stroke-width="2.5"/>
    <path id="chevron-right-5" data-name="chevron-right" d="M0,0,6,6,0,12" transform="translate(1299.121 3670.636) rotate(45)" fill="none" stroke="#7dc3a6" stroke-linecap="round" stroke-linejoin="round" stroke-width="2.5"/>
  </g>
</svg>
