<svg xmlns="http://www.w3.org/2000/svg" xmlns:xlink="http://www.w3.org/1999/xlink" width="101.01" height="94.358" viewBox="0 0 101.01 94.358">
  <defs>
    <clipPath id="clip-path">
      <path id="Path_3435" data-name="Path 3435" d="M1876,897h88.017v88.529H1876Z" transform="translate(-1876 -897)" stroke="#707070" stroke-width="0.4" clip-rule="evenodd"/>
    </clipPath>
    <clipPath id="clip-path-4">
      <path id="Path_3439" data-name="Path 3439" d="M1863,902h88.529v88.529H1863Z" transform="translate(-1863 -902)" stroke="#707070" stroke-width="0.4" clip-rule="evenodd"/>
    </clipPath>
    <clipPath id="clip-path-7">
      <path id="Path_3444" data-name="Path 3444" d="M1906,928h46.567v46.567H1906Z" transform="translate(-1906 -928)" stroke="#707070" stroke-width="0.4" clip-rule="evenodd"/>
    </clipPath>
    <clipPath id="clip-path-10">
      <path id="Path_3449" data-name="Path 3449" d="M1864,904h23.539v24.051H1864Z" transform="translate(-1864 -904)" stroke="#707070" stroke-width="0.4" clip-rule="evenodd"/>
    </clipPath>
  </defs>
  <g id="Simple_Commercials" data-name="Simple Commercials" transform="translate(-1195.869 -575.542)">
    <g id="Group_1833" data-name="Group 1833" transform="translate(1208.862 578.812)" clip-path="url(#clip-path)">
      <g id="Group_1832" data-name="Group 1832" clip-path="url(#clip-path)">
        <g id="Group_1831" data-name="Group 1831" clip-path="url(#clip-path)">
          <path id="Path_3432" data-name="Path 3432" d="M84.311,30.635H28.2a3.16,3.16,0,0,0-3.117,3.135V71.856A3.1,3.1,0,0,0,28.2,74.991H62.49L74.96,87.81V75.084h9.352a3.16,3.16,0,0,0,3.117-3.136V33.863A3.18,3.18,0,0,0,84.311,30.635Z" transform="translate(-12.248 -14.958)" fill="#f7b0c4" stroke="#3d4642" stroke-width="0.4"/>
        </g>
      </g>
    </g>
    <g id="Group_1836" data-name="Group 1836" transform="translate(1202.21 581.371)" clip-path="url(#clip-path-4)">
      <g id="Group_1835" data-name="Group 1835" clip-path="url(#clip-path-4)">
        <g id="Group_1834" data-name="Group 1834" clip-path="url(#clip-path-4)">
          <path id="Path_3436" data-name="Path 3436" d="M1947.8,932.635h-56.433a3.168,3.168,0,0,0-3.137,3.136v38.086a3.111,3.111,0,0,0,3.137,3.137h34.485l12.542,12.814V977.086h9.405a3.17,3.17,0,0,0,3.137-3.137V935.863A3.188,3.188,0,0,0,1947.8,932.635Z" transform="translate(-1875.319 -916.958)" fill="#89c19d" stroke="#3d4642" stroke-width="0.4"/>
        </g>
      </g>
    </g>
    <g id="Group_1839" data-name="Group 1839" transform="translate(1224.214 594.675)" clip-path="url(#clip-path-7)">
      <g id="Group_1838" data-name="Group 1838" clip-path="url(#clip-path-7)">
        <g id="Group_1837" data-name="Group 1837" clip-path="url(#clip-path-7)">
          <path id="Path_3440" data-name="Path 3440" d="M1916.6,989.308a1.456,1.456,0,1,0-2.523,1.455l2.907,5.047a1.457,1.457,0,0,0,2.523-1.458Z" transform="translate(-1909.85 -957.584)" fill="#f7f8fa" stroke="#3d4642" stroke-width="0.4"/>
          <path id="Path_3441" data-name="Path 3441" d="M1941.4,970.2l-6.745,1.94-1.6-1.747,8.776-2.522Zm14.165-7.519-3.25-5.626-4.365-7.567-3.25-5.627a.97.97,0,0,0-1.5-.194l-22.122,21.343,4.365,7.567,5.532-1.552,2.472,2.667a1.49,1.49,0,0,0,1.458.435l7.323-2.084c.1-.049.246-.1.338-.145a1.388,1.388,0,0,0,.681-.97l.681-3.59,11.11-3.153A1.063,1.063,0,0,0,1955.56,962.677Z" transform="translate(-1913.358 -935.513)" fill="#f7f8fa" stroke="#3d4642" stroke-width="0.4"/>
        </g>
      </g>
    </g>
    <path id="Path_3445" data-name="Path 3445" d="M1851,908.91a17.91,17.91,0,1,1,17.91,17.91A17.91,17.91,0,0,1,1851,908.91Z" transform="translate(-654.931 -315.258)" fill="#f7f8fa" stroke="#3d4642" stroke-miterlimit="8" stroke-width="0.4" fill-rule="evenodd"/>
    <g id="Group_1842" data-name="Group 1842" transform="translate(1202.722 582.394)" clip-path="url(#clip-path-10)">
      <g id="Group_1841" data-name="Group 1841" clip-path="url(#clip-path-10)">
        <g id="Group_1840" data-name="Group 1840" clip-path="url(#clip-path-10)">
          <path id="Path_3446" data-name="Path 3446" d="M22.1,13.722a8.027,8.027,0,0,0-2.925-1.385V6.279a4.193,4.193,0,0,1,2.614,1.27L22.962,6.4a5.785,5.785,0,0,0-3.791-1.771V2.448H17.7V4.72a5.026,5.026,0,0,0-1.442.526,4.627,4.627,0,0,0-2.045,5.512c.591,1.578,2.016,2.282,3.487,2.811v6.559a4.846,4.846,0,0,1-2.871-1.646l-1.177,1.15a7.235,7.235,0,0,0,1.974,1.606A5.694,5.694,0,0,0,17.7,21.8v2.2h1.471V21.739a5.058,5.058,0,0,0,3.9-3.006A4.506,4.506,0,0,0,22.1,13.722Zm-5.622-2.573A2.8,2.8,0,0,1,16.883,6.8a3.2,3.2,0,0,1,.817-.383v5.434A4.268,4.268,0,0,1,16.474,11.149Zm4.436,7.972a3.444,3.444,0,0,1-1.738.939V14.075a3.655,3.655,0,0,1,2.506,1.846A3.242,3.242,0,0,1,20.909,19.121Z" transform="translate(-6.666 -1.195)" fill="#f7b0c4" stroke="#3d4642" stroke-width="0.4"/>
        </g>
      </g>
    </g>
  </g>
</svg>
