<svg xmlns="http://www.w3.org/2000/svg" width="21" height="21" viewBox="0 0 21 21">
    <g fill="none" fill-rule="evenodd">
        <g fill="#F2F7FF" fill-rule="nonzero" stroke="#FFF" stroke-width=".5">
            <g>
                <g>
                    <g>
                        <path d="M3.623 2.065c1.12 0 2.021.713 2.829 1.483.833.795 1.462 1.83 1.462 2.406 0 .73-.337 1.23-.608 1.633-.488.726-.841 1.252 1.362 3.455 1.153 1.153 2.026 1.738 2.594 1.738.302 0 .55-.166.862-.377.403-.271.903-.608 1.632-.608.576 0 1.61.63 2.407 1.463.885.929 2.728 2.861.225 5.364-.705.7-1.639 1.088-2.632 1.088-2.443 0-6.01-2.697-8.535-5.222C2.697 11.964 0 8.397 0 5.955c0-.993.386-1.927 1.086-2.631.847-.847 1.677-1.259 2.537-1.259zm0 1.078c-.56 0-1.14.308-1.774.942-.497.5-.771 1.164-.771 1.87 0 1.726 1.925 4.77 4.903 7.755 2.984 2.99 6.036 4.922 7.775 4.922.706 0 1.37-.275 1.87-.773 1.626-1.626.851-2.709-.244-3.858-.745-.78-1.491-1.125-1.627-1.128-.4 0-.678.187-1.03.424-.371.25-.833.56-1.464.56-.9 0-1.935-.633-3.356-2.053-2.622-2.622-2.25-3.692-1.493-4.82.237-.351.424-.63.424-1.03-.002-.135-.347-.882-1.127-1.626-.602-.573-1.309-1.185-2.086-1.185zm6.557 1.003l.031.001c2.875.176 5.176 2.477 5.353 5.351.009.143-.041.28-.14.384-.1.106-.241.167-.388.167-.289 0-.53-.23-.55-.525-.162-2.29-2.01-4.138-4.3-4.299-.295-.02-.525-.262-.525-.55 0-.292.232-.529.519-.529h0zM10.188 0c5.167.18 9.342 4.354 9.522 9.503.005.144-.047.28-.147.383-.1.104-.241.163-.386.163-.294 0-.534-.233-.545-.531-.171-4.561-3.879-8.268-8.44-8.44-.298-.011-.531-.25-.53-.545 0-.294.235-.533.526-.533z" transform="translate(-1162.000000, -22.000000) translate(135.000000, 15.000000) translate(1028.000000, 8.000000)"/>
                    </g>
                </g>
            </g>
        </g>
    </g>
</svg>
