<svg id="Layer_1" data-name="Layer 1" xmlns="http://www.w3.org/2000/svg" viewBox="0 0 16 16"><defs><style>.cls-1{fill:#101e45;}.cls-2{fill:#2eaee4;}</style></defs><g id="Group_6165" data-name="Group 6165"><g id="Group_6163" data-name="Group 6163"><path id="Path_10066" data-name="Path 10066" class="cls-1" d="M10,12a2,2,0,1,1,.06-.72h2.06A4.09,4.09,0,0,0,8,7.63H7.71L9.28,4a3.25,3.25,0,0,0,0-2.66A2.3,2.3,0,0,0,8,.15L7.8.08,4.38,9.85a4.1,4.1,0,1,0,7.19,3.94l.12-.23A4.12,4.12,0,0,0,12.12,12Z"/></g><g id="Group_6164" data-name="Group 6164"><path id="Path_10067" data-name="Path 10067" class="cls-2" d="M5.82.88,5.51,2.53l.86.41.43-1.5A2.53,2.53,0,0,0,5.82.88Z"/><path id="Path_10068" data-name="Path 10068" class="cls-2" d="M4.7,2.7,4.51,9.23,5.78,3.12A2.35,2.35,0,0,0,4.7,2.7Z"/></g></g></svg>