<?xml version="1.0" encoding="UTF-8"?>
<svg width="80px" height="38px" viewBox="0 0 80 38" version="1.1" xmlns="http://www.w3.org/2000/svg" xmlns:xlink="http://www.w3.org/1999/xlink">
    <!-- Generator: Sketch 60 (88103) - https://sketch.com -->
    <title>Footer/iBoslogo</title>
    <desc>Created with Sketch.</desc>
    <defs>
        <polygon id="path-1" points="0.00504731861 0.0177497371 19.4601893 0.0177497371 19.4601893 37.4292324 0.00504731861 37.4292324"></polygon>
    </defs>
    <g id="Footer/iBoslogo" stroke="none" stroke-width="1" fill="none" fill-rule="evenodd">
        <g id="ibos-new-logo-(1)-(1)" transform="translate(0.000000, 0.000000)">
            <g id="Group-3">
                <mask id="mask-2" fill="white">
                    <use xlink:href="#path-1"></use>
                </mask>
                <g id="Clip-2"></g>
                <path d="M14.4333964,28.2219138 C13.7527655,30.7062881 11.1871293,32.1684963 8.70283912,31.4879495 C6.2185489,30.8074027 4.75634069,28.2416824 5.43688749,25.7573922 C6.11743428,23.2730179 8.68307045,21.8108097 11.1674448,22.4913565 C13.0285594,23.0013039 14.3835121,24.6045846 14.5758991,26.524837 L19.4471504,26.524837 C18.9350999,21.5899895 14.769632,17.8443743 9.80828601,17.8574974 L9.0568244,17.8574974 L12.7491903,9.35873817 C13.6554364,7.35772871 13.6554364,5.06330179 12.7491903,3.06229232 C12.1884332,1.75486856 11.1301788,0.724626709 9.80828601,0.199116719 L9.25114616,0.0177497371 L1.19284963,23.1045216 C-1.37581493,27.7911251 0.341030494,33.6726814 5.02763407,36.2414301 C9.71432177,38.8101788 15.595878,37.0931651 18.1646267,32.4066456 C18.2552261,32.2251945 18.3589485,32.0438275 18.4366772,31.8495058 C19.0090431,30.7224395 19.3567192,29.4947634 19.4601893,28.2349527 L14.4333964,28.2219138" id="Fill-1" fill="#F2F7FF" mask="url(#mask-2)"></path>
            </g>
            <path d="M4.57421661,1.92218717 L3.84866456,5.80887487 L5.88273396,6.78056782 L6.90624606,3.23070452 C6.23520505,2.62746583 5.43873817,2.18060988 4.57421661,1.92218717" id="Fill-4" fill="#3AA4D0"></path>
            <path d="M1.94422713,6.21047319 L1.47785489,21.627592 L4.49648791,7.19512093 C3.73610936,6.66868559 2.86115668,6.3311041 1.94422713,6.21047319" id="Fill-5" fill="#3AA4D0"></path>
            <path d="M42.1323239,11.9109148 C42.1481388,12.3902419 42.077897,12.8685594 41.9250473,13.3230705 C41.6572029,14.0337329 41.0476551,14.5604206 40.305531,14.7222713 C39.8819769,14.8259937 39.4458044,14.8695689 39.0100526,14.8518191 L36.9759832,14.8518191 L37.5719874,9.98056782 L39.8521977,9.98056782 C40.4537539,9.930347 41.055142,10.080673 41.5623134,10.4080757 C41.9915037,10.8042902 42.2037434,11.3829653 42.1323239,11.962734 L42.1323239,11.9109148 Z M41.4974553,20.7465825 C41.4166982,21.0935016 41.2571188,21.4171188 41.0310831,21.6923659 C40.8018507,21.9756887 40.5026288,22.1945741 40.1631125,22.3271504 C39.7526814,22.493123 39.3077603,22.5554574 38.8675499,22.5085174 L36.0691483,22.5085174 L36.6650683,17.6243113 L39.3986961,17.6243113 C39.7494006,17.6197687 40.0986751,17.6678023 40.4350789,17.7668139 C40.6973712,17.8209043 40.9395584,17.9464984 41.1348055,18.1295478 C41.3032177,18.2950999 41.4278023,18.4999369 41.4974553,18.7255521 C41.5856993,18.9796004 41.6295268,19.2469401 41.6270032,19.5157939 C41.6164879,19.9182334 41.5599579,20.3181493 41.458591,20.7077182 L41.4974553,20.7465825 Z M45.0084543,8.10203996 C44.4569506,7.68790747 43.833102,7.38035752 43.1687907,7.19512093 C42.2415142,6.96319664 41.2869821,6.85863302 40.3315247,6.8842061 L33.788938,6.8842061 L31.4440379,25.7733754 L38.5176866,25.7733754 C39.5750158,25.8097161 40.6298212,25.6471083 41.6270032,25.2940484 C42.4637645,25.004837 43.2407992,24.5658044 43.9201682,23.9984017 C45.2296109,22.8635962 45.9300105,21.1798107 45.8116509,19.4511041 C45.8214932,18.7023344 45.5694637,17.9737539 45.0991377,17.3911251 C44.4824395,16.7319453 43.6769716,16.2793691 42.793102,16.0955626 C43.3795163,15.9080547 43.9343007,15.6328917 44.4383596,15.279327 C44.8726814,14.9723659 45.2535857,14.5959201 45.5655941,14.1652156 C45.8614511,13.7723659 46.0932072,13.3350999 46.2521977,12.869653 C46.3686225,12.3767823 46.4337329,11.8731441 46.4465195,11.3668139 C46.4343218,10.7550789 46.3159621,10.1501577 46.0967403,9.57896951 C45.8659937,9.00180862 45.4913144,8.49329127 45.0084543,8.10203996 L45.0084543,8.10203996 Z" id="Fill-6" fill="#F2F7FF"></path>
            <path d="M76.9308938,16.1344269 C76.6213249,15.7944059 76.2526183,15.5135226 75.8426919,15.3053207 C75.4280547,15.0850053 75.0264564,14.8777287 74.5470452,14.6963617 L73.2515668,14.2170347 C72.8665405,14.0963197 72.4969926,13.9311041 72.150326,13.7246688 C71.8525342,13.5762776 71.5845216,13.3742166 71.3600841,13.1287487 C71.175857,12.8815983 71.0760042,12.5818717 71.0749947,12.2736488 C71.0845846,11.9645846 71.141367,11.6587171 71.2434069,11.3668139 C71.346204,11.1056151 71.5003996,10.8677182 71.6968244,10.6671714 C71.9113354,10.4570347 72.1672345,10.2937539 72.448286,10.1878444 C72.7887277,10.0856362 73.1422082,10.0332282 73.4977077,10.032387 C73.8877813,10.0233859 74.2757518,10.0939642 74.6377287,10.2396635 C74.9320715,10.3534805 75.2143007,10.4967403 75.4798738,10.6671714 L76.1536067,11.0817245 C76.3194111,11.2029443 76.5182755,11.2708307 76.7236172,11.2761304 C76.92551,11.3027971 77.1305152,11.2618297 77.3065825,11.1595373 C77.4838275,11.0453838 77.6307045,10.8897581 77.7341746,10.7060358 L79.029653,8.94410095 C78.7809884,8.60912723 78.4892534,8.30855941 78.1616824,8.0501367 C77.7883491,7.76092534 77.3789274,7.52143007 76.9438486,7.33762355 C76.4959832,7.13943218 76.0323028,6.97909569 75.5576025,6.85829653 C74.0842902,6.54687697 72.5519243,6.67760252 71.1527234,7.23398528 C70.3449001,7.56811777 69.6100105,8.05661409 68.9891903,8.67205047 C68.4325552,9.27184017 67.993102,9.97047319 67.6936278,10.7319453 C67.3976025,11.5047739 67.2524921,12.3272345 67.2661199,13.1546583 C67.2434069,13.7677392 67.3401472,14.3793901 67.551041,14.9554574 C67.8836593,15.8530389 68.5462881,16.5898633 69.4037434,17.0154364 C69.81653,17.2426498 70.2504311,17.4292324 70.699306,17.5724921 L71.9947844,18 C72.3584437,18.1277813 72.709653,18.2882019 73.0442061,18.4794111 C73.3340904,18.6394111 73.5894006,18.855184 73.7956677,19.1141956 C73.9978128,19.3929758 74.1066667,19.7286225 74.1065825,20.0729338 C74.1628601,20.7683701 73.9228601,21.4553102 73.4458044,21.9645005 C72.9561304,22.4293586 72.2923239,22.6647319 71.6191798,22.6122397 C71.1747634,22.6217455 70.7333754,22.5378759 70.3235331,22.3660147 C69.9776236,22.2137539 69.6476972,22.0270873 69.3389695,21.808959 L68.6004627,21.2519033 C68.2381493,20.942082 67.7214721,20.8904311 67.3049001,21.1223554 C67.1279916,21.2182545 66.9699264,21.345531 66.8385279,21.4980442 L65.3356887,23.557939 C65.6435752,23.961388 66.0155626,24.3115037 66.4369295,24.5944059 C66.8704101,24.9122187 67.3400631,25.1774553 67.8361304,25.3847319 C68.3410305,25.603449 68.8660358,25.7727024 69.4037434,25.8899685 C70.9476341,26.2250263 72.5559621,26.0989274 74.0288538,25.5271504 C74.877224,25.1777077 75.6445846,24.6573291 76.2830705,23.9984017 C76.8631756,23.3577287 77.3199579,22.6155205 77.6305363,21.808959 C77.9559201,20.9387171 78.1225657,20.0173291 78.1228181,19.088286 C78.1238275,18.5083491 78.0184227,17.9330389 77.8119033,17.3911251 C77.6078233,16.9160883 77.3079285,16.488244 76.9308938,16.1344269" id="Fill-7" fill="#F2F7FF"></path>
            <path d="M60.8789905,18.2332702 C60.6679285,19.065489 60.3221872,19.8575815 59.8555626,20.5781703 C58.9065825,21.9014932 57.3633649,22.6681809 55.7356046,22.6251104 C55.1277392,22.6477392 54.5233228,22.5232387 53.9736698,22.2624606 C53.4674238,22.0159832 53.0243533,21.6569506 52.6781073,21.2130389 C52.3081388,20.7369085 52.0392008,20.1901998 51.8878654,19.6064774 C51.7047319,18.9355205 51.6174974,18.2420189 51.6287697,17.5465825 C51.606225,16.5239958 51.7283701,15.503428 51.9914196,14.5149947 C52.1878444,13.6898423 52.5347634,12.9080967 53.0149317,12.2088749 C53.4691903,11.5684543 54.0685594,11.0446267 54.7639117,10.6802103 C55.479285,10.3075499 56.2766772,10.1204627 57.0830705,10.1360252 C57.6940484,10.1259306 58.2998948,10.249674 58.8578759,10.4987592 C59.3611777,10.744143 59.8036593,11.0981283 60.1535226,11.5352261 C60.5252576,12.0217035 60.7980652,12.5763197 60.9567192,13.167613 C61.150368,13.8367192 61.2421451,14.5311462 61.2287697,15.227592 C61.2417245,16.242776 61.1109989,17.2546793 60.8401262,18.2332702 L60.8789905,18.2332702 Z M65.6078233,15.1238696 C65.6316299,13.9974763 65.4426078,12.876551 65.0506835,11.8202313 C64.6938381,10.8636803 64.1573081,9.98418507 63.4701157,9.22919033 C62.766183,8.44794953 61.9111672,7.81770768 60.9567192,7.37648791 C59.9196635,6.93804416 58.8048791,6.71327024 57.6789905,6.71577288 C52.8644374,6.78654048 48.6932492,10.0715037 47.4959411,14.7352261 C47.2519874,15.7008623 47.1300105,16.6931651 47.1330649,17.6890852 C47.1305994,18.8181703 47.3188644,19.9394322 47.6902629,21.0056782 C48.1070032,21.9738381 48.7050263,22.8533333 49.4521977,23.5968034 C50.1832177,24.3652576 51.065489,24.9739642 52.0433228,25.3847319 C53.108307,25.8356257 54.2553943,26.0606519 55.4118191,26.0454259 C57.2942166,26.0449211 59.1419558,25.5393481 60.7623975,24.5814511 C61.5204206,24.1189485 62.2094637,23.5519664 62.8093375,22.897245 C63.4185489,22.2537119 63.937245,21.5301788 64.351041,20.7465825 C65.2361725,19.0250263 65.6812618,17.1111672 65.6466877,15.1756887 L65.6078233,15.1238696 L65.6078233,15.1238696 Z" id="Fill-8" fill="#F2F7FF"></path>
            <polyline id="Fill-9" fill="#3AA4D0" points="23.3079285 25.7733754 27.2982545 25.7733754 28.9047319 12.2866036 24.9403155 12.2866036 23.3079285 25.7733754"></polyline>
            <path d="M28.9047319,6.91011567 C28.6860988,6.69249211 28.4262461,6.52071504 28.1403996,6.40479495 C27.5862881,6.14502629 26.9454469,6.14502629 26.3913354,6.40479495 C26.1117981,6.53787592 25.8540484,6.71259727 25.6270032,6.92307045 C25.414511,7.14582545 25.2434069,7.40466877 25.1216824,7.68740273 C24.7488538,8.55276551 24.9499895,9.55844374 25.6270032,10.2137539 C26.2628812,10.8955626 27.2592219,11.1030915 28.11449,10.7319453 C28.4063091,10.6071083 28.6739012,10.431714 28.9047319,10.2137539 C29.1362355,10.0117771 29.3181073,9.75907466 29.435878,9.47524711 C29.7087697,8.90153523 29.7087697,8.23537329 29.435878,7.66149317 C29.3090221,7.37909569 29.1286646,7.12395373 28.9047319,6.91011567" id="Fill-10" fill="#3AA4D0"></path>
            <path d="M24.0042958,32.9996202 L24.5394515,31.6535229 L26.5979954,31.6535229 L27.1265848,32.9996202 L27.8718631,32.9996202 L25.9741942,28.1405373 L25.2912961,28.1405373 L23.3640788,32.9996202 L24.0042958,32.9996202 Z M26.3977224,31.1413493 L24.7397245,31.1413493 L25.5703651,29.0466906 L26.3977224,31.1413493 Z M29.2409257,32.9996202 L29.2409257,30.6915558 C29.5911299,30.1728159 29.9643162,29.9134459 30.3604847,29.9134459 C30.5399643,29.9134459 30.6685549,29.9698069 30.7462564,30.0825289 C30.823958,30.1952508 30.8628088,30.3840328 30.8628088,30.6488747 L30.8628088,30.6488747 L30.8628088,32.9996202 L31.5095921,32.9996202 L31.5095921,30.4387522 C31.5095921,30.108247 31.4176635,29.8450467 31.2338063,29.6491512 C31.0499491,29.4532557 30.8037118,29.355308 30.4950944,29.355308 C30.000431,29.355308 29.5823748,29.6048285 29.2409257,30.1038694 L29.2409257,30.1038694 L29.2409257,29.434104 L28.5941424,29.434104 L28.5941424,32.9996202 L29.2409257,32.9996202 Z M34.9437481,32.9996202 L35.4789038,31.6535229 L37.5374477,31.6535229 L38.0660372,32.9996202 L38.8113154,32.9996202 L36.9136466,28.1405373 L36.2307484,28.1405373 L34.3035311,32.9996202 L34.9437481,32.9996202 Z M37.3371747,31.1413493 L35.6791769,31.1413493 L36.5098174,29.0466906 L37.3371747,31.1413493 Z M40.160679,32.9996202 L40.160679,30.5372471 L42.2848862,32.9996202 L43.1582079,32.9996202 L40.9158068,30.4584512 L42.820042,28.1405373 L42.1272943,28.1405373 L40.160679,30.5306808 L40.160679,28.1405373 L39.5138957,28.1405373 L39.5138957,32.9996202 L40.160679,32.9996202 Z M44.5896506,32.9996202 L44.5896506,28.1405373 L43.9001861,28.1405373 L43.9001861,32.9996202 L44.5896506,32.9996202 Z M45.2003023,33.9714367 C46.2005729,33.9714367 46.7007083,33.4428473 46.7007083,32.3856685 L46.7007083,32.3856685 L46.7007083,28.1405373 L46.0112438,28.1405373 L46.0112438,32.4086506 C46.0112438,32.7829313 45.9592604,33.0450373 45.8552935,33.1949684 C45.7513267,33.3448996 45.5680167,33.4198652 45.3053635,33.4198652 C45.1039961,33.4198652 44.8719859,33.377184 44.6093327,33.2918218 L44.6093327,33.2918218 L44.6093327,33.9024903 C44.8500981,33.9484546 45.047088,33.9714367 45.2003023,33.9714367 Z M52.1408775,33.1210972 C52.7077705,33.1210972 53.230888,32.9974314 53.71023,32.7500997 L53.71023,32.7500997 L53.71023,32.1591302 C53.1849237,32.4414823 52.6924491,32.5826583 52.2328061,32.5826583 C51.6987448,32.5826583 51.2774054,32.4037259 50.968788,32.045861 C50.6601705,31.6879961 50.5058618,31.1993519 50.5058618,30.5799282 C50.5058618,29.9298617 50.650321,29.4264432 50.9392395,29.0696727 C51.2281579,28.7129022 51.6363647,28.534517 52.1638597,28.534517 C52.5250077,28.534517 53.0382757,28.6494277 53.7036637,28.8792492 L53.7036637,28.8792492 L53.7036637,28.2324659 C53.1192604,28.0901954 52.6092756,28.0190602 52.1737092,28.0190602 C51.4120151,28.0190602 50.8215928,28.2423154 50.4024422,28.6888257 C49.9832915,29.135336 49.7737162,29.7635148 49.7737162,30.5733619 C49.7737162,31.3853978 49.9794612,32.0130294 50.3909511,32.4562565 C50.802441,32.8994837 51.3857498,33.1210972 52.1408775,33.1210972 Z M56.0540036,33.0816993 C56.5902537,33.0816993 57.0115931,32.9153523 57.3180218,32.5826583 C57.6244504,32.2499644 57.7776648,31.7925102 57.7776648,31.2102957 C57.7776648,30.641214 57.6249976,30.1897789 57.3196634,29.8559905 C57.0143291,29.5222022 56.6001032,29.355308 56.0769858,29.355308 C55.5538683,29.355308 55.1396424,29.5222022 54.8343081,29.8559905 C54.5289739,30.1897789 54.3763068,30.6434027 54.3763068,31.2168621 C54.3763068,31.7837551 54.5284267,32.2362845 54.8326666,32.5744504 C55.1369064,32.9126163 55.5440188,33.0816993 56.0540036,33.0816993 Z M56.0638531,32.595791 C55.3984652,32.595791 55.0657712,32.136148 55.0657712,31.2168621 C55.0657712,30.2997649 55.4028427,29.8412163 56.0769858,29.8412163 C56.7533176,29.8412163 57.0914835,30.2975761 57.0914835,31.2102957 C57.0914835,32.1339592 56.74894,32.595791 56.0638531,32.595791 Z M59.4356458,32.9996202 L59.4356458,30.6094767 C59.8077377,30.1323235 60.1568475,29.8937469 60.4829752,29.8937469 C60.8112916,29.8937469 60.9754498,30.0983975 60.9754498,30.5076986 L60.9754498,30.5076986 L60.9754498,32.9996202 L61.6255163,32.9996202 L61.6255163,30.6094767 C61.9932306,30.1345123 62.3445292,29.8970301 62.6794119,29.8970301 C63.001162,29.8970301 63.1620371,30.1005863 63.1620371,30.5076986 L63.1620371,30.5076986 L63.1620371,32.9996202 L63.8121036,32.9996202 L63.8121036,30.4059205 C63.8121036,30.0732266 63.7256469,29.8144038 63.5527336,29.6294522 C63.3798203,29.4445006 63.1357718,29.3520249 62.820588,29.3520249 C62.3303022,29.3520249 61.9319449,29.6026397 61.6255163,30.1038694 C61.452603,29.6048285 61.1275697,29.355308 60.6504165,29.355308 C60.1557531,29.355308 59.7508296,29.6048285 59.4356458,30.1038694 L59.4356458,30.1038694 L59.4356458,29.434104 L58.7888625,29.434104 L58.7888625,32.9996202 L59.4356458,32.9996202 Z M65.7130388,34.29647 L65.7130388,32.595791 C65.9932021,32.9197298 66.3445006,33.0816993 66.7669344,33.0816993 C67.2221999,33.0816993 67.589367,32.9005781 67.868436,32.5383356 C68.1475049,32.1760932 68.2870394,31.6994872 68.2870394,31.1085176 C68.2870394,30.5657012 68.1639208,30.1377955 67.9176834,29.8248005 C67.6714461,29.5118055 67.3338274,29.355308 66.9048273,29.355308 C66.3751435,29.355308 65.9778807,29.6048285 65.7130388,30.1038694 L65.7130388,30.1038694 L65.7130388,29.434104 L65.0662554,29.434104 L65.0662554,34.29647 L65.7130388,34.29647 Z M66.6651563,32.595791 C66.3631052,32.595791 66.0457327,32.4469542 65.7130388,32.1492807 L65.7130388,32.1492807 L65.7130388,30.5076986 C66.0566766,30.1159077 66.4090695,29.9200122 66.7702176,29.9200122 C67.3217892,29.9200122 67.5975749,30.3380685 67.5975749,31.1741809 C67.5975749,32.121921 67.2867687,32.595791 66.6651563,32.595791 Z M71.7146459,33.0816993 C71.8919368,33.0816993 72.0539062,33.0466789 72.2005542,32.976638 L72.2005542,32.976638 L72.1545899,32.6187731 C72.0998705,32.6275282 72.0582838,32.6319058 72.0298297,32.6319058 C71.802197,32.6319058 71.6883806,32.4469542 71.6883806,32.0770511 L71.6883806,32.0770511 L71.6883806,30.4617343 C71.6883806,30.0830761 71.593716,29.8040071 71.4043869,29.6245275 C71.2150578,29.4450478 70.9212146,29.355308 70.5228573,29.355308 C70.1420103,29.355308 69.7338036,29.4439534 69.2982371,29.6212443 L69.2982371,29.6212443 L69.2982371,30.1564001 C69.6944056,29.9462776 70.0632144,29.8412163 70.4046634,29.8412163 C70.829286,29.8412163 71.0415973,30.0480556 71.0415973,30.4617343 L71.0415973,30.4617343 L71.0415973,30.8918288 L70.8872886,30.8918288 C70.27662,30.8918288 69.8076748,30.9963429 69.4804527,31.205371 C69.1532307,31.4143991 68.9896197,31.7137142 68.9896197,32.1033164 C68.9896197,32.3856685 69.0870202,32.6193203 69.2818213,32.8042719 C69.4766224,32.9892235 69.7217653,33.0816993 70.0172501,33.0816993 C70.3762093,33.0816993 70.7493957,32.903314 71.136809,32.5465435 C71.2199825,32.903314 71.4125948,33.0816993 71.7146459,33.0816993 Z M70.2011073,32.5531099 C70.0435154,32.5531099 69.91,32.4994848 69.8005612,32.3922348 C69.6911224,32.2849848 69.636403,32.1536582 69.636403,31.9982551 C69.636403,31.7793775 69.7458418,31.6026338 69.9647194,31.4680241 C70.183597,31.3334144 70.4703267,31.2661095 70.8249084,31.2661095 L70.8249084,31.2661095 L71.0415973,31.2726759 L71.0415973,32.195245 C70.75049,32.4338216 70.4703267,32.5531099 70.2011073,32.5531099 Z M73.6582622,32.9996202 L73.6582622,30.6915558 C74.0084664,30.1728159 74.3816527,29.9134459 74.7778212,29.9134459 C74.9573008,29.9134459 75.0858914,29.9698069 75.163593,30.0825289 C75.2412945,30.1952508 75.2801453,30.3840328 75.2801453,30.6488747 L75.2801453,30.6488747 L75.2801453,32.9996202 L75.9269286,32.9996202 L75.9269286,30.4387522 C75.9269286,30.108247 75.835,29.8450467 75.6511428,29.6491512 C75.4672857,29.4532557 75.2210483,29.355308 74.9124309,29.355308 C74.4177675,29.355308 73.9997113,29.6048285 73.6582622,30.1038694 L73.6582622,30.1038694 L73.6582622,29.434104 L73.0114789,29.434104 L73.0114789,32.9996202 L73.6582622,32.9996202 Z M77.9781855,34.29647 L79.9251018,29.434104 L79.3144332,29.434104 L78.2244228,32.1197322 L77.2033587,29.434104 L76.5040448,29.434104 L77.8829737,32.9996202 L77.3051368,34.29647 L77.9781855,34.29647 Z" id="AnAKIJCompany" fill="#FFFFFF" fill-rule="nonzero"></path>
        </g>
    </g>
</svg>