<svg width="115" height="55" viewBox="0 0 115 55" fill="none" xmlns="http://www.w3.org/2000/svg">
<g clip-path="url(#clip0)">
<path d="M20.9952 41.0827C20.5555 42.7333 19.5157 44.1597 18.0798 45.0817C16.644 46.0037 14.9159 46.3549 13.2349 46.0661C11.5538 45.7774 10.0413 44.8696 8.9942 43.5211C7.94711 42.1726 7.44114 40.4807 7.57562 38.7776C7.7101 37.0746 8.47533 35.4834 9.72105 34.3165C10.9668 33.1496 12.603 32.4914 14.3085 32.4709C16.0139 32.4505 17.6654 33.0693 18.9387 34.206C20.2119 35.3427 21.015 36.915 21.1901 38.6144H28.2767C27.9211 35.144 26.2912 31.9297 23.7032 29.5951C21.1151 27.2605 17.7535 25.9721 14.2706 25.98H13.1707L18.5448 13.6106C19.1944 12.1685 19.5303 10.6046 19.5303 9.02257C19.5303 7.44055 19.1944 5.87663 18.5448 4.43459C18.1427 3.48956 17.5581 2.63346 16.8246 1.9155C16.0911 1.19753 15.2231 0.631867 14.2706 0.251014L13.4492 0L1.74035 33.622C0.0778585 36.8875 -0.249517 40.6732 0.827632 44.1764C1.90478 47.6796 4.30176 50.6249 7.51036 52.3878C10.719 54.1507 14.4869 54.5926 18.0153 53.6198C21.5437 52.647 24.5551 50.336 26.4111 47.1767C26.5595 46.9143 26.6942 46.6443 26.8148 46.3679C27.648 44.7242 28.154 42.9339 28.3045 41.0966L20.9952 41.0827Z" fill="#1C2880"/>
<path d="M6.68288 2.77515L5.59692 8.43691L8.5485 9.83144L10.0382 4.6717C9.07176 3.80125 7.92638 3.15384 6.68288 2.77515Z" fill="#3878DF"/>
<path d="M2.82625 9.02271L2.14404 31.4327L6.54356 10.5148C5.44357 9.72292 4.16781 9.21083 2.82625 9.02271Z" fill="#3878DF"/>
<path d="M65.4497 11.7699C64.6444 11.1886 63.7378 10.763 62.7766 10.5148C61.4134 10.1625 60.0069 10.0075 58.5998 10.0546H49.1325L45.6658 37.5128H55.9545C57.4933 37.5692 59.0287 37.3326 60.4794 36.8156C61.6972 36.3945 62.8291 35.7567 63.8208 34.933C64.7624 34.1178 65.5035 33.096 65.9864 31.9471C66.4694 30.7982 66.6812 29.5532 66.6053 28.309C66.6225 27.2196 66.2579 26.1587 65.575 25.3107C64.6774 24.3486 63.5059 23.6864 62.2197 23.4142C63.0739 23.1445 63.8816 22.7447 64.6144 22.2288C65.828 21.3529 66.746 20.1269 67.2457 18.7146C67.4154 17.9967 67.5087 17.2628 67.5242 16.5252C67.5125 15.6376 67.3427 14.7593 67.0229 13.9314C66.6951 13.0862 66.1528 12.3412 65.4497 11.7699ZM60.3401 30.1916C60.2258 30.7011 59.9973 31.178 59.6719 31.5861C59.3349 31.9962 58.8988 32.3131 58.4049 32.5065C57.814 32.7659 57.1686 32.876 56.5254 32.8272H52.446L53.3232 25.7151H57.2911C57.8004 25.7004 58.3087 25.7711 58.7947 25.9243C59.1812 26.0001 59.5383 26.1838 59.825 26.4542C60.0667 26.6943 60.2439 26.9918 60.3401 27.3188C60.4746 27.6848 60.5406 28.0724 60.535 28.4624C60.522 29.0514 60.4378 29.6367 60.2844 30.2055L60.3401 30.1916ZM61.2729 17.3201C61.294 18.0198 61.1951 18.7178 60.9806 19.384C60.7878 19.8922 60.4718 20.3444 60.061 20.6999C59.6503 21.0553 59.1577 21.3028 58.6277 21.42C58.0344 21.5888 57.4205 21.6733 56.8038 21.671H53.7687L54.6319 14.5868H57.9594C58.8307 14.5081 59.7032 14.7241 60.4376 15.2004C60.7454 15.4869 60.9814 15.842 61.1266 16.2369C61.2717 16.6319 61.3218 17.0555 61.2729 17.4735V17.3201Z" fill="#1C2880"/>
<path d="M111.867 23.47C111.423 22.9751 110.889 22.5682 110.294 22.2707C109.688 21.9319 109.06 21.6337 108.415 21.3783L106.521 20.681C105.964 20.5016 105.427 20.2631 104.92 19.9698C104.489 19.7502 104.101 19.4523 103.778 19.0912C103.504 18.7364 103.357 18.2991 103.361 17.8501C103.377 17.3996 103.457 16.9536 103.597 16.5253C103.753 16.132 103.99 15.776 104.292 15.4805C104.594 15.185 104.955 14.9565 105.352 14.81C105.85 14.6667 106.365 14.5917 106.883 14.5869C107.451 14.5696 108.016 14.6742 108.54 14.8937C108.971 15.0502 109.382 15.2561 109.765 15.5073L110.74 16.1209C110.987 16.2896 111.276 16.3861 111.575 16.3998C111.891 16.4517 112.216 16.3925 112.494 16.2325C112.75 16.0627 112.96 15.8329 113.107 15.5631L115 12.9972C114.636 12.5114 114.21 12.0754 113.733 11.7003C113.187 11.2828 112.594 10.9317 111.965 10.6544C111.31 10.3722 110.635 10.1391 109.946 9.95709C107.803 9.50851 105.575 9.70252 103.542 10.5149C102.369 11.0044 101.301 11.7145 100.395 12.6067C98.7456 14.3737 97.8468 16.7142 97.8892 19.1331C97.8595 20.0257 98.0013 20.9157 98.3069 21.7548C98.7888 23.0604 99.7498 24.1327 100.994 24.753C101.596 25.0895 102.231 25.3652 102.887 25.5758L104.767 26.1894C105.296 26.3788 105.808 26.612 106.298 26.8866C106.718 27.1232 107.088 27.4407 107.384 27.821C107.682 28.2239 107.839 28.7141 107.83 29.2155C107.877 29.722 107.815 30.2327 107.649 30.7136C107.484 31.1945 107.218 31.6346 106.869 32.0045C106.519 32.3395 106.103 32.597 105.647 32.7604C105.192 32.9237 104.707 32.9893 104.224 32.9528C103.574 32.9662 102.929 32.8426 102.331 32.5902C101.84 32.3685 101.374 32.0975 100.938 31.7814L99.8523 30.9726C99.5972 30.7502 99.2798 30.6122 98.9434 30.5772C98.607 30.5423 98.268 30.6122 97.9728 30.7773C97.7154 30.9231 97.4847 31.1118 97.2906 31.3352L95.1047 34.3334C95.5577 34.9151 96.0978 35.4231 96.7058 35.8395C97.3431 36.3001 98.0295 36.6883 98.7524 36.9969C99.4845 37.3095 100.244 37.5523 101.022 37.7221C103.267 38.2125 105.606 38.0281 107.746 37.1922C108.984 36.6905 110.103 35.9352 111.032 34.9749C111.87 34.0354 112.535 32.954 112.995 31.7814C113.467 30.5145 113.707 29.173 113.705 27.821C113.707 26.978 113.556 26.1417 113.26 25.3526C112.934 24.6335 112.459 23.9918 111.867 23.47Z" fill="#1C2880"/>
<path d="M95.411 22.0056C95.4444 20.3654 95.1705 18.7335 94.6035 17.1945C94.0769 15.8037 93.2981 14.5224 92.3063 13.4153C91.2814 12.2779 90.0354 11.362 88.6446 10.7239C87.1401 10.0795 85.5194 9.75201 83.8831 9.76168C80.4769 9.80774 77.1806 10.9758 74.5032 13.0854C71.8258 15.195 69.9163 18.1288 69.0696 21.4338C68.7199 22.8435 68.5423 24.2904 68.5405 25.7429C68.5381 27.3841 68.8062 29.0143 69.3341 30.568C69.9441 31.9773 70.8131 33.2593 71.8959 34.3471C72.9629 35.4852 74.2518 36.3917 75.6828 37.0107C77.2336 37.6635 78.9015 37.991 80.5835 37.9729C83.3203 37.9626 86.0056 37.2264 88.3662 35.8393C89.4633 35.1625 90.4613 34.3365 91.3317 33.3849C92.2182 32.443 92.9765 31.388 93.5871 30.2472C94.8658 27.7361 95.5111 24.9496 95.4667 22.1311L95.411 22.0056ZM88.5333 26.5378C88.2259 27.746 87.7227 28.8955 87.0436 29.9404C86.368 30.893 85.4681 31.6638 84.4237 32.1843C83.3794 32.7049 82.2229 32.9592 81.0569 32.9247C80.2053 32.9603 79.3575 32.7931 78.583 32.4367C77.8085 32.0804 77.1295 31.545 76.6017 30.8748C76.0709 30.1767 75.6829 29.3805 75.46 28.532C75.1966 27.5548 75.0701 26.5458 75.0841 25.5337C75.0435 24.0422 75.2218 22.5528 75.6132 21.1131C75.8926 19.9108 76.393 18.7711 77.089 17.7523C77.755 16.8253 78.6273 16.0662 79.6368 15.535C80.6713 14.9756 81.8304 14.6878 83.006 14.6983C83.8973 14.6854 84.7808 14.8662 85.5956 15.2282C86.318 15.5971 86.9466 16.1266 87.4334 16.7761C87.9706 17.4844 88.3676 18.2891 88.6029 19.1468C88.8854 20.1251 89.0169 21.1409 88.9927 22.159C89.0161 23.6377 88.8286 25.1122 88.4358 26.5378H88.5333Z" fill="#1C2880"/>
<path d="M33.9014 37.5128H39.6931L42.0321 17.864H36.2682L33.9014 37.5128Z" fill="#3878DF"/>
<path d="M42.032 10.0407C41.7147 9.72112 41.3357 9.46964 40.9182 9.30158C40.5216 9.11597 40.0891 9.01978 39.6513 9.01978C39.2135 9.01978 38.781 9.11597 38.3843 9.30158C37.9749 9.49073 37.5988 9.74504 37.2705 10.0546C36.9605 10.3798 36.7106 10.7575 36.5326 11.1702C36.2732 11.7905 36.2089 12.4752 36.3482 13.133C36.4875 13.7908 36.8238 14.3904 37.3123 14.8518C37.7639 15.3367 38.3545 15.6696 39.0027 15.8044C39.651 15.9393 40.3251 15.8695 40.9321 15.6048C41.3543 15.4236 41.7409 15.1687 42.0738 14.8518C42.5844 14.3966 42.9377 13.7909 43.0828 13.1218C43.2279 12.4527 43.1574 11.7548 42.8813 11.1284C42.6722 10.7135 42.3836 10.3439 42.032 10.0407Z" fill="#3878DF"/>
<path d="M39.1502 50.1469L38.454 48.1946H35.7809L35.0987 50.1469H33.9014L36.5049 43.1743H37.744L40.3614 50.1469H39.1502ZM38.1477 47.2184L37.4934 45.3777C37.4934 45.2522 37.382 45.0569 37.2985 44.778L37.1175 44.1784C37.0216 44.6141 36.896 45.0428 36.7416 45.4613L36.115 47.2882L38.1477 47.2184Z" fill="#777777"/>
<path d="M45.8051 50.1471H44.6774V46.8839C44.6998 46.564 44.6166 46.2455 44.4407 45.9775C44.343 45.8699 44.2218 45.7862 44.0866 45.733C43.9514 45.6798 43.8058 45.6585 43.6611 45.6707C43.4664 45.653 43.2703 45.6817 43.0889 45.7544C42.9074 45.8271 42.7457 45.9418 42.6169 46.089C42.3609 46.5067 42.2439 46.995 42.2827 47.4836V50.1192H41.1689V44.82H42.0461L42.1992 45.5173C42.3722 45.2731 42.6079 45.0804 42.8814 44.9595C43.1863 44.8169 43.5195 44.7454 43.856 44.7503C44.1162 44.7173 44.3804 44.7451 44.6281 44.8315C44.8758 44.9179 45.1001 45.0606 45.2835 45.2483C45.4669 45.4361 45.6044 45.6638 45.6853 45.9137C45.7661 46.1636 45.7881 46.4289 45.7495 46.6887L45.8051 50.1471Z" fill="#777777"/>
<path d="M54.3535 50.1469L53.6574 48.1946H50.9982L50.316 50.1469H49.1047L51.7222 43.1743H52.9613L55.5787 50.1469H54.3535ZM53.365 47.2184L52.7107 45.3777C52.6354 45.1813 52.5704 44.9811 52.5158 44.778C52.4443 44.5817 52.3838 44.3815 52.3348 44.1784C52.2389 44.6141 52.1133 45.0428 51.9589 45.4613L51.3323 47.2882L53.365 47.2184Z" fill="#777777"/>
<path d="M61.816 50.1469H60.4237L58.2379 46.9674L57.5696 47.5252V50.1469H56.428V43.1743H57.5696V46.5072C57.8759 46.1307 58.1822 45.7681 58.5024 45.4056L60.382 43.1743H61.6768C60.4655 44.5688 59.5884 45.6287 59.0593 46.2423L61.816 50.1469Z" fill="#777777"/>
<path d="M62.7488 50.1469V43.1743H63.8904V50.1469H62.7488Z" fill="#777777"/>
<path d="M64.8373 52.0854C64.5727 52.0967 64.3084 52.0589 64.0576 51.9738V50.9558C64.2846 51.0177 64.5185 51.0505 64.7537 51.0534C65.3803 51.0534 65.6866 50.663 65.6866 49.8681V43.1465H66.8421V49.882C66.887 50.4764 66.7026 51.0653 66.327 51.5276C66.1339 51.7232 65.9007 51.8744 65.6434 51.9707C65.3862 52.0671 65.1111 52.1062 64.8373 52.0854Z" fill="#777777"/>
<path d="M74.1654 43.9832C73.8694 43.9712 73.5747 44.0278 73.3042 44.1488C73.0337 44.2698 72.7947 44.4517 72.6061 44.6805C72.2046 45.2438 72.0081 45.928 72.0492 46.6189C71.9994 47.3086 72.1914 47.9941 72.5922 48.5573C72.785 48.782 73.0278 48.9584 73.301 49.0722C73.5742 49.1861 73.8703 49.2342 74.1654 49.2127C74.4506 49.2131 74.7351 49.1851 75.0147 49.129C75.2931 49.129 75.5855 48.9896 75.8779 48.9059V49.882C75.2845 50.0967 74.6569 50.2007 74.0262 50.1888C73.5905 50.2184 73.1537 50.1512 72.747 49.9921C72.3403 49.833 71.9736 49.5859 71.6733 49.2685C71.078 48.514 70.7851 47.5642 70.8519 46.6049C70.8348 45.9467 70.9682 45.2932 71.2417 44.6944C71.4917 44.1689 71.8945 43.7314 72.3973 43.4394C72.9377 43.1401 73.5481 42.9908 74.1654 43.0071C74.8498 43.0027 75.526 43.1554 76.1424 43.4533L75.7386 44.4016C75.4948 44.2873 75.2437 44.1894 74.9868 44.1087C74.7208 44.026 74.4439 43.9837 74.1654 43.9832Z" fill="#777777"/>
<path d="M81.9479 47.4835C82.0062 48.2348 81.7716 48.9795 81.2935 49.5614C81.0559 49.8095 80.7671 50.0029 80.4474 50.1281C80.1276 50.2534 79.7845 50.3074 79.4418 50.2865C78.9832 50.297 78.5306 50.1813 78.1331 49.9518C77.7527 49.7243 77.4477 49.3897 77.256 48.9896C77.0497 48.554 76.9449 48.0772 76.9497 47.5951C76.9235 47.2102 76.9754 46.824 77.1022 46.4597C77.2291 46.0954 77.4282 45.7606 77.6876 45.4754C77.9264 45.2288 78.2153 45.0364 78.5348 44.9113C78.8542 44.7861 79.1968 44.7312 79.5393 44.7503C79.8765 44.7345 80.213 44.7924 80.5256 44.9201C80.8381 45.0477 81.1192 45.242 81.3492 45.4894C81.7908 46.0557 82.0044 46.7672 81.9479 47.4835ZM78.1053 47.4835C78.1053 48.7107 78.5508 49.3243 79.4975 49.3243C80.4443 49.3243 80.8898 48.7107 80.8898 47.4835C80.8898 46.2563 80.4443 45.6706 79.4975 45.6706C79.2994 45.653 79.1002 45.6874 78.9195 45.7706C78.7388 45.8537 78.5829 45.9827 78.4673 46.1448C78.2161 46.5449 78.09 47.0111 78.1053 47.4835Z" fill="#777777"/>
<path d="M87.6842 50.1471H86.5704V46.8839C86.5927 46.564 86.5096 46.2455 86.3337 45.9775C86.2496 45.8719 86.1408 45.7887 86.017 45.7352C85.8931 45.6817 85.7581 45.6595 85.6237 45.6707C85.4401 45.6552 85.2556 45.6868 85.0875 45.7624C84.9195 45.838 84.7734 45.9552 84.663 46.103C84.4283 46.5283 84.3219 47.0128 84.3567 47.4975V50.1332H83.2568V44.834H84.134L84.2871 45.5312C84.4398 45.2783 84.6622 45.0749 84.9275 44.9455C85.2131 44.8042 85.5279 44.7325 85.8464 44.7364C86.1684 44.6973 86.4946 44.7562 86.7826 44.9054C87.0707 45.0547 87.3072 45.2873 87.4614 45.5731H87.545C87.7015 45.3113 87.9282 45.0987 88.1993 44.9595C88.5026 44.8107 88.8362 44.7343 89.1739 44.7364C89.4273 44.7134 89.6827 44.7451 89.9228 44.8293C90.1629 44.9135 90.3823 45.0482 90.5661 45.2244C90.8703 45.6234 91.0233 46.1176 90.9977 46.619V50.0774H89.87V46.8839C89.8955 46.5656 89.8173 46.2476 89.6473 45.9775C89.5602 45.8717 89.4489 45.7886 89.3228 45.7351C89.1968 45.6817 89.0597 45.6596 88.9233 45.6707C88.7427 45.658 88.5617 45.688 88.3949 45.7583C88.228 45.8285 88.08 45.937 87.9626 46.0751C87.7349 46.4574 87.6281 46.8998 87.6563 47.3441L87.6842 50.1471Z" fill="#777777"/>
<path d="M95.2718 50.2307C94.9774 50.2516 94.6823 50.2018 94.4111 50.0854C94.1398 49.969 93.9003 49.7893 93.7124 49.5613H93.6428C93.6428 50.0076 93.7124 50.2725 93.7124 50.3701V52.4898H92.5847V44.8478H93.4897C93.4897 44.9408 93.5454 45.1779 93.6568 45.559C93.825 45.2978 94.059 45.0855 94.3352 44.9435C94.6113 44.8015 94.92 44.7348 95.23 44.7502C95.5264 44.7404 95.821 44.8009 96.0896 44.927C96.3582 45.053 96.5932 45.2409 96.7754 45.4754C97.1712 46.067 97.362 46.7726 97.3184 47.4835C97.3653 48.2011 97.1691 48.9136 96.7615 49.5055C96.5872 49.7348 96.3616 49.9198 96.1028 50.0457C95.8441 50.1717 95.5594 50.235 95.2718 50.2307ZM94.9933 45.6706C94.8119 45.6573 94.6299 45.6855 94.461 45.7532C94.2922 45.8208 94.1409 45.9261 94.0187 46.0611C93.7824 46.4346 93.6748 46.8755 93.7124 47.3161V47.4835C93.6708 47.9687 93.7777 48.4551 94.0187 48.878C94.1319 49.0306 94.2821 49.1516 94.4551 49.2297C94.6281 49.3078 94.8182 49.3404 95.0072 49.3243C95.1875 49.3294 95.366 49.287 95.5248 49.2013C95.6836 49.1157 95.8172 48.9897 95.9122 48.8362C96.1541 48.4132 96.2655 47.928 96.2324 47.4416C96.2716 46.9549 96.1598 46.4678 95.9122 46.0471C95.8023 45.9129 95.6607 45.8082 95.5003 45.7425C95.3399 45.6767 95.1656 45.652 94.9933 45.6706Z" fill="#777777"/>
<path d="M101.983 50.1471L101.76 49.408C101.563 49.6874 101.3 49.9128 100.994 50.0634C100.679 50.1861 100.343 50.243 100.006 50.2308C99.558 50.2588 99.1176 50.1084 98.7803 49.8124C98.6321 49.6543 98.5174 49.4678 98.4433 49.264C98.3691 49.0603 98.3369 48.8436 98.3487 48.6271C98.3341 48.3847 98.3829 48.1427 98.4904 47.925C98.5978 47.7073 98.7602 47.5215 98.9613 47.3859C99.5211 47.0702 100.157 46.9157 100.799 46.9397H101.718V46.6468C101.736 46.375 101.652 46.1063 101.481 45.8938C101.383 45.8027 101.266 45.7332 101.139 45.69C101.012 45.6468 100.877 45.6307 100.743 45.6428C100.478 45.6424 100.215 45.6848 99.9638 45.7683C99.7187 45.8382 99.4809 45.9316 99.2537 46.0472L98.8917 45.2384C99.1872 45.0875 99.5006 44.9751 99.8245 44.9037C100.143 44.8236 100.47 44.7815 100.799 44.7782C101.342 44.7423 101.879 44.9005 102.317 45.2244C102.5 45.4045 102.641 45.6228 102.73 45.8639C102.819 46.105 102.854 46.3628 102.832 46.619V50.1889L101.983 50.1471ZM100.312 49.3801C100.674 49.3973 101.029 49.2722 101.3 49.0315C101.425 48.9058 101.522 48.7551 101.584 48.5892C101.647 48.4234 101.673 48.2462 101.662 48.0693V47.6091H100.98C100.581 47.598 100.187 47.6943 99.8385 47.888C99.7187 47.9618 99.6216 48.0672 99.5578 48.1927C99.4939 48.3181 99.4658 48.4588 99.4765 48.5992C99.4716 48.7015 99.4876 48.8037 99.5235 48.8997C99.5594 48.9956 99.6144 49.0831 99.6853 49.157C99.8583 49.3083 100.082 49.3881 100.312 49.3801Z" fill="#777777"/>
<path d="M108.999 50.1471H107.872V46.8839C107.896 46.5618 107.807 46.2414 107.621 45.9775C107.525 45.8672 107.405 45.7817 107.269 45.7283C107.133 45.6748 106.987 45.6551 106.841 45.6707C106.647 45.6541 106.451 45.6833 106.27 45.7559C106.089 45.8285 105.927 45.9426 105.797 46.089C105.553 46.511 105.441 46.997 105.477 47.4835V50.1192H104.349V44.82H105.226L105.394 45.5173C105.554 45.2602 105.786 45.0564 106.062 44.9316C106.367 44.7904 106.7 44.7189 107.036 44.7224C107.298 44.687 107.564 44.713 107.813 44.7983C108.062 44.8837 108.289 45.026 108.474 45.2141C108.659 45.4022 108.798 45.6308 108.879 45.8819C108.961 46.133 108.983 46.3996 108.944 46.6608L108.999 50.1471Z" fill="#777777"/>
<path d="M109.709 44.8479H110.935L112.007 47.8461C112.162 48.237 112.274 48.6438 112.341 49.0594C112.379 48.8413 112.435 48.6267 112.508 48.4179C112.508 48.1669 112.981 47.0234 113.719 44.8479H114.93L112.675 50.8444C112.567 51.298 112.314 51.704 111.954 52.0008C111.595 52.2977 111.149 52.4694 110.684 52.4899C110.44 52.4904 110.197 52.4624 109.96 52.4062V51.5277C110.155 51.5441 110.35 51.5441 110.545 51.5277C110.814 51.5211 111.073 51.4239 111.28 51.2519C111.487 51.0799 111.63 50.843 111.686 50.5794L111.881 50.0913L109.709 44.8479Z" fill="#777777"/>
</g>
<defs>
<clipPath id="clip0">
<rect width="115" height="54.498" fill="white"/>
</clipPath>
</defs>
</svg>
