<svg id="Layer_1" data-name="Layer 1" xmlns="http://www.w3.org/2000/svg" viewBox="0 0 82.6 39.08"><defs><style>.cls-1{fill:#101e45;}.cls-2{fill:#2eaee4;}.cls-3{isolation:isolate;}.cls-4{fill:#58595b;}</style></defs><g id="Group_6165" data-name="Group 6165"><g id="Group_6163" data-name="Group 6163"><path id="Path_10066" data-name="Path 10066" class="cls-1" d="M15.28,29.92a4.91,4.91,0,1,1,.14-1.77h5.09a10.09,10.09,0,0,0-10.06-9.06H9.66l3.86-8.87a8,8,0,0,0,0-6.58,5.59,5.59,0,0,0-3.07-3L9.86.46,1.45,24.57a10.11,10.11,0,0,0,17.72,9.72,6.27,6.27,0,0,0,.29-.58,10.19,10.19,0,0,0,1.07-3.78Z" transform="translate(-0.2 -0.46)"/></g><g id="Group_6164" data-name="Group 6164"><path id="Path_10067" data-name="Path 10067" class="cls-2" d="M5,2.45,4.22,6.51l2.12,1,1.07-3.7A6.38,6.38,0,0,0,5,2.45Z" transform="translate(-0.2 -0.46)"/><path id="Path_10068" data-name="Path 10068" class="cls-2" d="M2.23,6.93,1.74,23,4.9,8A6,6,0,0,0,2.23,6.93Z" transform="translate(-0.2 -0.46)"/></g></g><g id="Group_6166" data-name="Group 6166"><path id="Path_10069" data-name="Path 10069" class="cls-1" d="M47.21,8.9A5.73,5.73,0,0,0,45.29,8a10.59,10.59,0,0,0-3-.33H35.49L33,27.36h7.39a8.74,8.74,0,0,0,3.25-.5,7.69,7.69,0,0,0,2.4-1.35,5.81,5.81,0,0,0,2-4.75,3.34,3.34,0,0,0-.74-2.15,4.6,4.6,0,0,0-2.41-1.36,6.27,6.27,0,0,0,1.72-.85,5.28,5.28,0,0,0,1.89-2.52,7.5,7.5,0,0,0,.2-1.57,5.35,5.35,0,0,0-.36-1.86A3.74,3.74,0,0,0,47.21,8.9ZM43.54,22.11a2.47,2.47,0,0,1-.48,1,2.23,2.23,0,0,1-.91.66A2.83,2.83,0,0,1,40.8,24H37.87l.63-5.1h2.85a3.28,3.28,0,0,1,1.08.15,1.5,1.5,0,0,1,.74.38,1.45,1.45,0,0,1,.37.62,2.28,2.28,0,0,1,.14.82,5.24,5.24,0,0,1-.18,1.25Zm.67-9.23A4.39,4.39,0,0,1,44,14.36a2.35,2.35,0,0,1-1.69,1.46A4.73,4.73,0,0,1,41,16H38.82l.62-5.08h2.39a2.81,2.81,0,0,1,1.78.44,1.92,1.92,0,0,1,.6,1.63Z" transform="translate(-0.2 -0.46)"/><path id="Path_10070" data-name="Path 10070" class="cls-1" d="M80.55,17.29a3.81,3.81,0,0,0-1.13-.86,11.26,11.26,0,0,0-1.35-.64l-1.36-.5a5.92,5.92,0,0,1-1.15-.51,2.81,2.81,0,0,1-.82-.63,1.43,1.43,0,0,1-.3-.89,3.45,3.45,0,0,1,.17-.95,2.16,2.16,0,0,1,1.26-1.23,4.12,4.12,0,0,1,1.1-.16,2.86,2.86,0,0,1,1.19.22,4.26,4.26,0,0,1,.88.44l.7.44a1.16,1.16,0,0,0,.6.2A1,1,0,0,0,81,12.1a1.35,1.35,0,0,0,.44-.48l1.36-1.84a5,5,0,0,0-.91-.93,6.24,6.24,0,0,0-1.27-.75,10.34,10.34,0,0,0-1.45-.5,8,8,0,0,0-4.6.4,7.14,7.14,0,0,0-2.26,1.5,6.68,6.68,0,0,0-1.8,4.68,5,5,0,0,0,.3,1.88,3.92,3.92,0,0,0,1.93,2.15,7.46,7.46,0,0,0,1.36.59l1.35.44a7.27,7.27,0,0,1,1.1.5,2.62,2.62,0,0,1,.78.67,1.63,1.63,0,0,1,.32,1,2.57,2.57,0,0,1-.69,2,2.48,2.48,0,0,1-1.9.68,3.33,3.33,0,0,1-1.36-.26,5.71,5.71,0,0,1-1-.58l-.78-.58a1.18,1.18,0,0,0-1.35-.14,1.87,1.87,0,0,0-.49.4l-1.57,2.15a5.13,5.13,0,0,0,1.15,1.08,7.61,7.61,0,0,0,1.47.83,9.1,9.1,0,0,0,1.63.52,8.38,8.38,0,0,0,4.83-.38,6.88,6.88,0,0,0,2.36-1.59,7.62,7.62,0,0,0,1.41-2.29,8.1,8.1,0,0,0,.51-2.84,5,5,0,0,0-.32-1.77A4,4,0,0,0,80.55,17.29Z" transform="translate(-0.2 -0.46)"/><path id="Path_10071" data-name="Path 10071" class="cls-1" d="M68.73,16.24a9.41,9.41,0,0,0-.58-3.45,8.65,8.65,0,0,0-1.65-2.71,8.07,8.07,0,0,0-2.63-1.93,8.57,8.57,0,0,0-3.42-.69,11.14,11.14,0,0,0-10.64,8.37,12.88,12.88,0,0,0-.38,3.09A10.69,10.69,0,0,0,50,22.38a8.79,8.79,0,0,0,1.84,2.71A8.18,8.18,0,0,0,54.56,27a8.84,8.84,0,0,0,3.52.69,11.13,11.13,0,0,0,5.59-1.53,10,10,0,0,0,2.13-1.76,10.54,10.54,0,0,0,1.62-2.25,12.38,12.38,0,0,0,1.35-5.82Zm-4.94,3.25a8.17,8.17,0,0,1-1.07,2.44,5.09,5.09,0,0,1-4.3,2.14,3.87,3.87,0,0,1-3.2-1.47,4.78,4.78,0,0,1-.82-1.68,7.83,7.83,0,0,1-.27-2.15,10.93,10.93,0,0,1,.38-3.17,7.13,7.13,0,0,1,1.06-2.41A5.28,5.28,0,0,1,57.4,11.6,5,5,0,0,1,59.82,11a4.43,4.43,0,0,1,1.86.38A3.82,3.82,0,0,1,63,12.49a5,5,0,0,1,.84,1.7,7.16,7.16,0,0,1,.28,2.16,11.14,11.14,0,0,1-.4,3.14Z" transform="translate(-0.2 -0.46)"/><path id="Path_10072" data-name="Path 10072" class="cls-2" d="M24.55,27.36h4.16l1.68-14.09H26.25Z" transform="translate(-0.2 -0.46)"/><path id="Path_10073" data-name="Path 10073" class="cls-2" d="M30.39,7.66a2.38,2.38,0,0,0-.8-.53,2.15,2.15,0,0,0-1.82,0,3,3,0,0,0-.8.54,2.72,2.72,0,0,0-.53.8A2.37,2.37,0,0,0,27,11.11a2.3,2.3,0,0,0,2.6.54,2.78,2.78,0,0,0,.82-.54A2.32,2.32,0,0,0,31,8.44,2.54,2.54,0,0,0,30.39,7.66Z" transform="translate(-0.2 -0.46)"/></g><g class="cls-3"><path class="cls-4" d="M28.32,36.42l-.5-1.4H25.9l-.49,1.4h-.86l1.87-5h.89l1.88,5Zm-.72-2.1L27.13,33c0-.09-.08-.23-.14-.43l-.13-.43a7,7,0,0,1-.27.92l-.45,1.31Z" transform="translate(-0.2 -0.46)"/><path class="cls-4" d="M33.1,36.42h-.81V34.08a1.05,1.05,0,0,0-.17-.65.68.68,0,0,0-.56-.22.89.89,0,0,0-.75.3,1.66,1.66,0,0,0-.24,1v1.89h-.8v-3.8h.63l.11.5h0A1.19,1.19,0,0,1,31,32.7a1.6,1.6,0,0,1,.7-.15,1.22,1.22,0,0,1,1.36,1.39Z" transform="translate(-0.2 -0.46)"/><path class="cls-4" d="M39.24,36.42l-.5-1.4H36.83l-.49,1.4h-.87l1.88-5h.89l1.88,5Zm-.71-2.1L38.06,33a4.38,4.38,0,0,1-.14-.43,4,4,0,0,1-.13-.43,7,7,0,0,1-.27.92l-.45,1.31Z" transform="translate(-0.2 -0.46)"/><path class="cls-4" d="M44.6,36.42h-1l-1.57-2.28-.48.4v1.88h-.82v-5h.82v2.39c.22-.27.44-.53.67-.79l1.35-1.6h.93c-.87,1-1.5,1.76-1.88,2.2Z" transform="translate(-0.2 -0.46)"/><path class="cls-4" d="M45.27,36.42v-5h.82v5Z" transform="translate(-0.2 -0.46)"/><path class="cls-4" d="M46.77,37.81a1.54,1.54,0,0,1-.56-.08V37a2,2,0,0,0,.5.07c.45,0,.67-.28.67-.85V31.4h.83v4.83a1.67,1.67,0,0,1-.37,1.18A1.36,1.36,0,0,1,46.77,37.81Z" transform="translate(-0.2 -0.46)"/><path class="cls-4" d="M53.47,32a1.38,1.38,0,0,0-1.12.5,2.17,2.17,0,0,0-.4,1.39,2.13,2.13,0,0,0,.39,1.39,1.36,1.36,0,0,0,1.13.47,3.08,3.08,0,0,0,.61-.06c.2,0,.41-.1.62-.16v.7a3.71,3.71,0,0,1-1.33.22,2.13,2.13,0,0,1-1.69-.66,2.77,2.77,0,0,1-.59-1.91,3.1,3.1,0,0,1,.28-1.37,2.07,2.07,0,0,1,.83-.9,2.49,2.49,0,0,1,1.27-.31,3.22,3.22,0,0,1,1.42.32l-.29.68a4.33,4.33,0,0,0-.54-.21A2,2,0,0,0,53.47,32Z" transform="translate(-0.2 -0.46)"/><path class="cls-4" d="M59.06,34.51A2.09,2.09,0,0,1,58.59,36a1.7,1.7,0,0,1-1.33.52,1.8,1.8,0,0,1-.94-.24,1.62,1.62,0,0,1-.63-.69,2.28,2.28,0,0,1-.22-1A2.05,2.05,0,0,1,56,33.07a1.72,1.72,0,0,1,1.33-.52,1.67,1.67,0,0,1,1.3.53A2.06,2.06,0,0,1,59.06,34.51Zm-2.76,0c0,.88.32,1.32,1,1.32s1-.44,1-1.32-.32-1.3-1-1.3a.82.82,0,0,0-.74.34A1.7,1.7,0,0,0,56.3,34.51Z" transform="translate(-0.2 -0.46)"/><path class="cls-4" d="M63.18,36.42h-.8V34.08a1.05,1.05,0,0,0-.17-.65.59.59,0,0,0-.51-.22.78.78,0,0,0-.69.31,1.8,1.8,0,0,0-.22,1v1.89H60v-3.8h.63l.11.5h0a1.1,1.1,0,0,1,.46-.42,1.45,1.45,0,0,1,.66-.15,1.16,1.16,0,0,1,1.16.6h.06a1.17,1.17,0,0,1,.47-.44,1.57,1.57,0,0,1,.7-.16,1.28,1.28,0,0,1,1,.35,1.52,1.52,0,0,1,.31,1v2.48h-.81V34.08a1.06,1.06,0,0,0-.16-.65.61.61,0,0,0-.52-.22.83.83,0,0,0-.69.29,1.58,1.58,0,0,0-.22.91Z" transform="translate(-0.2 -0.46)"/><path class="cls-4" d="M68.63,36.48A1.33,1.33,0,0,1,67.51,36h-.05c0,.32.05.51.05.58V38.1H66.7V32.62h.65q0,.1.12.51h0a1.27,1.27,0,0,1,1.13-.58,1.35,1.35,0,0,1,1.11.52,2.33,2.33,0,0,1,.39,1.44,2.29,2.29,0,0,1-.4,1.45A1.32,1.32,0,0,1,68.63,36.48Zm-.2-3.27a.86.86,0,0,0-.7.28,1.45,1.45,0,0,0-.22.9v.12a1.72,1.72,0,0,0,.22,1,.8.8,0,0,0,.71.32.74.74,0,0,0,.65-.35,1.77,1.77,0,0,0,.23-1,1.7,1.7,0,0,0-.23-1A.75.75,0,0,0,68.43,33.21Z" transform="translate(-0.2 -0.46)"/><path class="cls-4" d="M73.45,36.42l-.16-.53h0a1.46,1.46,0,0,1-.55.47,1.78,1.78,0,0,1-.71.12,1.22,1.22,0,0,1-.88-.3,1.15,1.15,0,0,1-.31-.85,1,1,0,0,1,.44-.89,2.5,2.5,0,0,1,1.32-.32l.66,0v-.21a.78.78,0,0,0-.17-.54.69.69,0,0,0-.53-.18,1.77,1.77,0,0,0-.56.09,2.85,2.85,0,0,0-.51.2l-.26-.58a2.8,2.8,0,0,1,.67-.24,3,3,0,0,1,.7-.09,1.65,1.65,0,0,1,1.09.32,1.25,1.25,0,0,1,.37,1v2.56Zm-1.2-.55a1,1,0,0,0,.71-.25.9.9,0,0,0,.26-.69V34.6l-.49,0a1.6,1.6,0,0,0-.82.2.55.55,0,0,0-.26.51.54.54,0,0,0,.15.4A.65.65,0,0,0,72.25,35.87Z" transform="translate(-0.2 -0.46)"/><path class="cls-4" d="M78.49,36.42h-.81V34.08a1,1,0,0,0-.18-.65.65.65,0,0,0-.56-.22.9.9,0,0,0-.75.3,1.74,1.74,0,0,0-.23,1v1.89h-.81v-3.8h.63l.12.5h0a1.1,1.1,0,0,1,.48-.42,1.63,1.63,0,0,1,.7-.15,1.22,1.22,0,0,1,1.37,1.39Z" transform="translate(-0.2 -0.46)"/><path class="cls-4" d="M79,32.62h.88l.77,2.15a4.09,4.09,0,0,1,.24.87h0a2.87,2.87,0,0,1,.12-.46c0-.18.34-1,.87-2.56h.87l-1.62,4.3A1.54,1.54,0,0,1,79.7,38.1a2.24,2.24,0,0,1-.52-.06v-.63a2.5,2.5,0,0,0,.42,0,.86.86,0,0,0,.82-.68l.14-.35Z" transform="translate(-0.2 -0.46)"/></g></svg>