<svg xmlns="http://www.w3.org/2000/svg" width="86" height="70" viewBox="0 0 86 70">
    <g fill="none" fill-rule="evenodd">
        <g fill="#0089D6" fill-rule="nonzero">
            <g>
                <g>
                    <g>
                        <path d="M39.394 65.572l20.084-3.727.187-.045-10.328-12.905c-3.462-4.305-6.904-8.627-10.328-12.965 0-.063 10.665-30.909 10.726-31.018.017-.036 7.277 13.124 17.592 31.9L85.023 69.03l.134.245-32.826-.004-32.826-.005 19.89-3.69v-.004zM0 61.646c0-.019 4.867-8.893 10.817-19.722l10.816-19.69 12.604-11.11C41.168 5.017 46.857.009 46.884 0c-.047.187-.115.367-.204.536L32.99 31.368 19.549 61.646l-9.774.013C4.4 61.67 0 61.66 0 61.641v.005z" transform="translate(-846.000000, -5891.000000) translate(816.000000, 5851.000000) translate(30.000000, 40.000000) translate(0.000000, -0.000000)"/>
                    </g>
                </g>
            </g>
        </g>
    </g>
</svg>
