<svg xmlns="http://www.w3.org/2000/svg" width="86" height="100" viewBox="0 0 86 100">
    <g fill="none" fill-rule="evenodd">
        <g fill-rule="nonzero">
            <g>
                <g>
                    <g>
                        <path fill="#A179DC" d="M85.133 29.16c0-1.668-.345-3.142-1.04-4.407-.684-1.243-1.708-2.286-3.081-3.11-11.334-6.774-22.68-13.527-34.01-20.308-3.054-1.828-6.016-1.761-9.048.093-4.511 2.758-27.098 16.17-33.828 20.211C1.354 23.303.005 25.848.004 29.156 0 42.78.004 56.402 0 70.026c0 1.63.33 3.075.995 4.321.684 1.281 1.722 2.352 3.127 3.195 6.73 4.041 29.32 17.453 33.83 20.211 3.034 1.856 5.996 1.922 9.051.093 11.331-6.78 22.677-13.534 34.013-20.308 1.404-.842 2.442-1.914 3.126-3.194.664-1.246.995-2.691.995-4.323 0 0 0-27.238-.004-40.861" transform="translate(-166.000000, -5876.000000) translate(136.000000, 5851.000000) translate(30.000000, 25.000000) translate(0.000000, -0.000000)"/>
                        <path fill="#280068" d="M42.699 49.458L.995 74.348c.684 1.28 1.722 2.351 3.127 3.194 6.73 4.041 29.32 17.453 33.83 20.211 3.034 1.856 5.996 1.922 9.051.093 11.331-6.78 22.677-13.534 34.013-20.308 1.404-.842 2.442-1.914 3.126-3.194L42.7 49.458" transform="translate(-166.000000, -5876.000000) translate(136.000000, 5851.000000) translate(30.000000, 25.000000) translate(0.000000, -0.000000)"/>
                        <path fill="#390091" d="M85.133 29.16c0-1.668-.345-3.142-1.04-4.407L42.698 49.458l41.443 24.886c.664-1.246.994-2.691.995-4.323 0 0 0-27.238-.004-40.861" transform="translate(-166.000000, -5876.000000) translate(136.000000, 5851.000000) translate(30.000000, 25.000000) translate(0.000000, -0.000000)"/>
                        <path fill="#FFF" d="M67.253 40.154v4.652h4.488v-4.652h2.244v4.652h4.488v2.326h-4.488v4.652h4.488v2.326h-4.488v4.652H71.74V54.11h-4.488v4.652h-2.245V54.11H60.52v-2.326h4.488v-4.652H60.52v-2.326h4.488v-4.652h2.245zm4.488 6.978h-4.488v4.652h4.488v-4.652z" transform="translate(-166.000000, -5876.000000) translate(136.000000, 5851.000000) translate(30.000000, 25.000000) translate(0.000000, -0.000000)"/>
                        <path fill="#FFF" d="M42.79 16.79c11.707 0 21.928 6.59 27.403 16.385l-.054-.094-13.773 8.22c-2.714-4.762-7.69-7.976-13.396-8.043h-.18c-8.702 0-15.758 7.312-15.758 16.333 0 2.95.759 5.715 2.078 8.103 2.717 4.915 7.823 8.23 13.68 8.23 5.894 0 11.03-3.357 13.732-8.325l-.066.12 13.753 8.258C64.794 75.69 54.714 82.259 43.143 82.39l-.353.002c-11.743 0-21.993-6.63-27.454-16.478-2.666-4.807-4.191-10.38-4.191-16.323 0-18.116 14.168-32.802 31.645-32.802z" transform="translate(-166.000000, -5876.000000) translate(136.000000, 5851.000000) translate(30.000000, 25.000000) translate(0.000000, -0.000000)"/>
                    </g>
                </g>
            </g>
        </g>
    </g>
</svg>
