<svg xmlns="http://www.w3.org/2000/svg" width="86" height="76" viewBox="0 0 86 76">
    <g fill="none" fill-rule="evenodd">
        <g fill-rule="nonzero">
            <g>
                <g>
                    <g>
                        <path fill="#364548" d="M12.973 60.767v-5.715c0-.75.451-1.354 1.199-1.354h.207c.748 0 1.197.604 1.197 1.354v12.031c0 2.934-1.394 5.268-3.824 6.755-1.126.69-2.37 1.043-3.676 1.043h-.517c-2.822 0-5.065-1.45-6.497-3.975C.397 69.734.059 68.442.059 67.083v-.536c0-2.935 1.395-5.268 3.823-6.758 1.127-.692 2.37-1.043 3.677-1.043h.517c1.91 0 3.53.77 4.897 2.02zM2.662 66.814c0 2.12.988 3.713 2.774 4.73.722.41 1.507.63 2.33.63 2.001 0 3.485-.98 4.51-2.743.475-.82.697-1.717.697-2.671 0-1.838-.837-3.271-2.26-4.336-.864-.646-1.836-.97-2.896-.97-2.18 0-3.75 1.146-4.692 3.18-.318.689-.463 1.42-.463 2.18zm21.945-8.068h.36c3.017 0 5.31 1.521 6.764 4.259.581 1.095.892 2.29.892 3.542v.536c0 2.934-1.391 5.272-3.825 6.756-1.126.687-2.37 1.042-3.676 1.042h-.515c-2.823 0-5.066-1.45-6.498-3.975-.665-1.172-1.003-2.464-1.003-3.823v-.536c0-2.936 1.4-5.26 3.822-6.757 1.125-.696 2.37-1.044 3.679-1.044zm-4.898 8.068c0 2.058.97 3.57 2.642 4.635.785.5 1.649.726 2.566.726 1.955 0 3.4-1.03 4.406-2.747.48-.818.697-1.716.697-2.668 0-1.913-.887-3.375-2.401-4.434-.83-.58-1.755-.871-2.755-.871-2.18 0-3.75 1.145-4.692 3.18-.318.688-.463 1.418-.463 2.18zm23.736-5.143c-.393-.192-1.129-.255-1.554-.272-2.174-.085-3.748 1.188-4.671 3.183-.319.688-.464 1.416-.464 2.178 0 2.318 1.17 3.94 3.16 4.93.727.361 1.666.43 2.46.43.7 0 1.687-.445 2.307-.752l.108-.053h.48l.054.012c.592.128 1.039.518 1.039 1.18v.268c0 1.648-2.897 2.025-4.002 2.105-3.9.28-6.817-1.946-7.93-5.814-.192-.671-.28-1.339-.28-2.039v-.535c0-2.935 1.401-5.26 3.823-6.755 1.125-.695 2.37-1.044 3.679-1.044h.515c1.388 0 2.666.41 3.811 1.223l.094.068.06.102c.123.213.23.46.23.713v.268c0 .69-.497 1.062-1.097 1.182l-.05.01h-.154c-.389 0-1.271-.419-1.618-.588zm8.443 1.832c1.011-1.052 2.026-2.103 3.052-3.138.286-.289 1.369-1.511 1.795-1.511h.467l.053.01c.593.13 1.038.52 1.038 1.184v.267c0 .453-.51.979-.79 1.289-.599.659-1.229 1.296-1.84 1.942l-3.145 3.319c1.354 1.41 2.706 2.823 4.05 4.245.371.393.743.787 1.108 1.186.13.141.32.317.43.514.116.183.187.39.187.611v.28l-.015.064c-.146.618-.523 1.116-1.181 1.116h-.207c-.431 0-.917-.507-1.213-.796-.607-.596-1.194-1.222-1.79-1.831l-1.999-2.04v3.26c0 .751-.452 1.354-1.199 1.354h-.205c-.747 0-1.199-.603-1.199-1.354v-18.37c0-.751.452-1.352 1.2-1.352h.204c.747 0 1.2.601 1.2 1.352v8.4zm32.444-4.65h.259c.78 0 1.301.548 1.301 1.355 0 1.12-1.03 1.407-1.921 1.407-1.17 0-2.285.736-3.091 1.561-1.005 1.03-1.445 2.35-1.445 3.8v6.551c0 .751-.451 1.354-1.2 1.354h-.205c-.748 0-1.199-.603-1.199-1.354V66.6c0-2.66 1.246-4.832 3.322-6.355 1.24-.91 2.66-1.39 4.18-1.39zM65.83 71.839c.948.344 2.028.295 3 .119.497-.22 1.768-.796 2.236-.712l.073.013.067.034c.285.144.558.347.704.65.34.708.177 1.42-.492 1.821l-.223.134c-2.47 1.482-5.096 1.276-7.557-.108-1.177-.66-2.077-1.643-2.741-2.84l-.156-.28c-1.585-2.854-1.37-5.856.417-8.57.617-.938 1.424-1.663 2.367-2.23l.357-.214c2.325-1.395 4.817-1.3 7.206-.075 1.284.659 2.324 1.64 3.041 2.932l.129.232c.52.938-.154 1.756-.85 2.315-.809.648-1.625 1.428-2.4 2.123-1.727 1.55-3.451 3.104-5.178 4.656zm-2.235-1.633c1.932-1.722 3.864-3.445 5.79-5.174.659-.59 1.38-1.203 2.034-1.824-.524-.686-1.4-1.181-2.143-1.477-1.502-.594-2.982-.395-4.36.432-1.802 1.082-2.57 2.805-2.502 4.949.026.844.245 1.658.676 2.377.152.253.322.49.505.717zM49.547 15.973h7.681v8.164h3.884c1.794 0 3.639-.333 5.337-.93.835-.295 1.772-.705 2.595-1.22-1.084-1.471-1.638-3.33-1.801-5.162-.221-2.492.262-5.735 1.884-7.685l.808-.971.962.804c2.422 2.023 4.46 4.85 4.819 8.074 2.917-.892 6.342-.68 8.913.862l1.055.633-.556 1.126c-2.174 4.413-6.72 5.78-11.164 5.538-6.651 17.221-21.13 25.374-38.686 25.374-9.07 0-17.391-3.525-22.13-11.89l-.078-.137-.69-1.46c-1.602-3.683-2.134-7.718-1.773-11.749l.108-1.207h6.569v-8.164h7.681V7.986H40.33V0h9.218v15.973" transform="translate(-1188.000000, -5888.000000) translate(1158.000000, 5851.000000) translate(30.000000, 37.000000)"/>
                        <path fill="#22A0C8" d="M74.434 18.993c.515-4.162-2.48-7.43-4.339-8.983-2.14 2.574-2.473 9.318.886 12.157-1.875 1.731-5.825 3.3-9.869 3.3h-49.23c-.393 4.39.348 8.431 2.04 11.891l.56 1.065c.356.626.743 1.23 1.162 1.811 2.024.135 3.89.182 5.597.143 3.356-.078 6.093-.49 8.168-1.237.309-.111.645.059.752.38.107.32-.056.67-.365.782-.276.1-.563.192-.86.28l-.001.001c-1.634.485-3.386.811-5.646.956.134.002-.14.021-.14.021-.077.005-.174.017-.251.021-.89.052-1.85.063-2.832.063-1.073 0-2.13-.021-3.313-.084l-.03.021c4.102 4.793 10.516 7.668 18.555 7.668 17.015 0 31.447-7.841 37.837-25.446 4.534.483 8.892-.719 10.874-4.741-3.157-1.895-7.217-1.29-9.555-.07" transform="translate(-1188.000000, -5888.000000) translate(1158.000000, 5851.000000) translate(30.000000, 37.000000)"/>
                        <path fill="#37B1D9" d="M74.434 18.993c.515-4.162-2.48-7.43-4.339-8.983-2.14 2.574-2.473 9.318.886 12.157-1.875 1.731-5.825 3.3-9.869 3.3H14.797c-.2 6.722 2.199 11.825 6.444 14.91 3.356-.078 6.093-.49 8.168-1.237.309-.111.645.059.752.38.107.32-.056.67-.365.782-.276.1-.563.192-.86.28l-.001.001c-1.634.485-3.536.853-5.797.998l-.055-.054c5.79 3.088 14.187 3.077 23.813-.768 10.794-4.31 20.838-12.524 27.846-21.918-.106.05-.209.1-.308.152" transform="translate(-1188.000000, -5888.000000) translate(1158.000000, 5851.000000) translate(30.000000, 37.000000)"/>
                        <path fill="#1B81A5" d="M11.974 30.8c.306 2.351.968 4.553 1.949 6.558l.56 1.065c.355.626.742 1.23 1.16 1.811 2.025.135 3.891.182 5.599.143 3.355-.078 6.092-.49 8.167-1.237.309-.111.645.059.752.38.107.32-.056.67-.365.782-.276.1-.563.192-.86.28l-.001.001c-1.634.485-3.526.832-5.787.977-.077.005-.212.006-.29.01-.89.053-1.84.084-2.822.084-1.073 0-2.171-.021-3.353-.083 4.102 4.793 10.556 7.678 18.595 7.678 14.566 0 27.24-5.748 34.594-18.449H11.974" transform="translate(-1188.000000, -5888.000000) translate(1158.000000, 5851.000000) translate(30.000000, 37.000000)"/>
                        <path fill="#1D91B4" d="M15.24 30.8c.871 4.128 2.964 7.37 6.002 9.577 3.355-.078 6.092-.49 8.167-1.237.309-.111.645.059.752.38.107.32-.056.67-.365.782-.276.1-.563.192-.86.28l-.001.001c-1.634.485-3.566.832-5.827.977 5.79 3.088 14.162 3.044 23.788-.8 5.823-2.327 11.427-5.79 16.456-9.96H15.24" transform="translate(-1188.000000, -5888.000000) translate(1158.000000, 5851.000000) translate(30.000000, 37.000000)"/>
                        <path fill="#23A3C2" d="M18.564 17.304h6.657v6.921h-6.657v-6.921zm.555.576h.525v5.769h-.525V17.88zm.987 0h.547v5.769h-.547V17.88zm1.009 0h.546v5.769h-.546V17.88zm1.009 0h.546v5.769h-.546V17.88zm1.009 0h.546v5.769h-.546V17.88zm1.008 0h.526v5.769h-.526V17.88zM26.245 9.317h6.658v6.922h-6.658V9.317zm.556.577h.525v5.768H26.8V9.894zm.987 0h.546v5.768h-.546V9.894zm1.009 0h.546v5.768h-.546V9.894zm1.008 0h.547v5.768h-.547V9.894zm1.01 0h.546v5.768h-.547V9.894zm1.008 0h.526v5.768h-.526V9.894z" transform="translate(-1188.000000, -5888.000000) translate(1158.000000, 5851.000000) translate(30.000000, 37.000000)"/>
                        <path fill="#34BBDE" d="M26.245 17.304h6.658v6.921h-6.658v-6.921zm.556.576h.525v5.769H26.8V17.88zm.987 0h.546v5.769h-.546V17.88zm1.009 0h.546v5.769h-.546V17.88zm1.008 0h.547v5.769h-.547V17.88zm1.01 0h.546v5.769h-.547V17.88zm1.008 0h.526v5.769h-.526V17.88z" transform="translate(-1188.000000, -5888.000000) translate(1158.000000, 5851.000000) translate(30.000000, 37.000000)"/>
                        <path fill="#23A3C2" d="M33.927 17.304h6.658v6.921h-6.658v-6.921zm.555.576h.525v5.769h-.525V17.88zm.988 0h.546v5.769h-.546V17.88zm1.008 0h.547v5.769h-.547V17.88zm1.01 0h.546v5.769h-.547V17.88zm1.008 0h.547v5.769h-.547V17.88zm1.009 0h.525v5.769h-.525V17.88z" transform="translate(-1188.000000, -5888.000000) translate(1158.000000, 5851.000000) translate(30.000000, 37.000000)"/>
                        <path fill="#34BBDE" d="M33.927 9.317h6.658v6.922h-6.658V9.317zm.555.577h.525v5.768h-.525V9.894zm.988 0h.546v5.768h-.546V9.894zm1.008 0h.547v5.768h-.547V9.894zm1.01 0h.546v5.768h-.547V9.894zm1.008 0h.547v5.768h-.547V9.894zm1.009 0h.525v5.768h-.525V9.894zM41.609 17.304h6.657v6.921H41.61v-6.921zm.555.576h.525v5.769h-.525V17.88zm.987 0h.547v5.769h-.547V17.88zm1.009 0h.546v5.769h-.546V17.88zm1.009 0h.546v5.769h-.546V17.88zm1.009 0h.546v5.769h-.546V17.88zm1.008 0h.526v5.769h-.526V17.88z" transform="translate(-1188.000000, -5888.000000) translate(1158.000000, 5851.000000) translate(30.000000, 37.000000)"/>
                        <path fill="#23A3C2" d="M41.609 9.317h6.657v6.922H41.61V9.317zm.555.577h.525v5.768h-.525V9.894zm.987 0h.547v5.768h-.547V9.894zm1.009 0h.546v5.768h-.546V9.894zm1.009 0h.546v5.768h-.546V9.894zm1.009 0h.546v5.768h-.546V9.894zm1.008 0h.526v5.768h-.526V9.894z" transform="translate(-1188.000000, -5888.000000) translate(1158.000000, 5851.000000) translate(30.000000, 37.000000)"/>
                        <path fill="#34BBDE" d="M41.609 1.33h6.657v6.923H41.61V1.33zm.555.577h.525v5.769h-.525V1.907zm.987 0h.547v5.769h-.547V1.907zm1.009 0h.546v5.769h-.546V1.907zm1.009 0h.546v5.769h-.546V1.907zm1.009 0h.546v5.769h-.546V1.907zm1.008 0h.526v5.769h-.526V1.907z" transform="translate(-1188.000000, -5888.000000) translate(1158.000000, 5851.000000) translate(30.000000, 37.000000)"/>
                        <path fill="#23A3C2" d="M49.29 17.304h6.658v6.921H49.29v-6.921zm.555.576h.526v5.769h-.526V17.88zm.988 0h.546v5.769h-.546V17.88zm1.009 0h.546v5.769h-.546V17.88zm1.008 0h.546v5.769h-.546V17.88zm1.01 0h.545v5.769h-.546V17.88zm1.008 0h.525v5.769h-.525V17.88z" transform="translate(-1188.000000, -5888.000000) translate(1158.000000, 5851.000000) translate(30.000000, 37.000000)"/>
                        <path fill="#D3ECEC" d="M32.486 35.447c1.015 0 1.837.856 1.837 1.91 0 1.055-.822 1.91-1.837 1.91-1.014 0-1.836-.855-1.836-1.91 0-1.054.822-1.91 1.836-1.91" transform="translate(-1188.000000, -5888.000000) translate(1158.000000, 5851.000000) translate(30.000000, 37.000000)"/>
                        <path fill="#364548" d="M32.486 35.99c.168 0 .329.032.477.092-.16.096-.27.277-.27.483 0 .308.241.558.538.558.203 0 .38-.117.47-.29.065.16.1.338.1.524 0 .755-.588 1.367-1.315 1.367-.726 0-1.315-.612-1.315-1.367s.59-1.368 1.315-1.368M0 31.49h85.438c-1.86-.49-5.886-1.153-5.222-3.688-3.383 4.07-11.54 2.855-13.6.849-2.292 3.457-15.639 2.143-16.57-.55-2.874 3.506-11.78 3.506-14.654 0-.931 2.693-14.278 4.007-16.57.55-2.06 2.006-10.217 3.22-13.6-.849C5.886 30.337 1.861 31 0 31.491" transform="translate(-1188.000000, -5888.000000) translate(1158.000000, 5851.000000) translate(30.000000, 37.000000)"/>
                        <path fill="#BDD9D7" d="M37.369 49.208c-4.549-2.244-7.045-5.295-8.434-8.625-1.69.502-3.721.822-6.08.96-.89.051-1.825.078-2.806.078-1.132 0-2.324-.035-3.575-.104 4.171 4.334 9.303 7.671 18.804 7.732.701 0 1.398-.014 2.09-.041" transform="translate(-1188.000000, -5888.000000) translate(1158.000000, 5851.000000) translate(30.000000, 37.000000)"/>
                        <path fill="#D3ECEC" d="M30.624 43.656c-.63-.888-1.24-2.004-1.688-3.073-1.69.501-3.722.822-6.082.96 1.621.914 3.94 1.762 7.77 2.113" transform="translate(-1188.000000, -5888.000000) translate(1158.000000, 5851.000000) translate(30.000000, 37.000000)"/>
                    </g>
                </g>
            </g>
        </g>
    </g>
</svg>
