<svg xmlns="http://www.w3.org/2000/svg" width="90" height="40" viewBox="0 0 90 40">
    <defs>
        <radialGradient id="4qtzozu3sb" cx="-2731.336%" cy="-899.452%" r="5.881%" fx="-2731.336%" fy="-899.452%" gradientTransform="translate(-27.313360,-8.994521),scale(1.000000,0.678339),translate(27.313360,8.994521)">
            <stop offset="0%" stop-color="#FFF" stop-opacity=".1"/>
            <stop offset="100%" stop-color="#FFF" stop-opacity="0"/>
        </radialGradient>
        <linearGradient id="7lnhpusvea" x1="-10745.541%" x2="-10743.591%" y1="-4815.666%" y2="-4817.528%">
            <stop offset="0%" stop-color="#1A237E" stop-opacity=".4"/>
            <stop offset="100%" stop-color="#1A237E" stop-opacity="0"/>
        </linearGradient>
    </defs>
    <g fill="none" fill-rule="evenodd">
        <g fill-rule="nonzero">
            <g>
                <g>
                    <g>
                        <g>
                            <path fill="#39CEFD" d="M4.969 16.249L18.615 0 8.692 0 0.009 10.341z" transform="translate(-505.000000, -5906.000000) translate(477.000000, 5851.000000) translate(28.000000, 55.000000) translate(0.398234, 0.513009) translate(7.453269, 17.745902)"/>
                            <path fill="#39CEFD" d="M0.019 19.225L16.146 0.026 26.068 0.026 4.981 25.133z" transform="translate(-505.000000, -5906.000000) translate(477.000000, 5851.000000) translate(28.000000, 55.000000) translate(0.398234, 0.513009)"/>
                            <path fill="#03569B" d="M3.724 10.363L13.646 10.363 4.963 0.026 0 5.934z" transform="translate(-505.000000, -5906.000000) translate(477.000000, 5851.000000) translate(28.000000, 55.000000) translate(0.398234, 0.513009) translate(12.422115, 28.060707)"/>
                            <path fill="url(#7lnhpusvea)" d="M4.963 0.026L0 5.934 7.36 2.898z" transform="translate(-505.000000, -5906.000000) translate(477.000000, 5851.000000) translate(28.000000, 55.000000) translate(0.398234, 0.513009) translate(12.422115, 28.060707)"/>
                            <path fill="#16B9FD" d="M0.009 5.937L4.972 0.03 9.935 5.937 4.972 11.849z" transform="translate(-505.000000, -5906.000000) translate(477.000000, 5851.000000) translate(28.000000, 55.000000) translate(0.398234, 0.513009) translate(7.453269, 22.145407)"/>
                            <path fill="url(#4qtzozu3sb)" d="M26.068 17.746l-8.683 10.34 8.683 10.341h-9.922l-3.724-4.433-4.963-5.907 8.687-10.341h9.922zM16.146.026L.019 19.225l4.962 5.908L26.068.026h-9.922z" transform="translate(-505.000000, -5906.000000) translate(477.000000, 5851.000000) translate(28.000000, 55.000000) translate(0.398234, 0.513009)"/>
                        </g>
                        <g fill="gray">
                            <path d="M.083.099L8.779.099 8.779 2.071 1.905 2.071 1.905 8.184 8.116 8.184 8.116 10.155 1.905 10.155 1.905 17.846.166 17.846.166.099zM10.85.099L12.589.099 12.589 17.945 10.85 17.945zM19.132 18.339c-1.325 0-2.237-.493-2.982-1.38-.662-.888-.994-2.17-.994-3.747V5.226h1.74v7.69c0 1.183.248 2.07.662 2.662.497.592 1.077.888 1.905.888.58 0 1.16-.198 1.574-.592.496-.394.828-.887 1.076-1.479.249-.592.414-1.282.414-1.972V5.226h1.74v12.719H22.61V16.07h-.083c-.331.592-.745 1.183-1.408 1.578-.58.493-1.242.69-1.987.69zM31.224 18.142c-.415 0-.829-.099-1.243-.296-.331-.197-.662-.394-.91-.69-.25-.296-.498-.69-.663-1.085-.166-.394-.249-.887-.249-1.479V7.1h-1.905V5.226h1.905v-3.55h1.74v3.55h2.567v1.873h-2.568V14c0 .69.083 1.183.332 1.577.248.395.662.592 1.16.592.413 0 .827-.099 1.159-.395v2.071c-.249.099-.414.197-.663.296h-.662zM38.76 18.142c-.414 0-.828-.099-1.242-.296-.331-.197-.663-.394-.911-.69-.249-.296-.497-.69-.663-1.085-.165-.394-.248-.887-.248-1.479V7.1h-1.74V5.226h1.905v-3.55h1.74v3.55h2.567v1.873h-2.567V14c0 .69.083 1.183.331 1.577.248.395.663.592 1.16.592.414 0 .828-.099 1.159-.395v2.071c-.248.099-.414.197-.663.296h-.828zM46.628 18.339c-.994 0-1.905-.296-2.733-.887-.828-.592-1.408-1.38-1.905-2.367-.414-.986-.662-2.169-.662-3.45 0-1.184.248-2.367.662-3.353.414-.986 1.077-1.873 1.822-2.465.746-.591 1.657-.887 2.733-.887 1.077 0 1.988.296 2.733.887.746.592 1.326 1.282 1.74 2.268.414.986.662 2.07.662 3.352 0 .296 0 .493-.083.69h-8.53c.083.986.248 1.775.58 2.465.33.69.828 1.183 1.325 1.48.58.295 1.076.492 1.656.492 1.408 0 2.402-.789 3.147-2.268l1.491.888c-.497.986-1.076 1.873-1.905 2.465-.662.394-1.573.69-2.733.69zm3.065-8.085c0-.493-.166-1.085-.415-1.578-.248-.492-.58-.985-1.076-1.38-.497-.394-1.077-.591-1.822-.591-.828 0-1.574.295-2.154.986-.58.591-.91 1.478-1.16 2.563h6.627zM53.668 5.226h1.656v2.07h.083c.249-.69.58-1.282 1.243-1.676.58-.493 1.242-.69 1.904-.69.497 0 .911.098 1.243.296v2.267c-.414-.295-.911-.394-1.491-.394-.497 0-.994.197-1.408.493-.414.394-.745.789-1.077 1.38-.248.592-.414 1.183-.414 1.874v7.099h-1.739V5.225z" transform="translate(-505.000000, -5906.000000) translate(477.000000, 5851.000000) translate(28.000000, 55.000000) translate(29.525264, 10.733423)"/>
                        </g>
                    </g>
                </g>
            </g>
        </g>
    </g>
</svg>
