<svg xmlns="http://www.w3.org/2000/svg" width="87" height="87" viewBox="0 0 87 87">
    <g fill="none" fill-rule="evenodd">
        <g fill-rule="nonzero">
            <g>
                <g>
                    <g>
                        <path fill="#326DE6" d="M27.896 85.374c-2.02 0-3.929-.921-5.22-2.59L3.031 57.74c-1.291-1.67-1.796-3.8-1.291-5.872l7.016-31.26c.45-2.072 1.796-3.742 3.649-4.663l28.4-13.931c.899-.46 1.91-.69 2.92-.69s2.02.23 2.918.69l28.402 13.874c1.852.92 3.199 2.59 3.648 4.663l7.016 31.26c.45 2.072 0 4.202-1.29 5.871L64.772 82.726c-1.291 1.611-3.2 2.59-5.22 2.59l-31.657.058z" transform="translate(-1017.000000, -5882.000000) translate(987.000000, 5851.000000) translate(30.000000, 31.000000) translate(0.000000, -0.000000)"/>
                        <path fill="#FFF" d="M43.668 2.763c.786 0 1.572.173 2.302.518L74.37 17.155c1.46.749 2.582 2.13 2.919 3.742l7.016 31.26c.393 1.67 0 3.396-1.067 4.72L63.594 81.92c-1.01 1.324-2.582 2.072-4.21 2.072H27.897c-1.628 0-3.2-.748-4.21-2.072L4.041 56.877c-1.01-1.324-1.403-3.05-1.066-4.72l7.016-31.26c.393-1.67 1.46-3.05 2.919-3.742L41.31 3.224c.73-.288 1.572-.46 2.357-.46zm0-2.705c-1.178 0-2.357.287-3.48.806l-28.4 13.931c-2.246 1.094-3.818 3.109-4.379 5.584L.393 51.64c-.561 2.475 0 5.008 1.572 7.023L21.61 83.704c1.515 1.958 3.816 3.051 6.23 3.051h31.488c2.414 0 4.715-1.093 6.23-3.05l19.646-25.043c1.571-1.957 2.133-4.548 1.571-7.023l-7.016-31.26c-.56-2.475-2.133-4.49-4.378-5.584L47.092.864C46.026.345 44.847.058 43.668.058z" transform="translate(-1017.000000, -5882.000000) translate(987.000000, 5851.000000) translate(30.000000, 31.000000) translate(0.000000, -0.000000)"/>
                        <path fill="#FFF" d="M72.126 49.681c-.056 0-.056 0 0 0h-.056c-.056 0-.113 0-.113-.057-.112 0-.224-.058-.336-.058-.393-.057-.73-.115-1.067-.115-.168 0-.337 0-.561-.057h-.056c-1.179-.116-2.133-.23-3.031-.519-.393-.172-.505-.403-.618-.633 0-.057-.056-.057-.056-.115l-.73-.23c.337-2.648.225-5.412-.392-8.117-.618-2.706-1.684-5.24-3.144-7.542l.562-.518v-.115c0-.288.056-.576.28-.864.674-.633 1.516-1.15 2.526-1.784.169-.115.337-.173.505-.288.337-.173.618-.345.955-.576.056-.057.168-.115.28-.23.056-.058.112-.058.112-.115.786-.69.955-1.842.393-2.59-.28-.404-.785-.634-1.29-.634-.45 0-.843.173-1.235.46l-.113.116c-.112.057-.168.172-.28.23-.281.288-.506.518-.73.806-.112.115-.225.288-.393.403-.786.863-1.515 1.554-2.245 2.072-.168.116-.337.173-.505.173-.113 0-.225 0-.337-.057h-.112l-.674.46c-.73-.806-1.515-1.497-2.301-2.187-3.368-2.706-7.465-4.376-11.731-4.779l-.056-.748-.112-.115c-.169-.173-.393-.346-.45-.749-.056-.92.057-1.957.169-3.108v-.058c0-.173.056-.403.112-.576.056-.345.112-.69.169-1.093v-.518c0-1.037-.786-1.9-1.74-1.9-.45 0-.899.23-1.235.576-.337.345-.505.805-.505 1.324V15.716c0 .403.056.749.168 1.094.056.173.056.345.112.576v.057c.112 1.152.28 2.188.169 3.109-.057.403-.281.576-.45.748l-.112.115-.056.749c-1.01.115-2.02.23-3.03.46-4.323.979-8.14 3.224-11.114 6.448l-.562-.403h-.112c-.112 0-.224.058-.337.058-.168 0-.336-.058-.505-.173-.73-.518-1.46-1.267-2.245-2.13-.112-.115-.225-.288-.393-.403-.224-.288-.449-.518-.73-.806-.056-.058-.168-.115-.28-.23-.056-.058-.113-.058-.113-.116-.336-.287-.785-.46-1.234-.46-.506 0-1.01.23-1.291.633-.562.749-.393 1.9.393 2.59.056 0 .056.058.112.058.112.058.168.173.28.23.337.23.618.404.955.576.168.058.336.173.505.288 1.01.633 1.852 1.151 2.526 1.785.28.288.28.575.28.863v.115l.562.519c-.113.172-.225.287-.281.46-2.807 4.548-3.873 9.902-3.143 15.198l-.73.23c0 .058-.056.058-.056.115-.112.23-.28.461-.618.634-.841.288-1.852.403-3.03.518h-.057c-.168 0-.393 0-.56.057-.338 0-.674.058-1.067.116-.113 0-.225.057-.337.057-.056 0-.112 0-.169.058-1.01.23-1.627 1.209-1.459 2.13.169.806.898 1.324 1.796 1.324.169 0 .28 0 .45-.058.055 0 .112 0 .112-.057.112 0 .224-.058.336-.058.393-.115.674-.23 1.01-.403.169-.057.337-.173.506-.23h.056c1.066-.403 2.02-.749 2.919-.864h.112c.337 0 .561.173.73.288.056 0 .056.058.112.058l.786-.115c1.347 4.26 3.929 8.06 7.353 10.822.785.634 1.571 1.152 2.413 1.67l-.337.748c0 .058.056.058.056.115.113.23.225.519.113.921-.337.864-.842 1.728-1.46 2.706v.058c-.112.172-.224.288-.336.46-.225.288-.393.576-.618.921-.056.058-.112.173-.168.288 0 .058-.056.115-.056.115-.45.979-.113 2.073.73 2.476.224.115.448.173.673.173.673 0 1.347-.461 1.684-1.094 0-.058.056-.115.056-.115.056-.116.112-.23.168-.288.169-.403.225-.691.337-1.036l.168-.519c.393-1.151.674-2.072 1.18-2.878.224-.345.504-.403.729-.518.056 0 .056 0 .112-.058l.393-.748c2.47.979 5.164 1.497 7.858 1.497 1.628 0 3.312-.173 4.883-.576 1.01-.23 1.965-.518 2.919-.864l.337.634c.056 0 .056 0 .112.057.28.058.505.173.73.518.449.806.785 1.785 1.178 2.879v.057l.169.519c.112.345.168.69.337 1.036.056.115.112.172.168.288 0 .057.056.115.056.115.337.69 1.01 1.094 1.684 1.094.224 0 .449-.058.673-.173.393-.23.73-.576.842-1.036.113-.461.113-.98-.112-1.44 0-.057-.056-.057-.056-.115-.056-.115-.112-.23-.168-.288-.169-.345-.393-.633-.618-.92-.112-.173-.224-.289-.337-.461v-.058c-.617-.978-1.178-1.842-1.459-2.706-.112-.402 0-.633.056-.92 0-.058.056-.058.056-.116l-.28-.69c2.975-1.785 5.5-4.318 7.409-7.427 1.01-1.612 1.796-3.396 2.357-5.181l.674.115c.056 0 .056-.057.112-.057.224-.116.393-.288.73-.288h.112c.898.115 1.852.46 2.919.863h.056c.168.058.337.173.505.23.337.173.617.288 1.01.404.112 0 .225.057.337.057.056 0 .112 0 .168.058.169.057.281.057.45.057.841 0 1.571-.575 1.796-1.324 0-.69-.618-1.612-1.628-1.9zm-25.988-2.82l-2.47 1.208-2.47-1.208-.617-2.706 1.684-2.188h2.75l1.684 2.188-.56 2.706zm14.65-5.988c.449 1.958.561 3.915.393 5.815l-8.588-2.533c-.786-.23-1.235-1.036-1.067-1.842.057-.23.169-.46.337-.634l6.792-6.275c.954 1.612 1.684 3.455 2.133 5.47zM55.96 31.95l-7.353 5.354c-.618.403-1.46.288-1.965-.345-.168-.173-.224-.403-.28-.633l-.506-9.384c3.873.46 7.41 2.245 10.104 5.008zm-16.278-4.72c.618-.115 1.179-.23 1.796-.346l-.505 9.211c-.056.806-.673 1.497-1.515 1.497-.225 0-.505-.058-.674-.173L31.32 31.95c2.301-2.36 5.164-3.972 8.363-4.72zm-11.057 8.174l6.68 6.103c.617.518.673 1.496.168 2.13-.169.23-.393.403-.674.46l-8.7 2.59c-.337-3.914.505-7.886 2.526-11.283zM27.11 51.005l8.925-1.554c.73-.057 1.403.46 1.571 1.209.057.345.057.633-.056.921l-3.424 8.463c-3.143-2.073-5.669-5.239-7.016-9.039zm20.487 11.457c-1.29.287-2.582.46-3.929.46-1.964 0-3.873-.345-5.669-.921l4.435-8.232c.449-.518 1.178-.749 1.796-.403.28.172.505.403.673.633l4.322 8.002c-.505.173-1.066.288-1.628.46zm10.946-8.002c-1.404 2.302-3.256 4.144-5.389 5.584l-3.536-8.693c-.168-.691.112-1.44.786-1.785.224-.115.505-.172.786-.172l8.98 1.554c-.336 1.266-.898 2.418-1.627 3.512z" transform="translate(-1017.000000, -5882.000000) translate(987.000000, 5851.000000) translate(30.000000, 31.000000) translate(0.000000, -0.000000)"/>
                    </g>
                </g>
            </g>
        </g>
    </g>
</svg>
