<svg xmlns="http://www.w3.org/2000/svg" width="87" height="61" viewBox="0 0 87 61">
    <g fill="none" fill-rule="evenodd">
        <g fill="#621EE5" fill-rule="nonzero">
            <g>
                <g>
                    <g>
                        <path d="M4.214 31.107c-.222-.262-.493-.471-.792-.618-.298-.147-.618-.216-.944-.216-.327-.008-.646.07-.945.208-.298.147-.569.356-.791.619-.23.255-.41.556-.528.888-.118.34-.18.696-.18 1.051-.007.364.055.72.18 1.052.125.332.306.633.535.888.45.532 1.08.827 1.736.812.654.004 1.28-.29 1.736-.812.236-.247.417-.548.542-.88.125-.333.187-.689.187-1.052 0-.363-.062-.719-.187-1.05-.132-.34-.313-.642-.55-.89zm29.062-6.275c-.035 1.731.041 3.47.222 5.193h-.083c-.195-.425-.625-1.213-1.285-2.365L16.297 0h-4.805v35.312h3.694V9.784c.042-1.615-.02-3.23-.174-4.845h.14c.263.772.603 1.514 1.006 2.21l16.264 28.163h4.548V0h-3.694v24.832zm28.742 6.6H48.963V19.198h11.423v-3.725H48.963V3.74H61.22V0H45.178v35.312h16.82l.02-3.88zM64.844 0v3.74h9.097v31.572h3.695V3.74h9.2V0H64.845zM28.637 44.091c-.923.41-1.756 1.035-2.444 1.832-.709.842-1.264 1.832-1.625 2.921-.361 1.09-.521 2.242-.48 3.393-.069 2.133.598 4.22 1.875 5.812.64.75 1.417 1.33 2.278 1.716.861.386 1.785.556 2.708.51 1.39.054 2.771-.27 4.028-.95l.014-1.802c-1.153.75-2.465 1.121-3.799 1.082-.715.031-1.43-.108-2.09-.41-.66-.3-1.257-.764-1.743-1.352-1.016-1.314-1.539-3.013-1.458-4.745-.083-1.832.48-3.625 1.562-5 .514-.634 1.146-1.129 1.848-1.469.704-.333 1.464-.494 2.229-.471 1.215-.023 2.41.309 3.472.966v-1.94c-1.102-.494-2.285-.726-3.472-.68-.993-.016-1.986.178-2.903.587zm17.312 5.534c-.94-1.1-2.264-1.687-3.625-1.608-.715-.038-1.423.093-2.09.38-.667.285-1.27.718-1.785 1.267-.5.618-.882 1.337-1.132 2.125-.25.788-.354 1.615-.305 2.45-.07 1.584.423 3.138 1.368 4.32.472.564 1.041 1.013 1.68 1.314.64.294 1.327.44 2.014.41.702.023 1.403-.124 2.056-.426.652-.3 1.236-.757 1.715-1.337.974-1.221 1.478-2.82 1.403-4.451.083-1.623-.382-3.208-1.299-4.444zm-1.27 7.937c-.62.796-1.536 1.227-2.48 1.167-.479.023-.951-.077-1.389-.278-.437-.209-.826-.518-1.146-.92-.665-.917-1-2.077-.937-3.254-.063-1.213.27-2.41.937-3.37.313-.401.702-.718 1.14-.934.437-.209.916-.31 1.388-.286.472-.031.938.07 1.368.278.43.209.813.525 1.118.927.631.972.938 2.158.868 3.355.07 1.174-.236 2.357-.868 3.315zm8.048-8.694c-.521.517-.903 1.19-1.09 1.94V48.38H49.9v11.623h1.736v-5.927c-.055-1.075.195-2.149.709-3.061.187-.332.437-.61.743-.804.305-.193.646-.309.993-.317.444-.038.889.093 1.264.371V48.35c-.32-.116-.653-.17-.986-.155-.598-.008-1.174.232-1.632.673zm12.777 4.799c.083-1.476-.312-2.93-1.111-4.104-.396-.495-.882-.889-1.43-1.144-.55-.255-1.14-.37-1.73-.332-.652-.023-1.305.124-1.91.417-.596.294-1.131.734-1.562 1.29-.943 1.225-1.432 2.803-1.368 4.414-.09 1.607.361 3.2 1.264 4.452.438.533.98.95 1.576 1.228.598.279 1.25.395 1.896.364 1.285.07 2.556-.317 3.625-1.106V57.4c-.914.826-2.052 1.284-3.229 1.298-.451.031-.91-.046-1.333-.232-.424-.185-.813-.456-1.132-.819-.62-.836-.935-1.9-.882-2.983h7.34l-.014-.997zm-7.34-.541c.09-.92.451-1.785 1.02-2.458.517-.617 1.243-.962 2-.95.362-.024.716.046 1.05.2.333.155.624.387.86.688.487.72.73 1.6.695 2.497l-5.625.023z" transform="translate(-336.000000, -5895.000000) translate(306.000000, 5851.000000) translate(30.000000, 44.000000)"/>
                    </g>
                </g>
            </g>
        </g>
    </g>
</svg>
