<svg xmlns="http://www.w3.org/2000/svg" width="90" height="26" viewBox="0 0 90 26">
    <g fill="none" fill-rule="evenodd">
        <g fill="#090" fill-rule="nonzero">
            <g>
                <g>
                    <g>
                        <g>
                            <path d="M16.906 25.606c-.508 0-1.008-.269-1.382-.778L3.963 9.11v13.84c0 1.467-.875 2.656-1.954 2.656-1.078 0-1.954-1.189-1.954-2.656V2.697C.055 1.622.532.654 1.262.243c.73-.412 1.57-.185 2.129.576l11.561 15.719V2.698c0-1.468.874-2.657 1.954-2.657 1.079 0 1.953 1.19 1.953 2.656V22.95c0 1.074-.476 2.043-1.206 2.454-.242.136-.495.202-.747.202M25.952.067l-.536 1.362-4.152 10.258-.537 1.295.537 1.294 4.152 9.926.56 1.361h10.868l.537-1.493 3.101-8.5 1.392-3.85h-3.15l-7.936.033c-1.032-.02-1.982 1.252-1.982 2.656 0 1.403.95 2.676 1.982 2.656l4.786-.033-1.172 3.22h-6.154l-3.053-7.304 3.077-7.57h6.547l1.526 4.259h3.932l-2.479-8.075-.537-1.495H25.952M45.744.034c-1.024.017-1.943 1.298-1.93 2.689v6.921h3.908V2.723c.012-1.413-.94-2.707-1.978-2.689M52.006 25.657c-.251 0-.505-.066-.747-.202-.73-.411-1.205-1.38-1.205-2.454V2.748c0-1.467.874-2.656 1.953-2.656 1.08 0 1.954 1.19 1.954 2.656v13.84L65.522.87c.557-.758 1.397-.988 2.129-.576.73.411 1.206 1.38 1.206 2.454v20.253c0 1.467-.875 2.656-1.954 2.656-1.08 0-1.954-1.189-1.954-2.656V9.161L53.388 24.879c-.373.508-.873.778-1.382.778M83.328 12.854l6.077-8.232c.765-1.034.767-2.716.005-3.756-.761-1.04-1.997-1.041-2.762-.007L80.56 9.105 74.474.86c-.765-1.035-2-1.032-2.762.007-.762 1.04-.76 2.722.004 3.756l6.077 8.232-6.06 8.21c-.764 1.035-.766 2.716-.004 3.755.382.521.882.782 1.384.782.499 0 .997-.259 1.379-.776l6.069-8.222 6.069 8.222c.382.517.88.776 1.379.776.502 0 1.002-.26 1.384-.782.761-1.04.76-2.72-.005-3.756l-6.06-8.209M45.744 25.581c-1.024-.017-1.943-1.298-1.93-2.688V11.775h3.908v11.118c.012 1.411-.94 2.705-1.978 2.688" transform="translate(-675.000000, -5913.000000) translate(647.000000, 5851.000000) translate(28.000000, 62.000000)"/>
                        </g>
                    </g>
                </g>
            </g>
        </g>
    </g>
</svg>
