<svg width="768" height="644" viewBox="0 0 768 644" fill="none" xmlns="http://www.w3.org/2000/svg">
<path d="M768.5 0.538269V643.462L768.36 643.451L768.081 643.431C767.651 643.399 767.078 643.357 766.369 643.306C764.616 643.178 762.026 642.991 758.676 642.753C751.976 642.277 742.237 641.597 730.081 640.782C705.77 639.15 671.79 636.974 633.114 634.798C555.766 630.447 459.63 626.095 384.5 626.095C309.37 626.095 213.234 630.447 135.886 634.798C97.2104 636.974 63.2301 639.15 38.9186 640.782C26.7628 641.597 17.0241 642.277 10.3243 642.753C6.97437 642.991 4.38416 643.178 2.63137 643.306C1.75497 643.37 1.08793 643.418 0.639955 643.451L0.5 643.462V0.538268L0.639955 0.548584C1.08793 0.581526 1.75497 0.630403 2.63137 0.694153C4.38416 0.821654 6.97437 1.00865 10.3243 1.24663C17.0241 1.7226 26.7628 2.40255 38.9186 3.21847C63.2301 4.85032 97.2104 7.02611 135.886 9.20191C213.234 13.5534 309.37 17.9054 384.5 17.9054C459.63 17.9054 555.766 13.5534 633.114 9.20191C671.79 7.02611 705.77 4.85032 730.081 3.21847C742.237 2.40255 751.976 1.7226 758.676 1.24663C762.026 1.00865 764.616 0.821654 766.369 0.694153C767.245 0.630403 767.912 0.581526 768.36 0.548584L768.5 0.538269Z" fill="#1C2880" stroke="#1C2880"/>
</svg>
