<svg xmlns="http://www.w3.org/2000/svg" xmlns:xlink="http://www.w3.org/1999/xlink" width="193.672" height="154.606" viewBox="0 0 193.672 154.606">
  <defs>
    <clipPath id="clip-path">
      <path id="Path_974" data-name="Path 974" d="M260.766,255.87c-3.923.595-7.457,3.789-9.649,9.435-4.361,11.22-1.8,27.868,5.734,37.189,3.74,4.628,8,6.576,11.871,5.993q3.128-.475,6.252-.946c-3.873.587-11.879-52.022-7.956-52.617Q263.9,255.4,260.766,255.87Z" transform="translate(-248.992 -254.925)" fill="none"/>
    </clipPath>
  </defs>
  <g id="Component_9_1" data-name="Component 9 – 1" transform="translate(0 1.5)">
    <g id="Group_602" data-name="Group 602" transform="translate(0)">
      <g id="Group_590" data-name="Group 590" transform="translate(0 12.512)">
        <g id="Group_589" data-name="Group 589" transform="translate(0 0)">
          <path id="Path_951" data-name="Path 951" d="M322.224,251.488l0,.012a71.233,71.233,0,0,1-9.743,24.732,72.146,72.146,0,0,1-61.009,33.582H202.835a72.076,72.076,0,0,1-52.17-22.346q-.878-.92-1.726-1.876A72.85,72.85,0,0,1,133,256.039a71.619,71.619,0,0,1-2.048-11.129l-.026-.268a125.66,125.66,0,0,1-.54-19.684c.783-13.868,4.28-25.913,11.043-34.894,7.869-10.452,20.166-16.75,37.758-16.945.731-.008,1.467-.008,2.212,0,48.475.731,46.862,22.836,86.563,32.537,9.075,2.218,20.307,3.788,34.792,4.3.325.011.647.028.963.049C324.06,211.313,326.245,230.37,322.224,251.488Z" transform="translate(-130.22 -173.112)" fill="#e8ecd6"/>
        </g>
      </g>
      <path id="Path_954" data-name="Path 954" d="M307.7,269.129c0,3.152-38.935,5.706-86.965,5.706s-86.965-2.554-86.965-5.706,38.936-5.7,86.965-5.7S307.7,265.978,307.7,269.129Z" transform="translate(-116.254 -121.729)" fill="#d4dbb5"/>
      <g id="Group_592" data-name="Group 592" transform="translate(12.587 72.006)">
        <g id="Group_591" data-name="Group 591" transform="translate(0)">
          <path id="Path_955" data-name="Path 955" d="M248.7,272.647h-7.782c-1.058,0-2-1.006-2.323-2.492l-3.3-15c-.134-.613.156-1.251.591-1.3a77.5,77.5,0,0,1,17.847,0c.435.051.724.688.589,1.3l-3.3,15C250.7,271.642,249.762,272.647,248.7,272.647Z" transform="translate(-230.913 -197.067)" fill="#e8f5d1" stroke="#8eb44a" stroke-linejoin="round" stroke-width="1.5"/>
          <ellipse id="Ellipse_30" data-name="Ellipse 30" cx="8.769" cy="0.722" rx="8.769" ry="0.722" transform="translate(5.184 57.156)" fill="#4e6754"/>
          <path id="Path_956" data-name="Path 956" d="M258.3,248.653c-3.922-1.034-9.915,7.107-11.735,15.045V252.134a23.821,23.821,0,0,1,5.826-6.643c4.924-4.011,9.458-9.159,5.529-10.194-3.683-.97-9.189,6.147-11.355,13.589v-14.85a15.736,15.736,0,0,1,3.335-3.632c3.1-2.528,5.96-5.771,3.484-6.423-2.149-.567-5.285,3.238-6.82,7.528v-4.814a22.82,22.82,0,0,1,1.6-5.789c2.283-5.037,3.516-10.228.506-9.841s-4.965,9.358-3.318,16.246v2.476c-1.112-5.04-4.931-10.26-7.423-9.6s.381,3.9,3.484,6.425a14.286,14.286,0,0,1,3.938,4.694V243c-1.785-7.977-7.82-16.211-11.764-15.172s.605,6.183,5.529,10.194a22.732,22.732,0,0,1,6.234,7.416v14.028c-1.908-7.831-7.788-15.734-11.656-14.715-3.93,1.035-.56,4.8,4.975,9.346a26.129,26.129,0,0,1,6.682,8.129v6.608a2.051,2.051,0,0,0,1.215,0v-2.629a22.807,22.807,0,0,1,6.205-7.359C257.7,254.836,262.233,249.688,258.3,248.653Z" transform="translate(-231.995 -211.044)" fill="#8ac39b" stroke="#8eb44a" stroke-linejoin="round" stroke-width="1.5"/>
        </g>
      </g>
      <g id="Group_597" data-name="Group 597" transform="translate(48.834)">
        <g id="Group_596" data-name="Group 596" transform="translate(1.264 33.491)">
          <g id="Group_593" data-name="Group 593" transform="translate(33.742 26.428)">
            <rect id="Rectangle_1301" data-name="Rectangle 1301" width="20.644" height="88.456" transform="translate(0)" fill="#8ac39b" stroke="#8eb44a" stroke-linejoin="round" stroke-width="1.5"/>
            <path id="Path_957" data-name="Path 957" d="M183.621,253.558c7.315-2.259,14.172-6.309,20.645-10.664v33.994H183.621Z" transform="translate(-183.621 -188.432)" fill="#64a073" stroke="#8eb44a" stroke-linejoin="round" stroke-width="1.5"/>
          </g>
          <g id="Group_594" data-name="Group 594" transform="translate(0 51.007)">
            <rect id="Rectangle_1302" data-name="Rectangle 1302" width="20.644" height="63.876" fill="#8ac39b" stroke="#8eb44a" stroke-linejoin="round" stroke-width="1.5"/>
            <path id="Path_958" data-name="Path 958" d="M175.083,252.194a36.283,36.283,0,0,0,3.821.351v21.483H158.26V252.748C161.913,251.544,167.258,251.052,175.083,252.194Z" transform="translate(-158.26 -210.152)" fill="#64a073" stroke="#8eb44a" stroke-linejoin="round" stroke-width="1.5"/>
          </g>
          <g id="Group_595" data-name="Group 595" transform="translate(67.484)">
            <rect id="Rectangle_1303" data-name="Rectangle 1303" width="20.644" height="114.884" fill="#8ac39b" stroke="#8eb44a" stroke-linejoin="round" stroke-width="1.5"/>
            <path id="Path_959" data-name="Path 959" d="M229.628,229.419v51.922H208.983V238.235C216.32,233.252,223.159,229.392,229.628,229.419Z" transform="translate(-208.983 -166.457)" fill="#64a073" stroke="#8eb44a" stroke-linejoin="round" stroke-width="1.5"/>
          </g>
        </g>
        <g id="Path_960" data-name="Path 960" transform="translate(-157.31 -156.922)" fill="#e8f5d1" stroke-linejoin="round">
          <path d="M 160.8022918701172 227.8582153320313 C 159.6847686767578 227.8582153320313 158.6298522949219 227.4272613525391 157.8318786621094 226.6447143554688 C 156.1618194580078 225.0069427490234 156.1356964111328 222.3156890869141 157.7736206054688 220.6454772949219 L 193.1701965332031 184.5597229003906 L 193.6954193115234 184.0242767333984 L 194.2308349609375 184.5494995117188 L 203.7044067382813 193.8429718017578 L 231.1787261962891 165.8342590332031 L 226.7117004394531 161.4527740478516 L 225.7162780761719 160.4764099121094 L 227.0796051025391 160.1840057373047 L 245.7085113525391 156.1886749267578 L 246.8188781738281 155.9505310058594 L 246.6019744873047 157.0652465820313 L 242.9631958007813 175.7659912109375 L 242.6969146728516 177.1344757080078 L 241.7017517089844 176.1581115722656 L 237.2347106933594 171.7754211425781 L 204.3458099365234 205.3059997558594 L 203.8206024169922 205.8414764404297 L 203.2851867675781 205.3162078857422 L 193.8116455078125 196.0227508544922 L 163.8310394287109 226.5865478515625 C 163.02685546875 227.4065704345703 161.9512023925781 227.8582153320313 160.8022918701172 227.8582153320313 Z" stroke="none"/>
          <path d="M 245.8657836914063 156.9219970703125 L 227.2368774414063 160.9173431396484 L 232.2393493652344 165.8240203857422 L 203.714599609375 194.9035949707031 L 193.7056274414063 185.0848999023438 L 158.3091125488281 221.1706085205078 C 156.9587249755859 222.547607421875 156.9799957275391 224.7588195800781 158.3570098876953 226.1092376708984 C 159.0367736816406 226.7758636474609 159.9198608398438 227.1082153320313 160.8022918701172 227.1082153320313 C 161.7074127197266 227.1082153320313 162.6118621826172 226.7585754394531 163.2956237792969 226.0613403320313 L 193.8014526367188 194.9621276855469 L 203.8103942871094 204.7808227539063 L 237.2245483398438 170.7147521972656 L 242.2270050048828 175.6227416992188 L 245.8657836914063 156.9219970703125 M 245.8657836914063 155.4219665527344 C 246.2545166015625 155.4219665527344 246.6329040527344 155.5732421875 246.9162750244141 155.8512573242188 C 247.2759246826172 156.2041168212891 247.4344024658203 156.7139434814453 247.3381805419922 157.20849609375 L 243.6993865966797 175.9092407226563 C 243.5939483642578 176.4510955810547 243.1994018554688 176.8912811279297 242.6722564697266 177.0551300048828 C 242.5259246826172 177.1006164550781 242.3759155273438 177.1227722167969 242.2271575927734 177.1227722167969 C 241.8400115966797 177.1227722167969 241.4611663818359 176.9727478027344 241.1764984130859 176.6934661865234 L 237.2449035644531 172.8361053466797 L 204.8812561035156 205.8311920166016 C 204.6026763916016 206.1152038574219 204.22265625 206.2769165039063 203.8248443603516 206.2807464599609 C 203.8200225830078 206.2807922363281 203.8151550292969 206.2808227539063 203.8103485107422 206.2808227539063 C 203.4176940917969 206.2808227539063 203.04052734375 206.1268463134766 202.7599639892578 205.8516082763672 L 193.8218383789063 197.0833892822266 L 164.366455078125 227.1117401123047 C 163.4201202392578 228.0767059326172 162.154296875 228.6082153320313 160.8022918701172 228.6082153320313 C 159.4871673583984 228.6082153320313 158.2457733154297 228.1010589599609 157.3067474365234 227.1801910400391 C 155.3414306640625 225.2528533935547 155.3106689453125 222.0858306884766 157.2381439208984 220.1203460693359 L 192.6347808837891 184.0345153808594 C 192.9133758544922 183.7505035400391 193.2933807373047 183.5888061523438 193.6911926269531 183.5849761962891 C 193.6960144042969 183.5849304199219 193.7008819580078 183.5848999023438 193.7056884765625 183.5848999023438 C 194.0983276367188 183.5848846435547 194.4754943847656 183.7388763427734 194.7560577392578 184.0141143798828 L 203.6941986083984 192.7823333740234 L 230.1180877685547 165.8444976806641 L 226.1865081787109 161.9882049560547 C 225.7924041748047 161.6016235351563 225.6424713134766 161.0298156738281 225.7962188720703 160.4995880126953 C 225.9499816894531 159.9693756103516 226.3825378417969 159.5664672851563 226.9223175048828 159.45068359375 L 245.5512390136719 155.4553527832031 C 245.6557159423828 155.4329376220703 245.7611389160156 155.4219665527344 245.8657836914063 155.4219665527344 Z" stroke="none" fill="#8eb44a"/>
        </g>
      </g>
      <g id="Group_601" data-name="Group 601" transform="translate(146.231 95.352)">
        <path id="Path_961" data-name="Path 961" d="M260.766,255.87c-3.923.595-7.457,3.789-9.649,9.435-4.361,11.22-1.8,27.868,5.734,37.189,3.74,4.628,8,6.576,11.871,5.993q3.128-.475,6.252-.946c-3.873.587-11.879-52.022-7.956-52.617Q263.9,255.4,260.766,255.87Z" transform="translate(-248.992 -254.825)" fill="#e8f5d1" stroke="#8eb44a" stroke-linejoin="round" stroke-width="0.5"/>
        <g id="Group_600" data-name="Group 600" transform="translate(0 0.1)">
          <g id="Group_599" data-name="Group 599" clip-path="url(#clip-path)">
            <g id="Group_598" data-name="Group 598" transform="translate(-6.125 1.266)">
              <path id="Path_962" data-name="Path 962" d="M278.737,255.257q-15.674,2.367-31.352,4.739" transform="translate(-247.385 -255.257)" fill="#e8f5d1" stroke="#8eb44a" stroke-linejoin="round" stroke-width="0.5"/>
              <path id="Path_963" data-name="Path 963" d="M278.9,256.4q-15.68,2.367-31.352,4.738" transform="translate(-246.918 -252.037)" fill="#e8f5d1" stroke="#8eb44a" stroke-linejoin="round" stroke-width="0.5"/>
              <path id="Path_964" data-name="Path 964" d="M279.068,257.547q-15.674,2.367-31.352,4.739" transform="translate(-246.454 -248.817)" fill="#e8f5d1" stroke="#8eb44a" stroke-linejoin="round" stroke-width="0.5"/>
              <path id="Path_965" data-name="Path 965" d="M279.237,258.692q-15.68,2.367-31.356,4.743" transform="translate(-245.99 -245.597)" fill="#e8f5d1" stroke="#8eb44a" stroke-linejoin="round" stroke-width="0.5"/>
              <path id="Path_966" data-name="Path 966" d="M279.4,259.837q-15.674,2.367-31.352,4.742" transform="translate(-245.523 -242.377)" fill="#e8f5d1" stroke="#8eb44a" stroke-linejoin="round" stroke-width="0.5"/>
              <path id="Path_967" data-name="Path 967" d="M279.565,260.982l-31.352,4.742" transform="translate(-245.056 -239.157)" fill="#e8f5d1" stroke="#8eb44a" stroke-linejoin="round" stroke-width="0.5"/>
              <path id="Path_968" data-name="Path 968" d="M279.73,262.128q-15.674,2.367-31.352,4.739" transform="translate(-244.592 -235.934)" fill="#e8f5d1" stroke="#8eb44a" stroke-linejoin="round" stroke-width="0.5"/>
              <path id="Path_969" data-name="Path 969" d="M279.9,263.273q-15.674,2.367-31.352,4.739" transform="translate(-244.128 -232.714)" fill="#e8f5d1" stroke="#8eb44a" stroke-linejoin="round" stroke-width="0.5"/>
              <path id="Path_970" data-name="Path 970" d="M280.061,264.418q-15.674,2.367-31.352,4.742" transform="translate(-243.662 -229.494)" fill="#e8f5d1" stroke="#8eb44a" stroke-linejoin="round" stroke-width="0.5"/>
              <path id="Path_971" data-name="Path 971" d="M280.226,265.563q-15.674,2.367-31.352,4.742" transform="translate(-243.198 -226.274)" fill="#e8f5d1" stroke="#8eb44a" stroke-linejoin="round" stroke-width="0.5"/>
              <path id="Path_972" data-name="Path 972" d="M280.392,266.708q-15.68,2.367-31.352,4.742" transform="translate(-242.731 -223.054)" fill="#e8f5d1" stroke="#8eb44a" stroke-linejoin="round" stroke-width="0.5"/>
              <path id="Path_973" data-name="Path 973" d="M280.557,267.853q-15.674,2.373-31.352,4.742" transform="translate(-242.267 -219.834)" fill="#e8f5d1" stroke="#8eb44a" stroke-linejoin="round" stroke-width="0.5"/>
            </g>
          </g>
        </g>
        <path id="Path_975" data-name="Path 975" d="M252.755,264.434c-4.357,11.219-1.792,27.868,5.734,37.189s17.163,7.777,21.52-3.442,1.8-27.868-5.73-37.189S257.116,253.215,252.755,264.434Z" transform="translate(-244.378 -254.899)" fill="#fff" stroke="#8eb44a" stroke-linejoin="round" stroke-width="0.5"/>
        <path id="Path_976" data-name="Path 976" d="M253.228,263.823c-3.34,8.589-1.376,21.333,4.388,28.47s13.141,5.955,16.48-2.634,1.369-21.345-4.392-28.474S256.563,255.238,253.228,263.823Z" transform="translate(-241.656 -250.331)" fill="#8ac39b"/>
        <path id="Path_977" data-name="Path 977" d="M264.176,265.951c-3.355-4.159-5.288,4.3-6.893,2.314a2.408,2.408,0,0,1-.084-2.364,7.692,7.692,0,0,1,2.691-3.233l-1.33-3.606a7.512,7.512,0,0,0-2.749,3.218l-1.9-2.352-1.014,2.611,1.967,2.436c-.621,2.771-.229,5.493,1.193,7.251,3.3,4.083,5.158-4.468,6.809-2.425a2.835,2.835,0,0,1,.1,2.806,5.7,5.7,0,0,1-3.34,3.279l1.289,3.622a6.284,6.284,0,0,0,3.24-3.027l2.059,2.55,1.018-2.612-2.005-2.482C266.036,271.093,265.83,267.99,264.176,265.951Z" transform="translate(-238.014 -243.19)" fill="#fff"/>
      </g>
    </g>
  </g>
</svg>
