<svg id="stopwatch" xmlns="http://www.w3.org/2000/svg" width="15" height="17.794" viewBox="0 0 15 17.794">
  <path id="Path_1104" data-name="Path 1104" d="M31.916,2.884V1.5h.631a.751.751,0,1,0,0-1.5H28.973a.751.751,0,0,0,0,1.5H29.6V2.884a7.5,7.5,0,1,0,2.313,0ZM30.76,16.293a6,6,0,1,1,6-6,6.005,6.005,0,0,1-6,6Z" transform="translate(-23.26)" fill="#7dc4a6"/>
  <path id="Path_1105" data-name="Path 1105" d="M137.068,98.943V95.518a.727.727,0,1,0-1.454,0v3.844a.445.445,0,0,0,.131.315l2.034,2.025a.727.727,0,0,0,1.026-1.03Z" transform="translate(-128.799 -88.969)" fill="#7dc4a6"/>
</svg>
