<svg xmlns="http://www.w3.org/2000/svg" xmlns:xlink="http://www.w3.org/1999/xlink" width="36" height="36" viewBox="0 0 36 36">
  <defs>
    <clipPath id="clip-path">
      <path id="Path_4481" data-name="Path 4481" d="M888,1246h36v36H888Z" transform="translate(-885.05 -1243.05)" clip-rule="evenodd"/>
    </clipPath>
    <clipPath id="clip-path-2">
      <path id="Path_4480" data-name="Path 4480" d="M888,1246h42.112v42.112H888Z" transform="translate(-888 -1246)" clip-rule="evenodd"/>
    </clipPath>
  </defs>
  <g id="Faster_delivery_30_" data-name="Faster delivery, 30 " transform="translate(-2.95 -2.95)" clip-path="url(#clip-path)">
    <g id="Group_2079" data-name="Group 2079" transform="translate(-0.107 -0.107)" clip-path="url(#clip-path-2)">
      <g id="Group_2078" data-name="Group 2078" clip-path="url(#clip-path-2)">
        <path id="Path_4473" data-name="Path 4473" d="M935.755,1277.877a.877.877,0,1,1-.877-.877A.879.879,0,0,1,935.755,1277.877Z" transform="translate(-913.821 -1263.401)" fill="#f7b0c4" stroke="#3d4642" stroke-width="0.2"/>
        <path id="Path_4474" data-name="Path 4474" d="M935.755,1317.877a.877.877,0,1,1-.877-.877A.878.878,0,0,1,935.755,1317.877Z" transform="translate(-913.821 -1285.854)" fill="#f7b0c4" stroke="#3d4642" stroke-width="0.2"/>
        <path id="Path_4475" data-name="Path 4475" d="M955.755,1296.877a.877.877,0,1,1-.877-.877A.878.878,0,0,1,955.755,1296.877Z" transform="translate(-925.048 -1274.066)" fill="#f7b0c4" stroke="#3d4642" stroke-width="0.2"/>
        <path id="Path_4476" data-name="Path 4476" d="M915.755,1296.877a.877.877,0,1,1-.877-.877A.878.878,0,0,1,915.755,1296.877Z" transform="translate(-902.594 -1274.066)" fill="#f7b0c4" stroke="#3d4642" stroke-width="0.2"/>
        <path id="Path_4477" data-name="Path 4477" d="M935.755,1284H934v6.142a.867.867,0,0,0,.263.614l4.343,4.343,1.228-1.228-4.08-4.08Z" transform="translate(-913.821 -1267.33)" fill="#f7b0c4" stroke="#3d4642" stroke-width="0.2"/>
        <path id="Path_4478" data-name="Path 4478" d="M916.932,1286.584a12.283,12.283,0,1,1,12.283-12.283,12.263,12.263,0,0,1-12.283,12.283Zm10.4-22.986,1.316-1.316a1.311,1.311,0,0,0-.044-1.842,1.353,1.353,0,0,0-1.842-.044l-1.492,1.535a14.532,14.532,0,0,0-7.019-2.457v-1.842H922.2V1255H911.668v2.632h3.948v1.8a14.952,14.952,0,1,0,11.712,4.167Z" transform="translate(-895.876 -1251.052)" fill="#f7b0c4" stroke="#3d4642" stroke-width="0.2"/>
      </g>
    </g>
  </g>
</svg>
