<svg xmlns="http://www.w3.org/2000/svg" width="40" height="39.997" viewBox="0 0 40 39.997">
  <g id="develop" transform="translate(0 0)">
    <g id="Group_781" data-name="Group 781" transform="translate(0 15.397)">
      <g id="Group_780" data-name="Group 780">
        <path id="Path_1080" data-name="Path 1080" d="M39.219,212.289a.781.781,0,0,0,.781-.781v-1.366a5.349,5.349,0,0,0-2.947-4.773,4.179,4.179,0,0,0,1.487-3.2V201.2a4.189,4.189,0,0,0-8.378,0v.973a4.171,4.171,0,0,0,1.148,2.876,10.289,10.289,0,0,0-3.832,1.737L20.4,211.945a2.857,2.857,0,0,0-.4.357,2.862,2.862,0,0,0-.4-.357l-7.074-5.159a10.289,10.289,0,0,0-3.832-1.737,4.171,4.171,0,0,0,1.148-2.876V201.2a4.189,4.189,0,0,0-8.378,0v.973a4.179,4.179,0,0,0,1.487,3.2A5.349,5.349,0,0,0,0,210.142V220.83a.781.781,0,0,0,.781.781h9.737a.781.781,0,0,0,.781-.781v-7.172l5.112,3.081a2.85,2.85,0,0,0,2.905.041,2.926,2.926,0,0,0,.683-.533,2.922,2.922,0,0,0,.683.533,2.849,2.849,0,0,0,2.905-.041l5.112-3.081v7.172a.781.781,0,0,0,.781.781h9.737A.781.781,0,0,0,40,220.83v-2.822a.781.781,0,0,0-1.562,0v2.041H30.263v-7.208a.793.793,0,0,0-.01-.119l.849-.512a.781.781,0,1,0-.807-1.338L22.782,215.4a1.319,1.319,0,0,1-2-1.13,1.323,1.323,0,0,1,.542-1.066l7.074-5.159a8.727,8.727,0,0,1,5.175-1.687h1.082a3.787,3.787,0,0,1,3.783,3.782v1.366A.781.781,0,0,0,39.219,212.289ZM3.023,201.2a2.627,2.627,0,0,1,5.253,0v.973a2.627,2.627,0,0,1-5.253,0Zm15.525,14.222a1.305,1.305,0,0,1-1.33-.019L9.7,210.873A.781.781,0,1,0,8.9,212.21l.848.511a.79.79,0,0,0-.009.119v7.208H1.562v-9.906a3.787,3.787,0,0,1,3.783-3.782H6.427a8.726,8.726,0,0,1,5.175,1.687l7.074,5.159a1.323,1.323,0,0,1,.542,1.066A1.3,1.3,0,0,1,18.548,215.421Zm18.429-13.248a2.627,2.627,0,0,1-5.253,0V201.2a2.627,2.627,0,0,1,5.253,0Z" transform="translate(0 -197.011)" fill="#818181"/>
      </g>
    </g>
    <g id="Group_783" data-name="Group 783" transform="translate(38.438 32.268)">
      <g id="Group_782" data-name="Group 782">
        <path id="Path_1081" data-name="Path 1081" d="M493.333,413.248a.781.781,0,1,0,.229.552A.786.786,0,0,0,493.333,413.248Z" transform="translate(-492 -413.02)" fill="#818181"/>
      </g>
    </g>
    <g id="Group_785" data-name="Group 785" transform="translate(8.382)">
      <g id="Group_784" data-name="Group 784" transform="translate(0 0)">
        <path id="Path_1082" data-name="Path 1082" d="M131.123.022h-2.577a.781.781,0,0,0,0,1.562h.692l-9.127,9.127-5.973-5.973a.781.781,0,0,0-1.1,0L107.468,10.3a.781.781,0,1,0,1.1,1.1L113.586,6.4l5.973,5.973a.781.781,0,0,0,1.1,0l9.679-9.679V3.38a.781.781,0,1,0,1.562,0V.8A.781.781,0,0,0,131.123.022Z" transform="translate(-107.239 -0.022)" fill="#818181"/>
      </g>
    </g>
    <g id="Group_787" data-name="Group 787" transform="translate(6.404 12.028)">
      <g id="Group_786" data-name="Group 786">
        <path id="Path_1083" data-name="Path 1083" d="M83.333,154.21a.78.78,0,1,0,.229.552A.787.787,0,0,0,83.333,154.21Z" transform="translate(-82 -153.981)" fill="#818181"/>
      </g>
    </g>
  </g>
</svg>
