<svg id="website" xmlns="http://www.w3.org/2000/svg" width="51.724" height="50" viewBox="0 0 51.724 50">
  <g id="Group_195" data-name="Group 195">
    <g id="Group_194" data-name="Group 194">
      <path id="Path_217" data-name="Path 217" d="M48.275,8.533H3.449A3.493,3.493,0,0,0,0,12.06V41.15a.872.872,0,0,0,.862.882h50a.872.872,0,0,0,.862-.882V12.06A3.493,3.493,0,0,0,48.275,8.533ZM50,40.269H1.724V12.06A1.747,1.747,0,0,1,3.449,10.3H48.275A1.747,1.747,0,0,1,50,12.06Z" transform="translate(0 -8.533)" fill="#7dc4a6"/>
    </g>
  </g>
  <g id="Group_197" data-name="Group 197" transform="translate(0 30.888)">
    <g id="Group_196" data-name="Group 196">
      <path id="Path_218" data-name="Path 218" d="M50.862,316.733h-50a.872.872,0,0,0-.862.882v3.407a3.493,3.493,0,0,0,3.449,3.527H48.275a3.493,3.493,0,0,0,3.449-3.527v-3.407A.872.872,0,0,0,50.862,316.733ZM50,321.021a1.747,1.747,0,0,1-1.725,1.764H3.449a1.747,1.747,0,0,1-1.725-1.764V317.5H50v3.525Z" transform="translate(0 -315.733)" fill="#7dc4a6"/>
    </g>
  </g>
  <g id="Group_199" data-name="Group 199" transform="translate(22.336 34.455)">
    <g id="Group_198" data-name="Group 198">
      <path id="Path_219" data-name="Path 219" d="M228.038,349.867h-5.289a.882.882,0,1,0,0,1.763h5.289a.882.882,0,1,0,0-1.763Z" transform="translate(-221.867 -349.867)" fill="#7dc4a6"/>
    </g>
  </g>
  <g id="Group_201" data-name="Group 201" transform="translate(3.526 3.526)">
    <g id="Group_200" data-name="Group 200">
      <path id="Path_220" data-name="Path 220" d="M77.946,42.667H34.993a.871.871,0,0,0-.859.882v28.21a.871.871,0,0,0,.859.882H77.947a.871.871,0,0,0,.859-.882V43.549A.871.871,0,0,0,77.946,42.667Zm-.859,28.21H35.852V44.43H77.087Z" transform="translate(-34.134 -42.667)" fill="#7dc4a6"/>
    </g>
  </g>
  <g id="Group_203" data-name="Group 203" transform="translate(11.757 44.711)">
    <g id="Group_202" data-name="Group 202">
      <path id="Path_221" data-name="Path 221" d="M145.032,452.267h-22.92a2.645,2.645,0,0,0,0,5.289h22.92a2.645,2.645,0,1,0,0-5.289Zm0,3.526h-22.92a.882.882,0,1,1,0-1.763h22.92a.882.882,0,1,1,0,1.763Z" transform="translate(-119.467 -452.267)" fill="#7dc4a6"/>
    </g>
  </g>
  <g id="Group_205" data-name="Group 205" transform="translate(15.284 37.658)">
    <g id="Group_204" data-name="Group 204">
      <path id="Path_222" data-name="Path 222" d="M173.877,391.053c-2.925,0-4.408-2.076-4.408-6.171a.882.882,0,0,0-.882-.881h-8.815a.882.882,0,0,0-.882.881c0,4.095-1.483,6.171-4.408,6.171a.882.882,0,0,0,0,1.763h19.394a.882.882,0,0,0,0-1.763Zm-15.1,0a8.446,8.446,0,0,0,1.853-5.289h7.1a8.435,8.435,0,0,0,1.853,5.289Z" transform="translate(-153.601 -384.001)" fill="#7dc4a6"/>
    </g>
  </g>
  <g id="Group_207" data-name="Group 207" transform="translate(29.988 17.985)">
    <g id="Group_206" data-name="Group 206">
      <path id="Path_223" data-name="Path 223" d="M309.987,195.193l-2.128-2.128,1.184-1.184a.881.881,0,0,0-.369-1.468l-8.815-2.645a.882.882,0,0,0-1.1,1.1l2.645,8.815a.881.881,0,0,0,1.468.37l1.247-1.247,2.128,2.129a.881.881,0,0,0,1.247,0l2.493-2.494A.88.88,0,0,0,309.987,195.193Zm-3.116,1.871-1.938-1.939a1.152,1.152,0,0,0-1.627,0l-.636.636-1.75-5.833,5.833,1.75-.682.682a1,1,0,0,0,0,1.411l2.045,2.045Z" transform="translate(-298.723 -187.731)" fill="#7dc4a6"/>
    </g>
  </g>
  <g id="Group_209" data-name="Group 209" transform="translate(10.954 7.052)">
    <g id="Group_208" data-name="Group 208">
      <path id="Path_224" data-name="Path 224" d="M136.5,76.8H111.816a.882.882,0,0,0-.882.882v4.408a.882.882,0,0,0,.882.882H136.5a.882.882,0,0,0,.882-.882V77.682A.882.882,0,0,0,136.5,76.8Zm-.882,4.408H112.7V78.563h22.92Z" transform="translate(-110.934 -76.8)" fill="#7dc4a6"/>
    </g>
  </g>
  <g id="Group_211" data-name="Group 211" transform="translate(14.589 16.337)">
    <g id="Group_210" data-name="Group 210">
      <path id="Path_225" data-name="Path 225" d="M153,170.667h-7.052a.882.882,0,0,0-.882.882v3.526a.882.882,0,0,0,.882.882H153a.882.882,0,0,0,.882-.882v-3.526A.882.882,0,0,0,153,170.667Zm-.882,3.526H146.83V172.43h5.289Z" transform="translate(-145.067 -170.667)" fill="#7dc4a6"/>
    </g>
  </g>
  <g id="Group_213" data-name="Group 213" transform="translate(10.954 7.052)">
    <g id="Group_212" data-name="Group 212">
      <path id="Path_226" data-name="Path 226" d="M136.5,76.8H111.816a.882.882,0,0,0-.882.882V94.431a.882.882,0,0,0,.882.882H132.8a.882.882,0,0,0,.845-1.135l-1.116-3.721,3.716,1.115a.882.882,0,0,0,1.135-.845V77.682A.882.882,0,0,0,136.5,76.8Zm-.882,12.742-4.15-1.245a.882.882,0,0,0-1.1,1.1l1.246,4.154H112.7V78.563h22.92Z" transform="translate(-110.934 -76.8)" fill="#7dc4a6"/>
    </g>
  </g>
</svg>
