<svg xmlns="http://www.w3.org/2000/svg" width="20" height="20" viewBox="0 0 20 20">
    <g fill="none" fill-rule="evenodd">
        <g fill="#FFF" fill-rule="nonzero">
            <g>
                <g>
                    <path d="M4.6 0c.26.008.517.041.77.1.245.036.486.097.72.18.326.112.572.384.65.72l1.37 5.93c.075.33-.023.677-.26.92-.13.15-.14.15-1.41.79.985 2.16 2.713 3.896 4.87 4.89.65-1.24.66-1.25.8-1.38.243-.237.59-.335.92-.26l6 1.37c.336.078.608.324.72.65.084.237.148.482.19.73.04.251.06.505.06.76 0 1.22-.485 2.39-1.347 3.253C17.79 19.515 16.62 20 15.4 20 6.9 19.989.011 13.1 0 4.6 0 2.06 2.06 0 4.6 0zM11 4c2.761 0 5 2.239 5 5 0 .552-.448 1-1 1s-1-.448-1-1c0-1.657-1.343-3-3-3-.552 0-1-.448-1-1s.448-1 1-1zm0-4c4.97 0 9 4.03 9 9 0 .552-.448 1-1 1s-1-.448-1-1c0-3.866-3.134-7-7-7-.552 0-1-.448-1-1s.448-1 1-1z" transform="translate(-154.000000, -401.000000) translate(134.000000, 381.000000) translate(20.000000, 20.000000)"/>
                </g>
            </g>
        </g>
    </g>
</svg>
