<svg xmlns="http://www.w3.org/2000/svg" xmlns:xlink="http://www.w3.org/1999/xlink" width="1440" height="532" viewBox="0 0 1440 532">
    <defs>
        <path id="ugwgg3n9xa" d="M0 532L1440 532 1440 0 0 0z"/>
    </defs>
    <g fill="none" fill-rule="evenodd">
        <g>
            <g>
                <g transform="translate(-523.000000, -703.000000) translate(523.000000, 703.000000)">
                    <mask id="8caxwdy08b" fill="#fff">
                        <use xlink:href="#ugwgg3n9xa"/>
                    </mask>
                    <use fill="#FFF" xlink:href="#ugwgg3n9xa"/>
                    <path fill="#E9F1FD" d="M545.581 600.738c1.283.056 2.568.117 3.858.183 60.733 3.096 127.752 15.336 192.566 27.173 20.45 3.735 41.596 7.597 61.973 11.057 21.636 3.678 48.565 8.25 74.776 6.933 19.217-.969 37.531-5.01 55.243-8.92 1.895-.417 3.789-.836 5.682-1.25 2.647-.58 5.294-1.157 7.941-1.724 44.763-9.659 93.693-17.785 153.983-25.572l2.06-.265c29.573-3.806 60.153-7.74 85.746-14.045 16.7-4.144 29.716-8.922 39.788-14.608 4.984-2.813 9.307-5.9 13.487-8.886 7.634-5.452 15.532-11.09 27.586-15.078 31.957-10.572 77.937-4.281 122.402 1.801 3.614.494 7.218.987 10.81 1.47 42.289 5.668 79.33 9.356 104.407-2.992 5.13-2.526 9.194-5.407 12.425-8.805 10.426-10.964 7.487-24.715 4.373-39.272-3.004-14.043-6.109-28.564 1.98-42.391 1.46-2.502 3.263-4.94 5.36-7.246 14.804-16.375 42.835-25.21 72.514-34.567 20.25-6.383 41.19-12.984 58.005-22.26 13.564-7.482 25.142-16.747 36.338-25.707 14.715-11.775 29.93-23.95 50.085-32.548 3.823-1.632 8.005-3.202 12.43-4.668 21.48-7.083 46.123-10.944 69.955-14.679 35.384-5.543 68.804-10.778 91.564-25.68 3.851-2.536 7.21-5.295 9.992-8.196 12.89-13.43 12.976-28.948 13.062-45.376.034-5.967.067-12.136.778-18.146 1.037-8.624 3.48-16.918 7.262-24.655 11.632-23.898 39.238-47.976 84.395-73.607 8.626-4.885 17.64-9.686 26.353-14.328 29.032-15.485 56.48-30.11 74.322-49.122 5.444-5.818 9-11.743 10.254-17.135 1.54-6.653 1.77-12.798.705-18.787-4.291-23.823-24.006-46.092-44.887-69.669-5.602-6.312-11.376-12.84-16.92-19.47-21.07-25.199-33.655-45.646-39.617-64.348-4.637-14.509-5.818-29.118-6.985-43.246-.993-12.274-1.944-23.87-4.968-35.233-2.117-7.929-4.695-14.613-7.647-19.867-18.375-32.608-50.912-65.414-102.418-103.238-6.636-4.885-13.34-9.765-20.047-14.648-6.666-4.85-13.556-9.864-20.266-14.807-6.252-4.604-12.502-9.245-18.777-13.907-19.642-14.587-39.95-29.67-61.289-44.285-40.466-27.707-77.496-52.202-113.21-74.885-4.287-2.723-8.59-5.476-12.92-8.247-37.858-24.233-77.008-49.29-127.32-67.811-27.83-10.19-58.129-17.295-87.43-24.167-21.032-4.932-42.782-10.034-63.427-16.23-38.016-11.407-71.668-26.189-108.586-42.923l-.782-.355c-41.986-19.103-85.403-38.854-137.401-47.027-34.02-5.401-68.866-5.745-107.622-5.627-21.788.066-43.824-.265-65.136-.584-38.782-.582-78.886-1.183-117.75.642-12.932.608-25.79 1.226-38.6 1.843-65.49 3.15-127.347 6.127-192.86 7.43-30.268.612-61.326 1.073-91.363 1.517-9.653.143-19.319.287-28.99.436-20.484.32-43.7.682-63.566 5.12-16.095 3.608-29.039 9.636-41.556 15.465-6.654 3.1-13.535 6.303-20.88 9.154-50.045 19.424-117.554 21.863-182.841 24.22l-7.231.262c-13.008.45-28.365.999-43.653 1.662-44.501 1.933-83.53 6.822-116.002 14.53-40.042 9.507-68.63 23.08-84.972 40.344-5.396 5.701-9.487 11.655-13.445 17.413-4.16 6.055-8.463 12.318-14.245 18.184-28.348 28.695-88.161 43.827-146.006 58.46-16.51 4.178-33.581 8.497-49.766 13.083-38.086 10.812-63.727 20.29-83.139 30.733-23.943 12.879-38.212 27.404-43.624 44.407-4.499 14.254-1.555 28.587 2.76 45.845l.315 1.248c3.734 14.81 7.593 30.123 4.701 44.83-5.763 28.594-35.9 52.263-65.044 75.151-4.098 3.218-8.335 6.546-12.442 9.837-8.895 7.14-16.895 14.24-23.777 21.103-28.95 28.792-36.76 51.054-24.576 70.056 10.7 16.69 36.33 27.762 61.117 38.47 24.567 10.613 49.973 21.588 62.086 38.189l.21.287-.52.14c-41.93 11.352-40.578 12.996-18.002 40.455 1.137 1.384 2.324 2.752 3.51 4.115.709.818 1.42 1.635 2.116 2.452 12.497 14.712 26.754 32.286 37.756 51.09 1.755 2.988 3.279 5.732 4.653 8.39 19.716 38.098 25.57 80.027 31.232 120.577l1.145 8.17c.914 6.322 1.702 11.501 2.477 16.295 8.011 50.617 23.698 89.704 49.366 123.006 35.832 46.808 95.014 80.874 166.642 95.925 11.476 2.412 23.363 4.421 34.859 6.366 22.955 3.882 44.638 7.55 63.673 14.174 9.527 3.295 18.434 7.327 28.03 12.688 11.422 6.382 21.827 13.795 31.887 20.965 17.327 12.374 37.949 26.92 59.53 40.98 29.353 19.098 62.323 38.205 100.795 58.413 15.332 8.05 28.345 14.37 40.949 19.89 34.731 15.176 64.513 23.199 93.723 25.253 32.27 2.268 60.997-2.914 88.779-7.925 13.26-2.392 26.97-4.865 40.99-6.529 22.877-2.737 48.006-3.522 74.744-2.34zm313.775 46.037c-19.927-.88-39.364-4.184-55.775-6.973-20.39-3.462-41.543-7.325-62-11.062-64.741-11.823-131.686-24.05-192.267-27.138-28.022-1.434-54.35-.708-78.192 2.142-13.953 1.656-27.63 4.124-40.855 6.509-27.924 5.037-56.802 10.239-89.37 7.956-29.46-2.071-59.451-10.144-94.38-25.405-12.634-5.532-25.674-11.865-41.035-19.93-38.505-20.226-71.506-39.35-100.89-58.47-21.596-14.07-42.228-28.622-59.562-41.003-10.039-7.152-20.42-14.548-31.79-20.902-9.522-5.32-18.355-9.32-27.798-12.586-18.888-6.573-40.487-10.226-63.357-14.094-11.517-1.947-23.426-3.96-34.94-6.381-71.963-15.121-131.4-49.323-167.366-96.303-25.719-33.368-41.433-72.518-49.457-123.206-.775-4.796-1.562-9.976-2.478-16.302l-1.145-8.172c-5.658-40.516-11.508-82.411-31.19-120.447-1.37-2.65-2.888-5.386-4.64-8.367-10.983-18.769-25.22-36.32-37.7-51.012-.696-.815-1.403-1.631-2.113-2.447-1.188-1.368-2.38-2.74-3.52-4.127-11.244-13.674-17.436-21.208-15.289-26.671 2.16-5.494 12.327-8.82 33.37-14.525-12.072-16.273-37.192-27.123-61.489-37.619-24.926-10.769-50.702-21.904-61.521-38.778-12.307-19.195-4.47-41.627 24.658-70.597 6.901-6.883 14.922-14.002 23.84-21.159 4.11-3.294 8.349-6.623 12.449-9.842 29.056-22.82 59.102-46.416 64.83-74.84 2.878-14.628-.973-29.9-4.697-44.67l-.314-1.248c-4.33-17.315-7.284-31.7-2.755-46.047 5.458-17.147 19.843-31.793 43.977-44.774 19.507-10.493 45.246-20.01 83.451-30.857 16.213-4.594 33.298-8.916 49.82-13.096 60.306-15.257 117.27-29.669 145.417-58.16 5.74-5.827 10.029-12.066 14.176-18.101 3.969-5.776 8.073-11.749 13.504-17.486 16.478-17.408 45.277-31.089 85.598-40.661 32.607-7.741 71.78-12.649 116.43-14.589 15.296-.663 30.66-1.212 43.672-1.662l7.229-.262c65.101-2.351 132.422-4.784 182.162-24.088 7.298-2.833 14.157-6.027 20.79-9.117 12.594-5.865 25.618-11.93 41.908-15.581 20.09-4.489 43.436-4.854 64.033-5.175 9.672-.148 19.337-.291 28.99-.436 30.034-.444 61.09-.904 91.351-1.516 65.48-1.303 127.32-4.278 192.793-7.428 12.811-.617 25.668-1.235 38.602-1.843 38.94-1.83 79.083-1.227 117.903-.646 21.3.32 43.324.65 65.09.585 38.863-.117 73.812.227 108.001 5.655 52.263 8.215 95.787 28.016 137.877 47.164l.78.354c36.865 16.712 70.467 31.47 108.384 42.848 20.587 6.18 42.306 11.275 63.311 16.2 29.355 6.885 59.711 14.003 87.643 24.23 50.459 18.575 89.666 43.67 127.582 67.937 4.33 2.771 8.63 5.523 12.915 8.246 35.724 22.69 72.764 47.19 113.239 74.904 21.355 14.626 41.673 29.715 61.318 44.307 6.277 4.662 12.524 9.302 18.774 13.904 6.711 4.942 13.599 9.955 20.262 14.805 6.71 4.882 13.415 9.764 20.052 14.65 51.592 37.888 84.2 70.758 102.604 103.441 2.98 5.288 5.558 12.006 7.69 19.968 3.038 11.396 3.989 23.007 4.982 35.298 1.153 14.108 2.348 28.696 6.956 43.162 5.948 18.645 18.52 39.04 39.53 64.186 5.544 6.624 11.32 13.147 16.907 19.457 20.938 23.631 40.696 45.952 45.002 69.892 1.094 6.04.864 12.234-.706 18.937-1.267 5.467-4.867 11.468-10.383 17.353-17.929 19.113-45.434 33.776-74.567 49.3-8.698 4.64-17.698 9.437-26.31 14.314-45.007 25.546-72.512 49.526-84.09 73.312-3.762 7.695-6.191 15.947-7.22 24.526-.71 5.99-.745 12.15-.777 18.106-.09 16.511-.174 32.107-13.204 45.682-2.818 2.944-6.228 5.742-10.137 8.316-23.015 15.069-56.625 20.334-92.205 25.909-23.75 3.72-48.309 7.569-69.635 14.602-4.38 1.451-8.522 3.005-12.305 4.62-20 8.53-35.158 20.662-49.817 32.393-11.23 8.985-22.84 18.278-36.487 25.804-16.935 9.341-37.95 15.967-58.275 22.374-29.503 9.3-57.37 18.086-72.009 34.274-2.07 2.276-3.849 4.683-5.289 7.153-8.011 13.69-4.92 28.138-1.931 42.112 3.135 14.661 6.096 28.51-4.502 39.655-3.302 3.473-7.455 6.417-12.701 9-25.554 12.584-62.946 8.872-105.61 3.155-3.593-.483-7.201-.978-10.816-1.472-44.2-6.046-89.905-12.3-121.388-1.884-11.848 3.919-19.32 9.257-27.232 14.906-4.202 3-8.547 6.104-13.584 8.946-10.186 5.75-23.33 10.578-40.186 14.76-25.71 6.334-56.353 10.277-85.988 14.09l-2.056.265c-60.229 7.78-109.099 15.895-153.805 25.542-2.644.567-5.288 1.143-7.932 1.722-1.893.414-3.786.832-5.68 1.25-17.8 3.928-36.207 7.99-55.618 8.968-6.499.328-13.038.297-19.522.01z" mask="url(#8caxwdy08b)"/>
                    <path fill="#E9F1FD" d="M21.592 353.083c25.9 1.145 50.225 8.694 73.186 16.54 26.49 9.046 52.16 18.044 75.03 28.626 10.178 4.711 19.536 9.624 27.809 14.603 10.425 6.274 20.484 13.397 31.654 22.418 11.059 8.903 21.38 18.021 31.36 26.84 4.75 4.197 9.237 8.16 13.77 12.077 10.831 9.304 20.807 17.706 33.191 26.304 2.337 1.615 4.816 3.292 7.582 5.126 21.729 14.41 49.649 27.28 76.602 35.311 39.392 11.704 77.82 13.554 111.131 5.353 13.928-3.428 26.52-8.58 38.695-13.562 5.46-2.234 11.105-4.543 16.819-6.679 84.126-31.524 190.342-30.466 262.953-26.975 87.566 4.31 177.96 13.937 268.666 28.611l5.64.915c27.506 4.47 55.948 9.098 84.607 9.882 16.682.46 31.817-.405 46.267-2.646 51.438-7.955 96.635-35.209 120.907-72.905 5.299-8.226 10.112-17.342 15.143-28.688 4.354-9.807 8.26-19.8 11.509-28.284l.854-2.238c4.847-12.699 9.86-25.83 17.181-38.529 11.063-19.186 29.7-36.9 52.475-49.877 22.788-13.002 49.78-21.534 78.065-24.675 29.557-3.285 60.381-.77 86.95 1.847 3.485.344 6.967.694 10.441 1.044 49.386 4.973 96.03 9.672 134.53-6.682 6.077-2.595 11.47-5.548 16.03-8.778 19.706-13.853 23.788-32.088 26.28-49.578.814-5.752 1.508-11.705 2.181-17.462 1.694-14.547 3.447-29.589 7.327-43.462 2.232-7.935 5.541-16.189 10.112-25.236 14.632-28.956 38.66-50.95 73.454-67.24 4.908-2.297 9.659-4.368 14.525-6.333 14.49-5.85 31.168-10.912 47.298-15.807l.766-.233c28.914-8.77 52.695-16.272 73.614-26.238 10.011-4.779 18.237-9.637 25.137-14.853 7.462-5.64 15.457-13.946 11.178-21.488-2.693-4.683-9.795-8.018-16.378-10.662-17.287-6.915-38.6-11.028-59.22-15.005-2.935-.567-5.868-1.133-8.786-1.706-17.655-3.466-37.884-7.772-54.538-15.046-28.19-12.306-48.1-27.726-59.181-45.83-17.468-28.676-8.024-55.678-4.712-63.27l.106-.25c4.34-10.543 9.998-21.08 15.467-31.27 7.602-14.161 15.464-28.804 19.741-43.455 1.112-3.813 2.132-7.684 3.03-11.502 5.312-22.373 8.476-54.537-25.238-75.483-24.106-15.01-61.388-20.837-97.442-26.472-6.672-1.043-13.57-2.12-20.213-3.234-167.39-28.042-275.935-107.048-380.908-183.452-22.054-16.052-44.86-32.652-67.684-48.36-20.301-13.976-37.824-24.384-55.146-32.756-35.708-16.757-71.07-25.152-108.057-25.67-32.832-.459-65.567 5.495-97.225 11.253-12.423 2.26-25.268 4.596-37.96 6.517-43.574 6.542-85.156 4.769-125.37 3.054-34.161-1.457-66.428-2.833-99.318.576-36.02 3.732-69.544 8.993-101.964 14.079l-1.477.232c-15.357 2.397-33.439 5.068-51.108 6.7-18.42 1.702-36.58 2.309-53.978 1.802-5.828-.18-11.67-.461-17.37-.829-4.187-.269-8.39-.587-12.452-.894-4.412-.333-8.973-.678-13.631-.971-37-2.32-81.741-1.68-120.777-.89-63.485 1.283-112.718 6.342-154.937 15.922-30.029 6.829-58.332 16.444-86.528 29.393-35.395 16.3-65.565 36.165-94.744 55.376-26.385 17.372-53.667 35.336-84.709 50.588-30.55 15.01-67.036 26.336-102.322 37.287-48.01 14.903-93.36 28.978-125.776 51.63-4.813 3.364-9.257 6.868-13.208 10.415-18.782 16.86-28.001 35.619-28.186 57.346-.244 27.323 13.936 55.325 27.65 82.406 1.468 2.899 2.926 5.78 4.356 8.639 8.957 17.867 15.31 33.878 19.423 48.947 11.48 42.271 6.027 79.047-16.67 112.428-7.134 10.487-16.19 20.824-24.95 30.82-10.102 11.533-20.55 23.456-28.07 35.646-11.644 18.792-14.765 38.964-8.79 56.798 6.559 19.58 23.427 34.748 48.786 43.864 8.698 3.122 18.445 5.554 27.868 7.907 11.284 2.817 22.954 5.73 33.141 9.88 4.077 1.657 7.94 3.52 11.484 5.542 15.463 8.82 25.572 20.809 30.05 35.631 3.81 12.623 3.338 27.096-1.366 41.853-3.39 10.636-8.298 21.4-13.45 32.411l-.497 1.048c-9.044 19.077-18.397 38.803-17.087 58.291 1.174 17.346 15.43 34.545 37.202 44.887 18.662 8.896 41.748 12.34 65.002 9.694 14.843-1.688 28.824-5.464 42.343-9.113 14.9-4.024 30.309-8.185 46.777-9.494 6.107-.485 12.136-.56 18.078-.297zm428.772 198.71c-19.137-.846-39.06-4.277-59.224-10.269-27.095-8.072-55.152-21.005-76.982-35.481-2.77-1.837-5.255-3.518-7.597-5.138-12.42-8.622-22.413-17.04-33.266-26.362-4.538-3.919-9.025-7.884-13.777-12.082-9.973-8.813-20.289-17.926-31.332-26.817-11.136-8.993-21.16-16.092-31.544-22.34-8.236-4.957-17.553-9.849-27.69-14.54-22.804-10.553-48.432-19.536-74.878-28.569-28.019-9.572-58.08-18.707-90.367-16.138-16.258 1.292-31.57 5.427-46.38 9.425-13.594 3.67-27.65 7.467-42.66 9.173-23.676 2.691-47.165-.808-66.142-9.855-22.024-10.46-36.444-27.846-37.63-45.369-1.316-19.585 8.057-39.36 17.124-58.482l.497-1.047c5.145-10.998 10.046-21.748 13.43-32.36 4.925-15.45 12.023-53.871-28.358-76.906-3.493-1.993-7.304-3.83-11.324-5.464-10.078-4.106-21.681-7.002-32.903-9.804-9.47-2.363-19.261-4.807-28.044-7.96-25.653-9.222-42.712-24.545-49.334-44.31-6.011-17.943-2.874-38.233 8.836-57.13 7.543-12.226 18.008-24.17 28.126-35.72 8.747-9.982 17.791-20.305 24.907-30.764 22.622-33.273 28.054-69.942 16.605-112.1-4.105-15.042-10.448-31.028-19.392-48.87-1.43-2.859-2.889-5.738-4.355-8.637-13.737-27.124-27.939-55.171-27.694-82.586.184-21.851 9.463-40.721 28.364-57.69 3.977-3.568 8.449-7.094 13.292-10.478 32.57-22.761 80.145-37.528 126.153-51.808 35.226-10.933 71.65-22.239 102.098-37.199 30.97-15.219 58.223-33.162 84.578-50.514 29.214-19.235 59.423-39.125 94.905-55.465 28.298-12.996 56.713-22.647 86.866-29.506 42.37-9.614 91.752-14.691 155.401-15.977 39.085-.79 83.888-1.443 120.978.895 4.676.294 9.244.64 13.662.973 4.057.306 8.253.623 12.428.892 5.67.368 11.488.646 17.284.824 17.297.504 35.358-.098 53.682-1.792 17.604-1.627 35.641-4.29 50.962-6.682l1.475-.231c32.45-5.091 66.004-10.357 102.086-14.096 33.066-3.426 65.419-2.046 99.671-.586 40.099 1.71 81.564 3.478 124.911-3.03 12.656-1.915 25.486-4.249 37.893-6.505 31.766-5.778 64.615-11.753 97.682-11.29 37.32.511 72.936 8.974 108.89 25.845 17.388 8.403 34.96 18.84 55.306 32.848 22.836 15.716 45.646 32.319 67.707 48.375 104.848 76.314 213.265 155.227 380.247 183.201 6.632 1.111 13.527 2.188 20.192 3.23 36.236 5.663 73.707 11.52 98.06 26.685 34.046 21.152 30.88 53.51 25.537 76.01-.897 3.825-1.919 7.703-3.034 11.523-4.291 14.69-12.162 29.355-19.775 43.536-5.466 10.18-11.117 20.706-15.447 31.23l-.112.257c-3.29 7.55-12.683 34.398 4.684 62.907 11.003 17.978 30.776 33.29 58.774 45.513 16.498 7.206 36.608 11.486 54.162 14.931 2.918.574 5.848 1.139 8.781 1.705 20.708 3.995 42.121 8.127 59.552 15.103 6.756 2.71 14.045 6.139 16.84 11.01 4.422 7.804-3.732 16.312-11.352 22.075-6.958 5.26-15.24 10.157-25.339 14.97-21.01 10.012-44.85 17.533-73.831 26.324l-.766.232c-16.092 4.885-32.735 9.936-47.156 15.757-4.842 1.955-9.57 4.017-14.453 6.302-34.6 16.198-58.498 38.083-73.062 66.905-4.559 9.022-7.856 17.252-10.082 25.16-3.87 13.845-5.624 28.87-7.318 43.403-.671 5.76-1.365 11.715-2.18 17.472-2.506 17.591-6.62 35.937-26.538 49.936-4.621 3.274-10.088 6.27-16.25 8.902-38.971 16.553-85.906 11.825-135.587 6.821-3.474-.35-6.955-.7-10.435-1.044-26.448-2.603-57.12-5.108-86.449-1.85-28.018 3.112-54.776 11.574-77.379 24.47-22.645 12.903-41.177 30.522-52.186 49.612-7.302 12.666-12.309 25.782-17.15 38.465l-.855 2.239c-3.25 8.487-7.16 18.487-11.515 28.303-5.044 11.37-9.867 20.507-15.18 28.752-11.02 17.118-26.917 32.697-45.97 45.055-22.257 14.433-47.758 23.951-75.8 28.288-14.59 2.262-29.867 3.136-46.698 2.672-28.825-.8-57.34-5.43-84.922-9.911l-5.638-.915c-90.622-14.66-180.929-24.277-268.407-28.582-2.141-.104-4.284-.205-6.39-.297-146.767-6.487-216.138 12.325-255.69 27.148-5.693 2.127-11.327 4.432-16.775 6.66-12.233 5.005-24.883 10.181-38.942 13.643-16.617 4.091-34.485 5.713-53.092 4.89z" mask="url(#8caxwdy08b)"/>
                    <path fill="#E9F1FD" d="M467.22 408.302c1.536.067 3.12.163 4.76.294 3.522.281 6.972.714 10.255 1.288 24.866 4.344 53.587 16.107 83.291 28.81 31.757 13.484 63.315 25.323 100.197 22.08 14.813-1.302 27.55-5.096 41.038-9.111 1.375-.41 2.752-.82 4.132-1.228 72.419-21.38 131.821-33.258 186.944-37.378 67.312-5.032 139.923.554 202.074 6.682l4.825.479c20.956 2.081 42.625 4.234 64.076 4.364 12.554.073 24.005-.538 35-1.868 50.035-5.97 87.135-25.875 109.446-41.52 7.167-5.017 14.342-10.591 21.937-17.043 6.406-5.431 13.05-11.315 17.713-18.25 4.637-6.927 7.078-14.53 9.441-21.882.93-2.896 1.893-5.893 2.976-8.809 7.069-19.014 25.214-36.636 49.782-48.344 21.555-10.315 48.374-17.188 79.704-20.429 23.926-2.478 48.663-2.6 72.585-2.719 3.982-.02 7.948-.04 11.895-.07 64.415-.465 105.476-9.187 125.532-26.662 3.576-3.117 6.27-6.604 8.008-10.367 4.115-8.915 2.296-18.129.371-27.882-1.33-6.745-2.708-13.72-2.18-20.975.962-13.86 9.667-27.25 18.087-40.2 3.535-5.436 7.19-11.059 10.097-16.501 5.095-9.443 7.091-17.199 6.282-24.408-1.305-11.62-8.272-21.057-14.419-29.384-7.712-10.448-14.372-19.471-9.308-30.235 1.423-3.026 3.27-5.62 5.81-8.165 7.686-7.7 22.16-13.548 38.887-19.856 26.192-9.863 47.87-18.176 68.609-27.848 10.815-5.045 18.796-9.543 25.12-14.156 10.341-7.535 14.303-14.559 11.778-20.88-1.872-4.678-7.559-8.275-11.674-10.573-13.825-7.718-33.611-12.829-52.746-17.772l-3.707-.959c-14.788-3.831-31.925-8.65-46.884-15.344-26.262-11.734-44.567-25.444-54.405-40.753-15.566-24.22-8.121-48.083-5.32-57.067 1.816-5.82 3.968-11.723 6.05-17.431 6.047-16.575 12.299-33.712 10.782-50.436-.298-3.29-.823-6.6-1.605-10.119-5.671-25.554-23.236-46.257-52.211-61.535-24.587-13.066-56.072-21.644-86.522-29.94-4.129-1.125-8.234-2.244-12.294-3.366-115.163-31.833-188.855-93.586-260.123-153.306-4.872-4.081-9.727-8.15-14.58-12.195-11.717-9.796-21.66-17.277-31.29-23.544-22.549-11.13-44.96-17.794-68.457-20.337-23.37-2.527-46.637-1.121-69.135.241-5.993.363-12.189.737-18.3 1.034-25.811 1.247-50.714-.057-74.795-1.318-25.645-1.34-49.873-2.61-74.082-.891-40.427 2.872-79.076 10.231-111.766 21.28-16.653 5.59-35.737 11.795-51.463 14.687-19.776 3.635-42.15 3.725-59.85.241-6.208-1.221-11.718-2.875-16.38-4.913-2.934-1.275-5.514-2.683-8.006-4.046-3.55-1.94-7.217-3.944-11.93-5.557-26.616-9.106-81.085-2.723-117.126 1.5-5.422.635-10.546 1.236-15.032 1.718-69.788 7.514-122.061 19.738-159.805 37.373-16.823 7.892-30.877 16.926-45.758 26.492-9.543 6.134-19.412 12.478-30.228 18.61-30.542 17.42-66.703 32.276-101.674 46.644-43.387 17.825-88.253 36.257-121.914 59.522-19.377 13.392-39.268 25.597-58.504 37.4-27.007 16.573-52.516 32.227-77.137 51.087-4.128 3.166-7.462 5.803-10.491 8.298-18.62 15.371-29.703 28.95-34.881 42.73-8.069 21.329-1.814 44.39 4.235 66.692.505 1.865 1.011 3.726 1.507 5.582 3.14 11.568 6.424 25.274 6.96 39.211.958 29.45-10.606 58.678-34.372 86.875-6.343 7.508-13.588 14.999-20.592 22.243-9.183 9.497-18.678 19.316-26.248 29.28l-.6-.126.6.127c-25.304 33.313-23.704 68.2 4.076 88.877 7.271 5.376 16.098 9.888 25.442 14.663 4.396 2.247 8.94 4.57 13.444 7.05 3.046 1.676 6.047 3.417 8.918 5.173 28.16 17.246 49.179 37.612 59.18 57.345 4.69 9.25 7.065 17.529 7.473 26.058.355 7.458-.663 15.426-1.65 23.13-1.183 9.254-2.407 18.823-1.4 28.027 1.32 11.874 8.08 28.098 32.772 37.94 14.599 5.82 33.788 8.38 57.049 7.615 8.299-.272 16.468-.675 24.368-1.065 22.772-1.123 44.284-2.184 66.727-.18 32.607 2.907 63.1 13.615 86.024 22.618 27.444 10.762 50.274 21.08 69.794 31.538 9.744 5.221 18.86 10.56 26.49 15.092 1.71 1.016 3.415 2.032 5.117 3.046 9.757 5.82 19.847 11.837 30.32 17.257 22.437 11.524 46.92 19.259 65.49 20.695 7.283.56 13.394.33 19.868.086 5.45-.205 11.05-.416 17.507-.131zm179.746 53.557c-29.47-1.303-55.8-11.399-82.255-22.632-29.608-12.663-58.226-24.385-82.883-28.693-3.214-.561-6.59-.986-10.041-1.26-8.4-.674-15.306-.409-21.981-.157-6.548.246-12.732.48-20.148-.093-18.83-1.456-43.58-9.262-66.207-20.882-10.507-5.439-20.614-11.466-30.387-17.293-1.7-1.015-3.403-2.03-5.112-3.045-7.621-4.526-16.724-9.857-26.445-15.066-19.474-10.435-42.255-20.728-69.646-31.471-22.806-8.958-53.131-19.609-85.466-22.493-22.278-1.986-43.706-.93-66.391.188-7.909.39-16.088.793-24.408 1.068-23.571.775-43.056-1.832-57.91-7.752-25.088-10-31.948-26.429-33.286-38.449-1.011-9.245.216-18.835 1.403-28.11 1.028-8.044 2-15.64 1.645-23.068-.405-8.473-2.764-16.703-7.427-25.898-9.955-19.636-30.876-39.906-58.91-57.075-2.857-1.747-5.841-3.479-8.874-5.147-4.486-2.47-9.022-4.79-13.41-7.03-9.388-4.8-18.254-9.331-25.595-14.76-28.03-20.862-29.686-56.003-4.223-89.527 7.592-9.994 17.101-19.828 26.297-29.339 6.997-7.235 14.233-14.717 20.563-22.21 23.688-28.104 35.214-57.234 34.259-86.583-.535-13.899-3.812-27.579-6.948-39.129-.495-1.855-1-3.715-1.507-5.58-6.064-22.36-12.335-45.48-4.223-66.923 5.212-13.866 16.353-27.519 35.061-42.965 3.037-2.502 6.379-5.145 10.516-8.317 24.66-18.891 50.19-34.558 77.222-51.144 19.222-11.797 39.102-23.994 58.454-37.37 33.764-23.335 78.697-41.794 122.15-59.648 34.929-14.349 71.047-29.189 101.52-46.57 10.789-6.115 20.645-12.45 30.177-18.578 14.913-9.586 29-18.641 45.897-26.569 37.921-17.717 90.392-29.993 160.41-37.531 4.474-.481 9.59-1.081 15.008-1.716 36.253-4.247 91.041-10.668 118.11-1.405 4.84 1.655 8.56 3.688 12.159 5.655 2.468 1.348 5.022 2.744 7.9 3.994 4.55 1.99 9.937 3.604 16.007 4.799 17.425 3.434 39.47 3.34 58.97-.246 15.596-2.868 34.602-9.049 51.193-14.618 32.847-11.101 71.677-18.496 112.29-21.381 24.36-1.731 48.66-.46 74.383.89 24.02 1.258 48.862 2.558 74.55 1.315 6.096-.295 12.284-.669 18.269-1.032 22.602-1.366 45.972-2.777 69.542-.23 23.739 2.568 46.357 9.287 69.145 20.54 9.723 6.322 19.693 13.825 31.44 23.643 4.851 4.047 9.707 8.116 14.58 12.197 71.175 59.644 144.775 121.317 259.629 153.064 4.058 1.122 8.159 2.24 12.286 3.365 30.538 8.32 62.116 16.924 86.846 30.065 29.184 15.388 46.874 36.227 52.58 61.938.784 3.536 1.31 6.862 1.61 10.167 1.526 16.804-4.742 33.984-10.8 50.597-2.082 5.704-4.233 11.602-6.047 17.414-2.787 8.937-10.193 32.677 5.268 56.736 9.763 15.188 27.937 28.798 54.016 40.45 14.852 6.645 31.901 11.439 46.62 15.252l3.704.958c19.237 4.97 39.133 10.109 53.116 17.918 4.224 2.358 10.062 6.054 12.001 10.9 2.606 6.519-1.43 13.726-11.994 21.424-6.381 4.654-14.425 9.187-25.311 14.266-20.785 9.695-42.494 18.019-68.716 27.892-16.59 6.257-30.94 12.05-38.494 19.619-2.49 2.494-4.3 5.039-5.697 8.01-4.966 10.554 1.626 19.483 9.256 29.824 6.182 8.372 13.19 17.864 14.507 29.59.817 7.289-1.193 15.117-6.331 24.636-2.915 5.46-6.576 11.09-10.116 16.537-8.39 12.9-17.065 26.243-18.02 40.003-.523 7.207.849 14.157 2.177 20.877 1.936 9.815 3.766 19.086-.403 28.116-1.768 3.83-4.51 7.384-8.158 10.558-20.305 17.695-61.723 26.524-126.623 26.994-3.947.03-7.917.05-11.9.07-23.863.117-48.54.24-72.348 2.705-31.096 3.218-57.704 10.036-79.085 20.265-24.365 11.612-42.362 29.095-49.377 47.97-1.08 2.907-2.043 5.898-2.972 8.792-2.371 7.38-4.823 15.012-9.498 21.994-4.706 7-11.39 12.92-17.834 18.384-7.614 6.469-14.811 12.058-22.001 17.091-22.441 15.739-59.776 35.761-110.192 41.776-11.098 1.343-22.645 1.96-35.305 1.886-21.565-.131-43.29-2.289-64.3-4.376l-4.824-.48c-62.049-6.116-134.53-11.693-201.655-6.675-54.958 4.107-114.218 15.958-186.493 37.298-1.378.407-2.754.817-4.127 1.225-12.99 3.87-26.424 7.868-41.462 9.19-6.48.57-12.796.683-18.97.41z" mask="url(#8caxwdy08b)"/>
                    <path fill="#E9F1FD" d="M646.725 307.782c8.59.38 17.725 1.755 27.344 4.123 19.033 4.686 35.373 12.125 45.73 17.542 2.802 1.462 5.603 2.95 8.417 4.444 23.14 12.292 47.067 25.003 78.829 27.122 37.669 2.514 65.614-11.03 95.22-25.364 14.215-6.883 28.912-14 44.767-19.168 38.01-12.382 84.28-13.391 129.028-14.367 14.176-.309 28.835-.628 42.986-1.307 9.891-.476 19.92-1.156 29.809-2.022 38.187-3.344 74.68-9.366 108.456-17.903 7.984-2.017 16.21-4.305 21.365-8.118 5.425-4.006 6.42-9.086 7.38-13.996.31-1.583.631-3.22 1.096-4.8 4.716-16.043 23.996-31.808 51.576-42.172 32.066-12.054 72.402-15.93 111.411-19.678 15.161-1.456 30.838-2.962 45.789-4.928 75.528-9.899 109.33-35.4 108.771-54.905-.158-7.084-4.02-13.994-7.754-20.677-4.385-7.85-8.921-15.967-7.52-24.44 1.946-11.782 15.182-22.585 27.98-33.033 1.213-.99 2.424-1.977 3.623-2.964 7.264-5.984 14.666-12.377 18.408-18.938 3.67-6.428 3.508-12.382-.493-18.2-4.89-7.11-15.372-13.442-32.999-19.93-7.229-2.661-15.053-5.17-22.617-7.593-18.467-5.917-35.906-11.508-45.453-19.191-5.714-4.566-8.017-9.38-7.034-14.713 1.695-9.246 13.965-16.217 27.478-23.131 9.668-4.947 19.654-9.97 29.309-14.825 9.687-4.874 19.705-9.912 29.42-14.883 19.218-9.832 36.547-20.694 33.25-33.488-3.342-13.225-27.552-21.854-48.91-29.466-59.533-21.216-76.439-37.857-83.976-48.529-5.813-8.228-8.544-17.296-8.352-27.72.17-9.756 2.84-19.75 5.424-29.413 4.228-15.81 8.597-32.156 2.043-47.763-1.683-4.007-4.096-8.042-7.172-11.993-17.75-22.786-57.103-40.105-95.164-56.853-15.14-6.665-30.798-13.555-44.874-20.694-28.203-14.303-48.52-28.196-62.111-42.473-7.035-7.344-12.715-15.152-18.209-22.705-4.763-6.547-9.688-13.317-15.502-19.804-6.802-7.577-14.4-14.353-21.75-20.904-2.142-1.911-4.25-3.792-6.293-5.65-2.632-2.396-5.164-4.774-7.74-7.2-12.245-4.97-24.554-8.985-36.115-12.67-43.22-13.783-85.33-22.687-121.787-25.75-30.664 2.26-62.259 8.993-91.372 19.475-7.595 2.733-15.162 5.764-22.49 9.009-9.866 4.368-34.652 14.853-51.693 17.88-13.394 2.38-28.652 2.398-42.96.057-10.09-1.642-24.028-5.028-33.13-11.836-2.506-1.888-4.48-3.908-6.387-5.859-2.856-2.924-5.554-5.684-9.843-7.965-3.226-1.716-6.857-2.903-10.79-3.532-21.453-3.434-48.2 1.233-71.538 6.248-17.441 3.748-33.826 7.895-46.151 11.089-59.59 15.444-116.325 31.449-155.509 57.31-11.848 7.807-21.928 16.356-31.676 24.625-11.704 9.929-23.806 20.194-38.967 29.14-5.207 3.075-11.015 6.134-17.264 9.089-25.526 12.067-56.64 21.73-86.734 31.073-13.346 4.144-27.146 8.43-40.127 12.83-36.051 12.228-76.15 28.188-100.205 53.864-11.18 11.9-17.735 25.102-24.073 37.87-7.719 15.548-15.7 31.626-32.095 45.392-6.412 5.382-14.126 10.406-21.587 15.264-9.303 6.058-18.923 12.322-26.014 19.294-16.038 15.76-18.675 34.206-21.226 52.044-1.4 9.795-2.849 19.922-6.47 29.603-9.448 25.298-33.941 48.05-57.629 70.052-9.997 9.286-20.334 18.887-29.396 28.547h.001C-12.19 5.102-21.856 22.784-23.464 38.39c-2.04 20.782 8.93 38.398 32.6 52.358 13.53 8.012 31.133 14.523 48.156 20.82 25.908 9.584 52.699 19.495 64.699 34.74 1.203 1.523 2.302 3.154 3.265 4.845 4.753 8.403 5.918 17.78 7.045 26.849 2.107 16.956 4.098 32.972 28.165 41.862 12.85 4.747 28.79 5.854 44.204 6.926l2.575.18c65.943 4.629 130.048 19.472 185.383 42.923 14.843 6.292 29.402 13.324 43.272 20.904 3.785 2.066 7.604 4.21 11.296 6.283 15.496 8.7 31.523 17.697 50.851 24.324 26.556 9.104 57.172 11.51 77.993 6.13 7.348-1.901 13.517-4.676 18.724-7.128.978-.46 1.95-.925 2.922-1.388 7.71-3.678 15.681-7.481 25.9-9.582 7.173-1.468 14.907-2.019 23.14-1.654zm163.302 54.084c-1.042-.046-2.087-.105-3.145-.175-32.204-2.147-56.29-14.943-79.585-27.318-2.81-1.492-5.61-2.98-8.409-4.44-48.706-25.471-82.546-22.373-94.832-19.86-9.996 2.056-17.88 5.816-25.502 9.453-.973.464-1.947.93-2.926 1.39-5.273 2.483-11.523 5.293-19.018 7.232-21.222 5.487-52.336 3.063-79.268-6.171-19.46-6.671-35.54-15.699-51.09-24.429-3.688-2.07-7.505-4.213-11.283-6.275-13.833-7.56-28.352-14.573-43.151-20.847-55.151-23.373-119.034-38.165-184.743-42.779l-2.574-.18c-15.57-1.082-31.67-2.201-44.777-7.043-24.577-9.078-26.587-25.252-28.716-42.377-1.121-9.03-2.283-18.37-6.993-26.698-.95-1.668-2.034-3.276-3.22-4.779-11.855-15.062-38.489-24.914-64.248-34.441-17.082-6.32-34.748-12.854-48.376-20.925-23.908-14.099-34.986-31.88-32.93-52.85C-23.14 22.655-13.43 4.88 3.322-13.048h.001c9.078-9.678 19.424-19.288 29.43-28.582 23.636-21.954 48.077-44.657 57.486-69.846 3.604-9.641 5.05-19.748 6.449-29.522 2.56-17.91 5.207-36.43 21.375-52.316 7.15-7.03 16.808-13.32 26.15-19.402 7.436-4.842 15.126-9.85 21.496-15.197 16.29-13.677 24.246-29.703 31.938-45.201 6.356-12.8 12.926-26.038 24.166-38.001 24.194-25.824 64.464-41.858 100.667-54.136 13-4.407 26.812-8.696 40.17-12.844 30.037-9.327 61.097-18.972 86.526-30.992 6.213-2.939 11.987-5.979 17.162-9.035 15.088-8.902 27.158-19.142 38.834-29.047 9.767-8.285 19.867-16.853 31.763-24.691 39.353-25.97 96.222-42.016 155.95-57.496 12.345-3.199 28.755-7.352 46.233-11.109 23.547-5.06 50.563-9.76 72.403-6.27 4.14.663 7.953 1.91 11.333 3.705 4.43 2.356 7.172 5.162 10.076 8.134 1.888 1.932 3.839 3.93 6.293 5.78 8.894 6.648 22.556 9.964 32.453 11.576 14.052 2.298 29.028 2.28 42.166-.052 11.678-2.074 30.846-8.713 51.272-17.757 7.361-3.259 14.964-6.304 22.593-9.049 29.309-10.551 61.13-17.328 92.02-19.602h.19c36.643 3.079 78.952 12.017 122.35 25.857 11.625 3.706 24.008 7.745 36.34 12.756l.17.103c2.597 2.445 5.146 4.84 7.795 7.252 2.041 1.858 4.147 3.736 6.29 5.646 7.362 6.565 14.977 13.354 21.803 20.96 5.835 6.51 10.77 13.292 15.542 19.851 5.481 7.536 11.15 15.328 18.158 22.642 13.523 14.207 33.755 28.04 61.85 42.287 14.041 7.123 29.683 14.006 44.808 20.662 38.18 16.802 77.658 34.177 95.53 57.119 3.105 3.987 5.54 8.059 7.239 12.105 6.605 15.727 2.218 32.137-2.024 48.007-2.578 9.642-5.244 19.612-5.414 29.322-.19 10.34 2.516 19.328 8.273 27.475 15.607 22.1 55.12 38.093 83.485 48.202 21.586 7.693 46.052 16.412 49.47 29.942 3.373 13.094-14.17 24.112-33.632 34.07-9.72 4.972-19.74 10.013-29.429 14.887-9.654 4.856-19.636 9.877-29.302 14.82-13.33 6.822-25.435 13.692-27.09 22.706-.95 5.172 1.282 9.84 6.828 14.272 9.387 7.555 26.706 13.105 45.043 18.982 7.583 2.43 15.423 4.943 22.687 7.617 17.854 6.573 28.49 13.01 33.474 20.257 4.102 5.963 4.27 12.058.517 18.631-3.79 6.646-11.247 13.084-18.558 19.11-1.2.988-2.413 1.976-3.625 2.966-12.714 10.378-25.86 21.108-27.778 32.722-1.38 8.344 3.12 16.397 7.472 24.187 3.757 6.726 7.646 13.683 7.81 20.86.37 13.023-11.587 25.418-34.58 35.844-19.768 8.964-46.468 15.973-75.18 19.735-14.988 1.97-30.686 3.479-45.867 4.937-38.868 3.735-79.061 7.597-110.894 19.563-27.3 10.26-46.382 25.856-51.045 41.719-.46 1.561-.777 3.19-1.085 4.765-.98 5-1.993 10.17-7.617 14.324-5.333 3.943-14.08 6.372-21.859 8.338-33.888 8.562-70.495 14.606-108.805 17.96-9.92.868-19.979 1.551-29.901 2.03-14.186.678-28.86.998-43.05 1.308-44.581.972-90.68 1.978-128.402 14.266-15.751 5.134-30.402 12.228-44.572 19.089-29.009 14.045-56.458 27.333-93.114 25.713z" mask="url(#8caxwdy08b)"/>
                    <path fill="#E9F1FD" d="M575.57 217.465c26.48 1.17 52.84 6.16 81.654 15.251 7.543 2.383 15.489 5.16 25.008 8.737 17.43 6.569 37.185 14.014 57.61 19.72 36.452 10.18 66.226 12.615 93.704 7.665 26.04-4.692 46.223-15.786 65.739-26.515 14.366-7.896 29.222-16.061 46.545-21.859 17.294-5.793 36.057-9.205 54.201-12.505 2.853-.52 5.692-1.035 8.508-1.557 46.572-8.644 88.957-19.051 129.577-31.818 57.582-18.21 114.432-41.37 168.968-68.833 17.923-9.03 34.891-18.193 50.431-27.236 6.955-4.05 13.473-8.071 16.791-12.717 9.065-12.822-9.932-23.917-18.522-28.09-3.085-1.5-6.388-2.974-9.582-4.4-5.025-2.244-10.219-4.564-14.82-7.082-6.971-3.802-11.445-7.44-14.082-11.45-8.985-13.66 4.224-28.558 18.207-44.331 13.04-14.709 26.524-29.92 20.673-44.163-5.019-12.215-23.196-21.083-40.775-29.66-16.192-7.899-32.939-16.069-38.771-26.734-1.639-2.999-2.366-6.143-2.159-9.346.324-5.221 3.063-10.574 8.623-16.846 3.96-4.478 8.893-8.89 13.665-13.157 7.032-6.288 14.306-12.793 18.358-19.474 2.607-4.297 3.934-8.707 3.947-13.107.007-13.53-12.019-27.523-35.745-41.59-4.372-2.593-8.925-5.161-13.748-7.881-22.24-12.544-45.233-25.514-50.935-41.066-.537-1.466-.95-2.923-1.227-4.33-.889-4.455-.555-8.865-.23-13.13.436-5.73.848-11.145-1.729-16.056-1.875-3.577-5.106-6.491-9.876-8.91-8.562-4.341-22.29-6.732-41.976-7.287-8.015-.23-15.728-.123-22.926.32-6.278.386-12.446.938-18.41 1.472-14.962 1.338-29.091 2.6-44.05 1.333-12.368-1.049-24.25-3.731-36.326-8.2-24.127-8.927-47.758-23.223-70.244-42.495-16.356 9.597-34.89 20.392-57.863 27.017-29.452 8.493-56.142 6.302-68.477.673-4.36-2.005-7.55-4.5-10.637-6.915-2.634-2.062-5.358-4.195-8.754-5.946-1.849-.96-3.984-1.779-6.352-2.432-14.199-3.928-35.971-2.082-51.767 4.387-17.403 7.129-17.735 11.855-18.194 18.394-.085 1.22-.173 2.482-.374 3.84-.363 2.342-.997 4.399-1.995 6.474-7.46 15.528-22.666 30.534-42.813 42.254-13.014 7.57-26.575 13.66-41.46 18.617-9.28 3.09-19.395 6.052-30.065 8.8-16.26 4.193-33.203 8.033-49.587 11.747-18.536 4.201-37.705 8.546-55.976 13.419-6.609 1.763-13.667 3.766-22.212 6.303-33.67 9.987-54.781 20.18-66.441 32.078-9.418 9.612-12.156 19.796-15.053 30.58-2.356 8.764-4.79 17.827-11.053 26.954-12.333 17.959-36.318 33.117-59.516 47.776-3.874 2.448-7.742 4.893-11.552 7.345-4.482 2.893-9.316 6.081-14.781 9.746-26.319 17.651-56.653 38.943-82.08 63.027-23.828 22.616-44.95 49.965-64.573 83.61l-.62-.1.62.1c-7.474 12.814-15.944 27.337-9.471 40.352 10.263 20.717 50.658 28.697 89.726 36.414 18.196 3.595 37.015 7.312 52.78 12.278 12.155 3.83 21.3 8.05 27.955 12.904 5 3.62 9.196 7.992 12.828 13.361 3.576 5.286 6.275 10.992 8.883 16.511 7.406 15.664 14.402 30.46 39.951 37.104 28.172 7.326 59.794 2.374 93.276-2.869 6.876-1.077 13.986-2.19 21.002-3.178 5.812-.813 10.611-1.414 15.11-1.89 14.787-1.557 29.143-2.04 43.46-1.408zm221.603 54.355c-17.65-.78-36.675-4.104-57.94-10.042-20.5-5.727-40.29-13.187-57.753-19.769-9.49-3.565-17.409-6.331-24.922-8.706-44.099-13.915-82.401-18.157-124.192-13.76-4.471.474-9.248 1.072-15.033 1.881-6.996.985-14.098 2.097-20.966 3.172-33.727 5.284-65.589 10.276-94.217 2.828-26.088-6.785-33.153-21.73-40.636-37.552-2.6-5.503-5.29-11.193-8.844-16.446-3.59-5.308-7.73-9.623-12.659-13.19-6.55-4.778-15.568-8.938-27.57-12.718-15.665-4.935-34.426-8.642-52.57-12.226-39.376-7.778-80.092-15.821-90.526-36.88-6.565-13.204 1.963-27.826 9.488-40.726 19.65-33.692 40.805-61.085 64.677-83.742 25.472-24.126 55.844-45.445 82.197-63.119 5.467-3.667 10.307-6.858 14.795-9.755 3.812-2.455 7.683-4.902 11.56-7.351 23.126-14.613 47.038-29.724 59.293-47.57 6.217-9.06 8.642-18.088 10.988-26.817 2.913-10.843 5.665-21.083 15.185-30.799 11.781-12.021 33.057-22.304 66.957-32.36 8.561-2.542 15.636-4.549 22.262-6.317 18.307-4.882 37.495-9.231 56.05-13.437 16.37-3.71 33.297-7.548 49.53-11.732 10.627-2.738 20.7-5.687 29.941-8.765 14.785-4.923 28.26-10.974 41.192-18.497 20.006-11.638 35.105-26.542 42.517-41.964.98-2.038 1.602-4.058 1.959-6.358.199-1.344.286-2.598.373-3.813.47-6.725.81-11.584 18.693-18.908 16.176-6.625 38.536-8.497 53.163-4.454 2.48.686 4.72 1.544 6.659 2.551 3.486 1.799 6.25 3.961 8.921 6.052 3.039 2.377 6.18 4.836 10.412 6.78 12.005 5.48 38.095 7.58 67.004-.756 23.051-6.648 41.673-17.575 58.102-27.215l.58-.34.454.39c22.529 19.39 46.193 33.751 70.337 42.684 11.91 4.407 23.619 7.052 35.789 8.084 14.74 1.249 28.772-.004 43.626-1.333 5.98-.535 12.166-1.089 18.476-1.477 7.272-.447 15.059-.556 23.148-.324 20.017.578 34.008 3.018 42.803 7.477 4.943 2.507 8.289 5.523 10.228 9.22 2.63 5.016 2.214 10.481 1.775 16.268-.323 4.24-.656 8.624.224 13.03.272 1.388.678 2.826 1.21 4.272 5.63 15.358 28.496 28.256 50.608 40.729 4.827 2.722 9.388 5.294 13.77 7.893 23.944 14.196 36.08 28.343 36.073 42.046-.013 4.47-1.363 8.95-4.009 13.314-4.097 6.756-11.407 13.292-18.477 19.614-4.755 4.253-9.673 8.65-13.605 13.099-5.482 6.185-8.185 11.453-8.503 16.58-.202 3.13.507 6.203 2.11 9.133 5.732 10.482 21.603 18.224 38.406 26.421 17.726 8.649 36.056 17.59 41.16 30.017 5.944 14.47-7.634 29.786-20.764 44.597-13.87 15.645-26.97 30.42-18.16 43.818 2.574 3.912 6.956 7.47 13.793 11.199 4.557 2.494 9.724 4.802 14.722 7.034 3.207 1.432 6.52 2.911 9.625 4.42 8.782 4.268 28.198 15.621 18.857 28.834-3.398 4.758-10.002 8.834-17.044 12.936-15.56 9.055-32.55 18.23-50.497 27.272-54.605 27.498-111.532 50.687-169.198 68.924-40.695 12.79-83.156 23.217-129.812 31.875-2.818.523-5.658 1.04-8.513 1.56-18.076 3.287-36.765 6.686-53.929 12.436-17.193 5.753-31.994 13.888-46.305 21.755-19.625 10.788-39.916 21.942-66.256 26.688-11.75 2.118-23.903 2.905-36.792 2.335z" mask="url(#8caxwdy08b)"/>
                    <path fill="#E9F1FD" d="M740.684 125.45c29.92 1.322 57.722 12.256 83.356 23.928 2.791 1.27 5.582 2.565 8.385 3.863 22.139 10.264 45.001 20.882 72.4 22.03 5.51.233 10.84-.48 16.482-1.236l.893-.12c30.686-4.087 64.75-13.24 68.328-26.664 1.436-5.392-2.443-10.338-6.55-15.576-2.186-2.788-4.447-5.671-5.81-8.613-5.867-12.485 1.334-26.647 18.348-36.077 11.16-6.174 25.734-10.206 39.83-14.105 6.602-1.827 13.43-3.716 19.793-5.795 24.514-8.025 37.744-19.282 35.391-30.113-2.698-12.43-21.875-19.568-42.177-27.127-17.044-6.345-34.669-12.906-42.716-22.991-5.9-7.383-6.032-16.623-.37-26.02 8.555-14.082 26.666-25.053 44.178-35.665 2.45-1.484 4.892-2.963 7.298-4.445 33.84-20.775 39.165-33.32 39.912-42.852.754-9.744-7.384-20.731-20.73-27.991-6.904-3.755-18.278-8.22-33.222-8.136-13.678.082-25.464 3.776-36.863 7.348-3.06.959-6.223 1.95-9.369 2.855-9.285 2.656-32.791 8.053-50.533.824-15.826-6.454-15.313-16.758-14.77-27.667.455-9.137.926-18.586-8.902-25.755-13.963-10.157-41.183-11.392-80.902-3.667-36.129 7.025-69.845 14.623-85.372 30.227-4.226 4.234-6.92 8.904-9.527 13.419-2.774 4.805-5.641 9.772-10.376 14.315-9.63 9.31-31.665 16.013-49.115 11.154-5.553-1.547-9.79-3.957-13.889-6.286-2.91-1.654-5.92-3.365-9.371-4.748-3.078-1.232-6.192-2.258-9.256-3.05-20.405-5.266-32.302 3.912-43.807 12.786-6.336 4.887-12.32 9.503-19.43 11.354-13.01 3.387-26.324 4.227-39.201 5.04-22.937 1.446-44.602 2.814-60.383 18.635-7.864 7.883-11.16 16.96-14.35 25.737-3.61 9.937-7.344 20.212-17.705 28.886-12.56 10.516-33.07 17.181-52.903 23.628-10.713 3.481-21.792 7.083-31.528 11.255-34.087 14.622-51.61 37.256-45.735 59.067 5.657 20.99 36.094 40.18 74.018 46.665 6.158 1.05 12.45 1.749 18.7 2.08 4.01.211 8.113.289 12.083.363 8.175.156 16.627.315 24.778 1.648 19.546 3.208 33.517 12.116 47.028 20.732l2.199 1.4c18.67 11.867 56.38 31.658 99.16 30.85 22.831-.475 42.365-6.676 61.254-12.672 11.259-3.574 22.903-7.27 35.167-9.74 11.669-2.35 22.694-3.35 33.71-3.058.723.021 1.45.048 2.171.08zm163.795 50.492c-27.691-1.222-50.676-11.879-72.91-22.186-2.8-1.298-5.588-2.591-8.376-3.86-26.078-11.874-54.38-23.014-84.748-23.842-10.828-.288-21.682.698-33.18 3.014-12.157 2.448-23.75 6.128-34.96 9.687-19.03 6.04-38.707 12.285-61.873 12.769-2.95.055-5.882.015-8.777-.114-39.657-1.75-73.89-19.834-91.432-30.983l-2.2-1.402c-13.389-8.537-27.236-17.367-46.412-20.514-7.987-1.305-16.351-1.466-24.44-1.617-3.99-.075-8.118-.153-12.167-.367-6.34-.335-12.722-1.045-18.97-2.109-38.378-6.563-69.177-25.98-74.9-47.22-5.941-22.047 11.761-44.92 46.198-59.694 9.803-4.2 20.918-7.814 31.665-11.307 19.708-6.406 40.088-13.029 52.488-23.41 10.23-8.564 13.94-18.775 17.529-28.65 3.207-8.826 6.523-17.953 14.475-25.927 16.097-16.139 38.09-17.526 61.377-18.996 12.769-.805 25.97-1.638 38.78-4.974 6.806-1.771 12.698-6.315 18.934-11.126 11.266-8.69 24.037-18.537 45.448-13.013 3.14.81 6.326 1.86 9.47 3.12 3.541 1.416 6.589 3.15 9.537 4.826 4.024 2.288 8.185 4.653 13.545 6.146 16.777 4.672 38.037-1.852 47.37-10.878 4.674-4.481 7.52-9.415 10.274-14.185 2.623-4.546 5.336-9.246 9.62-13.538 15.74-15.82 49.695-23.478 86.072-30.552l.223.322-.223-.322c40.33-7.842 68.052-6.528 82.4 3.908 10.087 7.358 9.61 16.925 9.149 26.175-.535 10.73-1.04 20.866 14.267 27.107 17.138 6.984 40.06 1.71 49.118-.883 3.126-.898 6.278-1.886 9.327-2.841 11.546-3.62 23.483-7.36 37.513-7.445 12.194-.064 24.013 2.82 34.165 8.344 13.583 7.388 21.864 18.573 21.096 28.495-1.347 17.197-21.089 31.523-40.222 43.269-2.41 1.483-4.853 2.964-7.305 4.45-17.426 10.558-35.447 21.476-43.921 35.423-5.568 9.24-5.451 18.314.33 25.546 7.903 9.906 25.374 16.409 42.27 22.699 20.545 7.649 39.95 14.872 42.717 27.607 2.41 11.101-11.047 22.604-35.996 30.772-6.405 2.093-13.253 3.987-19.876 5.82-14.002 3.873-28.481 7.878-39.493 13.971-16.715 9.265-23.791 23.176-18.028 35.442 1.339 2.892 3.582 5.75 5.75 8.515 3.992 5.091 8.12 10.356 6.635 15.932-3.666 13.76-38.2 23.09-69.294 27.233l-.892.12c-5.75.768-11.182 1.495-16.904 1.254l-.243-.01z" mask="url(#8caxwdy08b)"/>
                    <path fill="#E9F1FD" d="M810.177-132.972c-16.428-.728-30.9-.29-43.144 1.309-8.154 1.054-15.755 2.476-23.802 3.982l-3.735.697c-7.817 1.454-19.473 3.426-30.392 3.78-3.36.106-6.582.138-9.7.17-2.223.021-4.445.043-6.729.091-1.754.037-3.512.112-5.214.184l-.605.026c-9.955.418-19.052 2.508-27.85 4.53-5.005 1.15-10.182 2.34-15.382 3.181-6.71 1.085-13.536 1.912-20.138 2.71-13.63 1.651-26.504 3.21-38.737 6.866-7.104 2.122-13.313 4.672-19.886 7.372-3.862 1.586-7.858 3.225-12.171 4.83-4.05 1.507-8.368 2.95-12.544 4.347-7.63 2.55-15.52 5.188-22.025 8.293-12.998 6.222-20.037 14.357-19.822 22.907.376 14.922 24.356 26.458 46.67 32.279 3.667.954 7.514 1.852 11.76 2.747 2.857.601 5.784 1.18 8.615 1.737 4.746.936 9.652 1.904 14.417 3.023 14.083 3.317 26.22 7.669 36.072 12.936 7.568 4.046 14.39 8.444 20.986 12.697 4.865 3.137 9.46 6.1 14.09 8.754 10.594 6.074 19.613 10.366 31.131 14.813 3.401 1.313 7.324 2.63 12.17 4.201 12.131 3.936 26.187 8.33 39.472 10.645 19.312 3.367 32.263 2.836 39.587-1.622 2.61-1.59 4.948-3.328 7.21-5.01 1.508-1.12 3.065-2.279 4.71-3.4 14.27-9.671 38.076-13.128 61.098-16.47 8.878-1.29 17.263-2.507 25.064-4.06 4.405-.877 7.892-2.156 11.583-3.51 1.068-.393 2.155-.792 3.284-1.188 1.836-.645 3.766-1.332 5.776-2.047 5.831-2.076 12.441-4.428 19.339-6.672 1.293-.42 2.59-.835 3.884-1.248 7.56-2.423 15.377-4.926 21.8-7.956 8.735-4.138 14.024-8.96 15.296-13.945 1.5-5.892-1.612-10.91-4.907-16.222-1.54-2.48-3.132-5.045-4.343-7.822-1.222-2.77-2.052-5.904-2.612-9.86-.382-2.689-.605-5.28-.822-7.783-.274-3.171-.533-6.166-1.08-9.175-.872-4.796-2.374-10.5-6.906-16.439-4.694-6.117-13.02-11.787-21.724-14.793-4.421-1.526-8.563-2.442-12.948-3.412l-2.334-.52c-5.161-1.158-11.012-2.47-16.32-4.76-5.511-2.38-9.35-5.109-13.062-7.748-3.788-2.693-7.367-5.237-12.524-7.362-9.173-3.78-21.392-4.688-30.316-5.352-4.192-.311-8.273-.555-12.24-.73zm-58.79 181.885c-5.306-.236-11.33-.945-18.11-2.127-13.415-2.338-27.549-6.755-39.743-10.711-4.872-1.581-8.82-2.904-12.257-4.232-11.59-4.475-20.663-8.794-31.32-14.902-4.654-2.669-9.26-5.64-14.138-8.784-6.578-4.24-13.38-8.626-20.905-12.65-9.74-5.206-21.742-9.51-35.676-12.792-4.73-1.11-9.617-2.074-14.345-3.006-2.836-.56-5.771-1.138-8.64-1.742-4.28-.902-8.156-1.808-11.853-2.77-22.662-5.91-47.01-17.653-47.395-32.885-.22-8.749 6.971-17.068 20.25-23.425 6.587-3.144 14.524-5.798 22.2-8.365 4.163-1.39 8.467-2.83 12.49-4.327 4.29-1.595 8.273-3.23 12.123-4.811 6.613-2.715 12.857-5.28 20.043-7.427 12.397-3.705 25.966-5.347 39.086-6.936 6.578-.797 13.382-1.62 20.048-2.698 5.13-.83 10.272-2.012 15.246-3.155 8.894-2.044 18.092-4.158 28.263-4.585l.605-.026c1.713-.072 3.485-.147 5.265-.185 2.29-.05 4.524-.07 6.758-.093 3.102-.03 6.31-.06 9.642-.168 10.759-.347 22.298-2.302 30.041-3.74l3.734-.698c8.08-1.512 15.71-2.94 23.926-4.003 15.36-2.006 34.16-2.208 55.872-.59 9.068.674 21.487 1.598 30.933 5.49 5.296 2.182 8.925 4.762 12.769 7.494 3.663 2.606 7.452 5.299 12.84 7.626 5.163 2.227 10.923 3.52 16.005 4.66l2.329.518c4.247.94 8.637 1.91 13.156 3.47 8.917 3.08 17.43 8.869 22.217 15.111 4.594 6.02 6.115 11.786 6.995 16.632.55 3.024.81 6.027 1.086 9.207.216 2.5.439 5.085.819 7.764.554 3.92 1.375 7.02 2.582 9.756 1.198 2.747 2.78 5.297 4.312 7.763 3.342 5.39 6.5 10.48 4.958 16.527-1.314 5.15-6.747 10.117-15.716 14.364-6.512 3.073-14.381 5.594-21.992 8.032-1.293.414-2.587.828-3.877 1.247-6.875 2.236-13.473 4.583-19.294 6.655-2.011.716-3.944 1.404-5.781 2.05-1.122.394-2.2.79-3.264 1.18-3.758 1.379-7.308 2.683-11.864 3.589-7.857 1.563-16.271 2.785-25.178 4.078-22.818 3.314-46.413 6.74-60.418 16.23-1.627 1.11-3.178 2.263-4.676 3.377-2.28 1.696-4.638 3.449-7.288 5.063-5.076 3.09-12.626 4.403-22.864 3.95z" mask="url(#8caxwdy08b)"/>
                </g>
            </g>
        </g>
    </g>
</svg>
