<svg xmlns="http://www.w3.org/2000/svg" xmlns:xlink="http://www.w3.org/1999/xlink" width="453" height="315" viewBox="0 0 453 315">
    <defs>
        <path id="lihzi970ka" d="M2.215.108L.223 5.868c-.301.869 0 1.859.777 2.35.389.246.922.473 1.649.638 1.026.233 2.086-.24 2.579-1.17l2.384-4.488L2.215.108"/>
        <path id="0muicl5aad" d="M11.123 7.868C5.807 6.336 1.853 2.228.071.074c.391 1.144 1.29 2.617 3.212 4.344 4.766 4.284 13.868 5.829 15.806 5.53 1.553-.238 1.407-1.671.382-3.232-1.704 1.228-4.438 2.278-8.348 1.152"/>
        <path id="hgoa2ss5we" d="M.001 2.202c.031.74 1.54 3.272 2.422 4.692.419.676 1.154 1.087 1.948 1.09.504.002 1.083-.043 1.61-.193.79-.227 1.233-1.068 1.002-1.858L5.26.05 0 2.202"/>
        <path id="qa4p07oymh" d="M18.621 1.205c-3.472-2.416-7.406 0-7.406 0C6.572 4.242 3.136 5.533.602 5.687c-.6 2.124-.81 4.806.216 7.795C6.02 12.365 9.74 8.6 11.358 6.668c.583-.696 1.613-.816 2.326-.255.722.572 1.425 1.354 1.297 2.176-.252 1.624 1.631 2.14 1.774 1.551.142-.59-.644-4.078-.644-4.078s3.766 3.787 5.236 5.243c1.47 1.455 3.32 0 3.32 0s-2.572-7.685-6.046-10.1"/>
        <path id="lcmcsddh0k" d="M7.33.03L.657 8.122c-.663.804-.81 1.921-.35 2.856.926 1.89 3.124 4.641 8 4.26 1.448-.111 2.733-.986 3.366-2.297l4.666-9.647L7.33.03"/>
        <path id="h7nfidtw8n" d="M.541 21.514c-.17 0-.323-.115-.365-.287C-1.434 14.673 14 .747 14.658.157c.155-.139.393-.126.532.03.14.155.126.393-.029.531C15.004.86-.595 14.93.907 21.048c.05.201-.074.406-.276.455-.03.008-.06.01-.09.01"/>
        <path id="ojwkmykogq" d="M34.499.336S15.597 7.673 10.984 2.155c-.313-.376-.517-.801-.632-1.267-3.1 1.54-7.518 4.961-10.29 12.422 9.94 6.353 26.933-3.534 31.527-6.449.756-.478 1.663-.646 2.54-.464 1.771.366 4.833.907 6.484.652 2.415-.371 5.884 8.148 9.798 5.52 0 0-3.351-14.809-15.912-12.233"/>
        <path id="5ak4h1z4tt" d="M12.613 2.006c.067.26-1.564 17.947-1.564 17.947L.97 18.808.025 1.814s11.463-4.162 12.588.192"/>
        <path id="2tptoxkvow" d="M4.66 6.772s1.255-5.273-.743-6.31C1.92-.577-.766.371.244 3.98 1.5 8.47 4.66 6.772 4.66 6.772"/>
        <path id="fv7xdoui2z" d="M12.652 96.475c.208.335.606.5.99.412l10.962-2.519c3.724 3.705 8.065 6.844 12.915 9.23l1.173 11.18c.04.392.326.715.71.803l13.144 3.044c.384.09.783-.076.991-.41l5.967-9.526c5.406-.014 10.684-.924 15.656-2.615l8.74 7.08c.307.247.737.274 1.072.065l11.445-7.142c.334-.209.5-.607.411-.99L94.31 94.125c3.704-3.724 6.843-8.066 9.23-12.915l11.179-1.173c.392-.041.715-.327.805-.71l3.042-13.145c.09-.383-.076-.782-.41-.991l-9.526-5.967c-.014-5.405-.924-10.683-2.615-15.656l7.08-8.74c.248-.307.274-.737.066-1.071l-7.143-11.445c-.209-.335-.606-.5-.99-.412L94.066 24.42c-3.724-3.705-8.065-6.843-12.915-9.23l-1.173-11.18c-.04-.391-.326-.715-.71-.804L66.123.162c-.383-.09-.78.076-.99.41l-5.968 9.526c-5.405.014-10.683.924-15.656 2.615l-8.74-7.08c-.307-.247-.736-.274-1.071-.065L22.253 12.71c-.335.208-.5.606-.412.99l2.519 10.961c-3.706 3.724-6.843 8.066-9.23 12.915L3.95 38.751c-.391.04-.715.326-.803.71L.104 52.604c-.09.384.075.781.41.991l9.525 5.967c.014 5.405.924 10.683 2.616 15.656l-7.08 8.74c-.248.307-.275.737-.066 1.071l7.143 11.445"/>
        <path id="hewolgni9B" d="M67.469 59.545c.168-.182.203-.45.085-.668l-3.336-6.219c1.628-2.867 2.81-6.013 3.454-9.342l6.571-2.558c.231-.09.38-.316.37-.563l-.33-8.458c-.01-.248-.175-.462-.412-.534l-6.752-2.037c-.902-3.269-2.326-6.314-4.17-9.044l2.841-6.46c.1-.228.044-.492-.137-.66l-6.215-5.747c-.182-.168-.45-.203-.667-.086l-6.22 3.337c-2.866-1.627-6.012-2.809-9.343-3.453L40.65.48c-.09-.23-.315-.38-.562-.37l-8.46.331c-.246.01-.46.175-.531.412L29.06 7.605c-3.27.901-6.314 2.325-9.046 4.17l-6.46-2.84c-.226-.1-.49-.045-.659.137l-5.747 6.215c-.169.18-.203.449-.085.667l3.336 6.22c-1.628 2.865-2.81 6.01-3.454 9.341L.372 34.073c-.23.09-.378.315-.368.563l.33 8.459c.009.246.176.46.412.532l6.752 2.037c.902 3.27 2.324 6.315 4.171 9.045l-2.842 6.46c-.1.227-.043.491.137.66l6.215 5.748c.182.168.45.201.668.085l6.22-3.336c2.866 1.627 6.011 2.808 9.342 3.452l2.556 6.573c.09.231.317.378.565.37l8.457-.33c.248-.01.462-.176.533-.412l2.037-6.752c3.27-.903 6.314-2.326 9.046-4.171l6.46 2.84c.226.1.49.045.659-.137l5.747-6.214"/>
        <path id="0saxuhrk5D" d="M4.05 30.498c.066.106.19.158.312.13l3.461-.795c1.175 1.169 2.545 2.16 4.077 2.913l.37 3.53c.012.123.103.225.224.253l4.15.96c.121.028.246-.024.313-.129l1.883-3.007c1.706-.004 3.372-.291 4.942-.826l2.76 2.236c.096.078.232.087.337.021l3.613-2.255c.106-.066.158-.192.13-.313l-.795-3.46c1.169-1.176 2.16-2.546 2.913-4.077l3.53-.37c.123-.014.225-.103.253-.225l.96-4.148c.029-.122-.023-.248-.128-.314l-3.007-1.883c-.005-1.707-.292-3.373-.826-4.942l2.235-2.76c.077-.096.086-.232.02-.337l-2.254-3.613c-.066-.107-.192-.158-.314-.13l-3.459.795c-1.176-1.17-2.547-2.16-4.077-2.914l-.37-3.529c-.013-.123-.103-.225-.225-.253L20.93.096c-.122-.029-.248.023-.314.128l-1.883 3.007c-1.706.004-3.372.291-4.943.826l-2.758-2.236c-.097-.078-.232-.086-.339-.02L7.081 4.057c-.106.066-.158.192-.13.312l.795 3.46c-1.17 1.177-2.16 2.546-2.915 4.078l-3.528.37c-.124.013-.225.103-.253.225l-.962 4.148c-.028.122.024.248.13.313l3.008 1.883c.004 1.707.29 3.373.824 4.942l-2.234 2.76c-.079.096-.087.232-.021.339l2.255 3.612"/>
        <path id="w81cets3mF" d="M.15 11.57l4.552 4.36c6.463-.604 11.444-2.557 15.269-5.034-2.303-5.562-4.64-8.86-6.477-10.792C7.478 8.324.15 11.57.15 11.57"/>
        <path id="iiut0ommoH" d="M4.146 4.603c.09 0 .184-.034.253-.104.142-.138.146-.367.006-.51L.714.212C.574.07.344.068.201.208.06.348.056.578.196.72l3.69 3.775c.072.074.167.109.26.109"/>
        <path id="ehgklzf9eK" d="M10.091.135s1.691 10.134 2.194 14.82c.083.762-.314 1.482-.991 1.833-1.848.956-5.793 2.495-10.091 1.082-.708-.233-1.172-.92-1.155-1.669L.342 2.673l9.75-2.538"/>
        <path id="kbafun1sbM" d="M3.755.047S.444 7.574.22 11.527c-.222 3.95-1.082 6.514 3.535 7.31 4.616.797 8.507-1.479 10.614-5.416 0 0 3.301-6.064 2.56-8.55C16.19 2.387 3.755.047 3.755.047"/>
        <path id="hwwxe8autO" d="M142.789 42.854c-.853 3.421-6.143 5.015-11.818 3.56-5.673-1.456-9.583-5.41-8.73-8.83.851-3.421 6.143-5.015 11.816-3.56 5.675 1.456 9.585 5.408 8.732 8.83zm-7.717-15.152L3.442.008.116 13.365l128.789 39.102c.287.087.576.168.866.243l4.393 1.126c7.537 1.934 14.688-.68 15.972-5.837l1.527-6.13c1.285-5.157-3.784-10.903-11.321-12.837l-4.391-1.126c-.29-.076-.584-.142-.878-.204z"/>
        <path id="85dde49kiR" d="M12.658 14.474l25.634 6.523c1.826.465 3.332 1.756 4.08 3.495l3.837 8.914c1.095 2.546.35 5.513-1.816 7.228l-7.582 6.011c-1.479 1.171-3.415 1.587-5.24 1.123L5.937 41.244C2.07 40.26-1.215 44.323.61 47.893c4.367 8.54 12.381 15.294 22.58 17.89 18.435 4.69 34.749-6.554 39.23-24.405 4.482-17.852-4.566-35.551-23-40.244C29.22-1.46 18.984.65 11.11 6.074c-3.293 2.269-2.319 7.416 1.547 8.4"/>
        <path id="5hs4lxrkeU" d="M12.712 14.567l25.633 6.524c1.826.464 3.332 1.755 4.08 3.494l3.837 8.916c1.095 2.544.35 5.511-1.815 7.227l-7.583 6.01c-1.479 1.172-3.415 1.588-5.24 1.123L5.99 41.338c-3.866-.984-7.151 3.079-5.326 6.648 4.367 8.54 12.381 15.294 22.579 17.89 18.436 4.691 34.75-6.553 39.231-24.405 4.482-17.853-4.566-35.55-23-40.243-10.2-2.595-20.437-.485-28.31 4.94-3.292 2.268-2.318 7.415 1.548 8.4"/>
        <path id="m4pnntkq8W" d="M142.8 42.958c-.853 3.42-6.143 5.013-11.817 3.558-5.675-1.454-9.585-5.408-8.732-8.83.853-3.421 6.143-5.015 11.818-3.558 5.675 1.454 9.583 5.408 8.731 8.83zm-7.717-15.154L3.453.11.125 13.467l128.789 39.102c.287.087.577.17.868.243l4.39 1.127c7.538 1.933 14.689-.68 15.974-5.837l1.526-6.13c1.285-5.158-3.783-10.904-11.32-12.838l-4.393-1.126c-.29-.074-.582-.142-.876-.204z"/>
        <path id="kastogslfY" d="M2.694 6.205c-.82-.22-1.483-.783-1.829-1.531C.195 3.222-.559.896 1.052.189c2.4-1.056 6.764 3.27 6.764 3.27L9.95 6.8l1.949.918c-1.787.476-5.23-.316-9.204-1.513"/>
        <path id="fbtpxim33aa" d="M5.604.09H.022S4.55 2.629 4.7 5.298c.151 2.67-1.796 8.2-2.708 9.705C.996 16.65 14.628 12.552 9.815.09H5.604"/>
        <linearGradient id="49l6r5jn9b" x1=".001%" x2="99.994%" y1="50.009%" y2="50.009%">
            <stop offset="0%" stop-color="#FDBAB9"/>
            <stop offset="100%" stop-color="#FF928E"/>
        </linearGradient>
        <linearGradient id="cg8xubsu2f" x1="0%" x2="99.992%" y1="50%" y2="50%">
            <stop offset="0%" stop-color="#FDBAB9"/>
            <stop offset="100%" stop-color="#FF928E"/>
        </linearGradient>
        <linearGradient id="utf1l68xii" x1=".002%" x2="100.001%" y1="50.001%" y2="50.001%">
            <stop offset="0%" stop-color="#FDBAB9"/>
            <stop offset="100%" stop-color="#FF928E"/>
        </linearGradient>
        <linearGradient id="2ihzsyv91l" x1="0%" x2="100.003%" y1="50.002%" y2="50.002%">
            <stop offset="0%" stop-color="#FDBAB9"/>
            <stop offset="100%" stop-color="#FF928E"/>
        </linearGradient>
        <linearGradient id="flqyvhwhgo" x1="79.948%" x2="30.497%" y1="-501.071%" y2="404.562%">
            <stop offset="0%" stop-color="#E0463C"/>
            <stop offset="100%" stop-color="#E95F5A"/>
        </linearGradient>
        <linearGradient id="5eblpm5g4r" x1="57.963%" x2="-65.975%" y1="48.694%" y2="114.415%">
            <stop offset="0%" stop-color="#FDBAB9"/>
            <stop offset="100%" stop-color="#FF928E"/>
        </linearGradient>
        <linearGradient id="ok88c515nu" x1="57.767%" x2="16.594%" y1="15.555%" y2="172.047%">
            <stop offset="0%" stop-color="#FDBAB9"/>
            <stop offset="100%" stop-color="#FF928E"/>
        </linearGradient>
        <linearGradient id="0kb57todwx" x1="-63.868%" x2="54.764%" y1="332.488%" y2="43.046%">
            <stop offset="0%" stop-color="#FDBAB9"/>
            <stop offset="100%" stop-color="#FF928E"/>
        </linearGradient>
        <linearGradient id="j9pbu2gm6I" x1="-255.561%" x2="297.182%" y1="-352.445%" y2="375.622%">
            <stop offset="0%" stop-color="#08005D"/>
            <stop offset="100%" stop-color="#1A0F91"/>
        </linearGradient>
        <linearGradient id="yntmr58jzP" x1="0%" x2="100%" y1="50.001%" y2="50.001%">
            <stop offset="0%" stop-color="#DAE2FD"/>
            <stop offset="100%" stop-color="#E9EEFC"/>
        </linearGradient>
        <linearGradient id="ttv8ox0ytS" x1=".001%" x2="100%" y1="50.001%" y2="50.001%">
            <stop offset="0%" stop-color="#DAE2FD"/>
            <stop offset="100%" stop-color="#E9EEFC"/>
        </linearGradient>
    </defs>
    <g fill="none" fill-rule="evenodd">
        <g>
            <g transform="translate(-852.000000, -678.000000) translate(852.000000, 678.000000)">
                <path fill="#F2F7FF" d="M427.69 69.748c-31.566-75.618-136.024-84.44-169.163-49.35-20.255 21.448-14.35 57.271-62.304 71.13-29.332 8.478-50.688-5.115-94.417-19.856C58.077 56.93 7.307 88.976 1.07 140.146c-7.002 57.433 26.988 93.599 56.67 114.274 29.68 20.672 39.723 14.61 68.403 23.51 28.679 8.9 143.288 3.847 199.982-4.13 70.293-9.888 94.661-14.98 103.367-47.146 19.844-54.191 19.244-106.493-1.8-156.906z"/>
                <ellipse cx="105.642" cy="292.284" fill="#EFF5FE" rx="93.5" ry="22.5"/>
                <ellipse cx="392.642" cy="274.284" fill="#EFF5FE" rx="43.5" ry="15.5"/>
                <g transform="translate(26.141533, 17.783633)">
                    <g fill="#303A7D">
                        <path d="M11.36 225.928c-3.55 0-6.457-2.904-6.457-6.451L.108 16.66C.002 12.208 1.729 7.907 4.885 4.761 7.94 1.716 12.078.011 16.383.011c.14 0 .282 0 .422.006l13.938.361 306.698 7.935 20.64.534c.274-.019.544-.028.81-.028.166 0 .33.004.492.01 1.21.053 2.321.293 3.332.674 4.697 1.77 7.207 6.55 7.207 9.299l-2.906 200.675c0 3.547-2.905 6.45-6.457 6.45H11.36zM9.773 11c-2.217 2.212-3.436 5.239-3.358 8.37l4.865 193.916c0 3.36 2.749 6.11 6.109 6.11h334.75c3.36 0 6.11-2.75 6.11-6.11l2.74-182.173c-.313-10.661-9.41-14.68-15.27-14.68-.166 0-.328.002-.49.009L18.149 7.668c-.103-.004-.205-.004-.307-.004-3.021 0-5.924 1.198-8.069 3.337z" transform="translate(15.520000, 11.600000)"/>
                    </g>
                    <path fill="#FFFFFE" d="M26.799 224.887c0 3.36 2.749 6.11 6.109 6.11h334.75c3.36 0 6.11-2.75 6.11-6.11l2.74-182.173c-.323-10.964-9.934-14.903-15.76-14.671l-327.08-8.775c-3.131-.084-6.158 1.121-8.376 3.333-2.217 2.212-3.436 5.239-3.358 8.37L26.8 224.886"/>
                    <path fill="#E4ECF7" d="M50.143 49.147l130 3.714c2.705.078 4.857 2.292 4.857 4.998V104c0 2.761-2.239 5-5 5H50c-2.761 0-5-2.239-5-5V54.145c0-2.762 2.239-5 5-5 .048 0 .095 0 .143.002zM48 116.004l298.2.392c1.547.002 2.8 1.257 2.8 2.804 0 1.546-1.254 2.8-2.8 2.8H48c-1.657 0-3-1.343-3-3 0-1.655 1.341-2.996 2.996-2.996H48zM48 129.004l298.2.392c1.547.002 2.8 1.257 2.8 2.804 0 1.546-1.254 2.8-2.8 2.8H48c-1.657 0-3-1.343-3-3 0-1.655 1.341-2.996 2.996-2.996H48zM48 146.004l298.2.392c1.547.002 2.8 1.257 2.8 2.804 0 1.546-1.254 2.8-2.8 2.8H48c-1.657 0-3-1.343-3-3 0-1.655 1.341-2.996 2.996-2.996H48zM48 163.004l298.2.392c1.547.002 2.8 1.257 2.8 2.804 0 1.546-1.254 2.8-2.8 2.8H48c-1.657 0-3-1.343-3-3 0-1.655 1.341-2.996 2.996-2.996H48z"/>
                    <circle cx="164" cy="200" r="16" stroke="#E4ECF7" stroke-width="8"/>
                    <rect width="79" height="30" x="268.5" y="185.5" stroke="#E4ECF7" stroke-width="9" rx="5"/>
                    <circle cx="221" cy="200" r="16" stroke="#E4ECF7" stroke-width="8"/>
                    <path fill="#E4ECF7" d="M217.143 49.147l130 3.714c2.705.078 4.857 2.292 4.857 4.998V104c0 2.761-2.239 5-5 5H217c-2.761 0-5-2.239-5-5V54.145c0-2.762 2.239-5 5-5 .048 0 .095 0 .143.002z"/>
                    <path fill="#BED2FC" d="M224.691 189.814h-.028.014l.081-7.912-.207-.002-.082 7.912.082-7.913-.208-.002-.082 7.913h.034l-.514-.005.063.001.081-7.913-.207-.003-.082 7.913.082-7.913-.208-.001-.082 7.913.082-7.913-.209-.003-.081 7.913.081-7.913-.209-.001-.08 7.913h.099l-.418-.005.11.002.082-7.913-.112-.001h-.096l-.082 7.912.082-7.912-.209-.003-.081 7.913.081-7.913-.209-.002-.08 7.912.143.003-.303-.005.16.002.08-7.912-.207-.002-.081 7.912.081-7.912-.208-.002-.082 7.912.164.002-.505-.005.133.001.081-7.913h-.064l-.145-.001-.08 7.911.08-7.911-.207-.003-.081 7.913.081-7.913-.208-.001-.082 7.911.082-7.913-.209-.001-.081 7.913h.02l-.31-.003h.081l.083-7.913-.19-.001h-.019l-.081 7.913.081-7.913h-.017l-.191-.003-.082 7.913.082-7.913-.209-.001-.081 7.912h.064l-.575-.005.095.001.081-7.913-.208-.002-.082 7.912.082-7.912-.209-.002-.081 7.912.103.001-.218-.001h.115l.081-7.912-.207-.003-.083 7.913.083-7.913-.209-.001-.081 7.911.126.002-.454-.004.12.001.08-7.913-.142-.001h-.066l-.081 7.911.081-7.911-.069-.002-.138-.001-.081 7.913.08-7.913-.128-.001h-.08l-.081 7.911.167.003-.357-.004.19.001.081-7.911-.208-.003-.082 7.913.082-7.913-.101-.002h-.107l-.082 7.912.192.003-.405-.005h.006l.08-7.912-.097-.002-.11-.001-.082 7.913.081-7.913h-.122l-.086-.002-.082 7.913h.021l-.488-.005.052.001.08-7.913-.208-.003-.081 7.913.081-7.913-.208-.001-.082 7.913H216l-.142-.002.074.002.082-7.913-.047-.001-.16-.002-.082 7.913.081-7.913-.175-.001h-.033l-.081 7.911.088.002-.625-.006h.12l.08-7.911h-.01l-.197-.003-.082 7.913.082-7.913-.208-.002-.081 7.912.127.001-.273-.003.146.002.08-7.912-.208-.002-.081 7.912.081-7.912-.208-.002-.082 7.912.153.001-.49-.004.13.001.081-7.913-.177-.001-.031-.001-.081 7.912.08-7.912-.208-.002-.081 7.913.081-7.913-.208-.003-.082 7.913.195.003-.853-.01.034.002.081-7.913-.207-.003-.083 7.913.083-7.913-.209-.001-.08 7.912h.051l-.55-.005h.081l.081-7.912-.207-.002-.081 7.912.081-7.912-.209-.002-.08 7.912.093.001-.197-.001h.103l.081-7.912-.208-.003-.081 7.913.08-7.913-.208-.001-.081 7.911.112.002-.435-.004.116.001.081-7.913-.158-.001h-.05l-.082 7.911.081-7.911-.047-.002-.161-.001-.081 7.913.08-7.913-.206-.003-.083 7.913.083-7.913-.209-.001-.081 7.913.081-7.913-.192-.003h-.017l-.08 7.913.181.003-.245-.003h.063l.081-7.913h-.015l-.193-.001-.081 7.912.08-7.912-.206-.003-.083 7.913.083-7.913-.209-.002-.081 7.913h.012-.026.014l.081-7.913-.209-.002-.08 7.912.08-7.912-.148-.002h-.06l-.081 7.912.148.002-1.574-.016.177.001.081-7.911-.127-.002-.082-.001-.08 7.913.08-7.913-.207-.003-.082 7.913.12.001-2.99-.03h.163l.082-7.91-.208-.003h-.001l-.081 7.912.081-7.912-.207-.002-.083 7.912.083.001-1.1-.011.184.001.081-7.913-.156-.001h-.05l-.082 7.913.081-7.913-.208-.003-.082 7.913.146.001-3.024-.03.17.001.082-7.911-.207-.003-.081 7.913.08-7.913h-.026l-.182-.003-.081 7.913.106.001-1.107-.011.168.001.081-7.912-.186-.002h-.022l-.082 7.913.082-7.913-.208-.003-.08 7.913.171.002-1.789-.019.158.002.083-7.912-.209-.002-.08 7.912.08-7.912-.107-.002-.101-.001-.081 7.913.071.001-1.086-.011.182.001.08-7.913-.208-.001-.081 7.913.081-7.913-.056-.001-.151-.002-.083 7.913.138.001-1.19-.012h-.012.024l.081-7.912h-.012l-.006-.001c-.067 0-.13.011-.19.03l-.081 7.85.08-7.85c-.078.026-.148.067-.21.118l-.078 7.61.079-7.61c-.129.111-.21.275-.213.458l-.069 6.688v0l.069-6.688c.004-.336.277-.606.613-.606l.006.001 30.426.313c.336.004.605.275.606.61 0-.18-.078-.342-.203-.454l-.078 7.608.078-7.608c-.06-.053-.13-.095-.207-.123l-.081 7.85.081-7.85c-.062-.02-.127-.032-.196-.033h-.013l-.08 7.912h.013m-.557-7.92l-.081 7.913.208.003.082-7.913-.209-.002m-.209-.002l-.08 7.913.208.001.081-7.912-.209-.002m-1.04-.011l-.082 7.913.208.003.081-7.913-.168-.002-.039-.001m-1.25-.013l-.081 7.913.208.002.082-7.912-.187-.003h-.022m-1.04-.01l-.083 7.912.209.003.081-7.913-.207-.003m-.833-.008l-.083 7.913.209.002.081-7.912-.207-.003m-.209-.002l-.081 7.913.207.002.083-7.913-.209-.002m-1.041-.01l-.082 7.912.209.001.081-7.911-.158-.001-.05-.002m-1.25-.012l-.08 7.912.207.002.082-7.912-.208-.002m-.625-.007l-.082 7.912.208.003.082-7.913-.08-.001-.128-.001m-.208-.002l-.081 7.913.207.001.082-7.912-.14-.002h-.068m-1.042-.011l-.081 7.913.209.001.08-7.911-.208-.003m-.208-.001l-.082 7.911.209.003.081-7.913-.208-.001m-1.04-.012l-.082 7.913.207.002.082-7.913-.146-.002h-.062m-.833-.008l-.08 7.913.206.001.082-7.913-.208-.001m-.208-.003l-.081 7.913.208.003.081-7.913-.208-.003m-.209-.001l-.081 7.913.209.001.08-7.913-.208-.001m-.624-.007l-.081 7.913.208.002.081-7.912-.208-.003m-.209-.002l-.081 7.912.209.003.08-7.913-.208-.002m-1.04-.01l-.081 7.912.207.001.081-7.912-.207-.002m-2.29-.024l-.082 7.913.208.002.08-7.912-.174-.003h-.032m-.209-.001l-.081 7.911.208.003.082-7.913-.209-.001m-.209-.003l-.08 7.913.208.001.081-7.911-.209-.003m-.208-.001l-.081 7.911.208.003.081-7.913-.208-.001m-.207-.003l-.082 7.913.208.001.08-7.911-.206-.003m-.209-.001l-.081 7.911.208.003.082-7.913-.164-.001h-.045m-.624-.007l-.082 7.912.208.002.082-7.913-.208-.001m-.209-.003l-.081 7.913.208.002.082-7.912-.209-.003m-.209-.002l-.08 7.913.208.002.081-7.913-.209-.002m-.207-.002l-.081 7.912.207.003.081-7.913-.124-.001-.083-.001m-.208-.002l-.082 7.913.209.001.081-7.912h-.077l-.131-.002m-.209-.003l-.081 7.913.208.003.082-7.913-.209-.003m-.209-.001l-.08 7.913.208.001.081-7.913-.209-.001m-.207-.003l-.082 7.913.208.003.081-7.913-.162-.001-.045-.002m-.208-.001l-.082 7.913.208.001.082-7.913h-.043l-.165-.001m-.209-.003l-.081 7.913.208.003.082-7.913-.18-.003h-.029m-.209-.001l-.08 7.911.208.003.081-7.913h-.027l-.182-.001m-.207-.003l-.082 7.913.208.001.081-7.911-.207-.003m-.208-.002l-.082 7.912.208.003.082-7.913-.137-.002h-.071m-.625-.007l-.081 7.913.207.002.083-7.913-.209-.002m-.208-.002l-.082 7.912.209.003.081-7.913-.208-.002m-.209-.002l-.081 7.913.208.001.082-7.912-.209-.002m-.209-.003l-.08 7.913.208.003.081-7.913h-.038l-.17-.003m-.625-.005l-.081 7.913.208.001.082-7.913-.209-.001m-.207-.003l-.083 7.913.209.003.081-7.913-.207-.003m-.209-.001l-.081 7.912.207.002.083-7.913-.209-.001m-.208-.003l-.082 7.913.209.002.081-7.912-.208-.003m-.209-.002l-.081 7.913.208.002.082-7.913-.209-.002m-.207-.002l-.083 7.912.209.003.081-7.913-.207-.002m-.209-.002l-.081 7.912.207.002.083-7.912-.209-.002m-.208-.003l-.082 7.913.209.002.081-7.912-.182-.003h-.026m-.209-.001l-.081 7.911.208.003.082-7.913h-.076l-.133-.001m-.207-.003l-.081 7.913.207.001.081-7.911-.207-.003m-.209-.003l-.081 7.913.209.003.08-7.913-.208-.001m-.208-.003l-.082 7.913.209.001.081-7.913-.208-.001m-.209-.001l-.081 7.911.208.003.082-7.913-.125-.001h-.084m-.624-.007l-.082 7.912.209.002.081-7.913-.197-.001h-.011m-.208-.003l-.082 7.913.208.002.082-7.912h-.01l-.198-.003m-.208-.002l-.081 7.913.207.002.082-7.913-.208-.002m-.209-.002l-.081 7.912.209.003.08-7.913h-.009l-.199-.002m-.624-.006l-.081 7.911.208.003.081-7.913-.208-.001m-.209-.003l-.081 7.913.209.001.08-7.911-.04-.001-.168-.002m-.207-.001l-.083 7.911.209.003.081-7.913-.151-.001h-.056m-.209-.003l-.08 7.913.206.001.083-7.911-.062-.002-.147-.001m-.208-.001l-.081 7.911.208.003.081-7.913-.14-.001h-.068m-.209-.003l-.081 7.913.209.001.08-7.911-.208-.003m-.207-.002l-.083 7.912.209.003.081-7.913-.096-.002h-.111m-.626-.007l-.081 7.913.209.002.08-7.913h-.108l-.1-.002m-.207-.002l-.083 7.912.209.003.081-7.913-.09-.001-.117-.001m-.209-.002l-.08 7.913.206.001.083-7.912-.209-.002m-.208-.003l-.081 7.913.208.003.081-7.913-.113-.001-.095-.002m-.625-.005l-.08 7.911.206.003.083-7.913-.165-.001h-.044m-.208-.003l-.081 7.913.208.001.081-7.911-.04-.002-.168-.001m-.209-.001l-.081 7.911.209.003.08-7.913-.18-.001h-.028m-.207-.003l-.081 7.913.207.001.081-7.911-.207-.003m-.209-.002l-.08 7.912.208.003.081-7.913-.209-.002m30.952 7.628l.033-3.353-.033 3.344v.009"/>
                    <path fill="#7D97F4" d="M63.426 267.784L67.693 267.784 67.693 221.64 63.426 221.64z"/>
                    <path fill="#7D97F4" d="M46.874 268.673h37.371v-.712c0-1.14-.924-2.066-2.065-2.066H48.94c-1.141 0-2.066.925-2.066 2.066v.712M39.806 219.937c0 2.683 2.195 4.876 4.877 4.876h40.184c2.682 0 4.876-2.193 4.876-4.876v-4.41c0-2.682-2.194-4.876-4.876-4.876H44.683c-2.682 0-4.877 2.194-4.877 4.876v4.41"/>
                    <g fill="#142239">
                        <path d="M5.586 2.149s12.184 8.782 10.069 14.682c0 0-13.331-5.751-14.942-10.282C-.897 2.017.986.017.986.017l4.6 2.132" transform="translate(83.740000, 257.460000)"/>
                    </g>
                    <g transform="translate(85.280000, 252.140000)">
                        <mask id="uk0kedaykc" fill="#fff">
                            <use xlink:href="#lihzi970ka"/>
                        </mask>
                        <path fill="url(#49l6r5jn9b)" d="M2.215.108L.223 5.868c-.301.869 0 1.859.777 2.35.389.246.922.473 1.649.638 1.026.233 2.086-.24 2.579-1.17l2.384-4.488L2.215.108" mask="url(#uk0kedaykc)"/>
                    </g>
                    <g fill="#122648">
                        <path d="M5.366.066S30.393 4.403 41.128 14.32c10.735 9.917-9.853 41.552-9.853 41.552s-3.374-.021-7.461-3.526c0 0 12.207-23.791 1.686-30.73C13.672 13.817.04 12.061.04 12.061L5.124.831l.242-.765" transform="translate(62.740000, 200.340000)"/>
                    </g>
                    <g fill="#142239">
                        <path d="M15.358 6.849C12.677 5.607 5.09.297 3.812.063 2.532-.171.315 1.331.315 1.331s-.54.97.036 2.663c1.781 2.155 5.736 6.262 11.052 7.794 3.91 1.126 6.644.076 8.348-1.152-.938-1.428-2.608-2.961-4.393-3.787" transform="translate(81.920000, 264.180000)"/>
                    </g>
                    <g transform="translate(82.200000, 268.100000)"/>
                    <g transform="translate(79.960000, 259.560000)">
                        <mask id="zdbam2oa4g" fill="#fff">
                            <use xlink:href="#hgoa2ss5we"/>
                        </mask>
                        <path fill="url(#cg8xubsu2f)" d="M.001 2.202c.031.74 1.54 3.272 2.422 4.692.419.676 1.154 1.087 1.948 1.09.504.002 1.083-.043 1.61-.193.79-.227 1.233-1.068 1.002-1.858L5.26.05 0 2.202" mask="url(#zdbam2oa4g)"/>
                    </g>
                    <g fill="#122648">
                        <path d="M2.556.115s-5.558 14.86 0 19.38 18.817 9.608 21.779 18.609c2.962 9.002 7.988 26.496 14.715 32.693 0 0 4.725-.458 6.495-2.341 0 0-3.832-26.117-6.359-32.819-2.187-5.803-5.411-14.18-11.59-18.86-1.768-1.34-1.46-3.464-.64-5.525l1.493-3.755L2.556.115" transform="translate(41.460000, 192.780000)"/>
                    </g>
                    <g fill="#EE6E6B">
                        <path d="M20.482 14.927c-9.318.561-6.415-14.328-6.247-14.92L.091 9.997S.84 17.96 12.6 22.137c2.975 1.055 5.694 1.103 8.098.585-1.025-2.989-.817-5.671-.216-7.795" transform="translate(81.500000, 166.320000)"/>
                    </g>
                    <g transform="translate(101.380000, 175.560000)">
                        <mask id="2h55e2cvuj" fill="#fff">
                            <use xlink:href="#qa4p07oymh"/>
                        </mask>
                        <path fill="url(#utf1l68xii)" d="M18.621 1.205c-3.472-2.416-7.406 0-7.406 0C6.572 4.242 3.136 5.533.602 5.687c-.6 2.124-.81 4.806.216 7.795C6.02 12.365 9.74 8.6 11.358 6.668c.583-.696 1.613-.816 2.326-.255.722.572 1.425 1.354 1.297 2.176-.252 1.624 1.631 2.14 1.774 1.551.142-.59-.644-4.078-.644-4.078s3.766 3.787 5.236 5.243c1.47 1.455 3.32 0 3.32 0s-2.572-7.685-6.046-10.1" mask="url(#2h55e2cvuj)"/>
                    </g>
                    <g fill="#E36866">
                        <path d="M15.249.675s13.558-5.428 38.788 15.403c0 0 2.109 4.362-.192 8.244-2.298 3.884-24.205 22.803-27.216 33.295 0 0-13.05 4.24-26.548-5.816 0 0 1.192-29.2 15.168-51.126" transform="translate(43.280000, 142.660000)"/>
                    </g>
                    <g transform="translate(78.000000, 138.460000)">
                        <mask id="tx7bfyo99m" fill="#fff">
                            <use xlink:href="#lcmcsddh0k"/>
                        </mask>
                        <path fill="url(#2ihzsyv91l)" d="M7.33.03L.657 8.122c-.663.804-.81 1.921-.35 2.856.926 1.89 3.124 4.641 8 4.26 1.448-.111 2.733-.986 3.366-2.297l4.666-9.647L7.33.03" mask="url(#tx7bfyo99m)"/>
                    </g>
                    <g fill="#EE6E6B">
                        <path d="M16.652 34.768c-1.574-6.411 14.368-20.7 14.368-20.7L27.15.114S-7.275 23.03 1.497 41.46c1.258 2.642 2.928 4.491 4.865 5.729 2.772-7.46 7.19-10.882 10.29-12.422" transform="translate(31.380000, 143.220000)"/>
                    </g>
                    <g transform="translate(47.480000, 155.540000)">
                        <mask id="so5uikctsp" fill="#fff">
                            <use xlink:href="#h7nfidtw8n"/>
                        </mask>
                        <path fill="url(#flqyvhwhgo)" d="M.541 21.514c-.17 0-.323-.115-.365-.287C-1.434 14.673 14 .747 14.658.157c.155-.139.393-.126.532.03.14.155.126.393-.029.531C15.004.86-.595 14.93.907 21.048c.05.201-.074.406-.276.455-.03.008-.06.01-.09.01" mask="url(#so5uikctsp)"/>
                    </g>
                    <g transform="translate(37.680000, 177.100000)">
                        <mask id="nlzhj6yows" fill="#fff">
                            <use xlink:href="#ojwkmykogq"/>
                        </mask>
                        <path fill="url(#5eblpm5g4r)" d="M34.499.336S15.597 7.673 10.984 2.155c-.313-.376-.517-.801-.632-1.267-3.1 1.54-7.518 4.961-10.29 12.422 9.94 6.353 26.933-3.534 31.527-6.449.756-.478 1.663-.646 2.54-.464 1.771.366 4.833.907 6.484.652 2.415-.371 5.884 8.148 9.798 5.52 0 0-3.351-14.809-15.912-12.233" mask="url(#nlzhj6yows)"/>
                    </g>
                    <g transform="translate(87.240000, 124.600000)">
                        <mask id="porz7yoq6v" fill="#fff">
                            <use xlink:href="#5ak4h1z4tt"/>
                        </mask>
                        <path fill="url(#ok88c515nu)" d="M12.613 2.006c.067.26-1.564 17.947-1.564 17.947L.97 18.808.025 1.814s11.463-4.162 12.588.192" mask="url(#porz7yoq6v)"/>
                    </g>
                    <g fill="#1C2B4B">
                        <path d="M9.027 20.62c-.003.115.01.227.038.34.176.683.952 2.988 3.263 2.052 2.098-.851 4.024-1.596 5.44-1.327.636.12 1.077.702 1.017 1.348-.148 1.606-.55 5.22-1.379 8.309-.168.626-.79 1.013-1.43.901-1.926-.34-5.965-1.167-9.059-2.595-.418-.195-.7-.597-.73-1.057-.152-2.246-.636-9.07-1.066-10.951-.402-1.765-2.714-2.596-3.71-2.874-.326-.093-.598-.311-.757-.61C.09 13.096 1.879 4.212 4.252 2.82 6.664 1.404 15.834-.04 18.364.112c4.49.272 5.524 5.1 4.676 8.09-.849 2.99-5.7 2.418-8.23 1.237-1.926-.899-4.14.507-5.093 1.233-.3.23-.478.585-.487.963l-.203 8.986z" transform="translate(80.660000, 118.300000)"/>
                    </g>
                    <g transform="translate(81.080000, 132.440000)">
                        <mask id="h7jsp35sly" fill="#fff">
                            <use xlink:href="#2tptoxkvow"/>
                        </mask>
                        <path fill="url(#0kb57todwx)" d="M4.66 6.772s1.255-5.273-.743-6.31C1.92-.577-.766.371.244 3.98 1.5 8.47 4.66 6.772 4.66 6.772" mask="url(#h7jsp35sly)"/>
                    </g>
                    <g fill="#1B1A73">
                        <path d="M1.761 3.606l.093.003 39.656-.043c.981-.002 1.775-.797 1.774-1.777-.002-.981-.8-1.79-1.777-1.774L1.85.06C.87.06.076.855.076 1.835c.001.951.749 1.725 1.685 1.771" transform="translate(80.100000, 188.300000)"/>
                    </g>
                    <g fill="#4443A8">
                        <path d="M.073 36.065l.91-1.932 3.496-7.41.218-.465 4.052-8.589.408-.868.41-.866.817-1.736.41-.867.409-.868.218-.465 3.12-6.616.8-1.693C16.38 1.487 18.598.08 21.034.08H54.06c1.86 0 3.137 1.876 2.453 3.608l-5.756 14.561-.813 2.06-2.526 6.389-.49 1.242-1.953 4.939-.302.767c-.094.238-.21.462-.346.672-.057.09-.119.177-.183.26-.713.923-1.824 1.487-3.028 1.487H.073z" transform="translate(103.200000, 155.820000)"/>
                    </g>
                    <path fill="#7D97F4" d="M133.993 172.5c-.715 2.224-.188 4.383 1.18 4.824 1.37.44 3.058-1.005 3.773-3.23.717-2.223.188-4.382-1.18-4.823-1.368-.44-3.058 1.005-3.773 3.229"/>
                    <g fill="#C1CCDF">
                        <path d="M36.666 81.945c.22 0 .444-.044.658-.132.846-.353 1.236-1.302.872-2.12L3.246 1.034C2.882.216 1.902-.162 1.055.19.21.54-.18 1.489.183 2.309l34.951 78.659c.272.61.887.977 1.532.977" transform="translate(115.240000, 195.020000)"/>
                    </g>
                    <g fill="#C1CCDF">
                        <path d="M1.772 81.945c.647 0 1.262-.366 1.532-.977l34.951-78.66c.364-.818-.027-1.768-.872-2.119-.844-.353-1.826.025-2.19.844L.243 79.693c-.363.818.027 1.767.873 2.12.214.088.437.132.656.132" transform="translate(110.760000, 195.020000)"/>
                    </g>
                    <g fill="#C1CCDF">
                        <path d="M36.699 81.945c.22 0 .443-.044.658-.132.845-.353 1.236-1.302.872-2.12L3.279 1.034C2.913.216 1.934-.162 1.088.19.243.54-.147 1.489.216 2.309l34.951 78.659c.271.61.886.977 1.532.977" transform="translate(7.020000, 195.020000)"/>
                    </g>
                    <g fill="#C1CCDF">
                        <path d="M1.805 81.945c.646 0 1.26-.366 1.532-.977l34.95-78.66c.365-.818-.026-1.768-.871-2.119-.845-.353-1.826.025-2.19.844L.276 79.693c-.364.818.026 1.767.872 2.12.214.088.438.132.657.132" transform="translate(2.540000, 195.020000)"/>
                    </g>
                    <g fill="#D2DDF1">
                        <path d="M.086 2.104C-.004 1.59.118 1.056.416.65.717.245 1.16.01 1.63.01h159c.618 0 1.192.353 1.525.934.333.582.377 1.314.118 1.941L160.55 7.06c-.395.956-1.25 1.568-2.191 1.568H2.72c-.874 0-1.626-.694-1.793-1.656L.087 2.104" transform="translate(0.160000, 191.520000)"/>
                    </g>
                    <g transform="translate(131.880000, 56.620000)">
                        <mask id="5vdo7gz3bA" fill="#fff">
                            <use xlink:href="#fv7xdoui2z"/>
                        </mask>
                        <path fill="#02D8FB" d="M65.053.434c.21-.334.607-.5.99-.41L79.19 3.066c.383.09.669.413.71.805l1.173 11.18c4.85 2.386 9.19 5.525 12.915 9.23l10.962-2.52c.383-.087.78.078.99.413l7.142 11.445c.209.334.182.764-.066 1.07l-7.08 8.74c1.692 4.974 2.602 10.252 2.616 15.657l9.525 5.967c.335.208.5.607.41.99l-3.042 13.146c-.09.383-.413.669-.805.71l-11.179 1.173c-2.387 4.85-5.525 9.19-9.23 12.915l2.519 10.962c.088.383-.077.78-.412.99l-11.445 7.142c-.334.209-.764.182-1.07-.066l-8.741-7.08c-4.973 1.692-10.25 2.602-15.656 2.616l-5.967 9.525c-.209.335-.608.5-.991.41l-13.145-3.043c-.383-.088-.67-.412-.71-.804L37.44 103.46c-4.85-2.387-9.19-5.525-12.915-9.23L13.562 96.75c-.383.088-.781-.077-.99-.412L5.43 84.892c-.21-.334-.182-.764.065-1.07l7.08-8.741c-1.691-4.973-2.601-10.25-2.615-15.656L.434 53.458c-.334-.21-.5-.608-.41-.991l3.044-13.145c.088-.383.411-.67.803-.71l11.18-1.173c2.386-4.85 5.524-9.19 9.23-12.915l-2.52-10.962c-.087-.383.078-.781.413-.99L33.619 5.43c.334-.21.764-.182 1.07.065l8.74 7.08c4.974-1.691 10.252-2.601 15.657-2.615zM59.5 38C47.626 38 38 47.626 38 59.5S47.626 81 59.5 81 81 71.374 81 59.5 71.374 38 59.5 38z" mask="url(#5vdo7gz3bA)"/>
                    </g>
                    <g transform="translate(79.080000, 0.960000)">
                        <mask id="4n5s8ehfrC" fill="#fff">
                            <use xlink:href="#hewolgni9B"/>
                        </mask>
                        <path fill="#E36866" d="M40.084 0c.248-.01.473.14.563.37l2.557 6.573c3.331.644 6.477 1.826 9.343 3.452l6.22-3.336c.217-.117.486-.082.668.086l6.214 5.747c.18.168.237.432.137.66l-2.842 6.46c1.846 2.73 3.27 5.775 4.171 9.044l6.752 2.037c.237.071.402.286.412.533l.33 8.46c.01.246-.138.472-.37.562l-6.57 2.558c-.645 3.33-1.827 6.475-3.455 9.342l3.336 6.219c.118.218.083.486-.085.668l-5.747 6.214c-.168.182-.433.237-.66.137l-6.459-2.84c-2.731 1.845-5.775 3.267-9.045 4.17l-2.037 6.753c-.072.236-.286.401-.534.411l-8.457.331c-.248.008-.475-.139-.564-.37l-2.557-6.573c-3.33-.644-6.476-1.826-9.342-3.452l-6.22 3.336c-.217.116-.486.082-.668-.086L8.96 61.718c-.18-.168-.236-.433-.137-.66l2.842-6.459c-1.846-2.73-3.269-5.775-4.17-9.045L.742 43.517c-.236-.072-.403-.286-.413-.532L0 34.525c-.01-.247.14-.472.369-.562l6.573-2.558c.644-3.33 1.825-6.476 3.453-9.342L7.06 15.844c-.117-.218-.084-.487.086-.668l5.747-6.214c.168-.182.432-.237.66-.137l6.459 2.84c2.731-1.845 5.775-3.269 9.045-4.17L31.093.742c.071-.236.286-.401.532-.411zM37 23c-7.732 0-14 6.268-14 14s6.268 14 14 14 14-6.268 14-14-6.268-14-14-14z" mask="url(#4n5s8ehfrC)"/>
                    </g>
                    <g transform="translate(230.700000, 32.040000)">
                        <mask id="4tku4p0w0E" fill="#fff">
                            <use xlink:href="#0saxuhrk5D"/>
                        </mask>
                        <path fill="#02D8FB" d="M4.05 30.498c.066.106.19.158.312.13l3.461-.795c1.175 1.169 2.545 2.16 4.077 2.913l.37 3.53c.012.123.103.225.224.253l4.15.96c.121.028.246-.024.313-.129l1.883-3.007c1.706-.004 3.372-.291 4.942-.826l2.76 2.236c.096.078.232.087.337.021l3.613-2.255c.106-.066.158-.192.13-.313l-.795-3.46c1.169-1.176 2.16-2.546 2.913-4.077l3.53-.37c.123-.014.225-.103.253-.225l.96-4.148c.029-.122-.023-.248-.128-.314l-3.007-1.883c-.005-1.707-.292-3.373-.826-4.942l2.235-2.76c.077-.096.086-.232.02-.337l-2.254-3.613c-.066-.107-.192-.158-.314-.13l-3.459.795c-1.176-1.17-2.547-2.16-4.077-2.914l-.37-3.529c-.013-.123-.103-.225-.225-.253L20.93.096c-.122-.029-.248.023-.314.128l-1.883 3.007c-1.706.004-3.372.291-4.943.826l-2.758-2.236c-.097-.078-.232-.086-.339-.02L7.081 4.057c-.106.066-.158.192-.13.312l.795 3.46c-1.17 1.177-2.16 2.546-2.915 4.078l-3.528.37c-.124.013-.225.103-.253.225l-.962 4.148c-.028.122.024.248.13.313l3.008 1.883c.004 1.707.29 3.373.824 4.942l-2.234 2.76c-.079.096-.087.232-.021.339l2.255 3.612" mask="url(#4tku4p0w0E)"/>
                    </g>
                    <path fill="#FFF" d="M249.895 47.63c-.154-.02-.312-.029-.473-.026-1.78.036-3.199 1.512-3.164 3.293.035 1.779 1.515 3.201 3.292 3.164 1.779-.037 3.199-1.512 3.165-3.293-.032-1.619-1.259-2.94-2.82-3.138zm-.959 7.503c-2.095-.267-3.74-2.041-3.784-4.215-.046-2.39 1.86-4.373 4.25-4.42 2.388-.045 4.371 1.859 4.419 4.249.046 2.39-1.86 4.372-4.249 4.42-.216.004-.428-.009-.636-.034z"/>
                    <path fill="#FFF" d="M248.2 61.523c-.361-.047-.722-.111-1.084-.194-.751-.175-1.484-.428-2.178-.754-.223-.105-.343-.339-.314-.571.007-.056.024-.111.05-.166.128-.275.457-.393.734-.264.623.292 1.283.52 1.958.676 3.585.832 7.165-.444 9.455-3.009 1.001-1.121 1.754-2.487 2.153-4.034.02-.079.04-.157.058-.236.075-.327.134-.656.176-.985.282-2.214-.203-4.437-1.4-6.355-1.375-2.203-3.526-3.74-6.056-4.326-2.53-.586-5.138-.151-7.34 1.224-2.204 1.375-3.74 3.526-4.325 6.056-.076.322-.133.647-.175.973-.18 1.411-.048 2.846.39 4.202.027.08.033.16.023.239-.027.206-.168.39-.378.458-.291.092-.603-.066-.697-.357-.489-1.51-.634-3.108-.436-4.682.047-.362.111-.724.195-1.082.652-2.818 2.363-5.214 4.817-6.745 2.453-1.532 5.361-2.013 8.175-1.364 2.818.653 5.214 2.365 6.745 4.818 1.334 2.136 1.873 4.614 1.56 7.08-.046.365-.112.732-.196 1.096-1.263 5.455-6.47 8.995-11.91 8.302"/>
                    <g>
                        <g transform="translate(221.000000, 57.000000) translate(86.982650, 74.996390)">
                            <mask id="6ozkuaip0G" fill="#fff">
                                <use xlink:href="#w81cets3mF"/>
                            </mask>
                            <path fill="#FDB7B5" d="M.15 11.57l4.552 4.36c6.463-.604 11.444-2.557 15.269-5.034-2.303-5.562-4.64-8.86-6.477-10.792C7.478 8.324.15 11.57.15 11.57" mask="url(#6ozkuaip0G)"/>
                        </g>
                        <path fill="#F6942F" d="M107.44 52.996c-.692 9.504-3.832 16.647-7.457 21.858 1.802 1.996 4.095 5.4 6.355 11.142 9.367-6.383 11.645-16.152 11.645-16.152L107.44 52.996z" transform="translate(221.000000, 57.000000)"/>
                        <path fill="#142239" d="M116.007 200.671c2.163-4.297 10.123-4.603 16.043-6.438l4.063-.237s1.379 2.03 1.87 6.675c-.674.815-2.643 1.95-8.356 2.205-5.22.232-15.783 2.093-13.62-2.205z" transform="translate(221.000000, 57.000000)"/>
                        <path fill="#142239" d="M169.009 201.587c.4-2.469 1.043-6.042 1.54-6.954.778-1.432 3.443 0 3.443 0s1.872.84 2.733 2.24c.549.89 2.068 3.428 3.096 5.151.119.197.168.408.161.613l-10.674.36c-.26-.403-.383-.895-.3-1.41" transform="translate(221.000000, 57.000000)"/>
                        <path fill="#FDB7B5" d="M167.983 186.266c.09.293 1.442 6.66 2.034 9.453.165.772.881 1.315 1.693 1.275.442-.02.958-.059 1.498-.128.959-.12 1.69-.897 1.726-1.835.096-2.448.143-7.148-.782-8.969-1.277-2.511-6.17.204-6.17.204M136.983 188.028c-.597-.02.237 2.914-.665 5.798-.204.65-.718 1.16-1.434 1.168-.465.007-1.016-.001-1.574-.045-.84-.064-1.515-.68-1.593-1.475l-.734-7.478 6 2.032" transform="translate(221.000000, 57.000000)"/>
                        <path fill="#122648" d="M120.983 105.75c.26 1.267 9.474 54.906 10.032 82.662.01.465.353.855.815.92 1.17.162 3.448.371 5.656-.039.303-.055.53-.304.549-.61.322-5.173 2.912-48.903-.26-69.489 0 0 26.197 55.03 30.168 70.204.097.368.436.617.817.597 1.123-.06 3.456-.26 5.308-.94.664-.245 1.043-.942.875-1.628-2.218-9.08-17.767-71.646-28.324-85.43l-25.636 3.752" transform="translate(221.000000, 57.000000)"/>
                        <g transform="translate(221.000000, 57.000000) translate(133.982650, 114.996390)">
                            <mask id="1t7t4u71qJ" fill="#fff">
                                <use xlink:href="#iiut0ommoH"/>
                            </mask>
                            <path fill="url(#j9pbu2gm6I)" d="M4.146 4.603c.09 0 .184-.034.253-.104.142-.138.146-.367.006-.51L.714.212C.574.07.344.068.201.208.06.348.056.578.196.72l3.69 3.775c.072.074.167.109.26.109" mask="url(#1t7t4u71qJ)"/>
                        </g>
                        <path fill="#EB8D2D" d="M105.815 38.97c6.657-1.745 18.931-4.476 28.704-3.894 2.245.134 4.043 1.91 4.171 4.158 1.475 26.053 3.493 49.173 7.293 62.624-8.54 3.382-17.005 4.951-25.357 3.723-6.256-13.415-11.727-28.901-16.401-46.49 0 0-2.742-14.027-.079-18.703.414-.73.962-1.232 1.67-1.418" transform="translate(221.000000, 57.000000)"/>
                        <g transform="translate(221.000000, 57.000000) translate(111.982650, 19.996390)">
                            <mask id="g9yjxld4zL" fill="#fff">
                                <use xlink:href="#ehgklzf9eK"/>
                            </mask>
                            <path fill="#FDB7B5" d="M10.091.135s1.691 10.134 2.194 14.82c.083.762-.314 1.482-.991 1.833-1.848.956-5.793 2.495-10.091 1.082-.708-.233-1.172-.92-1.155-1.669L.342 2.673l9.75-2.538" mask="url(#g9yjxld4zL)"/>
                        </g>
                        <g transform="translate(221.000000, 57.000000) translate(106.982650, 9.996390)">
                            <mask id="eur5ruzq5N" fill="#fff">
                                <use xlink:href="#kbafun1sbM"/>
                            </mask>
                            <path fill="#FDB7B5" d="M3.755.047S.444 7.574.22 11.527c-.222 3.95-1.082 6.514 3.535 7.31 4.616.797 8.507-1.479 10.614-5.416 0 0 3.301-6.064 2.56-8.55C16.19 2.387 3.755.047 3.755.047" mask="url(#eur5ruzq5N)"/>
                        </g>
                        <path fill="#1C2B4B" d="M119.514 19.8s2.364-4.892.286-5.752c-2.078-.859-10.308-2.551-12.084-5.496-1.713-2.838-.185-6.505 2.1-7.53.144-.066.314.002.388.144l.188.361c.13.247.493.21.57-.058.073-.255.413-.311.552-.087.545.882 4.054 1.463 8 2.197 5.603 1.043 9.686 4.5 9.982 5.61.951 3.568.724 7.79-2.648 10.574-.16.131-.158.383.015.498.611.4 1.522 1.355-.839 2.628-2.415 1.302-3.846 1.159-4.384 1.02-.145-.038-.243-.17-.233-.32l.212-3.46c.01-.18-.131-.33-.308-.33h-1.797z" transform="translate(221.000000, 57.000000)"/>
                        <path fill="#FDB7B5" d="M119.983 20.819s1.214-4.97 3.31-3.576c2.094 1.393-1.088 5.568-2.773 5.753l-.537-2.177" transform="translate(221.000000, 57.000000)"/>
                        <g transform="translate(221.000000, 57.000000) translate(53.982650, 69.996390)">
                            <mask id="4hn3sli4wQ" fill="#fff">
                                <use xlink:href="#hwwxe8autO"/>
                            </mask>
                            <path fill="url(#yntmr58jzP)" d="M142.789 42.854c-.853 3.421-6.143 5.015-11.818 3.56-5.673-1.456-9.583-5.41-8.73-8.83.851-3.421 6.143-5.015 11.816-3.56 5.675 1.456 9.585 5.408 8.732 8.83zm-7.717-15.152L3.442.008.116 13.365l128.789 39.102c.287.087.576.168.866.243l4.393 1.126c7.537 1.934 14.688-.68 15.972-5.837l1.527-6.13c1.285-5.157-3.784-10.903-11.321-12.837l-4.391-1.126c-.29-.076-.584-.142-.878-.204z" mask="url(#4hn3sli4wQ)"/>
                        </g>
                        <g transform="translate(221.000000, 57.000000) translate(1.982650, 37.996390)">
                            <mask id="heewkbpboT" fill="#fff">
                                <use xlink:href="#85dde49kiR"/>
                            </mask>
                            <path fill="url(#ttv8ox0ytS)" d="M12.658 14.474l25.634 6.523c1.826.465 3.332 1.756 4.08 3.495l3.837 8.914c1.095 2.546.35 5.513-1.816 7.228l-7.582 6.011c-1.479 1.171-3.415 1.587-5.24 1.123L5.937 41.244C2.07 40.26-1.215 44.323.61 47.893c4.367 8.54 12.381 15.294 22.58 17.89 18.435 4.69 34.749-6.554 39.23-24.405 4.482-17.852-4.566-35.551-23-40.244C29.22-1.46 18.984.65 11.11 6.074c-3.293 2.269-2.319 7.416 1.547 8.4" mask="url(#heewkbpboT)"/>
                        </g>
                        <g transform="translate(221.000000, 57.000000) translate(0.982650, 40.996390)">
                            <mask id="tigxr4wy1V" fill="#fff">
                                <use xlink:href="#5hs4lxrkeU"/>
                            </mask>
                            <path fill="#7592BB" d="M12.712 14.567l25.633 6.524c1.826.464 3.332 1.755 4.08 3.494l3.837 8.916c1.095 2.544.35 5.511-1.815 7.227l-7.583 6.01c-1.479 1.172-3.415 1.588-5.24 1.123L5.99 41.338c-3.866-.984-7.151 3.079-5.326 6.648 4.367 8.54 12.381 15.294 22.579 17.89 18.436 4.691 34.75-6.553 39.231-24.405 4.482-17.853-4.566-35.55-23-40.243-10.2-2.595-20.437-.485-28.31 4.94-3.292 2.268-2.318 7.415 1.548 8.4" mask="url(#tigxr4wy1V)"/>
                        </g>
                        <g transform="translate(221.000000, 57.000000) translate(52.982650, 71.996390)">
                            <mask id="70sltc70tX" fill="#fff">
                                <use xlink:href="#m4pnntkq8W"/>
                            </mask>
                            <path fill="#7592BB" d="M142.8 42.958c-.853 3.42-6.143 5.013-11.817 3.558-5.675-1.454-9.585-5.408-8.732-8.83.853-3.421 6.143-5.015 11.818-3.558 5.675 1.454 9.583 5.408 8.731 8.83zm-7.717-15.154L3.453.11.125 13.467l128.789 39.102c.287.087.577.17.868.243l4.39 1.127c7.538 1.933 14.689-.68 15.974-5.837l1.526-6.13c1.285-5.158-3.783-10.904-11.32-12.838l-4.393-1.126c-.29-.074-.582-.142-.876-.204z" mask="url(#70sltc70tX)"/>
                        </g>
                        <g fill="#FDB7B5">
                            <path d="M.991 20.846l4.512 1.14S11.335 15.415 10 .836C5.833.236 2.438 1.172 0 2c3.424 9.1.991 18.846.991 18.846z" transform="translate(221.000000, 57.000000) translate(155.982650, 71.996390)"/>
                        </g>
                        <path fill="#F6942F" d="M165.983 72.833c-.143-1.655-.365-3.408-.697-5.272-2.885-16.246-23.475-28.742-28.32-31.479-.45-.254-1 .088-.983.611l.688 22.084c11.468 1.56 16.895 8.196 19.37 15.22 2.307-.838 5.999-1.771 9.942-1.164" transform="translate(221.000000, 57.000000)"/>
                        <g transform="translate(221.000000, 57.000000) translate(77.982650, 88.996390)">
                            <mask id="g1ptmpz75Z" fill="#fff">
                                <use xlink:href="#kastogslfY"/>
                            </mask>
                            <path fill="#FDB7B5" d="M2.694 6.205c-.82-.22-1.483-.783-1.829-1.531C.195 3.222-.559.896 1.052.189c2.4-1.056 6.764 3.27 6.764 3.27L9.95 6.8l1.949.918c-1.787.476-5.23-.316-9.204-1.513" mask="url(#g1ptmpz75Z)"/>
                        </g>
                        <g transform="translate(221.000000, 57.000000) translate(150.982650, 89.996390)">
                            <mask id="js97n1hhoab" fill="#fff">
                                <use xlink:href="#fbtpxim33aa"/>
                            </mask>
                            <path fill="#FDB7B5" d="M5.604.09H.022S4.55 2.629 4.7 5.298c.151 2.67-1.796 8.2-2.708 9.705C.996 16.65 14.628 12.552 9.815.09H5.604" mask="url(#js97n1hhoab)"/>
                        </g>
                    </g>
                </g>
            </g>
        </g>
    </g>
</svg>
