<svg xmlns="http://www.w3.org/2000/svg" xmlns:xlink="http://www.w3.org/1999/xlink" width="434" height="370" viewBox="0 0 434 370">
    <defs>
        <path id="qyfrpbneia" d="M231.257 34.054c62.356 42.004 137.11 6.727 176.374 50 82.775 91.227-47.062 215.778-162.033 235.88-170.42 29.798-298.88-121.01-223.36-270.9"/>
        <path id="0b7l0bqhqc" d="M25.472 19.948s10.172-8.218 9.32-11.673c-1.265-5.12-5.999-5.452-12.765-7.043C15.26-.36 2.605-.09.468 3.635c-2.302 4.011 23.5 13.79 25.004 16.313"/>
    </defs>
    <g fill="none" fill-rule="evenodd">
        <g>
            <g transform="translate(-811.000000, -1913.000000) translate(811.000000, 1912.000000)">
                <g fill="#C7D8EF">
                    <path d="M89.075 13.08C84.429-5.661 42.335 1.628 2.22 1.628c-7.396 0 5.748 15.466 32.745 21.4 50.05 11.004 56.067-2.056 54.11-9.946" transform="translate(238.000000, 22.119241)"/>
                </g>
                <g>
                    <mask id="mrba7tes1b" fill="#fff">
                        <use xlink:href="#qyfrpbneia"/>
                    </mask>
                    <use fill="#F2F7FF" xlink:href="#qyfrpbneia"/>
                    <path fill="#C7D8EF" d="M62.619 253.614v8.984c0 .825-.724 1.447-1.506 1.292l-9.13-1.805c-.598-.118-1.03-.66-1.03-1.293v-5.372c0-.632.432-1.175 1.03-1.293l9.13-1.805c.782-.155 1.506.467 1.506 1.292M97.723 227.414h-8.658c-.796 0-1.395-.752-1.246-1.562l1.74-9.473c.114-.62.637-1.07 1.246-1.07h5.178c.609 0 1.132.45 1.246 1.07l1.74 9.473c.15.81-.45 1.562-1.246 1.562M81.974 229.053l-7.498 4.492c-.69.412-1.57.073-1.832-.707l-3.058-9.105c-.2-.597.036-1.257.564-1.573l4.484-2.686c.527-.316 1.196-.199 1.594.28l6.072 7.3c.52.625.363 1.587-.326 2M69.125 238.643l-4.33 7.78c-.397.715-1.324.878-1.926.339l-7.036-6.3c-.462-.413-.575-1.108-.27-1.654l2.589-4.653c.304-.547.94-.793 1.515-.585l8.777 3.173c.75.272 1.079 1.186.68 1.9M64.199 269.955l4.33 7.78c.397.715.07 1.628-.682 1.9l-8.776 3.173c-.575.207-1.211-.038-1.516-.585l-2.59-4.652c-.304-.548-.19-1.242.27-1.655l7.037-6.3c.602-.539 1.53-.376 1.927.339M73.442 283.286l7.498 4.492c.69.412.846 1.374.326 1.999l-6.071 7.3c-.398.48-1.067.597-1.595.28l-4.484-2.685c-.527-.317-.764-.977-.563-1.573l3.057-9.106c.262-.78 1.143-1.12 1.832-.707M87.872 290.036h8.658c.795 0 1.394.752 1.246 1.563l-1.74 9.472c-.114.62-.637 1.07-1.247 1.07h-5.177c-.61 0-1.132-.45-1.246-1.07l-1.74-9.472c-.15-.811.45-1.563 1.246-1.563M103.62 288.397l7.499-4.492c.689-.412 1.57-.073 1.832.707l3.057 9.106c.201.596-.036 1.256-.563 1.573l-4.484 2.686c-.527.316-1.197.198-1.595-.28l-6.071-7.3c-.52-.626-.363-1.587.325-2M116.47 278.807l4.329-7.78c.398-.715 1.325-.877 1.926-.338l7.037 6.3c.461.412.574 1.106.27 1.654l-2.59 4.652c-.303.548-.94.793-1.515.585l-8.776-3.172c-.751-.272-1.08-1.186-.681-1.901M122.976 263.836v-8.983c0-.826.724-1.447 1.505-1.293l9.13 1.805c.598.119 1.03.661 1.03 1.293v5.372c0 .632-.432 1.175-1.03 1.293l-9.13 1.806c-.781.154-1.505-.468-1.505-1.293M121.395 247.496l-4.329-7.78c-.398-.715-.07-1.63.681-1.9l8.777-3.174c.575-.207 1.211.038 1.516.585l2.589 4.653c.304.547.19 1.241-.27 1.654l-7.036 6.3c-.603.54-1.53.376-1.928-.338M112.152 234.164l-7.498-4.492c-.689-.412-.846-1.374-.326-2l6.072-7.3c.397-.478 1.067-.595 1.594-.28l4.484 2.687c.528.316.764.976.564 1.573l-3.058 9.105c-.261.78-1.143 1.12-1.832.707" mask="url(#mrba7tes1b)"/>
                    <path fill="#C7D8EF" d="M83.804 236.197c-11.973 5.146-17.68 19.437-12.72 31.86 4.96 12.422 18.735 18.342 30.707 13.196 11.973-5.145 17.679-19.437 12.72-31.86-4.96-12.422-18.735-18.342-30.707-13.196zm21.562 54.01c-16.732 7.191-35.982-1.082-42.912-18.441-6.93-17.36 1.043-37.332 17.775-44.523 16.731-7.19 35.98 1.082 42.912 18.442 6.93 17.36-1.044 37.332-17.775 44.522z" mask="url(#mrba7tes1b)"/>
                    <path fill="#BED1EA" d="M92.797 276.564c-9.495 0-17.193-7.987-17.193-17.839 0-9.852 7.698-17.84 17.193-17.84 9.496 0 17.194 7.988 17.194 17.84s-7.698 17.84-17.194 17.84zm0-43.067c-13.429 0-24.315 11.295-24.315 25.228 0 13.933 10.886 25.229 24.315 25.229 13.43 0 24.316-11.296 24.316-25.229s-10.887-25.228-24.316-25.228z" mask="url(#mrba7tes1b)"/>
                    <path fill="#C6D8EF" d="M137.14 294.718v4.66c0 .43-.376.752-.782.672l-4.737-.937c-.31-.061-.535-.343-.535-.67v-2.788c0-.328.225-.61.535-.67l4.737-.937c.406-.08.781.242.781.67M155.353 281.123h-4.492c-.413 0-.724-.39-.646-.81l.902-4.915c.06-.322.331-.555.647-.555h2.687c.315 0 .587.233.646.555l.903 4.915c.077.42-.234.81-.647.81M147.182 281.974l-3.89 2.33c-.358.215-.816.039-.951-.366l-1.587-4.724c-.104-.31.019-.653.293-.817l2.327-1.393c.273-.165.62-.103.827.145l3.15 3.788c.27.324.189.823-.17 1.037M140.515 286.95l-2.246 4.037c-.207.37-.688.455-1 .176l-3.65-3.27c-.24-.214-.299-.574-.141-.858l1.343-2.414c.158-.284.489-.41.787-.303l4.553 1.646c.39.14.56.615.354.986M137.96 303.197l2.245 4.036c.207.371.037.845-.353.986l-4.554 1.646c-.298.108-.628-.02-.786-.303l-1.344-2.414c-.158-.284-.099-.644.14-.859l3.651-3.268c.313-.28.794-.195 1 .176M142.755 310.114l3.89 2.33c.358.214.44.713.17 1.038l-3.15 3.788c-.207.248-.554.309-.828.145l-2.327-1.394c-.273-.164-.396-.506-.292-.816l1.586-4.725c.136-.404.593-.58.95-.366M150.242 313.616h4.492c.413 0 .724.39.647.81l-.903 4.915c-.06.323-.33.555-.647.555h-2.686c-.316 0-.588-.232-.647-.555l-.903-4.914c-.077-.421.234-.81.647-.81M158.414 312.765l3.89-2.33c.357-.214.814-.038.95.366l1.587 4.725c.104.31-.019.653-.292.816l-2.327 1.394c-.273.164-.62.103-.828-.145l-3.15-3.788c-.27-.324-.188-.823.17-1.038M165.08 307.79l2.247-4.037c.206-.371.687-.456 1-.176l3.65 3.269c.24.214.298.574.14.858l-1.343 2.414c-.158.285-.488.412-.786.304l-4.554-1.647c-.39-.14-.56-.615-.354-.986M168.456 300.021v-4.66c0-.429.376-.751.781-.671l4.738.937c.31.061.534.342.534.67v2.788c0 .328-.224.61-.534.67l-4.738.937c-.405.08-.781-.242-.781-.67M167.636 291.543l-2.246-4.036c-.207-.371-.036-.846.354-.987l4.553-1.646c.298-.108.629.02.787.304l1.343 2.414c.158.284.1.644-.14.858l-3.651 3.269c-.312.28-.793.195-1-.176M162.84 284.626l-3.89-2.33c-.358-.215-.44-.714-.17-1.038l3.15-3.788c.207-.248.555-.31.828-.145l2.327 1.393c.274.164.396.507.292.817l-1.586 4.724c-.136.405-.593.581-.951.367" mask="url(#mrba7tes1b)"/>
                    <path fill="#C6D8EF" d="M148.13 285.68c-6.211 2.67-9.172 10.086-6.599 16.532 2.574 6.445 9.721 9.517 15.933 6.847 6.212-2.67 9.173-10.086 6.6-16.53-2.573-6.446-9.721-9.518-15.933-6.849zm11.189 28.025c-8.682 3.73-18.67-.562-22.265-9.57-3.596-9.006.54-19.37 9.222-23.1 8.681-3.73 18.67.562 22.265 9.569 3.597 9.007-.54 19.37-9.222 23.1z" mask="url(#mrba7tes1b)"/>
                    <path fill="#BBD3E4" d="M152.797 306.626c-4.926 0-8.92-4.144-8.92-9.256s3.994-9.256 8.92-9.256c4.928 0 8.922 4.144 8.922 9.256s-3.994 9.256-8.922 9.256zm0-22.347c-6.967 0-12.616 5.861-12.616 13.09 0 7.23 5.649 13.09 12.616 13.09 6.969 0 12.617-5.86 12.617-13.09 0-7.229-5.648-13.09-12.617-13.09z" mask="url(#mrba7tes1b)"/>
                    <path fill="#D6E8F0" d="M450.987 151.79v-4.316c0-.558-.436-1.01-.974-1.01h-32.652c-.537 0-.973.452-.973 1.01v4.315c0 .557.436 1.01.973 1.01h32.652c.538 0 .974-.453.974-1.01" mask="url(#mrba7tes1b)"/>
                    <path fill="#BBD3E4" d="M450.987 162.343v-9.797c0-.56-.438-1.014-.977-1.014h-36.308c-.54 0-.977.454-.977 1.014v9.797c0 .56.437 1.014.977 1.014h36.308c.54 0 .977-.454.977-1.014" mask="url(#mrba7tes1b)"/>
                    <path fill="#F6FAFB" d="M434.298 160.751v-5.77c0-.272-.213-.493-.476-.493H418.9c-.263 0-.475.221-.475.493v5.77c0 .273.212.494.475.494h14.923c.263 0 .476-.221.476-.494" mask="url(#mrba7tes1b)"/>
                    <path fill="#BBD3E4" d="M389.273 162.998l-4.275-2.26c-.87-.46-1.216-1.566-.772-2.47l15.527-31.604c.443-.903 1.509-1.262 2.38-.801l4.273 2.26c.87.46 1.217 1.565.773 2.468l-15.527 31.605c-.444.904-1.509 1.262-2.38.802" mask="url(#mrba7tes1b)"/>
                    <path fill="#7CA5CB" d="M395.541 135.237L402.967 139.164 403.892 137.283 396.466 133.355 395.541 135.237M393.17 159.106L394.094 157.224 386.668 153.297 385.744 155.178 393.17 159.106M405.539 163.817l-5.557-1.79c-1.132-.365-1.765-1.612-1.413-2.786l12.298-41.094c.351-1.174 1.554-1.83 2.686-1.465l5.557 1.79c1.131.365 1.764 1.612 1.413 2.786l-12.299 41.094c-.35 1.173-1.553 1.83-2.685 1.465" mask="url(#mrba7tes1b)"/>
                    <path fill="#BBD3E4" d="M407.531 129.294L417.187 132.405 417.919 129.959 408.263 126.848 407.531 129.294M409.427 158.333L410.159 155.887 400.503 152.776 399.771 155.222 409.427 158.333M408.067 151.684l-3.544-1.142c-.588-.19-.916-.838-.734-1.448l4.7-15.706c.183-.61.807-.951 1.395-.762l3.544 1.142c.588.19.917.837.734 1.447l-4.7 15.707c-.183.61-.808.95-1.395.762" mask="url(#mrba7tes1b)"/>
                    <path fill="#D6E8F0" d="M471.538 148.998h-5.18c-1.156 0-2.092.97-2.092 2.17v11.766h-81.813v-11.766c0-1.2-.937-2.17-2.091-2.17h-4.773c-1.155 0-2.091.97-2.091 2.17v19.645c0 1.246.973 2.257 2.174 2.257h95.784c1.2 0 2.174-1.01 2.174-2.257v-19.645c0-1.2-.936-2.17-2.092-2.17" mask="url(#mrba7tes1b)"/>
                </g>
                <path fill="#02D8FB" d="M283.936 126.683h57.177c2.7 0 4.887-2.246 4.887-5.018v-20.127c0-2.771-2.188-5.018-4.887-5.018h-57.177c-2.726 0-4.936 2.27-4.936 5.069v20.025c0 2.8 2.21 5.069 4.936 5.069"/>
                <path fill="#02D8FB" d="M302 122.661l-.312.535c-2.45 3.22-.528 6.73-.01 8.847.111.457-.385.828-.81.607l-4.69-2.442c-2.73-1.422-4.617-4.02-5.093-7.014l-.085-.533h11"/>
                <path fill="#FFF" d="M290 112.229v-1.33c0-.486.275-.925.699-1.114l13.713-6.13c.754-.337 1.588.249 1.588 1.114v.488c0 .49-.28.932-.71 1.119l-10.438 4.535c-.567.246-.568 1.095-.003 1.343l10.446 4.58c.426.188.705.63.705 1.118v.482c0 .868-.839 1.453-1.592 1.112l-13.714-6.204c-.42-.191-.694-.628-.694-1.113M308.045 123.153l6.62-23.749c.144-.516.612-.873 1.145-.873.787 0 1.357.756 1.145 1.518l-6.604 23.75c-.144.516-.611.873-1.145.873h-.016c-.788 0-1.358-.756-1.145-1.519M334.306 113.342l-13.714 6.204c-.754.341-1.592-.244-1.592-1.112v-.482c0-.489.278-.93.705-1.117l10.64-4.673c.489-.214.487-.947-.001-1.16l-10.636-4.626c-.428-.187-.708-.629-.708-1.12v-.487c0-.865.834-1.451 1.587-1.114l13.715 6.13c.423.19.698.628.698 1.115v1.329c0 .485-.273.922-.694 1.113"/>
                <path fill="#02D8FB" d="M400.517 89.482h-75.099c-3.544 0-6.418-2.995-6.418-6.69V55.955c0-3.695 2.874-6.69 6.418-6.69h75.099c3.58 0 6.483 3.025 6.483 6.758v26.7c0 3.733-2.902 6.758-6.483 6.758"/>
                <path fill="#02D8FB" d="M378 85.46l.397.695c3.119 4.186.672 8.749.014 11.501-.143.595.49 1.077 1.029.79l5.97-3.175c3.474-1.848 5.876-5.226 6.482-9.119l.108-.691h-14"/>
                <path fill="#F2F7FF" d="M347.395 72.037l.147.02c1.05.143 1.71 1.262 1.366 2.311-.52 1.583-1.343 2.886-2.47 3.91-1.584 1.437-3.529 2.156-5.835 2.156-2.89 0-5.213-.99-6.969-2.97-1.756-1.978-2.634-4.815-2.634-8.51 0-2.388.378-4.478 1.134-6.27.755-1.792 1.904-3.135 3.449-4.032 1.543-.895 3.224-1.343 5.04-1.343 2.292 0 4.168.608 5.626 1.822.957.798 1.689 1.816 2.194 3.054.431 1.054-.2 2.254-1.28 2.43l-.183.03c-.764.122-1.504-.323-1.797-1.072-.338-.857-.794-1.543-1.37-2.056-.84-.75-1.858-1.125-3.05-1.125-1.803 0-3.269.677-4.395 2.031-1.127 1.354-1.69 3.497-1.69 6.427 0 2.973.543 5.133 1.63 6.48 1.087 1.347 2.505 2.02 4.255 2.02 1.405 0 2.577-.45 3.519-1.354.677-.65 1.176-1.552 1.497-2.706.23-.83.999-1.364 1.816-1.253M360.831 77.685v-5.363c0-.683-.524-1.236-1.169-1.236h-5.013c-.91 0-1.649-.78-1.649-1.743 0-.963.738-1.743 1.649-1.743h5.013c.645 0 1.169-.554 1.169-1.236v-5.301c0-.963.738-1.743 1.649-1.743h.039c.91 0 1.649.78 1.649 1.743v5.3c0 .683.523 1.237 1.169 1.237h5.014c.91 0 1.649.78 1.649 1.743 0 .962-.738 1.743-1.649 1.743h-5.014c-.646 0-1.169.553-1.169 1.236v5.363c0 .963-.738 1.743-1.649 1.743h-.04c-.91 0-1.648-.78-1.648-1.743M383.832 77.685v-5.363c0-.683-.524-1.236-1.169-1.236h-5.014c-.911 0-1.649-.78-1.649-1.743 0-.963.738-1.743 1.649-1.743h5.014c.645 0 1.169-.554 1.169-1.236v-5.301c0-.963.738-1.743 1.649-1.743h.038c.91 0 1.65.78 1.65 1.743v5.3c0 .683.522 1.237 1.168 1.237h5.014c.91 0 1.649.78 1.649 1.743 0 .962-.739 1.743-1.649 1.743h-5.014c-.646 0-1.169.553-1.169 1.236v5.363c0 .963-.738 1.743-1.649 1.743h-.038c-.91 0-1.65-.78-1.65-1.743"/>
                <path fill="#FFF" d="M212.79 157.85H38.21c-5.639 0-10.21-4.763-10.21-10.64V11.646c0-5.876 4.571-10.64 10.21-10.64h174.58c5.639 0 10.21 4.764 10.21 10.64V147.21c0 5.877-4.571 10.64-10.21 10.64"/>
                <path fill="#303A7D" d="M212.79 1.005H38.21C32.572 1.005 28 5.848 28 11.82v4.267h195V11.82c0-5.972-4.571-10.815-10.21-10.815"/>
                <path fill="#F9F9F9" d="M64 8.044c0 1.666 1.343 3.016 3 3.016s3-1.35 3-3.016-1.343-3.017-3-3.017-3 1.35-3 3.017M54 8.044c0 1.666 1.343 3.016 3 3.016s3-1.35 3-3.016-1.343-3.017-3-3.017-3 1.35-3 3.017M45 8.044c0 1.666 1.343 3.016 3 3.016s3-1.35 3-3.016-1.343-3.017-3-3.017-3 1.35-3 3.017"/>
                <path fill="#B7C6E5" d="M153 144.78c.552 0 1-.504 1-1.127V26.263c0-.623-.448-1.127-1-1.127-.553 0-1 .504-1 1.127v117.39c0 .623.447 1.127 1 1.127"/>
                <path fill="#C7D8EF" d="M212.07 104.564H186.93c-.513 0-.929-.434-.929-.968v-4.097c0-.534.416-.968.929-.968h25.142c.513 0 .929.434.929.968v4.097c0 .534-.416.968-.93.968M200.12 31.168H158.88c-.487 0-.881-.433-.881-.968v-4.096c0-.535.394-.968.881-.968h41.238c.487 0 .881.433.881.968V30.2c0 .535-.394.968-.88.968M211.11 39.211h-28.22c-.491 0-.89-.433-.89-.968v-4.096c0-.535.399-.968.89-.968h28.22c.492 0 .89.433.89.968v4.096c0 .535-.398.968-.89.968M179.089 48.26H163.91c-.503 0-.911-.433-.911-.968v-4.096c0-.535.408-.968.911-.968h15.178c.503 0 .911.433.911.968v4.096c0 .535-.408.968-.911.968M185.126 57.309h-21.253c-.482 0-.873-.433-.873-.968v-4.096c0-.535.391-.969.873-.969h21.253c.483 0 .874.434.874.969v4.096c0 .535-.391.968-.874.968M211.117 66.358h-52.234c-.488 0-.883-.434-.883-.968v-4.097c0-.534.395-.968.883-.968h52.234c.488 0 .883.434.883.968v4.097c0 .534-.395.968-.883.968M185.126 136.737h-21.253c-.482 0-.873-.433-.873-.968v-4.096c0-.535.391-.968.873-.968h21.253c.483 0 .874.433.874.968v4.096c0 .535-.391.968-.874.968M211.117 144.78h-52.234c-.488 0-.883-.433-.883-.968v-4.096c0-.535.395-.968.883-.968h52.234c.488 0 .883.433.883.968v4.096c0 .535-.395.968-.883.968M201.099 74.401H180.9c-.497 0-.901-.433-.901-.968v-4.096c0-.535.404-.968.901-.968H201.1c.498 0 .901.433.901.968v4.096c0 .535-.403.968-.901.968M189.125 83.45h-25.25c-.483 0-.875-.434-.875-.968v-4.097c0-.534.392-.968.875-.968h25.25c.483 0 .875.434.875.968v4.097c0 .534-.392.968-.875.968M203.125 92.499h-25.25c-.483 0-.875-.434-.875-.968v-4.096c0-.535.392-.969.875-.969h25.25c.483 0 .875.434.875.969v4.096c0 .534-.392.968-.875.968"/>
                <path fill="#C7D8EF" d="M196.118 109.59h-32.236c-.487 0-.882-.433-.882-.967v-4.096c0-.535.395-.969.882-.969h32.236c.487 0 .882.434.882.969v4.096c0 .534-.395.968-.882.968M204.095 118.64h-23.19c-.5 0-.905-.434-.905-.968v-4.097c0-.535.406-.968.905-.968h23.19c.5 0 .905.433.905.968v4.097c0 .534-.405.968-.905.968M196.118 127.688h-32.236c-.487 0-.882-.433-.882-.968v-4.096c0-.535.395-.968.882-.968h32.236c.487 0 .882.433.882.968v4.096c0 .535-.395.968-.882.968M131.943 37.2l16.129-.125c.516-.004.932-.43.928-.95-.004-.52-.426-.94-.943-.935l-16.128.125c-.514.005-.929.425-.929.943 0 .523.423.946.943.943M80.966 37.2l44.084-.303c.526-.004.95-.385.95-.854 0-.474-.433-.857-.965-.853l-44.084.304c-.526.004-.951.385-.951.853 0 .474.434.857.966.854M73.024 36.195l-28.063.203c-.535.004-.965.412-.961.911.004.5.441.901.976.897l28.063-.203C73.57 38 74 37.596 74 37.1c0-.502-.438-.908-.976-.904M114.048 44.239l-16.11.124c-.52.004-.938.425-.938.944 0 .523.428.947.952.942l16.11-.124c.52-.004.938-.425.938-.943 0-.524-.427-.948-.952-.943M123.951 45.244l24.112-.181c.522-.004.941-.417.937-.922-.004-.506-.43-.912-.952-.908l-24.111.18c-.519.005-.937.413-.937.916 0 .508.427.919.951.915M57.025 44.239l-12.064.092c-.535.004-.965.437-.961.967.004.53.44.956.975.951l12.064-.092c.532-.004.961-.432.961-.96 0-.532-.438-.963-.975-.958M62.975 46.25l25.065-.184c.531-.004.96-.412.96-.914 0-.507-.438-.918-.975-.913l-25.065.183c-.531.003-.96.411-.96.914 0 .507.438.917.975.913M113.952 54.293l34.111-.248c.522-.003.941-.401.937-.888-.004-.487-.43-.88-.952-.875l-34.11.246c-.52.004-.938.398-.938.882 0 .49.427.886.952.883M76.95 54.293l24.115-.182c.517-.004.935-.412.935-.914 0-.508-.427-.92-.95-.915l-24.115.181c-.517.004-.935.412-.935.915 0 .508.427.918.95.915M64.052 52.282l-18.119.14c-.52.003-.937.426-.933.943.004.516.428.931.947.928l18.12-.14c.516-.004.933-.422.933-.936 0-.519-.426-.939-.948-.935M123.97 62.336l24.075-.177c.532-.005.96-.418.955-.924-.004-.507-.438-.914-.97-.91l-24.075.178c-.528.003-.955.413-.955.916 0 .51.436.921.97.917M90.96 62.336l23.094-.172c.523-.005.946-.415.946-.92 0-.51-.432-.923-.96-.919l-23.095.173c-.523.003-.945.414-.945.919 0 .51.431.923.96.919M82.038 61.33l-37.09.264c-.528.004-.952.398-.948.88.004.483.435.871.962.867l37.09-.263c.525-.003.948-.394.948-.873 0-.486-.432-.878-.962-.874M106.971 70.38l41.072-.285c.533-.004.961-.393.957-.87-.004-.477-.44-.86-.972-.856l-41.072.284c-.529.004-.956.39-.956.863 0 .48.436.867.971.863M57.025 69.374l-12.064.092c-.535.005-.965.438-.961.967.004.53.44.956.975.952l12.064-.093c.532-.004.961-.432.961-.959 0-.532-.438-.963-.975-.959M62.97 71.385l36.075-.255c.528-.004.955-.396.955-.878 0-.487-.436-.882-.97-.878l-36.075.255c-.529.003-.955.396-.955.878 0 .487.435.881.97.878M123.951 120.65l24.112-.18c.522-.004.941-.417.937-.922-.004-.506-.43-.913-.952-.908l-24.111.18c-.519.005-.937.413-.937.915 0 .509.427.92.951.915M114.03 119.645l-18.075.136c-.529.004-.955.422-.955.937 0 .52.436.942.97.938l18.075-.137c.529-.004.955-.422.955-.937 0-.52-.436-.941-.97-.937M56 119.645l-11.015.083c-.549.004-.99.439-.985.971.004.533.452.961 1 .957l11.016-.083c.545-.004.984-.435.984-.964 0-.535-.449-.968-1-.964M64.952 121.656l25.11-.188c.52-.003.938-.41.938-.911 0-.506-.427-.916-.952-.912l-25.11.188c-.52.004-.938.41-.938.912 0 .506.428.915.952.91M115.973 129.7l32.07-.23c.532-.004.961-.406.957-.898-.004-.492-.44-.888-.973-.884l-32.07.23c-.53.004-.957.401-.957.89 0 .495.437.895.973.891M53.064 127.688l-7.143.058c-.513.005-.925.445-.921.984.004.54.423.973.935.97l7.144-.06c.51-.004.921-.44.921-.975 0-.543-.42-.981-.936-.977M106.047 127.688l-26.108.194c-.52.004-.939.41-.939.909 0 .504.428.912.953.908l26.109-.194c.52-.004.938-.41.938-.908 0-.505-.428-.913-.953-.909M61.978 129.7l13.059-.1c.533-.004.963-.431.963-.956 0-.53-.44-.96-.978-.956l-13.059.1c-.533.004-.963.43-.963.955 0 .531.44.96.978.956M123.047 135.732l-31.108.227c-.52.004-.939.402-.939.892 0 .495.428.896.953.892l31.109-.227c.52-.004.938-.402.938-.893 0-.494-.428-.895-.953-.891M131.968 137.743l16.079-.123c.53-.004.957-.43.953-.951-.004-.522-.438-.941-.969-.937l-16.077.122c-.528.004-.954.426-.954.944 0 .525.435.948.968.945M73.944 137.743l12.126-.097c.515-.004.93-.431.93-.957 0-.531-.424-.962-.944-.957l-12.126.096c-.515.004-.93.431-.93.957 0 .532.424.961.944.958M64.052 136.737l-18.119.14c-.52.004-.937.426-.933.942.004.517.428.933.947.929l18.12-.14c.516-.004.933-.421.933-.935 0-.52-.426-.94-.948-.936M112.022 144.78l-11.059.085c-.533.004-.963.434-.963.963 0 .535.44.967.978.963l11.06-.085c.532-.004.962-.434.962-.963 0-.535-.44-.967-.978-.962M124.967 145.786l23.081-.171c.53-.004.956-.42.952-.927-.004-.508-.437-.917-.967-.913l-23.08.171c-.528.004-.953.415-.953.92 0 .51.434.924.967.92M73.96 146.791l22.095-.165c.523-.004.945-.416.945-.923 0-.512-.431-.927-.96-.922l-22.094.165c-.524.004-.946.416-.946.923 0 .512.431.926.96.922M59.008 144.78l-14.031.106c-.544.004-.981.434-.977.96.004.526.448.95.992.945l14.031-.105c.541-.004.977-.43.977-.953 0-.53-.445-.957-.992-.952M128.047 27.146l-17.108.132c-.52.004-.939.424-.939.94 0 .522.428.943.953.94l17.108-.132c.52-.004.939-.424.939-.94 0-.522-.428-.943-.953-.94M135.942 29.157l12.131-.096c.516-.004.931-.436.927-.965-.004-.528-.426-.953-.942-.95l-12.131.097c-.513.004-.927.431-.927.957 0 .531.423.961.942.957M81.03 27.146l-36.075.255c-.532.004-.96.4-.955.885.004.485.438.875.97.871l36.075-.255c.528-.003.955-.396.955-.878 0-.487-.436-.882-.97-.878M93.987 29.157l10.041-.076c.538-.005.972-.436.972-.968 0-.537-.443-.971-.986-.967l-10.042.077c-.538.004-.972.436-.972.967 0 .537.443.971.987.967M127.972 87.472l20.072-.15c.532-.004.96-.424.956-.938-.004-.514-.439-.927-.972-.923l-20.072.15c-.53.004-.956.419-.956.93 0 .517.436.935.972.93M70.043 86.466l-24.101.18c-.525.004-.946.417-.942.923.004.505.432.912.956.908l24.102-.18c.521-.004.942-.413.942-.915 0-.51-.43-.92-.957-.916M75.966 87.472l44.084-.304c.526-.004.95-.385.95-.854 0-.474-.433-.857-.965-.853l-44.084.304c-.526.003-.951.384-.951.853 0 .474.434.857.966.854M138.025 93.504l-25.065.183c-.531.004-.96.412-.96.914 0 .508.438.918.975.914l25.065-.183c.531-.004.96-.412.96-.914 0-.508-.438-.918-.975-.914M143.96 95.515l4.095-.033c.526-.005.95-.45.945-.997-.004-.546-.434-.985-.96-.98l-4.095.032c-.523.004-.945.446-.945.989 0 .549.43.993.96.989M87.952 96.52l16.11-.125c.52-.003.938-.425.938-.943 0-.523-.428-.947-.952-.942l-16.11.124c-.52.004-.938.425-.938.943 0 .524.427.947.952.943M77.04 94.51l-32.095.232c-.526.003-.95.405-.945.896.004.491.434.886.96.882l32.095-.232c.523-.004.945-.4.945-.89 0-.493-.43-.892-.96-.888M137 104.564l11.016-.083c.548-.004.988-.44.984-.972-.005-.532-.452-.96-1-.956l-11.016.083c-.545.004-.984.434-.984.964 0 .535.449.968 1 .964M88.042 102.553l-42.098.294c-.526.004-.948.391-.944.865.004.474.433.855.958.852l42.098-.295c.523-.004.944-.387.944-.858 0-.477-.43-.862-.958-.858M100.95 104.564l24.115-.182c.517-.003.935-.412.935-.915 0-.508-.427-.918-.95-.914l-24.114.18c-.518.005-.936.413-.936.916 0 .508.427.919.95.915M86.96 112.607l23.094-.172c.524-.004.946-.415.946-.92 0-.51-.431-.923-.96-.919l-23.094.173c-.523.003-.946.414-.946.919 0 .51.431.923.96.919M118.956 112.607l29.103-.213c.524-.004.945-.41.941-.906-.004-.496-.432-.895-.956-.892l-29.103.214c-.52.004-.941.405-.941.899 0 .498.43.902.956.898M77.026 111.602l-32.067.228c-.534.004-.963.406-.959.898.004.493.44.888.974.884l32.067-.228c.53-.004.959-.402.959-.892 0-.494-.437-.894-.974-.89M108.013 77.417l-10.042.077c-.537.004-.971.436-.971.967 0 .537.443.971.987.967l10.041-.077c.538-.004.972-.435.972-.967 0-.537-.443-.971-.987-.967M65.042 77.417l-20.098.153c-.526.003-.948.423-.944.936.004.513.433.926.958.922l20.098-.152c.523-.004.944-.419.944-.93 0-.515-.43-.932-.958-.929M119.965 79.428l28.085-.205c.529-.004.954-.411.95-.91-.004-.499-.436-.9-.965-.896l-28.085.206c-.526.004-.95.407-.95.902 0 .502.433.907.965.903M72.953 79.428l17.108-.131c.52-.005.939-.424.939-.94 0-.522-.428-.943-.953-.94l-17.109.132c-.52.005-.938.424-.938.94 0 .521.428.943.953.94"/>
                <path fill="#60639E" d="M40 37.2c0 .556-.448 1.006-1 1.006s-1-.45-1-1.006c0-.555.448-1.005 1-1.005s1 .45 1 1.005M40 45.244c0 .555-.448 1.005-1 1.005s-1-.45-1-1.005c0-.556.448-1.006 1-1.006s1 .45 1 1.006M40 53.287c0 .555-.448 1.006-1 1.006s-1-.45-1-1.006c0-.555.448-1.005 1-1.005s1 .45 1 1.005M40 62.336c0 .555-.448 1.005-1 1.005s-1-.45-1-1.005c0-.555.448-1.005 1-1.005s1 .45 1 1.005M40 70.38c0 .555-.448 1.005-1 1.005s-1-.45-1-1.005c0-.556.448-1.006 1-1.006s1 .45 1 1.006M40 79.428c0 .556-.448 1.006-1 1.006s-1-.45-1-1.006c0-.555.448-1.005 1-1.005s1 .45 1 1.005M40 87.471c0 .556-.448 1.006-1 1.006s-1-.45-1-1.006c0-.554.448-1.005 1-1.005s1 .45 1 1.005M40 95.515c0 .555-.448 1.005-1 1.005s-1-.45-1-1.005c0-.556.448-1.006 1-1.006s1 .45 1 1.006M40 104.564c0 .555-.448 1.005-1 1.005s-1-.45-1-1.005c0-.556.448-1.006 1-1.006s1 .45 1 1.006M40 112.607c0 .555-.448 1.005-1 1.005s-1-.45-1-1.005c0-.555.448-1.005 1-1.005s1 .45 1 1.005M40 120.65c0 .556-.448 1.006-1 1.006s-1-.45-1-1.006c0-.555.448-1.005 1-1.005s1 .45 1 1.005M40 129.7c0 .555-.448 1.005-1 1.005s-1-.45-1-1.006c0-.555.448-1.005 1-1.005s1 .45 1 1.005M40 137.743c0 .555-.448 1.005-1 1.005s-1-.45-1-1.005c0-.555.448-1.006 1-1.006s1 .45 1 1.006M40 145.786c0 .555-.448 1.005-1 1.005s-1-.45-1-1.005c0-.555.448-1.006 1-1.006s1 .45 1 1.006"/>
                <path fill="#FFAF9C" d="M341 307.166l-4.83 25.628s-25.536-.408-25.166-1.62c.369-1.213 1.487-4.613 1.487-4.613s.64-18.243.7-19.395c.06-1.154 27.809 0 27.809 0"/>
                <path fill="#C1CCDF" d="M219 312.686L230 312.686 230 248.339 219 248.339z"/>
                <path fill="#8DA7CF" d="M237.797 143.745s-17.335-29.732-30.091-30.015c-12.756-.284-18.3-.718-23.127 7.57-4.827 8.287-12.155 21.03-17.04 24.144-4.886 3.115 3.02 96.56 7.616 112.417 3.529 12.173 3.934 11.663 23.614 11.154 5.955-.154 13.676-.308 23.784-.11 43.504.849 50.33 1.83 50.445-6.448.116-8.277-6.35-35.95-6.35-35.95s-27.257-72.284-28.85-82.762"/>
                <path fill="#E36866" d="M237 124.672s10.962 2.873 17.92 10.154c6.958 7.281 21.227 33.202 21.227 33.202L295 191.29l-40.08 5.772-17.92-72.39"/>
                <path fill="#6784B2" d="M230.29 261.41c-14.596 0-27.985-1.327-31.883-5.768-17.286-19.697-15.143-51.17-13.702-63.294.36-3.03.123-6.1-.699-9.029-.866-3.084-2.01-8.185-3.076-16.164-2.703-20.22 1.006-27.78 4.486-32.562 3.75-5.155 11.852-7.234 11.852-7.234s.351-2.9 2.703-6.414c3.743-5.594 7.485-5.042 8.428-5.594.355-.208.45-.925.43-1.739 5.152.924 10.894 6.104 15.88 11.902-.175-.002-.349-.002-.523-.002-13.106 0-27.241 4.097-32.368 7.994-8.823 6.707-3.665 35.57-3.665 54.011 0 5.856.575 12.398 1.36 18.6 0 0-2.018 42.378 14.2 49.211 2.379 1.002 5.081 1.43 7.956 1.43 7.254 0 15.624-2.722 22.778-5.804 4.086 1.595 9.271 2.834 15.765 3.593l.039.005h.004l.61.07h.007l.03.004.013.001.033.004h.007l.034.004.009.001.034.004h.006l.034.004.012.001.03.004.014.001.025.003.021.002.02.002.029.004h.013l.028.004.017.002.02.002.023.002.018.002.026.003.027.003.014.001.017.002.055.006.015.001.02.003.021.002.02.002.026.003h.013l.029.004.02.002.024.002.017.002.026.003.014.001.032.004h.013l.026.004c.008 0 .013 0 .02.002l.026.002c.008 0 .008.001.015.002.011 0 .021.002.032.003h.009l.036.004.01.001.03.004h.014l.036.004.006.001.039.004h.005l.032.004.016.001.018.002.025.003.023.002.021.002.267.026.044.004h.002l.178.017h.002l.043.004h.002l.041.004h.006l.04.004h.004l.041.005h.004l.054.005c.276 1.767.579 3.674.904 5.69-7.32.496-15.615.888-23.552.888M259 206.712c-4.506-.232-8.524-.407-11.835-.523 4.975-2.413 8.04-3.918 8.04-3.918s.107-1.949.205-5.205l.088-.013c1.086 2.979 2.144 5.863 3.146 8.586l.356 1.073"/>
                <path fill="#50498C" d="M255.956 197.179l.007-.233.08.22-.087.013"/>
                <path fill="#C34D4B" d="M254.537 197.062l4.07-.959c.382-9.959 2.467-44.58-8.98-65.46-6.102-4.224-12.627-5.97-12.627-5.97l17.537 72.39"/>
                <path fill="#E36866" d="M195.698 230.127c-.778.346-1.666-.127-1.85-.985-1.251-5.872-5.348-26.268-5.348-41.805 0-18.339-5.164-47.04 3.67-53.709 8.832-6.67 44.368-13.927 55.41 0 11.04 13.927 8.051 68.381 8.051 68.381s-34.504 16.824-59.933 28.118"/>
                <path fill="#C34D4B" d="M206.88 191.03l49.12-7.248c-.017-3.235-.08-5.015-.217-8.614-3.961-.289-15.799.005-23.027 1.228-8.672 1.467-16.085 4.53-16.085 4.53s1.12-9.372-.803-24.925c-1.923-15.551-5.18-20.343-13.818-25.966-.351-.228-.839-.732-1.388-1.341-3.697 1.257-6.699 2.687-8.54 4.092-3.582 2.733-4.864 9.124-5.122 16.995l19.88 41.249"/>
                <path fill="#223D6A" d="M262.492 255.407s49.946-12.915 52.677-13.036c2.73-.12-1.669 76.331-1.669 76.331 3.914 2.355 8.2 3.957 12.656 4.731l13.391 2.323s24.145-98.767 12.073-107.215c-12.073-8.448-110.174-13.177-113.16-12.333-2.986.844-47.611 47.148 24.032 49.2"/>
                <path fill="#FFAF9C" d="M271 327.589s5.231 8.143 5.771 12.552c.54 4.41 19.227 2.105 19.227 2.105l7.002-5.662s-5.234-7.014-6.497-14.528c-1.262-7.514-25.503 5.533-25.503 5.533"/>
                <path fill="#E7EEF9" d="M376 355.918c0 8.33-48.13 15.082-107.5 15.082S161 364.247 161 355.918c0-8.328 48.13-15.08 107.5-15.08S376 347.59 376 355.917"/>
                <path fill="#C34D4B" d="M200.958 134.92c18.146 5.851 18.605 6.082 26 8.637 4.22 1.459 7.042 2.229 7.042 2.229s-2.722-6.488-3.393-6.727c-.515-.183-16.5-7.15-23.48-11.37-2.979.698-5.739 1.526-8.12 2.42-.06 1.926.24 4.26 1.95 4.81M242.442 136.3c.823-1.633 3.821-2.463 4.558-4.395-.736-.812-1.558-1.546-2.458-2.206-.12.136-.19.233-.19.233s-7 6.545-7.723 10.62c-.723 4.075-2.629 4.937-2.629 4.937s2.364 2.864 8.442-9.19"/>
                <path fill="#304D7E" d="M190.08 206.111s-2.018 42.353 14.2 49.183c16.217 6.83 47.336-13.032 47.336-13.032s4.784 33.909 10.328 58.633c5.543 24.723 12.545 32.904 12.545 32.904L300 332.496s-15.556-112.062-22.787-115.978c-7.231-3.916-87.133-10.407-87.133-10.407"/>
                <path fill="#344C8E" d="M254 260.404c-.328-2.013-.634-3.916-.912-5.68.278 1.764.584 3.667.912 5.68m-42.56-3.755c-2.9 0-5.627-.427-8.028-1.428-16.367-6.82-14.331-49.11-14.331-49.11v.001c-.011.241-1.99 42.31 14.331 49.11 2.4 1 5.127 1.427 8.028 1.427 7.321 0 15.768-2.717 22.988-5.793-7.22 3.076-15.667 5.793-22.988 5.793"/>
                <path fill="#585291" d="M190 206.112v-.001M200 207.117c-2.91-.426-5.305-.767-7-1.006 1.696.239 4.089.58 7 1.006"/>
                <path fill="#92729E" d="M274.03 332.794s-.379-.31-1.03-1.005c.651.694 1.03 1.005 1.03 1.005l5.97-.214-5.97.214"/>
                <path fill="#E36866" d="M238 205.965s-39.264 12.263-40.528 10.56c-1.264-1.702-5.9-54.652-5.9-54.652L187 166.868c.444 7.22 1.508 14.511 1.025 20.609-1.518 19.183 2.927 43.77 2.927 43.77 10.753-4.692 26.163-10.793 37.168-15.926l9.88-9.356M233.62 145.786s-7.044-3.583-14.595-6.329c-8.64-3.14-16.661-4.17-17.625-9.205-1.231-6.432-.44-12.616 14.444-15.154 14.885-2.537 31.76 5.59 32.096 9.976.55 7.192-2.783 5.26-7.16 11.507-1.752 2.5-3.029 8.085-7.16 9.205"/>
                <path fill="#4A4180" d="M233.504 136.737s10.339-8.106 9.44-11.496c-1.33-5.021-6.129-5.292-13-6.778-6.872-1.487-19.77-1.167-21.828 2.565-2.059 3.73 23.922 13.16 25.388 15.71"/>
                <path fill="#8A9EB8" d="M242.934 199.073h83.132c1.62 0 2.934-1.35 2.934-3.016s-1.314-3.016-2.934-3.016h-83.132c-1.62 0-2.934 1.35-2.934 3.016s1.314 3.016 2.934 3.016"/>
                <path fill="#FFAF9C" d="M242 179.727s3.303-4.071 16.275-3.762c12.972.31 17.725 6.903 17.725 6.903l-2.921 8.303s-9.486 0-18.66 1.718c-9.66 1.809-12.419-13.162-12.419-13.162"/>
                <path fill="#E36866" d="M255 192.827l-5.456-16.204s-26.717 3.9-36.09 9.388c0 0 .56-10.11-.979-21.809-1.538-11.698-3.436-30.184-14.308-30.473-10.871-.289-14.788 7.221-14.089 30.185.7 22.963 12.132 38.706 15.108 41.595 2.977 2.888 42.525-5.144 55.814-12.682"/>
                <g transform="translate(208.000000, 116.628726)">
                    <mask id="zecjf4i98d" fill="#fff">
                        <use xlink:href="#0b7l0bqhqc"/>
                    </mask>
                    <use fill="#C34D4B" xlink:href="#0b7l0bqhqc"/>
                    <path fill="#FFAF9C" d="M29.494.078s-1.687 10.074.493 13.236c.747 1.085 3.054 2.852 2.029 4.614-1.962 3.375-8.56 6.917-8.56 6.917L4.587 9.823S8.075 4.726 7.898-.876c-.185-5.82-.778-12.911-.778-12.911L29.494.078" mask="url(#zecjf4i98d)"/>
                </g>
                <path fill="#E0E6EF" d="M56.966 218.176h350.067c4.952 0 8.967-4.276 8.967-9.552 0-5.274-4.015-9.55-8.967-9.55H56.966c-4.952 0-8.966 4.276-8.966 9.55 0 5.276 4.014 9.552 8.966 9.552"/>
                <path fill="#E0E6EF" d="M78.791 366.978H72.21c-1.773 0-3.209-1.468-3.209-3.279V217.433c0-1.81 1.436-3.279 3.209-3.279h6.582c1.773 0 3.209 1.469 3.209 3.28v146.265c0 1.811-1.436 3.28-3.209 3.28M396.791 366.978h-6.582c-1.773 0-3.209-1.468-3.209-3.279V217.433c0-1.81 1.436-3.279 3.209-3.279h6.582c1.772 0 3.209 1.469 3.209 3.28v146.265c0 1.811-1.437 3.28-3.209 3.28"/>
                <path fill="#C34D4B" d="M240.111 135.842c.918.995 1.165 2.201.552 2.695-.614.495-1.856.09-2.774-.905-.918-.994-1.165-2.2-.552-2.695.613-.494 1.856-.089 2.774.905"/>
                <path fill="#C7D8EF" d="M270.799 199.073h79.454c3.048 0 5.866-2.548 6.295-5.69l6.397-46.933c.429-3.143-1.695-5.691-4.744-5.691h-79.453c-3.049 0-5.868 2.548-6.295 5.69l-6.398 46.933c-.428 3.143 1.695 5.691 4.744 5.691"/>
                <ellipse cx="317.5" cy="168.408" fill="#FFF" rx="5.5" ry="5.53"/>
                <path fill="#C34D4B" d="M226.587 137.452c-.782 1.317-.783 2.74-.002 3.177.78.439 2.046-.273 2.828-1.59.781-1.317.783-2.74.003-3.178-.781-.438-2.047.274-2.829 1.591"/>
                <path fill="#FFAF9C" d="M234.865 77.779c-8.361-1.866-16.886 3.656-21.119 12.861-1.127-.875-2.48-1.224-3.756-.82-2.395.76-3.597 3.874-2.685 6.955.639 2.156 2.145 3.72 3.813 4.207-.795 11.288 4.99 21.305 14.054 23.329 10.133 2.261 20.517-6.322 23.194-19.171 2.677-12.85-3.368-25.1-13.501-27.361"/>
                <path fill="#1C2B4B" d="M330.96 323.228c1.338-1.273 3-2.114 4.79-2.354 1.653-.222 3.584-.258 4.997.39 3.017 1.385 4.042 6.966 7.237 9.693 3.195 2.727 8.02 6.573 14.914 8.596 4.96 1.456 8.146-.076 10.875 1.797.677.464.153 8.255-5.977 11.54-3.314 1.776-27.317.608-32.668.008-5.35-.6-9.684.77-12.76.988-3.075.219-13.494-1.107-13.367-8.322.126-7.214 4.266-19.162 4.266-19.162s1.402 2.784 5.206 3.128c3.168.287 9.444-3.405 12.487-6.302"/>
                <path fill="#19243E" d="M215.137 81.897c5.716 8.209 12.288 6.99 21.053 7.893 10.938 1.128 7.49 2.67 13.672 3.665 6.183.996 14.491-13.53-5.195-16.068-5.372-.692-7.11-3.946-15.312-9.584-7.027-4.83-21.874 3.1-14.218 14.094"/>
                <path fill="#19243E" d="M219.056 81.05c-2.805-3.136-9.107-6.79-14.35 1.133-5.244 7.923-6.422 24.093 6.586 31.43 0 0 .034-7.819 1.175-13.158-2.22.266-4.52-1.526-5.354-4.311-.916-3.064.291-6.16 2.695-6.915 2.405-.756 5.096 1.114 6.012 4.177.166.556.26 1.113.292 1.657 1.157-.74 2.578-1.857 3.46-3.309 1.691-2.78 2.288-7.566-.516-10.703"/>
                <path fill="#E5D7D7" d="M227.5 179.97c-.322 0-.617-.205-.707-.518-.023-.08-.57-2.008-.774-4.453-.076-.907.09-2.628.32-5.01.412-4.261 1.034-10.702.777-17.83-.4-11.057.414-13.802.448-13.914.117-.373.527-.585.914-.472.386.112.605.503.492.875-.016.055-.772 2.832-.389 13.461.26 7.219-.366 13.714-.782 18.012-.214 2.223-.384 3.98-.319 4.765.193 2.312.721 4.17.726 4.19.108.375-.12.765-.51.869-.066.017-.132.025-.197.025M246.31 174.943c-.176 0-.35-.067-.485-.204-3.167-3.208-6.241-18.643-6.419-26.272-.183-7.85-1.362-11.765-1.373-11.804-.116-.376.085-.778.448-.897.363-.12.752.086.868.462.051.165 1.25 4.12 1.439 12.204.185 7.945 3.38 22.628 6.005 25.287.272.276.276.728.01 1.01-.136.143-.315.214-.494.214"/>
                <path fill="#00024E" d="M225 354.913c-4.97 0-9-4.23-9-9.449v-49.87h18v49.87c0 5.22-4.03 9.45-9 9.45M195 346.87c0 4.442-3.582 8.043-8 8.043s-8-3.601-8-8.043c0-4.442 3.582-8.043 8-8.043s8 3.6 8 8.043M270 346.87c0 4.442-3.582 8.043-8 8.043s-8-3.601-8-8.043c0-4.442 3.582-8.043 8-8.043s8 3.6 8 8.043"/>
                <path fill="#8DA7CF" d="M262.117 345.864h-75.235c-3.249 0-5.882-2.7-5.882-6.032s2.633-6.033 5.882-6.033h75.235c3.249 0 5.883 2.701 5.883 6.033 0 3.332-2.634 6.032-5.883 6.032"/>
                <path fill="#1C2B4B" d="M293.364 335.513c1.469-1.075 3.214-1.693 5.018-1.712 1.668-.018 3.59.178 4.921.976 2.842 1.706 3.238 7.247 6.107 10.278 2.869 3.03 7.233 7.342 13.855 10.131 4.764 2.007 8.099.9 10.6 3.045.622.532-.768 8.035-7.223 10.492-3.49 1.328-27.2-2.677-32.448-3.899-5.248-1.223-9.705-.411-12.784-.567-3.08-.155-13.28-2.688-12.35-9.68.93-6.99 6.375-18.097 6.375-18.097s1.082 2.871 4.822 3.66c3.115.657 9.76-2.177 13.107-4.627"/>
                <path fill="#E7EEF9" d="M47 366.476C47 368.974 63.342 371 83.5 371s36.5-2.026 36.5-4.524c0-2.5-16.342-4.525-36.5-4.525S47 363.977 47 366.476"/>
                <path fill="#7ECAE6" d="M87.828 312.686s15.566-62.495-2.742-64.268c-12.828-1.242-16.283 12.261-12.824 32.365 3.165 18.393 6.486 31.903 6.486 31.903h9.08"/>
                <path fill="#34B2CA" d="M88.003 315.78s-.421-28.662 8.837-35.716c9.258-7.056 19.003-6.636 28.195-3.087 15.99 6.173 23.986 32.63 15.57 47.18-8.416 14.552-19.358-2.355-19.358-14.55 0-9.701-1.487-26.11-11.362-27.78-13.045-2.204-14.307 33.953-14.307 33.953h-7.575M73.248 280.627c-.753-4.404-1.177-8.491-1.248-12.18 10.773 17.44 11.23 36.857 10.946 44.239h-3.224s-3.315-13.576-6.474-32.06"/>
                <path fill="#7ECAE6" d="M79.746 319.538s2.99-26.353-11.536-48.754c-11.583-17.862-45.223-46.118-44.187-29.428 1.037 16.691 25.389 35.577 35.215 46.997 9.827 11.42 15.508 33.381 15.508 33.381l5-2.196"/>
                <path fill="#EB8D2D" d="M72.927 366.978h21.146c5.488 0 10.065-4.393 10.536-10.116l3.391-41.16H59l3.39 41.16c.472 5.723 5.048 10.116 10.537 10.116"/>
                <path fill="#7ECAE6" d="M124.691 276.976c16.28 6.173 24.42 32.63 15.853 47.182-8.57 14.551-19.709-2.356-19.709-14.552 0-.779-.01-1.605-.034-2.46.311-5.62.216-11.558-.822-16.5-2.145-10.208-9.656-13.856-14.979-15.158 6.601-1.905 13.279-.944 19.691 1.488"/>
                <path fill="#34B2CA" d="M74 312.686c-.652-5.608-1.839-11.15-3.39-16.587-.411-1.352-.795-2.715-1.274-4.046-.234-.667-.45-1.341-.7-2.004l-.753-1.985c-1.067-2.621-2.213-5.22-3.62-7.69l-.517-.93-.56-.9c-.378-.599-.744-1.205-1.132-1.795-.8-1.162-1.574-2.345-2.436-3.46-1.685-2.257-3.471-4.43-5.367-6.498-3.767-4.152-7.843-8.01-12.251-11.414 4.061 3.82 7.91 7.854 11.504 12.098.907 1.053 1.763 2.15 2.643 3.224.842 1.106 1.706 2.195 2.498 3.336.829 1.115 1.59 2.276 2.366 3.426.377.583.73 1.18 1.097 1.77l.543.886.5.911c2.728 4.827 4.739 10.07 6.507 15.377 1.717 5.333 3.167 10.767 4.342 16.28M82.667 256.382c-.37 4.688-.535 9.387-.615 14.086-.053 2.35-.043 4.7-.052 7.05.017 2.35.048 4.7.096 7.05.056 2.35.144 4.698.23 7.046.127 2.347.21 4.695.386 7.038.29 4.69.718 9.372 1.288 14.034-.063-4.704-.226-9.393-.337-14.084l-.348-14.067L83 270.466c-.098-4.691-.198-9.383-.333-14.084"/>
                <path fill="#F3B329" d="M54.007 317.713h56.986c1.66 0 3.007-1.345 3.007-3.005v-5.05c0-1.66-1.346-3.005-3.007-3.005H54.007c-1.66 0-3.007 1.346-3.007 3.005v5.05c0 1.66 1.346 3.005 3.007 3.005"/>
                <path fill="#34B2CA" d="M105 275.889c2.115-.207 4.234.001 6.272.47 2.04.466 3.994 1.267 5.789 2.33.464.237.881.56 1.314.851l.648.44c.214.149.407.329.612.491.4.34.819.655 1.204 1.01l1.117 1.114c.387.355.708.78 1.054 1.177.333.409.7.79 1.007 1.22l.906 1.304c.148.219.31.428.446.655l.392.695.798 1.38.685 1.45.343.724c.112.244.198.499.298.748l.587 1.5c.71 2.031 1.324 4.107 1.771 6.233.46 2.121.828 4.273 1.064 6.445.253 2.171.42 4.359.463 6.56.254-2.19.263-4.405.191-6.614-.029-.552-.049-1.105-.092-1.657l-.142-1.655c-.05-.551-.136-1.099-.205-1.649l-.111-.825-.145-.819c-.334-2.197-.94-4.342-1.604-6.466l-.584-1.565c-.101-.26-.19-.524-.302-.779l-.35-.76-.701-1.516-.824-1.456c-2.242-3.853-5.472-7.127-9.35-9.185-1.93-1.034-4.026-1.724-6.16-2.046-2.132-.297-4.315-.316-6.391.195"/>
            </g>
        </g>
    </g>
</svg>
