<svg xmlns="http://www.w3.org/2000/svg" width="482" height="320" viewBox="0 0 482 320">
    <g fill="none" fill-rule="evenodd">
        <g>
            <g>
                <g>
                    <path fill="#F2F7FF" d="M470.857 207.837c2.704 53.535-33.3 81.02-85.23 87.55-58.251 7.324-118.063-2.554-176.069-7.578-21.851-1.893-43.774-3.317-65.722-3.196-20.683.112-43.074 5.771-63.392 2.64-50.79-7.832-76.965-59.937-69.05-105.382 3.697-21.23 11.862-44.717 30.215-57.609 18.46-12.967 39.932-9.65 60.17-4.02 36.855 10.253 77.012 29.494 116.062 21.964 22.379-4.315 41.885-16.984 63.14-24.567 21.191-7.56 43.833-12.269 66.366-12.62 29.464-.459 59.593 7.237 83.42 25.236 25.126 18.982 38.583 47.699 40.09 77.582" transform="translate(-137.000000, -852.000000) translate(137.000000, 852.000000)"/>
                    <path fill="#6F3428" d="M434 253.123s-20.478 14.127-44 1.886L411.999 243 434 253.123M283.961 157s-20.011 37.054-13.747 48L293 192.511 283.961 157" transform="translate(-137.000000, -852.000000) translate(137.000000, 852.000000)"/>
                    <path fill="#FFC4AE" d="M275.457 194c-2.442-1.853-4.794-3.934-7.055-6.202-4.447-4.481-8.54-9.68-12.272-15.23v-.008c-2.505-3.725-4.847-7.616-7.016-11.552-6.273-11.356-11.175-23.11-14.66-32.522-3.64-9.817-5.756-17.1-6.318-18.768-.064-.194-.108-.314-.136-.35l10.556-30.78c5.102-8.297 7.961 18.63 7.961 18.63 1.407-.84 3.115-3.3 4.121-4.628 1.135-1.503 2.008.876 2.161 1.724.881 4.95-3.04 14.362-3.04 14.362l25.17 37.463c1.543 2.296 3.27 4.462 5.138 6.462 1.199 1.29 2.47 2.518 3.796 3.67 2.233 9.633 2.005 28.207-8.406 37.729" transform="translate(-137.000000, -852.000000) translate(137.000000, 852.000000)"/>
                    <path fill="#EE6F57" d="M433 252.86c-13.83-2.715-24.73-2.54-33.93-.7-3.342.673-6.455 1.555-9.413 2.615l-2.786 10.058-9.063 32.814-3.25 11.735-1.826 6.618h-98.1l15.521-102.018-19.153-8.91c1.233-1.83 2.366-3.985 3.414-6.37 5.815-13.207 8.938-33.226 10.07-41.702 5.476 4.748 11.93 8.301 18.97 10.326 8.353 2.402 18.42 4.483 27.842 4.26l.968-.025c21.79-.857 31.513 5.816 31.513 5.816 4.928.985 17.783 5.964 29 10.943 4.95 2.183 9.578 4.373 13.083 6.212 9.421 4.962 16.259 13.78 18.795 24.19L433 252.86" transform="translate(-137.000000, -852.000000) translate(137.000000, 852.000000)"/>
                    <path fill="#EFC9C2" d="M257 173c-.019-.027-.037-.053-.058-.08.02.027.04.053.058.08m-.074-.107c-.01-.01-.016-.022-.026-.033.01.011.016.022.026.033m-9.898-15.842l-.028-.049V157l.028.051" transform="translate(-137.000000, -852.000000) translate(137.000000, 852.000000)"/>
                    <path fill="#C89186" d="M381 284L381 284 386.863 263.891 388 260 381 284" transform="translate(-137.000000, -852.000000) translate(137.000000, 852.000000)"/>
                    <path fill="#FFC4AE" d="M379 159l-2.816 21.33c-1.047 7.969-8.166 13.882-16.455 13.664-8.882-.229-15.729-7.303-15.729-15.618 0-.81.064-1.641.197-2.472l.508-3.12 1.987-12.168 11.19-.557L379 159" transform="translate(-137.000000, -852.000000) translate(137.000000, 852.000000)"/>
                    <path fill="#102048" d="M341 124.902c.303-3.152 1.77-6.908 3.441-10.315 3.198-6.51 9.385-11.03 16.534-12.067 10.74-1.556 24.63-.038 32.191 10.328 8.526 11.686 1.441 35.053-7.7 37.047-9.141 1.993-44.466-24.993-44.466-24.993" transform="translate(-137.000000, -852.000000) translate(137.000000, 852.000000)"/>
                    <path fill="#FFC4AE" d="M385 130.405l-1.667 8.44-.41 2.067-2.58 13.063-1.164 5.873-5.692 3.327s-1.555 1.016-4.414 2.113l-.01.009c-4.313 1.668-11.586 3.518-20.92 2.321-.653-.08-1.267-.227-1.843-.427-4.397-1.459-6.651-5.965-7.638-11.575-.728-4.125-.782-8.848-.514-13.408.42-7.152 1.64-13.906 2.274-17.26 9.79-8.512 23.155-10.062 33.065-11.948L385 130.405" transform="translate(-137.000000, -852.000000) translate(137.000000, 852.000000)"/>
                    <path fill="#102048" d="M341 124.064c15.262-12.237 35.821.16 35.821.16s-3.142 19.274 2.936 17.683C385.835 140.316 392 127.43 392 127.43L378.09 107l-30.43 5.34-6.66 11.724" transform="translate(-137.000000, -852.000000) translate(137.000000, 852.000000)"/>
                    <path fill="#FFC4AE" d="M378.202 143.031c3.03-5.127 8.932-6.77 12.105-2.883 3.17 3.889 3.294 16.124-12.307 13.482l.202-10.599" transform="translate(-137.000000, -852.000000) translate(137.000000, 852.000000)"/>
                    <path fill="#102048" d="M202 119s20.298 9.877 16.534 26.264L205.112 149 202 119" transform="translate(-137.000000, -852.000000) translate(137.000000, 852.000000)"/>
                    <path fill="#FFC4AE" d="M202 119.742c2.133-2.12 13.054-14.313 12.675-29.552-.29-11.556 4.781-6.337 5.434 1.638 0 0 2.79-16.31 10.48-14.657l-2.258 3.126s2.915-5.523 5.267-4.046c2.355 1.478.222 6.204.222 6.204s1.099-4.097 3.116-4.41c2.018-.313 3.869 6.107-.644 22.86 0 0 4.89-4.897 6.82-5.724 1.933-.827 1.803 11.99-11.902 25.63C217.507 134.45 207.812 145 207.812 145L202 119.742" transform="translate(-137.000000, -852.000000) translate(137.000000, 852.000000)"/>
                    <path fill="#708CD5" d="M122 186.02c.486.754 80.687-67.02 80.687-67.02L219 145.179 137.138 242 122 186.02" transform="translate(-137.000000, -852.000000) translate(137.000000, 852.000000)"/>
                    <path fill="#223D6A" d="M89.224 244.854s-27.907-10.926-39.304 9.977C35.59 281.114 57.122 312 57.122 312H95l-5.776-67.146" transform="translate(-137.000000, -852.000000) translate(137.000000, 852.000000)"/>
                    <path fill="#102048" d="M60.965 252.262c-.7.743-1.297 1.582-1.834 2.456-.54.872-.987 1.805-1.393 2.753-.805 1.899-1.419 3.887-1.844 5.914-.857 4.06-1.131 8.24-.94 12.389.176 4.156.857 8.28 1.87 12.312 1.033 4.03 2.469 7.95 4.176 11.752l-.318.162c-.465-.935-.957-1.862-1.373-2.825-.213-.479-.443-.95-.64-1.436l-.603-1.455c-.756-1.962-1.436-3.954-2.009-5.982-1.115-4.064-1.832-8.257-2.008-12.484-.179-4.224.118-8.489 1.097-12.61.485-2.058 1.15-4.079 2.032-6 .452-.954.947-1.891 1.537-2.767.582-.881 1.238-1.713 2.002-2.441l.248.262" transform="translate(-137.000000, -852.000000) translate(137.000000, 852.000000)"/>
                    <path fill="#1C2B4B" d="M160.827 152.308c9.058 5.561 15.319 2.254 17.148-3.746 1.83-6 8.516-28.606-19.434-24.962 0 0-34.254-13.89-48.748 6.604-12.787 18.079-1.055 30.577-20.592 45.567-13.624 10.454-29.069 28.82 1.568 60.229l33.228-9.209 36.83-74.483" transform="translate(-137.000000, -852.000000) translate(137.000000, 852.000000)"/>
                    <path fill="#1C2B4B" d="M150.892 178c.683 3.267 8.076 11.728 11.033 14.904 8.944 9.594 10.917 27.595-14.58 33.096L133 191.765 150.892 178" transform="translate(-137.000000, -852.000000) translate(137.000000, 852.000000)"/>
                    <path fill="#FFC4AE" d="M153 182.436L145.038 218 118 212.463 124.361 170 151.933 181.972 153 182.436" transform="translate(-137.000000, -852.000000) translate(137.000000, 852.000000)"/>
                    <path fill="#FFC4AE" d="M169.425 175.208c-1.047 8-3.69 14.148-9.338 14.699C144.473 191.43 122 173.814 122 173.814l1.212-32.262L140.192 131l27.483 5.138c.33 3.643 2.015 14.782 2.288 25.986.11 4.514-.01 9.037-.538 13.084" transform="translate(-137.000000, -852.000000) translate(137.000000, 852.000000)"/>
                    <path fill="#1C2B4B" d="M171 141.355l-3.358 2.662c-17.508-14.063-13.879 6.196-15.505 12.684-1.624 6.487-9.922 4.778-16.396.584l-1.155 9.083-19.457.632L114 141.615 133.403 126l35.918 7.213 1.679 8.142" transform="translate(-137.000000, -852.000000) translate(137.000000, 852.000000)"/>
                    <path fill="#1C2B4B" d="M146.344 235c9.721-5.19 6.965-18.732 3.18-23.367-3.783-4.635-19.863-12.41-21.813-27.003-1.085-8.117 7.162-17.699 7.162-17.699L118.143 158 101 184.817l12.934 46.054 32.41 4.129" transform="translate(-137.000000, -852.000000) translate(137.000000, 852.000000)"/>
                    <path fill="#708CD5" d="M158 308.944L76.598 309c-3.555-52.07 9.436-78.694 20.669-91.773 7.073-8.23 17.756-12.3 28.53-10.983 9.373 1.153 17.507 5.602 25.753 24.987l-38.534 17.902 24.737 43.51c2.483 4.376 6.084 8.019 10.426 10.562l9.821 5.74" transform="translate(-137.000000, -852.000000) translate(137.000000, 852.000000)"/>
                    <path fill="#1F3C88" d="M113 249s12.135 48.455 16.632 54.83c4.682 6.64 14.735 4.972 32.254 5.01 54.257.116 0 0 0 0l-22.132-49.191L113 249" transform="translate(-137.000000, -852.000000) translate(137.000000, 852.000000)"/>
                    <path fill="#708CD5" d="M212 295.786l-3.508 12.917-46.61.297h-3.818l-9.839-5.76c-4.35-2.553-7.957-6.209-10.445-10.601L113 248.969 151.602 231c4.15 9.746 8.317 23.268 12.675 42.007.588 2.527 2.342 4.64 4.718 5.679l43.005 17.1" transform="translate(-137.000000, -852.000000) translate(137.000000, 852.000000)"/>
                    <path fill="#FFC4AE" d="M141 159.802c-1.41-7.763-10.693-8.791-12.31-3.545-1.615 5.244-1.221 14.255 10.437 13.72L141 159.802" transform="translate(-137.000000, -852.000000) translate(137.000000, 852.000000)"/>
                    <path fill="#8986BC" d="M168 178c.193-.896.362-1.82.504-2.768.206-1.363.362-2.773.475-4.22.008-.003.016-.007.021-.012-.182 2.542-.496 5.002-1 7" transform="translate(-137.000000, -852.000000) translate(137.000000, 852.000000)"/>
                    <path fill="#E48569" d="M169 171c.45-1.53.72-3.099.84-4.685-.1 1.533-.34 3.12-.76 4.673-.02.005-.05.01-.08.012m.75-9.953V161v.047" transform="translate(-137.000000, -852.000000) translate(137.000000, 852.000000)"/>
                    <path fill="#1F3C88" d="M303.569 309L206 309 224.431 230 322 230 303.569 309" transform="translate(-137.000000, -852.000000) translate(137.000000, 852.000000)"/>
                    <path fill="#162B62" d="M303.57 309H206c46.672-7.66 88.112-14.778 116-79l-14.43 61.848-.176.11c-5.4 3.436-13.163 7.68-18.12 11.538-2.243 1.736-.693 5.245.822 5.245l13.543-.045-.07.304" transform="translate(-137.000000, -852.000000) translate(137.000000, 852.000000)"/>
                    <path fill="#FFF" d="M269.368 271.328c-1.477 3.646-5.08 5.557-8.043 4.272-2.967-1.288-4.171-5.283-2.694-8.93 1.477-3.643 5.08-5.556 8.045-4.269 2.965 1.285 4.171 5.283 2.692 8.927" transform="translate(-137.000000, -852.000000) translate(137.000000, 852.000000)"/>
                    <path fill="#FFC4AE" d="M425 251.58l-1.631 43.447v.044c-.111 2.684-.835 5.278-2.069 7.618-1.235 2.322-2.997 4.389-5.185 6.03h-40.847l-85.31.281c-1.523 0-3.08-3.464-.827-5.178 4.981-3.809 12.78-7.998 18.207-11.39 2.995-1.867 6.567-2.683 10.09-2.239 5.873.734 14.34 3.645 24.876.608 1.827-.527 3.682-.935 5.557-1.216l34.335-5.159 13.513-2.03.38-22.382.123-6.773c1.287-.336 2.605-.636 3.96-.9 7.095-1.377 15.19-1.803 24.828-.76" transform="translate(-137.000000, -852.000000) translate(137.000000, 852.000000)"/>
                    <path fill="#D3DFFF" d="M0 320L459 320 459 309 0 309z" transform="translate(-137.000000, -852.000000) translate(137.000000, 852.000000)"/>
                    <path fill="#02D8FB" d="M49.857 156v-11.365l-.666.329c-.684.337-1.424.509-2.2.509-2.752 0-4.991-2.23-4.991-4.97 0-2.744 2.24-4.975 4.991-4.975.773 0 1.514.17 2.203.504l.663.322V125h9.886c-.155.528-.234 1.076-.234 1.636 0 3.25 2.656 5.893 5.92 5.893 3.263 0 5.919-2.644 5.919-5.893 0-.56-.079-1.108-.234-1.636H81v9.934c-.616-.216-1.267-.324-1.943-.324-3.264 0-5.92 2.644-5.92 5.893 0 3.246 2.656 5.887 5.92 5.887.661 0 1.322-.113 1.943-.33V156H49.857M420.857 191v-11.365l-.666.329c-.684.337-1.424.509-2.2.509-2.752 0-4.991-2.23-4.991-4.97 0-2.744 2.24-4.975 4.991-4.975.773 0 1.514.17 2.203.504l.663.322V160h9.886c-.155.528-.234 1.076-.234 1.636 0 3.25 2.656 5.893 5.92 5.893 3.263 0 5.919-2.644 5.919-5.893 0-.56-.079-1.108-.234-1.636H452v9.934c-.616-.216-1.267-.324-1.943-.324-3.264 0-5.92 2.644-5.92 5.893 0 3.246 2.656 5.887 5.92 5.887.661 0 1.322-.113 1.943-.33V191h-31.143" transform="translate(-137.000000, -852.000000) translate(137.000000, 852.000000)"/>
                    <path fill="#FFF" d="M471.733 136c-.976-2.02-3.029-3.309-5.31-3.309-2.282 0-4.332 1.29-5.299 3.309H450.85v-11.271l-.624.309c-.688.34-1.43.513-2.208.513-2.767 0-5.018-2.225-5.018-4.96 0-2.739 2.251-4.967 5.018-4.967.784 0 1.528.171 2.208.508l.624.309v-11.265h11.042l-.2-.569c-.188-.527-.283-1.08-.283-1.64 0-2.739 2.249-4.967 5.014-4.967 2.767 0 5.018 2.228 5.018 4.966 0 .562-.095 1.114-.283 1.641l-.2.569H482V136h-10.267" transform="translate(-137.000000, -852.000000) translate(137.000000, 852.000000)"/>
                    <path fill="#FBC343" d="M231 16L233 16 233 0 231 0zM219 19.62L205.11 10 204 11.38 217.89 21M247.11 21L261 11.38 259.89 10 246 19.62M226 17.252L222.869 9 221 9.748 224.131 18M240.867 18L244 9.748 242.13 9 239 17.252M246 35.57c0-7.152-6.65-12.908-14.704-12.555-7.14.314-12.985 5.601-13.283 12.015-.169 3.578 1.335 6.838 3.865 9.21 2.682 2.517 4.33 5.777 4.33 9.26v.5h12.055v-1.036c0-3.328 1.533-6.455 4.042-8.902C244.6 41.828 246 38.848 246 35.569M232.501 63c-3.04 0-5.501-2.56-5.501-5.717V57h11v.283c0 3.157-2.462 5.717-5.499 5.717" transform="translate(-137.000000, -852.000000) translate(137.000000, 852.000000)"/>
                    <path fill="#E4ECF7" d="M348 66.585v-7.17h-3.422c-.443-2.017-1.25-3.898-2.353-5.57l2.453-2.452-5.07-5.07-2.514 2.512c-1.663-1.04-3.522-1.796-5.508-2.197V43h-7.172v3.763c-1.91.455-3.695 1.238-5.29 2.29l-2.73-2.73-5.072 5.07 2.79 2.79c-.99 1.586-1.722 3.35-2.134 5.232H308v7.17h3.978c.412 1.882 1.144 3.645 2.134 5.232l-2.79 2.79 5.072 5.07 2.73-2.73c1.595 1.051 3.38 1.834 5.29 2.29V83h7.172v-3.638c1.986-.401 3.845-1.158 5.508-2.198l2.514 2.513 5.07-5.07-2.453-2.452c1.103-1.672 1.91-3.553 2.353-5.57H348" transform="translate(-137.000000, -852.000000) translate(137.000000, 852.000000)"/>
                    <path fill="#FFF" d="M339 63c0 6.075-4.923 11-10.999 11C321.925 74 317 69.075 317 63s4.925-11 11.001-11S339 56.925 339 63" transform="translate(-137.000000, -852.000000) translate(137.000000, 852.000000)"/>
                    <path fill="#E4ECF7" d="M384.397 55.427l1.603-4.91-2.343-.766c.146-1.48.013-2.95-.368-4.34l2.227-1.132-2.339-4.606-2.28 1.159c-.91-1.085-2.014-2.018-3.284-2.737l.815-2.492L373.516 34l-.842 2.578c-1.41-.116-2.808.021-4.136.384l-1.26-2.48-4.606 2.34 1.287 2.534c-1.032.865-1.929 1.91-2.633 3.106l-2.723-.89L357 46.485l2.724.89c-.137 1.38-.03 2.752.293 4.06l-2.535 1.287 2.339 4.607 2.48-1.26c.859 1.077 1.906 2.012 3.114 2.751l-.843 2.578L369.484 63l.814-2.492c1.45.17 2.892.067 4.264-.273l1.16 2.283 4.604-2.34-1.13-2.227c1.128-.9 2.102-2.007 2.856-3.289l2.345.765" transform="translate(-137.000000, -852.000000) translate(137.000000, 852.000000)"/>
                    <path fill="#FFF" d="M378.603 50.482c-1.37 4.199-5.885 6.492-10.084 5.121-4.199-1.37-6.493-5.886-5.122-10.085 1.371-4.199 5.887-6.492 10.086-5.12 4.199 1.37 6.49 5.885 5.12 10.084" transform="translate(-137.000000, -852.000000) translate(137.000000, 852.000000)"/>
                    <path fill="#E4ECF7" d="M158.578 70.172l3.649-4.983-2.378-1.742c.719-1.628 1.113-3.346 1.199-5.07l2.952-.456-.942-6.104-3.025.467c-.629-1.57-1.534-3.042-2.711-4.332l1.852-2.528-4.984-3.65-1.916 2.616c-1.56-.657-3.2-1.022-4.843-1.104L146.922 40l-6.106.943.52 3.36c-1.497.598-2.902 1.451-4.148 2.549l-2.764-2.024-3.65 4.983 2.764 2.024c-.67 1.52-1.06 3.117-1.179 4.724l-3.359.52.943 6.104 3.287-.508c.574 1.543 1.416 2.996 2.513 4.285l-1.916 2.616 4.984 3.65 1.852-2.529c1.584.733 3.263 1.153 4.949 1.277l.466 3.026 6.107-.943-.456-2.953c1.615-.601 3.134-1.497 4.469-2.674l2.38 1.742" transform="translate(-137.000000, -852.000000) translate(137.000000, 852.000000)"/>
                    <path fill="#FFF" d="M154.164 62.113c-3.1 4.232-9.045 5.15-13.277 2.05-4.232-3.099-5.15-9.043-2.051-13.276 3.1-4.232 9.045-5.15 13.277-2.05 4.232 3.099 5.151 9.043 2.05 13.276" transform="translate(-137.000000, -852.000000) translate(137.000000, 852.000000)"/>
                    <path fill="#E4ECF7" d="M113.89 58.78l3.583-2.575-1.23-1.71c.85-.945 1.499-2.024 1.939-3.175l2.105.344.713-4.353-2.158-.353c-.078-1.205-.367-2.405-.88-3.542l1.818-1.306-2.575-3.583-1.88 1.352c-.914-.792-1.946-1.403-3.044-1.823l.384-2.343L108.31 35l-.392 2.396c-1.149.074-2.292.342-3.381.811l-1.428-1.987-3.582 2.575 1.427 1.987c-.791.882-1.41 1.88-1.846 2.946l-2.396-.393L96 47.69l2.344.384c.048 1.174.298 2.347.757 3.466l-1.88 1.351 2.574 3.582 1.818-1.306c.913.849 1.959 1.505 3.076 1.964l-.353 2.157 4.353.713.345-2.106c1.231-.05 2.46-.321 3.628-.824l1.228 1.71" transform="translate(-137.000000, -852.000000) translate(137.000000, 852.000000)"/>
                    <path fill="#FFF" d="M113.085 52.684c-3.14 2.256-7.513 1.54-9.769-1.6-2.256-3.138-1.54-7.512 1.6-9.768 3.138-2.256 7.512-1.54 9.768 1.6 2.256 3.138 1.54 7.512-1.6 9.768" transform="translate(-137.000000, -852.000000) translate(137.000000, 852.000000)"/>
                </g>
            </g>
        </g>
    </g>
</svg>
