<svg xmlns="http://www.w3.org/2000/svg" width="562" height="312" viewBox="0 0 562 312">
    <g fill="none" fill-rule="evenodd">
        <g>
            <g>
                <path fill="#F2F7FF" d="M19.964 310.09s-32.98-118.572 15.268-189.37c62.232-91.32 142.653-14.986 172.83-17.213 30.176-2.224 31.876-89.847 122.04-100.312 69.713-8.093 184.203-8.73 159.778 134.426-18.57 108.84 84.75 52.464 64.632 172.701l-534.548-.231" transform="translate(-743.000000, -856.000000) translate(743.000000, 856.000000)"/>
                <path fill="#34B2CA" d="M91.655 247.73s-9.812-11.483-.605-18.775c0 0 6.722-4.086 12.206-3.754 0 0-7.768 13.069-5.256 14.369 2.514 1.3 7.612-15.19 7.612-15.19s15.301-1.487 20.223.888c0 0-13.081 10.74-10.325 11.378 2.753.638 16.883-9.902 16.883-9.902s14.241 2.43 13.484 11.147c-.76 8.717-5.668 11.407-7.825 11.176-2.157-.231-14.775-5.062-15.048-3.291-.274 1.774 7.32 7.567 12.637 7.838 0 0-10.04 11.11-16.712 7.903-6.673-3.207-7.244-8.29-11.402-10.194-4.162-1.907-7.713-1.9-5.994.044 1.717 1.941 9.245 3.83 11.624 8.052 2.379 4.221 4.513 7.07-2.39 6.027-6.904-1.043-18.127-6.11-18.62-11.912l-.492-5.805" transform="translate(-743.000000, -856.000000) translate(743.000000, 856.000000)"/>
                <path fill="#29A7BF" d="M138.878 238.125s-38.68-1.494-47.223 9.604c0 0-1.89 5.677-7.704 10.843l-.904 2.48s6.701-7.09 9.1-7.518c0 0-3.752-13.75 46.731-15.409" transform="translate(-743.000000, -856.000000) translate(743.000000, 856.000000)"/>
                <path fill="#29A7BF" d="M83.951 258.572s-8.303 6.163-8.879 17.168l1.506.136s2.653-11.38 7.445-15.83c4.792-4.452-.072-1.474-.072-1.474" transform="translate(-743.000000, -856.000000) translate(743.000000, 856.000000)"/>
                <path fill="#5CBFDB" d="M57.354 233.289s15.607-8.766 8.323-20.667c0 0-5.826-7.304-12.07-9.182 0 0 3.33 17.743 0 18.159-3.329.419-2.286-20.04-2.286-20.04s-16.44-7.931-22.89-7.304c0 0 10.195 17.324 6.865 16.908-3.329-.42-14.771-17.954-14.771-17.954S3.668 190.077.964 200.097c-2.704 10.02 1.664 15.033 4.161 15.657 2.497.627 18.519.419 18.104 2.505-.417 2.089-11.238 5.429-17.271 3.548 0 0 6.658 16.492 15.4 15.657 8.737-.835 11.441-6.262 16.853-6.68 5.409-.417 9.363 1.043 6.658 2.505-2.704 1.461-11.86.48-16.231 4.206-4.37 3.727-7.906 6.022.21 7.692 8.113 1.67 22.68.626 25.592-5.635l2.914-6.263" transform="translate(-743.000000, -856.000000) translate(743.000000, 856.000000)"/>
                <path fill="#5CBFDB" d="M8.662 203.229s43.698 14.195 48.692 30.06c0 0-.21 7.098 4.162 15.237v3.132s-4.58-10.646-7.076-12.106c0 0 9.78-13.778-45.778-36.323M61.516 248.526s6.739 10.269 2.897 22.765l-1.734-.468s1.682-13.765-1.843-20.687c-3.525-6.923.68-1.61.68-1.61M82.183 221.197S61.61 209.64 71.21 193.957c0 0 7.68-9.633 15.909-12.109 0 0-4.39 23.389 0 23.94 4.39.55 3.015-26.416 3.015-26.416s21.67-10.456 30.174-9.63c0 0-13.44 22.837-9.052 22.288 4.39-.55 19.475-23.666 19.475-23.666s22.216-4.126 25.782 9.08c3.565 13.21-2.195 19.813-5.487 20.639-3.289.826-24.41.552-23.86 3.302.547 2.754 14.808 7.154 22.763 4.678 0 0-8.775 21.739-20.295 20.638-11.52-1.1-15.086-8.255-22.22-8.806-7.13-.55-12.34 1.378-8.775 3.302 3.565 1.927 15.633.633 21.393 5.544 5.76 4.912 10.422 7.94-.274 10.142-10.696 2.201-29.897.823-33.736-7.431l-3.84-8.255" transform="translate(-743.000000, -856.000000) translate(743.000000, 856.000000)"/>
                <path fill="#34B2CA" d="M146.364 181.574s-57.6 18.71-64.181 39.623c0 0 .273 9.355-5.487 20.089v4.126s6.034-14.033 9.326-15.96c0 0-12.891-18.16 60.342-47.878" transform="translate(-743.000000, -856.000000) translate(743.000000, 856.000000)"/>
                <path fill="#34B2CA" d="M76.696 241.286s-8.884 13.53-3.819 30.005l2.284-.615s-2.217-18.145 2.431-27.272c4.645-9.124-.896-2.118-.896-2.118" transform="translate(-743.000000, -856.000000) translate(743.000000, 856.000000)"/>
                <path fill="#EB8D2D" d="M81.489 307.01c22.253 0 40.297-18.097 40.297-40.423H41.192c0 22.326 18.04 40.424 40.297 40.424" transform="translate(-743.000000, -856.000000) translate(743.000000, 856.000000)"/>
                <path fill="#EB8D2D" d="M122.341 309.068H40.636c0-2.753 2.226-4.987 4.97-4.987h71.765c2.744 0 4.97 2.234 4.97 4.987" transform="translate(-743.000000, -856.000000) translate(743.000000, 856.000000)"/>
                <path fill="#F3B329" d="M39.867 267.827L122.701 267.827 122.701 266.587 39.867 266.587z" transform="translate(-743.000000, -856.000000) translate(743.000000, 856.000000)"/>
                <path fill="#060632" d="M480.11 295.385s.835 13.513 3.441 13.706c.346.026 13.216.026 13.216.026l16.43-.095s-.109-3.973-4.91-4.81c-4.803-.842-12.842-4.228-15.75-10.596-3.062-6.697-12.428 1.769-12.428 1.769" transform="translate(-743.000000, -856.000000) translate(743.000000, 856.000000)"/>
                <path fill="#FDB3B1" d="M471.34 135.577s7.756 4.426 9.927 4.423c2.172 0 10.697-1.653 13.073-.433 2.376 1.216 6.675 6.116 7.482 7.717 1.451 2.88-5.84 1.61-9.288-.844-.501-.355-1.123-.488-1.722-.355-1.786.39-5.496 1.066-7.284.401-2.408-.895-15.091-1.886-15.091-1.886l2.903-9.023" transform="translate(-743.000000, -856.000000) translate(743.000000, 856.000000)"/>
                <path fill="#ED6966" d="M412.329 75.315s8.04 57.332 21.355 62.466c6.57 2.534 35.602 8.278 44.19 8.853 0 0 2.106-1.71 1.593-8.68 0 0-30.418-11.204-34.741-17.297-6.431-9.068 3.991-37.044-4.078-45.561-8.07-8.516-21.664-12.176-28.32.219" transform="translate(-743.000000, -856.000000) translate(743.000000, 856.000000)"/>
                <path fill="#4443A8" d="M415.039 196.1c2.344 3.99 5.057 7.733 7.853 11.275 8.643 10.944 18.05 19.967 19.688 28.497.326 1.701.844 3.533 1.52 5.46.683 1.956 1.53 4.01 2.506 6.134 3.667 7.992 9.15 16.946 14.628 25.085 9.464 14.07 18.366 25.812 18.366 25.812l16.324-.699c-.654-1.641-7.776-21.068-17.298-44.812-3.868-9.639-7.98-19.89-11.949-29.777-.527-1.32-1.057-2.635-1.581-3.938-1.212-3.025-2.405-6.004-3.571-8.905l-16.065-40.045s-35.74-13.582-39.453-4.782c-3.061 7.258-.567 14.366 9.032 30.696" transform="translate(-743.000000, -856.000000) translate(743.000000, 856.000000)"/>
                <path fill="#060632" d="M442.312 256.781s-11.353 7.319-10.252 9.696c.146.315 6.422 11.59 6.422 11.59l8.093 14.344s3.404-2.028 1.794-6.645c-1.613-4.617-2.583-13.308 1.54-18.96 4.338-5.948-7.597-10.025-7.597-10.025" transform="translate(-743.000000, -856.000000) translate(743.000000, 856.000000)"/>
                <path fill="#4443A8" d="M447.868 269.647s-7.096-6.278-8.346-10.884c0 0 29.234-35.145 35.58-43.021.29-.361.215-.76-.17-1.193-4.787-5.418-57.984-16.429-64.939-27.28-2.396-3.74-3.753-7.29-4.49-10.39-1.578-6.623-.331-11.196-.331-11.196l53.127-1.54s44.237 27.63 49.245 46.47c5.009 18.841-59.676 59.034-59.676 59.034" transform="translate(-743.000000, -856.000000) translate(743.000000, 856.000000)"/>
                <path fill="#353495" d="M474.931 214.549c-4.786-5.418-57.983-16.429-64.938-27.28-2.396-3.74-3.753-7.29-4.49-10.39v-6.747l22.58-3.562s6.401 19.768 25.37 27.179c17.76 6.946 21.124 19.266 21.478 20.8" transform="translate(-743.000000, -856.000000) translate(743.000000, 856.000000)"/>
                <path fill="#FDB3B1" d="M443.761 71.702c-10.745 2.787-28.564-7.203-28.564-7.203s6.918-4.665 9.484-14.912c.13-.516.245-1.045.351-1.589 1.126-.24 3.249-.692 5.518-1.173l8.211 7.378s-.187 3.064-1.215 8.33c-.179.918-.38 1.904-.62 2.954 4.407 2.738 6.835 6.215 6.835 6.215" transform="translate(-743.000000, -856.000000) translate(743.000000, 856.000000)"/>
                <path fill="#FA7269" d="M403.818 116.395c1.538 20.774-.486 52.365 1.259 57.837 1.509 4.718 18.682 1.913 25.537.338 2.537-.584 5.61-1.419 8.784-2.404 8.853-2.747 18.5-6.677 19.535-9.592.04-.113.075-.225.095-.335.095-.422.075-.82-.017-1.222-.346-1.486-1.677-3.092-1.832-6.773-.176-4.108-.15-8.945-.303-14.149-.008-.583-.017-1.225-.08-1.805l-.003-.214c-.003-.113-.006-.223-.006-.332-.15-5.802-.452-11.901-.803-17.951-.222-3.8-.478-7.562-.778-11.167-.772-9.305-1.811-17.58-3.188-22.811-2.252-8.528-7.214-14.09-11.73-18.165l-3.27-2.812c-3.645.799-7.954.269-11.853-1.584-4.22-2.01-5.677-3.45-6.411-2.908-9.746 7.543-16.756 30.655-14.936 56.05" transform="translate(-743.000000, -856.000000) translate(743.000000, 856.000000)"/>
                <path fill="#ED6966" d="M439.398 172.166c8.853-2.747 18.5-6.677 19.535-9.592.04-.113.075-.225.095-.335-.006-.408-.009-.815-.017-1.222-.346-1.486-1.677-3.092-1.832-6.773-.176-4.108-.15-8.945-.303-14.149-.008-.583-.017-1.225-.08-1.805l-.003-.214c-.003-.113-.006-.223-.006-.332l-35.792-45.747s-24.06 50.26 18.403 80.17" transform="translate(-743.000000, -856.000000) translate(743.000000, 856.000000)"/>
                <path fill="#FDB3B1" d="M438.761 54.203s-.187 3.064-1.215 8.33c-8.018-2.6-11.653-9.865-12.865-12.946.13-.516.245-1.045.351-1.589 1.126-.24 3.249-.692 5.518-1.173l8.211 7.378" transform="translate(-743.000000, -856.000000) translate(743.000000, 856.000000)"/>
                <path fill="#FDB3B1" d="M439.838 58.846s-17.481-2.927-15.497-13.82c1.984-10.895 1.066-18.61 12.31-17.201 11.246 1.408 12.651 5.961 12.87 9.76.219 3.797-5.083 21.742-9.683 21.261" transform="translate(-743.000000, -856.000000) translate(743.000000, 856.000000)"/>
                <path fill="#3D4571" d="M508.653 152.057L510.194 152.56 523.312 112.062 521.772 111.559 508.653 152.057" transform="translate(-743.000000, -856.000000) translate(743.000000, 856.000000)"/>
                <path fill="#3D4571" d="M465.721 148.934L510.252 149.887 510.194 152.56 465.663 151.606 465.721 148.934" transform="translate(-743.000000, -856.000000) translate(743.000000, 856.000000)"/>
                <path fill="#FDB3B1" d="M466.556 153.739s14.308 3.784 19.673 3.389c5.366-.4 9.83-2.959 10.504-4.294.674-1.338 2.094-3.707-1.558-3.27-3.655.439-8.643 1.216-8.796.51-.155-.701 2.978-.635 2.978-.635s.948-1.38-.245-1.43c-1.195-.052-4.671-.997-5.964-.35-1.29.648-2.483 3.04-3.427 2.942-.945-.101-11.973-4.987-11.973-4.987l-1.192 8.125" transform="translate(-743.000000, -856.000000) translate(743.000000, 856.000000)"/>
                <path fill="#FA7269" d="M415.877 77.667s1.69 57.872 14.36 64.448c6.252 3.245 34.476 12.164 42.949 13.686 0 0 2.278-1.467 2.534-8.45 0 0-29.001-14.502-32.627-21.034-5.394-9.725 8.04-36.378.956-45.735-7.085-9.357-20.195-14.498-28.172-2.915" transform="translate(-743.000000, -856.000000) translate(743.000000, 856.000000)"/>
                <path fill="#120F59" d="M424.681 49.587s-.202-3.738 2.097-5.879c0 0-.801-3.747.676-4.365 1.478-.618 1.786 2.533 2.463 2.039.68-.495 3.695-2.842 4.988-6.301 1.293-3.46 13.127.73 14.507 1.353 1.38.623 5.814-1.662 6.675-3.515 0 0-2.462-1.977-3.57-3.46-1.11-1.482-8.868-11.49-19.706-8.648-10.837 2.842-12.315 8.03-11.698 12.478.616 4.448-.873 14.806 3.568 16.298" transform="translate(-743.000000, -856.000000) translate(743.000000, 856.000000)"/>
                <path fill="#0E0E38" d="M96.047 71.803l9.325-.893c.75-.072 1.458.354 1.746 1.05l7.041 17.006c.441 1.067-.27 2.259-1.42 2.369l-9.705.93c-.76.072-1.478-.37-1.757-1.083l-6.661-17.041c-.418-1.063.296-2.229 1.431-2.338" transform="translate(-743.000000, -856.000000) translate(743.000000, 856.000000)"/>
                <path fill="#223D6A" d="M214.314 296.491l-4.948 2.635s-26.76-28.468-33.194-55.786c-1.15-4.877-1.613-9.687-1.12-14.252 0 0-.39-1.237-1.072-3.424l-.09-.292c-.299-.96-.656-2.089-1.054-3.369-1.29-4.126-3.067-9.774-5.088-16.206-4.657-14.801-15.31-48.178-19.864-62.064l32.72-11.875s3.715 8.5 9.057 31.612c.821 3.016 1.645 6.35 2.417 9.985.872 4.114 1.685 8.616 2.364 13.478 1.146 8.238 1.913 17.503 1.962 27.668.017 4.137-.084 8.425-.329 12.848-.178 3.245.303 7.567 1.204 12.485 4.121 22.481 17.035 56.557 17.035 56.557" transform="translate(-743.000000, -856.000000) translate(743.000000, 856.000000)"/>
                <path fill="#0E0E38" d="M232.23 309.068h-26.452s-.99-4.233.746-7.11c1.538-2.549.95-4.002-.19-6.111 1.198.494 2.75.942 4.455.843 1.32-.078 2.713-.676 3.934-1.39 1.14 1.304 6.014 6.845 7.537 7.943 1.731 1.248 9.438.804 9.97 5.825" transform="translate(-743.000000, -856.000000) translate(743.000000, 856.000000)"/>
                <path fill="#223D6A" d="M194.442 186.933l-20.551 38.439c-.3-.96-.657-2.089-1.055-3.369-1.29-4.126-3.067-9.774-5.088-16.206-4.657-14.801-15.31-48.178-19.864-62.064l32.72-11.875s3.715 8.5 9.057 31.612c.821 3.016 1.645 6.35 2.417 9.985.872 4.114 1.685 8.616 2.364 13.478" transform="translate(-743.000000, -856.000000) translate(743.000000, 856.000000)"/>
                <path fill="#F0AD93" d="M105.358 102.165c-.164.142-8.006-7.899-12.191-12.354l4.193-2.562 22.9 14.422-14.902.494" transform="translate(-743.000000, -856.000000) translate(743.000000, 856.000000)"/>
                <path fill="#0E0E38" d="M147.351 300.761s-.616 4.508 1.11 8.307h10.958s.083-3.282-2.708-7.4c-2.793-4.117-9.36-.907-9.36-.907" transform="translate(-743.000000, -856.000000) translate(743.000000, 856.000000)"/>
                <path fill="#1C2B4B" d="M168.948 7.425c.15-.703 2.02-8.23 13.66-6.608 0 0-5.809-.313-7.228 2.026 0 0 4.415-2.425 7.395-.877 2.984 1.549 3.874 7.419 3.577 9.247-.296 1.827-3.07 7.403-5.16 7.553-.793.057-1.657-.146-2.428-.42.388.927.751 1.939 1.074 3.055 2.966 10.316-3.407 18.78-7.14 17.07-2.393-1.097-3.847 3.072-3.847 3.072l-20.927-24.038S160.092.493 168.948 7.425" transform="translate(-743.000000, -856.000000) translate(743.000000, 856.000000)"/>
                <path fill="#FDB3B1" d="M147.53 71.887c2.73 1.9 6.154 3.468 10.451 4.463 16.111 3.733 22.283-9.926 24.601-19.301-2.197-1.262-4.262-1.54-5.457-1.683-1.164-.137-2.388-.229-3.401-.28-1.812-1.389-4.505-7.078-5.101-15.91l-.757.204-12.698 3.486s.581 4.048.867 7.875c.221 2.995.256 5.857-.311 6.557-.991.215-1.584.356-1.584.356s0 .004-.006.012c-.17.28-3.854 6.357-6.604 14.221" transform="translate(-743.000000, -856.000000) translate(743.000000, 856.000000)"/>
                <path fill="#FDB3B1" d="M153.02 46.668s17.072-.944 16.323-11.602c-.752-10.657.948-17.956-9.985-17.803-10.932.152-12.761 4.369-13.375 7.987-.61 3.618 2.578 21.39 7.036 21.418" transform="translate(-743.000000, -856.000000) translate(743.000000, 856.000000)"/>
                <path fill="#1C2B4B" d="M146.067 19.29c2.408-3.396 4.45-2.836 5.636-1.953 8.951-5.811 15.5 1.357 15.5 1.357 1.688 7.564 7.5 11.548 7.5 11.548s-2.972 2.15-10.27.817c-2.23-.407-4.294-1.827-6.092-3.6 3.25 4.668 7.448 7.897 7.448 7.897-8.841-3.353-13.133-15.048-13.568-16.286-.973 1.012-2.88 3.197-3.36 5.24-.657 2.774-.64 8.388-2.276 8.314 0 0-4.127-8.244-.518-13.335" transform="translate(-743.000000, -856.000000) translate(743.000000, 856.000000)"/>
                <path fill="#FDB3B1" d="M150.257 56.797s27.812-6.774 39.906 3.232l-6.043 84.56-54.394-13.184s1.529-5.348 11.96-19.578c10.432-14.229 5.893-35.099 8.571-55.03" transform="translate(-743.000000, -856.000000) translate(743.000000, 856.000000)"/>
                <path fill="#223D6A" d="M166.472 135.175l-.09.835c-.026.234-.057.517-.092.85-.233 2.19-.677 6.396-1.247 11.863-1.492 14.342-3.836 37.375-5.431 55.557-1.25 14.216-2.042 25.463-1.613 27.27 1.287 5.437 0 70.42 0 70.42-4.623 2.224-11.633 0-11.633 0s-12.314-58.56-10.592-66.7c1.725-8.138-1.152-15.084-1.152-15.084-9.562-44.674-8.514-69.432-6.616-81.284.553-3.447 1.178-5.801 1.636-7.237.386-1.22.654-1.78.654-1.78 21.093-5.692 36.176 5.29 36.176 5.29" transform="translate(-743.000000, -856.000000) translate(743.000000, 856.000000)"/>
                <path fill="#EB8D2D" d="M185.281 113.47s.288 23.965.144 29.65c-.144 5.686 3.992 17.117 7.852 35.495 3.813 18.156 10.55 37.944 10.289 38.058-11.342 4.955-69.426-3.6-73.27-16.799-4.913-16.87-5.85-53.687 0-69.99 4.459-12.426 13.839-24.145 14.29-25.127.427-.917.876-3.89-1.174-10.049-2.91 8.996-8.283 19.384-13.686 21.156-5.939 1.95-29.417-15.604-29.417-15.604s-.135-2.132 2.831-4.149c1.91-1.297 6.293-1.734 6.293-1.734l15.014 6.74c1.886-3.234 6.58-25.61 11.822-35.711 3.94-7.593 14.46-8.693 14.46-8.693s4.381 6.968 14.97 5.98c10.59-.988 12.529-7.492 12.529-7.492s9.392 1.253 12.286 3.595c.501.406 5.16 12.024 3.398 25.351-1.342 10.173-6.713 22.621-8.631 29.322z" transform="translate(-743.000000, -856.000000) translate(743.000000, 856.000000)"/>
                <path fill="#D87C1F" d="M185.354 144.588c-8.263-4.16-18.963-14.61-15.683-28.645 4.761-20.39 24.241-31.796 24.241-31.796-1.342 10.173-6.178 20.618-7.603 31.796-.637 8.203-.955 17.752-.955 28.645z" transform="translate(-743.000000, -856.000000) translate(743.000000, 856.000000)"/>
                <path fill="#F0AD93" d="M178.228 97.832s-11.765 1.71-12.701 2.591c-.939.88-4.185 6-3.784 7.78.4 1.78.357 3.615 1.077 3.489.72-.127 3.07-4.651 3.957-4.859.887-.208 1.619-.817 1.728-.42.107.398-1.806 2.3-1.71 2.842.094.541 1.6-.093 2.277-1.143.674-1.05 2.365-1.57 2.618-2.224.254-.654 1.42-2.821 3.004-2.722 1.581.1 3.534-5.334 3.534-5.334" transform="translate(-743.000000, -856.000000) translate(743.000000, 856.000000)"/>
                <path fill="#F0AD93" d="M189.673 97.368L178.228 97.832 174.311 103.187 189.877 103.71 189.673 97.368" transform="translate(-743.000000, -856.000000) translate(743.000000, 856.000000)"/>
                <path fill="#F3B329" d="M178.228 55.2s13.64 1.624 17.398 7.493c4.749 7.42 21.528 32.027 21.165 39.474 0 0-10.451 4.178-38.552 1.938 0 0-.512-4.264 5.4-7.685 0 0 15.086-2.072 16.748-3.541l-11.2-11.941-10.96-25.737" transform="translate(-743.000000, -856.000000) translate(743.000000, 856.000000)"/>
                <path fill="#120F59" d="M94.014 71.989l9.328-.894c.746-.071 1.454.354 1.742 1.051l7.042 17.005c.444 1.067-.27 2.26-1.417 2.369l-9.705.93c-.76.073-1.478-.369-1.757-1.083l-6.665-17.04c-.414-1.064.3-2.23 1.432-2.338" transform="translate(-743.000000, -856.000000) translate(743.000000, 856.000000)"/>
                <path fill="#F0AD93" d="M93.167 89.81s-2.465-4.261-2.278-5.312c.184-1.05 2.733-5.92 4.043-6.404 2.339-.864 5.622-1.4 4.72 1.072-.595 1.63-2.957 3.994-2.545 4.735.409.741.253 3.348.253 3.348l-4.193 2.562" transform="translate(-743.000000, -856.000000) translate(743.000000, 856.000000)"/>
                <path fill="#DDE8FD" d="M464.912 273.611c-3.341 21.487-25.197 35.171-47.615 35.171h-44.404l3.473-125.238s42.365-13.643 53.006-.664c9.323 11.366 34.6 56.37 35.931 83.005.133 2.676-.005 5.253-.391 7.726" transform="translate(-743.000000, -856.000000) translate(743.000000, 856.000000)"/>
                <path fill="#3662C1" d="M347.042 196.806s59.898-30.673 71.245-10.636c6.025 10.639 22.603 53.08 23.827 79.715 1.19 25.88-21.163 42.897-44.154 42.897h-40.832l-10.086-111.976" transform="translate(-743.000000, -856.000000) translate(743.000000, 856.000000)"/>
                <path fill="#BED2FA" d="M358.306 213.818c-.504 2.606-5.354 5.024-12.551 7.165-1.27.379-2.61.746-4.012 1.107-24.495 6.275-67.879 9.78-72.015 7.928-5.716-2.557-40.786-127.57-40.786-127.57s33.477-1.261 60.065-1.876c9.095-.208 17.384-.341 23.25-.324.715.003 1.388.049 2.02.14 2.536.364 4.42 1.426 5.915 3.037 4.28 4.616 5.342 13.73 9.305 23.807 3.917 9.963 8.726 22.395 13.288 34.735 1.175 3.181 2.336 6.354 3.46 9.48.316.881.63 1.76.944 2.632 6.739 18.925 11.932 35.515 11.117 39.739M464.912 273.611c-3.341 21.487-25.197 35.171-47.615 35.171h-21.782c14.524-9.875 27.657-40.31 69.397-35.171" transform="translate(-743.000000, -856.000000) translate(743.000000, 856.000000)"/>
                <path fill="#5076C9" d="M429.948 289.54c-8.57 11.947-21.718 19.603-36.362 19.366l-62.96.032-30.162.014 33.935-112.129s85.899-8.575 96.488 2.858c4.92 5.307 7.681 29.343 9.228 53.572.873 13.664-3.09 26.434-10.167 36.287" transform="translate(-743.000000, -856.000000) translate(743.000000, 856.000000)"/>
                <path fill="#FDB3B1" d="M360.762 142.43c2.612 14.299 4.905 19.578 8.678 22.507 3.772 2.933 24.796 11.59 24.796 11.59l-1.57 3.694s-30.815-4.21-34.277-9.375c-3.462-5.17-16.658-35.694-15.633-42.727 1.023-7.029 9.792-9.78 9.792-9.78s5.23 7.767 8.214 24.091z" transform="translate(-743.000000, -856.000000) translate(743.000000, 856.000000)"/>
                <path fill="#0B0754" d="M362.989 146.634c.337 10.534 4.28 16.67 6.45 18.303 2.172 1.633 7.898 3.751 7.898 3.751l-4.444 7.838s-11.042-.514-14.504-5.68c-3.462-5.17-16.658-35.694-15.633-42.727 1.023-7.029 3.012-14.722 7.11-14.722 4.098 0 11.86 14.905 13.123 33.237z" transform="translate(-743.000000, -856.000000) translate(743.000000, 856.000000)"/>
                <path fill="#FDB3B1" d="M428.007 288.88c-.276 3.014 3.909 3.748 8.753 3.99 4.847.244 3.384 1.237 10.022 2.445 6.641 1.208 9.302-.618 9.783-1.517.43-.8-2.658-2.048-5.95-3.458-.411-.176-.826-.358-1.24-.54-3.705-1.636-5.784-4.967-8.67-8.056-2.736-2.927-5.333-12.293-5.333-12.293l-9.024-1.936s2.535 8.433 3.413 12.033c.519 2.118-.245 4.485-.924 6.285-.363.982-.732 1.985-.83 3.048" transform="translate(-743.000000, -856.000000) translate(743.000000, 856.000000)"/>
                <path fill="#1C2B4B" d="M436.76 292.87c4.847.244 3.384 1.237 10.022 2.445 6.641 1.208 9.302-.618 9.783-1.517.43-.8-2.658-2.048-5.95-3.458l-.051.055s-4.669 1.592-10.057.121c-4.395-1.196-8.643-3.831-11.67-4.683-.363.982-.732 1.985-.83 3.048-.276 3.013 3.909 3.747 8.753 3.99" transform="translate(-743.000000, -856.000000) translate(743.000000, 856.000000)"/>
                <path fill="#353495" d="M338.14 181.519s59.97-4.528 71.26 2.62c11.29 7.148 29.396 90.408 29.396 90.408s-1.118.899-3.615 1.17c-2.32.255-7.433-1.115-7.433-1.115s-26.02-37.254-27.855-46.638c-1.832-9.388-1.385-17.76-5.559-17.986-4.173-.222-56.2 6.345-64.07-7.564-7.872-13.909-1.366-27.676-1.366-27.676l9.242 6.78" transform="translate(-743.000000, -856.000000) translate(743.000000, 856.000000)"/>
                <path fill="#FDB3B1" d="M405.062 298.542c-.279 3.017 3.906 3.748 8.753 3.99 4.844.243 3.38 1.24 10.022 2.445 6.641 1.208 9.303-.616 9.783-1.517.427-.797-2.66-2.046-5.95-3.458-.414-.177-.829-.359-1.244-.54-3.703-1.633-5.78-4.964-8.669-8.056-2.736-2.924-5.33-12.294-5.33-12.294l-9.026-1.933s2.534 8.431 3.415 12.031c.516 2.118-.247 4.484-.924 6.287-.366.98-.735 1.982-.83 3.045" transform="translate(-743.000000, -856.000000) translate(743.000000, 856.000000)"/>
                <path fill="#1C2B4B" d="M413.815 302.533c4.844.242 3.38 1.239 10.022 2.444 6.641 1.208 9.303-.616 9.783-1.517.427-.797-2.66-2.046-5.95-3.458l-.051.057s-4.672 1.59-10.06.119c-4.392-1.196-8.64-3.831-11.667-4.68-.366.979-.735 1.981-.83 3.044-.279 3.017 3.906 3.748 8.753 3.99" transform="translate(-743.000000, -856.000000) translate(743.000000, 856.000000)"/>
                <path fill="#4443A8" d="M326.395 185.249s53.274 2.528 64.276 10.112c11.005 7.585 25.868 91.489 25.868 91.489s-1.152.852-3.657 1.025c-2.33.162-7.385-1.404-7.385-1.404s-24.557-38.242-26.023-47.693c-1.47-9.448-.697-17.798-4.859-18.188-4.162-.384-56.405 4.146-63.729-10.057-7.323-14.207 15.51-25.284 15.51-25.284" transform="translate(-743.000000, -856.000000) translate(743.000000, 856.000000)"/>
                <path fill="#1C2B4B" d="M345.377 67.643c-2.361-1.566-5.296-1.916-7.364-1.931.567-.514 1.622-.644 1.622-.644-1.265-.276-4.2.804-4.2.804-17.308-8.056-21.844 18-21.876 24.121-.035 6.12-.455 13.142-9.688 18.016-18.164 9.591-4.689 29.359-4.689 29.359.133.09 7.212 14.204 7.212 14.204-.121-4.958 24.264-29.44 36.604-36.436 3.16-4.058 4.68-11.498 4.798-12.084-.892 5.92-2.13 9.192-3.162 11.011 10.625-8.573 7.01-42.272.743-46.42" transform="translate(-743.000000, -856.000000) translate(743.000000, 856.000000)"/>
                <path fill="#FDB3B1" d="M324.157 109.395s4.703.204 9.663.677c3.372.321 6.97.694 8.867 1.49 4.695 1.97 4.202 10.309-5.647 8.764-9.853-1.544-13.574-8.458-12.883-10.931" transform="translate(-743.000000, -856.000000) translate(743.000000, 856.000000)"/>
                <path fill="#FDB3B1" d="M342.273 115.476c.057.031 1.405 7.174-5.046 6.888-4.234-.187-13.37-5.327-12.563-8.965.386-1.729 3.586-6.215 4.228-16.454l.772.206 12.96 3.488s-.573 4.127-.84 8.033c-.228 3.28-.237 6.404.489 6.804" transform="translate(-743.000000, -856.000000) translate(743.000000, 856.000000)"/>
                <path fill="#1C2B4B" d="M328.403 95.626s-3.448-6.364-4.024-11.646c-.412-3.772 2.396-17.462 16.105-14.546 0 0 3.995.666 7.6 3.48 2.872 2.236 6.915 6.922 1.265 18.653l-1.53 3.989-19.416.07" transform="translate(-743.000000, -856.000000) translate(743.000000, 856.000000)"/>
                <path fill="#FDB3B1" d="M344.833 104.502s-17.41-.875-16.698-11.743c.711-10.868-1.06-18.3 10.085-18.201 11.149.099 13.032 4.388 13.678 8.074.642 3.685-2.518 21.818-7.065 21.87" transform="translate(-743.000000, -856.000000) translate(743.000000, 856.000000)"/>
                <path fill="#1C2B4B" d="M346.16 74.821s-5.61 12.431-13.043 13.827c-7.43 1.397-10.472-.78-10.472-.78s5.904-4.091 7.586-11.811c0 0 12.741-7.545 15.93-1.236" transform="translate(-743.000000, -856.000000) translate(743.000000, 856.000000)"/>
                <path fill="#1C2B4B" d="M344.91 75.777s3.367 3.084 4.05 5.91c.683 2.825.694 8.548 2.364 8.465 0 0 4.162-8.426.456-13.597-3.929-5.485-6.87-.778-6.87-.778" transform="translate(-743.000000, -856.000000) translate(743.000000, 856.000000)"/>
                <path fill="#0B0754" d="M424.681 218.097c-12.949 20-29.166 0-42.097 27.315-3.7.612-38.425-58.617-41.19-56.99-6.275 3.697-26.778 16.19-32.789 15.621-2.33-.22-1.895-4.683-.483-10.603 2.223-9.35 6.871-22.334 6.871-27.98 0-3.08 1.023-10.372 2.388-18.71.11-.67.224-1.347.337-2.032 2.698-16.209 6.44-35.322 6.44-35.322s4.167 9.128 12.294 9.128c8.122 0 6.235-6.961 6.235-6.961s7.413.875 9.165 2.767c1.753 1.893 6.194 10.074 7.076 12.304 0 0 .181 2.84-6.826 4.193 0 0 1.705 7.705 1.907 12.842.15 3.797-2.58 15.675-3.367 23.063-.277 2.614-.314 4.669.11 5.599.54 1.193 2.295 2.384 4.29 3.548 3.96 2.314 58.957 7.359 57.287 9.37" transform="translate(-743.000000, -856.000000) translate(743.000000, 856.000000)"/>
                <path fill="#FDB3B1" d="M309.769 118.792c-5.982 7.149 4.248 58.246 13.11 60.869 9.844 2.915 38.275-.465 38.275-.465l-.547-4.458s-30.27-5.822-31.528-7.446c-1.255-1.62-4-51.056-7.145-51.88 0 0-6.186-3.768-12.165 3.38z" transform="translate(-743.000000, -856.000000) translate(743.000000, 856.000000)"/>
                <path fill="#0B0754" d="M307.764 114.736c-3.686 4.191-3.773 16.006-3.773 16.006s10.193 8.6 23.671 5.086l-3.505-26.433s-12.703 1.15-16.393 5.34z" transform="translate(-743.000000, -856.000000) translate(743.000000, 856.000000)"/>
                <path fill="#120D69" d="M304.348 123.016c-2.612 16.044 9.669 54.022 18.53 56.645 9.845 2.915 22.033 1.185 22.033 1.185v-9.678s-14.464-2.975-15.723-4.598c-1.255-1.621-2.538-45.95-7.254-51.158-2.517-3.126-14.973-8.44-17.586 7.604z" transform="translate(-743.000000, -856.000000) translate(743.000000, 856.000000)"/>
                <path fill="#FFF" d="M364.123 183.573L380.899 183.573 380.899 181.582 364.123 181.582z" transform="translate(-743.000000, -856.000000) translate(743.000000, 856.000000)"/>
                <path fill="#D2DCEC" d="M377.337 183.299c.164-.656 15.422-24.695 15.422-24.695h33.952l-17.03 24.05-32.344.645" transform="translate(-743.000000, -856.000000) translate(743.000000, 856.000000)"/>
                <path fill="#FFF" d="M378.765 183.573c.164-.659 15.471-24.969 15.471-24.969h32.475l-16.203 24.969h-31.743" transform="translate(-743.000000, -856.000000) translate(743.000000, 856.000000)"/>
                <path fill="#D2DCEC" d="M407.392 171.17c-.334.973-1.39 1.762-2.364 1.762-.97 0-1.486-.789-1.152-1.763.334-.973 1.394-1.765 2.364-1.765s1.486.792 1.152 1.765" transform="translate(-743.000000, -856.000000) translate(743.000000, 856.000000)"/>
                <path fill="#FDB3B1" d="M358.136 174.472s9.855-1.913 10.97-1.433c1.111.477 7.31 6.059 6.675 7.174-.636 1.118-3.18 1.915-6.042.956-2.86-.956-9.06-1.433-10.172-2.869-1.112-1.436-1.431-3.828-1.431-3.828" transform="translate(-743.000000, -856.000000) translate(743.000000, 856.000000)"/>
                <path fill="#DDE8FD" d="M377.774 274.735c-3.6 20.84-23.356 34.047-43.611 34.047H293.33l3.194-125.238s38.96-13.643 48.744-.664c8.574 11.366 31.821 56.37 33.045 83.005.141 3.083-.049 6.039-.539 8.85" transform="translate(-743.000000, -856.000000) translate(743.000000, 856.000000)"/>
                <path fill="#BED2FA" d="M377.774 274.735c-3.6 20.84-23.356 34.047-43.611 34.047h-32.677c15.296-10.398 35.89-39.135 76.288-34.047" transform="translate(-743.000000, -856.000000) translate(743.000000, 856.000000)"/>
                <path fill="#B9CCEB" d="M314.475 308.692c-.305.02-.61.04-.916.058-.645.035-1.293.058-1.944.067-.216.003-.432.005-.648.005h-40.833l-.002-.02c-.778.012-1.564.02-2.36.03-4.204.051-8.593.1-12.668.135-.683.009-1.354.014-2.016.017-.248.003-.493.003-.735.006-4.023.029-7.583.04-10.123.023-3.568-.026-6.932-.277-10.097-.78-4.081-.647-7.828-1.71-11.252-3.23-1.236-.546-2.428-1.156-3.58-1.823-1.55-.896-3.027-1.907-4.43-3.031-3.623-2.904-6.756-6.576-9.42-11.098-1.855-3.143-3.485-6.703-4.893-10.699-1.774-5.015-3.2-10.719-4.297-17.17-1.567-9.209-2.465-19.934-2.736-32.331-.107-4.996-.115-10.257-.023-15.805.144-8.861.544-18.442 1.18-28.782.9-14.522 2.27-30.543 4.082-48.173 1.653-16.106 3.56-27.363 6.333-29.928 4.09-3.783 12.623-5.305 18.558-5.915h.006c3.684-.378 6.362-.408 6.362-.408 7.249 0 13.694 5.223 16.021 12.985 4.741 15.803 13.2 44.057 22.007 73.611.043.15.086.298.132.445.504 1.7 1.01 3.4 1.52 5.106.076.26.153.52.234.777.495-.223 1.008-.454 1.54-.688.018-.011.035-.017.055-.026 2.112-.939 4.5-1.965 7.08-3.013h.002c1.337-.544 2.722-1.095 4.15-1.644 4.03-1.549 8.378-3.08 12.788-4.4 1.955-.587 3.925-1.133 5.884-1.619 2.514-.624 5.008-1.153 7.441-1.545l.21-.035c.289-.05.574-.09.862-.133 10.483-1.543 19.58-.471 23.345 6.192 6.025 10.667 22.6 53.234 23.823 79.945 1.135 24.634-18.944 41.26-40.642 42.894" transform="translate(-743.000000, -856.000000) translate(743.000000, 856.000000)"/>
                <path fill="#DDE8FD" d="M248.972 197.77s-20.958-85.657-22.47-92.856c-.674-3.209-2.75-4.369-4.844-4.667 3.684-.378 6.365-.406 6.365-.406 7.252 0 13.694 5.207 16.021 12.945 5.078 16.88 14.424 48.005 23.893 79.71-.481-.015-18.965 5.275-18.965 5.275" transform="translate(-743.000000, -856.000000) translate(743.000000, 856.000000)"/>
                <path fill="#FDB3B1" d="M220.796 211.564c-5.645-.248-40.584-12.109-40.584-12.109l.884 6.001s26.836 15.484 36.216 16.362c9.236.864 40.819-8.315 43.866-10.254 3.05-1.939 5.037-12.86-3.822-14.822 0 0-30.918 15.068-36.56 14.822z" transform="translate(-743.000000, -856.000000) translate(743.000000, 856.000000)"/>
                <path fill="#0241A8" d="M220.627 210.082c-5.645-.248-9.458.369-9.458.369l-5.32 7.646c2.13 1.278 4.275 2.363 11.463 3.721 7.189 1.359 40.819-8.315 43.866-10.254 3.05-1.939 5.037-12.86-3.822-14.822 0 0-31.087 13.586-36.729 13.34z" transform="translate(-743.000000, -856.000000) translate(743.000000, 856.000000)"/>
                <path fill="#1C2B4B" d="M262.024 146.758s11.468-2.187 17.18 2c10.347 7.578 10.903 33.711 14.78 37.603 3.88 3.892 13.225 2.23 14.057 22.375.832 20.14-3.721 21.825 1.702 30.816 5.423 8.992-2.295 17.992-2.295 17.992s3.162-4.964 1.805-8.547c0 0-1.313 7.908-6.321 9.76-5.008 1.852-5.749 3.213-6.546 5.93 0 0-42.717-21.956-42.763-37.532-.046-15.573-8.406-31.002-4.3-37.751 0 0-1.828 2.886-2.053 6.099 0 0-2.462-4.736 1.806-9.142 4.268-4.409-5.008-13.527-3.635-24.09.945-7.253 6.017-15.198 16.583-15.513" transform="translate(-743.000000, -856.000000) translate(743.000000, 856.000000)"/>
                <path fill="#FDB3B1" d="M253.577 211.582c2.73 1.898 6.152 3.464 10.452 4.46 16.108 3.733 22.282-9.924 24.6-19.3-2.197-1.262-4.265-1.54-5.457-1.684-1.166-.136-2.39-.228-3.404-.278-1.809-1.392-4.504-7.078-5.1-15.91l-.758.202-12.695 3.487s.582 4.048.867 7.873c.219 2.996.253 5.857-.311 6.559-.99.214-1.587.355-1.587.355s0 .006-.006.012c-.17.28-3.853 6.359-6.6 14.224" transform="translate(-743.000000, -856.000000) translate(743.000000, 856.000000)"/>
                <path fill="#FDB3B1" d="M259.067 186.361s17.072-.945 16.32-11.603c-.748-10.656.948-17.957-9.984-17.804-10.93.153-12.762 4.372-13.372 7.99-.614 3.616 2.574 21.388 7.036 21.417" transform="translate(-743.000000, -856.000000) translate(743.000000, 856.000000)"/>
                <path fill="#1C2B4B" d="M252.114 158.983c2.408-3.398 4.45-2.838 5.634-1.954 8.953-5.81 15.503 1.358 15.503 1.358 1.687 7.564 7.496 11.549 7.496 11.549s-2.97 2.15-10.267.814c-2.23-.407-4.297-1.826-6.091-3.6 3.248 4.67 7.445 7.9 7.445 7.9-8.842-3.355-13.133-15.05-13.565-16.287-.974 1.011-2.88 3.195-3.364 5.238-.657 2.777-3.488 7.114-5.124 7.041 0 0-1.275-6.969 2.333-12.06" transform="translate(-743.000000, -856.000000) translate(743.000000, 856.000000)"/>
                <path fill="#0B4EBA" d="M295.032 196.74c-1.803-3.653-8.888-3.982-16.66-3.661-2.42 1.566-11.636 7.486-15.42 6.749-.04-.009-.116-.026-.213-.052-1.783-.448-2.457-1.702-.968-2.785.003-.003-3.85-.373-8.631.528-2.699.512-4.244 2.682-5.817 4.52-1.573 1.84-3.304 10.753 2.104 13.047-.919 8.255 3.255 7.561 11.788 26.622 7.212 16.113-.973 30.62-.973 30.62s42.45 34.24 42.687 16.807c.179-13.126-11.408-32.625-9.438-42.732 1.541-7.908 6.57-39.496 1.541-49.664z" transform="translate(-743.000000, -856.000000) translate(743.000000, 856.000000)"/>
                <path fill="#E75755" d="M258.136 309.56c-2.307-.26-4.386-1.53-5.676-3.468-.205-.306-.424-.638-.657-.99-4.832-7.34-6.713-29.815-17.582-53.756-2.647-5.83-12.15-6.879-14.74-13.466 0 0-6.38-21.358 12.205-21.99 18.588-.63 49.775 59.426 50.268 65.724.478 6.102 12.289 32.034-23.818 27.945" transform="translate(-743.000000, -856.000000) translate(743.000000, 856.000000)"/>
                <path fill="#1C2B4B" d="M184.267 309.068h26.453s.988-4.233-.746-7.11c-1.538-2.549-.95-4.002.19-6.111-1.198.494-2.75.942-4.455.843-1.32-.078-2.713-.676-3.934-1.39-1.14 1.304-6.014 6.845-7.537 7.943-1.731 1.248-9.438.804-9.97 5.825" transform="translate(-743.000000, -856.000000) translate(743.000000, 856.000000)"/>
                <path fill="#0B4EBA" d="M290.703 205.02s3.442 31.426-18.887 38.011c-22.325 6.585-28.664-28.913-10.638-31.467 18.028-2.554 29.525-6.544 29.525-6.544" transform="translate(-743.000000, -856.000000) translate(743.000000, 856.000000)"/>
                <path fill="#E75755" d="M220.876 223.064c-1.595 11.982-7.813 49.793-18.786 68.241-3.54 5.95 8.91 9.283 8.98 9.263 1.667-.436 4.45-3.109 5.734-4.267 8.908-8.053 26.992-30.86 26.992-49.144 0-8.916.155-25.942-6.308-30.27-3.98-2.667-15.981 1.421-16.612 6.177" transform="translate(-743.000000, -856.000000) translate(743.000000, 856.000000)"/>
                <path fill="#FA7269" d="M273.91 309.068s-.98-1.367-2.69-3.967c-2.033-3.091-4.285-9.173-7.016-16.971-2.868-8.189-6.272-18.258-10.526-28.737-1.313-3.236-2.707-6.51-4.19-9.777-2.647-5.83-9.93-5.025-12.523-11.615 0 0-10.108-22.843 8.476-23.472 18.585-.63 53.902 61.107 55.933 67.085 2.22 6.547 13.06 33.727-27.464 27.454" transform="translate(-743.000000, -856.000000) translate(743.000000, 856.000000)"/>
                <path fill="#1C2B4B" d="M203.687 309.068h26.453s.988-4.233-.749-7.11c-1.538-2.549-.947-4.002.19-6.111-1.198.494-2.747.942-4.455.843-1.316-.078-2.713-.676-3.934-1.39-1.138 1.304-6.014 6.845-7.537 7.943-1.728 1.248-9.438.804-9.968 5.825" transform="translate(-743.000000, -856.000000) translate(743.000000, 856.000000)"/>
                <path fill="#FA7269" d="M235.316 222.214c-1.593 11.982-3.836 50.643-14.81 69.091-3.536 5.95 8.914 9.283 8.98 9.263 1.671-.436 4.453-3.109 5.735-4.267 8.908-8.053 26.991-30.86 26.991-49.144 0-8.916-10.428-25.229-16.891-29.557-3.98-2.664-9.372-.141-10.005 4.614" transform="translate(-743.000000, -856.000000) translate(743.000000, 856.000000)"/>
                <path fill="#C5D2E7" d="M177.053 184.018l27.092-2.886c.79-.084 1.535.375 1.817 1.12l9.694 25.55c.427 1.121-.368 2.33-1.564 2.378l-26.881 1.087c-.73.028-1.4-.4-1.682-1.075l-9.905-23.753c-.449-1.083.265-2.297 1.429-2.421" transform="translate(-743.000000, -856.000000) translate(743.000000, 856.000000)"/>
                <path fill="#FFF" d="M174.7 184.264l27.092-2.887c.79-.084 1.535.376 1.817 1.121l9.694 25.553c.424 1.118-.371 2.326-1.563 2.375l-26.882 1.09c-.729.028-1.403-.403-1.682-1.079l-9.905-23.752c-.449-1.084.265-2.297 1.429-2.421" transform="translate(-743.000000, -856.000000) translate(743.000000, 856.000000)"/>
                <path fill="#C5D2E7" d="M189.716 196.193c-.331-.91.138-1.65 1.048-1.65.908 0 1.913.74 2.244 1.65.331.913-.135 1.653-1.045 1.653-.91 0-1.916-.74-2.247-1.653M175.512 186.679c-.164-.448.066-.812.513-.812.449 0 .941.364 1.103.812.164.448-.067.812-.513.812s-.942-.364-1.103-.812" transform="translate(-743.000000, -856.000000) translate(743.000000, 856.000000)"/>
                <path fill="#FDB3B1" d="M288.63 196.742s-37.547 13.872-43.189 13.586c-3.646-.182-33.955-10.873-33.955-10.873l-2.722 5.166s29.5 19.02 37.61 18.925c16.013-.185 43.03-10.043 46.078-11.982 3.05-1.939 5.037-12.86-3.822-14.822" transform="translate(-743.000000, -856.000000) translate(743.000000, 856.000000)"/>
                <path fill="#0948AE" d="M245.441 210.328c-3.646-.182-11.241-5.159-20.308-6.103l-4.003 8.03c7.008 4.687 17.134 11.386 25.244 11.29 16.013-.184 42.144-5.038 46.078-11.98 3.933-6.944 3.933-13.468-3.822-14.823-7.755-1.355-37.547 13.872-43.189 13.586z" transform="translate(-743.000000, -856.000000) translate(743.000000, 856.000000)"/>
                <path fill="#FDB3B1" d="M211.486 199.455s-2.722-4.2-5.429-4.322c-2.71-.124-7.39 1.852-8.991 2.161-1.601.31-6.158 1.791-4.801 4.016 1.354 2.222 7.635 2.716 10.342 2.222 2.71-.494 6.157 1.09 6.157 1.09l2.722-5.167" transform="translate(-743.000000, -856.000000) translate(743.000000, 856.000000)"/>
                <path fill="#FDB3B1" d="M206.795 195.263s-4.309-1.985-5.542-2.355c-1.232-.37-.985.006-.616 1.176.372 1.17 2.586 2.288 2.586 2.658 0 .367 3.572-1.479 3.572-1.479M181.096 192.746c2.71-.537 2.71 3.043 2.137 5.351-.616 2.476-2.704 4.814-3.28 4.612-.579-.206-3.102-3.199-2.462-5.476 0 0 2.718-4.31 3.605-4.487z" transform="translate(-743.000000, -856.000000) translate(743.000000, 856.000000)"/>
                <path fill="#FDB3B1" d="M177.39 198.097s-.87 4.837 3.706 7.36l-3.706-7.36" transform="translate(-743.000000, -856.000000) translate(743.000000, 856.000000)"/>
                <path fill="#0948AE" d="M269.285 203.581s3.358 10.664 14.89 13.091c0 0 19.045-5.885 9.564-18.901 0 0-9.377-6.99-24.454 5.81" transform="translate(-743.000000, -856.000000) translate(743.000000, 856.000000)"/>
                <path fill="#223D6A" d="M561.015 311.073H13.835c-.364 0-.663-.41-.663-.913v-.176c0-.503.299-.916.664-.916h547.179c.365 0 .663.413.663.916v.176c0 .503-.298.913-.663.913" transform="translate(-743.000000, -856.000000) translate(743.000000, 856.000000)"/>
            </g>
        </g>
    </g>
</svg>
