<svg xmlns="http://www.w3.org/2000/svg" xmlns:xlink="http://www.w3.org/1999/xlink" width="436" height="315" viewBox="0 0 436 315">
    <defs>
        <path id="759on4u7ka" d="M230.774 33.863C293.027 75.79 367.66 40.578 406.86 83.77c82.64 91.058-46.986 215.377-161.769 235.442C74.948 348.954-53.302 198.426 22.096 48.815"/>
        <path id="1kl13in9ob" d="M.746 2.822v-.84-.363c0-1.115.648-1.556.648-1.556h2.41c.441 0 .83.26 1.4.908.23.259.985.673 1.843 1.01.323.127.66.242.988.335-2.716.13-5.175.302-7.29.506z"/>
        <path id="uhbiufjyld" d="M10.172 3.393H.426v-2.23C.426.95.452.764.492.6c1.556.009 3.076.029 4.554.06.691.53 2.733 1.412 3.96 1.412 1.348 0 1.166 1.322 1.166 1.322z"/>
        <path id="i23pjv5cte" d="M.646.62c.422.08.823.128 1.171.128 1.78 0 1.547 1.547 1.547 1.547H.645V.62z"/>
        <path id="990fc4npvh" d="M.3.568c.886.411 2.133.844 3.229 1.053l-.001 1.674H.302L.3.568z"/>
        <path id="qfvalricdk" d="M.479.311c.57 0 1.112.285 1.86 1.048.17.177.564.408 1.078.648l.003 2.728H.113V.31H.48z"/>
        <path id="7e94v7r8qn" d="M4.193.311v4.424H.887L.888.75c.219-.303.443-.44.443-.44h2.862z"/>
        <path id="cq273cvrjq" d="M1.33.311s-.858.524-.858 1.8v2.624h12.972s.233-1.547-1.547-1.547S6.996 1.956 6.42 1.36C5.67.596 5.13.311 4.559.311H1.331z"/>
        <path id="s9clftlwbs" d="M.01.55c1.229.575 3.17 1.198 4.435 1.198 1.78 0 1.55 1.547 1.55 1.547H.011L.01.55z"/>
        <path id="qhfagqguqv" d="M1.081.311s-.858.524-.858 1.8v2.624h12.971s.23-1.547-1.55-1.547c-1.779 0-4.895-1.232-5.486-1.829C5.415.596 4.88.311 4.31.311H1.081z"/>
        <path id="5pq3ao5s5x" d="M4.07.311c.57 0 1.105.285 1.848 1.048l-.026-.026v3.402H.4V.748C.62.447.841.311.841.311h3.228z"/>
        <path id="ded99bbijA" d="M1.081.311s-.858.524-.858 1.8v2.624h12.971s.23-1.547-1.55-1.547c-1.779 0-4.895-1.232-5.486-1.829C5.415.596 4.88.311 4.31.311H1.081z"/>
        <path id="ss45b747jC" d="M36.562.674c1.267 1.794 2.34 1.585 2.34 5.218l-.007-.33-38.674-.77.007-.033"/>
        <path id="lqgdrvjlwD" d="M11.035.165c1.589.289 4.051 1.282 5.946 4.513 1.636 2.797 5.493 2.497 7.44 4.622 2.201 2.396 1.494 3.965 1.435 5.443L.044 6.612c.653-.428 1.27-1 1.817-1.934 1.274-2.175 2.81-3.336 4.164-3.95"/>
        <path id="6t6e29gliE" d="M12.156.645c.902.39 2.576 2.374-.318 12.722L6.421 10.93M.443 8.23C7.955-1.278 11.069-.083 11.693.37 9.655 3.756 7.73 7.204 5.923 10.706"/>
        <path id="pc1msbi2bF" d="M3.839.325c.544 0 1.054.277 1.771 1 .556.573 3.54 1.75 5.245 1.75 1.702 0 1.48 1.484 1.48 1.484H.345L.349.717c.2-.27.398-.392.398-.392h3.093z"/>
        <path id="zlb7apjusI" d="M.986.325S.17.827.17 2.053V4.56h12.404s.222-1.483-1.48-1.483c-1.705 0-4.689-1.178-5.245-1.751-.717-.723-1.227-1-1.771-1H.986z"/>
        <path id="pbxzyeztxK" d="M3.14.343S5.385 1.547 5.863 1.8l.003.002 1.489 5.591L.78 3.885 2.583.512c.257-.126.466-.159.533-.167"/>
        <path id="u9e55vsp2N" d="M3.14.343s-.96.063-1.536 1.143C1.02 2.566.424 3.695.424 3.695L8.85 8.191l1.872-.035s.398-1.9-.726-1.9c-2.692 0-2.816-1.976-3.044-2.74-.285-.976-.607-1.454-1.088-1.716C5.386 1.547 3.139.343 3.139.343"/>
        <path id="fsfrkkcmkP" d="M5.851.27L5.85 2.786H.801s-.213-1.52 1.402-1.52c1.026 0 2.543-.49 3.648-.996z"/>
        <path id="me6fnc1mvS" d="M6.034.083s.174.117.358.374L6.39 4.426H.089L.091 1.91c.636-.291 1.136-.588 1.329-.802C2.1.365 2.586.083 3.105.083h2.929z"/>
        <path id="xxl3l79vqV" d="M11.794.083s.771.515.771 1.771v2.572H.801s-.213-1.52 1.402-1.52c1.616 0 4.45-1.213 4.977-1.798C7.86.365 8.346.083 8.865.083h2.929z"/>
        <path id="82c86mi2yX" d="M6.509.202s.204.048.464.225L8.329 4.13.821 6.883l-.418.003 2.88-5.375c.15-.145.31-.245.487-.31"/>
        <path id="40dxaw6i3aa" d="M9.389.202s.901.213 1.33 1.39l.876 2.397L3.7 6.883l-3.1.02s-.76-1.915.845-1.866c3.16.087 3.695-1.572 3.986-2.292.377-.933.737-1.365 1.218-1.544.487-.176 2.739-1 2.739-1z"/>
        <linearGradient id="q4wbxtfc2f" x1="100%" x2="0%" y1="100%" y2="100%">
            <stop offset="0%" stop-color="#3C342B"/>
            <stop offset="100%" stop-color="#382E25"/>
        </linearGradient>
        <linearGradient id="vfepjwynui" x1="99.911%" x2="0%" y1="100%" y2="100%">
            <stop offset="0%" stop-color="#382D25"/>
            <stop offset="100%" stop-color="#342921"/>
        </linearGradient>
        <linearGradient id="g6v5we8i9l" x1="100.087%" x2="0%" y1="100%" y2="100%">
            <stop offset="0%" stop-color="#332920"/>
            <stop offset="100%" stop-color="#2D221C"/>
        </linearGradient>
        <linearGradient id="0absic3r2o" x1="100%" x2="0%" y1="100%" y2="100%">
            <stop offset="0%" stop-color="#2D211C"/>
            <stop offset="100%" stop-color="#291D16"/>
        </linearGradient>
        <linearGradient id="wozfbj6t0t" x1="100%" x2="0%" y1="100%" y2="100%">
            <stop offset="0%" stop-color="#3C342B"/>
            <stop offset="100%" stop-color="#332920"/>
        </linearGradient>
        <linearGradient id="s96l622toy" x1="99.948%" x2="0%" y1="100%" y2="100%">
            <stop offset="0%" stop-color="#31251F"/>
            <stop offset="100%" stop-color="#291D16"/>
        </linearGradient>
        <linearGradient id="bdxerpj21G" x1="100%" x2="0%" y1="100%" y2="100%">
            <stop offset="0%" stop-color="#3C342B"/>
            <stop offset="100%" stop-color="#291D16"/>
        </linearGradient>
        <linearGradient id="fwwoa1yjeL" x1="63.025%" x2="2.092%" y1="100%" y2="66.77%">
            <stop offset="0%" stop-color="#3C342B"/>
            <stop offset="100%" stop-color="#291D16"/>
        </linearGradient>
        <linearGradient id="dsntyy6sfQ" x1="0%" x2="100%" y1="100%" y2="100%">
            <stop offset="0%" stop-color="#3C342B"/>
            <stop offset="100%" stop-color="#342921"/>
        </linearGradient>
        <linearGradient id="3u4z6ngp4T" x1="0%" x2="100%" y1="100%" y2="100%">
            <stop offset="0%" stop-color="#342921"/>
            <stop offset="100%" stop-color="#291D16"/>
        </linearGradient>
        <linearGradient id="awr4kaceeY" x1="24.592%" x2="100%" y1="94.848%" y2="68.655%">
            <stop offset="0%" stop-color="#3C342B"/>
            <stop offset="100%" stop-color="#291D16"/>
        </linearGradient>
    </defs>
    <g fill="none" fill-rule="evenodd">
        <g>
            <g transform="translate(-796.000000, -2004.000000) translate(796.000000, 2004.000000)">
                <use fill="#F2F7FF" transform="translate(216.500000, 161.500000) rotate(-180.000000) translate(-216.500000, -161.500000)" xlink:href="#759on4u7ka"/>
                <g>
                    <path fill="#C6D4EA" d="M241.468 266.815c0 4.25-25.644 7.7-57.269 7.7-31.622 0-57.266-3.45-57.266-7.7 0-4.257 25.644-7.704 57.266-7.704 31.625 0 57.269 3.447 57.269 7.704" transform="translate(38.000000, 18.000000)"/>
                    <path fill="#00024E" d="M200.287 261.976s-3.571 2.546-16.171 2.546c-12.598 0-16.056-2.546-16.056-2.546l1.013-24.943h30.197l1.017 24.943" transform="translate(38.000000, 18.000000)"/>
                    <path fill="#303A7D" d="M45.199 70.07c-2.8 0-5.08 2.281-5.08 5.08v159.331c0 2.8 2.28 5.106 5.08 5.106h277.94c2.8 0 5.106-2.307 5.106-5.106V75.151c0-2.8-2.307-5.08-5.106-5.08H45.199" transform="translate(38.000000, 18.000000)"/>
                    <path fill="#C7D8EF" d="M48.257 231.422L320.08 231.422 320.08 78.209 48.257 78.209z" transform="translate(38.000000, 18.000000)"/>
                    <path fill="#02D8FB" d="M313.808 231.422h-6.299V104.907c0-3.447-2.825-6.273-6.272-6.273H148.988l-30.358-4.588-.694 4.588H67.127c-3.447 0-6.299 2.826-6.299 6.273v126.515H54.53V90.78c0-3.473 2.825-6.298 6.298-6.298H307.51c3.473 0 6.299 2.825 6.299 6.298v140.642M82.342 89.588c-1.296 0-2.359 1.037-2.359 2.359 0 1.296 1.063 2.333 2.36 2.333 1.295 0 2.358-1.037 2.358-2.333 0-1.322-1.063-2.359-2.359-2.359m-9.02 0c-1.296 0-2.359 1.037-2.359 2.359 0 1.296 1.063 2.333 2.359 2.333s2.359-1.037 2.359-2.333c0-1.322-1.063-2.359-2.36-2.359m-9.045 0c-1.296 0-2.333 1.037-2.333 2.359 0 1.296 1.037 2.333 2.333 2.333 1.322 0 2.359-1.037 2.359-2.333 0-1.322-1.037-2.359-2.36-2.359" transform="translate(38.000000, 18.000000)"/>
                    <path fill="#EDF2FA" d="M301.237 98.634H67.127c-3.447 0-6.299 2.826-6.299 6.273v126.515H307.51V104.907c0-3.447-2.825-6.273-6.272-6.273" transform="translate(38.000000, 18.000000)"/>
                    <path fill="#FFF" d="M64.276 94.28c-1.296 0-2.333-1.037-2.333-2.333 0-1.322 1.037-2.359 2.333-2.359 1.322 0 2.359 1.037 2.359 2.359 0 1.296-1.037 2.333-2.36 2.333M73.322 94.28c-1.296 0-2.359-1.037-2.359-2.333 0-1.322 1.063-2.359 2.359-2.359s2.359 1.037 2.359 2.359c0 1.296-1.063 2.333-2.36 2.333M82.342 94.28c-1.296 0-2.359-1.037-2.359-2.333 0-1.322 1.063-2.359 2.36-2.359 1.295 0 2.358 1.037 2.358 2.359 0 1.296-1.063 2.333-2.359 2.333" transform="translate(38.000000, 18.000000)"/>
                    <path fill="#C7D8EF" d="M108.262 111.698H74.773c-1.321 0-2.358-1.063-2.358-2.359s1.037-2.359 2.358-2.359h33.49c1.295 0 2.358 1.063 2.358 2.36 0 1.295-1.063 2.358-2.359 2.358" transform="translate(38.000000, 18.000000)"/>
                    <path fill="#E0E0CF" d="M204.454 109.34c0 1.298-1.054 2.355-2.353 2.355H184.3c-1.302 0-2.356-1.057-2.356-2.356 0-1.302 1.054-2.356 2.356-2.356H202.1c1.299 0 2.353 1.054 2.353 2.356" transform="translate(38.000000, 18.000000)"/>
                    <path fill="#C7D8EF" d="M233.896 111.698h-10.745l.274-1.814-9.496-1.435c.349-.858 1.178-1.469 2.16-1.469h17.807c1.296 0 2.36 1.063 2.36 2.36 0 1.295-1.064 2.358-2.36 2.358M265.7 111.698h-17.807c-1.296 0-2.333-1.063-2.333-2.359s1.037-2.359 2.333-2.359H265.7c1.296 0 2.359 1.063 2.359 2.36 0 1.295-1.063 2.358-2.359 2.358M297.504 111.698h-17.807c-1.296 0-2.359-1.063-2.359-2.359s1.063-2.359 2.359-2.359h17.807c1.296 0 2.359 1.063 2.359 2.36 0 1.295-1.063 2.358-2.359 2.358" transform="translate(38.000000, 18.000000)"/>
                    <path fill="#CDDEE8" d="M278.764 37.256h-8.631v-6.117c-.467-.182-.726-.286-1.193-.493l-4.328 4.329-6.092-6.117s3.577-3.603 4.303-4.329c-.207-.467-.285-.7-.492-1.166h-6.092v-8.658h6.092c.207-.466.285-.725.492-1.192-.726-.7-4.303-4.303-4.303-4.303l6.092-6.117 4.328 4.329c.467-.208.726-.311 1.193-.519V.813h8.63v6.09c.467.208.727.311 1.193.519.726-.726 4.303-4.329 4.303-4.329l6.117 6.117s-3.577 3.603-4.303 4.303c.182.467.285.726.493 1.192h6.091v8.658h-6.091c-.208.466-.311.7-.493 1.166.726.726 4.303 4.329 4.303 4.329l-6.117 6.117s-3.577-3.603-4.303-4.329c-.466.207-.726.311-1.192.493v6.117m-10.187-8.865l2.8 1.166.7.286v5.443h4.743V30.49l.104-.674 2.799-1.167.7-.285s2.903 2.877 3.836 3.836c.855-.83 2.54-2.514 3.37-3.343l-3.396-3.396-.415-.544 1.167-2.826.259-.7h5.469V16.65h-4.795l-.7-.077-1.14-2.826-.312-.7s2.903-2.877 3.863-3.836c-.83-.83-2.515-2.514-3.37-3.343l-3.37 3.37-.57.414-3.5-1.426V2.756h-4.742v4.821l-.104.674-2.8 1.167-.7.285s-2.902-2.903-3.861-3.836l-3.344 3.343c.959.96 3.395 3.37 3.395 3.37l.415.57-1.166 2.8-.285.7h-5.444v4.743h4.796l.7.103 1.14 2.8.31.7-3.861 3.862 3.344 3.343 3.395-3.395.57-.415" transform="translate(38.000000, 18.000000)"/>
                    <path fill="#CDDEE8" d="M274.461 27.199c-4.51 0-8.165-3.68-8.165-8.165 0-4.51 3.655-8.165 8.165-8.165 4.484 0 8.139 3.655 8.139 8.165 0 4.484-3.655 8.165-8.139 8.165m0-14.386c-3.447 0-6.22 2.8-6.22 6.22 0 3.422 2.773 6.196 6.22 6.196 3.422 0 6.195-2.774 6.195-6.195 0-3.422-2.773-6.22-6.195-6.22M372.724 132.408c-3.914 0-5.314-2.877-5.625-4.795-1.892-.933-2.721-4.484-3.81-9.798l-.959-4.51c-.726-3.188-2.125-5.495-3.5-7.698-1.788-2.93-3.473-5.677-3.473-9.954 0-13.893 9.332-18.817 17.315-18.817 8.01 0 17.392 4.924 17.392 18.817 0 4.277-1.684 7.025-3.473 9.954-1.374 2.203-2.773 4.51-3.5 7.698l-.958 4.51c-1.089 5.288-1.918 8.865-3.81 9.798-.286 1.918-1.66 4.795-5.6 4.795m-3.444-4.406c.358 1.01 1.242 2.358 3.445 2.358 2.209 0 3.084-1.348 3.43-2.358h1.261c.265 0 .507-.093.686-.271.201-.187.325-.452.325-.74 0-.596-.44-1.037-1.01-1.037.532 0 1.094-1.587 1.606-3.577h.726c.57 0 1.037-.467 1.037-1.037 0-.57-.467-1.01-1.037-1.01h-.242c.222-1.014.427-2.034.605-2.93l.96-4.536c.803-3.55 2.384-6.09 3.758-8.346 1.71-2.773 3.188-5.158 3.188-8.865 0-15.966-12.805-16.77-15.345-16.77-2.566 0-15.24.804-15.24 16.77 0 3.707 1.45 6.092 3.161 8.865 1.374 2.255 2.955 4.795 3.759 8.346l.959 4.536c.184.896.394 1.916.619 2.93h-.723c-.596 0-1.037.44-1.037 1.01 0 .57.44 1.037 1.037 1.037h1.213c.512 1.99 1.068 3.577 1.586 3.577-.57 0-1.01.44-1.01 1.037 0 .512.391.956.913 1.005.031.003.066.006.097.006h1.273" transform="translate(38.000000, 18.000000)"/>
                    <path fill="#CDDEE8" d="M377.415 128.002h-9.409c-.034 0-.066-.003-.097-.006-.522-.05-.913-.493-.913-1.005 0-.596.44-1.037 1.01-1.037h9.41c.57 0 1.01.44 1.01 1.037 0 .288-.124.553-.325.74-.179.167-.418.27-.686.27M379.748 122.377h-14.54c-.597 0-1.038-.467-1.038-1.037 0-.57.44-1.01 1.037-1.01h14.541c.57 0 1.037.44 1.037 1.01 0 .57-.467 1.037-1.037 1.037M371.687 72.17L373.735 72.17 373.735 67.375 371.687 67.375zM392.993 93.502L397.814 93.502 397.814 91.428 392.993 91.428zM347.607 93.502L352.429 93.502 352.429 91.428 347.607 91.428zM391.62 112.838L388.224 109.417 389.676 107.965 393.071 111.361 391.62 112.838M357.638 78.857L354.217 75.436 355.694 73.984 359.09 77.38 357.638 78.857M387.783 78.857L386.332 77.38 389.727 73.984 391.179 75.436 387.783 78.857M354.061 112.579L352.61 111.102 356.005 107.706 357.457 109.158 354.061 112.579" transform="translate(38.000000, 18.000000)"/>
                    <path fill="#FFF" d="M103.224 196.09l14.69-97.297c.395-2.622 2.84-4.426 5.462-4.03l95.303 14.403c2.62.396 4.425 2.842 4.028 5.463l-14.713 97.299c-.396 2.62-2.842 4.424-5.464 4.029l-95.276-14.403c-2.62-.397-4.424-2.842-4.03-5.463z" transform="translate(38.000000, 18.000000)"/>
                    <path fill="#02D8FB" d="M200.304 185.855c-.337 2.203-2.41 3.707-4.588 3.37l-72.187-10.887c-2.177-.31-3.707-2.384-3.37-4.588l9.98-66.018c.337-2.177 2.384-3.706 4.587-3.37l72.162 10.887c2.177.337 3.706 2.41 3.37 4.588l-9.954 66.018" transform="translate(38.000000, 18.000000)"/>
                    <path fill="#6ABBDB" d="M149.34 191.244l-.72 4.777c-.044.274-.072.58-.193.692l-.13.075-.709-.078-1.84-.274-.34-.08-.147-.196.09-.755.757-5.031.084-.369.334-.173.705.09 1.389.21.636.144.161.193-.077.775M157.386 192.96c.185.173.38.446.363.778-.011.409-.248.72-.536.815l-.36.083.116.176.221.354c.142.478-.112.927-.44 1.074l-.285.078.1.167c.133.196.188.628.023.925-.12.213-.406.391-.682.377-.274-.003-.553-.087-.83-.124-1.61-.236-3.277-.484-4.953-.737-.4-.06-.82-.038-.942-.285l.04-.732.358-2.356c.08-.533.132-1.083.236-1.575.371-2.005 1.494-3.007 2.658-3.966l.435-.345.423-.375.064-.328.054-.337.124-.651c.112-.297.406-.492.706-.484.46.023.746.352.86.63.22.565.223 1.464-.065 2.239-.118.334-.311.627-.484.921l-.4.64-.136.21.521.193c.643.1 1.27.19 1.918.288.432.063.913.063 1.178.247.262.182.42.461.392.856-.029.455-.225.786-.527.947l-.302.101.152.196" transform="translate(38.000000, 18.000000)"/>
                    <path fill="#FFF" d="M196.597 182.226L124.669 171.184 125.473 165.923 144.732 150.396 153 159.313 173.451 140.884 197.401 177.431 196.597 182.226M147.67 139.084c-.407 0-.816-.029-1.228-.092-4.406-.674-7.465-4.796-6.79-9.228.613-4.032 4.077-6.903 8.032-6.903.394 0 .794.029 1.195.086 4.432.674 7.465 4.821 6.79 9.228-.587 4.02-4.054 6.909-8 6.909" transform="translate(38.000000, 18.000000)"/>
                    <path fill="#D7DDFF" d="M140.14 191.874c-.034 0-.065 0-.1-.006l-5.158-.777c-.337-.052-.57-.389-.518-.726.046-.328.308-.553.624-.553.035 0 .067.003.101.009l5.158.777c.337.052.57.39.519.726-.046.328-.308.55-.625.55M140.53 189.282c-.035 0-.067 0-.101-.006l-5.132-.777c-.363-.052-.597-.363-.545-.726.046-.308.311-.55.634-.55.029 0 .06 0 .092.006l5.158.777c.337.052.57.39.519.752-.047.305-.309.524-.625.524M139.706 194.463l-.055-.003-5.158-.803c-.337-.052-.57-.363-.518-.726.046-.296.29-.533.596-.533.043 0 .086.006.13.015l5.158.777c.337.052.57.363.518.726-.049.32-.331.547-.671.547M166.548 195.849c-.04 0-.081-.006-.121-.015l-5.159-.777c-.362-.052-.596-.363-.544-.726.046-.305.328-.527.63-.527.033 0 .064.003.096.008l5.158.778c.363.052.596.363.544.726-.046.296-.31.533-.604.533M166.91 193.274c-.031 0-.063 0-.095-.006l-5.158-.777c-.363-.052-.596-.39-.544-.726.046-.329.328-.553.63-.553.032 0 .064.003.096.008l5.158.778c.363.052.596.389.544.726-.046.328-.328.55-.63.55M166.133 198.432c-.032 0-.064 0-.095-.006l-5.158-.777c-.363-.052-.596-.39-.545-.726.046-.308.334-.55.64-.55.029 0 .057 0 .086.006l5.158.777c.363.052.596.389.545.726-.047.328-.329.55-.631.55M195.368 200.22c-.03 0-.06 0-.092-.005l-5.133-.778c-.363-.052-.596-.389-.544-.726.046-.328.308-.553.625-.553.035 0 .066.003.1.01l5.159.777c.337.051.57.363.518.725-.046.309-.31.55-.633.55M195.765 197.628c-.034 0-.066 0-.1-.005l-5.133-.778c-.363-.052-.596-.389-.544-.726.046-.308.31-.55.633-.55.03 0 .06 0 .093.006l5.158.778c.337.051.57.388.518.725-.046.329-.308.55-.625.55M194.988 202.787c-.035 0-.067 0-.101-.006l-5.158-.778c-.337-.052-.597-.363-.519-.726.05-.32.331-.547.671-.547l.055.003 5.158.804c.337.051.57.363.518.725-.046.306-.308.525-.624.525" transform="translate(38.000000, 18.000000)"/>
                    <path fill="#7D8AEF" d="M186.633 193.864l-11.267-1.693c-.48-.075-.861.219-.933.691l-.982 6.5c-.09.588.199 1.005.812 1.098l7.482 1.128 1.774 2.405c.165.234.34.193.38-.098l.291-1.935 1.196.181c.279.044.544-.15.584-.432l1.098-7.249c.04-.276-.156-.547-.435-.596" transform="translate(38.000000, 18.000000)"/>
                    <g transform="translate(38.000000, 18.000000) translate(68.040008, 275.760024)">
                        <mask id="m572m2qy8c" fill="#fff">
                            <use xlink:href="#1kl13in9ob"/>
                        </mask>
                        <path fill="#382E26" d="M7.986 2.822L8.07 2.822 8.07 0.063 7.986 0.063z" mask="url(#m572m2qy8c)"/>
                        <path fill="#372D25" d="M7.569 2.822L7.983 2.822 7.983 0.063 7.569 0.063z" mask="url(#m572m2qy8c)"/>
                    </g>
                    <path fill="#BECEE1" d="M186.636 283.107c-15.267 0-27.657-1.192-27.657-2.67 0-1.051 6.506-1.967 15.898-2.393 1.754.023 3.534.034 5.33.034 4.537 0 8.949-.072 13.18-.204 12.026.288 20.931 1.333 20.931 2.563 0 1.478-12.39 2.67-27.682 2.67" transform="translate(38.000000, 18.000000)"/>
                    <path fill="#C6D4EA" d="M328.97 283.107c-15.266 0-27.656-1.192-27.656-2.67 0-1.451 12.39-2.644 27.657-2.644 15.293 0 27.682 1.193 27.682 2.644 0 1.478-12.39 2.67-27.682 2.67" transform="translate(38.000000, 18.000000)"/>
                    <g transform="translate(38.000000, 18.000000) translate(89.640010, 277.200024)"/>
                    <path fill="#FFAD97" d="M188.891 273.669L188.891 277.278 192.119 277.278 192.119 273.479 188.891 273.669" transform="translate(38.000000, 18.000000)"/>
                    <g transform="translate(38.000000, 18.000000) translate(197.640018, 278.200024)">
                        <mask id="5x8o45r6vg" fill="#fff">
                            <use xlink:href="#i23pjv5cte"/>
                        </mask>
                        <path fill="url(#q4wbxtfc2f)" d="M0.645 2.295L3.597 2.295 3.597 -2.129 0.645 -2.129z" mask="url(#5x8o45r6vg)"/>
                    </g>
                    <g transform="translate(38.000000, 18.000000) translate(194.760018, 277.200024)">
                        <mask id="9tl8to3fej" fill="#fff">
                            <use xlink:href="#990fc4npvh"/>
                        </mask>
                        <path fill="url(#vfepjwynui)" d="M0.302 3.295L3.528 3.295 3.528 -1.129 0.302 -1.129z" mask="url(#9tl8to3fej)"/>
                    </g>
                    <g transform="translate(38.000000, 18.000000) translate(191.640018, 275.760024)">
                        <mask id="5ecxokvaem" fill="#fff">
                            <use xlink:href="#qfvalricdk"/>
                        </mask>
                        <path fill="url(#g6v5we8i9l)" d="M0.113 4.735L3.42 4.735 3.42 0.311 0.113 0.311z" mask="url(#5ecxokvaem)"/>
                    </g>
                    <g transform="translate(38.000000, 18.000000) translate(187.560018, 275.760024)">
                        <mask id="y12vw1q7yp" fill="#fff">
                            <use xlink:href="#7e94v7r8qn"/>
                        </mask>
                        <path fill="url(#0absic3r2o)" d="M0.887 4.735L4.193 4.735 4.193 0.311 0.887 0.311z" mask="url(#y12vw1q7yp)"/>
                    </g>
                    <g transform="translate(38.000000, 18.000000) translate(187.560018, 275.760024)">
                        <mask id="bnsdm09for" fill="#fff">
                            <use xlink:href="#cq273cvrjq"/>
                        </mask>
                        <path fill="#291C17" d="M0.472 4.735L0.887 4.735 0.887 0.311 0.472 0.311z" mask="url(#bnsdm09for)"/>
                    </g>
                    <path fill="#FFAD97" d="M169.681 273.669L169.681 277.278 172.909 277.278 172.909 273.479 169.681 273.669" transform="translate(38.000000, 18.000000)"/>
                    <g transform="translate(38.000000, 18.000000) translate(175.800017, 277.200024)">
                        <mask id="98py0u3b0u" fill="#fff">
                            <use xlink:href="#s9clftlwbs"/>
                        </mask>
                        <path fill="url(#wozfbj6t0t)" d="M0.012 3.295L6.225 3.295 6.225 -1.129 0.012 -1.129z" mask="url(#98py0u3b0u)"/>
                    </g>
                    <g transform="translate(38.000000, 18.000000) translate(168.600016, 275.760024)">
                        <mask id="hlghfzgo4w" fill="#fff">
                            <use xlink:href="#qhfagqguqv"/>
                        </mask>
                        <path fill="#332821" d="M6.631 4.735L7.212 4.735 7.212 0.311 6.631 0.311z" mask="url(#hlghfzgo4w)"/>
                        <path fill="#322720" d="M6.13 4.735L6.628 4.735 6.628 0.311 6.13 0.311z" mask="url(#hlghfzgo4w)"/>
                    </g>
                    <g transform="translate(38.000000, 18.000000) translate(168.840016, 275.760024)">
                        <mask id="9860gpuz6z" fill="#fff">
                            <use xlink:href="#5pq3ao5s5x"/>
                        </mask>
                        <path fill="url(#s96l622toy)" d="M0.4 4.735L5.892 4.735 5.892 0.311 0.4 0.311z" mask="url(#9860gpuz6z)"/>
                    </g>
                    <g transform="translate(38.000000, 18.000000) translate(168.600016, 275.760024)">
                        <mask id="ed6ho6gm2B" fill="#fff">
                            <use xlink:href="#ded99bbijA"/>
                        </mask>
                        <path fill="#291C17" d="M0.223 4.735L0.64 4.735 0.64 0.311 0.223 0.311z" mask="url(#ed6ho6gm2B)"/>
                    </g>
                    <path fill="#0C337D" d="M194.61 210.476l-1.42 64.063s-3.366.65-5.601 0c-1.875-9.763-2.123-31.228-4.801-45.374-2.687-14.147-4.64-17.082-4.64-23.424 0-6.344 16.462 4.735 16.462 4.735" transform="translate(38.000000, 18.000000)"/>
                    <path fill="#0C4296" d="M174.116 273.946s-2.393.65-5.259-.291l7.788-62.044h13.44l-15.969 62.335" transform="translate(38.000000, 18.000000)"/>
                    <path fill="#D65C5A" d="M187.381 176.769s5.723 7.732 9.608 11.312c1.745 1.728 9.323-5.454 14.029-10.529 0 0 2.344 1.109 2.963 4.455 0 0-4.08 4.202-10.126 10.725-5.221 5.642-9.743 5.311-15.126-1.563-5.377-6.86-1.348-14.4-1.348-14.4" transform="translate(38.000000, 18.000000)"/>
                    <path fill="#FFAF9C" d="M187.05 168.912c.375-4.617-1.774-8.79-1.774-8.79-.665.326-2.33.585-3.482.913-1.16.331-.826 2.008-.74 2.82.08.806-.176 2.675-.567 2.897-.38-.861-.96-3.732-2.065-2.465-1.106 1.276-.588 1.65-.179 3.32.412 1.665-1.63 1.76-1.63 1.76 1.455 3.9 1.046 5.077 1.78 5.881 1.673 1.837 6.083 2.892 5.518-.426-.775-1.86-1.345-3.186-1.345-3.186 3.079 1.164 4.251-.201 4.484-2.724" transform="translate(38.000000, 18.000000)"/>
                    <path fill="#19243E" d="M185.276 160.122s2.16-.867 2.186-2.197c.032-1.325-3.093-.689-5.84-1.221-2.742-.533-6.803-1.12-7.94 2.6 0 0-1.798 1.512-1.09 3.695.71 2.18 2.682 3.531 4.021 6.368 0 0 2.042-.095 1.63-1.76-.409-1.67-.927-2.044.179-3.32 1.106-1.267 1.685 1.604 2.065 2.465.391-.222.648-2.09.567-2.897-.086-.812-.42-2.489.74-2.82 1.152-.328 2.817-.587 3.482-.913" transform="translate(38.000000, 18.000000)"/>
                    <path fill="#19243E" d="M180.766 165.779s.82 3.925 2.534 3.905c1.711-.02 3.618-1.417 3.958-.1.33 1.31-1.227 3.023-2.875 2.865-1.638-.173-2.707-.821-3.052-1.86-.355-1.046-1.175-5.055-1.175-5.055l.61.245" transform="translate(38.000000, 18.000000)"/>
                    <path fill="#E36866" d="M178.021 174.58s-5.688 2.298-7.243 5.67c-1.56 3.373 3.871 9.672 5.8 29.034.142 1.425-.826 3.776-.826 3.776s8.683.411 19.057-1.956c0 0-1.84-17.876-3.663-25.096-1.818-7.218-2.73-9.533-7.445-11.708-3.157-.5-5.68.28-5.68.28" transform="translate(38.000000, 18.000000)"/>
                    <path fill="#FFAD97" d="M179.83 218.866c-.288-.28-.582-.576-.844-.93-1.22-1.642-1.483-3.514-.593-4.18.74-.55 2.039-.095 3.148 1.006l-1.71 4.104" transform="translate(38.000000, 18.000000)"/>
                    <path fill="#D65C5A" d="M170.778 180.25c-2.171 3.022-4.17 13.793-4.395 18.363-.21 4.568 8.53 14.654 10.262 15.973 0 0 2.171-1.115 2.243-3.11 0 0-6.246-10.014-6.75-13.116-.504-3.096 3.974-10.555 4.369-13.66.302-2.315-2.895-8.392-5.729-4.45" transform="translate(38.000000, 18.000000)"/>
                    <path fill="#FFAD97" d="M214.151 174.502c-1.04 1.443-1.129 3.145-.21 3.802.91.65 2.5.011 3.528-1.435 1.028-1.442 1.12-3.147.213-3.798-.919-.666-2.506-.02-3.53 1.431" transform="translate(38.000000, 18.000000)"/>
                    <path fill="#0C4296" d="M218.655 175.902c0 .31-.285.596-.596.596h-4.121c-.311 0-.596-.285-.596-.596v-9.772c0-.337.285-.596.596-.596h4.121c.311 0 .596.259.596.596v9.772" transform="translate(38.000000, 18.000000)"/>
                    <path fill="#B5C9FF" d="M213.523 175.332L218.474 175.332 218.474 166.674 213.523 166.674z" transform="translate(38.000000, 18.000000)"/>
                    <path fill="#0B263C" d="M216.711 166.156L215.286 166.156 215.234 166.104 215.286 166.052 216.711 166.052 216.763 166.104 216.711 166.156" transform="translate(38.000000, 18.000000)"/>
                    <path fill="#0C4296" d="M216.665 175.916L216.354 176.224 215.634 176.224 215.323 175.916 215.634 175.611 216.354 175.611 216.665 175.916" transform="translate(38.000000, 18.000000)"/>
                    <path fill="#FFAD97" d="M215.058 174.306c.311.36.115 1.049-.438 1.547-.564.487-1.272.596-1.584.239-.316-.354-.118-1.048.441-1.538.562-.49 1.267-.593 1.581-.248" transform="translate(38.000000, 18.000000)"/>
                    <path fill="#C1CCDF" d="M129.027 296.896c-9.539 0-17.263-.596-17.263-1.347 0-.752 7.724-1.348 17.263-1.348 9.538 0 17.263.622 17.263 1.348 0 .751-7.725 1.347-17.263 1.347" transform="translate(38.000000, 18.000000)"/>
                    <path fill="#6EB1FF" d="M149.711 274.277c0 11.664-9.458 21.122-21.13 21.122-11.667 0-21.122-9.458-21.122-21.122s9.455-21.134 21.121-21.134c11.673 0 21.131 9.47 21.131 21.134" transform="translate(38.000000, 18.000000)"/>
                    <path fill="#FFF" d="M117.086 275.697v-2.849c.703-.028 1.23-.16 1.558-.411.337-.248.59-.628.772-1.155.179-.516.271-1.391.271-2.636 0-1.558.066-2.629.216-3.205.138-.57.369-1.031.671-1.368.317-.343.775-.628 1.38-.847.613-.23 1.48-.334 2.623-.334h.631v2.846c-.85 0-1.405.04-1.668.13-.259.094-.455.235-.576.449-.12.204-.178.581-.178 1.134 0 .994-.049 2.108-.141 3.332-.066.795-.291 1.512-.663 2.14-.273.464-.751.925-1.434 1.362.582.335 1.037.75 1.38 1.259.34.504.564 1.152.674 1.935.051.337.103 1.438.16 3.307.027.688.07 1.111.13 1.275.11.242.303.432.585.565.282.115.853.184 1.731.184v2.837h-.63c-1.144 0-2-.086-2.564-.276-.547-.185-.994-.444-1.348-.815-.348-.355-.596-.81-.749-1.357-.155-.553-.23-1.498-.23-2.848 0-1.49-.08-2.506-.248-3.033-.164-.521-.414-.919-.76-1.175-.34-.256-.873-.406-1.593-.446M140.08 272.848v2.849c-.7.04-1.215.172-1.564.414-.336.248-.596.622-.766 1.152-.187.525-.282 1.403-.282 2.647 0 1.564-.066 2.63-.207 3.188-.13.58-.357 1.034-.671 1.371-.314.352-.78.628-1.377.853-.608.221-1.483.325-2.618.325h-.63v-2.837c.843 0 1.4-.043 1.653-.138.265-.095.46-.23.578-.446.124-.205.19-.573.19-1.132 0-.997.047-2.114.139-3.335.055-.79.273-1.5.645-2.123.288-.47.766-.924 1.446-1.36-.585-.336-1.034-.754-1.368-1.258-.343-.518-.573-1.163-.683-1.955-.046-.329-.106-1.432-.17-3.3-.026-.698-.06-1.127-.138-1.285-.104-.248-.294-.44-.573-.556-.288-.124-.856-.184-1.72-.184v-2.846h.631c1.144 0 1.99.101 2.543.288.547.182 1.002.455 1.362.821.352.36.594.815.746 1.362.165.547.237 1.49.237 2.849 0 1.486.083 2.502.241 3.015.159.527.418.919.758 1.18.34.257.878.41 1.598.441" transform="translate(38.000000, 18.000000)"/>
                    <path fill="#C0CCD3" d="M260.231 284.558c-8.139 0-14.748-.362-14.748-.803 0-.44 6.61-.778 14.748-.778 8.165 0 14.749.363 14.749.804 0 .44-6.584.777-14.749.777" transform="translate(38.000000, 18.000000)"/>
                    <path fill="#EFA330" d="M279.167 263.373c0 11.353-9.207 20.549-20.554 20.549-11.35 0-20.544-9.196-20.544-20.549s9.193-20.552 20.544-20.552c11.347 0 20.554 9.2 20.554 20.552" transform="translate(38.000000, 18.000000)"/>
                    <path fill="#F2FBFD" d="M254.117 267.209L254.117 269.663 244.296 264.672 244.296 262.495 254.117 257.507 254.117 259.963 247.113 263.586 254.117 267.209M254.926 270.792L260.629 255.946 262.526 255.946 256.827 270.792 254.926 270.792M263.114 259.963L263.114 257.501 272.935 262.495 272.935 264.672 263.114 269.663 263.114 267.209 270.124 263.586 263.114 259.963" transform="translate(38.000000, 18.000000)"/>
                    <g transform="translate(38.000000, 18.000000) translate(327.000029, 270.000023)"/>
                    <g transform="translate(38.000000, 18.000000) translate(337.080029, 253.920022)"/>
                    <g transform="translate(38.000000, 18.000000) translate(396.360034, 198.000018)"/>
                    <path fill="#4E89F1" d="M40.79 167.939s12.136-19.697 17.063-28.726c0 0 2.129-.328 3.278 2.048 0 0-9.913 23.184-16.86 31.66-6.952 8.482-3.482-4.982-3.482-4.982" transform="translate(38.000000, 18.000000)"/>
                    <path fill="#FDFEFD" d="M62.905 137.223c.59-1.23.34-2.566-.541-2.998-.893-.426-2.097.225-2.682 1.443-.587 1.23-.348 2.57.545 2.992.89.432 2.088-.216 2.678-1.437" transform="translate(38.000000, 18.000000)"/>
                    <path fill="#FECB15" d="M86.544 138.136c0 1.74-1.426 3.165-3.165 3.165H54.495c-1.736 0-3.165-1.425-3.165-3.165v-17.009c0-1.748 1.429-3.168 3.165-3.168H83.38c1.74 0 3.165 1.42 3.165 3.168v17.01" transform="translate(38.000000, 18.000000)"/>
                    <path fill="#FFF" d="M56.09 121.127c-.872 0-1.583.711-1.583 1.575l-.009 13.847c-.003.873.712 1.587 1.581 1.587h25.719c.864 0 1.58-.714 1.58-1.587v-13.847c0-.864-.716-1.575-1.58-1.575H56.09" transform="translate(38.000000, 18.000000)"/>
                    <path fill="#FECB15" d="M60.981 126.323v2.707h.927c.62 0 .928-.213.928-.64v-2.067H60.98zm-1.958-1.823h4.334c.389 0 .726.126 1.011.385.29.268.438.588.438.96v2.545c0 .752-.294 1.36-.87 1.815-.541.432-1.215.645-2.028.645h-.927v3.522h-1.958V124.5zM68.121 130.349L68.121 134.372 66.162 134.372 66.162 124.5 68.121 124.5 68.121 128.517 69.978 128.517 69.978 124.5 71.94 124.5 71.94 134.372 69.978 134.372 69.978 130.349 68.121 130.349M75.85 126.323v2.707h.928c.62 0 .927-.213.927-.64v-2.067h-1.854zm-1.96-1.823h4.334c.391 0 .731.126 1.01.385.291.268.435.588.435.96v2.545c0 .752-.288 1.36-.866 1.815-.542.432-1.213.645-2.025.645h-.927v3.522h-1.962V124.5z" transform="translate(38.000000, 18.000000)"/>
                    <path fill="#C6D4EA" d="M29.796 284.247c-16.434 0-29.783-1.27-29.783-2.85 0-1.582 13.35-2.852 29.783-2.852s29.756 1.27 29.756 2.851-13.323 2.851-29.756 2.851" transform="translate(38.000000, 18.000000)"/>
                    <path fill="#FDFEFD" d="M38.546 275.236L38.546 278.683 41.639 278.683 41.639 275.052 38.546 275.236" transform="translate(38.000000, 18.000000)"/>
                    <path fill="#FFAD97" d="M39.624 275L38 278.041 40.733 279.499 42.435 276.29 39.624 275" transform="translate(38.000000, 18.000000) translate(40.217600, 277.249280) rotate(-29.000000) translate(-40.217600, -277.249280)"/>
                    <g transform="translate(38.000000, 18.000000) translate(37.800006, 277.200024)">
                        <mask id="h7hog99dmH" fill="#fff">
                            <use xlink:href="#pc1msbi2bF"/>
                        </mask>
                        <path fill="url(#bdxerpj21G)" d="M0.346 4.559L12.557 4.559 12.557 0.325 0.346 0.325z" mask="url(#h7hog99dmH)"/>
                    </g>
                    <g transform="translate(38.000000, 18.000000) translate(37.560006, 277.200024)">
                        <mask id="zm957ae45J" fill="#fff">
                            <use xlink:href="#zlb7apjusI"/>
                        </mask>
                        <path fill="#291C17" d="M0.171 4.559L0.586 4.559 0.586 0.325 0.171 0.325z" mask="url(#zm957ae45J)"/>
                    </g>
                    <path fill="#FFAD97" d="M8.893 272.647L7.269 275.688 10.002 277.145 11.704 273.937 8.893 272.647" transform="translate(38.000000, 18.000000)"/>
                    <g transform="translate(38.000000, 18.000000) translate(4.680003, 274.320024)">
                        <mask id="g9o4flmgcM" fill="#fff">
                            <use xlink:href="#pbxzyeztxK"/>
                        </mask>
                        <path fill="url(#fwwoa1yjeL)" d="M14.38 2.082L8.749 12.635 -1.086 7.384 4.545 -3.165" mask="url(#g9o4flmgcM)"/>
                    </g>
                    <g transform="translate(38.000000, 18.000000) translate(4.680003, 274.320024)">
                        <mask id="zyjwk0kbpO" fill="#fff">
                            <use xlink:href="#u9e55vsp2N"/>
                        </mask>
                        <path fill="#291C17" d="M4.545 -3.165L-1.086 7.384 -2.837 6.451 2.794 -4.101" mask="url(#zyjwk0kbpO)"/>
                    </g>
                    <path fill="#0C337D" d="M29.428 211.513c-4.637 5.74-3.338 18.625-6.95 27.49-3.611 8.864-14.613 33.817-14.613 33.817s1.478 2.088 4.202 2.088c0 0 22.553-34.097 26.165-45.916 3.614-11.814 1.812-18.213 1.812-18.213s-9.326-.856-10.616.734" transform="translate(38.000000, 18.000000)"/>
                    <path fill="#0C4296" d="M30.796 208.748c-3.825 10.51 4.32 21.718 5.636 38.137 1.308 16.413 1.308 29.382 1.308 29.382s2.903.878 4.766 0c0 0 4.585-53.908 4.585-63.481 0-9.565-15.754-5.533-16.295-4.038" transform="translate(38.000000, 18.000000)"/>
                    <path fill="#FFAD97" d="M44.36 166.216c.168-4.527-2.125-8.519-2.125-8.519-.633.352-2.252.671-3.364 1.043-1.123.386-.72 2.001-.599 2.788.11.789-.052 2.64-.423 2.865-.412-.823-1.103-3.617-2.14-2.321-1.025 1.305-.495 1.644-.017 3.26.472 1.616-1.52 1.794-1.52 1.794 1.595 3.75 2.398 4.83 2.398 4.83s5.25 2.48 4.56-.74c-.343-1.61-1.04-2.137-1.04-2.137 3.067 1.002 4.155-.386 4.27-2.863" transform="translate(38.000000, 18.000000)"/>
                    <path fill="#6EB1FF" d="M35.965 170.937s-6.264 1.264-6.264 11.217c0 9.965-.406 29.586-.406 29.586s11.417 2.633 18.13.833c-2.065-22.358 3.312-24.878.665-33.1-1.636-5.1-5.647-9.207-12.125-8.536" transform="translate(38.000000, 18.000000)"/>
                    <path fill="#6EB1FF" d="M39.6 173.494c3.586-2.246 20.652-21.073 26.879-29.25 0 0 2.16-.005 2.938 2.518 0 0-16.814 24.828-24.967 32.17-8.153 7.332-11.558-1.233-4.85-5.438" transform="translate(38.000000, 18.000000)"/>
                    <path fill="#FFAD97" d="M71.775 143.03c.77-1.124.735-2.483-.077-3.042-.815-.553-2.1-.092-2.866 1.025-.769 1.127-.732 2.486.08 3.042.819.558 2.1.1 2.863-1.026" transform="translate(38.000000, 18.000000)"/>
                    <path fill="#19243E" d="M20.177 187.508c-.213-6.595-.325-12.68 5.708-18.916 4.34-4.487 3.551-14.601 13.012-13.199 2.55.386 3.338 2.304 3.338 2.304-.973 6.126-5.89 5.844-5.89 13.859 0 12.251-4.273 9.008-5.276 15.748-.999 6.73 2.39 13.351-.999 17.657-1.31 1.662-2.825 2.506-4.303 2.747-.265.666-.561 1.296-.887 1.896-5.644 10.373-12.018 3.821-9.288-1.098 2.73-4.907.72-3.482-.907-7.275-3.5-8.153.697-12.228 5.492-13.723" transform="translate(38.000000, 18.000000)"/>
                    <path fill="#4E89F1" d="M345.81 182.497s-1.63.144-5.483 3.528c-2.42 2.12-5.435 5.13-8.47 7.229-7.874 5.429-17.033 9.222-17.033 9.222s-.265 1.658.746 2.911c3.344-.521 24.014-8.19 29.621-12.77 5.613-4.576 5.04-11.134.62-10.12" transform="translate(38.000000, 18.000000)"/>
                    <path fill="#FFAD97" d="M320.314 274.493L320.314 278.032 317.385 278.032 317.385 274.306 320.314 274.493" transform="translate(38.000000, 18.000000)"/>
                    <g transform="translate(38.000000, 18.000000) translate(308.520027, 278.400024)">
                        <mask id="u5gnlrxszR" fill="#fff">
                            <use xlink:href="#fsfrkkcmkP"/>
                        </mask>
                        <path fill="url(#dsntyy6sfQ)" d="M0.588 2.786L5.849 2.786 5.849 -1.557 0.588 -1.557z" mask="url(#u5gnlrxszR)"/>
                    </g>
                    <g transform="translate(38.000000, 18.000000) translate(314.280028, 276.760024)">
                        <mask id="583xagbh6U" fill="#fff">
                            <use xlink:href="#me6fnc1mvS"/>
                        </mask>
                        <path fill="url(#3u4z6ngp4T)" d="M0.089 4.426L6.391 4.426 6.391 0.083 0.089 0.083z" mask="url(#583xagbh6U)"/>
                    </g>
                    <g transform="translate(38.000000, 18.000000) translate(308.520027, 276.760024)">
                        <mask id="5egiu2k7cW" fill="#fff">
                            <use xlink:href="#xxl3l79vqV"/>
                        </mask>
                        <path fill="#291C17" d="M12.151 4.426L12.565 4.426 12.565 0.083 12.151 0.083z" mask="url(#5egiu2k7cW)"/>
                    </g>
                    <path fill="#FFAD97" d="M350.222 272.327L351.432 275.636 348.699 276.636 347.414 273.151 350.222 272.327" transform="translate(38.000000, 18.000000)"/>
                    <g transform="translate(38.000000, 18.000000) translate(344.520030, 274.320024)">
                        <mask id="faoqz2pb4Z" fill="#fff">
                            <use xlink:href="#82c86mi2yX"/>
                        </mask>
                        <path fill="url(#awr4kaceeY)" d="M-5.204 0.996L-1.644 10.702 9.271 6.699 5.711 -3.007" mask="url(#faoqz2pb4Z)"/>
                    </g>
                    <g transform="translate(38.000000, 18.000000) translate(341.640030, 274.320024)">
                        <mask id="58euvhyxnab" fill="#fff">
                            <use xlink:href="#40dxaw6i3aa"/>
                        </mask>
                        <path fill="#291C17" d="M8.591 6.699L13.761 6.699 13.761 -3.597 8.591 -3.597z" mask="url(#58euvhyxnab)"/>
                    </g>
                    <path fill="#FFAD97" d="M337.499 177.368c-1.67-5.04-.395-10.27-.395-10.27.835.19 2.745.02 4.118.08 1.38.06 1.46 2.013 1.584 2.938.124.927.92 2.94 1.415 3.081.19-1.065.057-4.42 1.641-3.3 1.57 1.132 1.089 1.679 1.08 3.646-.009 1.97 2.293 1.526 2.293 1.526-.378 4.631-.334 4.712-.334 6.164 0 2.31-6.832 8.427-6.665 2.122.05-1.932.977-4.164.977-4.164-3.11 2.122-4.793.918-5.714-1.823" transform="translate(38.000000, 18.000000)"/>
                    <path fill="#19243E" d="M337.104 167.098s-2.647-.383-3.03-1.855c-.38-1.472 3.263-1.607 6.18-2.93 2.91-1.33 7.279-3.072 9.536.764 0 0 2.411 1.192 2.215 3.819-.21 2.62-2.036 4.66-2.77 8.173 0 0-2.302.444-2.293-1.526.009-1.967.49-2.514-1.08-3.646-1.584-1.12-1.451 2.235-1.641 3.3-.496-.14-1.29-2.154-1.415-3.081-.123-.925-.204-2.877-1.584-2.938-1.373-.06-3.283.11-4.118-.08" transform="translate(38.000000, 18.000000)"/>
                    <path fill="#19243E" d="M343.642 172.19s.147 4.587-1.763 5.028c-1.918.435-4.424-.61-4.44.942-.021 1.555 2.176 3.05 3.968 2.419 1.782-.634 2.796-1.63 2.909-2.883.112-1.256-.05-5.941-.05-5.941l-.624.434" transform="translate(38.000000, 18.000000)"/>
                    <path fill="#192152" d="M324.193 221.14s-5.53 18.56-6.67 27.058c-1.143 8.485-1.305 27.055-1.305 27.055s2.445 1.394 5.227 0c0 0 1.875-25.102 8.983-35.032 7.12-9.922 5.032-14.826 5.032-14.826l-11.267-4.254" transform="translate(38.000000, 18.000000)"/>
                    <path fill="#FFAD97" d="M314.188 204.048c.32.824-.438 1.878-1.705 2.376-1.262.501-2.54.233-2.863-.585-.317-.82.444-1.886 1.7-2.381 1.264-.49 2.545-.23 2.868.59" transform="translate(38.000000, 18.000000)"/>
                    <path fill="#0C337D" d="M343.146 221.711s-5.36 14.872.527 30.563c5.881 15.69 7.84 20.923 7.84 20.923s-1.777 1.837-4.467 1.16c-2.46-3.674-17.427-28.128-20.206-40.06-1.964-8.49-2.437-12.83-2.437-12.83l18.743.244" transform="translate(38.000000, 18.000000)"/>
                    <path fill="#6EB1FF" d="M335.58 188.459s4.087-6.38 9.398-7.028c5.308-.653 7.27 3.923 5.884 10.708-1.385 6.783-7.681 21.612-6.702 29.82 0 0-10.17 5.766-20.84 0 0 0 6.993-24.72 12.26-33.5" transform="translate(38.000000, 18.000000)"/>
                    <path fill="#011269" d="M230.971 214.885h95.51c1.326 0 2.4-1.074 2.4-2.4v-55.2h-100.31v55.2c0 1.326 1.075 2.4 2.4 2.4z" transform="translate(38.000000, 18.000000)"/>
                    <path fill="#B7C7F0" d="M228.571 158.653h100.31v-5.551c0-1.326-1.074-2.4-2.4-2.4h-95.51c-1.325 0-2.4 1.074-2.4 2.4v5.551z" transform="translate(38.000000, 18.000000)"/>
                    <path fill="#FFF" d="M232.835 157.167c1.316 0 2.383-1.067 2.383-2.383v-.006c0-1.316-1.067-2.383-2.383-2.383s-2.383 1.067-2.383 2.383v.006c0 1.316 1.067 2.383 2.383 2.383zM247.005 157.167h56.168c1.318 0 2.386-1.068 2.386-2.386s-1.068-2.386-2.386-2.386h-56.168c-1.318 0-2.386 1.068-2.386 2.386s1.068 2.386 2.386 2.386z" transform="translate(38.000000, 18.000000)"/>
                    <path fill="#000" d="M233.401 156.007L231.86 154.763 233.401 153.513 233.401 156.007" transform="translate(38.000000, 18.000000)"/>
                    <path fill="#FFF" d="M239.658 157.167h.003c1.317 0 2.386-1.068 2.386-2.386s-1.069-2.386-2.386-2.386h-.003c-1.318 0-2.386 1.068-2.386 2.386s1.068 2.386 2.386 2.386z" transform="translate(38.000000, 18.000000)"/>
                    <path fill="#000" d="M239.089 156.007L240.63 154.763 239.089 153.513 239.089 156.007" transform="translate(38.000000, 18.000000)"/>
                    <path fill="#A5B2C9" d="M313.5 154.725c0 1.126-.92 2.056-2.051 2.056-1.138 0-2.053-.93-2.053-2.056 0-1.135.915-2.056 2.053-2.056 1.132 0 2.05.921 2.05 2.056M319.89 154.725c0 1.126-.913 2.056-2.045 2.056-1.14 0-2.053-.93-2.053-2.056 0-1.135.913-2.056 2.053-2.056 1.132 0 2.045.921 2.045 2.056M326.295 154.725c0 1.126-.915 2.056-2.05 2.056-1.138 0-2.054-.93-2.054-2.056 0-1.135.916-2.056 2.054-2.056 1.135 0 2.05.921 2.05 2.056" transform="translate(38.000000, 18.000000)"/>
                    <path fill="#E0E0E0" d="M239.236 211.061L240.359 211.061 240.359 162.377 239.236 162.377zM234.685 165.764L236.563 165.764 236.563 163.881 234.685 163.881zM234.685 169.888L236.563 169.888 236.563 168.005 234.685 168.005zM234.685 174.01L236.563 174.01 236.563 172.126 234.685 172.126zM234.685 178.14L236.563 178.14 236.563 176.253 234.685 176.253zM234.685 182.252L236.563 182.252 236.563 180.377 234.685 180.377zM234.685 186.373L236.563 186.373 236.563 184.493 234.685 184.493zM234.685 190.5L236.563 190.5 236.563 188.611 234.685 188.611zM234.685 194.616L236.563 194.616 236.563 192.738 234.685 192.738zM234.685 198.74L236.563 198.74 236.563 196.86 234.685 196.86zM234.685 202.861L236.563 202.861 236.563 200.972 234.685 200.972zM234.685 206.977L236.563 206.977 236.563 205.105 234.685 205.105z" transform="translate(38.000000, 18.000000)"/>
                    <path fill="#FFF" d="M244.941 163.377l-1.37 1.451v.366l1.321 1.37.366.007.086-.196-.075-.182s-.88-.916-1.143-1.183c.262-.28 1.201-1.276 1.201-1.276l.072-.179-.092-.196-.366.018M251.39 163.36l-.081.195.069.179s.936.996 1.195 1.276c-.26.267-1.137 1.183-1.137 1.183l-.072.182.08.196.372-.006 1.322-1.371v-.366l-1.371-1.451-.378-.018M249.273 163.5L246.735 166.101 246.735 166.47 247.11 166.461 249.647 163.878 249.644 163.5 249.273 163.5M244.941 207.98l-1.37 1.456v.366l1.321 1.362.366.01.086-.185-.075-.196s-.88-.904-1.143-1.178c.262-.274 1.201-1.273 1.201-1.273l.072-.184-.092-.19-.366.011M251.39 207.968l-.081.19.069.184s.936 1 1.195 1.273c-.26.274-1.137 1.178-1.137 1.178l-.072.196.08.184.372-.009 1.322-1.362v-.366l-1.371-1.457-.378-.011M249.273 208.117L246.735 210.701 246.735 211.078 247.11 211.069 249.647 208.492 249.644 208.115 249.273 208.117" transform="translate(38.000000, 18.000000)"/>
                    <path fill="#E29616" d="M241.554 169.387L250.125 169.387 250.125 167.694 241.554 167.694z" transform="translate(38.000000, 18.000000)"/>
                    <path fill="#F19B0F" d="M241.554 191.915L251.182 191.915 251.182 190.212 241.554 190.212zM241.554 206.974L248.109 206.974 248.109 205.269 241.554 205.269z" transform="translate(38.000000, 18.000000)"/>
                    <path fill="#17BB99" d="M243.668 173.151L257.36 173.151 257.36 171.458 243.668 171.458z" transform="translate(38.000000, 18.000000)"/>
                    <path fill="#FBDD82" d="M243.668 195.742L256.205 195.742 256.205 194.046 243.668 194.046z" transform="translate(38.000000, 18.000000)"/>
                    <path fill="#89C0C8" d="M243.668 199.359L255.966 199.359 255.966 197.669 243.668 197.669z" transform="translate(38.000000, 18.000000)"/>
                    <path fill="#17BB99" d="M243.668 203.124L250.258 203.124 250.258 201.433 243.668 201.433z" transform="translate(38.000000, 18.000000)"/>
                    <path fill="#FBDD82" d="M251.827 203.124L279.87 203.124 279.87 201.433 251.827 201.433zM257.409 199.359L277.802 199.359 277.802 197.669 257.409 197.669z" transform="translate(38.000000, 18.000000)"/>
                    <path fill="#E29616" d="M279.369 199.359L285.955 199.359 285.955 197.669 279.369 197.669z" transform="translate(38.000000, 18.000000)"/>
                    <path fill="#89C0C8" d="M288.907 195.742L302 195.742 302 194.046 288.907 194.046z" transform="translate(38.000000, 18.000000)"/>
                    <path fill="#17BB99" d="M257.533 195.742L287.257 195.742 287.257 194.046 257.533 194.046z" transform="translate(38.000000, 18.000000)"/>
                    <path fill="#FBDD82" d="M258.774 173.151L266.63 173.151 266.63 171.458 258.774 171.458zM243.668 180.775L252.729 180.775 252.729 179.084 243.668 179.084z" transform="translate(38.000000, 18.000000)"/>
                    <path fill="#17BB99" d="M268.888 180.769L254.195 180.775 254.195 179.084 268.888 179.07 268.888 180.769" transform="translate(38.000000, 18.000000)"/>
                    <path fill="#89C0C8" d="M268.045 173.151L282.116 173.151 282.116 171.458 268.045 171.458zM243.668 177.013L259.275 177.013 259.275 175.311 243.668 175.311z" transform="translate(38.000000, 18.000000)"/>
                    <path fill="#E29616" d="M260.888 177.013L276.146 177.013 276.146 175.311 260.888 175.311z" transform="translate(38.000000, 18.000000)"/>
                    <path fill="#17BB99" d="M277.661 177.013L288.32 177.013 288.32 175.311 277.661 175.311z" transform="translate(38.000000, 18.000000)"/>
                    <path fill="#89C0C8" d="M243.668 184.533L262.164 184.533 262.164 182.848 243.668 182.848z" transform="translate(38.000000, 18.000000)"/>
                    <path fill="#FBDD82" d="M263.578 184.533L273.445 184.533 273.445 182.848 263.578 182.848z" transform="translate(38.000000, 18.000000)"/>
                    <path fill="#17BB99" d="M243.668 188.116L262.164 188.116 262.164 186.42 243.668 186.42z" transform="translate(38.000000, 18.000000)"/>
                    <path fill="#89C0C8" d="M263.578 188.116L280.728 188.116 280.728 186.42 263.578 186.42z" transform="translate(38.000000, 18.000000)"/>
                    <path fill="#17BB99" d="M275.089 184.533L294.215 184.533 294.215 182.848 275.089 182.848zM251.767 169.387L256.185 169.387 256.185 167.694 251.767 167.694z" transform="translate(38.000000, 18.000000)"/>
                    <path fill="#FFAD97" d="M315.248 210.911c.322.827-.438 1.886-1.697 2.379-1.255.492-2.548.233-2.862-.59-.326-.818.437-1.884 1.696-2.38 1.264-.495 2.549-.227 2.863.591" transform="translate(38.000000, 18.000000)"/>
                    <path fill="#4E89F1" d="M346.297 184.62s-1.714.325-5.432 4.262c-2.338 2.48-5.21 5.959-8.2 8.464-7.752 6.515-17.017 11.428-17.017 11.428s-.11 1.766 1.074 2.992c3.476-.892 24.477-11.033 29.935-16.424 5.449-5.383 4.19-12.232-.36-10.722" transform="translate(38.000000, 18.000000)"/>
                </g>
            </g>
        </g>
    </g>
</svg>
