<svg xmlns="http://www.w3.org/2000/svg" xmlns:xlink="http://www.w3.org/1999/xlink" width="431" height="283" viewBox="0 0 431 283">
    <defs>
        <path id="cl5gsujtia" d="M155.713 46.85s-27.528 31.918-87.769 41.537C-23.8 103.033-21.939 216.86 77.461 240.042c55.913 13.04 72.006 6.826 100.416.612 22.098-4.834 51.647-9.667 113.18-5.441 140.64 9.659 106.49-95.313 55.348-127.72-52.891-33.51-3.256-93.247-81.773-106.043-61.697-10.053-108.919 45.4-108.919 45.4"/>
    </defs>
    <g fill="none" fill-rule="evenodd">
        <g>
            <g>
                <path fill="#F2F7FF" d="M170.388 74.072s-27.534 32.024-87.789 41.674C-9.166 130.44-7.304 244.643 92.12 267.902c55.924 13.084 72.021 6.849 100.438.614 22.103-4.85 51.658-9.699 113.204-5.46 140.673 9.691 106.516-95.627 55.361-128.14-52.903-33.622-3.256-93.556-81.792-106.393-61.71-10.087-108.942 45.55-108.942 45.55" transform="translate(-202.000000, -1399.000000) translate(202.000000, 1399.000000)"/>
                <g transform="translate(-202.000000, -1399.000000) translate(202.000000, 1399.000000) translate(14.300000, 27.300000)">
                    <mask id="2j972aalib" fill="#fff">
                        <use xlink:href="#cl5gsujtia"/>
                    </mask>
                    <path fill="#F2F7FF" d="M104.411 38.134S57.474 224.536 257.621 233.69l-262.785-9.174L-17.61 97.743.96 60.314l103.451-22.18" mask="url(#2j972aalib)"/>
                </g>
                <path fill="#FFFFFE" d="M24.7 282.1L430.3 282.1 430.3 231.4 24.7 231.4z" transform="translate(-202.000000, -1399.000000) translate(202.000000, 1399.000000)"/>
                <path fill="#7ECAE6" d="M40.093 210.598c-.584.055-15.463-1.224-16.597-14.904-1.132-13.681 8.197-17.387 5.2-32.56-2.997-15.173-9.664-19.34 4.575-30.959 0 0 6.366-4.7 6.458-10.997.112-7.541 12.886-16.712 21.82-11.98 8.935 4.73 7.136 12.558.051 25.361s.22 14.755 1.8 18.767c1.579 4.01 5.066 8.158-2.27 18.113-7.335 9.954 2.189 21.496-4.021 31.003 0 0-5.491 7.064-17.016 8.156" transform="translate(-202.000000, -1399.000000) translate(202.000000, 1399.000000)"/>
                <path fill="#34B2CA" d="M44.105 231.374c.3-.089.485-.411.415-.734-8.933-41.624 4.724-99.287 4.862-99.865.08-.333-.113-.672-.433-.756-.32-.084-.646.12-.725.453-.14.58-13.864 58.531-4.87 100.44.072.336.392.547.713.473l.038-.011" transform="translate(-202.000000, -1399.000000) translate(202.000000, 1399.000000)"/>
                <path fill="#34B2CA" d="M43.744 157.275l.102-.042c.313-.156.443-.543.29-.865-.036-.075-3.615-7.655-5.195-14.175-.083-.347-.425-.558-.763-.475-.34.086-.542.44-.46.786 1.613 6.658 5.249 14.355 5.286 14.432.136.287.452.424.74.339M42.369 172.875l.228-.13c2.932-2.67 10.36-7.76 10.435-7.812.275-.188.351-.572.168-.856-.185-.285-.554-.364-.834-.171-.307.21-7.57 5.189-10.564 7.915-.247.223-.272.616-.051.87.16.186.4.25.618.184" transform="translate(-202.000000, -1399.000000) translate(202.000000, 1399.000000)"/>
                <path fill="#C7D8EF" d="M0 29.9s4.225-4.735 6.815-6.905c4.662-3.909 10.012-10.817 27.116-5.725 1.33.397 2.617.92 3.897 1.45 1.51.622 6.18.638 10.964-3.063C56.392 9.777 59.366 5.339 69.78 5.2c12.118-.16 14.024 14.558 23.443 18.323 5.993 2.399 21.807 4.781 25.077 5.844L0 29.9M295.917 13.504l.614.521c.001 0 .535-.6 1.236-1.338.697-.737 1.568-1.618 2.18-2.131.942-.795 1.844-1.713 3.032-2.429 1.189-.712 2.646-1.247 4.786-1.252 1.44 0 3.19.251 5.341.893.634.188 1.269.445 1.924.717.384.154.829.22 1.377.224 1.313 0 3.194-.45 5.08-1.909 1.989-1.546 3.347-2.863 4.78-3.75 1.434-.884 2.942-1.415 5.504-1.458h.09c1.361.005 2.374.4 3.296 1.05 1.381.974 2.497 2.596 3.712 4.224 1.22 1.614 2.565 3.264 4.624 4.095 1.668.663 4.466 1.268 7.11 1.804 1.317.265 2.587.508 3.628.718 1.033.207 1.862.393 2.195.502l.258-.755-.003-.796-60.77.274.006.796.614.521-.614-.521.003.796 60.767-.273c.4-.002.74-.286.803-.671.062-.385-.17-.758-.549-.88-.506-.164-1.322-.337-2.381-.552-1.577-.318-3.642-.706-5.595-1.128-1.948-.418-3.8-.882-4.853-1.308-2.07-.806-3.489-3-5.13-5.176-.826-1.08-1.72-2.141-2.864-2.956-1.138-.817-2.552-1.36-4.257-1.356l-.113.002c-2.786.03-4.717.675-6.358 1.706-1.645 1.029-3.004 2.365-4.917 3.845-1.59 1.233-3.126 1.564-4.066 1.564-.382.003-.672-.066-.74-.097-.66-.274-1.348-.555-2.084-.774-2.273-.677-4.182-.963-5.818-.963-2.428-.004-4.247.643-5.643 1.492-1.397.844-2.386 1.863-3.238 2.573-1.415 1.193-3.568 3.619-3.583 3.633-.21.235-.26.57-.127.853.133.285.425.466.746.466l-.003-.796M425.1 97.5s-2.135-2.493-3.444-3.634c-2.358-2.057-5.06-5.692-13.707-3.013-.674.208-1.324.485-1.97.763-.763.327-3.126.336-5.544-1.613-3.842-3.094-5.344-5.43-10.61-5.502-6.125-.085-7.087 7.661-11.849 9.645-3.03 1.261-11.024 2.515-12.676 3.074l59.8.28" transform="translate(-202.000000, -1399.000000) translate(202.000000, 1399.000000)"/>
                <path fill="#FFFFFE" d="M374.995 175.949l-.596-1.749-.594 1.749c-.502 1.473-1.693 2.717-3.305 3.452 1.612.735 2.803 1.979 3.305 3.45l.594 1.749.596-1.749c.5-1.471 1.693-2.715 3.305-3.45-1.612-.735-2.805-1.98-3.305-3.452M79.895 135.649L79.3 133.9l-.594 1.749c-.502 1.473-1.693 2.715-3.305 3.45 1.612.735 2.803 1.98 3.305 3.452l.594 1.749.596-1.749c.502-1.473 1.693-2.717 3.305-3.452-1.612-.735-2.803-1.977-3.305-3.45M284.394 45.96l-.993-3.06-.992 3.06c-.836 2.578-2.82 4.754-5.509 6.04 2.689 1.286 4.673 3.462 5.51 6.04l.99 3.06.994-3.06c.834-2.578 2.819-4.754 5.506-6.04-2.687-1.286-4.672-3.462-5.506-6.04" transform="translate(-202.000000, -1399.000000) translate(202.000000, 1399.000000)"/>
                <path fill="#303A7D" d="M242.847 231.4H109.455c-4.447 0-8.055-3.598-8.055-8.035V52.236c0-4.438 3.608-8.036 8.055-8.036h133.392c4.449 0 8.053 3.598 8.053 8.036v171.13c0 4.436-3.604 8.034-8.053 8.034" transform="translate(-202.000000, -1399.000000) translate(202.000000, 1399.000000)"/>
                <path fill="#FFFFFE" d="M238.849 209.3H113.45c-3.784 0-6.851-3.048-6.851-6.807V58.809c0-3.76 3.067-6.809 6.851-6.809H238.85c3.784 0 6.851 3.05 6.851 6.81v143.683c0 3.76-3.067 6.807-6.851 6.807" transform="translate(-202.000000, -1399.000000) translate(202.000000, 1399.000000)"/>
                <path fill="#6D81B2" d="M181.233 221h-.767c-.005 2.742-2.224 4.96-4.966 4.965-2.742-.004-4.96-2.223-4.967-4.964.006-2.743 2.225-4.962 4.967-4.966 2.742.004 4.96 2.223 4.966 4.966H182c-.002-3.59-2.91-6.501-6.5-6.501-3.591 0-6.5 2.91-6.5 6.5s2.909 6.5 6.5 6.5c3.59 0 6.498-2.91 6.5-6.5h-.767" transform="translate(-202.000000, -1399.000000) translate(202.000000, 1399.000000)"/>
                <path fill="#F1AE90" d="M288.387 138.802c1.63 1.912 4.502 2.14 6.413.51 1.913-1.63 2.143-4.5.513-6.413-1.63-1.912-4.502-2.142-6.415-.512-1.913 1.63-2.14 4.502-.51 6.415" transform="translate(-202.000000, -1399.000000) translate(202.000000, 1399.000000)"/>
                <path fill="#F1AE90" d="M252.2 141.46l17.724 10.237c.936.54 2.097.537 3.03-.008l19.546-11.44-3.044-5.049-18.035 10.556-16.208-9.361-3.013 5.065" transform="translate(-202.000000, -1399.000000) translate(202.000000, 1399.000000)"/>
                <path fill="#DF516C" d="M265.2 138.847l-5.783 9.353-7.897-5.79c-2.121-1.554-2.553-4.584-.953-6.685 1.35-1.769 3.737-2.328 5.712-1.34l8.921 4.462" transform="translate(-202.000000, -1399.000000) translate(202.000000, 1399.000000)"/>
                <path fill="#303A7D" d="M345.706 231.4h-59.612c-4.36 0-7.894-3.541-7.894-7.912V89.81c0-4.369 3.534-7.91 7.894-7.91h59.612c4.36 0 7.894 3.541 7.894 7.91v133.678c0 4.37-3.534 7.912-7.894 7.912" transform="translate(-202.000000, -1399.000000) translate(202.000000, 1399.000000)"/>
                <path fill="#FFFFFE" d="M342.773 210.6h-55.046c-3.824 0-6.927-3.08-6.927-6.878V92.68c0-3.8 3.103-6.88 6.927-6.88h55.046c3.826 0 6.927 3.08 6.927 6.88v111.042c0 3.798-3.101 6.878-6.927 6.878" transform="translate(-202.000000, -1399.000000) translate(202.000000, 1399.000000)"/>
                <path fill="#303A7D" d="M327.118 91H302.08c-3.137 0-5.68-2.709-5.68-6.051V83.2h36.4v1.749c0 3.342-2.543 6.051-5.682 6.051" transform="translate(-202.000000, -1399.000000) translate(202.000000, 1399.000000)"/>
                <path fill="#6D81B2" d="M321.626 221h-.775c-.005 2.733-2.218 4.946-4.952 4.951-2.734-.005-4.945-2.218-4.95-4.952.005-2.734 2.216-4.945 4.95-4.952 2.734.007 4.947 2.218 4.952 4.952h1.549c0-3.59-2.91-6.499-6.5-6.499s-6.5 2.91-6.5 6.5 2.91 6.498 6.5 6.5c3.59-.002 6.5-2.91 6.5-6.5h-.774" transform="translate(-202.000000, -1399.000000) translate(202.000000, 1399.000000)"/>
                <path fill="#34B2CA" d="M79.688 213.185c-.57.45-5.679-9.028-6.87-21.084 0 0-.578-5.926 4.917-2.91 0 0-5.683-25.924 9.456-23.988 2.609.335 4.096.929 5.599 2.619 2.033 2.285 3.153 5.972.752 11.273-4.803 10.604-9.021 14.72-6.957 20.335 2.064 5.617 1.366 7.222-6.897 13.755" transform="translate(-202.000000, -1399.000000) translate(202.000000, 1399.000000)"/>
                <path fill="#23A0B7" d="M80.125 230.088c.342-.063.562-.363.492-.67-3.969-17.344 1.74-46.558 2.467-47.84.205-.255.13-.594-.156-.776-.283-.183-.69-.11-.894.145-1.177 1.467-6.51 31.873-2.658 48.699.07.307.404.505.749.442" transform="translate(-202.000000, -1399.000000) translate(202.000000, 1399.000000)"/>
                <path fill="#0E101A" d="M1.726 231.093h422.948c.235 0 .426-.153.426-.343 0-.19-.19-.343-.426-.343H1.726c-.235 0-.426.153-.426.343 0 .19.19.343.426.343" transform="translate(-202.000000, -1399.000000) translate(202.000000, 1399.000000)"/>
                <path fill="#E4ECF7" d="M229.262 144.3H121.74c-1.9 0-3.44-1.528-3.44-3.412V77.512c0-1.884 1.54-3.412 3.44-3.412h107.522c1.899 0 3.438 1.528 3.438 3.412v63.376c0 1.884-1.54 3.412-3.438 3.412M148.726 189.8h-25.752c-1.863 0-3.374-1.51-3.374-3.372v-25.754c0-1.864 1.511-3.374 3.374-3.374h25.752c1.863 0 3.374 1.51 3.374 3.374v25.754c0 1.862-1.511 3.372-3.374 3.372M189.028 189.8h-25.756c-1.862 0-3.372-1.51-3.372-3.372v-25.754c0-1.864 1.51-3.374 3.372-3.374h25.756c1.862 0 3.372 1.51 3.372 3.374v25.754c0 1.862-1.51 3.372-3.372 3.372" transform="translate(-202.000000, -1399.000000) translate(202.000000, 1399.000000)"/>
                <path fill="#02D8FB" d="M229.328 189.8h-25.754c-1.864 0-3.374-1.51-3.374-3.372v-25.754c0-1.864 1.51-3.374 3.374-3.374h25.754c1.862 0 3.372 1.51 3.372 3.374v25.754c0 1.862-1.51 3.372-3.372 3.372" transform="translate(-202.000000, -1399.000000) translate(202.000000, 1399.000000)"/>
                <path fill="#FFFFFE" d="M125.895 171.6h19.91c.604 0 1.095-.581 1.095-1.3 0-.719-.491-1.3-1.095-1.3h-19.91c-.604 0-1.095.581-1.095 1.3 0 .719.491 1.3 1.095 1.3M125.855 179.4h9.59c.583 0 1.055-.581 1.055-1.3 0-.717-.472-1.3-1.055-1.3h-9.59c-.582 0-1.055.583-1.055 1.3 0 .719.473 1.3 1.055 1.3M166.16 171.6h19.98c.586 0 1.06-.581 1.06-1.3 0-.719-.474-1.3-1.06-1.3h-19.98c-.586 0-1.06.581-1.06 1.3 0 .719.474 1.3 1.06 1.3M166.155 179.4h9.59c.583 0 1.055-.581 1.055-1.3 0-.717-.472-1.3-1.055-1.3h-9.59c-.583 0-1.055.583-1.055 1.3 0 .719.472 1.3 1.055 1.3M206.496 171.6h19.908c.606 0 1.096-.581 1.096-1.3 0-.719-.49-1.3-1.096-1.3h-19.908c-.606 0-1.096.581-1.096 1.3 0 .719.49 1.3 1.096 1.3M206.455 179.4h9.59c.583 0 1.055-.581 1.055-1.3 0-.717-.472-1.3-1.055-1.3h-9.59c-.583 0-1.055.583-1.055 1.3 0 .719.472 1.3 1.055 1.3" transform="translate(-202.000000, -1399.000000) translate(202.000000, 1399.000000)"/>
                <path fill="#E4ECF7" d="M340.088 191.1H291.71c-1.718 0-3.111-1.387-3.111-3.1v-38.002c0-1.71 1.393-3.098 3.11-3.098h48.378c1.72 0 3.112 1.387 3.112 3.098V188c0 1.712-1.393 3.099-3.112 3.099" transform="translate(-202.000000, -1399.000000) translate(202.000000, 1399.000000)"/>
                <path fill="#02D8FB" d="M340.088 139.1H291.71c-1.718 0-3.111-1.37-3.111-3.061v-5.578c0-1.69 1.393-3.061 3.11-3.061h48.378c1.72 0 3.112 1.37 3.112 3.061v5.578c0 1.692-1.393 3.061-3.112 3.061" transform="translate(-202.000000, -1399.000000) translate(202.000000, 1399.000000)"/>
                <path fill="#E4ECF7" d="M340.088 119.6H291.71c-1.718 0-3.111-1.37-3.111-3.06v-5.578c0-1.691 1.393-3.062 3.11-3.062h48.378c1.72 0 3.112 1.37 3.112 3.062v5.577c0 1.69-1.393 3.061-3.112 3.061" transform="translate(-202.000000, -1399.000000) translate(202.000000, 1399.000000)"/>
                <path fill="#304D7E" d="M261.3 184.938L237.204 185.631 237.921 176.8 259.308 177.582z" transform="translate(-202.000000, -1399.000000) translate(202.000000, 1399.000000)"/>
                <path fill="#304D7E" d="M248.3 182.495L263.355 204.254 261.757 239.2 269.297 236.715 273 203.725 259.289 179.4 248.3 182.495" transform="translate(-202.000000, -1399.000000) translate(202.000000, 1399.000000)"/>
                <path fill="#C4C6D1" d="M253.499 189.8L250.9 185.9 253.5 189.8 253.499 189.8" transform="translate(-202.000000, -1399.000000) translate(202.000000, 1399.000000)"/>
                <path fill="#304D7E" d="M253.777 189.8L250.9 186.322 256.1 185.9 253.777 189.8M237.204 185.631L236.226 206.798 228.8 242.717 237.277 244.4 246.116 207.77 248.3 183.3 237.204 185.631" transform="translate(-202.000000, -1399.000000) translate(202.000000, 1399.000000)"/>
                <path fill="#1E242F" d="M268.205 238.228l-5.03-.328-.575 6.87 14.3.93c-.032-1.086-.739-1.982-1.828-2.305l-6.977-2.069.11-3.098M236.7 242.87l-5.025-1.07-1.575 7.363 14.283 3.037c.126-1.181-.457-2.254-1.507-2.758l-6.738-3.23.562-3.342" transform="translate(-202.000000, -1399.000000) translate(202.000000, 1399.000000)"/>
                <path fill="#455068" d="M271.7 235.836L261.499 235.3 261.3 238.664 271.503 239.2 271.7 235.836M239.2 241.072L229.467 239.2 228.8 242.528 238.535 244.4 239.2 241.072" transform="translate(-202.000000, -1399.000000) translate(202.000000, 1399.000000)"/>
                <path fill="#E36866" d="M243.175 135.928c-3.506 2.577-5.319 9.302-5.91 16.13l-1.965 26.819c12.742 4.58 24.7-.913 24.7-.913l-.028-33.297c.049-3.144-2.192-10.072-6.685-9.968 0 0-5.108-2.45-10.112 1.229" transform="translate(-202.000000, -1399.000000) translate(202.000000, 1399.000000)"/>
                <path fill="#EFA583" d="M245.7 136.5L252.103 136.469 252.2 122.2 245.797 122.231 245.7 136.5" transform="translate(-202.000000, -1399.000000) translate(202.000000, 1399.000000)"/>
                <path fill="#F1AE90" d="M254.025 132.6c4.64.042 8.436-3.543 8.478-8.007l.097-10.043-16.803-.15-.097 10.045c-.042 4.462 3.685 8.114 8.325 8.155" transform="translate(-202.000000, -1399.000000) translate(202.000000, 1399.000000)"/>
                <path fill="#1F1F2C" d="M246.007 122.132l2.24.068c.61.017 1.08-.538.982-1.155-.265-1.665-.555-4.521.505-4.844 1.506-.46 9.473 1.84 12.242-.24 3.9-2.926 1.215-7.779-2.246-8.048-3.46-.27-3.027 3.855-7.068 3.7-4.04-.158-10.145-1.873-7.703 9.16l1.048 1.36" transform="translate(-202.000000, -1399.000000) translate(202.000000, 1399.000000)"/>
                <path fill="#1F1F2C" d="M262.6 124.57s-.731 0-2.18-1.313c-1.412-1.276-4.998-1.375-7.292.58-2.295 1.957-3.882-4.237-3.882-4.237l-1.211 1.926s.553 2.998-2.335 3.044c0 0 .591 8.94 9.777 7.954 0 0 6.6-1.083 7.123-7.954" transform="translate(-202.000000, -1399.000000) translate(202.000000, 1399.000000)"/>
                <path fill="#F1AE90" d="M243.1 122.175c-.013 1.436 1.141 2.612 2.577 2.625 1.436.013 2.61-1.14 2.623-2.575.013-1.436-1.141-2.61-2.575-2.625-1.436-.013-2.612 1.14-2.625 2.575" transform="translate(-202.000000, -1399.000000) translate(202.000000, 1399.000000)"/>
                <path fill="#EFA583" d="M245.7 133.93L251.046 137.8 252.2 133.9 245.7 133.93" transform="translate(-202.000000, -1399.000000) translate(202.000000, 1399.000000)"/>
                <path fill="#E77C90" d="M250.9 137.424L245.7 139.1 245.7 133.9 250.9 137.424M252.2 137.784L254.8 139.1 253.328 133.9 252.2 137.784" transform="translate(-202.000000, -1399.000000) translate(202.000000, 1399.000000)"/>
                <path fill="#F1AE90" d="M283.188 144.003c1.63 1.91 4.501 2.14 6.414.51 1.912-1.63 2.141-4.503.51-6.415-1.63-1.913-4.501-2.14-6.414-.51-1.912 1.629-2.141 4.502-.51 6.415" transform="translate(-202.000000, -1399.000000) translate(202.000000, 1399.000000)"/>
                <path fill="#F1AE90" d="M243.1 147.14l18.869 11.026c.995.582 2.234.579 3.224-.01L286 145.838l-3.24-5.438-19.197 11.366-17.255-10.082-3.208 5.456" transform="translate(-202.000000, -1399.000000) translate(202.000000, 1399.000000)"/>
                <path fill="#D25856" d="M257.4 145.348l-5.783 9.352-7.895-5.788c-2.124-1.555-2.555-4.586-.954-6.688 1.35-1.768 3.736-2.327 5.711-1.339l8.921 4.463" transform="translate(-202.000000, -1399.000000) translate(202.000000, 1399.000000)"/>
                <path fill="#02D8FB" d="M128.7 94.34v33.62c0 2.565 2.112 4.64 4.717 4.64h47.766c2.605 0 4.717-2.075 4.717-4.64V94.34c0-2.567-2.112-4.64-4.717-4.64h-47.766c-2.605 0-4.717 2.073-4.717 4.64" transform="translate(-202.000000, -1399.000000) translate(202.000000, 1399.000000)"/>
                <path fill="#303A7D" d="M135.2 105.3c0 5.745 4.948 10.4 11.05 10.4s11.05-4.655 11.05-10.4c0-5.742-4.948-10.4-11.05-10.4s-11.05 4.658-11.05 10.4" transform="translate(-202.000000, -1399.000000) translate(202.000000, 1399.000000)"/>
                <path fill="#FFFFFE" d="M128.7 124.625v3.353c0 2.555 2.112 4.622 4.717 4.622h47.766c2.605 0 4.717-2.067 4.717-4.622v-3.353L168.863 107.9 157.3 119.261 145.727 107.9 128.7 124.625" transform="translate(-202.000000, -1399.000000) translate(202.000000, 1399.000000)"/>
                <path fill="#02D8FB" d="M296.4 157.793v22.412c0 1.71 1.394 3.095 3.11 3.095h31.481c1.717 0 3.109-1.384 3.109-3.095v-22.412c0-1.71-1.392-3.093-3.109-3.093h-31.48c-1.717 0-3.111 1.383-3.111 3.093" transform="translate(-202.000000, -1399.000000) translate(202.000000, 1399.000000)"/>
                <path fill="#303A7D" d="M300.3 165.75c0 3.95 3.2 7.15 7.15 7.15s7.15-3.2 7.15-7.15-3.2-7.15-7.15-7.15-7.15 3.2-7.15 7.15" transform="translate(-202.000000, -1399.000000) translate(202.000000, 1399.000000)"/>
                <path fill="#FFFFFE" d="M296.4 177.841v2.294c0 1.75 1.394 3.165 3.11 3.165h31.481c1.717 0 3.109-1.415 3.109-3.165v-2.294L322.872 166.4l-7.621 7.771-7.628-7.771-11.223 11.441M193.942 100.1h17.716c.85 0 1.542-.582 1.542-1.3 0-.718-.692-1.3-1.542-1.3h-17.716c-.852 0-1.542.582-1.542 1.3 0 .718.69 1.3 1.542 1.3M193.936 113.1h29.428c.848 0 1.536-.582 1.536-1.3 0-.717-.688-1.3-1.536-1.3h-29.428c-.848 0-1.536.583-1.536 1.3 0 .718.688 1.3 1.536 1.3M193.936 124.8h29.428c.848 0 1.536-.582 1.536-1.3 0-.717-.688-1.3-1.536-1.3h-29.428c-.848 0-1.536.583-1.536 1.3 0 .718.688 1.3 1.536 1.3" transform="translate(-202.000000, -1399.000000) translate(202.000000, 1399.000000)"/>
            </g>
        </g>
    </g>
</svg>
