<svg xmlns="http://www.w3.org/2000/svg" width="55.576" height="40.05" viewBox="0 0 55.576 40.05">
    <defs>
        <style>
            .cls-1{fill:#c9c9c9}
        </style>
    </defs>
    <g id="blackberry" transform="translate(.001 -85.488)">
        <g id="Group_256" data-name="Group 256" transform="translate(-.001 85.488)">
            <g id="group-18svg">
                <path id="path-1_9_" d="M26.319 96.951a19.187 19.187 0 0 1-2.057-.108h-3.587a3.308 3.308 0 0 1-2.73-1.2 2.681 2.681 0 0 1-.35-2.44l1.821-5.676a2.949 2.949 0 0 1 3.059-2l7.48-.04a3.1 3.1 0 0 1 .61.056c.936.176 3.208.6 4.344 2.5a5.123 5.123 0 0 1 .26 4.308c-.94 2.968-4.082 4.6-8.85 4.6zm-6.209-2.834a2.334 2.334 0 0 0 .565.079l3.835.011a16.727 16.727 0 0 0 1.809.1c2.038 0 5.57-.357 6.327-2.749a2.653 2.653 0 0 0-.009-2.149 3.778 3.778 0 0 0-2.481-1.245l-.09-.017a.5.5 0 0 0-.094-.008l-7.483.04a.958.958 0 0 0-.533.1l-1.837 5.716a.352.352 0 0 0-.02.129s.001-.007.011-.007z" class="cls-1" transform="translate(-15.867 -85.488)"/>
                <path id="path-2_4_" d="M232.464 97.741h-1.595a3.211 3.211 0 0 1-2.545-1.327 3.107 3.107 0 0 1-.454-2.773l1.817-5.876a3.72 3.72 0 0 1 3.466-2.219l7.882-.041s.011.016.208.054a6.124 6.124 0 0 1 4.09 2.713 5.4 5.4 0 0 1 .212 4.524c-1.29 4.072-7.872 4.945-13.081 4.945zm7.784-9.59l-7.484.04a.552.552 0 0 0-.549.347L230.4 94.4a.432.432 0 0 0 .053.4.6.6 0 0 0 .5.219c.093 0 .646.034 1.513.034 5.76 0 9.865-1.209 10.458-3.081a2.855 2.855 0 0 0-.063-2.35 4.019 4.019 0 0 0-2.518-1.467.486.486 0 0 0-.095-.004z" class="cls-1" transform="translate(-207.047 -85.503)"/>
                <path id="path-3_1_" d="M8.445 250.558a18.57 18.57 0 0 1-1.622-.068h-3.6a3.288 3.288 0 0 1-2.709-1.228 2.759 2.759 0 0 1-.372-2.508l1.821-5.72a3 3 0 0 1 3.059-2.048l7.48-.04a3.138 3.138 0 0 1 .61.055c.937.176 3.209.6 4.345 2.5a5.126 5.126 0 0 1 .259 4.309c-.968 3.064-4.261 4.748-9.271 4.748zm4.076-8.962l-7.485.039c-.147 0-.5.021-.548.191l-1.821 5.72a.339.339 0 0 0-.021.153.884.884 0 0 0 .577.145l3.8.008c.239.022.743.06 1.418.06 1.753 0 5.921-.282 6.749-2.9a2.646 2.646 0 0 0-.008-2.149 3.78 3.78 0 0 0-2.482-1.243l-.09-.017a.474.474 0 0 0-.089-.003z" class="cls-1" transform="translate(.001 -225.011)"/>
                <path id="path-4_1_" d="M208.416 250.528c-.617 0-1.035-.033-1.125-.04h-4.241a3.288 3.288 0 0 1-2.709-1.228 2.759 2.759 0 0 1-.372-2.508l1.82-5.72a3 3 0 0 1 3.061-2.048l7.479-.04a3.2 3.2 0 0 1 .61.055l.163.03c.926.161 3.1.542 4.193 2.353a5.011 5.011 0 0 1 .249 4.24c-.989 3.118-4.315 4.906-9.128 4.906zm3.932-8.932l-7.485.039c-.147 0-.5.021-.549.191l-1.819 5.72a.336.336 0 0 0-.022.153.887.887 0 0 0 .577.145l4.447.005c.072.005.414.032.919.032 1.695 0 5.731-.3 6.605-3.056a2.555 2.555 0 0 0 .01-2.066c-.475-.783-1.814-1.018-2.386-1.118l-.2-.037a.453.453 0 0 0-.098-.004z" class="cls-1" transform="translate(-181.679 -225.011)"/>
                <path id="path-5_1_" d="M155.229 402.272c-.525 0-.893-.021-1.023-.03l-3.7-.037a3.2 3.2 0 0 1-2.59-1.3 3.161 3.161 0 0 1-.478-2.831l1.817-5.907a3.2 3.2 0 0 1 3.063-2.26l7.48-.04a3.135 3.135 0 0 1 .609.055 6.445 6.445 0 0 1 4.293 2.714 5.349 5.349 0 0 1 .311 4.506c-1.465 4.63-7.33 5.13-9.782 5.13zm4.59-9.761l-7.485.04a.555.555 0 0 0-.547.388l-1.818 5.908a.52.52 0 0 0 .078.479.57.57 0 0 0 .474.23c3.783.037 3.81.039 3.858.042.109.007.415.025.85.025 1.87 0 6.322-.32 7.263-3.287a2.85 2.85 0 0 0-.063-2.351 4.012 4.012 0 0 0-2.517-1.467.475.475 0 0 0-.093-.007z" class="cls-1" transform="translate(-133.92 -362.223)"/>
                <path id="path-6_1_" d="M421.346 210.776c-.494 0-.993-.019-1.413-.052h-3.605a3.28 3.28 0 0 1-2.7-1.24 2.8 2.8 0 0 1-.383-2.54l1.82-5.741a3.045 3.045 0 0 1 3.061-2.072l7.479-.039a3.082 3.082 0 0 1 .61.056c.936.176 3.208.6 4.344 2.5a5.122 5.122 0 0 1 .26 4.309c-1.327 4.192-6.504 4.819-9.473 4.819zm4.28-9.037l-7.486.04c-.181 0-.492.03-.549.212l-1.819 5.742a.274.274 0 0 0-.015.176.788.788 0 0 0 .57.166l3.788.006c.092.008.557.047 1.231.047 1.807 0 6.1-.289 6.953-2.97a2.649 2.649 0 0 0-.01-2.149 3.778 3.778 0 0 0-2.48-1.245l-.091-.018a.529.529 0 0 0-.092-.007z" class="cls-1" transform="translate(-375.589 -188.775)"/>
                <path id="path-7_1_" d="M393.038 364.4c-.555 0-.923-.023-1-.028h-3.592a3.259 3.259 0 0 1-2.675-1.262 2.911 2.911 0 0 1-.407-2.612l1.82-5.785a3.063 3.063 0 0 1 3.062-2.121l7.479-.04a3.158 3.158 0 0 1 .611.055c.935.176 3.208.6 4.344 2.5a5.122 5.122 0 0 1 .259 4.309c-1.425 4.499-7.4 4.984-9.901 4.984zm4.7-9.2l-7.484.04c-.176 0-.48.036-.549.259l-1.819 5.785c-.053.17-.007.232.007.252a.7.7 0 0 0 .547.189h3.755c.067 0 .373.023.838.023 1.5 0 6.457-.226 7.378-3.131a2.651 2.651 0 0 0-.009-2.15 3.777 3.777 0 0 0-2.48-1.245l-.09-.017a.5.5 0 0 0-.09-.005z" class="cls-1" transform="translate(-350.24 -328.301)"/>
            </g>
        </g>
    </g>
</svg>
