<svg width="360" height="694" viewBox="0 0 360 694" fill="none" xmlns="http://www.w3.org/2000/svg">
<path d="M266.359 526.318C260.726 547.465 247.404 565.738 229.01 577.551C210.615 589.363 188.476 593.862 166.94 590.162C145.404 586.463 126.026 574.834 112.612 557.557C99.1972 540.281 92.7151 518.606 94.438 496.788C96.1609 474.97 105.964 454.585 121.924 439.636C137.883 424.687 158.845 416.253 180.694 415.991C202.543 415.729 223.7 423.658 240.012 438.22C256.324 452.782 266.612 472.926 268.856 494.696H359.643C355.088 450.237 334.207 409.058 301.051 379.149C267.895 349.24 224.829 332.734 180.209 332.835H166.118L234.967 174.368C243.288 155.893 247.592 135.857 247.592 115.59C247.592 95.3224 243.288 75.2867 234.967 56.8124C229.815 44.7055 222.326 33.7378 212.929 24.5398C203.531 15.3419 192.412 8.09498 180.209 3.21579L169.685 0L19.6812 430.738C-1.61733 472.573 -5.8114 521.072 7.98818 565.953C21.7878 610.833 52.4959 648.566 93.602 671.151C134.708 693.735 182.98 699.397 228.183 686.934C273.386 674.471 311.965 644.864 335.742 604.391C337.644 601.028 339.37 597.57 340.915 594.029C351.59 572.971 358.072 550.034 360 526.497L266.359 526.318Z" fill="white" fill-opacity="0.05"/>
<path d="M82.9949 35.552L69.0825 108.086L106.896 125.952L125.981 59.8491C113.599 48.6976 98.9256 40.4035 82.9949 35.552V35.552Z" fill="white" fill-opacity="0.05"/>
<path d="M33.5951 115.593L24.8552 402.692L81.2183 134.709C67.1262 124.564 50.7821 118.003 33.5951 115.593V115.593Z" fill="white" fill-opacity="0.05"/>
</svg>
