<svg width="18" height="20" viewBox="0 0 18 20" fill="none" xmlns="http://www.w3.org/2000/svg">
<path fill-rule="evenodd" clip-rule="evenodd" d="M9.03 1.99535e-05C11.29 0.01002 13.45 0.91002 15.03 2.49002C16.62 4.08002 17.51 6.23002 17.5 8.46002V8.51002C17.44 11.54 15.74 14.33 13.62 16.51C12.42 17.74 11.09 18.83 9.64 19.75C9.25 20.08 8.68 20.08 8.29 19.75C6.14 18.35 4.24 16.59 2.7 14.54C1.35 12.76 0.58 10.62 0.5 8.39002C0.52 3.74002 4.34 -0.00998005 9.03 1.99535e-05ZM9.03 11.26C9.74 11.26 10.42 10.99 10.92 10.5C11.44 9.99002 11.731 9.31102 11.731 8.60002C11.731 7.12002 10.52 5.93002 9.03 5.93002C7.54 5.93002 6.34 7.12002 6.34 8.60002C6.34 10.061 7.52 11.24 9 11.26H9.03Z" fill="#AFC9F2"/>
</svg>
