<svg width="14" height="20" viewBox="0 0 14 20" fill="none" xmlns="http://www.w3.org/2000/svg">
<path fill-rule="evenodd" clip-rule="evenodd" d="M0.00845931 8.6948C0.00845931 8.07615 0.015909 7.45751 0.0233933 6.836L0.0233934 6.83599C0.0271878 6.52089 0.030991 6.20506 0.0338368 5.88813C0.0338368 2.48283 2.16556 0 5.10936 0H8.89063C11.8344 0 13.9662 2.48283 13.9662 5.88813C13.9915 7.25221 14 8.61629 14 9.99019C14 11.3641 13.9915 12.7478 13.9662 14.1119C13.9662 17.5172 11.8344 20 8.89063 20H5.10936C2.16556 20 0.0338368 17.5172 0.0338368 14.1021C0.0169184 12.8165 0 11.5015 0 10.1668L0.00845931 8.6948ZM8.28 17.6402V17.8002C8.28 18.4738 7.7168 19.0002 7 19.0002C6.30027 19.0002 5.72 18.4738 5.72 17.8002V17.6402C5.72 16.9842 6.30027 16.4402 7 16.4402C7.7168 16.4402 8.28 16.9842 8.28 17.6402ZM2.01671 6.44364C2.01136 6.84763 2.00604 7.24974 2.00604 7.65186L2 8.60868C2 9.4762 2.01208 10.331 2.02417 11.1666C2.02417 13.3864 3.54683 15.0002 5.64955 15.0002H8.35045C10.4532 15.0002 11.9758 13.3864 11.9758 11.173C11.994 10.2863 12 9.3869 12 8.49387C12 7.60083 11.994 6.71418 11.9758 5.82753C11.9758 3.61408 10.4532 2.00024 8.35045 2.00024H5.64955C3.54683 2.00024 2.02417 3.61408 2.02417 5.82753C2.02214 6.03354 2.01942 6.23883 2.01671 6.44364Z" fill="#AFC9F2"/>
</svg>
