<svg width="15" height="25" viewBox="0 0 15 25" fill="none" xmlns="http://www.w3.org/2000/svg">
<path fill-rule="evenodd" clip-rule="evenodd" d="M0.524505 0.524505C0.690347 0.358244 0.887361 0.226334 1.10426 0.13633C1.32116 0.046327 1.55368 0 1.78852 0C2.02335 0 2.25587 0.046327 2.47277 0.13633C2.68967 0.226334 2.88669 0.358244 3.05253 0.524505L13.7645 11.2365C13.9307 11.4023 14.0626 11.5993 14.1527 11.8162C14.2427 12.0331 14.289 12.2656 14.289 12.5005C14.289 12.7353 14.2427 12.9678 14.1527 13.1847C14.0626 13.4016 13.9307 13.5986 13.7645 13.7645L3.05253 24.4764C2.71729 24.8117 2.26261 25 1.78852 25C1.31442 25 0.859742 24.8117 0.524505 24.4764C0.189269 24.1412 0.000934738 23.6865 0.000934738 23.2124C0.000934738 22.7383 0.189269 22.2836 0.524505 21.9484L9.97602 12.5005L0.524505 3.05253C0.358244 2.88669 0.226336 2.68967 0.136332 2.47277C0.0463287 2.25587 0 2.02335 0 1.78852C0 1.55368 0.0463287 1.32116 0.136332 1.10426C0.226336 0.887359 0.358244 0.690347 0.524505 0.524505Z" fill="#1C2880"/>
</svg>
