<svg id="Download_App_Store" data-name="Download App Store" xmlns="http://www.w3.org/2000/svg" xmlns:xlink="http://www.w3.org/1999/xlink" width="245" height="76" viewBox="0 0 245 76">
  <defs>
    <linearGradient id="linear-gradient" x1="-1.199" y1="2.436" x2="-1.199" y2="1.535" gradientUnits="objectBoundingBox">
      <stop offset="0" stop-color="#1a1a1a" stop-opacity="0.102"/>
      <stop offset="0.123" stop-color="#212121" stop-opacity="0.153"/>
      <stop offset="0.308" stop-color="#353535" stop-opacity="0.227"/>
      <stop offset="0.532" stop-color="#575757" stop-opacity="0.318"/>
      <stop offset="0.783" stop-color="#858585" stop-opacity="0.42"/>
      <stop offset="1" stop-color="#b3b3b3" stop-opacity="0.51"/>
    </linearGradient>
  </defs>
  <path id="Path_795" data-name="Path 795" d="M250.254,72.573a8.026,8.026,0,0,1-2.081,5.439,6.83,6.83,0,0,1-5.023,2.249H10.675c-3.924,0-7.108-3.438-7.113-7.689V11.26c.005-4.253,3.188-7.7,7.113-7.7H243.148c3.924,0,7.1,3.447,7.1,7.7l0,61.314Z" transform="translate(-1.913 -1.913)" fill="#fff"/>
  <path id="Path_796" data-name="Path 796" d="M241.237,80H8.762C3.931,80,.01,75.776,0,70.557V9.455C.007,4.234,3.927,0,8.762,0H241.235c4.834.007,8.753,4.235,8.762,9.455v61.1c0,5.209-3.934,9.445-8.76,9.445Z" fill="#a6a6a6"/>
  <path id="Path_797" data-name="Path 797" d="M250.254,72.573a8.026,8.026,0,0,1-2.081,5.439,6.83,6.83,0,0,1-5.023,2.249H10.675c-3.924,0-7.108-3.438-7.113-7.689V11.26c.005-4.253,3.188-7.7,7.113-7.7H243.148c3.924,0,7.1,3.447,7.1,7.7l0,61.314Z" transform="translate(-1.913 -1.913)"/>
  <path id="Path_798" data-name="Path 798" d="M83.316,50.006A10.737,10.737,0,0,1,88.432,41a11,11,0,0,0-8.664-4.683c-3.645-.383-7.18,2.18-9.036,2.18-1.894,0-4.753-2.143-7.834-2.08a11.535,11.535,0,0,0-9.709,5.92c-4.2,7.267-1.067,17.946,2.955,23.819,2.012,2.879,4.363,6.089,7.441,5.976,3.011-.122,4.136-1.917,7.769-1.917,3.6,0,4.656,1.917,7.795,1.845,3.231-.05,5.266-2.89,7.208-5.792a23.742,23.742,0,0,0,3.3-6.711A10.389,10.389,0,0,1,83.316,50.006ZM77.387,32.449a10.567,10.567,0,0,0,2.42-7.574,10.77,10.77,0,0,0-6.963,3.6,10.057,10.057,0,0,0-2.483,7.295,8.9,8.9,0,0,0,7.026-3.321Z" transform="translate(-27.494 -10.814)" fill="#fff"/>
  <path id="Path_799" data-name="Path 799" d="M376.629,0H252.108l48.773,80h75.748c4.834,0,8.753-4.231,8.762-9.451V9.455c-.008-5.22-3.927-9.449-8.762-9.455Z" transform="translate(-135.391)" fill="url(#linear-gradient)"/>
  <g id="Group_499" data-name="Group 499" transform="translate(78.616 39.267)">
    <path id="Path_800" data-name="Path 800" d="M190.628,97.032h-4.208l-2.3-7.241H176.1l-2.2,7.241h-4.1l7.939-24.651h4.9l7.975,24.651Zm-7.208-10.279-2.084-6.437q-.331-.986-1.243-4.644h-.074q-.367,1.573-1.171,4.644L176.8,86.753Zm27.585,1.173a10.064,10.064,0,0,1-2.464,7.167,7.226,7.226,0,0,1-5.481,2.341,5.487,5.487,0,0,1-5.077-2.521v9.327h-3.95V85.1q0-2.848-.146-5.842h3.474l.22,2.817h.074a7.029,7.029,0,0,1,11.249-.7A9.828,9.828,0,0,1,211.006,87.926Zm-4.024.144a7.327,7.327,0,0,0-1.171-4.281,4.047,4.047,0,0,0-3.439-1.754A4.109,4.109,0,0,0,199.72,83a4.493,4.493,0,0,0-1.555,2.543,5.156,5.156,0,0,0-.183,1.2v2.966a4.755,4.755,0,0,0,1.19,3.275,3.949,3.949,0,0,0,3.091,1.336,4.049,4.049,0,0,0,3.474-1.719A7.564,7.564,0,0,0,206.982,88.07Zm24.474-.144a10.064,10.064,0,0,1-2.464,7.167,7.23,7.23,0,0,1-5.483,2.341,5.487,5.487,0,0,1-5.077-2.521v9.327h-3.95V85.1q0-2.848-.146-5.842h3.474l.22,2.817h.074a7.03,7.03,0,0,1,11.25-.7,9.837,9.837,0,0,1,2.1,6.55Zm-4.026.144a7.327,7.327,0,0,0-1.173-4.281,4.041,4.041,0,0,0-3.435-1.754,4.126,4.126,0,0,0-2.655.969,4.491,4.491,0,0,0-1.553,2.543,5.276,5.276,0,0,0-.185,1.2v2.966a4.771,4.771,0,0,0,1.188,3.275,3.958,3.958,0,0,0,3.094,1.336,4.045,4.045,0,0,0,3.474-1.719A7.564,7.564,0,0,0,227.43,88.07Zm26.89,2.047a6.584,6.584,0,0,1-2.192,5.122,9.717,9.717,0,0,1-6.717,2.158,11.726,11.726,0,0,1-6.385-1.536l.913-3.292a10.992,10.992,0,0,0,5.707,1.537,5.385,5.385,0,0,0,3.474-1.006,3.285,3.285,0,0,0,1.247-2.686,3.442,3.442,0,0,0-1.026-2.525,9.517,9.517,0,0,0-3.4-1.9q-6.476-2.415-6.478-7.061a6.234,6.234,0,0,1,2.286-4.974,9.042,9.042,0,0,1,6.055-1.939,11.968,11.968,0,0,1,5.6,1.171l-.991,3.219a9.789,9.789,0,0,0-4.738-1.134A4.819,4.819,0,0,0,244.4,76.3a2.931,2.931,0,0,0-.991,2.234,3.019,3.019,0,0,0,1.136,2.414,12.8,12.8,0,0,0,3.583,1.9,12.148,12.148,0,0,1,4.682,3,6.246,6.246,0,0,1,1.506,4.275Zm13.094-7.9H263.06v8.63q0,3.293,2.3,3.29a6.941,6.941,0,0,0,1.755-.183l.109,3a8.952,8.952,0,0,1-3.072.437,4.735,4.735,0,0,1-3.659-1.428q-1.315-1.428-1.317-4.792v-8.96h-2.594V79.249h2.594V75.995l3.88-1.171v4.425h4.354V82.22ZM287.021,88a9.749,9.749,0,0,1-2.342,6.73,8.349,8.349,0,0,1-6.511,2.706,7.959,7.959,0,0,1-6.239-2.593,9.453,9.453,0,0,1-2.323-6.546A9.67,9.67,0,0,1,272,81.53a8.306,8.306,0,0,1,6.459-2.634,8.126,8.126,0,0,1,6.29,2.6A9.33,9.33,0,0,1,287.021,88Zm-4.095.091a7.958,7.958,0,0,0-1.058-4.194,3.91,3.91,0,0,0-3.55-2.117,3.967,3.967,0,0,0-3.622,2.117,8.089,8.089,0,0,0-1.06,4.268,7.934,7.934,0,0,0,1.06,4.2,4.052,4.052,0,0,0,7.139-.035A7.99,7.99,0,0,0,282.926,88.089Zm16.941-5.359a6.877,6.877,0,0,0-1.245-.109A3.728,3.728,0,0,0,295.4,84.2a5.929,5.929,0,0,0-.986,3.51v9.327h-3.95V84.854q.005-2.8-.115-5.6h3.441l.145,3.4h.109a6.1,6.1,0,0,1,1.975-2.817,4.777,4.777,0,0,1,2.855-.952,6.344,6.344,0,0,1,.988.072ZM317.534,87.3a9.26,9.26,0,0,1-.145,1.791H305.538a5.154,5.154,0,0,0,1.719,4.027,5.881,5.881,0,0,0,3.876,1.241,13.11,13.11,0,0,0,4.8-.839l.619,2.74a14.828,14.828,0,0,1-5.961,1.1,8.642,8.642,0,0,1-6.5-2.43,8.984,8.984,0,0,1-2.359-6.528,10.18,10.18,0,0,1,2.2-6.691,7.571,7.571,0,0,1,6.216-2.851,6.626,6.626,0,0,1,5.82,2.851A9.592,9.592,0,0,1,317.534,87.3Zm-3.767-1.024A5.346,5.346,0,0,0,313,83.243a3.45,3.45,0,0,0-3.146-1.649,3.745,3.745,0,0,0-3.144,1.61,5.9,5.9,0,0,0-1.169,3.071Z" transform="translate(-169.812 -72.016)" fill="#fff"/>
  </g>
  <g id="Group_500" data-name="Group 500" transform="translate(80.929 13.315)">
    <path id="Path_801" data-name="Path 801" d="M177.647,39.071a25.231,25.231,0,0,1-2.84-.144V27.008a21.509,21.509,0,0,1,3.344-.252c4.53,0,6.617,2.228,6.617,5.861C184.767,36.807,182.3,39.071,177.647,39.071Zm.663-10.786a7.927,7.927,0,0,0-1.564.126v9.06a10.255,10.255,0,0,0,1.312.054c2.968,0,4.658-1.689,4.658-4.853C182.716,29.85,181.188,28.285,178.31,28.285Zm12.959,10.877a4.158,4.158,0,0,1-4.208-4.494c0-2.7,1.69-4.62,4.352-4.62a4.125,4.125,0,0,1,4.208,4.477C195.621,37.256,193.878,39.162,191.269,39.162Zm.074-7.695c-1.4,0-2.3,1.311-2.3,3.145,0,1.8.917,3.11,2.283,3.11s2.283-1.4,2.283-3.147C193.607,32.8,192.709,31.467,191.343,31.467Zm18.838-1.239-2.733,8.736h-1.781l-1.132-3.794a28.755,28.755,0,0,1-.7-2.821H203.8a18.907,18.907,0,0,1-.7,2.821l-1.2,3.794h-1.8l-2.572-8.736h2l.989,4.153q.35,1.484.593,2.8h.037c.143-.735.376-1.654.719-2.786l1.241-4.17h1.582l1.188,4.081c.287.989.521,1.96.7,2.877h.052a25.141,25.141,0,0,1,.593-2.877l1.062-4.081,1.907,0Zm10.061,8.736H218.3V33.947c0-1.545-.593-2.319-1.762-2.319a2.016,2.016,0,0,0-1.942,2.139v5.2h-1.942V32.725c0-.772-.019-1.6-.072-2.5h1.708l.091,1.349h.054a3.139,3.139,0,0,1,2.77-1.526c1.834,0,3.039,1.4,3.039,3.684l0,5.231Zm5.355,0h-1.944V26.219H225.6Zm7.08.2a4.159,4.159,0,0,1-4.208-4.494c0-2.7,1.69-4.62,4.35-4.62,2.518,0,4.208,1.815,4.208,4.477C237.029,37.256,235.283,39.162,232.676,39.162Zm.072-7.695c-1.4,0-2.3,1.311-2.3,3.145,0,1.8.919,3.11,2.281,3.11s2.283-1.4,2.283-3.147c0-1.778-.895-3.108-2.262-3.108Zm11.934,7.5-.141-1.006h-.052a2.983,2.983,0,0,1-2.555,1.2,2.54,2.54,0,0,1-2.677-2.571c0-2.156,1.87-3.271,5.106-3.271v-.161c0-1.15-.61-1.726-1.814-1.726a4.09,4.09,0,0,0-2.283.648l-.395-1.276a5.586,5.586,0,0,1,3-.756c2.283,0,3.435,1.2,3.435,3.614V36.88a13.194,13.194,0,0,0,.126,2.086Zm-.267-4.351c-2.157,0-3.239.522-3.239,1.762a1.238,1.238,0,0,0,1.332,1.365,1.859,1.859,0,0,0,1.907-1.778Zm11.321,4.351-.091-1.4h-.054a2.929,2.929,0,0,1-2.805,1.6c-2.107,0-3.667-1.852-3.667-4.459,0-2.732,1.618-4.657,3.826-4.657a2.626,2.626,0,0,1,2.464,1.187h.039V26.219h1.944v10.39c0,.845.02,1.636.072,2.354h-1.729Zm-.287-5.14a2.113,2.113,0,0,0-2.046-2.265c-1.44,0-2.32,1.276-2.32,3.073,0,1.762.913,2.967,2.281,2.967a2.18,2.18,0,0,0,2.084-2.319V33.823Zm14.267,5.339a4.158,4.158,0,0,1-4.206-4.494c0-2.7,1.69-4.62,4.35-4.62,2.518,0,4.208,1.815,4.208,4.477,0,2.73-1.742,4.636-4.352,4.636Zm.072-7.695c-1.4,0-2.3,1.311-2.3,3.145,0,1.8.917,3.11,2.281,3.11s2.283-1.4,2.283-3.147c0-1.778-.895-3.108-2.264-3.108Zm14.723,7.5h-1.944V33.947c0-1.545-.593-2.319-1.762-2.319a2.015,2.015,0,0,0-1.94,2.139v5.2h-1.944V32.725c0-.772-.019-1.6-.072-2.5h1.708l.091,1.349h.054a3.138,3.138,0,0,1,2.768-1.528c1.834,0,3.041,1.4,3.041,3.684Zm13.064-7.28H295.44v4.242c0,1.08.374,1.619,1.13,1.619a3.826,3.826,0,0,0,.862-.091l.054,1.474a4.3,4.3,0,0,1-1.506.217c-1.53,0-2.446-.845-2.446-3.056v-4.4h-1.275V30.228h1.275v-1.6l1.907-.576v2.175h2.136Zm10.28,7.28h-1.94V33.984c0-1.563-.591-2.354-1.762-2.354A1.9,1.9,0,0,0,302.21,33.7v5.266h-1.94V26.219h1.94v5.248h.039a2.946,2.946,0,0,1,2.627-1.421c1.849,0,2.979,1.437,2.979,3.721v5.2Zm10.532-3.9H312.56a2.507,2.507,0,0,0,2.753,2.588,6.564,6.564,0,0,0,2.355-.413l.3,1.349a7.3,7.3,0,0,1-2.931.539,4.056,4.056,0,0,1-4.35-4.4c0-2.679,1.656-4.692,4.132-4.692,2.233,0,3.633,1.654,3.633,4.153a3.742,3.742,0,0,1-.067.88Zm-1.781-1.384c0-1.349-.68-2.3-1.921-2.3a2.3,2.3,0,0,0-2.123,2.3Z" transform="translate(-174.806 -26.219)" fill="#fff"/>
  </g>
</svg>
