<svg id="instagram_1_" data-name="instagram (1)" xmlns="http://www.w3.org/2000/svg" width="24" height="24" viewBox="0 0 24 24">
  <path id="Path_10" data-name="Path 10" d="M20.484,0H3.516A3.52,3.52,0,0,0,0,3.516V20.484A3.52,3.52,0,0,0,3.516,24H20.484A3.52,3.52,0,0,0,24,20.484V3.516A3.52,3.52,0,0,0,20.484,0ZM12.047,18.281a6.328,6.328,0,1,1,6.328-6.328A6.335,6.335,0,0,1,12.047,18.281Zm7.031-11.25a2.109,2.109,0,1,1,2.109-2.109A2.112,2.112,0,0,1,19.078,7.031Zm0,0" fill="#fff"/>
  <path id="Path_11" data-name="Path 11" d="M392.748,90a.748.748,0,1,0,.748.748A.749.749,0,0,0,392.748,90Zm0,0" transform="translate(-373.698 -85.798)" fill="#fff"/>
  <path id="Path_12" data-name="Path 12" d="M156.3,150a4.3,4.3,0,1,0,4.3,4.3A4.307,4.307,0,0,0,156.3,150Zm0,0" transform="translate(-144.257 -142.346)" fill="#fff"/>
</svg>
