<svg xmlns="http://www.w3.org/2000/svg" xmlns:xlink="http://www.w3.org/1999/xlink" width="399" height="332" viewBox="0 0 399 332">
    <defs>
        <path id="ruaqb58nya" d="M50.53 104.468c-1.692-8.45-4.304-15.725-9.213-19.885-3.58-3.034-10.699-4.032-18.513-4.032-3.282 0-6.685.176-10.002.452-1.144-1.442-2.233-3.009-3.247-4.71-4.433-7.437-7.472-17.52-7.796-31.693C1.178 19.187.549 8.076.127 3.23-.02 1.526 1.333.117 2.97.117c.176 0 .356.016.538.05C12.333 1.83 34.443 6.96 50.794 18.938c1.824 1.336 3.574 2.756 5.228 4.267l3.42 70.608c-1.587-12.343-4.54-19.473-5.6-22.961-8.922-22.85-25.66-45.698-40.137-58.608-.103-.092-.234-.139-.366-.139-.136 0-.272.05-.378.152-.88.843 1.101.932 10.516 13.022l1.25 1.584c12.152 16.08 23.9 35.041 29.167 54.596C55.813 88.87 57 96.652 57.54 104.286l-7.01.182"/>
        <path id="dwsivrjand" d="M44.87 92.202c-.54-7.634-1.728-15.416-3.646-22.827C35.956 49.82 24.208 30.86 12.057 14.779l-1.25-1.584C1.391 1.105-.59 1.015.29.173.396.072.532.021.669.021.8.021.93.068 1.035.16 15.51 13.07 32.249 35.919 41.17 58.768c1.061 3.488 4.014 10.618 5.6 22.96l.503 10.412-2.405.062"/>
        <path id="1h1oribcbh" d="M272.459 167.898h-13.28l.412-8.468c4.994-.866 8.83-5.134 8.993-10.366.61-19.683 1.938-62.484 2.739-88.466.765-24.807-.153-40.015-4.667-46.312l.686-14.095 4.522-.12c.082-.004.163-.004.244-.004 2.394 0 4.695.949 6.395 2.645 1.757 1.754 2.716 4.152 2.654 6.635l-3.855 153.708c0 2.665-2.18 4.843-4.843 4.843m-220.219 0H7.117c-2.663 0-4.842-2.178-4.842-4.843L.1 18.654c.25-8.45 7.46-11.636 12.104-11.636.132 0 .261.002.39.007l31.814-.853.507 10.453c-19.605 1.066-32.105 3.098-31.462 11.67.685 9.128.789 114.815.51 126.75-.097 4.179 4.116 5.56 14.058 5.56 1.32 0 2.74-.024 4.265-.07 2.017-.06 9.086-.124 19.588-.191l.365 7.554"/>
        <path id="f5pb6559pj" d="M14.648 146.41c-9.943 0-14.155-1.382-14.058-5.561.278-11.935.175-117.622-.51-126.75C-.563 5.528 11.937 3.496 31.542 2.43L38.5 146.15c-10.503.066-17.571.13-19.589.19-1.524.046-2.945.07-4.264.07m231.568-1.175L253.281.09c4.515 6.297 5.432 21.505 4.667 46.313-.8 25.981-2.128 68.782-2.739 88.465-.162 5.232-3.998 9.5-8.993 10.366"/>
        <path id="oqyre4m27l" d="M10.351 36.746C4.303 36.533-.347 31.32.13 25.286L2.12.097l35.06 37.625-26.829-.975"/>
        <path id="xxmy8imcjo" d="M2.349 98.317c-.234 0-.472-.05-.7-.158-.9-.423-1.317-1.562-.93-2.545L37.93 1.201c.388-.983 1.43-1.436 2.33-1.014.902.423 1.317 1.562.93 2.545L3.979 97.145c-.288.733-.942 1.172-1.63 1.172"/>
        <path id="gjn8yjvydr" d="M39.506 98.317c-.687 0-1.341-.44-1.63-1.172L.666 2.732C.279 1.749.695.61 1.595.187c.9-.422 1.942.031 2.331 1.014l37.209 94.413c.387.983-.028 2.122-.928 2.545-.228.107-.466.158-.701.158"/>
        <path id="nc2qms8tgu" d="M2.249 98.317c-.233 0-.472-.05-.7-.158-.9-.423-1.316-1.562-.93-2.545L37.83 1.201c.387-.983 1.43-1.436 2.331-1.014.9.423 1.316 1.562.928 2.545L3.879 97.145c-.288.733-.942 1.172-1.63 1.172"/>
        <path id="zsr384zf8x" d="M39.56 98.317c-.687 0-1.341-.44-1.63-1.172L.72 2.732C.331 1.749.748.61 1.647.187c.9-.422 1.943.031 2.332 1.014l37.209 94.413c.387.983-.028 2.122-.93 2.545-.227.107-.465.158-.698.158"/>
        <path id="3408ywv1tB" d="M38.997 2.872H.464v-.208c0-1.468 1.19-2.656 2.657-2.656h33.014c1.581 0 2.862 1.282 2.862 2.864"/>
        <path id="9r4d5650lE" d="M49.016 9.087c0 2.601-2.128 4.73-4.731 4.73H5.3C2.7 13.817.57 11.688.57 9.087V4.808C.569 2.207 2.699.077 5.3.077h38.985c2.603 0 4.731 2.13 4.731 4.731v4.279"/>
        <path id="nfw39xxafH" d="M15.97.054S9.434 1.067 2.084 5.98C.927 6.754.293 8.102.466 9.483c.88 6.97 4.5 29.535 16.432 51.574.628 1.163.81 2.516.532 3.807l-2.074 9.648-3.844 3.606h9.903l6.594-17.844-2.82-.89c-2.186-.693-3.685-2.704-3.725-4.995l-.33-19.141c.28-8.528-5.23-14.411-5.23-14.411l15.815-.77L15.971.054"/>
        <path id="ya082g9tuK" d="M.581 20.579c-.901 1.18 9.707 2.738 15.067.156 0 0 7.43-12.926 7.43-19.582 0 0-.59-1.357-4.953-1.049 0 0-2.494 15.305-5.13 17.02-2.633 1.715-7.369.173-7.369.173s-3.713 1.54-5.045 3.282"/>
        <path id="3331mtwumN" d="M66.576 18.659c-.085-.146-17.028-2.036-17.028-2.036s.554 5.15-1.178 12.242c-1.733 7.092-26.61 37.818-26.61 37.818l2.61 8.268C16.304 77.76 8.372 78.21.564 76.382l16.165-9.7S31.86 15.128 41.126 5.93L58.109.054l8.467 18.605"/>
        <path id="tywyq8zplQ" d="M63.722.026s9.763 14.519 10.563 21.142c.802 6.622-2.674 9.315-12.915 9.758-10.244.444-37.587.437-37.587.437L.446 11.418s17.007-6.07 21.428-7.784C26.297 1.918 63.722.026 63.722.026"/>
        <path id="rjegaybyfT" d="M27.837.141s2.807 2.72.91 5.745c0 0-22.244 3.944-28.284 2.155 0 0 1.253-2.863 8.055-6.121l-.502.385c-.635.488-.263 1.504.537 1.458C13.034 3.508 22.31 2.686 27.837.14"/>
        <path id="h0hcddh8kW" d="M6.968.484C8.493.23 14.1-.461 15.026 2.9c.123.447.677.597 1.023.289C17.817 1.606 21.985-1.365 26.556.73c4.036 1.852 3.663 5.708 2.966 8.073-.168.572.454 1.048.949.714 3.521-2.37 11.636-6.606 16.833.375 4.847 6.51.894 11.028-1.766 13.081-.452.349-.237 1.063.329 1.118 1.94.192 4.616 1.26 5.846 5.41 1.927 6.505-10.007 11.912-11.412 12.523-.089.038-.183.055-.28.05l-24.104-1.236c-.187-.009-.361-.102-.473-.253L.656 20.666c-.12-.161-.155-.37-.096-.562L6.474.918c.07-.227.26-.396.494-.434"/>
        <path id="ewp5wfz5qZ" d="M20.738 52.775S9.37 41.951 3.774 34.781C.75 30.906-.201 25.805 1.199 21.091c2.555-8.607 7.095-17.52 7.51-18.909C9.341.057 22.086.144 22.086.144S47.17 16.423 57.025 43.997l-11.068 3.446s-6.548-10.988-13.02-17.972c0 0 11.197 14.79 11.592 20.845l-23.791 2.46"/>
        <path id="7p11ku0zwab" d="M.563 1.815c.132.443 3.46 11.47 3.72 11.7.26.23 7.295.607 10.606-1.656L9.272.099.562 1.814"/>
        <path id="zfr9cudrbae" d="M1.758 3s-2.777 5.896-.02 15.083c2.755 9.188 7.701 10.133 10.92 7.984 3.217-2.148 7.425-6.037 8.192-14.256C21.616 3.592 5.56-4.454 1.758 3"/>
        <path id="dty8qd9x1ah" d="M20.406 21.065S15.3 8.59 6.819 15.995l-.734 3.148S-1.69 16.66 1.111 9.632c2.801-7.029 12.066-12.591 20.313-7.72 8.247 4.871 11.19 11.423 10.537 17.88-.653 6.458-5.435 4.092-5.435 4.092s-.784-4.787-3.036-5.704c-2.253-.917-2.316 2.686-2.316 2.686l-.768.2"/>
        <path id="fvp20yxgrak" d="M1.404 6.531S-1.259.134 2.756.031C6.77-.071 4.943 6.187 4.07 8.463L1.404 6.531"/>
        <path id="4ldskiw5fan" d="M.497 9.657l8.352-8.05 11.554 4.881s11.5 1.782 18.083 0l6.582-1.781L59.943.075l2.336 6.602c.593 1.677-.003 3.539-1.453 4.568-1.287.915-2.795 1.92-3.756 2.34-1.96.857-48.288-.593-48.288-.593L.497 9.657"/>
        <path id="x5jssgadcaq" d="M51.3 4.392c-.037.002-.074.003-.11.002L2.74 4.34C1.543 4.34.573 3.368.573 2.17.575.972 1.55-.017 2.745.005l48.449.052c1.198.001 2.167.973 2.165 2.171-.001 1.16-.913 2.107-2.06 2.164"/>
        <path id="h9jpl3o4qat" d="M3.723.025h40.348c2.977 0 5.686 1.718 6.956 4.41l18.652 39.553H19.54c-1.919 0-3.644-1.172-4.349-2.957L.727 4.432C-.11 2.317 1.45.025 3.723.025"/>
        <path id="95vrkg19waw" d="M223.288 2.322c.122-.55-.044-1.116-.454-1.548-.41-.432-1.02-.682-1.665-.682H2.957c-.848 0-1.636.375-2.092.995-.457.62-.517 1.4-.163 2.067L3.068 7.6c.54 1.018 1.713 1.67 3.005 1.67h213.599c1.2 0 2.233-.741 2.462-1.764l1.154-5.183"/>
        <linearGradient id="zaz9iv4dib" x1="0%" x2="120.07%" y1="66.777%" y2="66.777%">
            <stop offset="0%" stop-color="#4F52FF"/>
            <stop offset="100%" stop-color="#4042E1"/>
        </linearGradient>
        <linearGradient id="xz12zqmdue" x1="-26.828%" x2="124.173%" y1="62.587%" y2="62.587%">
            <stop offset="0%" stop-color="#6E82F7"/>
            <stop offset="100%" stop-color="#6B7CEE"/>
        </linearGradient>
        <linearGradient id="m9cibxoh0g" x1="41.119%" x2="63.42%" y1="66.223%" y2="25.068%">
            <stop offset="0%" stop-color="#08005D"/>
            <stop offset="100%" stop-color="#1A0F91"/>
        </linearGradient>
        <linearGradient id="01tk4um6im" x1="62.674%" x2="-57.192%" y1="38.531%" y2="175.69%">
            <stop offset="0%" stop-color="#4F52FF"/>
            <stop offset="100%" stop-color="#4042E1"/>
        </linearGradient>
        <linearGradient id="ef4se3ph1p" x1="60.828%" x2="42.478%" y1="-75.419%" y2="137.135%">
            <stop offset="0%" stop-color="#4F52FF"/>
            <stop offset="100%" stop-color="#4042E1"/>
        </linearGradient>
        <linearGradient id="nxyjof4dzs" x1="60.745%" x2="42.395%" y1="-74.465%" y2="138.09%">
            <stop offset="0%" stop-color="#4F52FF"/>
            <stop offset="100%" stop-color="#4042E1"/>
        </linearGradient>
        <linearGradient id="it6i5alj5v" x1="58.052%" x2="39.702%" y1="-43.267%" y2="169.288%">
            <stop offset="0%" stop-color="#4F52FF"/>
            <stop offset="100%" stop-color="#4042E1"/>
        </linearGradient>
        <linearGradient id="mpuyjchcuy" x1="57.969%" x2="39.619%" y1="-42.31%" y2="170.244%">
            <stop offset="0%" stop-color="#4F52FF"/>
            <stop offset="100%" stop-color="#4042E1"/>
        </linearGradient>
        <linearGradient id="qifuubxzmA" x1="43.024%" x2="52.887%" y1="185.481%" y2="-6.062%">
            <stop offset="0%" stop-color="#4F52FF"/>
            <stop offset="100%" stop-color="#4042E1"/>
        </linearGradient>
        <linearGradient id="kiquw4rd6C" x1="-16.384%" x2="115.303%" y1="59.052%" y2="41.473%">
            <stop offset="0%" stop-color="#4F52FF"/>
            <stop offset="100%" stop-color="#4042E1"/>
        </linearGradient>
        <linearGradient id="8vc7r16awF" x1="-48.651%" x2="56.087%" y1="100.247%" y2="46.9%">
            <stop offset="0%" stop-color="#4F52FF"/>
            <stop offset="100%" stop-color="#4042E1"/>
        </linearGradient>
        <linearGradient id="ry78ftifsI" x1="59.095%" x2="51.387%" y1="125.767%" y2="48.163%">
            <stop offset="0%" stop-color="#FDBAB9"/>
            <stop offset="100%" stop-color="#FF928E"/>
        </linearGradient>
        <linearGradient id="cqjtnyqgzL" x1="53.154%" x2="32.751%" y1="2.651%" y2="308.921%">
            <stop offset="0%" stop-color="#4F52FF"/>
            <stop offset="100%" stop-color="#4042E1"/>
        </linearGradient>
        <linearGradient id="n1fljn0h9O" x1="56.242%" x2="162.869%" y1="47.859%" y2="-16.343%">
            <stop offset="0%" stop-color="#FDBAB9"/>
            <stop offset="100%" stop-color="#FF928E"/>
        </linearGradient>
        <linearGradient id="y9f17fk62R" x1="-23.807%" x2="76.194%" y1="49.997%" y2="49.997%">
            <stop offset="0%" stop-color="#08005D"/>
            <stop offset="100%" stop-color="#1A0F91"/>
        </linearGradient>
        <linearGradient id="mj7equl9oU" x1="55.374%" x2="39.477%" y1="27.797%" y2="98.249%">
            <stop offset="0%" stop-color="#4F52FF"/>
            <stop offset="100%" stop-color="#4042E1"/>
        </linearGradient>
        <linearGradient id="cahhaqjk2X" x1="-18.88%" x2="107.337%" y1="-.461%" y2="90.572%">
            <stop offset="0%" stop-color="#08005D"/>
            <stop offset="100%" stop-color="#1A0F91"/>
        </linearGradient>
        <linearGradient id="2v9alhd5lac" x1="70.543%" x2="47.497%" y1="174.679%" y2="34.379%">
            <stop offset="0%" stop-color="#FDBAB9"/>
            <stop offset="100%" stop-color="#FF928E"/>
        </linearGradient>
        <linearGradient id="7sp2mcqalaf" x1="18.303%" x2="115.99%" y1="54.471%" y2="36.935%">
            <stop offset="0%" stop-color="#FDBAB9"/>
            <stop offset="100%" stop-color="#FF928E"/>
        </linearGradient>
        <linearGradient id="bim1hqps3ai" x1="8.769%" x2="214.386%" y1="23.82%" y2="163.006%">
            <stop offset="0%" stop-color="#08005D"/>
            <stop offset="100%" stop-color="#1A0F91"/>
        </linearGradient>
        <linearGradient id="rej5al1w0al" x1="-76.895%" x2="154.55%" y1="81.481%" y2="25.376%">
            <stop offset="0%" stop-color="#FDBAB9"/>
            <stop offset="100%" stop-color="#FF928E"/>
        </linearGradient>
        <linearGradient id="fm6hakh9iao" x1="62.329%" x2="162.328%" y1="50.003%" y2="50.003%">
            <stop offset="0%" stop-color="#FDBAB9"/>
            <stop offset="100%" stop-color="#FF928E"/>
        </linearGradient>
        <linearGradient id="u0p0vur2lar" x1="111.672%" x2="38.812%" y1="48.317%" y2="50.305%">
            <stop offset="0%" stop-color="#08005D"/>
            <stop offset="100%" stop-color="#1A0F91"/>
        </linearGradient>
        <linearGradient id="cx6rjen2dau" x1="73.322%" x2="33.286%" y1="35.227%" y2="62.117%">
            <stop offset="0%" stop-color="#08005D"/>
            <stop offset="100%" stop-color="#1A0F91"/>
        </linearGradient>
        <linearGradient id="bllf69p7iax" x1="48.87%" x2="29.354%" y1="50.176%" y2="54.036%">
            <stop offset="0%" stop-color="#4F52FF"/>
            <stop offset="100%" stop-color="#4042E1"/>
        </linearGradient>
    </defs>
    <g fill="none" fill-rule="evenodd">
        <g>
            <g>
                <path fill="#011269" d="M204.458 331.645c-42.832 0-86.536-5.49-124.742-26.024C15.13 270.912 2.39 206.862 2.39 206.862S0 197.286 0 181.047c0-22.122 4.44-56.607 25.409-96.095C53.186 32.642 109.342 0 162.202 0c16.336 0 32.368 3.121 47.136 9.744 62.559 28.051 63.33 47.689 99.698 102.593 36.369 54.903 88.196 63.023 89.145 115.667.01.565.015 1.129.015 1.692-.014 51.83-43.802 92.184-108.355 97.244-26.653 2.088-55.809 4.705-85.383 4.705" transform="translate(-704.000000, -10195.000000) translate(704.000000, 10195.000000)"/>
                <g>
                    <g transform="translate(-704.000000, -10195.000000) translate(704.000000, 10195.000000) translate(24.441718, 35.644172) translate(13.148015, 0.638744)">
                        <mask id="tyzlkmh45c" fill="#fff">
                            <use xlink:href="#ruaqb58nya"/>
                        </mask>
                        <path fill="url(#zaz9iv4dib)" d="M50.53 104.468c-1.692-8.45-4.304-15.725-9.213-19.885-3.58-3.034-10.699-4.032-18.513-4.032-3.282 0-6.685.176-10.002.452-1.144-1.442-2.233-3.009-3.247-4.71-4.433-7.437-7.472-17.52-7.796-31.693C1.178 19.187.549 8.076.127 3.23-.02 1.526 1.333.117 2.97.117c.176 0 .356.016.538.05C12.333 1.83 34.443 6.96 50.794 18.938c1.824 1.336 3.574 2.756 5.228 4.267l3.42 70.608c-1.587-12.343-4.54-19.473-5.6-22.961-8.922-22.85-25.66-45.698-40.137-58.608-.103-.092-.234-.139-.366-.139-.136 0-.272.05-.378.152-.88.843 1.101.932 10.516 13.022l1.25 1.584c12.152 16.08 23.9 35.041 29.167 54.596C55.813 88.87 57 96.652 57.54 104.286l-7.01.182" mask="url(#tyzlkmh45c)"/>
                    </g>
                    <g transform="translate(-704.000000, -10195.000000) translate(704.000000, 10195.000000) translate(24.441718, 35.644172) translate(25.818601, 12.722729)">
                        <mask id="jh9tagc6tf" fill="#fff">
                            <use xlink:href="#dwsivrjand"/>
                        </mask>
                        <path fill="url(#xz12zqmdue)" d="M44.87 92.202c-.54-7.634-1.728-15.416-3.646-22.827C35.956 49.82 24.208 30.86 12.057 14.779l-1.25-1.584C1.391 1.105-.59 1.015.29.173.396.072.532.021.669.021.8.021.93.068 1.035.16 15.51 13.07 32.249 35.919 41.17 58.768c1.061 3.488 4.014 10.618 5.6 22.96l.503 10.412-2.405.062" mask="url(#jh9tagc6tf)"/>
                    </g>
                    <path fill="#7D97F4" d="M91.88 198.245c1.883.924-17.835-23.873-24.012-62.817-2.91-18.352-2.948-41.345-13.402-50.206-8.7-7.375-38.308-2.718-47.995-.95-1.21.221-1.618 1.751-.676 2.542 4.646 3.902 14.584 13.105 17.173 22.379 3.413 12.225 15.035 20 25.44 22.104 10.405 2.105 16.193 4.146 21.261 20.786 5.07 16.64 16.858 43.537 22.211 46.162" transform="translate(-704.000000, -10195.000000) translate(704.000000, 10195.000000) translate(24.441718, 35.644172)"/>
                    <path fill="#91B3FA" d="M20.096 89.437c12.36.519 25.626 6.156 32.359 16.732l.635 1.01c1.468 2.366 9.786 19.187 14.405 33.13.058.175-.036.362-.21.42-.161.053-.278-.02-.347-.09-.057-.06-.081-.122-.068-.109-3.219-7.877-7.842-17.864-11.523-25.333-3.949-8.149-6.712-13.669-15.718-18.955-10.024-5.694-19.6-6.28-19.571-6.273-.146-.016-.253-.147-.238-.292.014-.141.137-.244.276-.24" transform="translate(-704.000000, -10195.000000) translate(704.000000, 10195.000000) translate(24.441718, 35.644172)"/>
                    <g fill="url(#m9cibxoh0g)" transform="translate(-704.000000, -10195.000000) translate(704.000000, 10195.000000) translate(24.441718, 35.644172) translate(22.965438, 98.835787)">
                        <path d="M283.288 179.176H7.456c-2.806 0-5.101-2.302-5.101-5.114L.06 14.996c0-1.01.425-2.362 1.25-3.664C2.7 9.135 5.23 7.084 8.772 7.084c.21 0 .423.007.64.022l18.522-.48 1.968-.053 11.683-.302 6.986-.182 2.396-.062.302 6.246-31.705.853c-.127-.005-.256-.007-.387-.007-4.629 0-11.814 3.186-12.062 11.636l2.166 144.4c0 2.665 2.171 4.844 4.826 4.844h44.966l.156 3.25h205.906l.158-3.25h13.233c2.654 0 4.826-2.179 4.826-4.843l3.842-153.708c.062-2.483-.893-4.881-2.645-6.635-1.694-1.696-3.986-2.645-6.372-2.645-.081 0-.162 0-.244.003l-4.505.12.293-6.048 5.266-.137c.11-.004.222-.004.333-.004 3.4 0 6.669 1.35 9.083 3.766 2.492 2.493 3.856 5.901 3.773 9.43l-3.788 160.764c0 2.812-2.295 5.114-5.101 5.114"/>
                    </g>
                    <g transform="translate(-704.000000, -10195.000000) translate(704.000000, 10195.000000) translate(24.441718, 35.644172) translate(28.986247, 104.936439)">
                        <mask id="vkt7su1tdi" fill="#fff">
                            <use xlink:href="#1h1oribcbh"/>
                        </mask>
                        <path fill="#4339A4" d="M272.459 167.898h-13.28l.412-8.468c4.994-.866 8.83-5.134 8.993-10.366.61-19.683 1.938-62.484 2.739-88.466.765-24.807-.153-40.015-4.667-46.312l.686-14.095 4.522-.12c.082-.004.163-.004.244-.004 2.394 0 4.695.949 6.395 2.645 1.757 1.754 2.716 4.152 2.654 6.635l-3.855 153.708c0 2.665-2.18 4.843-4.843 4.843m-220.219 0H7.117c-2.663 0-4.842-2.178-4.842-4.843L.1 18.654c.25-8.45 7.46-11.636 12.104-11.636.132 0 .261.002.39.007l31.814-.853.507 10.453c-19.605 1.066-32.105 3.098-31.462 11.67.685 9.128.789 114.815.51 126.75-.097 4.179 4.116 5.56 14.058 5.56 1.32 0 2.74-.024 4.265-.07 2.017-.06 9.086-.124 19.588-.191l.365 7.554" mask="url(#vkt7su1tdi)"/>
                    </g>
                    <g transform="translate(-704.000000, -10195.000000) translate(704.000000, 10195.000000) translate(24.441718, 35.644172) translate(42.360755, 119.132189)">
                        <mask id="y3y0f0a83k" fill="#fff">
                            <use xlink:href="#f5pb6559pj"/>
                        </mask>
                        <path fill="#B7C7EF" d="M14.648 146.41c-9.943 0-14.155-1.382-14.058-5.561.278-11.935.175-117.622-.51-126.75C-.563 5.528 11.937 3.496 31.542 2.43L38.5 146.15c-10.503.066-17.571.13-19.589.19-1.524.046-2.945.07-4.264.07m231.568-1.175L253.281.09c4.515 6.297 5.432 21.505 4.667 46.313-.8 25.981-2.128 68.782-2.739 88.465-.162 5.232-3.998 9.5-8.993 10.366" mask="url(#y3y0f0a83k)"/>
                    </g>
                    <g fill="#443AA5">
                        <path d="M8.686 18.175c-4.366 0-7.938-3.896-7.938-8.657S4.32.862 8.686.862H363.51c4.364 0 7.937 3.895 7.937 8.656 0 4.76-3.573 8.657-7.937 8.657H8.686z" transform="translate(-704.000000, -10195.000000) translate(704.000000, 10195.000000) translate(24.441718, 35.644172) translate(0.270488, 277.162556)"/>
                    </g>
                    <path fill="#91B3FA" d="M264.967 2.265L79.29 1.128c-6.102-.037-10.983 5.06-10.68 11.155l12.773 263.801h206.623L299.48 40.392 264.967 2.265" transform="translate(-704.000000, -10195.000000) translate(704.000000, 10195.000000) translate(24.441718, 35.644172)"/>
                    <g transform="translate(-704.000000, -10195.000000) translate(704.000000, 10195.000000) translate(24.441718, 35.644172) translate(262.336210, 2.515867)">
                        <mask id="cs4mkolxhn" fill="#fff">
                            <use xlink:href="#oqyre4m27l"/>
                        </mask>
                        <path fill="url(#01tk4um6im)" d="M10.351 36.746C4.303 36.533-.347 31.32.13 25.286L2.12.097l35.06 37.625-26.829-.975" mask="url(#cs4mkolxhn)"/>
                    </g>
                    <path fill="#E7EEFE" d="M175.009 61.792c-1.692 0-3.093-1.617-3.237-3.746l-.038-.542c-.166-2.451 1.378-4.583 3.329-4.592 15.26-.075 73.846-.465 88.639-.563h.019c1.857 0 3.322 1.934 3.241 4.282-.076 2.24-1.544 4.033-3.32 4.055l-88.6 1.106h-.033M174.26 80.296c-1.693 0-3.092-1.617-3.238-3.746l-.036-.542c-.167-2.451 1.376-4.583 3.328-4.592 15.26-.074 73.845-.465 88.64-.563h.017c1.857 0 3.322 1.934 3.243 4.282-.078 2.242-1.544 4.033-3.322 4.056l-88.6 1.105h-.033M108.25 106.378c-2.866 0-5.297-1.63-5.615-3.767l-.08-.543c-.366-2.452 2.164-4.574 5.452-4.574h.006c5.139.003 13.192.004 22.988.004 39.268 0 106.556-.023 126.529-.03h.002c3.146 0 5.7 1.949 5.644 4.303-.055 2.243-2.468 4.027-5.465 4.038l-149.433.57h-.028M106.922 125.796c-2.22 0-4.089-1.616-4.32-3.744l-.06-.543c-.266-2.45 1.72-4.585 4.282-4.595 20.037-.087 96.959-.526 116.384-.637h.025c2.438 0 4.399 1.934 4.339 4.28-.058 2.243-1.949 4.036-4.28 4.06l-116.323 1.178-.047.001M107.997 151.225c-2.866 0-5.297-1.63-5.615-3.767l-.081-.543c-.364-2.452 2.164-4.575 5.454-4.575h.005c5.14.004 13.192.005 22.987.005 39.27 0 106.557-.023 126.53-.032h.002c3.146 0 5.7 1.95 5.644 4.305-.054 2.243-2.469 4.026-5.465 4.038l-149.432.57h-.03M105.595 170.967c-2.243 0-4.125-1.632-4.347-3.771l-.056-.543c-.253-2.45 1.75-4.57 4.32-4.57h.008c20.132.038 97.418.074 116.934.082 2.462.001 4.435 1.952 4.36 4.308-.07 2.241-1.982 4.023-4.324 4.033l-116.876.46h-.019M106.727 196.987c-2.866 0-5.297-1.63-5.615-3.767l-.08-.543c-.364-2.452 2.164-4.575 5.452-4.575h.006c5.141.004 13.197.005 22.996.005 39.27 0 106.55-.023 126.52-.03h.004c3.147 0 5.7 1.948 5.644 4.303-.055 2.243-2.469 4.026-5.464 4.038l-149.433.57h-.03" transform="translate(-704.000000, -10195.000000) translate(704.000000, 10195.000000) translate(24.441718, 35.644172)"/>
                    <path fill="#D0DEFD" d="M105.012 216.495c-2.243 0-4.126-1.632-4.348-3.77l-.056-.544c-.254-2.45 1.75-4.57 4.32-4.57h.008c20.132.038 97.418.073 116.934.083 2.461 0 4.435 1.952 4.36 4.308-.07 2.24-1.98 4.023-4.325 4.032l-116.875.461h-.018" transform="translate(-704.000000, -10195.000000) translate(704.000000, 10195.000000) translate(24.441718, 35.644172)"/>
                    <path fill="#C6D7FC" d="M108.25 242.218c-2.866 0-5.297-1.63-5.615-3.769l-.08-.542c-.366-2.452 2.164-4.574 5.452-4.574h.006c5.152.003 13.236.005 23.064.005 39.28 0 106.493-.024 126.453-.032h.002c3.146 0 5.7 1.95 5.644 4.304-.055 2.242-2.468 4.027-5.465 4.037l-149.433.57h-.028" transform="translate(-704.000000, -10195.000000) translate(704.000000, 10195.000000) translate(24.441718, 35.644172)"/>
                    <path fill="#B9CEFC" d="M106.632 263.838c-2.211 0-4.067-1.627-4.288-3.763l-.056-.542c-.253-2.452 1.727-4.577 4.268-4.577h.295c20.32 0 95.986-.1 115.162-.125h.006c2.429 0 4.375 1.946 4.305 4.3-.068 2.241-1.954 4.026-4.267 4.039l-115.399.668h-.026" transform="translate(-704.000000, -10195.000000) translate(704.000000, 10195.000000) translate(24.441718, 35.644172)"/>
                    <path fill="#E7EEFE" d="M161.41 79.257h-8.293l-6.421-18.905h-21.312l-6.242 18.905h-8.025l20.42-60.102h9.363l20.51 60.102m-25.504-53.236c-.892 3.567-1.872 7.224-3.032 10.88l-5.884 17.388h18.101l-5.885-17.3c-1.338-3.923-2.23-7.49-3.12-10.968h-.18" transform="translate(-704.000000, -10195.000000) translate(704.000000, 10195.000000) translate(24.441718, 35.644172)"/>
                    <g>
                        <g transform="translate(-704.000000, -10195.000000) translate(704.000000, 10195.000000) translate(24.441718, 35.644172) translate(136.466258, 95.730061) translate(16.278652, 98.900492)">
                            <mask id="hjle03hzwq" fill="#fff">
                                <use xlink:href="#xxmy8imcjo"/>
                            </mask>
                            <path fill="url(#ef4se3ph1p)" d="M1.648 94.798c-.9-.422-1.316-1.562-.929-2.545L37.93-2.16c.388-.983 1.43-1.436 2.33-1.013.902.422 1.317 1.561.93 2.544L3.979 93.784c-.288.733-.942 1.172-1.63 1.172-.234 0-.472-.05-.7-.158z" mask="url(#hjle03hzwq)"/>
                        </g>
                        <g transform="translate(-704.000000, -10195.000000) translate(704.000000, 10195.000000) translate(24.441718, 35.644172) translate(136.466258, 95.730061) translate(21.039390, 98.900492)">
                            <mask id="c7zn943b3t" fill="#fff">
                                <use xlink:href="#gjn8yjvydr"/>
                            </mask>
                            <path fill="url(#nxyjof4dzs)" d="M37.876 93.784L.666-.629c-.387-.983.029-2.122.929-2.544.9-.423 1.942.03 2.331 1.013l37.209 94.413c.387.983-.028 2.123-.928 2.545-.228.108-.466.158-.701.158-.687 0-1.341-.439-1.63-1.172z" mask="url(#c7zn943b3t)"/>
                        </g>
                        <g transform="translate(-704.000000, -10195.000000) translate(704.000000, 10195.000000) translate(24.441718, 35.644172) translate(136.466258, 95.730061) translate(174.765155, 98.900492)">
                            <mask id="dwj6amdzcw" fill="#fff">
                                <use xlink:href="#nc2qms8tgu"/>
                            </mask>
                            <path fill="url(#it6i5alj5v)" d="M1.549 94.798c-.9-.422-1.316-1.562-.93-2.545L37.83-2.16c.387-.983 1.43-1.436 2.331-1.013.9.422 1.316 1.561.928 2.544L3.879 93.784c-.288.733-.942 1.172-1.63 1.172-.233 0-.472-.05-.7-.158z" mask="url(#dwj6amdzcw)"/>
                        </g>
                        <g transform="translate(-704.000000, -10195.000000) translate(704.000000, 10195.000000) translate(24.441718, 35.644172) translate(136.466258, 95.730061) translate(179.372320, 98.900492)">
                            <mask id="kh0222irtz" fill="#fff">
                                <use xlink:href="#zsr384zf8x"/>
                            </mask>
                            <path fill="url(#mpuyjchcuy)" d="M37.93 93.784L.72-.629c-.388-.983.029-2.122.928-2.544.9-.423 1.943.03 2.332 1.013l37.209 94.413c.387.983-.028 2.123-.93 2.545-.227.108-.465.158-.698.158-.688 0-1.342-.439-1.631-1.172z" mask="url(#kh0222irtz)"/>
                        </g>
                        <path fill="url(#qifuubxzmA)" d="M152.06 181.172L156.46 181.172 156.46 133.596 152.06 133.596z" transform="translate(-704.000000, -10195.000000) translate(704.000000, 10195.000000) translate(24.441718, 35.644172) translate(136.466258, 95.730061)"/>
                        <g transform="translate(-704.000000, -10195.000000) translate(704.000000, 10195.000000) translate(24.441718, 35.644172) translate(136.466258, 95.730061) translate(134.529240, 179.218748)">
                            <mask id="o22tt1ga3D" fill="#fff">
                                <use xlink:href="#3408ywv1tB"/>
                            </mask>
                            <path fill="url(#kiquw4rd6C)" d="M38.997 2.872H.464v-.208c0-1.468 1.19-2.656 2.657-2.656h33.014c1.581 0 2.862 1.282 2.862 2.864" mask="url(#o22tt1ga3D)"/>
                        </g>
                        <g transform="translate(-704.000000, -10195.000000) translate(704.000000, 10195.000000) translate(24.441718, 35.644172) translate(136.466258, 95.730061) translate(130.229219, 122.857754)">
                            <mask id="7thtxhxovG" fill="#fff">
                                <use xlink:href="#9r4d5650lE"/>
                            </mask>
                            <path fill="url(#8vc7r16awF)" d="M49.016 9.087c0 2.601-2.128 4.73-4.731 4.73H5.3C2.7 13.817.57 11.688.57 9.087V4.808C.569 2.207 2.699.077 5.3.077h38.985c2.603 0 4.731 2.13 4.731 4.731v4.279" mask="url(#7thtxhxovG)"/>
                        </g>
                        <g transform="translate(-704.000000, -10195.000000) translate(704.000000, 10195.000000) translate(24.441718, 35.644172) translate(136.466258, 95.730061) translate(105.811240, 101.818363)">
                            <mask id="cu7oouedqJ" fill="#fff">
                                <use xlink:href="#nfw39xxafH"/>
                            </mask>
                            <path fill="url(#ry78ftifsI)" d="M15.97.054S9.434 1.067 2.084 5.98C.927 6.754.293 8.102.466 9.483c.88 6.97 4.5 29.535 16.432 51.574.628 1.163.81 2.516.532 3.807l-2.074 9.648-3.844 3.606h9.903l6.594-17.844-2.82-.89c-2.186-.693-3.685-2.704-3.725-4.995l-.33-19.141c.28-8.528-5.23-14.411-5.23-14.411l15.815-.77L15.971.054" mask="url(#cu7oouedqJ)"/>
                        </g>
                        <g transform="translate(-704.000000, -10195.000000) translate(704.000000, 10195.000000) translate(24.441718, 35.644172) translate(136.466258, 95.730061) translate(112.875561, 161.097229)">
                            <mask id="0mprxu52fM" fill="#fff">
                                <use xlink:href="#ya082g9tuK"/>
                            </mask>
                            <path fill="url(#cqjtnyqgzL)" d="M.581 20.579c-.901 1.18 9.707 2.738 15.067.156 0 0 7.43-12.926 7.43-19.582 0 0-.59-1.357-4.953-1.049 0 0-2.494 15.305-5.13 17.02-2.633 1.715-7.369.173-7.369.173s-3.713 1.54-5.045 3.282" mask="url(#0mprxu52fM)"/>
                        </g>
                        <g transform="translate(-704.000000, -10195.000000) translate(704.000000, 10195.000000) translate(24.441718, 35.644172) translate(136.466258, 95.730061) translate(68.953914, 104.275518)">
                            <mask id="aetloo9x3P" fill="#fff">
                                <use xlink:href="#3331mtwumN"/>
                            </mask>
                            <path fill="url(#n1fljn0h9O)" d="M66.576 18.659c-.085-.146-17.028-2.036-17.028-2.036s.554 5.15-1.178 12.242c-1.733 7.092-26.61 37.818-26.61 37.818l2.61 8.268C16.304 77.76 8.372 78.21.564 76.382l16.165-9.7S31.86 15.128 41.126 5.93L58.109.054l8.467 18.605" mask="url(#aetloo9x3P)"/>
                        </g>
                        <g transform="translate(-704.000000, -10195.000000) translate(704.000000, 10195.000000) translate(24.441718, 35.644172) translate(136.466258, 95.730061) translate(109.804117, 92.911176)">
                            <mask id="jbkc2bbmmS" fill="#fff">
                                <use xlink:href="#tywyq8zplQ"/>
                            </mask>
                            <path fill="url(#y9f17fk62R)" d="M63.722.026s9.763 14.519 10.563 21.142c.802 6.622-2.674 9.315-12.915 9.758-10.244.444-37.587.437-37.587.437L.446 11.418s17.007-6.07 21.428-7.784C26.297 1.918 63.722.026 63.722.026" mask="url(#jbkc2bbmmS)"/>
                        </g>
                        <g transform="translate(-704.000000, -10195.000000) translate(704.000000, 10195.000000) translate(24.441718, 35.644172) translate(136.466258, 95.730061) translate(64.500321, 176.300876)">
                            <mask id="ny9cjozsnV" fill="#fff">
                                <use xlink:href="#rjegaybyfT"/>
                            </mask>
                            <path fill="url(#mj7equl9oU)" d="M27.837.141s2.807 2.72.91 5.745c0 0-22.244 3.944-28.284 2.155 0 0 1.253-2.863 8.055-6.121l-.502.385c-.635.488-.263 1.504.537 1.458C13.034 3.508 22.31 2.686 27.837.14" mask="url(#ny9cjozsnV)"/>
                        </g>
                        <g transform="translate(-704.000000, -10195.000000) translate(704.000000, 10195.000000) translate(24.441718, 35.644172) translate(136.466258, 95.730061) translate(133.300663, 7.371465)">
                            <mask id="sh55ns5a0Y" fill="#fff">
                                <use xlink:href="#h0hcddh8kW"/>
                            </mask>
                            <path fill="url(#cahhaqjk2X)" d="M6.968.484C8.493.23 14.1-.461 15.026 2.9c.123.447.677.597 1.023.289C17.817 1.606 21.985-1.365 26.556.73c4.036 1.852 3.663 5.708 2.966 8.073-.168.572.454 1.048.949.714 3.521-2.37 11.636-6.606 16.833.375 4.847 6.51.894 11.028-1.766 13.081-.452.349-.237 1.063.329 1.118 1.94.192 4.616 1.26 5.846 5.41 1.927 6.505-10.007 11.912-11.412 12.523-.089.038-.183.055-.28.05l-24.104-1.236c-.187-.009-.361-.102-.473-.253L.656 20.666c-.12-.161-.155-.37-.096-.562L6.474.918c.07-.227.26-.396.494-.434" mask="url(#sh55ns5a0Y)"/>
                        </g>
                        <g transform="translate(-704.000000, -10195.000000) translate(704.000000, 10195.000000) translate(24.441718, 35.644172) translate(136.466258, 95.730061) translate(126.389914, 38.239476)">
                            <mask id="f9zl3dn83aa" fill="#fff">
                                <use xlink:href="#ewp5wfz5qZ"/>
                            </mask>
                            <path fill="#FA394B" d="M20.738 52.775S9.37 41.951 3.774 34.781C.75 30.906-.201 25.805 1.199 21.091c2.555-8.607 7.095-17.52 7.51-18.909C9.341.057 22.086.144 22.086.144S47.17 16.423 57.025 43.997l-11.068 3.446s-6.548-10.988-13.02-17.972c0 0 11.197 14.79 11.592 20.845l-23.791 2.46" mask="url(#f9zl3dn83aa)"/>
                        </g>
                        <g transform="translate(-704.000000, -10195.000000) translate(704.000000, 10195.000000) translate(24.441718, 35.644172) translate(136.466258, 95.730061) translate(132.993518, 26.721561)">
                            <mask id="bpre6sj6vad" fill="#fff">
                                <use xlink:href="#7p11ku0zwab"/>
                            </mask>
                            <path fill="url(#2v9alhd5lac)" d="M.563 1.815c.132.443 3.46 11.47 3.72 11.7.26.23 7.295.607 10.606-1.656L9.272.099.562 1.814" mask="url(#bpre6sj6vad)"/>
                        </g>
                        <g transform="translate(-704.000000, -10195.000000) translate(704.000000, 10195.000000) translate(24.441718, 35.644172) translate(136.466258, 95.730061) translate(122.397037, 9.982192)">
                            <mask id="0s6tketroag" fill="#fff">
                                <use xlink:href="#zfr9cudrbae"/>
                            </mask>
                            <path fill="url(#7sp2mcqalaf)" d="M1.758 3s-2.777 5.896-.02 15.083c2.755 9.188 7.701 10.133 10.92 7.984 3.217-2.148 7.425-6.037 8.192-14.256C21.616 3.592 5.56-4.454 1.758 3" mask="url(#0s6tketroag)"/>
                        </g>
                        <g transform="translate(-704.000000, -10195.000000) translate(704.000000, 10195.000000) translate(24.441718, 35.644172) translate(136.466258, 95.730061) translate(116.714866, 0.000000)">
                            <mask id="xxamcq8sfaj" fill="#fff">
                                <use xlink:href="#dty8qd9x1ah"/>
                            </mask>
                            <path fill="url(#bim1hqps3ai)" d="M20.406 21.065S15.3 8.59 6.819 15.995l-.734 3.148S-1.69 16.66 1.111 9.632c2.801-7.029 12.066-12.591 20.313-7.72 8.247 4.871 11.19 11.423 10.537 17.88-.653 6.458-5.435 4.092-5.435 4.092s-.784-4.787-3.036-5.704c-2.253-.917-2.316 2.686-2.316 2.686l-.768.2" mask="url(#xxamcq8sfaj)"/>
                        </g>
                        <g transform="translate(-704.000000, -10195.000000) translate(704.000000, 10195.000000) translate(24.441718, 35.644172) translate(136.466258, 95.730061) translate(137.600684, 14.742930)">
                            <mask id="zo93agmenam" fill="#fff">
                                <use xlink:href="#fvp20yxgrak"/>
                            </mask>
                            <path fill="url(#rej5al1w0al)" d="M1.404 6.531S-1.259.134 2.756.031C6.77-.071 4.943 6.187 4.07 8.463L1.404 6.531" mask="url(#zo93agmenam)"/>
                        </g>
                        <g transform="translate(-704.000000, -10195.000000) translate(704.000000, 10195.000000) translate(24.441718, 35.644172) translate(136.466258, 95.730061) translate(123.472042, 82.161123)">
                            <mask id="8g2jk4lhlap" fill="#fff">
                                <use xlink:href="#4ldskiw5fan"/>
                            </mask>
                            <path fill="url(#fm6hakh9iao)" d="M.497 9.657l8.352-8.05 11.554 4.881s11.5 1.782 18.083 0l6.582-1.781L59.943.075l2.336 6.602c.593 1.677-.003 3.539-1.453 4.568-1.287.915-2.795 1.92-3.756 2.34-1.96.857-48.288-.593-48.288-.593L.497 9.657" mask="url(#8g2jk4lhlap)"/>
                        </g>
                        <g transform="translate(-704.000000, -10195.000000) translate(704.000000, 10195.000000) translate(24.441718, 35.644172) translate(136.466258, 95.730061) translate(104.275518, 91.221882)">
                            <mask id="x9hz6l7z2as" fill="#fff">
                                <use xlink:href="#x5jssgadcaq"/>
                            </mask>
                            <path fill="url(#u0p0vur2lar)" d="M51.3 4.392c-.037.002-.074.003-.11.002L2.74 4.34C1.543 4.34.573 3.368.573 2.17.575.972 1.55-.017 2.745.005l48.449.052c1.198.001 2.167.973 2.165 2.171-.001 1.16-.913 2.107-2.06 2.164" mask="url(#x9hz6l7z2as)"/>
                        </g>
                        <g transform="translate(-704.000000, -10195.000000) translate(704.000000, 10195.000000) translate(24.441718, 35.644172) translate(136.466258, 95.730061) translate(59.739583, 51.600257)">
                            <mask id="rbaaoa6qoav" fill="#fff">
                                <use xlink:href="#h9jpl3o4qat"/>
                            </mask>
                            <path fill="url(#cx6rjen2dau)" d="M3.723.025h40.348c2.977 0 5.686 1.718 6.956 4.41l18.652 39.553H19.54c-1.919 0-3.644-1.172-4.349-2.957L.727 4.432C-.11 2.317 1.45.025 3.723.025" mask="url(#rbaaoa6qoav)"/>
                        </g>
                        <path fill="#91B3FA" d="M91.89 71.906c.873 2.716.226 5.353-1.445 5.892-1.67.538-3.734-1.228-4.608-3.945-.874-2.717-.23-5.355 1.442-5.893 1.672-.537 3.735 1.229 4.61 3.946" transform="translate(-704.000000, -10195.000000) translate(704.000000, 10195.000000) translate(24.441718, 35.644172) translate(136.466258, 95.730061)"/>
                        <g transform="translate(-704.000000, -10195.000000) translate(704.000000, 10195.000000) translate(24.441718, 35.644172) translate(136.466258, 95.730061) translate(0.000000, 95.061187)">
                            <mask id="o8f7slbg7ay" fill="#fff">
                                <use xlink:href="#95vrkg19waw"/>
                            </mask>
                            <path fill="url(#bllf69p7iax)" d="M223.288 2.322c.122-.55-.044-1.116-.454-1.548-.41-.432-1.02-.682-1.665-.682H2.957c-.848 0-1.636.375-2.092.995-.457.62-.517 1.4-.163 2.067L3.068 7.6c.54 1.018 1.713 1.67 3.005 1.67h213.599c1.2 0 2.233-.741 2.462-1.764l1.154-5.183" mask="url(#o8f7slbg7ay)"/>
                        </g>
                    </g>
                </g>
            </g>
        </g>
    </g>
</svg>
