<svg xmlns="http://www.w3.org/2000/svg" width="432" height="332" viewBox="0 0 432 332">
    <g fill="none" fill-rule="evenodd">
        <g>
            <g>
                <path fill="#011269" d="M4.97 212.75C-10.297 148.48 13.002 70.552 57.19 31.186c44.187-39.366 146.572-40.236 181.922-7.297l35.35 32.939s33.743 18.477 77.931 16.87c44.188-1.606 51.082 77.297 72.816 110.747 21.735 33.45-16.126 132.746-16.126 132.746l-335.825-2.41S20.234 277.023 4.97 212.75z" transform="translate(-704.000000, -11033.000000) translate(704.000000, 11033.000000)"/>
                <path fill="#011269" d="M414.259 302.128h-69.282c6.728-17.884 14.217-43.052 12.005-62.063-3.83-32.938-22.222-64.27-59.772-88.372-14.23-9.134-36.602-15.845-60.948-17.29 1.487-9.072 1.553-18.637 1.093-23.683-.802-8.837-5.02-16.068-5.02-16.068s-7.93-4.497-18.068-4.497c-3.068 0-6.338.412-9.65 1.485-14.261 4.619-19.282 26.712-17.676 38.361.459 3.32 1.288 6.173 2.386 8.68-24.546 6.385-47.14 19.932-61.472 43.54-21.04 34.665-19.705 71.092-14.057 96.848v23.059h-55.36c-16.44-15.678-42.046-45.392-52.665-86.15 9.436-29.405 30.168-54.643 32.94-70.712 4.016-23.299-4.82-52.22 32.136-74.715 36.956-22.495 102.836-14.461 127.742-20.085 3.74-.845 7.57-2.43 11.547-4.489 2.163 1.738 4.212 3.508 6.128 5.293l35.35 32.939s30.992 16.97 72.465 16.97c1.803 0 3.624-.033 5.466-.1.577-.02 1.157-.03 1.733-.03 26.595 0 51.317 22.184 68.868 50.119-3.372 19.51-7.28 27.24 4.918 47.925 11.229 19.038 18.304 34.516 20.144 50.94-2.014 20.35-7.04 39.492-10.951 52.095" transform="translate(-704.000000, -11033.000000) translate(704.000000, 11033.000000)"/>
                <path fill="#182D98" d="M344.977 302.128H277.52c1.122-4.039 3.82-18.88 3.82-18.88s-22.896-19.616-24.101-22.83c-.804-2.142-.402-41.843-3.817-60.12-3.414-18.278-7.832-21.96-17.071-26.512-9.55-4.705-23.702-9.105-23.702-9.105s2.812 6.494 5.423 21.758c2.612 15.266 5.022 40.973 5.624 58.648.547 16.025.927 50.707.994 57.04H196.29c.483-4.534 2.379-22.97 1.498-24.904-.387-.854-9.761-1.348-21.122-1.633v-72.48s-11.554-.806-24.126-.806c-11.734 0-24.356.702-29.302 3.417-10.242 5.623-9.44 25.106-9.44 25.106v48.242c-5.647-25.756-6.982-62.183 14.058-96.848 14.331-23.608 36.926-37.155 61.472-43.54.11.25.221.496.336.739-.806 6.405-2.391 18.387-3.123 19.704l-1.004 1.808-5.022 3.415s9.64 13.657 21.491 15.866c1.61.3 2.981.43 4.151.43 7.445 0 6.695-5.25 6.695-5.25l-1.808-3.816 1.577-13.657c1.236.192 2.492.295 3.744.295 5.205 0 10.353-1.778 13.76-6.321 3.103-4.137 5.022-10.675 6.138-17.491 24.346 1.445 46.718 8.156 60.948 17.29 37.55 24.102 55.942 55.434 59.772 88.372 2.212 19.011-5.277 44.18-12.005 62.063" transform="translate(-704.000000, -11033.000000) translate(704.000000, 11033.000000)"/>
                <path fill="#02D8FB" d="M390.707 200.365h-43.319c-2.68 0-4.854-2.174-4.854-4.854v-21.625c0-2.68 2.175-4.853 4.854-4.853h43.319c2.68 0 4.854 2.173 4.854 4.853v21.625c0 2.68-2.174 4.854-4.854 4.854" transform="translate(-704.000000, -11033.000000) translate(704.000000, 11033.000000)"/>
                <path fill="#02D8FB" d="M369.047 212.617L375.912 196.348 362.183 196.348 369.047 212.617" transform="translate(-704.000000, -11033.000000) translate(704.000000, 11033.000000)"/>
                <path fill="#283770" d="M368.883 179.319L381.283 179.319 381.283 181.133 387.362 177.628 381.283 174.123 381.283 175.938 368.883 175.938 368.883 179.319" transform="translate(-704.000000, -11033.000000) translate(704.000000, 11033.000000)"/>
                <path fill="#FFFFFE" d="M387.362 186.449L374.962 186.449 374.962 184.635 368.883 188.139 374.962 191.644 374.962 189.829 387.362 189.829 387.362 186.449" transform="translate(-704.000000, -11033.000000) translate(704.000000, 11033.000000)"/>
                <path fill="#283770" d="M361.272 189.638l-.59.216s-1.84-2.101-2.795-4.39c-.955-2.286-.988-5.08-.988-5.08l.432-.18-2.623-6.276c-.467.365-.913.835-1.273 1.444-1.483 2.507-1.337 6.355.157 10.115 1.492 3.759 3.088 7.112 6 9.22 1.718 1.245 3.19 1.462 4.335 1.282l-2.655-6.351M363.156 188.9l-.816.295 2.683 6.425c.304-.1.576-.221.812-.35.693-.38.998-1.214.706-1.948l-1.402-3.533c-.312-.783-1.19-1.179-1.983-.89M356.758 172.828c-.33.119-.689.28-1.05.493l2.677 6.408.901-.376c.783-.326 1.161-1.218.852-2.007l-1.407-3.613c-.305-.784-1.18-1.191-1.973-.905" transform="translate(-704.000000, -11033.000000) translate(704.000000, 11033.000000)"/>
                <path fill="#2A6EA9" d="M113.798 303.132v-72.305s-.803-19.483 9.44-25.106c10.243-5.624 53.427-2.61 53.427-2.61v100.02h-62.867" transform="translate(-704.000000, -11033.000000) translate(704.000000, 11033.000000)"/>
                <path fill="#F5BDC8" d="M190.155 135.424s-2.61 21.893-3.615 23.7l-1.004 1.808-5.022 3.415s9.64 13.657 21.491 15.866c11.85 2.21 10.846-4.82 10.846-4.82l-1.808-3.816 2.412-20.889s-21.493-9.84-23.3-15.264" transform="translate(-704.000000, -11033.000000) translate(704.000000, 11033.000000)"/>
                <path fill="#FFFFFE" d="M174.287 166.154l7.834-3.415s5.021 8.235 16.67 13.056c11.65 4.82 11.851 2.008 12.453 0 .603-2.009-.2-4.218-.2-4.218l.861-7.032 4.659 1.552 16.171 130.808-41.575 2.009-16.873-132.76" transform="translate(-704.000000, -11033.000000) translate(704.000000, 11033.000000)"/>
                <path fill="#FA394B" d="M218.073 186.44c2.612 15.265 5.022 40.972 5.624 58.647.602 17.674 1.005 58.045 1.005 58.045h52.423c.601 0 4.217-19.884 4.217-19.884s-22.897-19.616-24.102-22.83c-.804-2.142-.402-41.843-3.817-60.12-3.414-18.278-7.832-21.96-17.071-26.512-9.55-4.705-23.702-9.105-23.702-9.105s2.812 6.494 5.423 21.758zM135.523 275.213l-.401 27.919h61.058s2.612-23.7 1.607-25.91c-1.004-2.21-62.264-2.009-62.264-2.009" transform="translate(-704.000000, -11033.000000) translate(704.000000, 11033.000000)"/>
                <path fill="#F5BDC8" d="M232.334 94.652s4.219 7.231 5.021 16.068c.804 8.838 0 31.533-7.231 41.174-7.23 9.64-22.294 6.828-29.124 1.004-6.266-5.345-12.452-11.248-14.059-22.897-1.606-11.649 3.415-33.742 17.676-38.361 14.26-4.62 27.717 3.012 27.717 3.012M250.453 290.505s-.708 0-1.786-.03c-.252-.009-.534 0-.826-.009-1.038-.03-2.3-.057-3.572-.096l-.854-.03c-1.262-.03-2.34.126-3.35.069h-.028c-.214-.01-.525.018-.777.028-.126.01-.243.02-.32.01-.583-.107-.7-.242-1.33-.524-.816-.37-11.855-2.834-20.834-2.777-8.97.039-17.017.65-18.328-.447-1.32-1.116-2.116-12.385 5.543-13.124l9.417 3.572s21.503-2.552 29.386 3.262c7.902 5.815 7.66 10.096 7.66 10.096" transform="translate(-704.000000, -11033.000000) translate(704.000000, 11033.000000)"/>
                <path fill="#283770" d="M240.037 290.409c-.214-.01-.525.018-.777.028-.194-.31-.603-.874-.825-1.107-2.427-2.475-8.29-4.077-10.417-4.591-.194-.049-.321-.243-.271-.436.038-.195.242-.312.446-.273 3.097.747 9.67 2.66 11.533 5.795.058.088.214.389.31.584M244.272 290.369c-.281-.007-.573-.015-.854-.031-2.65-4.833-6.986-6.22-12.344-7.943l-.317-.106c-.184-.062-.295-.269-.231-.46.062-.184.26-.296.461-.233l.308.105c5.665 1.818 10.224 3.28 12.977 8.668M248.668 290.476c-.252-.007-.534-.004-.826-.01-1.607-3.38-6.926-9.035-13.963-10.353-.203-.034-.335-.221-.301-.424.044-.195.231-.325.425-.29 7.25 1.36 13.097 7.281 14.665 11.077" transform="translate(-704.000000, -11033.000000) translate(704.000000, 11033.000000)"/>
                <path fill="#1B2A4B" d="M191.761 120.06s4.42-2.11 7.533-8.034c3.113-5.925 2.711-11.247 2.711-11.247s5.624-.904 14.06 1.606c8.435 2.51 18.478 5.926 26.914 1.105s8.436-12.553 4.318-15.766c-4.611-3.6-13.758-1.407-13.758-1.407s3.514-3.414 1.607-5.423c-1.909-2.008-8.837.603-8.837.603s-8.436-6.728-24.404-5.925c-15.968.804-23.6 11.95-24.504 24.403-.904 12.453 3.616 24.905 3.616 24.905l10.744-4.82" transform="translate(-704.000000, -11033.000000) translate(704.000000, 11033.000000)"/>
                <path fill="#FFF" d="M186.138 137.232s.803 3.114 5.422 6.729c4.62 3.615 11.316 6.26 11.316 6.26l.535-2.344s-6.93-3.013-10.143-6.327c-3.213-3.314-3.615-5.121-3.615-5.121l-3.515.803" transform="translate(-704.000000, -11033.000000) translate(704.000000, 11033.000000)"/>
                <path fill="#283770" d="M204.215 146.143c3.718-.173 5.792 2.767 6.052 4.668.259 1.903-1.528 4.036-5.707 2.162-5.19-2.327-4.062-6.657-.345-6.83" transform="translate(-704.000000, -11033.000000) translate(704.000000, 11033.000000)"/>
                <path fill="#CFD7DF" d="M189.05 114.235s1.606-11.542 9.34-19.382c14.763-14.962 27.316-14.06 27.316-14.06s-.101-2.108-4.821-3.715c-4.432-1.508-6.427-.702-6.427-.702s-12.152 1.003-22.395 12.351c-10.243 11.349-11.348 25.81-11.348 25.81l8.335-.302" transform="translate(-704.000000, -11033.000000) translate(704.000000, 11033.000000)"/>
                <path fill="#FFFFFE" d="M187.945 112.829c-9.67-1.64-15.063 5.925-15.465 13.557-.402 7.632 5.144 13.435 12.553 12.854 16.671-1.305 14.763-24.402 2.912-26.411" transform="translate(-704.000000, -11033.000000) translate(704.000000, 11033.000000)"/>
                <path fill="#011269" d="M183.13 131.823c-2.553 0-4.711-1.283-5.944-3.542-1.321-2.42-1.21-5.4.283-7.59.113-.164.338-.208.505-.095.166.113.21.34.096.505-1.34 1.967-1.436 4.648-.245 6.83 1.13 2.072 3.127 3.246 5.49 3.161 2.21-.059 4.083-1.07 5.274-2.846 1.359-2.028 1.672-4.827.796-7.132-.869-2.287-3.251-3.846-5.417-3.563-.196.026-.383-.113-.409-.313-.027-.2.113-.382.313-.409 2.534-.338 5.194 1.394 6.193 4.026.958 2.519.615 5.579-.871 7.796-1.326 1.978-3.407 3.103-5.859 3.17l-.205.002" transform="translate(-704.000000, -11033.000000) translate(704.000000, 11033.000000)"/>
                <path fill="#FA394B" d="M176.095 163.342s-29.324 7.23-39.567 18.88c-10.244 11.649-15.064 69.091-15.265 79.736-.201 10.645 7.23 15.064 11.65 18.076 4.418 3.013 23.9 8.436 39.567 9.24 15.666.803 30.53 0 30.53 0s-.05-3.415 2.359-8.437c2.236-4.657 5.072-5.624 5.072-5.624l-13.457-4.82s-2.356-42.222-6.025-62.663c-4.219-23.5-14.864-44.388-14.864-44.388" transform="translate(-704.000000, -11033.000000) translate(704.000000, 11033.000000)"/>
                <path fill="#494CF3" d="M49.471 170.115c3.809 3.35 8.632 5.496 11.974 9.37 1.314 1.524 2.496 3.146 3.717 4.744.888 1.163 3.26 3.092 3.644 4.554.17.643.134-.228-.036-.874l-.029-.08c-.334-2.96-.572-5.932-.676-8.91-.104-2.969.081-5.95-.105-8.915-.262-4.183-1.568-8.233-4.987-10.853-1.67-1.281-3.82-2.06-5.355-3.482-1.458-1.35-.874-2.895-.015-4.4.801-1.408 1.774-2.791 2.086-4.412.356-1.843-.337-3.744-1.272-5.312-1.988-3.34-6.4-7.063-10.577-6.564-3.484.417-3.879 4.436-3.828 7.235.047 2.722.317 5.436.343 8.16.026 2.797-.45 5.543-.489 8.328-.067 4.738 2.122 8.348 5.605 11.411" transform="translate(-704.000000, -11033.000000) translate(704.000000, 11033.000000)"/>
                <path fill="#494CF3" d="M84.855 213.588c1.06-2.53 2.277-4.893 3.773-7.193 2.052-3.155 4.329-6.23 5.706-9.763 1.408-3.607 1.201-7.465 1.34-11.264.1-2.791.93-5.575.707-8.374-.107-1.343-.88-3.514-2.618-3.292-1.35.173-2.154 1.848-2.673 2.917-.907 1.866-1.535 3.856-2.209 5.813-.262.766-.513 1.546-.845 2.284-.193.43-.808 1.479-1.387 1.336-.988-.244-.092-4.273.055-4.987.737-3.584 1.846-6.914 2-10.602.224-5.347-.192-11.713-5.421-14.637-1.368-.764-3.1-1.219-4.399-.075-1.281 1.127-1.643 3.082-1.834 4.69-.583 4.939.579 9.615 2.161 14.26 1.307 3.837 2.864 7.796 2.978 11.899.11 3.949-1.946 7.448-2.91 11.179-1.536 5.945-1.219 9.097-1.226 11.022-.01 2.412.078 4.798.254 7.203.163 2.21.354 4.422.624 6.621.055.446.106.911.165 1.376-.85-2.045-1.147-4.388-1.85-6.443-1.25-3.654-2.702-7.232-3.902-10.904-.991-3.033-1.927-6.087-3.237-9.003-1.227-2.737-2.71-5.629-5-7.636-1.384-1.214-3.061-1.923-4.912-1.909-1.185.009-2.249.419-3.38.718-1.39.367-2.486.24-3.63-.64-3.749-2.88-4.888-8.046-7.664-11.694-2.07-2.721-6.98-7.36-10.59-4.392-1.916 1.574-2.445 4.615-2.344 6.947.127 2.925 1.405 5.6 2.927 8.047 1.62 2.6 3.71 4.93 5.198 7.604.88 1.58 1.017 3.093.877 4.875-.13 1.678-.277 3.304.295 4.924 1.718 4.862 7.083 4.184 11.256 4.31 2.92.089 6.053.524 8.825 1.458 3.204 1.078 5.288 3.163 6.434 6.332.828 2.294 1.271 4.898 2.832 6.846.734.916 1.706 1.593 2.775 2.066 1.627.718 6.589 1.033 6.626.58.122-1.518.841-3.119 1.292-4.559.844-2.7 1.837-5.333 2.931-7.94M107.893 212.671c-.432-2.78-.35-5.844-1.666-8.397-.094-.182-.342-.229-.512-.135-.944.523-.983 2.048-1.06 2.981-.128 1.55-.032 3.103-.224 4.648-.334 2.715-.96 5.512-1.94 8.07-1.105 2.895-3.117 4.536-6.04 5.44-1.877.58-3.719 1.085-5.285 2.33-1.404 1.117-2.379 2.655-3.102 4.276-1.95 4.375-2.88 9.265-3.784 13.94-.609 3.147-1.106 6.309-1.87 9.425-.764 3.113-1.584 6.21-2.022 9.392-.074.16-.152.32-.22.481-.2.476.543.733.8.337 3.017-4.643 6.691-8.81 11.704-11.367 2.264-1.155 5.272-1.394 7.16-3.209 1.437-1.38 1.634-3.487 1.42-5.364-.283-2.467-1.465-4.497-2.697-6.598-.675-1.156-1.474-2.392-1.202-3.796.258-1.324 1.359-2.297 2.45-2.975 2.085-1.294 4.522-1.877 6.228-3.742 1.586-1.732 2.464-3.887 2.64-6.22.234-3.11-.302-6.445-.778-9.517" transform="translate(-704.000000, -11033.000000) translate(704.000000, 11033.000000)"/>
                <path fill="#494CF3" d="M66.765 228.701c-2.662-3.428-5.874-6.385-9.489-8.786-1.929-1.28-6.479-3.807-7.397-.03-.539 2.215 1.629 4.394 3.055 5.782 2.144 2.086 4.623 3.886 6.432 6.29-2.24.714-4.58.854-6.525 2.401-2.304 1.834-3.337 5.373-1.053 7.619 1.113 1.094 2.589 1.765 3.975 2.437 1.802.872 3.637 1.663 5.483 2.435 3.988 1.665 8.026 3.355 11.427 6.084 3.466 2.78 6.725 7.481 7 12.018.027.433-.138.038.12-.16.142.128.617-.1.614-.353-.07-6.732-1.28-13.141-4.031-19.307-2.55-5.717-5.767-11.477-9.611-16.43" transform="translate(-704.000000, -11033.000000) translate(704.000000, 11033.000000)"/>
                <path fill="#373AE0" d="M57.572 166.035c1.467 3.048 3.003 6.025 4.633 8.997 1.569 2.86 3.137 5.7 4.31 8.752 1.446 3.758 2.961 7.46 4.49 11.184 1.588 3.872 3.007 7.817 4.146 11.844 2.223 7.862 3.874 15.954 4.69 24.085.416 4.136.604 8.295.49 12.45-.089 3.246-.455 6.458-.76 9.688-.317 3.36-.546 6.76-.265 10.133.235 2.82.684 6.17 2.872 8.182.427.394 1.034-.097.785-.606-2.6-5.331-2.454-11.144-1.957-16.925.275-3.192.656-6.366.763-9.57.137-4.076-.023-8.16-.406-12.22-.755-7.98-2.346-15.866-4.41-23.605-1.059-3.967-2.368-7.858-3.877-11.68-1.514-3.827-3.26-7.55-4.726-11.397-2.65-6.957-6.69-13.126-10.268-19.61-.186-.337-.675-.04-.51.298" transform="translate(-704.000000, -11033.000000) translate(704.000000, 11033.000000)"/>
                <path fill="#373AE0" d="M79.96 222.926c.421-5.066.87-9.945 2.578-14.779.796-2.254 1.762-4.446 2.531-6.708.635-1.871 1.585-4.436 1.096-6.424-.054-.222-.378-.21-.439 0-.327 1.136-.291 2.381-.526 3.545-.23 1.133-.536 2.248-.888 3.348-.75 2.342-1.73 4.585-2.578 6.89-1.638 4.452-2.48 9.383-2.122 14.128.017.225.33.225.349 0M50.6 193.81c2.012 4.858 8.058 5.139 12.461 6.227 3.145.776 5.466 2.874 7.133 5.597 1.825 2.98 3.059 6.477 4.073 9.802l.06-.016c-1.233-5.823-2.997-12.835-9-15.544-4.811-2.172-11.15-1.08-14.228-6.277-.151-.256-.62-.084-.499.21" transform="translate(-704.000000, -11033.000000) translate(704.000000, 11033.000000)"/>
                <path fill="#3B5586" d="M76.781 222.158c.24.323.46.66.706.977.123.157.247.305.401.431.158.13.343.29.56.285.09-.001.153-.101.104-.182-.099-.162-.278-.26-.418-.383-.145-.128-.291-.253-.431-.384-.282-.266-.54-.555-.814-.827l-.108.083" transform="translate(-704.000000, -11033.000000) translate(704.000000, 11033.000000)"/>
                <path fill="#373AE0" d="M64.205 237.57c3.47 2.848 6.67 6.217 9.213 9.909 1.215 1.765 2.337 3.632 3.355 5.518 1.111 2.06 1.84 4.236 2.711 6.396.066.164.366.168.343-.046-.482-4.569-3.376-8.486-5.694-12.288-1.204-1.974-2.7-3.566-4.31-5.213-1.662-1.7-3.356-3.309-5.305-4.68-.237-.168-.54.218-.313.404M91.83 232.191c-1.671.947-1.725 3.586-1.758 5.272-.064 3.237.738 6.277-.683 9.362-1.283 2.788-3.334 5.114-4.945 7.703-1.51 2.422-2.998 5.518-2.965 8.434.002.168.26.264.339.093.608-1.324.826-2.828 1.262-4.215.49-1.56 1.173-2.977 2.058-4.348 1.551-2.404 3.455-4.592 4.714-7.177 1.326-2.725 1.132-5.424 1.044-8.376-.056-1.882-.244-4.907 1.273-6.307.24-.22-.066-.595-.34-.44" transform="translate(-704.000000, -11033.000000) translate(704.000000, 11033.000000)"/>
                <path fill="#EB8D2D" d="M80.658 263.263c-6.73-.093-19.55-.167-19.55-.167l3.172 23.553c.713 5.298 5.236 9.252 10.582 9.252h11.59c5.347 0 9.87-3.954 10.583-9.252l3.172-23.553s-12.82.074-19.55.167" transform="translate(-704.000000, -11033.000000) translate(704.000000, 11033.000000)"/>
                <path fill="#F4F5F5" d="M405.971 219.981L367.574 296.034 255.633 296.839 290.18 218.909 405.971 219.981" transform="translate(-704.000000, -11033.000000) translate(704.000000, 11033.000000)"/>
                <path fill="#CAD2DB" d="M181.339 296.364l.021-6.086h72.466l33.34-73.11h115.892l2.913 2.813H292.757l-34.647 76.322s-76.771-.139-76.771.061" transform="translate(-704.000000, -11033.000000) translate(704.000000, 11033.000000)"/>
                <path fill="#CAD2DB" d="M345.318 261.949c-1.02 3.794-6.555 6.723-12.363 6.543-5.808-.18-9.689-3.4-8.67-7.195 1.02-3.793 6.555-6.723 12.363-6.542 5.808.18 9.69 3.401 8.67 7.194" transform="translate(-704.000000, -11033.000000) translate(704.000000, 11033.000000)"/>
                <path fill="#FFFFFE" d="M258.11 296.789l-.2-.044c-.244-.11-.353-.398-.242-.643l34.777-76.606H405.97c.27 0 .486.216.486.485 0 .268-.217.485-.486.485H293.07l-34.518 76.038c-.08.178-.258.285-.441.285" transform="translate(-704.000000, -11033.000000) translate(704.000000, 11033.000000)"/>
                <path fill="#443AA5" d="M43.131 331.651L176.296 331.651 176.296 302.128 43.131 302.128z" transform="translate(-704.000000, -11033.000000) translate(704.000000, 11033.000000)"/>
                <path fill="#5247BC" d="M175.535 331.651L415.125 331.651 415.125 302.128 175.535 302.128z" transform="translate(-704.000000, -11033.000000) translate(704.000000, 11033.000000)"/>
                <path fill="#011269" d="M43.131 307.55L175.535 307.55 175.535 302.128 43.131 302.128zM175.535 307.55L415.125 307.55 415.125 302.128 175.535 302.128z" transform="translate(-704.000000, -11033.000000) translate(704.000000, 11033.000000)"/>
                <path fill="#443AA5" d="M36.703 303.533L182.121 303.533 182.121 296.303 36.703 296.303z" transform="translate(-704.000000, -11033.000000) translate(704.000000, 11033.000000)"/>
                <path fill="#5247BC" d="M181.36 303.533L420.95 303.533 420.95 296.303 181.36 296.303z" transform="translate(-704.000000, -11033.000000) translate(704.000000, 11033.000000)"/>
                <path fill="#182D98" d="M142.676 141.398h-47.01c-2.91 0-5.267-2.358-5.267-5.267v-23.468c0-2.909 2.358-5.268 5.267-5.268h47.01c2.908 0 5.267 2.36 5.267 5.268v23.468c0 2.909-2.359 5.267-5.267 5.267" transform="translate(-704.000000, -11033.000000) translate(704.000000, 11033.000000)"/>
                <path fill="#182D98" d="M161.34 124.397L143.684 116.947 143.684 131.847 161.34 124.397" transform="translate(-704.000000, -11033.000000) translate(704.000000, 11033.000000)"/>
                <path fill="#A7BDE4" d="M111.27 124.397c0 1.796-1.456 3.251-3.252 3.251-1.796 0-3.252-1.455-3.252-3.25 0-1.798 1.456-3.253 3.252-3.253 1.796 0 3.253 1.455 3.253 3.252M122.423 124.397c0 1.796-1.456 3.251-3.252 3.251-1.796 0-3.252-1.455-3.252-3.25 0-1.798 1.456-3.253 3.252-3.253 1.796 0 3.252 1.455 3.252 3.252M133.575 124.397c0 1.796-1.456 3.251-3.252 3.251-1.796 0-3.252-1.455-3.252-3.25 0-1.798 1.456-3.253 3.252-3.253 1.796 0 3.252 1.455 3.252 3.252" transform="translate(-704.000000, -11033.000000) translate(704.000000, 11033.000000)"/>
                <path fill="#02D8FB" d="M377.435 17.474H268.908c-6.97 0-12.62 5.65-12.62 12.62v51.484c0 6.969 5.65 12.62 12.62 12.62h9.727c.274 4.666-.395 11.609-4.293 20.486 12.539-5.784 19.76-14.469 23.531-20.486h79.562c6.97 0 12.62-5.651 12.62-12.62V30.094c0-6.97-5.65-12.62-12.62-12.62" transform="translate(-704.000000, -11033.000000) translate(704.000000, 11033.000000)"/>
                <path fill="#FFFFFE" d="M331.138 42.01H277.31c-1.478 0-2.678-1.198-2.678-2.677 0-1.48 1.2-2.678 2.678-2.678h53.828c1.48 0 2.679 1.199 2.679 2.678 0 1.479-1.2 2.678-2.679 2.678" transform="translate(-704.000000, -11033.000000) translate(704.000000, 11033.000000)"/>
                <path fill="#FFF" d="M369.736 57.61h-93.464c-.905 0-1.64-.734-1.64-1.64 0-.906.735-1.64 1.64-1.64h93.464c.905 0 1.64.734 1.64 1.64 0 .906-.735 1.64-1.64 1.64M369.736 66.715h-93.464c-.905 0-1.64-.734-1.64-1.64 0-.906.735-1.64 1.64-1.64h93.464c.905 0 1.64.734 1.64 1.64 0 .906-.735 1.64-1.64 1.64M349.347 76.423h-73.075c-.905 0-1.64-.735-1.64-1.64 0-.906.735-1.641 1.64-1.641h73.075c.907 0 1.642.735 1.642 1.64 0 .906-.735 1.641-1.642 1.641" transform="translate(-704.000000, -11033.000000) translate(704.000000, 11033.000000)"/>
                <path fill="#FFFFFE" d="M369.002 42.01h-25.678c-1.479 0-2.679-1.198-2.679-2.677 0-1.48 1.2-2.678 2.679-2.678h25.678c1.48 0 2.677 1.199 2.677 2.678 0 1.479-1.198 2.678-2.677 2.678" transform="translate(-704.000000, -11033.000000) translate(704.000000, 11033.000000)"/>
                <path fill="#011269" d="M308.85 178.138h-29.157c-1.072 0-1.941-.87-1.941-1.941v-19.918c0-1.072.869-1.942 1.941-1.942h29.157c1.073 0 1.941.87 1.941 1.942v19.918c0 1.072-.868 1.941-1.941 1.941" transform="translate(-704.000000, -11033.000000) translate(704.000000, 11033.000000)"/>
                <path fill="#3B4DAA" d="M294.474 169.795c-.165 0-.33-.057-.465-.167l-15.868-13.107c-.31-.256-.353-.714-.097-1.025.257-.31.716-.352 1.024-.097l15.393 12.712 15-13.051c.302-.264.763-.232 1.027.071.264.304.232.763-.072 1.027l-15.465 13.457c-.137.12-.308.18-.477.18" transform="translate(-704.000000, -11033.000000) translate(704.000000, 11033.000000)"/>
                <path fill="#3B4DAA" d="M278.605 177.595c-.18 0-.361-.067-.502-.201-.291-.278-.303-.738-.025-1.03l11.098-11.666c.275-.292.738-.304 1.028-.026.292.278.304.738.026 1.03l-11.098 11.667c-.143.15-.335.226-.527.226M309.938 177.168c-.186 0-.373-.071-.515-.214l-11.054-11.083c-.283-.285-.283-.747.002-1.03.286-.285.747-.284 1.03 0l11.054 11.084c.283.285.283.747-.002 1.03-.143.142-.328.213-.515.213" transform="translate(-704.000000, -11033.000000) translate(704.000000, 11033.000000)"/>
                <path fill="#E15E51" d="M322.048 153.6c0 5.38-4.361 9.742-9.741 9.742s-9.741-4.362-9.741-9.742c0-5.379 4.36-9.74 9.74-9.74 5.381 0 9.742 4.361 9.742 9.74" transform="translate(-704.000000, -11033.000000) translate(704.000000, 11033.000000)"/>
                <text fill="#FFFFFE" font-family="Courier" font-size="12" letter-spacing="-.012" transform="translate(-704.000000, -11033.000000) translate(704.000000, 11033.000000)">
                    <tspan x="305.46" y="156.858">85</tspan>
                </text>
            </g>
        </g>
    </g>
</svg>
