<?xml version="1.0" encoding="UTF-8"?>
<svg width="20px" height="24px" viewBox="0 0 20 24" version="1.1" xmlns="http://www.w3.org/2000/svg" xmlns:xlink="http://www.w3.org/1999/xlink">
    <!-- Generator: sketchtool 60 (101010) - https://sketch.com -->
    <title>5EBC4281-E77F-4B0A-ADCC-8B0E860F347F</title>
    <desc>Created with sketchtool.</desc>
    <g id="Design" stroke="none" stroke-width="1" fill="none" fill-rule="evenodd">
        <g id="2.2-Contact-Mobile" transform="translate(-10.000000, -600.000000)" fill="#777C9B" fill-rule="nonzero">
            <g id="Stacked-Group-6" transform="translate(10.000000, 599.000000)">
                <g id="Call">
                    <path d="M0.362751582,9.16297626 C0.362751582,9.16297626 0.850635926,11.5329062 2.655808,14.19542 C4.0706726,16.3020244 6.70524805,19.8422901 9.33982351,22.0951864 C11.4865146,23.9384652 13.1941098,24.5528915 13.1941098,24.5528915 C14.7553397,25.3428681 15.8042911,24.8454754 15.8042911,24.8454754 C16.5605118,24.5821499 17.2435499,23.9677236 17.8534053,23.3825557 C18.5364434,22.7096127 19.1950873,21.9781528 19.7561543,21.1881762 C19.951308,20.8955922 20.0488849,20.6322667 19.9757022,20.2519076 C19.7073658,19.5204477 17.8046169,17.4431018 17.2923383,16.9457091 C16.9264251,16.5946083 16.584906,16.2142492 16.1945985,15.9216653 C16.023839,15.8046317 15.8530795,15.6875981 15.68232,15.6290813 C15.2920125,15.5413061 15.0236761,15.9801821 14.7797339,16.272766 C14.3162438,16.8286755 13.5112346,18.20382 12.9989561,18.3793704 C12.4866775,18.5841791 11.0474187,17.4431018 10.5839286,16.9749674 C9.0470929,15.453531 7.41268035,13.5517354 6.68085384,12.2936244 C6.33933479,11.7084565 5.33917189,10.0114697 5.50993141,9.39704341 C5.65629671,8.81187554 6.80282492,7.81709014 7.26631505,7.26118066 C7.51025722,6.96859672 7.87617048,6.67601278 7.80298783,6.17862008 C7.77859361,5.94455293 7.68101674,5.73974417 7.55904565,5.56419381 C7.31510348,5.0960595 6.99797866,4.65718359 6.70524805,4.24756608 C6.29054636,3.63313981 4.55855694,1.35098508 3.94870151,1.02914274 C3.6559709,0.941367562 3.41202873,1.05840114 3.16808656,1.29246829 C2.48504848,1.96541135 1.87519305,2.75538799 1.33852027,3.57462302 C0.850635926,4.30608287 0.338357365,5.1253179 0.11880941,6.03232811 C0.11880941,6.0615865 -0.271498065,7.31969744 0.362751582,9.16297626 Z"></path>
                </g>
            </g>
        </g>
    </g>
</svg>