<?xml version="1.0" encoding="UTF-8"?>
<svg width="26px" height="13px" viewBox="0 0 26 13" version="1.1" xmlns="http://www.w3.org/2000/svg" xmlns:xlink="http://www.w3.org/1999/xlink">
    <!-- Generator: sketchtool 60 (101010) - https://sketch.com -->
    <title>678B842F-B995-4B5F-ABC6-D62E79BE31F3</title>
    <desc>Created with sketchtool.</desc>
    <g id="Design" stroke="none" stroke-width="1" fill="none" fill-rule="evenodd">
        <g id="2.2-Contact-Mobile" transform="translate(-10.000000, -768.000000)" fill="#02D8FB" fill-rule="nonzero">
            <g id="Stacked-Group-6" transform="translate(10.000000, 599.000000)">
                <g id="Stacked-Group-3" transform="translate(0.000000, 163.000000)">
                    <g id="Group" transform="translate(0.000000, 6.000000)">
                        <polygon id="Path" points="1.16921609 11.8392857 1.16921609 4.29464286 18.9413006 4.29464286 18.9413006 1.1375 24.3664632 6.46517857 18.9413006 10.5508929 18.9413006 7.77678571 3.97533469 7.77678571 3.97533469 11.8392857"></polygon>
                        <path d="M2.24489489,11.8508929 C2.24489489,9.34375 2.24489489,6.825 2.24489489,4.31785714 C1.8824379,4.67767857 1.50828875,5.04910714 1.14583176,5.40892857 C6.34884335,5.40892857 11.5518549,5.40892857 16.7548665,5.40892857 C17.4797805,5.40892857 18.2046945,5.40892857 18.9296084,5.40892857 C19.5259086,5.40892857 20.0286716,4.90982143 20.0286716,4.31785714 C20.0286716,3.26160714 20.0286716,2.19375 20.0286716,1.1375 C19.3972949,1.39285714 18.7776103,1.64821429 18.1462337,1.91517857 C19.9585186,3.69107143 21.7708035,5.46696429 23.5713963,7.24285714 C23.6415493,6.67410714 23.7233944,6.09375 23.7935474,5.525 C21.9812624,6.88303571 20.1689775,8.25267857 18.3683847,9.61071429 C18.9179163,9.92410714 19.47914,10.2375 20.0286716,10.5508929 C20.0286716,9.64553571 20.0286716,8.72857143 20.0286716,7.82321429 C20.0286716,7.23125 19.5259086,6.73214286 18.9296084,6.73214286 C14.5567403,6.73214286 10.1955643,6.73214286 5.82269611,6.73214286 C5.21470374,6.73214286 4.60671138,6.73214286 3.98702685,6.73214286 C3.39072665,6.73214286 2.88796373,7.23125 2.88796373,7.82321429 C2.88796373,9.16964286 2.88796373,10.5044643 2.88796373,11.8508929 C3.25042072,11.4910714 3.62456987,11.1196429 3.98702685,10.7598214 C3.03996182,10.7598214 2.09289679,10.7598214 1.14583176,10.7598214 C-0.2689197,10.7598214 -0.280611861,12.9535714 1.14583176,12.9535714 C2.09289679,12.9535714 3.03996182,12.9535714 3.98702685,12.9535714 C4.58332706,12.9535714 5.08608997,12.4544643 5.08608997,11.8625 C5.08608997,10.5160714 5.08608997,9.18125 5.08608997,7.83482143 C4.72363299,8.19464286 4.34948384,8.56607143 3.98702685,8.92589286 C8.35989502,8.92589286 12.721071,8.92589286 17.0939392,8.92589286 C17.7019315,8.92589286 18.3099239,8.92589286 18.9296084,8.92589286 C18.5671514,8.56607143 18.1930023,8.19464286 17.8305453,7.83482143 C17.8305453,8.74017857 17.8305453,9.65714286 17.8305453,10.5625 C17.8305453,11.3169643 18.8009947,12.025 19.4908322,11.5026786 C21.3031171,10.1446429 23.115402,8.775 24.9159948,7.41696429 C25.4655264,6.99910714 25.6876774,6.24464286 25.1381459,5.69910714 C23.3258609,3.92321429 21.513576,2.14732143 19.7129832,0.371428571 C19.0348379,-0.290178571 17.8305453,0.197321429 17.8305453,1.14910714 C17.8305453,2.20535714 17.8305453,3.27321429 17.8305453,4.32946429 C18.1930023,3.96964286 18.5671514,3.59821429 18.9296084,3.23839286 C13.7265969,3.23839286 8.52358527,3.23839286 3.32057368,3.23839286 C2.59565971,3.23839286 1.87074574,3.23839286 1.14583176,3.23839286 C0.54953156,3.23839286 0.0467224091,3.7375 0.0467224091,4.32946429 C0.0467224091,6.83660714 0.0467224091,9.35535714 0.0467224091,11.8625 C0.0350764826,13.2669643 2.24489489,13.2669643 2.24489489,11.8508929 Z" id="Path"></path>
                    </g>
                </g>
            </g>
        </g>
    </g>
</svg>