<?xml version="1.0" encoding="UTF-8"?>
<svg width="18px" height="27px" viewBox="0 0 18 27" version="1.1" xmlns="http://www.w3.org/2000/svg" xmlns:xlink="http://www.w3.org/1999/xlink">
    <!-- Generator: Sketch 60 (88103) - https://sketch.com -->
    <title>Path</title>
    <desc>Created with Sketch.</desc>
    <g id="Design" stroke="none" stroke-width="1" fill="none" fill-rule="evenodd">
        <g id="2.-Contact" transform="translate(-1141.000000, -1522.000000)" fill="#63A1EE" fill-rule="nonzero">
            <g id="Group-10" transform="translate(135.000000, 1035.000000)">
                <g id="Stacked-Group" transform="translate(50.000000, 50.000000)">
                    <g id="Stacked-Group-3" transform="translate(0.000000, 421.000000)">
                        <g id="Stacked-Group" transform="translate(935.000000, 0.000000)">
                            <g id="Group-45">
                                <path d="M38.026667,17.2767376 C38.026667,16.8710461 37.6902022,16.5421682 37.2751518,16.5421682 L33.517576,16.5421682 C29.5786092,16.3503786 26.2207773,19.3042839 26.0024244,23.1532929 L26.0024244,27.1199677 L22.2448487,27.1199677 C21.8297983,27.1199677 21.4933335,27.4488456 21.4933335,27.8545371 L21.4933335,31.6742981 C21.4933335,32.0799895 21.8297983,32.4088675 22.2448487,32.4088675 L26.0024244,32.4088675 L26.0024244,42.2520976 C26.0024244,42.6577891 26.3388892,42.986667 26.7539396,42.986667 L31.2630305,42.986667 C31.6780809,42.986667 32.0145457,42.6577891 32.0145457,42.2520976 L32.0145457,32.4088675 L35.9524851,32.4088675 C36.296295,32.413695 36.5996057,32.1898288 36.68897,31.8652861 L37.7711518,28.0455252 C37.8317516,27.8255541 37.7845101,27.5905494 37.6432645,27.4093448 C37.5020189,27.2281401 37.2827555,27.1212444 37.0496973,27.1199677 L32.0145457,27.1199677 L32.0145457,23.1532929 C32.0920149,22.3997697 32.7427969,21.8272728 33.517576,21.8310679 L37.2751518,21.8310679 C37.6902022,21.8310679 38.026667,21.50219 38.026667,21.0964985 L38.026667,17.2767376 Z" id="Path"></path>
                            </g>
                        </g>
                    </g>
                </g>
            </g>
        </g>
    </g>
</svg>