<?xml version="1.0" encoding="UTF-8"?>
<svg width="27px" height="27px" viewBox="0 0 27 27" version="1.1" xmlns="http://www.w3.org/2000/svg" xmlns:xlink="http://www.w3.org/1999/xlink">
    <!-- Generator: Sketch 60 (88103) - https://sketch.com -->
    <title>Combined Shape</title>
    <desc>Created with Sketch.</desc>
    <g id="Design" stroke="none" stroke-width="1" fill="none" fill-rule="evenodd">
        <g id="2.-Contact" transform="translate(-1211.000000, -1522.000000)" fill="#0073B1" fill-rule="nonzero">
            <g id="Group-10" transform="translate(135.000000, 1035.000000)">
                <g id="Stacked-Group" transform="translate(50.000000, 50.000000)">
                    <g id="Stacked-Group-3" transform="translate(0.000000, 421.000000)">
                        <g id="Stacked-Group" transform="translate(935.000000, 0.000000)">
                            <g id="Group-44" transform="translate(75.000000, 0.000000)">
                                <path d="M36.4163203,24.8815646 C41.964907,24.8815646 42.986667,28.5376358 42.986667,33.2838047 L42.986667,33.2838047 L42.986667,42.9855648 L42.9800537,42.9855648 L42.9800537,42.986667 L37.5075203,42.986667 L37.5073917,34.2295263 C37.5035527,32.2061741 37.3935957,29.7115025 34.6560714,29.7115025 C31.8046225,29.7115025 31.3681425,31.9379914 31.3681425,34.2405336 L31.3681425,34.2405336 L31.3681425,42.9855648 L25.890098,42.9855648 L25.890098,25.324658 L31.1510047,25.324658 L31.1510047,27.7330135 L31.2281602,27.7330135 C31.9589336,26.3453158 33.7489425,24.8815646 36.4163203,24.8815646 Z M22.4544713,25.3257602 L22.4544713,42.986667 L16.9698135,42.986667 L16.9698135,25.3257602 L22.4544713,25.3257602 Z M19.7099379,16.5333335 C21.4624713,16.5333335 22.8854402,17.9563024 22.8865424,19.7099379 C22.8865424,21.4635735 21.4635735,22.9163024 19.7099379,22.9163024 C17.9563024,22.9163024 16.5333335,21.4635735 16.5333335,19.7099379 C16.5333335,17.9563024 17.9563024,16.5333335 19.7099379,16.5333335 Z" id="Combined-Shape"></path>
                            </g>
                        </g>
                    </g>
                </g>
            </g>
        </g>
    </g>
</svg>