<?xml version="1.0" encoding="UTF-8"?>
<svg width="20px" height="16px" viewBox="0 0 20 16" version="1.1" xmlns="http://www.w3.org/2000/svg" xmlns:xlink="http://www.w3.org/1999/xlink">
    <!-- Generator: sketchtool 60 (101010) - https://sketch.com -->
    <title>D89C6458-A50E-45B1-9D64-3FCDEA729914</title>
    <desc>Created with sketchtool.</desc>
    <g id="Design" stroke="none" stroke-width="1" fill="none" fill-rule="evenodd">
        <g id="2.2-Contact-Mobile" transform="translate(-10.000000, -642.000000)" fill="#777C9B" fill-rule="nonzero">
            <g id="Stacked-Group-6" transform="translate(10.000000, 599.000000)">
                <g id="Group-3" transform="translate(0.000000, 35.000000)">
                    <path d="M12.9296875,16.9427111 L18.9952734,23.7995556 C18.7660938,23.9243111 18.5127734,24 18.2421875,24 L18.2421875,24 L1.7578125,24 C1.48722656,24 1.23390625,23.9243111 1.00472656,23.7995556 L1.00472656,23.7995556 L7.0703125,16.9427111 L7.92859375,17.9192889 C9.07074219,19.2188 10.9292188,19.2188 12.0713672,17.9192889 L12.0713672,17.9192889 L12.9296875,16.9427111 Z M19.8238281,9.14315556 C19.9334766,9.40391111 20,9.69213333 20,10 L20,10 L20,22 C20,22.3078222 19.9334766,22.5960889 19.8238281,22.8568444 L19.8238281,22.8568444 L13.7582422,16 Z M0.176171875,9.14315556 L6.24175781,16 L0.176171875,22.8568444 C0.0665234375,22.5961333 -4.33875158e-13,22.3078667 -4.33875158e-13,22 L-4.33875158e-13,22 L-4.33875158e-13,10 C-4.33875158e-13,9.69213333 0.0665234375,9.40391111 0.176171875,9.14315556 L0.176171875,9.14315556 Z M18.2421875,8 C18.5127734,8 18.7660938,8.07568889 18.9952734,8.20044444 L18.9952734,8.20044444 L11.2428125,16.9765778 C10.5573438,17.7564889 9.44265625,17.7564889 8.7571875,16.9765778 L8.7571875,16.9765778 L1.00472656,8.20044444 C1.23390625,8.07568889 1.48722656,8 1.7578125,8 L1.7578125,8 Z" id="Mail"></path>
                </g>
            </g>
        </g>
    </g>
</svg>