<?xml version="1.0" encoding="UTF-8"?>
<svg width="20px" height="22px" viewBox="0 0 20 22" version="1.1" xmlns="http://www.w3.org/2000/svg" xmlns:xlink="http://www.w3.org/1999/xlink">
    <!-- Generator: sketchtool 60 (101010) - https://sketch.com -->
    <title>B275A27C-3F53-4B2E-B0D2-32527A26FF31</title>
    <desc>Created with sketchtool.</desc>
    <g id="Design" stroke="none" stroke-width="1" fill="none" fill-rule="evenodd">
        <g id="2.2-Contact-Mobile" transform="translate(-10.000000, -677.000000)" fill="#777C9B" fill-rule="nonzero">
            <g id="Stacked-Group-6" transform="translate(10.000000, 599.000000)">
                <g id="Group-5" transform="translate(0.000000, 70.000000)">
                    <path d="M15.2117333,22.8111133 C18.1737333,23.4720586 20,24.6841211 20,26.1328125 C20,28.6448516 14.8476444,30 10,30 C5.15235556,30 -3.49942297e-13,28.6448516 -3.49942297e-13,26.1328125 C-3.49942297e-13,24.6851523 1.82373333,23.4737344 4.78213333,22.8124453 L4.78213333,22.8124453 L8.14453333,27.8864102 C9.00928889,29.1906406 10.9858667,29.1949375 11.8548,27.8851641 L11.8548,27.8851641 Z M10,8 C14.0436,8 17.3333333,11.1805039 17.3333333,15.0898437 C17.3333333,16.5639727 16.8672,17.9807812 15.9843556,19.1873867 L15.9843556,19.1873867 L10.5612,27.3611172 C10.2997778,27.7563437 9.70075556,27.7571172 9.4388,27.3611172 L9.4388,27.3611172 L4.03906667,19.2151016 C3.1368,17.9512187 2.66666667,16.6024297 2.66666667,15.0898437 C2.66666667,11.1139453 6.00155556,8 10,8 Z M10,11.8671875 C8.16208889,11.8671875 6.66666667,13.312957 6.66666667,15.0898437 C6.66666667,16.8667305 8.16208889,18.3125 10,18.3125 C11.8379111,18.3125 13.3333333,16.8667305 13.3333333,15.0898437 C13.3333333,13.312957 11.8379111,11.8671875 10,11.8671875 Z" id="Combined-Shape"></path>
                </g>
            </g>
        </g>
    </g>
</svg>