<svg xmlns="http://www.w3.org/2000/svg" width="170.631" height="168.717" viewBox="0 0 170.631 168.717">
  <g id="Component_5_1" data-name="Component 5 – 1" transform="translate(0 0.776)">
    <g id="Group_641" data-name="Group 641">
      <path id="Path_978" data-name="Path 978" d="M334.745,258.108c3.963-12.461-3.021-19.644-3.511-31.67-.933-22.9,22.235-50.021,47.925-56.638,39.39-10.148,75.264,30.332,88.381,54.149,9.35,16.98,12.493,35.22,16.182,56.638,3.132,18.183,4.629,27.4,1.245,33.61-15.647,28.712-94.084,9.777-100.829,8.091-31.628-7.9-69.164-24.94-67.841-39.834C317.058,273.88,330.111,272.678,334.745,258.108Z" transform="translate(-316.263 -162.028)" fill="#e8ecd6"/>
      <g id="Group_640" data-name="Group 640" transform="translate(15.309)">
        <g id="Group_606" data-name="Group 606" transform="translate(49.281)">
          <g id="Group_603" data-name="Group 603" transform="translate(30.695)">
            <path id="Path_979" data-name="Path 979" d="M418.64,218.414c-11.428,22.846-22.99,31.945-29.905,28.485s-6.572-18.17,4.855-41.015S423.2,160.7,430.122,164.16,430.071,195.563,418.64,218.414Z" transform="translate(-384.142 -163.803)" fill="#e8f5d1" stroke="#8eb44a" stroke-linejoin="round" stroke-width="1.5"/>
            <line id="Line_5" data-name="Line 5" x1="41.388" y2="82.739" transform="translate(4.593 0.357)" fill="none" stroke="#8eb44a" stroke-linejoin="round" stroke-width="0.75"/>
            <path id="Path_980" data-name="Path 980" d="M385.5,207.164l5.521,16.56,16.556-5.514" transform="translate(-383.593 -146.296)" fill="none" stroke="#8eb44a" stroke-linejoin="round" stroke-width="0.75"/>
            <path id="Path_981" data-name="Path 981" d="M391.861,191.851l6.247,18.752,18.749-6.247" transform="translate(-381.025 -152.479)" fill="none" stroke="#8eb44a" stroke-linejoin="round" stroke-width="0.75"/>
            <path id="Path_982" data-name="Path 982" d="M399.235,179.59l5.553,16.66,16.655-5.548" transform="translate(-378.048 -157.429)" fill="none" stroke="#8eb44a" stroke-linejoin="round" stroke-width="0.75"/>
            <path id="Path_983" data-name="Path 983" d="M407.31,169.422l3.875,11.627,11.622-3.872" transform="translate(-374.788 -161.535)" fill="none" stroke="#8eb44a" stroke-linejoin="round" stroke-width="0.75"/>
          </g>
          <g id="Group_604" data-name="Group 604" transform="translate(44.167 53.356)">
            <path id="Path_984" data-name="Path 984" d="M413.338,213.936c-15.733,9.086-21.706,17.687-18.95,22.447s13.183,3.89,28.917-5.2,30.816-22.953,28.066-27.718S429.075,204.845,413.338,213.936Z" transform="translate(-393.739 -201.813)" fill="#e8f5d1" stroke="#8eb44a" stroke-linejoin="round" stroke-width="1.5"/>
            <line id="Line_6" data-name="Line 6" x1="56.984" y2="32.916" transform="translate(0.648 1.655)" fill="none" stroke="#8eb44a" stroke-linejoin="round" stroke-width="0.75"/>
            <path id="Path_985" data-name="Path 985" d="M408.976,231.5l-12-3.212,3.211-11.993" transform="translate(-392.431 -195.968)" fill="none" stroke="#8eb44a" stroke-linejoin="round" stroke-width="0.75"/>
            <path id="Path_986" data-name="Path 986" d="M420.032,226.906l-13.578-3.634,3.633-13.58" transform="translate(-388.606 -198.632)" fill="none" stroke="#8eb44a" stroke-linejoin="round" stroke-width="0.75"/>
            <path id="Path_987" data-name="Path 987" d="M427.993,220.595l-12.072-3.231,3.231-12.063" transform="translate(-384.783 -200.405)" fill="none" stroke="#8eb44a" stroke-linejoin="round" stroke-width="0.75"/>
            <path id="Path_988" data-name="Path 988" d="M433.813,213.1l-8.419-2.256,2.255-8.416" transform="translate(-380.959 -201.565)" fill="none" stroke="#8eb44a" stroke-linejoin="round" stroke-width="0.75"/>
          </g>
          <g id="Group_605" data-name="Group 605" transform="translate(0 6.371)">
            <path id="Path_989" data-name="Path 989" d="M365.94,215.192c4.926,20.979,12.645,30.71,19,29.215s8.936-13.639,4.009-34.621-15.5-42.86-21.858-41.372S361.009,194.2,365.94,215.192Z" transform="translate(-362.275 -168.342)" fill="#e8f5d1" stroke="#8eb44a" stroke-linejoin="round" stroke-width="1.5"/>
            <line id="Line_7" data-name="Line 7" x2="17.849" y2="75.992" transform="translate(4.812 0.072)" fill="none" stroke="#8eb44a" stroke-linejoin="round" stroke-width="0.75"/>
            <path id="Path_990" data-name="Path 990" d="M388.907,209.9l-7.76,12.523-12.519-7.757" transform="translate(-359.71 -151.562)" fill="none" stroke="#8eb44a" stroke-linejoin="round" stroke-width="0.75"/>
            <path id="Path_991" data-name="Path 991" d="M387.441,196.092l-8.779,14.174-14.177-8.78" transform="translate(-361.383 -157.138)" fill="none" stroke="#8eb44a" stroke-linejoin="round" stroke-width="0.75"/>
            <path id="Path_992" data-name="Path 992" d="M383.042,184.586l-7.806,12.6-12.591-7.8" transform="translate(-362.126 -161.783)" fill="none" stroke="#8eb44a" stroke-linejoin="round" stroke-width="0.75"/>
            <path id="Path_993" data-name="Path 993" d="M376.62,174.669l-5.447,8.79-8.785-5.446" transform="translate(-362.23 -165.787)" fill="none" stroke="#8eb44a" stroke-linejoin="round" stroke-width="0.75"/>
          </g>
        </g>
        <g id="Group_639" data-name="Group 639" transform="translate(0 43.393)">
          <g id="Group_614" data-name="Group 614" transform="translate(3.655 37.366)">
            <g id="Group_611" data-name="Group 611">
              <g id="Group_607" data-name="Group 607" transform="translate(78.802 45.496)">
                <path id="Path_994" data-name="Path 994" d="M426.993,253.744v10.143l-41.084,23.875V277.62Z" transform="translate(-385.909 -253.744)" fill="#8ac39b" stroke="#8eb44a" stroke-linejoin="round" stroke-width="1.5"/>
              </g>
              <g id="Group_608" data-name="Group 608" transform="translate(0 23.875)">
                <path id="Path_995" data-name="Path 995" d="M408.574,283.838v10.143l-78.8-45.5V238.342Z" transform="translate(-329.773 -238.342)" fill="#8ac39b" stroke="#8eb44a" stroke-linejoin="round" stroke-width="1.5"/>
              </g>
              <g id="Group_609" data-name="Group 609">
                <path id="Path_996" data-name="Path 996" d="M449.658,266.83l-41.084,23.875-78.8-45.5,41.084-23.875Z" transform="translate(-329.773 -221.334)" fill="#fff" stroke="#8eb44a" stroke-linejoin="round" stroke-width="1.5"/>
              </g>
              <g id="Group_610" data-name="Group 610" transform="translate(5.979 3.463)">
                <path id="Path_997" data-name="Path 997" d="M394.469,253.69a9.648,9.648,0,0,0-8.757,0c-2.412,1.4-2.4,3.675.028,5.075a9.65,9.65,0,0,0,8.762,0C396.915,257.362,396.9,255.09,394.469,253.69Z" transform="translate(-313.893 -212.158)" fill="#8eb44a"/>
                <path id="Path_998" data-name="Path 998" d="M362.772,235.388a9.653,9.653,0,0,0-8.759,0c-2.41,1.4-2.4,3.675.029,5.076a9.659,9.659,0,0,0,8.762,0C365.217,239.06,365.2,236.79,362.772,235.388Z" transform="translate(-326.691 -219.548)" fill="#8eb44a"/>
                <path id="Path_999" data-name="Path 999" d="M369.156,223.8l-35.124,20.412,72.8,42.032,35.123-20.412ZM367,227.167a4.88,4.88,0,0,1,4.43,0c1.228.71,1.235,1.856.014,2.566a4.88,4.88,0,0,1-4.43,0A1.357,1.357,0,0,1,367,227.167Zm-22.718,18.351a4.88,4.88,0,0,1-4.43,0c-1.225-.707-1.237-1.856-.014-2.566a4.89,4.89,0,0,1,4.429,0A1.356,1.356,0,0,1,344.281,245.518Zm64.713,37.361a4.88,4.88,0,0,1-4.43,0c-1.23-.71-1.237-1.857-.015-2.567a4.885,4.885,0,0,1,4.43,0A1.356,1.356,0,0,1,408.993,282.879Zm3.175-3.9a11.836,11.836,0,0,0-10.75,0l-54.834-31.657c2.965-1.721,2.949-4.506-.034-6.227l17.27-10.037a11.838,11.838,0,0,0,10.753,0L429.4,262.72c-2.963,1.721-2.948,4.506.034,6.228Zm23.987-11.89a4.9,4.9,0,0,1-4.432,0,1.357,1.357,0,0,1-.013-2.567,4.88,4.88,0,0,1,4.43,0A1.356,1.356,0,0,1,436.156,267.094Z" transform="translate(-334.032 -223.801)" fill="#8eb44a"/>
                <path id="Path_1000" data-name="Path 1000" d="M389.416,241.895c-6.687-3.862-17.493-3.862-24.137,0s-6.614,10.124.072,13.984,17.5,3.859,24.144,0S396.1,245.757,389.416,241.895Zm-6.8,7.7a5.947,5.947,0,0,0-2.124-2.4,1.844,1.844,0,0,0-1.788-.212c-1.687.983,4.461,3.419.941,5.465a6.836,6.836,0,0,1-6.136-.139l-2.1,1.224-1.852-1.068,2.159-1.255a4.811,4.811,0,0,1-1.9-2.793l2.879-.547a4.344,4.344,0,0,0,2.08,2.9A2.167,2.167,0,0,0,376.9,251c1.725-1-4.5-3.4-1.042-5.406a6.584,6.584,0,0,1,5.6-.056l2.064-1.2,1.852,1.068-2,1.158a5.857,5.857,0,0,1,2.118,2.445Z" transform="translate(-323.42 -217.665)" fill="#8eb44a"/>
              </g>
            </g>
            <g id="Group_613" data-name="Group 613" transform="translate(51.898 29.967)">
              <path id="Path_1001" data-name="Path 1001" d="M407.827,242.682l-41.084,23.875,14.584,8.42L422.411,251.1Z" transform="translate(-366.743 -242.682)" fill="#fff" stroke="#8eb44a" stroke-linejoin="round" stroke-width="1.5"/>
              <g id="Group_612" data-name="Group 612" transform="translate(1.974 1.139)">
                <path id="Path_1002" data-name="Path 1002" d="M415.05,246.852l-41.084,23.875,2.47,1.426,41.086-23.875Z" transform="translate(-365.801 -242.138)" fill="#8eb44a"/>
                <path id="Path_1003" data-name="Path 1003" d="M409.233,243.494l-41.084,23.875,2.47,1.426L411.7,244.92Z" transform="translate(-368.149 -243.494)" fill="#8eb44a"/>
              </g>
              <path id="Path_1004" data-name="Path 1004" d="M366.743,259.69v10.138l14.584,8.42V268.11Z" transform="translate(-366.743 -235.815)" fill="#e8f5d1" stroke="#8eb44a" stroke-linejoin="round" stroke-width="1.5"/>
              <path id="Path_1005" data-name="Path 1005" d="M370.619,272.068l-2.47-1.426V260.5l2.47,1.426Z" transform="translate(-366.176 -235.487)" fill="#8eb44a"/>
              <path id="Path_1006" data-name="Path 1006" d="M376.436,275.427,373.966,274V263.86l2.47,1.426Z" transform="translate(-363.827 -234.131)" fill="#8eb44a"/>
            </g>
          </g>
          <g id="Group_622" data-name="Group 622" transform="translate(12.293 26.778)">
            <g id="Group_619" data-name="Group 619">
              <g id="Group_615" data-name="Group 615" transform="translate(79.017 43.459)">
                <path id="Path_1007" data-name="Path 1007" d="M433.412,244.751v10.143l-41.2,24.937V269.689Z" transform="translate(-392.216 -244.751)" fill="#8ac39b" stroke="#8eb44a" stroke-linejoin="round" stroke-width="1.5"/>
              </g>
              <g id="Group_616" data-name="Group 616" transform="translate(0 24.937)">
                <path id="Path_1008" data-name="Path 1008" d="M414.943,275.016v10.143L335.926,241.7V231.557Z" transform="translate(-335.926 -231.557)" fill="#8ac39b" stroke="#8eb44a" stroke-linejoin="round" stroke-width="1.5"/>
              </g>
              <g id="Group_617" data-name="Group 617">
                <path id="Path_1009" data-name="Path 1009" d="M456.139,257.251l-41.2,24.937-79.017-43.459,41.2-24.937Z" transform="translate(-335.926 -213.792)" fill="#fff" stroke="#8eb44a" stroke-linejoin="round" stroke-width="1.5"/>
              </g>
              <g id="Group_618" data-name="Group 618" transform="translate(5.996 3.462)">
                <path id="Path_1010" data-name="Path 1010" d="M400.8,245.279a9.7,9.7,0,0,0-8.78.223c-2.419,1.463-2.406,3.737.028,5.074a9.716,9.716,0,0,0,8.786-.226C403.251,248.887,403.232,246.617,400.8,245.279Z" transform="translate(-320.005 -204.922)" fill="#8eb44a"/>
                <path id="Path_1011" data-name="Path 1011" d="M369.015,227.8a9.707,9.707,0,0,0-8.782.225c-2.417,1.463-2.4,3.735.028,5.075a9.719,9.719,0,0,0,8.787-.227C371.467,231.4,371.449,229.135,369.015,227.8Z" transform="translate(-332.838 -211.98)" fill="#8eb44a"/>
                <path id="Path_1012" data-name="Path 1012" d="M375.416,216.258,340.2,237.578l73,40.151,35.22-21.32Zm-2.163,3.422a4.911,4.911,0,0,1,4.443-.114c1.232.678,1.239,1.823.014,2.565a4.912,4.912,0,0,1-4.441.115C372.04,221.571,372.035,220.419,373.253,219.68Zm-22.78,18.938a4.906,4.906,0,0,1-4.443.115c-1.227-.675-1.238-1.825-.013-2.566a4.925,4.925,0,0,1,4.441-.115C351.692,236.732,351.695,237.88,350.473,238.618Zm64.889,35.689a4.908,4.908,0,0,1-4.441.115c-1.234-.678-1.239-1.823-.015-2.566a4.912,4.912,0,0,1,4.441-.114C416.574,272.417,416.581,273.57,415.363,274.307Zm3.185-3.978a11.91,11.91,0,0,0-10.781.278l-54.983-30.238c2.972-1.8,2.958-4.583-.034-6.228l17.317-10.482a11.909,11.909,0,0,0,10.782-.278l54.98,30.239c-2.97,1.8-2.955,4.582.035,6.227ZM442.6,257.82a4.919,4.919,0,0,1-4.443.115c-1.234-.678-1.235-1.828-.014-2.566a4.91,4.91,0,0,1,4.443-.115C443.812,255.931,443.824,257.079,442.6,257.82Z" transform="translate(-340.198 -216.258)" fill="#8eb44a"/>
                <path id="Path_1013" data-name="Path 1013" d="M395.732,233.7c-6.706-3.688-17.54-3.408-24.2.623s-6.633,10.3.073,13.984,17.548,3.405,24.21-.627S402.439,237.386,395.732,233.7Zm-6.812,7.874a5.712,5.712,0,0,0-2.131-2.346,1.841,1.841,0,0,0-1.793-.167c-1.692,1.026,4.472,3.3.943,5.441a6.869,6.869,0,0,1-6.153.02l-2.111,1.277-1.857-1.019,2.167-1.311a4.646,4.646,0,0,1-1.909-2.744l2.888-.622a4.2,4.2,0,0,0,2.087,2.843,2.169,2.169,0,0,0,2.135.187c1.731-1.047-4.51-3.281-1.044-5.379a6.629,6.629,0,0,1,5.618-.2l2.068-1.252,1.857,1.021-2,1.21a5.633,5.633,0,0,1,2.122,2.389Z" transform="translate(-329.558 -210.264)" fill="#8eb44a"/>
              </g>
            </g>
            <g id="Group_621" data-name="Group 621" transform="translate(52.039 28.626)">
              <path id="Path_1014" data-name="Path 1014" d="M414.194,234.184,373,259.122l14.624,8.043,41.2-24.937Z" transform="translate(-372.998 -234.184)" fill="#fff" stroke="#8eb44a" stroke-linejoin="round" stroke-width="1.5"/>
              <g id="Group_620" data-name="Group 620" transform="translate(1.979 1.088)">
                <path id="Path_1015" data-name="Path 1015" d="M421.437,238.168l-41.2,24.937,2.477,1.363,41.2-24.937Z" transform="translate(-372.053 -233.664)" fill="#8eb44a"/>
                <path id="Path_1016" data-name="Path 1016" d="M415.6,234.96l-41.2,24.937,2.476,1.362,41.2-24.937Z" transform="translate(-374.408 -234.96)" fill="#8eb44a"/>
              </g>
              <path id="Path_1017" data-name="Path 1017" d="M373,251.949v10.138l14.624,8.044V259.992Z" transform="translate(-372.998 -227.012)" fill="#e8f5d1" stroke="#8eb44a" stroke-linejoin="round" stroke-width="1.5"/>
              <path id="Path_1018" data-name="Path 1018" d="M376.884,264.227l-2.476-1.362v-10.14l2.476,1.362Z" transform="translate(-372.429 -226.699)" fill="#8eb44a"/>
              <path id="Path_1019" data-name="Path 1019" d="M382.717,267.435l-2.477-1.363V255.932l2.477,1.363Z" transform="translate(-370.074 -225.404)" fill="#8eb44a"/>
            </g>
          </g>
          <g id="Group_630" data-name="Group 630" transform="translate(0 15.235)">
            <g id="Group_627" data-name="Group 627">
              <g id="Group_623" data-name="Group 623" transform="translate(75.483 50.813)">
                <path id="Path_1020" data-name="Path 1020" d="M424.269,241.767l-.7,10.119-42.63,20.991.7-10.119Z" transform="translate(-380.941 -241.767)" fill="#e8f5d1" stroke="#8eb44a" stroke-linejoin="round" stroke-width="1.5"/>
              </g>
              <g id="Group_624" data-name="Group 624" transform="translate(0 20.991)">
                <g id="Path_1021" data-name="Path 1021" transform="translate(-327.169 -220.522)" fill="#e8f5d1" stroke-linejoin="round">
                  <path d="M 403.3103332519531 282.8017272949219 L 402.2326354980469 282.0762634277344 L 326.7497863769531 231.2634124755859 L 326.3905944824219 231.0215911865234 L 326.4203796386719 230.5896148681641 L 327.1187133789063 220.4703826904297 L 327.2081604003906 219.1744232177734 L 328.2857666015625 219.8998565673828 L 403.7680053710938 270.7127380371094 L 404.127197265625 270.9545288085938 L 404.097412109375 271.386474609375 L 403.3996887207031 281.5057067871094 L 403.3103332519531 282.8017272949219 Z" stroke="none"/>
                  <path d="M 402.6514587402344 281.4541015625 L 403.3491821289063 271.3348999023438 L 327.866943359375 220.5220184326172 L 327.1686096191406 230.6412506103516 L 402.6514587402344 281.4541015625 M 402.6515808105469 282.9541015625 C 402.3579406738281 282.9541015625 402.0657043457031 282.8679809570313 401.8138122558594 282.6984252929688 L 326.3309631347656 231.8855743408203 C 325.8864135742188 231.5863189697266 325.6352844238281 231.0726165771484 325.6721801757813 230.5379943847656 L 326.3705139160156 220.4187622070313 C 326.4074096679688 219.8841247558594 326.7267150878906 219.4098052978516 327.2081604003906 219.1744384765625 C 327.4168090820313 219.0724182128906 327.6422119140625 219.0220184326172 327.8668212890625 219.0220184326172 C 328.1604614257813 219.0220184326172 328.4527282714844 219.1081390380859 328.70458984375 219.2776947021484 L 404.1868286132813 270.090576171875 C 404.6313781738281 270.3898315429688 404.8825073242188 270.9034729003906 404.8456420898438 271.4380798339844 L 404.1478881835938 281.5572814941406 C 404.1110229492188 282.0919189453125 403.791748046875 282.5662841796875 403.310302734375 282.8016662597656 C 403.1016235351563 282.9036865234375 402.8761901855469 282.9541015625 402.6515808105469 282.9541015625 Z" stroke="none" fill="#8eb44a"/>
                </g>
              </g>
              <g id="Group_625" data-name="Group 625" transform="translate(0.698)">
                <path id="Path_1022" data-name="Path 1022" d="M445.779,256.382l-42.63,20.991-75.482-50.813,42.63-20.991Z" transform="translate(-327.666 -205.569)" fill="#fff" stroke="#8eb44a" stroke-linejoin="round" stroke-width="1.5"/>
              </g>
              <g id="Group_626" data-name="Group 626" transform="translate(6.663 3.457)">
                <path id="Path_1023" data-name="Path 1023" d="M391.224,240.172a9.643,9.643,0,0,0-8.736-.605c-2.5,1.231-2.646,3.5-.321,5.065a9.658,9.658,0,0,0,8.743.6C393.411,244,393.549,241.737,391.224,240.172Z" transform="translate(-312.293 -195.61)" fill="#8eb44a"/>
                <path id="Path_1024" data-name="Path 1024" d="M360.862,219.731a9.655,9.655,0,0,0-8.737-.605c-2.5,1.232-2.646,3.5-.321,5.066a9.657,9.657,0,0,0,8.742.6C363.049,223.563,363.186,221.3,360.862,219.731Z" transform="translate(-324.553 -203.863)" fill="#8eb44a"/>
                <path id="Path_1025" data-name="Path 1025" d="M368.362,208.031l-36.447,17.945,69.737,46.945L438.1,254.976Zm-2.385,3.21a4.88,4.88,0,0,1,4.42.3c1.178.793,1.1,1.937-.163,2.56a4.88,4.88,0,0,1-4.419-.3A1.356,1.356,0,0,1,365.977,211.241ZM342.05,227.984a4.873,4.873,0,0,1-4.42-.3,1.357,1.357,0,0,1,.163-2.562,4.9,4.9,0,0,1,4.419.306A1.356,1.356,0,0,1,342.05,227.984Zm61.986,41.728a4.877,4.877,0,0,1-4.419-.3c-1.178-.793-1.106-1.936.161-2.56a4.878,4.878,0,0,1,4.42.306A1.356,1.356,0,0,1,404.036,269.711Zm3.436-3.668a11.838,11.838,0,0,0-10.725-.74l-52.524-35.356c3.074-1.515,3.253-4.293.394-6.216l17.92-8.824a11.837,11.837,0,0,0,10.726.741l52.522,35.356c-3.074,1.513-3.25,4.293-.394,6.216Zm24.749-10.209a4.893,4.893,0,0,1-4.422-.3,1.357,1.357,0,0,1,.164-2.562,4.879,4.879,0,0,1,4.419.3C433.556,254.062,433.49,255.209,432.222,255.834Z" transform="translate(-331.915 -208.031)" fill="#8eb44a"/>
                <path id="Path_1026" data-name="Path 1026" d="M387.122,227.855c-6.405-4.312-17.185-5.056-24.08-1.662s-7.3,9.645-.89,13.956,17.192,5.055,24.087,1.661S393.53,232.168,387.122,227.855Zm-7.308,7.211a5.946,5.946,0,0,0-1.954-2.541,1.848,1.848,0,0,0-1.77-.335c-1.75.865,4.215,3.719.563,5.518a6.843,6.843,0,0,1-6.112-.561l-2.184,1.075-1.774-1.193,2.242-1.1a4.813,4.813,0,0,1-1.706-2.917l2.91-.348a4.34,4.34,0,0,0,1.877,3.032,2.17,2.17,0,0,0,2.108.389c1.79-.882-4.253-3.7-.667-5.466a6.586,6.586,0,0,1,5.593.33l2.139-1.054,1.773,1.195-2.069,1.018a5.853,5.853,0,0,1,1.944,2.584Z" transform="translate(-321.546 -201.558)" fill="#8eb44a"/>
              </g>
            </g>
            <g id="Group_629" data-name="Group 629" transform="translate(49.712 33.469)">
              <path id="Path_1027" data-name="Path 1027" d="M405.709,229.411,363.079,250.4l13.97,9.4,42.63-20.99Z" transform="translate(-362.382 -229.411)" fill="#fff" stroke="#8eb44a" stroke-linejoin="round" stroke-width="1.5"/>
              <g id="Group_628" data-name="Group 628" transform="translate(2.588 1.273)">
                <path id="Path_1028" data-name="Path 1028" d="M412.629,234.069,370,255.06l2.366,1.593L415,235.662Z" transform="translate(-362.177 -228.804)" fill="#8eb44a"/>
                <path id="Path_1029" data-name="Path 1029" d="M407.056,230.318l-42.63,20.99,2.366,1.593,42.629-20.99Z" transform="translate(-364.426 -230.318)" fill="#8eb44a"/>
              </g>
              <path id="Path_1030" data-name="Path 1030" d="M363.28,244.365l-.7,10.114,13.97,9.4.7-10.114Z" transform="translate(-362.582 -223.374)" fill="#e8f5d1" stroke="#8eb44a" stroke-linejoin="round" stroke-width="1.5"/>
              <path id="Path_1031" data-name="Path 1031" d="M366.295,256.98l-2.366-1.593.7-10.116,2.366,1.593Z" transform="translate(-362.039 -223.008)" fill="#8eb44a"/>
              <path id="Path_1032" data-name="Path 1032" d="M371.867,260.73l-2.366-1.593.7-10.115,2.366,1.593Z" transform="translate(-359.789 -221.494)" fill="#8eb44a"/>
            </g>
          </g>
          <g id="Group_638" data-name="Group 638" transform="translate(1.532)">
            <g id="Group_635" data-name="Group 635">
              <g id="Group_631" data-name="Group 631" transform="translate(80.655 42.123)">
                <path id="Path_1033" data-name="Path 1033" d="M425.754,224.723l.429,10.134-40.038,25.591-.428-10.134Z" transform="translate(-385.717 -224.723)" fill="#e8f5d1" stroke="#8eb44a" stroke-linejoin="round" stroke-width="1.5"/>
              </g>
              <g id="Group_632" data-name="Group 632" transform="translate(0 25.592)">
                <path id="Path_1034" data-name="Path 1034" d="M408.915,255.069l.428,10.134L328.688,223.08l-.429-10.134Z" transform="translate(-328.26 -212.946)" fill="#8ac39b" stroke="#8eb44a" stroke-linejoin="round" stroke-width="1.5"/>
              </g>
              <g id="Group_633" data-name="Group 633">
                <path id="Path_1035" data-name="Path 1035" d="M448.952,236.838l-40.037,25.591L328.26,220.307,368.3,194.715Z" transform="translate(-328.26 -194.715)" fill="#fff" stroke="#8eb44a" stroke-linejoin="round" stroke-width="1.5"/>
              </g>
              <g id="Group_634" data-name="Group 634" transform="translate(5.974 3.46)">
                <path id="Path_1036" data-name="Path 1036" d="M393.5,225.622a9.645,9.645,0,0,0-8.748.368c-2.351,1.5-2.242,3.772.241,5.069a9.655,9.655,0,0,0,8.755-.371C396.1,229.187,395.989,226.919,393.5,225.622Z" transform="translate(-312.108 -186.05)" fill="#8eb44a"/>
                <path id="Path_1037" data-name="Path 1037" d="M361.061,208.677a9.648,9.648,0,0,0-8.75.368c-2.35,1.5-2.242,3.773.243,5.07a9.66,9.66,0,0,0,8.755-.371C363.66,212.242,363.545,209.975,361.061,208.677Z" transform="translate(-325.208 -192.892)" fill="#8eb44a"/>
                <path id="Path_1038" data-name="Path 1038" d="M366.745,197.18l-34.229,21.879,74.515,38.916L441.26,236.1Zm-2.013,3.453a4.884,4.884,0,0,1,4.426-.187c1.258.658,1.313,1.8.122,2.563a4.878,4.878,0,0,1-4.426.187A1.357,1.357,0,0,1,364.732,200.633Zm-21.922,19.3a4.879,4.879,0,0,1-4.426.188,1.357,1.357,0,0,1-.122-2.565,4.893,4.893,0,0,1,4.425-.187A1.356,1.356,0,0,1,342.81,219.929Zm66.234,34.591a4.876,4.876,0,0,1-4.426.188c-1.258-.657-1.312-1.8-.124-2.563a4.879,4.879,0,0,1,4.426-.187A1.356,1.356,0,0,1,409.044,254.52Zm3.008-4.026a11.829,11.829,0,0,0-10.74.455l-56.123-29.31c2.888-1.846,2.755-4.627-.3-6.221l16.831-10.757a11.839,11.839,0,0,0,10.743-.455l56.12,29.31c-2.888,1.844-2.753,4.627.3,6.221ZM435.516,237.6a4.9,4.9,0,0,1-4.427.188,1.357,1.357,0,0,1-.122-2.565,4.879,4.879,0,0,1,4.426-.187A1.356,1.356,0,0,1,435.516,237.6Z" transform="translate(-332.516 -197.18)" fill="#8eb44a"/>
                <path id="Path_1039" data-name="Path 1039" d="M387.881,214.188c-6.845-3.575-17.641-3.118-24.116,1.021s-6.181,10.395.664,13.969,17.648,3.115,24.123-1.023S394.727,217.763,387.881,214.188Zm-6.463,7.977a5.926,5.926,0,0,0-2.225-2.308,1.836,1.836,0,0,0-1.794-.136c-1.645,1.053,4.6,3.227,1.171,5.42a6.84,6.84,0,0,1-6.136.121l-2.052,1.311-1.9-.99,2.1-1.343a4.81,4.81,0,0,1-2.019-2.711l2.854-.67a4.336,4.336,0,0,0,2.2,2.8,2.17,2.17,0,0,0,2.139.153c1.68-1.075-4.638-3.2-1.27-5.358a6.584,6.584,0,0,1,5.6-.292l2.01-1.286,1.894.99-1.943,1.241a5.865,5.865,0,0,1,2.218,2.353Z" transform="translate(-321.785 -191.286)" fill="#8ac39b"/>
              </g>
            </g>
            <g id="Group_637" data-name="Group 637" transform="translate(53.118 27.746)">
              <path id="Path_1040" data-name="Path 1040" d="M406.138,214.481,366.1,240.073l14.927,7.8,40.038-25.59Z" transform="translate(-366.1 -214.481)" fill="#fff" stroke="#8eb44a" stroke-linejoin="round" stroke-width="1.5"/>
              <g id="Group_636" data-name="Group 636" transform="translate(2.02 1.055)">
                <path id="Path_1041" data-name="Path 1041" d="M413.531,218.342l-40.038,25.592,2.529,1.321,40.039-25.592Z" transform="translate(-365.136 -213.977)" fill="#8eb44a"/>
                <path id="Path_1042" data-name="Path 1042" d="M407.577,215.233l-40.038,25.591,2.528,1.321L410.1,216.553Z" transform="translate(-367.539 -215.233)" fill="#8eb44a"/>
              </g>
              <path id="Path_1043" data-name="Path 1043" d="M366.1,232.712l.429,10.129,14.927,7.8-.429-10.13Z" transform="translate(-366.1 -207.12)" fill="#e8f5d1" stroke="#8eb44a" stroke-linejoin="round" stroke-width="1.5"/>
              <path id="Path_1044" data-name="Path 1044" d="M370.5,244.915l-2.529-1.321-.428-10.131,2.528,1.321Z" transform="translate(-365.519 -206.817)" fill="#8eb44a"/>
              <path id="Path_1045" data-name="Path 1045" d="M376.45,248.024l-2.528-1.321-.429-10.13,2.529,1.321Z" transform="translate(-363.116 -205.562)" fill="#8eb44a"/>
            </g>
          </g>
        </g>
      </g>
    </g>
  </g>
</svg>
