<svg xmlns="http://www.w3.org/2000/svg" width="200" height="40" viewBox="0 0 200 40">
    <g fill="none" fill-rule="evenodd">
        <g fill-rule="nonzero">
            <g>
                <g>
                    <g>
                        <path fill="#003E92" d="M39.681 37.31c.122-1.26.168-2.527.138-3.792 0-2.01-.073-3.76-.218-5.25l-.008-.077c0-.077.077-.12.219-.13.103-.008.51-.039 1.228-.108.503-.042.906-.065 1.224-.065.088 0 .135.08.135.226 0 .18-.012.43-.038.725-.027.373-.046.614-.05.73-.027.463-.039 1.101-.039 1.9 0 .145.039.214.116.214.041-.002.079-.022.104-.053.433-.456 1.042-.7 1.67-.672.925-.047 1.818.342 2.414 1.051.564.733.85 1.643.805 2.568.03.904-.272 1.788-.848 2.487-.583.697-1.455 1.087-2.364 1.059h-2.066c-.5.009-1.002-.008-1.5-.05m4.225-3.57c.01-.367-.118-.725-.36-1.001-.236-.271-.582-.42-.941-.406-.36-.018-.707.132-.94.406-.23.288-.351.648-.342 1.017-.018.365.1.724.334 1.005.242.276.597.427.964.41.365.015.717-.14.951-.422.23-.284.35-.643.334-1.008zM58.618 34.565c.04.973-.315 1.92-.986 2.626-1.014 1.06-2.576 1.389-3.932.828-1.356-.562-2.228-1.898-2.197-3.365-.042-.983.302-1.943.96-2.675.676-.699 1.62-1.07 2.59-1.021.96-.04 1.894.324 2.575 1.001.67.698 1.028 1.64.99 2.606zm-2.303.008c.003-.363-.12-.716-.348-.998-.211-.28-.544-.441-.895-.434-.359-.005-.7.159-.92.442-.456.583-.456 1.4 0 1.984.22.284.56.448.92.441.357.006.694-.158.91-.441.224-.282.342-.634.333-.994zM70.032 37.854c.005.055-.014.109-.051.15-.037.04-.09.062-.144.062-.342.031-.686.043-1.029.034-.368.01-.736-.004-1.101-.042-.135-.027-.227-.153-.211-.29 0-.222.011-.556.023-1.006.011-.449.019-.786.019-1.013 0-.174-.004-.438-.012-.775-.007-.348-.015-.614-.015-.787 0-.64-.28-.963-.84-.963-.232.016-.454.099-.639.238-.264.174-.398.357-.398.53v3.818c.008.064-.01.129-.052.178-.042.049-.103.078-.167.08-.334.03-.67.042-1.006.035-.357.008-.715-.006-1.07-.043-.061-.001-.12-.027-.16-.072-.042-.045-.063-.105-.059-.166 0-.365 0-.917.008-1.662.007-.745.004-1.297.004-1.67.026-.932-.07-1.863-.284-2.77-.01-.034-.016-.07-.016-.104-.006-.07.037-.134.104-.154.295-.035.695-.088 1.19-.161.744-.146 1.166-.219 1.258-.219.054 0 .097.161.127.476.03.315.069.48.123.48-.05 0 .203-.165.76-.49.436-.289.94-.458 1.462-.492.529-.02 1.05.13 1.489.426.44.31.694.824.672 1.363V35.1c0 .304.004.765.011 1.374.008.61.004 1.068.004 1.38zM81.278 38.111l-3.537.031c-.911.033-1.788-.355-2.376-1.052-.581-.707-.883-1.603-.848-2.517-.035-.922.263-1.825.84-2.545.592-.704 1.476-1.094 2.395-1.056.627-.035 1.236.218 1.654.687.069.08.116.123.145.123.03 0 .058-.069.058-.188 0-.364-.007-.91-.026-1.631-.02-.722-.024-1.263-.024-1.627 0-.135.035-.215.116-.232.29-.015.706-.043 1.232-.085.42-.032.836-.09 1.248-.174.095 0 .15.062.15.174 0-.1-.016.058-.059.472-.045.522-.084 1.194-.11 2.011-.04.921-.055 1.971-.055 3.151-.02 1.199.034 2.397.165 3.589m-2.594-2.729c.002-.367-.138-.72-.391-.985-.234-.273-.577-.43-.936-.427-.354-.01-.692.148-.91.427-.232.286-.355.645-.348 1.013-.013.357.112.706.348.975.217.279.553.44.906.434.364.003.711-.154.948-.43.248-.274.386-.63.385-1l-.002-.007zM89.173 34.811c0 .348.007.852.023 1.532.015.69.027 1.197.027 1.535 0 .103-.062.16-.18.18-.36.037-.722.051-1.083.042-.364.01-.728-.005-1.09-.042-.104-.02-.169-.05-.188-.092-.015-.07-.02-.143-.015-.215 0-.327.008-.818.027-1.466.019-.65.023-1.144.023-1.474.012-1.068-.04-2.136-.158-3.197-.011-.077-.019-.126-.019-.15 0-.092.066-.138.188-.138.204.002.408.015.61.039.269.026.472.045.611.045s.341-.015.614-.038c.272-.022.476-.038.614-.038.111 0 .169.05.169.138-.002.048-.007.095-.016.142-.113 1.062-.166 2.13-.157 3.197zm.174-5.265c0 .821-.46 1.235-1.382 1.235-.352.014-.697-.097-.975-.314-.273-.227-.43-.565-.426-.92.003-.354.165-.689.441-.911.272-.217.612-.331.96-.322.347-.006.684.112.952.334.275.215.434.547.429.897zM100.925 37.854c0 .127-.062.192-.196.212-.342.032-.686.043-1.029.034-.366.01-.733-.004-1.097-.042-.137-.024-.23-.152-.211-.29 0-.222.004-.556.019-1.006.015-.449.023-.786.023-1.013 0-.174-.007-.438-.015-.775-.008-.348-.016-.614-.016-.787 0-.64-.28-.963-.84-.963-.232.015-.455.098-.641.238-.27.174-.4.357-.4.53v3.818c.01.064-.01.129-.051.178-.042.05-.103.078-.167.08-.335.03-.67.042-1.006.035-.359.008-.718-.006-1.075-.043-.06-.002-.118-.028-.159-.073-.041-.045-.063-.104-.06-.165 0-.365 0-.917.008-1.662.008-.745.008-1.297.008-1.67.026-.932-.07-1.863-.284-2.77-.01-.034-.015-.07-.015-.104-.006-.07.037-.134.103-.154.296-.035.696-.088 1.186-.161.749-.146 1.171-.219 1.267-.219.05 0 .092.161.119.476.027.315.073.48.127.48-.05 0 .203-.165.76-.49.438-.29.943-.458 1.466-.492.53-.02 1.053.13 1.493.426.441.31.694.824.672 1.363V35.1c0 .304 0 .765.004 1.374.004.61.007 1.068.007 1.38zM112.657 36.22c0 1.347-.284 2.306-.844 2.894-.587.594-1.554.898-2.906.898-.544-.018-1.086-.082-1.62-.192-.869-.161-1.308-.353-1.308-.564 0-.088.103-.553.299-1.386.03-.138.088-.2.153-.2l.077.027c.623.326 1.312.507 2.015.53.353-.003.7-.09 1.013-.253.406-.204.603-.457.603-.76v-.47c-.503.461-1.169.704-1.85.676-.834.022-1.634-.329-2.184-.956-1.093-1.3-1.108-3.193-.035-4.51.545-.616 1.338-.956 2.161-.927.64-.03 1.25.262 1.628.78.073.103.126.153.153.153.05 0 .066-.088.066-.257 0-.38.045-.572.134-.572.077 0 .484.038 1.228.119.744.08 1.132.123 1.16.13.078.028.127.106.118.188 0 .322-.015.812-.038 1.45-.023.652-.038 1.136-.038 1.461 0 .196.003.484.007.87s.008.675.008.87zm-2.444-1.966c.006-.326-.116-.643-.338-.882-.221-.244-.535-.382-.864-.38-.328.001-.64.142-.86.387-.224.244-.346.564-.341.895-.002.329.122.646.348.886.22.239.531.374.856.372.33.007.647-.133.864-.384.223-.244.343-.565.335-.896v.002zM132.335 33.49c0 .116-.058.174-.18.174-.404.007-.808-.008-1.21-.045.016.357.031.852.043 1.485.003.265.023.733.058 1.397.035.599.054 1.067.054 1.401 0 .104-.07.161-.2.174-.157.02-.553.03-1.186.03-.346.01-.692-.005-1.036-.042-.144-.016-.247-.146-.232-.29V33.88c0-.135-.1-.204-.29-.204l-.161.008-.157.007c-.135 0-.204-.042-.204-.116-.055-.6-.08-1.204-.073-1.807-.012-.162.107-.303.269-.319.16-.015.322-.03.487-.035-.019-.383-.035-.68-.035-.89-.052-.626.116-1.25.476-1.765.626-.734 1.628-1.098 3.025-1.098.084 0 .145.031.165.088l.165.945c.008.042.038.174.092.4.037.132.06.268.07.405 0 .116-.166.196-.496.227-.254-.003-.502.07-.713.21-.184.295-.264.642-.227.986-.002.147.008.293.03.438.135 0 .338-.008.619-.015.28-.008.483-.015.625-.015.142 0 .207.054.207.157 0 .222.004.56.008 1.002.003.44.007.78.007 1.002zM144.26 34.565c.041.972-.313 1.92-.983 2.626-1.014 1.06-2.575 1.39-3.931.829-1.356-.562-2.227-1.899-2.194-3.366-.043-.982.298-1.942.952-2.675.678-.698 1.623-1.07 2.594-1.021.96-.038 1.893.325 2.575 1.001.671.698 1.028 1.64.987 2.606zm-2.303.008c.003-.363-.12-.716-.348-.998-.211-.281-.546-.443-.898-.434-.358-.003-.699.16-.92.442-.446.586-.446 1.397 0 1.984.22.283.561.446.92.441.358.008.698-.156.914-.441.224-.282.342-.634.333-.994zM153.107 33.632c0 .185-.1.273-.308.273-.084 0-.21-.008-.387-.015-.177-.008-.3-.02-.388-.02-.278-.029-.558.036-.795.185-.171.208-.249.477-.215.744 0 .204.004.511.012.928.007.417.007.722.007.927 0 .135.012.342.03.61.02.27.027.473.027.607 0 .112-.08.174-.231.192-.227.02-.572.027-1.036.027-.446 0-.806-.016-1.071-.042-.15-.024-.232-.096-.232-.232 0-.38.003-.945.008-1.697.004-.751.004-1.32.004-1.7.024-.923-.08-1.846-.311-2.74-.008-.034-.013-.069-.015-.104-.002-.069.044-.13.111-.146.257-.027.638-.08 1.14-.154.748-.146 1.128-.222 1.155-.222.08 0 .127.153.157.453.02.303.062.452.116.452-.061 0 .127-.123.583-.376.393-.236.84-.366 1.298-.376.272 0 .4.054.4.168-.004.193-.016.385-.039.576-.023.277-.042.469-.042.583 0 .135 0 .32.004.545.01.282.018.466.018.554zM164.362 34.197c0 .469-.154.741-.453.806-.054.011-.537.061-1.455.142-.552.061-1.373.134-2.471.21.07.325.291.596.594.73.29.138.607.207.928.204.44-.008.871-.126 1.255-.342.174-.116.353-.226.53-.338.215.204.387.45.502.722.164.254.281.535.348.829 0 .034-.034.08-.103.165-.718.672-1.687 1.01-2.667.928-.996.045-1.969-.31-2.702-.986-.72-.694-1.106-1.665-1.06-2.664-.038-.978.3-1.934.945-2.67.658-.724 1.602-1.118 2.58-1.08.87-.013 1.706.348 2.294.991.613.628.95 1.475.935 2.353zm-2.456-.438c.003-.285-.108-.56-.308-.763-.186-.212-.455-.332-.737-.33-.29-.003-.565.134-.736.369-.18.228-.276.512-.27.802 0 .123.07.188.2.188.544-.017 1.086-.068 1.623-.154.152-.023.225-.059.225-.112h.003zM175.712 33.137c.023.476-.002.953-.076 1.424-.259.604-.584 1.177-.971 1.708-.373.558-.775 1.096-1.205 1.612-.123.142-.495.223-1.113.223-.35.012-.698-.007-1.044-.058-.096-.02-.183-.07-.25-.142-.434-.506-.834-1.041-1.197-1.6-.392-.523-.728-1.085-1.002-1.678-.14-.475-.2-.97-.18-1.466 0-.184.004-.46.008-.833.003-.372.011-.649.011-.837 0-.122.077-.184.242-.184.242 0 .602.004 1.086.02.483.014.837.022 1.078.022.108 0 .161.073.161.223 0 .13-.004.33-.026.595-.023.265-.027.468-.027.602 0 .491.012.898.042 1.205.081.325.22.632.41.906.27.469.461.703.588.703.116 0 .3-.232.552-.687.182-.268.32-.563.406-.875.04-.405.06-.811.058-1.218 0-.138-.019-.341-.042-.614-.023-.272-.046-.483-.046-.614 0-.146.054-.218.15-.218.11 0 .28 0 .506.007.227.008.388.008.507.008s.284-.012.507-.03c.232-.016.405-.031.514-.031.113-.002.212.074.238.184.1.542.14 1.093.115 1.643zM186.942 34.197c0 .469-.15.741-.46.806-.046.011-.534.061-1.45.142-.56.061-1.382.134-2.475.21.073.323.292.592.591.73.29.137.607.206.928.204.44-.008.872-.125 1.255-.342.174-.116.357-.226.533-.338.215.203.384.449.495.722.167.253.287.534.353.829 0 .034-.034.08-.107.165-.718.672-1.687 1.008-2.666.928-.997.043-1.97-.311-2.707-.986-.717-.695-1.103-1.665-1.059-2.664-.04-.979.3-1.936.948-2.67.656-.724 1.6-1.119 2.575-1.08.873-.012 1.71.348 2.3.991.616.627.957 1.474.946 2.353zm-2.456-.438c.004-.286-.108-.561-.31-.763-.187-.212-.456-.332-.738-.33-.29-.002-.564.135-.737.369-.18.228-.275.512-.268.802-.005.053.015.105.053.141.038.037.09.054.143.047.545-.017 1.089-.068 1.627-.154.153-.023.23-.059.23-.112z" transform="translate(-1105.000000, -3877.000000) translate(135.000000, 3634.000000) translate(0.000000, 212.000000) translate(970.000000, 31.000000)"/>
                        <g>
                            <path fill="#FFF" d="M10.374 24.843c-.165-.93-.17-1.881-.012-2.813.146-.174-.13-1.028-.783-.372-.2.2-1.42 2.349.795 3.188" transform="translate(-1105.000000, -3877.000000) translate(135.000000, 3634.000000) translate(0.000000, 212.000000) translate(970.000000, 31.000000) translate(0.000000, 0.871304)"/>
                            <path fill="#FFF" d="M25.6 21.798c1.745-.1 3.469-.432 5.127-.985v-1.071c-2.207.746-4.525 1.114-6.855 1.09-.263.763-.875 1.354-1.646 1.592-.265 1.789-1.516 1.724-1.646 1.693-.223-.027-.232.066-.273.161-.064.485-.342.916-.759 1.173-.416.257-.926.313-1.388.152-.306.689-1.027 1.094-1.773.998-1.276 1.585-2.395.453-2.795.215-2.153.277-2.782-.948-2.893-1.228-2.203-.219-2.276-1.888-2.238-2.407-.96-.202-1.7-.97-1.866-1.938-.848-.237-3.983-.821-4.811-1.109-.603-.15-1.198-.333-1.781-.548v1.07c.48.165 1.128.38 1.52.464.549.184 1.746.441 2.905.68.358.084.706.165.945.226v13.137c.123-.057.241-.11.368-.165l.41-.16V22.33c.352.583.873 1.045 1.494 1.323.05.404.176.795.372 1.152.463.78 1.255 1.308 2.153 1.435.197.297.45.553.745.754.322.228.688.389 1.075.472v5.948h.004l.621-.065h.008v-5.78c.25.019.502.019.753 0 .402.31.878.51 1.382.58.758.051 1.498-.254 2-.826.615-.024 1.198-.282 1.63-.721v6.774l.406.05c.073.007.146.03.223.038l-.008-7.077c.178-.022.354-.06.526-.112.664-.24 1.185-.766 1.42-1.432.352-.047.687-.177.979-.38.509-.373.867-.916 1.01-1.53.6-.307 1.097-.784 1.427-1.371.138 0 .29-.004.46-.008v13.38l.208.084c.196.076.372.174.56.257V21.798z" transform="translate(-1105.000000, -3877.000000) translate(135.000000, 3634.000000) translate(0.000000, 212.000000) translate(970.000000, 31.000000) translate(0.000000, 0.871304)"/>
                            <path fill="#FFF" d="M12.788 26.049c-.465-1.039-.717-2.16-.74-3.297-.1-.837-.834-.63-.907-.073-.159.685-.146 1.398.039 2.076.16.88 1.255 1.52 1.608 1.294M8.5 21.988c.087-.203.118-.414-.297-.763-.231-.265-.878-.372-.706.272.12.242.534.87 1.002.491M13.552 12.796c2.057-.545 4.425.15 5.27.3.48.087 1.385.164 1.439.164.733.07.894.29.978.36.438.285.511.17.653.124 1.593-.522 6.755-3.152 8.839-4.299V8.301c-1.72.948-7.319 3.758-9.02 4.334-.395-.298-.874-.467-1.369-.484l-.03-.004h-.02c-.107-.007-.91-.076-1.324-.15l-.483-.095c-1.12-.232-3.213-.675-5.132-.174-.69.13-1.318.484-1.788 1.006C6.518 11.51.22 7.468.155 7.43L0 7.326v1.163c1.366.87 7.242 4.494 11.932 5.477.34-.61.934-1.037 1.62-1.167" transform="translate(-1105.000000, -3877.000000) translate(135.000000, 3634.000000) translate(0.000000, 212.000000) translate(970.000000, 31.000000) translate(0.000000, 0.871304)"/>
                            <path fill="#FFF" d="M21.243 14.373c-.368-.26-.816-.383-1.266-.347-.321.045-.65.003-.948-.123-3.98-.94-4.863-.534-5.255-.464-1.136.222-1.136.568-1.174.695-.082.502-.32.965-.68 1.325-.521.463-.322.583-.226.652 1.543.649 2.69-.753 3.093-1.14 1.578-.004 3.05.796 3.903 2.123.513.916 1.206 1.717 2.039 2.356.694.505 1.18 1.246 1.366 2.084.652-.244 1.146-.786 1.328-1.458 2.489.149 4.98-.24 7.305-1.14l.004-8.82c-2.276 1.263-7.33 3.839-8.026 4.165-.983.56-1.17.231-1.462.088" transform="translate(-1105.000000, -3877.000000) translate(135.000000, 3634.000000) translate(0.000000, 212.000000) translate(970.000000, 31.000000) translate(0.000000, 0.871304)"/>
                            <path fill="#FFF" d="M9.059 20.925c1.496-.687 2.053.338 2.099.71 1.236-.49 1.558.507 1.539.745.042.702.18 1.604.196 1.704.072.497.253.972.53 1.391.3.448.733.79 1.239.975.802.37.833-.237.675-.51-.427-.672-.818-1.366-1.17-2.08-.319-.722.483-.696.696-.215.27.533.578 1.046.92 1.536.142.333.452.564.812.603.44.026.856-.472.575-.852-.314-.453-.652-.995-.771-1.102-.25-.265-.455-.57-.607-.902-.303-.687.358-.86.626-.384.123.153.234.315.334.484.36.625.875 1.163 1.04 1.431.556.754 1.082.388 1.22.307.197-.126.325-.335.348-.568-.112-.462-.323-.894-.62-1.266-.265-.43-.657-1.006-.71-1.09-.326-.374-.425-.895-.258-1.362.204-.48.595-.338.638.012.008.236.056.47.142.69.343.655.75 1.273 1.217 1.846.104.108.146.211.348.284.634-.012 1.173-.466 1.293-1.09.019-.565-.174-1.118-.54-1.55-.513-.638-1.086-1.224-1.712-1.75-.23-.188-.42-.417-.564-.676-.249-.457-.54-.89-.87-1.293-.517-.541-1.189-.91-1.923-1.056-.284-.087-.583-.118-.879-.092-.69.628-1.557 1.026-2.483 1.14-1.313.196-1.55-.56-1.6-.645-.139-.395.253-.763.375-.902.269-.205.476-.48.6-.794C7.138 13.73 1.365 10.386.003 9.572v9.135c2.278.952 4.69 1.55 7.15 1.773 1.328-.599 1.719.188 1.907.445" transform="translate(-1105.000000, -3877.000000) translate(135.000000, 3634.000000) translate(0.000000, 212.000000) translate(970.000000, 31.000000) translate(0.000000, 0.871304)"/>
                            <path fill="#002581" d="M8.202 21.224c.414.348.384.56.295.764-.468.38-.883-.249-1.001-.49-.174-.645.472-.538.706-.273m1.378.434c.652-.657.927.199.783.372-.158.931-.154 1.883.011 2.813-2.214-.836-.994-2.986-.794-3.188m1.562 1.02c.073-.556.806-.764.906.074.024 1.137.276 2.258.741 3.296-.353.227-1.45-.414-1.608-1.293-.185-.678-.198-1.392-.038-2.076M6.595 21.24c.166.968.905 1.736 1.865 1.938-.038.518.034 2.188 2.238 2.407.111.28.74 1.507 2.894 1.228.4.238 1.516 1.37 2.794-.215.746.097 1.468-.308 1.774-.996.462.161.972.106 1.39-.151.416-.257.695-.687.759-1.173.038-.095.05-.187.272-.16.13.03 1.382.095 1.647-1.693.771-.239 1.382-.83 1.646-1.593 2.33.024 4.647-.344 6.855-1.09v-.802c-2.325.9-4.816 1.288-7.305 1.14-.182.671-.676 1.214-1.328 1.458-.186-.838-.672-1.58-1.366-2.084-.832-.639-1.526-1.44-2.038-2.356-.854-1.328-2.326-2.128-3.904-2.123-.405.384-1.55 1.789-3.093 1.14-.096-.069-.296-.188.227-.653.36-.36.597-.822.68-1.324.037-.13.037-.476 1.174-.696.391-.069 1.275-.475 5.254.464.3.126.627.169.948.123.45-.035.898.088 1.267.348.29.146.48.472 1.462-.088.695-.327 5.75-2.902 8.025-4.164V9.45c-2.084 1.148-7.246 3.777-8.839 4.299-.142.046-.215.161-.652-.123-.085-.073-.246-.29-.979-.36-.054 0-.96-.077-1.44-.166-.844-.15-3.212-.844-5.269-.299-.686.13-1.279.558-1.62 1.167C7.243 12.986 1.367 9.362.001 8.491v1.086c1.362.812 7.135 4.157 11.81 5.032-.123.315-.33.59-.599.794-.123.138-.514.507-.376.903.05.084.29.84 1.6.644.926-.113 1.794-.512 2.484-1.14.296-.026.595.006.879.093.734.145 1.406.514 1.923 1.055.33.403.62.836.87 1.294.143.258.334.488.563.675.626.526 1.2 1.113 1.712 1.75.367.432.56.985.541 1.55-.12.624-.659 1.078-1.293 1.09-.2-.072-.242-.173-.348-.283-.467-.573-.874-1.192-1.217-1.846-.087-.22-.135-.454-.142-.691-.043-.348-.434-.491-.638-.012-.167.467-.069.988.257 1.363.054.084.445.66.71 1.09.3.37.513.803.626 1.266-.023.233-.151.442-.348.568-.138.08-.664.445-1.22-.307-.165-.268-.68-.806-1.04-1.431-.1-.17-.211-.331-.334-.484-.27-.476-.928-.303-.626.384.152.332.357.636.607.902.119.107.457.649.771 1.101.28.38-.134.88-.575.853-.36-.04-.67-.27-.812-.603-.343-.49-.65-1.005-.921-1.539-.215-.48-1.017-.507-.696.215.353.714.743 1.408 1.17 2.08.158.273.128.879-.675.51-.506-.185-.94-.526-1.24-.974-.276-.42-.457-.894-.529-1.391-.015-.1-.154-1.002-.196-1.705.02-.237-.303-1.236-1.539-.744-.046-.372-.602-1.397-2.1-.71-.187-.258-.579-1.044-1.906-.446-2.46-.223-4.872-.82-7.15-1.773v.879c.583.215 1.177.398 1.78.549.83.29 3.965.87 4.812 1.109" transform="translate(-1105.000000, -3877.000000) translate(135.000000, 3634.000000) translate(0.000000, 212.000000) translate(970.000000, 31.000000) translate(0.000000, 0.871304)"/>
                            <path fill="#CB0017" d="M4.426 21.8c-1.16-.238-2.357-.495-2.906-.68-.391-.084-1.04-.299-1.52-.463v17.885h.03c1.568-1.43 3.375-2.573 5.34-3.377V22.027c-.238-.062-.588-.142-.945-.227" transform="translate(-1105.000000, -3877.000000) translate(135.000000, 3634.000000) translate(0.000000, 212.000000) translate(970.000000, 31.000000) translate(0.000000, 0.871304)"/>
                            <path fill="#FFF" d="M16.757 27.323c-.502.572-1.241.877-2 .825-.503-.07-.98-.27-1.381-.58-.251.02-.503.02-.754 0v5.78c.098-.01.197-.015.296-.015v-5.296c.123 0 .245 0 .372-.011.42.315.912.517 1.432.587.817.064 1.618-.253 2.168-.86.43-.038.843-.179 1.206-.41v6.01l.142.008.15.015V26.6c-.433.44-1.016.697-1.632.722M24.372 21.562c-.33.587-.827 1.064-1.428 1.37-.143.615-.5 1.158-1.01 1.532-.291.202-.627.332-.978.38-.236.665-.757 1.19-1.42 1.43-.172.053-.348.09-.526.112l.007 7.077c.097.015.196.038.29.058-.004-1.627-.007-6.363-.007-6.755.1-.023.21-.05.33-.084.694-.262 1.247-.804 1.523-1.493.342-.063.666-.202.948-.406.529-.404.907-.975 1.075-1.62.555-.313 1.02-.765 1.35-1.312h.015v12.973l.29.111V21.557c-.168.004-.322.007-.46.007" transform="translate(-1105.000000, -3877.000000) translate(135.000000, 3634.000000) translate(0.000000, 212.000000) translate(970.000000, 31.000000) translate(0.000000, 0.871304)"/>
                            <path fill="#CB0017" d="M25.6 35.275c1.87.791 3.59 1.896 5.089 3.266h.038V20.81c-1.658.554-3.382.886-5.128.986v13.478zM11.564 12.73c.47-.521 1.098-.875 1.788-1.005 1.92-.5 4.011-.058 5.132.174l.484.095c.414.073 1.217.142 1.324.15h.019l.03.004c.496.017.974.185 1.37.483 1.7-.575 7.3-3.385 9.02-4.333V0H0v7.323l.154.104c.065.038 6.363 4.08 11.41 5.304" transform="translate(-1105.000000, -3877.000000) translate(135.000000, 3634.000000) translate(0.000000, 212.000000) translate(970.000000, 31.000000) translate(0.000000, 0.871304)"/>
                            <path fill="#FFF" d="M10.916 26.993c-.295-.2-.548-.456-.744-.754-.899-.127-1.69-.655-2.153-1.435-.197-.356-.323-.747-.373-1.151-.622-.278-1.144-.74-1.496-1.324v12.508l.146-.058c.05-.015.103-.027.146-.042L6.446 23.2c.274.285.597.52.952.695.17 1.387 1.23 2.497 2.608 2.729.2.293.449.548.737.754.294.199.616.353.956.456v5.63c.1-.011.191-.042.29-.053v-5.947c-.387-.083-.753-.243-1.075-.472" transform="translate(-1105.000000, -3877.000000) translate(135.000000, 3634.000000) translate(0.000000, 212.000000) translate(970.000000, 31.000000) translate(0.000000, 0.871304)"/>
                            <path fill="#002581" d="M10.743 27.38c-.289-.205-.538-.46-.737-.753-1.378-.232-2.44-1.342-2.609-2.729-.355-.175-.677-.41-.952-.696L6.441 34.74c1.703-.61 3.465-1.035 5.258-1.27v-5.63c-.34-.104-.661-.258-.955-.458M24.529 21.85c-.33.546-.796.999-1.352 1.312-.167.645-.545 1.215-1.074 1.62-.282.204-.606.343-.948.406-.277.689-.83 1.23-1.524 1.493-.119.034-.232.061-.33.084 0 .392.005 5.128.008 6.755 1.781.242 3.53.677 5.217 1.297l.015.004V21.85h-.012z" transform="translate(-1105.000000, -3877.000000) translate(135.000000, 3634.000000) translate(0.000000, 212.000000) translate(970.000000, 31.000000) translate(0.000000, 0.871304)"/>
                            <path fill="#CB0017" d="M16.891 27.752c-.55.607-1.352.925-2.169.86-.52-.07-1.012-.272-1.432-.587-.126.012-.249.012-.372.012v5.296c.799-.073 1.612-.123 2.441-.123.933 0 1.843.058 2.737.142V27.34c-.363.231-.777.372-1.206.41" transform="translate(-1105.000000, -3877.000000) translate(135.000000, 3634.000000) translate(0.000000, 212.000000) translate(970.000000, 31.000000) translate(0.000000, 0.871304)"/>
                        </g>
                        <path fill="#1A1818" d="M187.676 1.077L199.58 1.077 199.58 6.013 195.757 6.013 195.757 19.81 191.51 19.81 191.51 6.013 187.675 6.013zM171.133 19.81L171.133 1.077 175.075 1.077 179.547 11.111 179.547 1.077 183.628 1.077 183.628 19.81 179.57 19.81 175.212 10.023 175.212 19.81zM156.264 19.81L156.264 1.077 166.804 1.077 166.804 5.489 160.376 5.489 160.376 8.128 165.84 8.128 165.84 12.378 160.376 12.378 160.376 15.318 167.059 15.318 167.059 19.809zM137.471 19.81L137.475 1.077 142.621 1.077 144.9 12.779 147.179 1.077 152.316 1.077 152.316 19.81 148.459 19.81 148.459 9.3 146.379 19.81 143.418 19.81 141.312 9.3 141.312 19.81zM122.595 19.81L122.595 1.077 133.136 1.077 133.136 5.489 126.707 5.489 126.707 8.128 132.171 8.128 132.171 12.378 126.707 12.378 126.707 15.318 133.393 15.318 133.393 19.809zM118.45 8.248h-4.02c-.02-.779-.256-1.536-.683-2.188-.336-.491-.894-.785-1.49-.783-.807.033-1.524.527-1.842 1.27-.472.845-.707 2.214-.706 4.107-.036 1 .066 1.999.303 2.97.145.57.435 1.092.84 1.516.365.335.846.514 1.34.5.622.015 1.21-.28 1.57-.787.441-.693.682-1.494.696-2.314h4.076c-.058.99-.217 1.973-.472 2.932-.257.848-.65 1.649-1.163 2.372-.502.751-1.167 1.38-1.946 1.838-.801.448-1.708.675-2.625.656-.953.01-1.893-.212-2.74-.644-.835-.42-1.554-1.037-2.096-1.797-.594-.814-1.05-1.719-1.352-2.68-.46-1.512-.685-3.087-.663-4.668-.009-1.372.158-2.74.495-4.071.27-1.122.727-2.19 1.35-3.16.488-.77 1.134-1.426 1.897-1.926.885-.543 1.905-.825 2.943-.812.915-.006 1.818.203 2.637.61.822.402 1.524 1.014 2.034 1.774.555.824.967 1.736 1.217 2.698.219.847.353 1.713.4 2.587M83.128 11.635h3.765v.982c-.02.665.017 1.33.111 1.988.047.309.178.599.38.837.161.173.388.27.625.268.33-.009.63-.197.78-.49.238-.474.346-1.003.31-1.532V1.04h4.241v11.812c0 2.437-.442 4.283-1.328 5.538-.847 1.238-2.274 1.95-3.773 1.88-.756.03-1.51-.118-2.198-.433-.455-.25-.865-.574-1.213-.96-.407-.438-.74-.94-.986-1.485-.285-.656-.47-1.352-.545-2.064-.125-1.228-.18-2.462-.168-3.697M57.379 19.772L57.379 1.039 61.505 1.039 61.505 7.224 65.345 1.039 70.35 1.039 65.603 8.086 70.824 19.772 65.746 19.772 62.637 12.314 61.506 13.926 61.506 19.773zM74.77 1.039H79.03V19.772000000000002H74.77z" transform="translate(-1105.000000, -3877.000000) translate(135.000000, 3634.000000) translate(0.000000, 212.000000) translate(970.000000, 31.000000)"/>
                        <g fill="#1A1818">
                            <path d="M4.744 18.733l.472-2.448H9.46l.495 2.448h4.226L9.548 0H5.215L.577 18.733h4.167zm3.972-6.294h-2.71L7.35 5.626l1.366 6.813z" transform="translate(-1105.000000, -3877.000000) translate(135.000000, 3634.000000) translate(0.000000, 212.000000) translate(970.000000, 31.000000) translate(39.067246, 1.040000)"/>
                        </g>
                        <path fill="#003E92" d="M195.87 33.632c0 .185-.1.273-.308.273-.088 0-.215-.008-.387-.015-.172-.008-.303-.02-.388-.02-.278-.029-.558.036-.795.185-.17.208-.248.477-.215.744 0 .204.004.511.012.928.008.417.008.722.008.927 0 .135.011.342.03.61.02.27.027.473.027.607 0 .112-.077.174-.232.192-.227.02-.572.027-1.036.027-.446 0-.799-.016-1.071-.042-.15-.024-.227-.096-.227-.232 0-.38 0-.945.004-1.697.004-.751.008-1.32.008-1.7.022-.923-.083-1.845-.311-2.74-.009-.034-.013-.069-.012-.104-.005-.066.037-.127.1-.146.261-.027.645-.08 1.144-.154.744-.146 1.132-.222 1.16-.222.08 0 .13.153.157.453.015.303.054.452.119.452-.073 0 .126-.123.575-.376.396-.236.845-.366 1.305-.376.261 0 .396.054.396.168-.003.193-.016.385-.039.576-.023.277-.042.469-.045.583 0 .135.004.32.011.545.006.282.01.466.01.554z" transform="translate(-1105.000000, -3877.000000) translate(135.000000, 3634.000000) translate(0.000000, 212.000000) translate(970.000000, 31.000000)"/>
                    </g>
                </g>
            </g>
        </g>
    </g>
</svg>
