<svg xmlns="http://www.w3.org/2000/svg" xmlns:xlink="http://www.w3.org/1999/xlink" width="200" height="102" viewBox="0 0 200 102">
    <defs>
        <path id="ik3cj4x4la" d="M0 100.568L199.556 100.568 199.556 0.199 0 0.199z"/>
    </defs>
    <g fill="none" fill-rule="evenodd">
        <g>
            <g>
                <g>
                    <g>
                        <g>
                            <path fill="#1A1818" d="M3.27 91.392L0 100.74h2.3l.615-1.899h3.264l.615 1.9h2.363L5.89 91.391H3.27zm1.276 2.391l1.09 3.35H3.46l1.085-3.35zM15.865 91.392L12.706 95.624 12.706 91.392 10.421 91.392 10.421 100.742 12.707 100.742 12.707 97.689 13.238 96.994 15.873 100.74 18.67 100.74 15.039 95.722 18.499 91.392zM19.406 91.394L19.406 93.052 20.846 93.052 20.846 99.073 19.406 99.073 19.406 100.74 24.578 100.74 24.578 99.073 23.126 99.073 23.126 93.052 24.578 93.052 24.578 91.394z" transform="translate(-779.000000, -3846.000000) translate(135.000000, 3634.000000) translate(0.000000, 212.000000) translate(644.000000, 0.000000) translate(0.000000, -0.000000)"/>
                            <g transform="translate(-779.000000, -3846.000000) translate(135.000000, 3634.000000) translate(0.000000, 212.000000) translate(644.000000, 0.000000) translate(0.000000, -0.000000) translate(0.000000, 0.368750)">
                                <path fill="#1A1818" d="M31.047 97.622c.001.395-.07.787-.211 1.155-.132.347-.345.657-.623.903-.302.274-.657.483-1.043.617-.492.15-1.003.22-1.517.208-.39 0-.788-.017-1.142-.049-.323-.02-.643-.064-.959-.13V98.44h.219c.195.078.386.14.594.212.257.069.523.098.788.09.328.022.656-.037.956-.17.211-.107.381-.28.484-.492.09-.215.14-.444.146-.676.017-.24.024-.553.024-.939v-3.716h-2.02v-1.723h4.306l-.002 6.597zM43.68 92.833L39.61 92.833 39.61 94.565 43.375 94.565 43.375 96.37 39.61 96.37 39.61 100.371 37.338 100.371 37.338 91.023 43.68 91.023zM50.823 98.062c.23-.298.398-.64.497-1.004.11-.447.163-.906.154-1.367.011-.483-.049-.965-.179-1.43-.103-.344-.267-.666-.484-.952-.183-.235-.422-.422-.695-.54-.259-.119-.54-.178-.825-.177-.281 0-.56.057-.817.168-.271.12-.51.302-.696.532-.227.286-.393.615-.487.968-.247.936-.25 1.92-.008 2.858.099.346.26.671.475.96.188.233.427.42.7.544.263.115.546.175.833.175.291.002.579-.06.842-.184.275-.12.513-.31.69-.552zm3.025-2.362c.066 1.29-.366 2.559-1.207 3.54-1.886 1.763-4.815 1.763-6.701 0-1.599-2.096-1.599-5.004 0-7.102 1.888-1.746 4.8-1.746 6.689 0 .852.985 1.29 2.261 1.219 3.562zM61.159 98.062c.233-.297.401-.639.496-1.004.11-.447.164-.906.158-1.367.012-.483-.05-.966-.184-1.43-.095-.348-.26-.671-.484-.952-.18-.236-.418-.422-.69-.54-.26-.117-.542-.178-.826-.177-.281 0-.56.057-.817.168-.27.12-.508.303-.695.532-.23.284-.395.615-.485.968-.131.468-.193.953-.184 1.44-.011.48.051.958.184 1.419.098.343.253.668.46.959.192.231.431.417.703.545.263.114.547.173.834.175.288 0 .575-.063.837-.184.275-.121.513-.312.693-.553zm3.029-2.362c.064 1.293-.37 2.56-1.216 3.54-1.881 1.763-4.807 1.763-6.688 0-1.621-2.09-1.621-5.012 0-7.102 1.884-1.747 4.796-1.747 6.68 0 .854.984 1.293 2.26 1.224 3.562zM71.926 95.68c.01-.542-.102-1.078-.326-1.57-.213-.442-.564-.801-1-1.025-.226-.123-.47-.21-.724-.252-.363-.05-.731-.07-1.098-.061h-.573v5.843h.573c.399.01.798-.017 1.191-.078.265-.053.517-.15.749-.288.4-.232.717-.585.903-1.008.219-.49.323-1.025.305-1.562m2.358.029c.01.812-.188 1.613-.578 2.325-.326.644-.812 1.194-1.412 1.597-.438.272-.922.463-1.427.565-.6.124-1.213.183-1.826.175h-3.118v-9.346h3.211c.625-.014 1.25.05 1.859.191 1.195.255 2.209 1.038 2.756 2.13.37.732.553 1.543.535 2.363M84.151 93.126c.008-.18-.028-.358-.105-.52-.05-.116-.13-.215-.231-.29-.083-.067-.183-.11-.29-.122-.082-.02-.167-.028-.251-.028-.076-.002-.152.007-.224.028-.103.024-.2.07-.284.134-.094.065-.17.151-.22.252-.074.142-.107.3-.099.46.009.264.11.518.285.715.226.256.472.493.737.708.213-.164.388-.372.513-.61.111-.226.169-.475.169-.727zm.887 5.391L82.52 96.14c-.117.13-.213.279-.284.438-.107.23-.16.48-.156.733-.006.249.047.495.156.72.092.19.22.36.377.5.156.132.336.233.53.296.182.062.372.096.565.101.24.006.48-.023.711-.085.228-.061.44-.172.619-.325zm4.704 1.854h-2.825l-.825-.798c-.389.325-.834.574-1.313.737-.485.166-.993.249-1.505.245-.928.057-1.845-.228-2.58-.798-.84-.76-1.148-1.948-.784-3.021.093-.254.226-.492.394-.703.15-.203.332-.382.537-.528.182-.137.372-.262.569-.375-.166-.13-.326-.264-.48-.406-.144-.14-.273-.298-.381-.468-.112-.162-.195-.342-.246-.532-.064-.214-.096-.436-.094-.66.001-.284.06-.567.175-.828.133-.263.312-.5.53-.7.298-.23.637-.401 1-.504.474-.148.97-.218 1.468-.207.434-.007.868.044 1.29.155.339.08.66.223.947.422.232.171.425.39.565.643.12.249.183.522.184.798-.005.212-.032.424-.081.63-.052.236-.151.459-.293.655-.171.235-.378.44-.614.61-.314.22-.661.39-1.03.5l1.81 1.683v-2.005h2.216v.695c.002.484-.08.964-.246 1.42-.135.415-.355.796-.646 1.121l2.26 2.082-.002.137zM100.008 97.465c.015-.24-.042-.478-.163-.683-.14-.18-.337-.306-.557-.362-.239-.063-.486-.093-.732-.09h-1.48v2.326h.175c.634 0 1.089 0 1.37-.008.262 0 .521-.056.76-.163.21-.078.386-.228.496-.423.09-.186.133-.392.13-.598zm-.557-3.799c-.004-.16-.04-.32-.106-.467-.086-.16-.225-.283-.394-.349-.2-.066-.408-.1-.618-.102-.246-.004-.594-.007-1.037-.007h-.22v1.972h.355c.358 0 .667-.004.92-.02.207.003.411-.04.599-.126.18-.063.325-.196.406-.368.064-.17.095-.349.095-.53v-.003zm2.923 3.835c.008.42-.081.835-.26 1.215-.159.348-.4.651-.704.883-.341.27-.733.47-1.15.59-.517.131-1.049.194-1.582.183H94.81v-9.349h3.428c.524-.01 1.048.017 1.57.082.343.05.675.16.982.325.316.165.58.415.76.723.157.326.236.683.232 1.044.01.421-.105.836-.33 1.192-.235.354-.568.631-.959.799v.048c.528.103 1.01.369 1.378.76.354.42.534.958.504 1.505zM110.469 100.371L104.065 100.371 104.065 91.023 110.469 91.023 110.469 92.832 106.335 92.832 106.335 94.443 110.173 94.443 110.173 96.248 106.335 96.248 106.335 98.55 110.469 98.55zM120.394 91.023L117.174 100.371 114.62 100.371 111.391 91.023 113.782 91.023 115.921 97.577 118.059 91.023zM128.058 100.371L121.662 100.371 121.662 91.023 128.058 91.023 128.058 92.832 123.931 92.832 123.931 94.443 127.761 94.443 127.761 96.248 123.931 96.248 123.931 98.55 128.058 98.55zM134.926 93.886c.009-.21-.036-.418-.13-.606-.111-.179-.277-.317-.472-.395-.174-.068-.358-.108-.545-.117-.195-.012-.443-.02-.72-.02h-.82v2.508h.7c.308.006.616-.014.92-.061.225-.027.438-.112.619-.246.142-.117.257-.264.337-.43.082-.2.12-.416.111-.633zm3.565 6.485h-2.793l-2.403-3.432h-1.056v3.432h-2.273v-9.348h3.827c.452-.004.904.029 1.351.098.374.06.73.198 1.049.402.325.203.597.48.793.81.202.388.301.822.288 1.26.033.593-.125 1.181-.45 1.678-.336.465-.78.841-1.294 1.094l2.961 4.006zM144.132 96.765l-1.093-3.35-1.074 3.35h2.167zm3.513 3.606h-2.354l-.614-1.898h-3.269l-.61 1.898h-2.304l3.265-9.347h2.622l3.264 9.347zM156.743 99.83c-.512.201-1.038.366-1.574.49-.639.158-1.294.239-1.951.24-1.309.073-2.588-.397-3.538-1.3-.89-.974-1.35-2.266-1.272-3.583-.059-1.295.406-2.56 1.29-3.509.957-.923 2.257-1.404 3.585-1.325.56-.004 1.117.052 1.663.167.613.14 1.203.361 1.757.658v2.187h-.252l-.488-.378c-.197-.147-.404-.282-.618-.403-.25-.148-.52-.265-.798-.35-.319-.097-.65-.146-.983-.146-.369-.002-.736.063-1.081.191-.702.26-1.247.825-1.48 1.536-.158.427-.233.881-.22 1.338-.058.86.219 1.712.772 2.374.619.58 1.45.878 2.297.82.098.002.197-.002.294-.012.097 0 .195-.007.288-.016v-1.825h-1.768V95.21h4.082l-.005 4.619zM165.183 100.371L158.787 100.371 158.787 91.023 165.183 91.023 165.183 92.832 161.044 92.832 161.044 94.443 164.878 94.443 164.878 96.248 161.044 96.248 161.044 98.55 165.183 98.55zM177.617 100.371L171.246 100.371 171.246 91.023 173.527 91.023 173.527 98.55 177.617 98.55zM185.908 92.833L183.144 92.833 183.144 100.371 180.867 100.371 180.867 92.833 178.11 92.833 178.11 91.023 185.905 91.023zM193.279 95.68c.013-.542-.098-1.08-.326-1.57-.344-.67-.98-1.141-1.72-1.277-.361-.051-.727-.071-1.093-.062h-.581v5.843h.581c.398.01.794-.017 1.187-.077.26-.052.51-.15.737-.289.407-.226.728-.58.911-1.009.219-.49.322-1.023.304-1.56m2.358.029c.015.81-.18 1.612-.565 2.325-.553 1.129-1.607 1.93-2.842 2.163-.602.124-1.215.183-1.83.175h-3.122v-9.347h3.212c.628-.014 1.254.05 1.866.191.465.105.91.287 1.313.54.608.4 1.105.947 1.444 1.59.36.735.54 1.544.524 2.363"/>
                                <mask id="ja1n45tbab" fill="#fff">
                                    <use xlink:href="#ik3cj4x4la"/>
                                </mask>
                                <path fill="#1A1818" d="M197.332 100.37L199.556 100.37 199.556 97.898 197.332 97.898z" mask="url(#ja1n45tbab)"/>
                                <path fill="#004A9C" d="M99.771 81.216L30.914 34.247 99.771 0.2 168.643 34.248z" mask="url(#ja1n45tbab)"/>
                                <path fill="#6298D1" d="M99.772 73.684L38.383 23.392 99.772 4.259 161.169 23.392z" mask="url(#ja1n45tbab)"/>
                                <path fill="#004A9C" d="M139.531 41.777L139.531 41.765 137.345 41.765 137.345 18.469 128.775 18.469 128.775 49.357 150.794 49.357 150.794 41.777z" mask="url(#ja1n45tbab)"/>
                                <path stroke="#004A9C" stroke-width=".521" d="M139.531 41.777L139.531 41.765 137.345 41.765 137.345 18.469 128.775 18.469 128.775 49.357 150.794 49.357 150.794 41.777z" mask="url(#ja1n45tbab)"/>
                                <path fill="#004A9C" d="M69.317 18.469L59.899 18.469 49.477 49.357 58.246 49.357 59.627 44.26 69.34 44.26 70.721 49.357 79.703 49.357z" mask="url(#ja1n45tbab)"/>
                                <path stroke="#004A9C" stroke-width=".521" d="M69.317 18.469L59.899 18.469 49.477 49.357 58.246 49.357 59.627 44.26 69.34 44.26 70.721 49.357 79.703 49.357z" mask="url(#ja1n45tbab)"/>
                                <path fill="#004A9C" d="M80.105 49.357L88.723 49.357 88.723 36.738 99.488 36.738 99.488 30.484 88.723 30.484 88.723 25.12 101.324 25.12 101.324 18.469 80.105 18.469z" mask="url(#ja1n45tbab)"/>
                                <path stroke="#004A9C" stroke-width=".521" d="M80.105 49.357L88.723 49.357 88.723 36.738 99.488 36.738 99.488 30.484 88.723 30.484 88.723 25.12 101.324 25.12 101.324 18.469 80.105 18.469z" mask="url(#ja1n45tbab)"/>
                                <path fill="#004A9C" d="M126.56 35.671c-1.105-1.4-2.665-2.37-4.411-2.744 1.168-.4 2.2-1.116 2.984-2.07.073-.077.126-.162.192-.245.911-1.301 1.383-2.86 1.345-4.449.048-1.91-.627-3.77-1.89-5.204-.086-.097-.176-.184-.265-.288-1.427-1.474-3.493-2.204-6.172-2.204h-16.076v30.89H117.1c1.291-.07 2.578-.214 3.854-.429 1.143-.102 2.252-.444 3.255-1.004 1.172-.75 2.123-1.798 2.756-3.037.685-1.333 1.03-2.815 1.008-4.314v-.004c.065-1.741-.43-3.458-1.412-4.898" mask="url(#ja1n45tbab)"/>
                                <path stroke="#004A9C" stroke-width=".521" d="M126.56 35.671c-1.105-1.4-2.665-2.37-4.411-2.744 1.168-.4 2.2-1.116 2.984-2.07.073-.077.126-.162.192-.245.911-1.301 1.383-2.86 1.345-4.449.048-1.91-.627-3.77-1.89-5.204-.086-.097-.176-.184-.265-.288-1.427-1.474-3.493-2.204-6.172-2.204h-16.076v30.89H117.1c1.291-.07 2.578-.214 3.854-.429 1.143-.102 2.252-.444 3.255-1.004 1.172-.75 2.123-1.798 2.756-3.037.685-1.333 1.03-2.815 1.008-4.314v-.004c.065-1.741-.43-3.458-1.412-4.898z" mask="url(#ja1n45tbab)"/>
                                <path fill="#FFF" d="M70.722 49.23h8.981L69.32 18.335h-9.417L49.477 49.231h8.77l1.382-5.098h9.71l1.383 5.098zm-9.26-11.794l3.03-11.092 3.032 11.092h-6.062zM80.105 18.334L101.324 18.334 101.324 24.981 88.723 24.981 88.723 30.353 99.488 30.353 99.488 36.599 88.723 36.599 88.723 49.23 80.105 49.23zM110.94 36.332h4.353c1.512 0 2.557.264 3.167.825.599.573.923 1.375.89 2.204.046.875-.288 1.728-.915 2.341-.597.582-1.642.879-3.118.879h-4.379l.002-6.25zm-8.673 12.899H117.1c1.292-.074 2.579-.217 3.854-.43 1.145-.107 2.254-.454 3.256-1.016 1.172-.746 2.125-1.792 2.756-3.03.685-1.333 1.032-2.814 1.008-4.313.062-1.744-.433-3.463-1.412-4.907-1.105-1.4-2.666-2.368-4.41-2.737 1.163-.405 2.195-1.119 2.983-2.065 1.038-1.345 1.58-3.006 1.535-4.705.056-2.043-.722-4.022-2.154-5.48-1.428-1.475-3.493-2.216-6.173-2.216h-16.075V49.23zm8.673-24.641h3.789c1.301 0 2.22.256 2.749.764.542.563.824 1.326.78 2.106.055.82-.227 1.627-.78 2.236-.53.508-1.468.76-2.806.76h-3.732V24.59zM128.775 18.334L137.345 18.334 137.345 41.641 150.795 41.641 150.795 49.229 128.775 49.229z" mask="url(#ja1n45tbab)"/>
                                <path fill="#1A1818" d="M149.034 58.234v-1.785h.626c.102-.002.205.005.307.02.087.02.17.054.245.102.104.078.197.17.277.272.097.126.236.317.39.562l.537.83h.695l-.723-1.09c-.126-.199-.276-.38-.448-.541-.1-.077-.21-.144-.325-.2.324-.022.632-.153.87-.373.187-.195.286-.455.277-.724.006-.213-.052-.424-.167-.605-.102-.176-.26-.313-.45-.387-.272-.086-.555-.123-.839-.11h-1.817v4.033l.545-.004zm.003-3.58h1.293c.238-.02.476.045.67.185.136.116.213.288.208.467.01.275-.167.523-.43.602-.19.054-.385.078-.581.073h-1.163v-1.33l.003.004z" mask="url(#ja1n45tbab)"/>
                                <path fill="#1A1818" d="M150.017 59.323c-1.702-.034-3.054-1.441-3.02-3.143.033-1.702 1.44-3.054 3.142-3.02 1.675.032 3.016 1.397 3.02 3.073-.01 1.718-1.413 3.102-3.13 3.09h-.012zm.053-6.701c-1.998.037-3.587 1.687-3.549 3.684.037 1.997 1.687 3.586 3.684 3.55 1.974-.038 3.553-1.65 3.55-3.624-.02-2.014-1.67-3.63-3.685-3.61z" mask="url(#ja1n45tbab)"/>
                            </g>
                        </g>
                    </g>
                </g>
            </g>
        </g>
    </g>
</svg>
