<svg xmlns="http://www.w3.org/2000/svg" width="193" height="101" viewBox="0 0 193 101">
    <g fill="none" fill-rule="evenodd">
        <g fill-rule="nonzero">
            <g>
                <g>
                    <g>
                        <g fill="#1A1818">
                            <g>
                                <g>
                                    <g>
                                        <g>
                                            <path d="M3.611 9.573l-.828 3.013H0L3.611.768h3.493l3.67 11.818h-2.9l-.888-3.013H3.61zm3.02-2.01l-.77-2.481c-.178-.71-.414-1.596-.592-2.305-.178.71-.355 1.596-.592 2.305l-.71 2.482H6.63zM12.55.768h2.665v5.2h.06c.236-.473.532-.886.769-1.3l2.723-3.9h3.256l-3.907 5.023 4.144 6.795h-3.138l-2.9-5.081-1.007 1.24v3.841h-2.664V.768zM26.167.768L26.167 12.586 23.503 12.586 23.503.768zM30.963.768h2.664v7.446c0 3.368-1.598 4.55-4.203 4.55-.652 0-1.303-.119-1.954-.296l.296-2.127c.414.118.888.236 1.362.236 1.124 0 1.835-.532 1.835-2.363V.768zM39.843 9.81c.947.472 1.954.708 2.96.708 1.244 0 1.895-.532 1.895-1.3 0-.709-.533-1.123-2.013-1.654-1.954-.65-3.256-1.773-3.256-3.487 0-2.009 1.658-3.545 4.44-3.545 1.066 0 2.072.177 3.02.59l-.593 2.128c-.77-.355-1.598-.59-2.486-.59-1.184 0-1.717.53-1.717 1.122 0 .768.651 1.063 2.19 1.654 2.073.769 3.079 1.891 3.079 3.546 0 2.009-1.54 3.663-4.795 3.663-1.184 0-2.31-.236-3.316-.709l.592-2.127zM52.098.768L52.098 5.318 56.479 5.318 56.479.768 59.143.768 59.143 12.586 56.479 12.586 56.479 7.623 52.098 7.623 52.098 12.586 49.434 12.586 49.434.768zM64.353.768L64.353 12.586 61.689 12.586 61.689.768zM66.84.945C68.024.768 69.208.71 70.45.71c1.659 0 2.843.296 3.612.946.83.65 1.303 1.654 1.303 2.718.059 1.063-.355 2.068-1.125 2.836-1.066.886-2.487 1.36-3.848 1.241-.296 0-.592 0-.888-.06v4.196H66.84V.946zm2.664 5.378c.296.059.592.059.888.059 1.42 0 2.309-.71 2.309-1.95 0-1.064-.77-1.714-2.072-1.714-.356 0-.71 0-1.066.118l-.06 3.487zM77.2.945C78.384.768 79.627.71 80.811.71c1.658 0 2.842.296 3.612.946.829.65 1.302 1.654 1.302 2.718.06 1.063-.355 2.068-1.065 2.836-1.066.886-2.428 1.36-3.849 1.241-.296 0-.592 0-.947-.06v4.196H77.2V.946zm2.664 5.378c.296.059.592.059.888.059 1.421 0 2.309-.71 2.309-1.95 0-1.064-.77-1.714-2.072-1.714-.355 0-.77 0-1.125.118v3.487zM90.284.768L90.284 12.586 87.56 12.586 87.56.768zM92.77 12.586V.768h3.138l2.427 4.314c.77 1.3 1.362 2.659 1.954 4.077h.06c-.178-1.654-.238-3.25-.238-4.904V.768h2.428v11.818h-2.783l-2.546-4.55c-.77-1.359-1.48-2.718-2.072-4.195h-.059c.06 1.536.119 3.25.119 5.14v3.546l-2.428.06zM114.912 12.055c-1.302.413-2.605.65-3.967.65-2.13 0-3.73-.532-4.795-1.596-1.125-1.123-1.717-2.718-1.658-4.314 0-3.9 2.901-6.145 6.75-6.145 1.124-.06 2.25.177 3.256.59l-.592 2.128c-.889-.354-1.836-.532-2.783-.532-2.25 0-3.907 1.241-3.907 3.841 0 2.423 1.539 3.9 3.73 3.9.473 0 .887-.059 1.302-.177V7.918h-1.835V5.85h4.38l.119 6.205zM120.891.768L123.556.768 123.556 10.341 128.292 10.341 128.292 12.586 120.891 12.586zM132.732.768L132.732 12.586 130.068 12.586 130.068.768zM135.218 12.586V.768h3.138l2.487 4.314c.71 1.3 1.361 2.659 1.953 4.077h.06c-.178-1.654-.237-3.25-.237-4.904V.768h2.427v11.818h-2.783l-2.545-4.55c-.77-1.359-1.421-2.777-2.072-4.195h-.06c.06 1.536.119 3.25.119 5.14v3.546l-2.487.06zM154.518 7.623L150.197 7.623 150.197 10.459 155.051 10.459 155.051 12.645 147.533 12.645 147.533.827 154.814.827 154.814 2.955 150.197 2.955 150.197 5.377 154.518 5.377zM160.735.768L163.399.768 163.399 10.341 168.076 10.341 168.076 12.586 160.675 12.586 160.675.768zM170.325 3.014L167.129 3.014 167.129.768 176.246.768 176.246 3.014 172.99 3.014 172.99 12.586 170.325 12.586zM177.844.945c1.184-.177 2.368-.236 3.612-.236 2.25 0 3.73.414 4.854 1.241 1.243.886 2.013 2.364 2.013 4.432 0 2.245-.829 3.84-1.954 4.786-1.243 1.064-3.137 1.537-5.446 1.537-1.007 0-2.013-.06-3.02-.178L177.844.945zm2.664 9.632c.296.06.592.06.888.06 2.428 0 4.026-1.3 4.026-4.137 0-2.482-1.42-3.723-3.73-3.723-.414 0-.829 0-1.184.118v7.682zM189.27 11.168c-.059-.827.592-1.595 1.421-1.654h.119c.888 0 1.657.65 1.657 1.595 0 .886-.651 1.655-1.598 1.655-.83.059-1.599-.65-1.599-1.596 0 .06 0 0 0 0z" transform="translate(-135.000000, -3847.000000) translate(135.000000, 3634.000000) translate(0.000000, 212.000000) translate(0.000000, 1.000000) translate(0.000000, 88.000000)"/>
                                        </g>
                                    </g>
                                </g>
                            </g>
                        </g>
                        <g>
                            <g>
                                <path fill="#1B3F73" d="M81.762 67.145c0 8.081-6.12 14.617-13.726 14.617h-54.31C6.12 81.762 0 75.226 0 67.145V14.617C0 6.537 6.12 0 13.726 0h54.31c7.547 0 13.726 6.536 13.726 14.617v52.528z" transform="translate(-135.000000, -3847.000000) translate(135.000000, 3634.000000) translate(0.000000, 212.000000) translate(0.000000, 1.000000) translate(54.000000, 0.000000)"/>
                                <g fill="#FFF">
                                    <path d="M44.684 9.567c-5.942-1.545-12.181-1.189-17.885 1.01l-1.13-2.258-.594.297-.118-.06c-.773-.772-1.308-1.723-1.545-2.733-.12-.297-.179-.594-.298-.832-.356-1.129-.713-2.198-1.544-2.495-.416-.179-.892-.12-1.308.118-.416.179-.713.535-.832.951-.237.892.416 1.783 1.13 2.734.178.237.356.475.534.772.654.891 1.13 1.901 1.367 2.971h-.06l-.594.297 1.13 2.258c-5.29 3.09-9.508 7.784-11.944 13.37l-2.436-.832-.238.535H8.2c-1.07 0-2.14-.298-3.09-.832l-.832-.416c-1.07-.535-2.02-1.07-2.852-.713-.416.178-.713.594-.832 1.01-.178.416-.119.891.06 1.248.475.772 1.545.95 2.733 1.129.297.06.594.06.891.178 1.07.119 2.14.535 3.09 1.129v.06l-.238.594 2.377.831C7.962 35.83 8.32 42.07 10.577 47.774l-2.258 1.129.297.654-.06.059c-.772.713-1.723 1.248-2.733 1.545-.297.119-.594.178-.832.297-1.129.356-2.198.713-2.495 1.545-.12.416-.12.891.118 1.307.179.416.535.713.951.832.892.238 1.783-.416 2.734-1.129.237-.178.475-.356.772-.535.891-.713 1.901-1.129 2.971-1.366l.297.594 2.14-1.01c.712 1.188 1.485 2.376 2.376 3.505 2.912 3.685 6.715 6.537 10.993 8.438l-.832 2.436.654.238v.119c-.06 1.07-.298 2.139-.832 3.03-.12.297-.297.535-.416.832-.535 1.07-1.07 2.02-.713 2.852.178.416.534.713 1.01.832.416.179.891.12 1.248-.06.772-.415.95-1.544 1.129-2.732l.178-.892c.119-1.07.535-2.139 1.188-3.03l.654.237.832-2.376c5.942 1.604 12.181 1.247 17.885-1.01l1.13 2.317.594-.297.059.06c.713.772 1.248 1.722 1.545 2.733.06.297.178.594.238.89.356 1.13.713 2.2 1.544 2.496.416.12.892.12 1.308-.118.416-.179.713-.535.832-.951.237-.891-.416-1.783-1.13-2.733-.178-.238-.356-.476-.534-.773-.713-.891-1.13-1.901-1.367-2.97h.06l.594-.298-1.07-2.258c5.289-3.09 9.507-7.784 11.944-13.37l2.436.832.238-.653h.118c1.07.06 2.14.297 3.03.832.298.118.536.297.833.416 1.07.534 2.02 1.07 2.852.713.416-.179.713-.535.832-1.01.178-.416.119-.892-.06-1.248-.416-.773-1.545-.951-2.673-1.13-.298-.059-.595-.059-.892-.178-1.129-.118-2.139-.534-3.09-1.129l.238-.594-2.377-.832c1.605-5.942 1.248-12.18-1.01-17.885l2.317-1.13-.297-.653.06-.06c.772-.712 1.723-1.247 2.793-1.544.297-.119.594-.178.89-.297 1.13-.357 2.2-.654 2.496-1.545.12-.416.12-.891-.118-1.307-.179-.416-.535-.713-.951-.832-.891-.238-1.783.416-2.733 1.129l-.713.534c-.892.714-1.902 1.13-2.971 1.367l-.298-.594-2.258 1.129c-.713-1.248-1.485-2.377-2.376-3.506-3.09-3.922-6.893-6.833-11.171-8.675l.832-2.436-.654-.238V8.2c.06-1.07.356-2.14.891-3.03.119-.238.238-.535.416-.832.535-1.07 1.07-2.02.713-2.852-.178-.416-.594-.714-1.01-.832-.416-.179-.891-.12-1.248.059-.772.416-.95 1.545-1.129 2.733l-.178.892c-.119 1.07-.535 2.139-1.129 3.09h-.06l-.653-.179-.832 2.318z" transform="translate(-135.000000, -3847.000000) translate(135.000000, 3634.000000) translate(0.000000, 212.000000) translate(0.000000, 1.000000) translate(54.000000, 0.000000) translate(3.586609, 3.583638)"/>
                                </g>
                                <g fill="#002581">
                                    <g>
                                        <path d="M11.35 40.525l-.595 1.07 1.13 1.128 1.069-.594 1.07 1.01-5.467 2.912-1.367-1.367 2.852-5.526 1.307 1.367zm-.595 2.852l-.654-.654-.89 1.545 1.544-.891zM7.071 33.87L8.022 35.593 6.536 37.554 7.606 37.672 8.794 37.019 9.626 38.504 4.397 41.357 3.565 39.812 5.704 38.623 2.793 38.386 2.02 36.959 4.635 37.197zM.772 32.919L6.477 31.314 6.952 33.038 1.248 34.642zM0 27.928l3.743-.416c.416-.06.892-.06 1.308 0 .297.059.594.237.772.534.238.357.357.773.357 1.189.06.416.06.832 0 1.188l-1.426.178c.059-.237.059-.475.059-.713-.06-.237-.119-.475-.238-.534-.178-.12-.416-.12-.653-.12l-3.684.357L0 27.928zM4.219 23.709l.119-1.723c.475 0 .891-.357.95-.892.12-.416.06-.713-.178-.772-.119-.06-.238 0-.297.06-.119.177-.238.296-.297.534-.238.654-.654 1.307-1.248 1.723-.356.178-.772.238-1.188.119-.535-.119-.951-.475-1.189-.95-.297-.595-.297-1.249-.06-1.902.12-1.01.952-1.842 1.962-1.961v1.664c-.416.06-.713.356-.832.772-.119.357-.06.594.238.654.118.06.237 0 .297-.06.118-.118.237-.297.297-.475.237-.475.475-.891.772-1.367.416-.534 1.13-.772 1.783-.594.535.119 1.01.535 1.248 1.07.237.653.237 1.307.06 1.96-.357 1.367-1.19 2.08-2.437 2.14zM5.051 10.755L10.161 13.786 9.21 15.33 7.249 14.142 6.536 15.33 8.497 16.519 7.546 18.064 2.496 15.033 3.446 13.488 5.288 14.617 6.001 13.429 4.159 12.3zM8.141 7.428L12.359 11.587 11.112 12.894 6.893 8.794zM13.667 7.784l1.188 1.783-1.545 1.01-3.268-4.932 2.08-1.367c.416-.297.832-.475 1.307-.594.357-.06.713 0 1.01.119.297.119.594.356.773.713.297.416.416.95.297 1.426-.179.535-.535 1.01-1.01 1.307l-.832.535zm-.713-1.01l.475-.297c.475-.297.535-.594.297-.95-.178-.298-.475-.357-.891-.06l-.535.356.654.95zM19.55 4.932l.593 2.08-1.723.475-1.723-5.645 2.377-.713c.475-.178.95-.238 1.426-.178.357.06.654.178.95.416.238.237.476.534.536.891.178.475.118 1.01-.179 1.485-.297.476-.772.832-1.366.951l-.892.238zm-.417-1.248l.595-.178c.475-.178.713-.416.594-.773-.12-.356-.416-.475-.832-.297l-.654.178.297 1.07zM25.61.059L26.026 5.942 24.243 6.061 23.768.178zM32.265 6.655l-1.426-.238-1.188-2.852c-.179-.416-.297-.891-.416-1.307v1.01l-.476 2.852-1.426-.297L28.284 0l1.664.297 1.01 2.377c.178.416.297.832.416 1.248 0-.535.06-1.07.119-1.545L31.79.594l1.426.238-.95 5.823zM39.574 6.417l-1.486 2.971-.772-.416c.06-.237.06-.415.06-.653-.595.238-1.248.238-1.783-.119-.654-.297-1.13-.891-1.307-1.545-.179-.772-.06-1.604.356-2.258.357-.713.891-1.307 1.664-1.664 1.366-.475 2.852.12 3.565 1.367.238.535.238 1.188.06 1.723l-1.605-.653c.178-.595.06-.951-.297-1.189-.535-.238-1.07.119-1.545 1.13-.238.415-.356.89-.356 1.366.059.237.237.475.475.594.178.119.356.119.594.06.178-.06.357-.179.475-.357l-.89-.416.593-1.129 2.199 1.188zM44.743 14.023L43.614 14.974 41 11.825 45.516 7.962 46.704 9.329 43.258 12.241zM50.091 14.499L44.922 17.351 44.09 15.806 49.259 12.894zM47.001 23.352l-.415-1.426 2.08-2.258c.296-.356.653-.654 1.01-.95-.298.178-.595.296-.892.415l-2.733.773-.416-1.426 5.704-1.605.475 1.664-1.723 1.902c-.297.356-.594.653-.95.89.475-.237.95-.415 1.485-.534l1.664-.475.416 1.426L47 23.352zM48.487 29.116L47.061 29.116 47.12 24.719 53.062 24.778 53.003 29.175 51.636 29.175 51.636 26.501 50.804 26.501 50.745 28.641 49.438 28.641 49.438 26.501 48.487 26.501zM46.051 36.959L44.684 36.425 46.229 32.622 51.696 34.88 51.101 36.484 46.942 34.82zM46.764 41.357L43.02 38.861 43.971 37.435 47.714 39.99 48.368 38.98 49.557 39.752 47.239 43.199 46.051 42.367zM41.832 40.465l3.862 4.516-1.723 1.486c-.594.594-1.426.891-2.258.772-.772-.119-1.426-.475-1.901-1.07-.535-.594-.832-1.366-.832-2.139.06-.772.416-1.485 1.01-1.96l1.842-1.605zm-.475 2.199L41 43.02c-.238.238-.297.535-.297.832.06.416.238.832.535 1.13.237.296.594.534.95.653.298.119.654.06.892-.178l.356-.298-2.08-2.495z" transform="translate(-135.000000, -3847.000000) translate(135.000000, 3634.000000) translate(0.000000, 212.000000) translate(0.000000, 1.000000) translate(54.000000, 0.000000) translate(14.453391, 14.645913)"/>
                                    </g>
                                    <path d="M28.225 49.675c0 1.01-.832 1.842-1.842 1.842-1.01 0-1.842-.831-1.842-1.842 0-1.01.831-1.842 1.842-1.842 1.01 0 1.842.832 1.842 1.842z" transform="translate(-135.000000, -3847.000000) translate(135.000000, 3634.000000) translate(0.000000, 212.000000) translate(0.000000, 1.000000) translate(54.000000, 0.000000) translate(14.453391, 14.645913)"/>
                                </g>
                                <g>
                                    <g>
                                        <path fill="#1A4071" d="M22.223 36.306h-8.319c2.793.653 5.586.653 8.32 0z" transform="translate(-135.000000, -3847.000000) translate(135.000000, 3634.000000) translate(0.000000, 212.000000) translate(0.000000, 1.000000) translate(54.000000, 0.000000) translate(22.781145, 22.425217)"/>
                                        <path fill="#1B3F71" d="M32.265 7.428C26.026-.416 14.677-1.723 6.833 4.516c-7.605 6.06-9.032 17.054-3.327 24.838H32.68c4.813-6.537 4.635-15.568-.416-21.926z" transform="translate(-135.000000, -3847.000000) translate(135.000000, 3634.000000) translate(0.000000, 212.000000) translate(0.000000, 1.000000) translate(54.000000, 0.000000) translate(22.781145, 22.425217)"/>
                                        <path fill="#1A4071" d="M6.12 32.265h23.947c.594-.535 1.188-1.07 1.663-1.664H4.457c.534.595 1.07 1.13 1.663 1.664zM10.458 35.117h15.271c.95-.475 1.901-1.01 2.793-1.604H7.665c.892.594 1.783 1.129 2.793 1.604z" transform="translate(-135.000000, -3847.000000) translate(135.000000, 3634.000000) translate(0.000000, 212.000000) translate(0.000000, 1.000000) translate(54.000000, 0.000000) translate(22.781145, 22.425217)"/>
                                    </g>
                                    <g fill="#FFF">
                                        <g>
                                            <path d="M10.22 8.319L20.559 13.013 20.559 7.071 0 7.071 0 12.954z" transform="translate(-135.000000, -3847.000000) translate(135.000000, 3634.000000) translate(0.000000, 212.000000) translate(0.000000, 1.000000) translate(54.000000, 0.000000) translate(22.781145, 22.425217) translate(3.391710, 2.336406) translate(4.240826, 0.000000)"/>
                                            <g>
                                                <path d="M8.319 2.555L10.399 2.555 10.399 5.704 0 5.704 0 2.555 2.139 2.555 2.139 0 8.319 0z" transform="translate(-135.000000, -3847.000000) translate(135.000000, 3634.000000) translate(0.000000, 212.000000) translate(0.000000, 1.000000) translate(54.000000, 0.000000) translate(22.781145, 22.425217) translate(3.391710, 2.336406) translate(4.240826, 0.000000) translate(5.044188, 0.000000)"/>
                                            </g>
                                        </g>
                                        <g>
                                            <path d="M13.786 0L3.268 4.754c-5.645 1.901-2.258 10.22-2.258 10.22h12.776V0zM15.212 14.974h12.775s3.387-8.319-2.258-10.28L15.212 0v14.974z" transform="translate(-135.000000, -3847.000000) translate(135.000000, 3634.000000) translate(0.000000, 212.000000) translate(0.000000, 1.000000) translate(54.000000, 0.000000) translate(22.781145, 22.425217) translate(3.391710, 2.336406) translate(0.000000, 10.140072)"/>
                                        </g>
                                    </g>
                                </g>
                            </g>
                        </g>
                    </g>
                </g>
            </g>
        </g>
    </g>
</svg>
