<svg xmlns="http://www.w3.org/2000/svg" width="200" height="83" viewBox="0 0 200 83">
    <g fill="none" fill-rule="evenodd">
        <g>
            <g>
                <g>
                    <g>
                        <g fill="#1A1818" fill-rule="nonzero">
                            <g>
                                <path d="M3.634 9.664l-.851 3.055H0L3.634.805h3.52l3.688 11.914H7.945l-.912-3.055H3.634zm3.007-2.022l-.729-2.529c-.22-.698-.436-1.585-.603-2.287h-.04c-.176.703-.35 1.604-.534 2.287l-.713 2.53h2.62zM12.422.805h2.66v5.27h.053c.274-.458.546-.879.807-1.312L18.643.806h3.296l-3.938 5.076 4.143 6.838h-3.138L16.105 7.58l-1.023 1.246v3.893h-2.66V.805zM25.929.805L25.929 12.72 23.239 12.72 23.239.805zM30.573.805h2.693v7.527c0 3.393-1.622 4.582-4.233 4.582-.663-.006-1.322-.103-1.96-.286l.297-2.172c.445.14.908.211 1.373.212 1.129 0 1.83-.515 1.83-2.365V.805zM39.051.973c1.2-.184 2.412-.27 3.626-.254 1.658 0 2.84.319 3.642.956.819.678 1.284 1.693 1.263 2.757.04 1.054-.356 2.077-1.096 2.826-1.081.89-2.458 1.336-3.854 1.25-.308.007-.617-.01-.923-.05v4.26h-2.66L39.05.974zm2.66 5.404c.298.052.6.075.9.07 1.427 0 2.299-.724 2.299-1.945 0-1.098-.75-1.748-2.093-1.748-.372-.013-.744.023-1.107.106l.001 3.517zM60.156 6.641c0 3.91-2.355 6.274-5.835 6.274-3.52 0-5.581-2.672-5.581-6.062 0-3.565 2.273-6.237 5.777-6.237 3.646 0 5.639 2.741 5.639 6.025zm-8.58.151c0 2.341 1.087 3.978 2.888 3.978 1.813 0 2.856-1.727 2.856-4.043 0-2.136-1.026-3.974-2.873-3.974-1.808-.002-2.872 1.732-2.872 4.04zM61.92.805L64.609.805 64.609 10.456 69.329 10.456 69.329 12.72 61.92 12.72zM72.077 12.72V7.844L68.323.806H71.4l1.21 2.868c.37.874.623 1.503.917 2.282h.032c.261-.747.543-1.429.9-2.282L75.663.806h3.01L74.759 7.75v4.97h-2.681zM83.509.805L90.77.805 90.77 3.019 86.203 3.019 86.203 5.733 90.465 5.733 90.465 7.931 86.203 7.931 86.203 12.72 83.51 12.72zM95.479.805L95.479 12.72 92.786 12.72 92.786.805zM97.81.973c1.148-.178 2.309-.263 3.47-.254 1.638 0 2.64.16 3.513.674.875.447 1.423 1.352 1.415 2.336-.021 1.185-.814 2.215-1.951 2.537v.04c1.379.29 2.365 1.512 2.358 2.924.004.989-.453 1.922-1.234 2.524-.852.699-2.302 1.095-4.669 1.095-.971.009-1.942-.053-2.905-.185L97.81.973zm2.66 4.558h.875c1.416 0 2.172-.588 2.172-1.474 0-.887-.689-1.372-1.91-1.372-.381-.01-.761.014-1.137.07V5.53zm0 5.273c.343.042.689.057 1.035.045 1.226 0 2.302-.474 2.302-1.715 0-1.2-1.076-1.683-2.416-1.683h-.923l.002 3.353zM108.451.973c1.182-.175 2.375-.26 3.57-.254 1.767 0 2.998.27 3.837.94.74.606 1.148 1.53 1.096 2.487-.016 1.323-.854 2.494-2.098 2.933v.053c.835.335 1.287 1.132 1.593 2.226.37 1.344.739 2.904.97 3.362h-2.754c-.363-.898-.643-1.827-.835-2.776-.314-1.487-.815-1.896-1.908-1.908h-.819v4.68h-2.652V.974zm2.652 5.12h1.06c1.34 0 2.139-.67 2.139-1.715 0-1.091-.746-1.65-1.976-1.666-.41-.005-.819.025-1.223.09v3.291zM125.962 7.675L121.582 7.675 121.582 10.51 126.467 10.51 126.467 12.72 118.889 12.72 118.889.805 126.227.805 126.227 3.019 121.583 3.019 121.583 5.489 125.962 5.489zM134.546.805L134.546 12.72 131.853 12.72 131.853.805zM136.877 12.72V.805h3.138l2.465 4.37c.736 1.314 1.382 2.676 1.935 4.076h.053c-.166-1.648-.242-3.305-.228-4.962V.805h2.477V12.72h-2.83l-2.535-4.602c-.765-1.36-1.453-2.762-2.062-4.2l-.052.021c.077 1.577.11 3.256.11 5.195v3.586h-2.471zM149.026.973c1.202-.181 2.416-.266 3.631-.254 2.257 0 3.72.409 4.862 1.279 1.23.915 2.013 2.38 2.013 4.476 0 2.288-.832 3.86-1.98 4.827-1.243 1.038-3.146 1.548-5.472 1.548-1.021.008-2.042-.054-3.055-.185l.001-11.691zm2.701 9.713c.308.047.619.065.93.053 2.432.017 4.013-1.323 4.013-4.17.028-2.476-1.423-3.787-3.728-3.787-.408-.008-.816.03-1.215.114v7.79zM160.3 11.285c-.024-.434.135-.857.438-1.169.303-.31.722-.48 1.155-.468.431-.013.848.158 1.146.47.3.312.453.736.423 1.167.02.58-.278 1.123-.775 1.419-.497.295-1.115.295-1.612 0-.498-.296-.794-.84-.775-1.419zM168.717.805L171.418.805 171.418 10.456 176.144 10.456 176.144 12.72 168.717 12.72zM178.182 3.068L174.999 3.068 174.999.805 184.113.805 184.113 3.068 180.874 3.068 180.874 12.72 178.182 12.72zM185.538.973c1.205-.18 2.421-.266 3.639-.254 2.245 0 3.711.409 4.856 1.279 1.235.915 2.009 2.38 2.009 4.476 0 2.288-.832 3.86-1.97 4.827-1.25 1.038-3.157 1.548-5.487 1.548-1.02.008-2.037-.054-3.048-.185l.001-11.691zm2.698 9.713c.311.047.626.065.94.053 2.425.017 4.018-1.323 4.018-4.17.012-2.476-1.426-3.787-3.74-3.787-.41-.008-.818.03-1.219.114v7.79zM196.813 11.285c-.023-.434.136-.857.438-1.169.303-.31.722-.48 1.155-.468.432-.014.85.157 1.15.469.299.312.453.736.423 1.168.016.578-.282 1.118-.778 1.412-.497.293-1.113.293-1.61 0-.495-.294-.794-.834-.777-1.412h-.001z" transform="translate(-454.000000, -3856.000000) translate(135.000000, 3634.000000) translate(0.000000, 212.000000) translate(319.000000, 10.000000) translate(0.000000, 69.635628)"/>
                            </g>
                        </g>
                        <g>
                            <g fill="#94000E" fill-rule="nonzero">
                                <path d="M50.104 7.659V0H39.819v7.692c1.74-.247 3.494-.373 5.25-.376 1.684.006 3.366.12 5.035.343zM76.011 11.746L67.736 5.64l-4.611 6.253c3.023 1.646 5.81 3.694 8.282 6.09l4.604-6.237zM89.702 35.843l-3.331-9.74-7.241 2.481c1.517 3.095 2.602 6.385 3.222 9.776l7.35-2.517zM22.583 5.54l-8.267 6.111 4.565 6.192c2.487-2.388 5.29-4.423 8.329-6.05L22.583 5.54zM3.946 26.001L.614 35.736l7.21 2.464c.634-3.387 1.73-6.67 3.258-9.76l-7.136-2.439z" transform="translate(-454.000000, -3856.000000) translate(135.000000, 3634.000000) translate(0.000000, 212.000000) translate(319.000000, 10.000000) translate(53.441296, 0.000000) translate(0.081434, 0.000000)"/>
                            </g>
                            <path fill="#94000E" fill-rule="nonzero" d="M16.4 45.25c.072-15.837 12.924-28.636 28.751-28.636 15.828 0 28.68 12.8 28.753 28.637h9.163C82.899 24.42 65.975 7.62 45.157 7.62c-20.819 0-37.743 16.799-37.91 37.63h9.152z" transform="translate(-454.000000, -3856.000000) translate(135.000000, 3634.000000) translate(0.000000, 212.000000) translate(319.000000, 10.000000) translate(53.441296, 0.000000)"/>
                            <g>
                                <path d="M38.414 9.22l-1.9 2.023c.536.568 1.169 1.25 1.884 2.037.645-.695 1.286-1.377 1.915-2.037L38.414 9.22zM47.755 12.522l1.924 2.06c-.605.633-1.226 1.329-1.891 2.037-.666-.707-1.31-1.393-1.932-2.06l1.9-2.037zM43.425 14.557c-.62.67-1.27 1.354-1.932 2.06-.662-.706-1.303-1.402-1.887-2.037l1.913-2.06 1.906 2.037zM44.638 15.85l1.949 2.075c-.638.68-1.279 1.382-1.949 2.1-.665-.72-1.31-1.42-1.944-2.1l1.944-2.076zM45.846 7.888l1.879-2.015 1.936 2.052c-.535.564-1.177 1.246-1.891 2.015-.681-.72-1.322-1.414-1.924-2.052zM44.638 9.176l1.904 2.063c-.593.626-1.234 1.312-1.904 2.037-.67-.723-1.31-1.41-1.915-2.037l1.915-2.063zM44.639 6.6c-.731-.784-1.352-1.467-1.88-2.019l1.88-1.998 1.875 1.998c-.523.552-1.153 1.235-1.875 2.02zM41.514 9.94c-.731-.77-1.358-1.451-1.891-2.016l1.923-2.052 1.888 2.015c-.605.639-1.255 1.333-1.92 2.052zM50.859 9.22l1.903 2.023c-.535.572-1.18 1.25-1.887 2.037-.65-.695-1.296-1.377-1.908-2.037L50.86 9.22z" transform="translate(-454.000000, -3856.000000) translate(135.000000, 3634.000000) translate(0.000000, 212.000000) translate(319.000000, 10.000000) translate(53.441296, 0.000000) translate(0.616927, 20.050804)"/>
                                <path fill="#94000E" fill-rule="nonzero" d="M42.76 4.582c-.535-.58-.952-1.018-1.213-1.297.723-.76 1.357-1.426 1.878-2.002l1.213 1.3-1.878 1.999zM39.623 7.925l-1.209-1.291c.679-.716 1.323-1.407 1.92-2.052l1.213 1.291-1.924 2.052zM34.105 11.237l1.197 1.296-14.679 15.65H0v-1.769h19.865c.27-.29 7.558-8.068 14.24-15.177zM36.515 11.243c-.507-.54-.903-.98-1.2-1.304.649-.686 1.27-1.349 1.882-2.015l1.217 1.297-1.9 2.022zM41.518 12.523l-1.913 2.06c-.425-.462-.824-.903-1.209-1.304.646-.695 1.287-1.377 1.916-2.037l1.206 1.28zM42.723 11.24c-.42-.462-.824-.891-1.209-1.3.666-.72 1.316-1.414 1.92-2.051l1.205 1.286-1.916 2.064zM44.638 6.6c.723-.784 1.352-1.466 1.875-2.018l1.21 1.291-1.88 2.015c-.42-.458-.825-.887-1.205-1.287z" transform="translate(-454.000000, -3856.000000) translate(135.000000, 3634.000000) translate(0.000000, 212.000000) translate(319.000000, 10.000000) translate(53.441296, 0.000000) translate(0.616927, 20.050804)"/>
                                <path fill="#94000E" fill-rule="nonzero" d="M37.188 14.566l1.203 1.3L22.613 32.79H0v-1.766h21.852c.27-.302 8.258-8.864 15.336-16.458zM46.542 11.237l1.212 1.283-1.9 2.037c-.42-.437-.82-.878-1.216-1.283.67-.723 1.311-1.41 1.904-2.037zM47.767 9.94c.715-.77 1.358-1.451 1.891-2.016l1.2 1.297-1.89 2.019c-.408-.446-.81-.875-1.2-1.3zM44.639 15.849l-1.944 2.076c-.404-.45-.809-.879-1.2-1.308.661-.707 1.31-1.39 1.932-2.06l1.212 1.292z" transform="translate(-454.000000, -3856.000000) translate(135.000000, 3634.000000) translate(0.000000, 212.000000) translate(319.000000, 10.000000) translate(53.441296, 0.000000) translate(0.616927, 20.050804)"/>
                                <path fill="#94000E" fill-rule="nonzero" d="M40.28 17.905l1.2 1.307L24.8 36.974H0v-1.761h24.049c.282-.318 8.798-9.384 16.231-17.308zM49.679 14.582l1.2 1.283L49 17.903c-.408-.43-.813-.859-1.213-1.288.666-.704 1.288-1.4 1.892-2.033zM46.587 17.925l1.212 1.287-1.956 2.114c-.408-.442-.809-.87-1.205-1.3.67-.72 1.311-1.422 1.949-2.1z" transform="translate(-454.000000, -3856.000000) translate(135.000000, 3634.000000) translate(0.000000, 212.000000) translate(319.000000, 10.000000) translate(53.441296, 0.000000) translate(0.616927, 20.050804)"/>
                                <path fill="#94000E" fill-rule="nonzero" d="M43.438 21.326l1.2 1.303-17.526 18.952H0v-1.762h26.343c.284-.319 9.326-10.099 17.095-18.493zM53.963 12.536l-1.879 2.031c-.416-.432-.809-.864-1.21-1.287.707-.784 1.353-1.463 1.888-2.037l1.201 1.293zM53.963 12.533l1.21-1.296C61.85 18.344 69.14 26.12 69.418 26.412h19.865v1.77H68.651L53.963 12.532zM44.638 2.583l1.218-1.3c.522.577 1.156 1.243 1.854 2.003-.247.278-.653.727-1.197 1.296l-1.875-2zM47.722 5.873l1.213-1.291c.6.645 1.254 1.336 1.924 2.052-.274.308-.686.74-1.2 1.291l-1.937-2.052zM50.859 9.22l1.213-1.296 1.887 2.015c-.29.323-.706.764-1.197 1.303L50.86 9.22z" transform="translate(-454.000000, -3856.000000) translate(135.000000, 3634.000000) translate(0.000000, 212.000000) translate(319.000000, 10.000000) translate(53.441296, 0.000000) translate(0.616927, 20.050804)"/>
                                <path fill="#94000E" fill-rule="nonzero" d="M44.638 2.583l-1.213-1.3c.515-.54.931-.972 1.213-1.283.29.309.703.74 1.218 1.283l-1.218 1.3zM46.513 4.582c.544-.568.948-1.018 1.197-1.297.396.409.802.83 1.225 1.297l-1.213 1.291-1.209-1.291zM49.658 7.924c.515-.547.926-.987 1.2-1.291.393.421.797.851 1.214 1.291l-1.213 1.297-1.2-1.297zM52.763 11.244c.49-.54.907-.98 1.197-1.303.404.425.808.854 1.212 1.299l-1.209 1.296-1.2-1.292zM48.968 11.237c.613.662 1.258 1.344 1.907 2.037-.388.4-.792.842-1.196 1.304l-1.924-2.06 1.213-1.281zM43.433 7.888l-1.887-2.015 1.213-1.291c.526.552 1.147 1.234 1.878 2.019-.37.4-.772.829-1.204 1.287zM50.88 15.865l1.205-1.299c7.082 7.593 15.071 16.156 15.349 16.458H89.28v1.766H66.656L50.88 15.865zM44.638 9.175l1.205-1.287c.605.638 1.246 1.332 1.924 2.051-.393.409-.789.838-1.225 1.3l-1.904-2.064z" transform="translate(-454.000000, -3856.000000) translate(135.000000, 3634.000000) translate(0.000000, 212.000000) translate(319.000000, 10.000000) translate(53.441296, 0.000000) translate(0.616927, 20.050804)"/>
                                <path fill="#94000E" fill-rule="nonzero" d="M41.546 5.873l-1.213-1.291c.437-.466.834-.887 1.213-1.297.262.278.679.716 1.213 1.297l-1.213 1.291zM44.638 9.175l-1.204-1.287c.431-.458.833-.887 1.204-1.287.38.4.784.83 1.205 1.287l-1.205 1.287zM47.767 9.94c.393.425.793.854 1.201 1.299l-1.213 1.283-1.213-1.283c.437-.462.834-.891 1.225-1.3zM50.875 13.276c.4.426.793.859 1.21 1.288l-1.205 1.299-1.2-1.283c.403-.46.807-.901 1.195-1.304zM40.314 11.239l-1.9-2.02 1.21-1.296c.53.564 1.16 1.247 1.89 2.015-.392.427-.796.856-1.2 1.3zM47.8 19.213l1.2-1.307c7.426 7.924 15.95 16.99 16.232 17.308h24.049v1.762H64.468L47.8 19.213zM45.856 14.557c.62.667 1.264 1.353 1.931 2.06-.392.432-.792.858-1.2 1.308l-1.949-2.076 1.218-1.292zM44.638 13.274c-.392.404-.796.846-1.213 1.283l-1.907-2.037 1.205-1.283c.604.628 1.245 1.314 1.915 2.037z" transform="translate(-454.000000, -3856.000000) translate(135.000000, 3634.000000) translate(0.000000, 212.000000) translate(319.000000, 10.000000) translate(53.441296, 0.000000) translate(0.616927, 20.050804)"/>
                                <path fill="#94000E" fill-rule="nonzero" d="M38.414 9.22l-1.217-1.296c.413-.442.821-.87 1.217-1.292.282.309.695.741 1.21 1.292l-1.21 1.296zM42.723 11.239l-1.205 1.283-1.205-1.283c.404-.446.809-.875 1.2-1.3.385.409.79.838 1.21 1.3zM44.638 13.273c.396.405.797.846 1.218 1.284l-1.218 1.291-1.213-1.291c.417-.437.822-.878 1.213-1.284zM47.787 16.617c.4.43.805.859 1.213 1.288l-1.2 1.307-1.213-1.287c.408-.45.808-.879 1.2-1.308zM38.398 13.277c-.405.425-.802.858-1.21 1.287l-1.887-2.03 1.213-1.292c.536.569 1.17 1.252 1.884 2.035zM44.638 22.63l1.205-1.304c7.76 8.395 16.8 18.174 17.085 18.493h26.353v1.762H62.173L44.638 22.629zM44.639 20.026c-.392.432-.796.858-1.201 1.3l-1.956-2.114 1.212-1.287c.634.679 1.28 1.382 1.945 2.101zM41.496 16.617c-.4.432-.813.858-1.213 1.288l-1.887-2.037 1.213-1.283c.581.63 1.223 1.326 1.887 2.032z" transform="translate(-454.000000, -3856.000000) translate(135.000000, 3634.000000) translate(0.000000, 212.000000) translate(319.000000, 10.000000) translate(53.441296, 0.000000) translate(0.616927, 20.050804)"/>
                                <path fill="#94000E" fill-rule="nonzero" d="M36.515 11.244l-1.213 1.292-1.197-1.297c.404-.445.817-.874 1.21-1.3.297.323.693.765 1.2 1.305zM39.61 14.582l-1.214 1.283-1.205-1.299c.409-.432.802-.864 1.21-1.287.38.4.78.841 1.208 1.303zM42.694 17.925l-1.212 1.287-1.201-1.307c.4-.432.813-.858 1.213-1.288.392.43.796.858 1.2 1.308zM44.638 20.026c.396.432.797.858 1.205 1.3l-1.205 1.303-1.2-1.303c.404-.442.809-.87 1.2-1.3z" transform="translate(-454.000000, -3856.000000) translate(135.000000, 3634.000000) translate(0.000000, 212.000000) translate(319.000000, 10.000000) translate(53.441296, 0.000000) translate(0.616927, 20.050804)"/>
                            </g>
                        </g>
                    </g>
                </g>
            </g>
        </g>
    </g>
</svg>
