<svg id="Layer_1" data-name="Layer 1" xmlns="http://www.w3.org/2000/svg" viewBox="0 0 65 65"><defs><style>.cls-1{fill:none;stroke:#3878df;stroke-linecap:round;stroke-linejoin:round;stroke-width:3.75px;}.cls-2{fill:#3878df;opacity:0.3;isolation:isolate;}</style></defs><path class="cls-1" d="M43.06,27.68l3.78-.28-.55-7.3-3.74.28a18.5,18.5,0,0,0-2.64-5.65L42.48,12l-5.3-5L34.64,9.66a18.32,18.32,0,0,0-6.3-2.54V3.45H21V7.12a18.36,18.36,0,0,0-7.74,3.55L10.49,8.25,5.7,13.78l2.81,2.44a18.44,18.44,0,0,0-2.24,6.9l-3.76.28.55,7.3,3.8-.29A18.38,18.38,0,0,0,9.53,36L6.87,38.75l5.3,5.06L14.84,41A18.25,18.25,0,0,0,21,43.47v3.88h7.32V43.47A18.43,18.43,0,0,0,35.94,40l2.92,2.53L43.66,37l-2.9-2.51A18.36,18.36,0,0,0,43.06,27.68Z"/><circle class="cls-2" cx="24.68" cy="25.4" r="10.84"/><circle class="cls-1" cx="24.68" cy="25.4" r="10.84"/><path class="cls-1" d="M28.37,45.46a15.71,15.71,0,0,0,2.26,4.7L28.39,52.5l4.47,4.27,2.26-2.36a15.49,15.49,0,0,0,5.22,2.08v3.28h6.18V56.49A15.59,15.59,0,0,0,53,53.57l2.46,2.14L59.47,51,57,48.92A15.4,15.4,0,0,0,59,43.15l3.2-.24-.47-6.17L58.54,37a15.59,15.59,0,0,0-2.24-4.77l2.17-2.27L54,25.67l-2.15,2.25a15.69,15.69,0,0,0-5.33-2.15v-3.1"/><path class="cls-2" d="M34.27,41.22a9.16,9.16,0,1,0,9.16-9.16l-2.34,1.85,2.06,2.83-4.06,5.64"/><path class="cls-1" d="M34.27,41.22a9.16,9.16,0,1,0,9.16-9.16l-2.34,1.85,2.06,2.83-4.06,5.64"/></svg>