<svg width="20" height="20" viewBox="0 0 20 20" fill="none" xmlns="http://www.w3.org/2000/svg">
<path d="M1.25 11.4276L16.075 11.4276L11.5375 17.6556C11.3253 17.9473 11.2232 18.3234 11.2537 18.7011C11.2842 19.0788 11.4447 19.4272 11.7 19.6697C11.9553 19.9121 12.2844 20.0288 12.6149 19.994C12.9454 19.9591 13.2503 19.7757 13.4625 19.484L19.7125 10.9133C19.7545 10.8451 19.7922 10.7735 19.825 10.699C19.825 10.6276 19.825 10.5848 19.9125 10.5133C19.9692 10.3496 19.9988 10.1752 20 9.99911C19.9988 9.823 19.9692 9.64865 19.9125 9.48487C19.9125 9.41345 19.9125 9.37059 19.825 9.29917C19.7922 9.22469 19.7545 9.15307 19.7125 9.0849L13.4625 0.514244C13.345 0.352997 13.1978 0.223322 13.0314 0.134443C12.8651 0.0455647 12.6836 -0.000337601 12.5 3.8147e-06C12.2079 -0.000648499 11.9249 0.115591 11.7 0.328545C11.5734 0.448462 11.4688 0.595736 11.3921 0.761932C11.3154 0.928127 11.2682 1.10998 11.2531 1.29707C11.238 1.48416 11.2553 1.67282 11.3041 1.85224C11.3529 2.03166 11.4322 2.19831 11.5375 2.34265L16.075 8.57066L1.25 8.57066C0.91848 8.57066 0.600536 8.72116 0.366116 8.98905C0.131695 9.25693 0 9.62026 0 9.99911C0 10.378 0.131695 10.7413 0.366116 11.0092C0.600536 11.2771 0.91848 11.4276 1.25 11.4276Z" fill="white"/>
</svg>
