<svg xmlns="http://www.w3.org/2000/svg" width="51.298" height="45.379" viewBox="0 0 51.298 45.379">
    <defs>
        <style>
            .cls-1{fill:#c9c9c9}
        </style>
    </defs>
    <path id="warner-bros" d="M25.768 57.752a.477.477 0 0 1-.179-.035C25.467 57.668 13.3 52.679 6.894 43q-.8-1.2-1.5-2.458a16.129 16.129 0 0 1-2.306-.025 5.735 5.735 0 0 1-2.92-1.233.476.476 0 0 1-.168-.339V33.9a.479.479 0 0 1 .266-.387c.064-.032.688-.336 1.828-.777A26.571 26.571 0 0 1 .9 24.6a.478.478 0 0 1 .3-.418l3.642-1.432v-1.468a.478.478 0 0 1 .264-.428l2.964-1.482v-1.8a.478.478 0 0 1 .287-.438c.023-.01 2.4-1.04 6.144-2.23s10.879-2.472 11.181-2.526a.487.487 0 0 1 .169 0c.3.054 7.428 1.334 11.181 2.526s6.121 2.219 6.144 2.23a.478.478 0 0 1 .287.438v1.8l2.964 1.482a.478.478 0 0 1 .264.428v1.468l3.643 1.435a.478.478 0 0 1 .3.418 26.124 26.124 0 0 1-1.074 7.647c.934.327 1.427.543 1.449.552a.479.479 0 0 1 .231.219h.009a.475.475 0 0 1 .039.15v5.144a.479.479 0 0 1-.011.1c-.06.277-.409.946-2.335 1.38a12.927 12.927 0 0 1-2.635.357Q45.54 41.638 44.641 43c-6.405 9.68-18.572 14.67-18.694 14.719a.511.511 0 0 1-.179.033zm-20.92-20.4a37.926 37.926 0 0 0 2.845 5.114c5.823 8.8 16.559 13.637 18.075 14.288 1.517-.651 12.257-5.492 18.075-14.288a37.878 37.878 0 0 0 2.957-5.352 37.017 37.017 0 0 0-1.635-.521 33.928 33.928 0 0 1-2.935 5.451c-5.621 8.5-15.964 12.74-16.4 12.917a.479.479 0 0 1-.358 0c-.437-.176-10.78-4.419-16.4-12.917a34.025 34.025 0 0 1-2.817-5.176q-.761.245-1.408.485zm2.324-.771a33.055 33.055 0 0 0 2.7 4.933C14.929 49.169 24.242 53.392 25.648 54c1.406-.606 10.724-4.834 15.782-12.482a33.024 33.024 0 0 0 2.8-5.184c-1.13-.3-2.425-.6-3.9-.875a6.359 6.359 0 0 1 .378 2.142c.043 3.616-2.573 6.4-5.49 9.162a43.894 43.894 0 0 1-7.239 5.305.477.477 0 0 1-.29.065l-.045-.006a.475.475 0 0 1-.272-.161l-.012-.015-1.374-1.772a.48.48 0 0 1-.1-.293v-15.63a.7.7 0 0 1-.089 0h-.309v15.983a.478.478 0 0 1-.1.292l-1.355 1.754a.478.478 0 0 1-.671.086l-.018-.015a19.3 19.3 0 0 1-3.514-3.963 28.685 28.685 0 0 1-2.274-4.384l-.478.479a.477.477 0 0 1-.208.122l-1.933.548a.477.477 0 0 1-.5-.16A40.106 40.106 0 0 1 9.6 37.74a18.018 18.018 0 0 1-.715-1.627q-.913.231-1.714.47zm9.947 4.568a.473.473 0 0 1 .071.005.478.478 0 0 1 .379.31 36.882 36.882 0 0 0 3.056 6.393 19.543 19.543 0 0 0 2.553 3.054V34.292q-1.088.031-2.152.088v7.608a.478.478 0 0 1-.913.2 46.192 46.192 0 0 1-2.609-7.54q-.551.054-1.093.116l-.841.1c.393 1.618.76 2.644.764 2.655a.479.479 0 0 1-.05.424l-1.2 1.834a.478.478 0 0 1-.758.056 15.951 15.951 0 0 1-2.518-4.371q-1.051.2-1.991.422c.206.524.417 1 .631 1.423a39.7 39.7 0 0 0 4.338 6.619l1.947-2.585a.478.478 0 0 1 .385-.19zm11.1-6.866v16.525a42.022 42.022 0 0 0 6.348-4.742c2.863-2.713 5.23-5.221 5.191-8.456a5.162 5.162 0 0 0-.553-2.351q-1.18-.2-2.5-.363a2.69 2.69 0 0 1 .642.626c.465.64.883 1.824.233 3.825-1.072 3.3-6.483 7.21-6.713 7.375a.478.478 0 0 1-.757-.389V37.9a.479.479 0 0 1 .139-.337 16.141 16.141 0 0 1 3.831-2.945 86.317 86.317 0 0 0-5.861-.333zm-4.085-.015v16.323l.4-.516V34.264zm2.71 15.446l.419.54V34.267l-.419-.005zm4.225-5.176v.829c1.518-1.191 4.852-4.007 5.6-6.319a3.316 3.316 0 0 0-.1-2.967 1.844 1.844 0 0 0-1.067-.693 1.376 1.376 0 0 1 .09.183l.046.108c.245.561.754 1.729-.292 4.09-.939 2.137-3.531 4.206-4.277 4.772zM16.98 42.609l-.936 1.242.445-.126.668-.67-.177-.446zm14.089-4.514v5.224a12.865 12.865 0 0 0 3.409-3.935c.876-1.977.494-2.851.29-3.32a3.522 3.522 0 0 1-.057-.135 1.091 1.091 0 0 0-.356-.394 15.808 15.808 0 0 0-3.286 2.56zm-29.718.844a4.4 4.4 0 0 0 1.816.62 15.886 15.886 0 0 0 1.721.045q-.5-.942-.934-1.9a21.577 21.577 0 0 0-2.603 1.235zm17.115-4.38a42.74 42.74 0 0 0 1.6 5.019v-5.141q-.808.053-1.601.121zM47.7 37.44q-.405.905-.861 1.8a13.918 13.918 0 0 0 1.9-.306 4.851 4.851 0 0 0 1.3-.449A20.481 20.481 0 0 0 47.7 37.44zm-34.927-2.152a16.754 16.754 0 0 0 1.879 3.412l.7-1.077A32.135 32.135 0 0 1 14.613 35q-.954.133-1.84.288zM.956 34.2v3.849C2.791 37 8.032 34.521 18.037 33.628q3.61-.323 7.609-.329h.244q4.205 0 7.972.326c9.693.824 14.709 2.99 16.479 3.926v-3.989c-1.568-.614-9.431-3.453-21.633-3.861q-.488-.016-.977-.027h-.017a90.8 90.8 0 0 0-1.9-.022h-.093C11.81 29.661 2.61 33.465.956 34.2zm.89-9.245a27.61 27.61 0 0 0 1.148 7.4c.461-.166.979-.344 1.55-.529a22.121 22.121 0 0 1-.739-5.926.479.479 0 0 1 .3-.419l3.153-1.242v-1.246a.478.478 0 0 1 .264-.428l2.563-1.282v-1.537a.478.478 0 0 1 .287-.438c.021-.009 2.1-.912 5.387-1.955s9.536-2.167 9.8-2.214a.487.487 0 0 1 .169 0c.264.047 6.509 1.17 9.8 2.214S40.9 19.3 40.92 19.308a.478.478 0 0 1 .287.438v1.537l2.563 1.282a.478.478 0 0 1 .264.428v1.245l3.153 1.242a.479.479 0 0 1 .3.418 21.556 21.556 0 0 1-.637 5.5c.682.193 1.284.378 1.8.546a27.135 27.135 0 0 0 1.033-6.986l-3.65-1.438a.478.478 0 0 1-.3-.445v-1.5L42.772 20.1a.478.478 0 0 1-.264-.428v-1.78a75.568 75.568 0 0 0-5.765-2.074c-3.479-1.1-10.149-2.331-10.976-2.481-.827.15-7.5 1.377-10.976 2.481-2.954.938-5.035 1.771-5.765 2.074v1.775a.478.478 0 0 1-.264.428L5.8 21.578v1.5a.478.478 0 0 1-.3.445zm2.909 1.295a23.188 23.188 0 0 0 .7 5.286c.592-.18 1.232-.363 1.918-.545-.515-2.26-.774-4.065-.777-4.084a.478.478 0 0 1 .326-.522l2.83-.917a.477.477 0 0 1 .4.046l.022.015 2.141 1.388a.479.479 0 0 1 .214.335c0 .016.2 1.424.463 2.515q.355-.062.721-.121c-.362-3.131-.617-6.681-.62-6.718a.479.479 0 0 1 .339-.492l2.908-.876h.014l.049-.01a.478.478 0 0 1 .331.07l1.873 1.2a.479.479 0 0 1 .221.4c0 .038 0 3.573.248 5.768q.488-.042.988-.079V19.15a.478.478 0 0 1 .394-.471l3.1-.556a.474.474 0 0 1 .145-.007h.006a.477.477 0 0 1 .312.17l.011.014 1.354 1.752a.477.477 0 0 1 .1.292V28.7h.4v-8.195a.479.479 0 0 1 .09-.279l1.374-1.912.005-.007a.477.477 0 0 1 .292-.182h.028a.494.494 0 0 1 .143 0 30.6 30.6 0 0 1 7.118 2.073 9.414 9.414 0 0 1 5.512 6.4 5.436 5.436 0 0 1-.193 3.32c2.214.387 4.111.822 5.668 1.236a22.719 22.719 0 0 0 .611-4.892l-3.16-1.244a.479.479 0 0 1-.3-.445v-1.284l-2.563-1.282a.478.478 0 0 1-.264-.428v-1.515a66.027 66.027 0 0 0-5.008-1.8c-3.029-.962-8.827-2.029-9.6-2.169-.768.14-6.567 1.208-9.6 2.169a62.912 62.912 0 0 0-5.008 1.8v1.515a.478.478 0 0 1-.264.428l-2.55 1.282v1.275a.479.479 0 0 1-.3.445zm2.853.919c.1.642.334 2 .7 3.583q.952-.237 2.009-.466a79.224 79.224 0 0 1-.784-3.74zm2.965-.243c.146.759.372 1.868.677 3.165.263-.053.529-.1.8-.155-.208-.876-.37-1.9-.436-2.335zm26.55 2.5q1.133.15 2.182.321a4.606 4.606 0 0 0 .233-2.893 8.548 8.548 0 0 0-5.011-5.8 28.4 28.4 0 0 0-6.308-1.891v9.565q.965.026 1.893.071V24.1v-1.643a.478.478 0 0 1 .6-.463c.231.06 5.657 1.5 6.518 4.558a4.074 4.074 0 0 1-.107 2.875zm-23.047-6.182c.076.993.3 3.756.584 6.258a70.49 70.49 0 0 1 1.976-.265 153.854 153.854 0 0 1-.593-6.585zm21.48 5.992l.56.065a3.018 3.018 0 0 0 .192-2.488c-.565-2.006-3.866-3.268-5.239-3.712v.62c.909.25 3.1.966 3.84 2.222a3.922 3.922 0 0 1 .648 3.292zM31.77 28.9q1.461.1 2.823.237a2.969 2.969 0 0 0-.508-2.706c-.468-.8-2.017-1.408-3.015-1.71v4.133q.346.017.7.046zm-14.748-5.968c.092 1.294.283 3.741.564 6.2l.541-.056c-.212-1.918-.245-4.723-.251-5.594zm4-3.382v9.29q1.054-.064 2.152-.1v-9.577zm3.109.443v8.72l.4-.007v-8.2zm2.71 8.709l.419.006v-8.631l-.419.583z" class="cls-1" transform="translate(.001 -12.373)"/>
</svg>
