<svg xmlns="http://www.w3.org/2000/svg" width="460.406" height="447.752" viewBox="0 0 460.406 447.752">
  <g id="_03" data-name="03" transform="translate(-33.503 -12.867)">
    <g id="Floor">
      <path id="Floor-2" data-name="Floor" d="M103.748,425.032c82.491,47.449,216.236,47.45,298.726,0s82.491-124.381,0-171.831-216.236-47.45-298.727,0S21.256,377.582,103.748,425.032Z" fill="#e6efef"/>
    </g>
    <g id="Store" transform="translate(-49 -24)">
      <g id="Group_9" data-name="Group 9">
        <g id="Group_1" data-name="Group 1">
          <path id="Path_1" data-name="Path 1" d="M88.464,372.6l-3.794-2.19a4.787,4.787,0,0,1-2.165-3.75l0-187.308a4.785,4.785,0,0,1,2.166-3.75L324.061,37.387a4.781,4.781,0,0,1,4.33,0l3.794,2.19a4.786,4.786,0,0,1,2.165,3.75V230.635a4.784,4.784,0,0,1-2.165,3.75L92.794,372.6A4.787,4.787,0,0,1,88.464,372.6Z" fill="#3d4642"/>
          <path id="Path_2" data-name="Path 2" d="M334.326,42.982c-.15-1.13-1.061-1.54-2.14-.9L92.8,180.292a4.4,4.4,0,0,0-1.53,1.61l-8.13-4.69a4.656,4.656,0,0,1,1.53-1.61l239.4-138.21a4.727,4.727,0,0,1,4.33,0l3.79,2.19A4.831,4.831,0,0,1,334.326,42.982Z" fill="#526d60"/>
          <path id="Path_3" data-name="Path 3" d="M92.446,372.772c-.02.01-.03.01-.05.02a.5.5,0,0,1-.13.04.937.937,0,0,1-.15.06c-.05.02-.11.03-.17.05-.1.03-.21.05-.32.08a.741.741,0,0,0-.12.02,4.718,4.718,0,0,1-3.04-.44l-3.8-2.19a4.8,4.8,0,0,1-2.16-3.75V179.352a4.466,4.466,0,0,1,.63-2.14l8.13,4.69a4.375,4.375,0,0,0-.64,2.14v187.31c0,.98.49,1.55,1.2,1.55a1.148,1.148,0,0,0,.31-.04A2.114,2.114,0,0,0,92.446,372.772Z" fill="#263238"/>
        </g>
        <g id="Group_2" data-name="Group 2">
          <path id="Path_4" data-name="Path 4" d="M98.752,186.23V369.159L326.226,237.826V54.9Z" fill="#fafafa"/>
          <path id="Path_5" data-name="Path 5" d="M163.744,331.633V181.541l97.489-56.285,0,150.094-4.186,2.417.124-145.476-89.365,51.595v145.4Z" fill="#e0e0e0"/>
          <path id="Path_6" data-name="Path 6" d="M98.752,369.159l4.064-2.346V193.267L321.674,66.907l.489,173.264,4.062-2.345V54.9L98.752,186.23Z" fill="#e0e0e0"/>
        </g>
        <g id="toldo">
          <path id="Path_7" data-name="Path 7" d="M98.751,186.23,309.62,64.483l35.142,20.292-38.093,21.994-3.381,1.952L133.9,206.521Z" fill="#fafafa"/>
          <g id="Group_3" data-name="Group 3">
            <path id="Path_8" data-name="Path 8" d="M98.752,186.23,133.9,206.521l17.573-10.146-35.146-20.291Z" fill="#80c19c"/>
            <path id="Path_9" data-name="Path 9" d="M133.9,165.939l35.146,20.291,17.572-10.146-35.146-20.291Z" fill="#80c19c"/>
            <path id="Path_10" data-name="Path 10" d="M169.041,145.648l35.145,20.291,17.572-10.146L186.613,135.5Z" fill="#80c19c"/>
            <path id="Path_11" data-name="Path 11" d="M204.185,125.356l35.146,20.291L256.9,135.5l-35.146-20.291Z" fill="#80c19c"/>
            <path id="Path_12" data-name="Path 12" d="M239.329,105.065l35.146,20.291,17.572-10.146L256.9,94.92Z" fill="#80c19c"/>
            <path id="Path_13" data-name="Path 13" d="M274.473,84.774l35.145,20.291L327.19,94.92,292.045,74.629Z" fill="#80c19c"/>
            <path id="Path_14" data-name="Path 14" d="M309.627,64.482l35.146,20.291,17.572-10.145L327.2,54.337Z" fill="#80c19c"/>
          </g>
          <g id="Group_4" data-name="Group 4" opacity="0.5">
            <path id="Path_15" data-name="Path 15" d="M98.752,186.23,133.9,206.521l17.573-10.146-35.146-20.291Z" fill="#fff"/>
            <path id="Path_16" data-name="Path 16" d="M133.9,165.939l35.146,20.291,17.572-10.146-35.146-20.291Z" fill="#fff"/>
            <path id="Path_17" data-name="Path 17" d="M169.041,145.648l35.145,20.291,17.572-10.146L186.613,135.5Z" fill="#fff"/>
            <path id="Path_18" data-name="Path 18" d="M204.185,125.356l35.146,20.291L256.9,135.5l-35.146-20.291Z" fill="#fff"/>
            <path id="Path_19" data-name="Path 19" d="M239.329,105.065l35.146,20.291,17.572-10.146L256.9,94.92Z" fill="#fff"/>
            <path id="Path_20" data-name="Path 20" d="M274.473,84.774l35.145,20.291L327.19,94.92,292.045,74.629Z" fill="#fff"/>
            <path id="Path_21" data-name="Path 21" d="M309.627,64.482l35.146,20.291,17.572-10.145L327.2,54.337Z" fill="#fff"/>
          </g>
          <g id="Group_5" data-name="Group 5">
            <path id="Path_22" data-name="Path 22" d="M133.9,206.521c0,5.6,3.933,7.874,8.786,5.073s8.786-9.615,8.786-15.219Z" fill="#80c19c"/>
            <path id="Path_23" data-name="Path 23" d="M151.469,196.375c0,5.6,3.934,7.875,8.787,5.073s8.786-9.615,8.786-15.218Z" fill="#e6e6e6"/>
            <path id="Path_24" data-name="Path 24" d="M169.043,186.229c0,5.6,3.934,7.875,8.787,5.073s8.786-9.615,8.786-15.218Z" fill="#80c19c"/>
            <path id="Path_25" data-name="Path 25" d="M186.615,176.084c0,5.6,3.934,7.874,8.786,5.073s8.787-9.616,8.787-15.219Z" fill="#e6e6e6"/>
            <path id="Path_26" data-name="Path 26" d="M204.189,165.938c0,5.6,3.934,7.874,8.787,5.073s8.786-9.615,8.786-15.219Z" fill="#80c19c"/>
            <path id="Path_27" data-name="Path 27" d="M221.761,155.792c0,5.6,3.933,7.875,8.786,5.073s8.786-9.615,8.786-15.218Z" fill="#e6e6e6"/>
            <path id="Path_28" data-name="Path 28" d="M239.335,145.646c0,5.6,3.934,7.875,8.786,5.073s8.787-9.615,8.787-15.218Z" fill="#80c19c"/>
            <path id="Path_29" data-name="Path 29" d="M256.906,135.5c0,5.6,3.934,7.874,8.787,5.072s8.786-9.615,8.786-15.218Z" fill="#e6e6e6"/>
            <path id="Path_30" data-name="Path 30" d="M274.481,125.355c0,5.6,3.933,7.874,8.786,5.073s8.786-9.615,8.786-15.219Z" fill="#80c19c"/>
            <path id="Path_31" data-name="Path 31" d="M292.052,115.209c0,5.6,3.934,7.874,8.786,5.073s8.787-9.615,8.787-15.218Z" fill="#e6e6e6"/>
            <path id="Path_32" data-name="Path 32" d="M309.627,105.063c0,5.6,3.933,7.875,8.786,5.073s8.786-9.615,8.786-15.218Z" fill="#80c19c"/>
            <path id="Path_33" data-name="Path 33" d="M344.77,84.774c0,5.6,3.934,7.875,8.787,5.073s8.786-9.615,8.786-15.218Z" fill="#80c19c"/>
            <path id="Path_34" data-name="Path 34" d="M327.2,94.918c0,5.6,3.934,7.874,8.786,5.072s8.787-9.615,8.787-15.218Z" fill="#e6e6e6"/>
          </g>
        </g>
        <g id="Group_8" data-name="Group 8">
          <g id="Group_6" data-name="Group 6">
            <path id="Path_35" data-name="Path 35" d="M123.125,249.078a.486.486,0,0,1-.23-.057.5.5,0,0,1-.213-.673L134.868,224.9a.5.5,0,0,1,.854-.055l8.124,11.725a.5.5,0,1,1-.822.571l-7.652-11.044-11.8,22.716A.5.5,0,0,1,123.125,249.078Z" fill="#526d60"/>
          </g>
          <path id="Path_36" data-name="Path 36" d="M121.228,248.3l24.1-13.916c1.2-.69,2.165-.13,2.165,1.25V249.4a4.784,4.784,0,0,1-2.165,3.75l-24.1,13.916c-1.195.69-2.165.131-2.165-1.25V252.051A4.788,4.788,0,0,1,121.228,248.3Z" fill="#80c19c"/>
          <g id="Group_7" data-name="Group 7">
            <path id="Path_37" data-name="Path 37" d="M122.085,257.86c0-2.854,1.467-5.89,3.276-6.935s3.276.3,3.276,3.153-1.468,5.89-3.276,6.935S122.085,260.714,122.085,257.86Zm5.112-2.952c0-1.731-.811-2.414-1.836-1.821a4.684,4.684,0,0,0-1.836,3.942c0,1.732.809,2.414,1.836,1.822A4.693,4.693,0,0,0,127.2,254.908Z" fill="#fafafa"/>
            <path id="Path_38" data-name="Path 38" d="M134.036,249.436a5.669,5.669,0,0,1-2.2,4.6l-.945.545v3.048l-1.44.831v-9.7l2.385-1.377C133.075,246.666,134.036,247.593,134.036,249.436Zm-1.439.831c0-.707-.323-1.061-.765-.8l-.945.545V252.5l.945-.545A2.044,2.044,0,0,0,132.6,250.267Z" fill="#fafafa"/>
            <path id="Path_39" data-name="Path 39" d="M138.716,250.974v2.133l-3.96,2.287v-9.7l3.915-2.26v2.134L136.2,247V248.6l2.25-1.3v2.106l-2.25,1.3v1.718Z" fill="#fafafa"/>
            <path id="Path_40" data-name="Path 40" d="M144.476,240.083v9.7l-1.079.624-2.431-3.863v5.265l-1.439.832v-9.7l1.08-.623,2.429,3.861v-5.264Z" fill="#fafafa"/>
          </g>
        </g>
      </g>
    </g>
    <g id="Speech_Bubble" data-name="Speech Bubble" transform="translate(-119.325 90.575)">
      <g id="Speech_Bubble-2" data-name="Speech Bubble" transform="translate(413.543 71.568)">
        <g id="Speech_Bubble-3" data-name="Speech Bubble">
          <path id="Path_341" data-name="Path 341" d="M427.5,123.264l2.312-4.348-1.861-5.371v-3.287l5.694,3.287v3.287l-2.448,4.241a.359.359,0,0,1-.167.148v0Z" transform="translate(-417.284 -81.936)" fill="#80c19c"/>
          <path id="Path_342" data-name="Path 342" d="M427.5,123.264l2.312-4.348-1.861-5.371v-3.287l5.694,3.287v3.287l-2.448,4.241a.359.359,0,0,1-.167.148v0Z" transform="translate(-417.284 -81.936)" opacity="0.2"/>
          <path id="Path_343" data-name="Path 343" d="M413.543,75.735a3.774,3.774,0,0,1,1.707-2.957l1.39-.8a3.773,3.773,0,0,1,3.415,0l17.319,9.979a3.774,3.774,0,0,1,1.707,2.957v23.455a3.774,3.774,0,0,1-1.707,2.957l-1.39.8a3.773,3.773,0,0,1-3.415,0l-6.236-3.591-2.443,4.232a.365.365,0,0,1-.66-.063l-2.582-7.453-5.4-3.1a3.773,3.773,0,0,1-1.707-2.957Z" transform="translate(-413.543 -71.568)" fill="#80c19c"/>
          <path id="Path_344" data-name="Path 344" d="M446.153,112.636a3.774,3.774,0,0,1-1.707,2.957l-1.39.8a3.816,3.816,0,0,1-3.123.138c.8.3,1.416-.149,1.416-1.123V91.956a3.49,3.49,0,0,0-.5-1.683l4.8-2.774a3.487,3.487,0,0,1,.5,1.682Z" transform="translate(-420.615 -75.837)" opacity="0.2"/>
          <path id="Path_345" data-name="Path 345" d="M413.62,75.252c.2-.725.859-.956,1.648-.5l17.322,9.982a3.384,3.384,0,0,1,1.2,1.274l4.8-2.771a3.448,3.448,0,0,0-1.2-1.274l-17.315-9.982a3.8,3.8,0,0,0-3.417,0l-1.393.8A3.763,3.763,0,0,0,413.62,75.252Z" transform="translate(-413.564 -71.569)" fill="#fff" opacity="0.5"/>
        </g>
        <g id="Check" transform="translate(3.328 16.528)">
          <path id="Path_346" data-name="Path 346" d="M422.705,107.292a1.551,1.551,0,0,1-1.4-.886l-3.073-6.536a1.543,1.543,0,0,1,2.793-1.313l2.058,4.379,7.088-8.253a1.543,1.543,0,1,1,2.341,2.011l-8.641,10.061A1.544,1.544,0,0,1,422.705,107.292Z" transform="translate(-418.09 -94.147)" fill="#fafafa"/>
        </g>
      </g>
    </g>
    <ellipse id="Shadow" cx="41.961" cy="24.226" rx="41.961" ry="24.226" transform="translate(133.824 385.382)" fill="#ebebeb"/>
    <g id="Character_2" data-name="Character 2" transform="translate(135.59 203.7)">
      <g id="Character" transform="translate(0 0)">
        <path id="Path_150" data-name="Path 150" d="M440.091,365.115c2.394,1.378,5.089,1.352,8.018.239l1.944-15.73-10.132-2.33Z" transform="translate(-425.398 -166.573)" fill="#b16668"/>
        <path id="Path_151" data-name="Path 151" d="M410.594,358.118c1.922,4.5,4.734,3.034,9,.313l.284-15.536-11.043-.756Z" transform="translate(-366.686 -166.15)" fill="#b16668"/>
        <g id="Group_110" data-name="Group 110" transform="translate(12.82 194.415)">
          <path id="Path_152" data-name="Path 152" d="M450.946,381.384a4.385,4.385,0,0,1-.159,2.674c-.331.487-2.067,1.978-5.362,2.116-3.148.131-5.941-.376-7.752-1.6a5.434,5.434,0,0,1-2.785-4.34c-.12-1.794.13-3.516-.682-4.919-.75-1.3-1.765-2.565-2.018-3.264a8.977,8.977,0,0,1-.11-3.846Z" transform="translate(-431.906 -362.705)" fill="#263238"/>
          <path id="Path_153" data-name="Path 153" d="M442.832,365.916a8.493,8.493,0,0,0,.324,2,18.244,18.244,0,0,0,1.807,3.995,16.118,16.118,0,0,0,1.256,1.887c.916,1.159,2.069,2.123,3.043,3.237a6.43,6.43,0,0,1,1.826,3.915c.061,2.468-2.64,3.225-4.71,3.531a15.124,15.124,0,0,1-6.682-.535,6.149,6.149,0,0,1-4.361-5.045c-.094-.687-.03-1.386-.091-2.077a9.685,9.685,0,0,0-1.788-4.368,13.036,13.036,0,0,1-1.4-2.39c-.6-1.545-.031-3.246.425-4.753.394-1.3.695-2.867,1.154-2.73-.006.265.007.843.007.843.143.29.477.493.563.828a5.937,5.937,0,0,0,.344,1.026,2.675,2.675,0,0,0,1.057,1.24l.175-2.789a.975.975,0,0,1,1.036-1.132,17.512,17.512,0,0,1,5.285-.28.971.971,0,0,1,.7.33,1.021,1.021,0,0,1,.1.634A23.691,23.691,0,0,0,442.832,365.916Z" transform="translate(-431.797 -362.214)" fill="#3d4642"/>
          <path id="Path_154" data-name="Path 154" d="M446.52,373.169c-.9-.714-2.953-.785-4.081-.7a6.82,6.82,0,0,0-3.229,1.026.729.729,0,0,1-.938-.1h0a.686.686,0,0,1,.1-1.045,6.937,6.937,0,0,1,3.636-1.225c2.773-.113,3.571.385,3.571.385S446.815,372.36,446.52,373.169Z" transform="translate(-433.037 -362.944)" fill="#f5f5f5"/>
          <path id="Path_155" data-name="Path 155" d="M444.711,375.994c-1.134-.717-3.4-.686-4.525-.6a6.4,6.4,0,0,0-3.144,1.09.73.73,0,0,1-.939-.1h0a.686.686,0,0,1,.1-1.045,7.2,7.2,0,0,1,3.716-1.329c2.773-.113,3.477.474,3.477.474A2.29,2.29,0,0,1,444.711,375.994Z" transform="translate(-429.193 -363.181)" fill="#f5f5f5"/>
          <path id="Path_156" data-name="Path 156" d="M443.619,368.2a6.863,6.863,0,0,1,3.47.4c.479.287.777,1.068.458,1.253a6.4,6.4,0,0,0-3.071-.515,9.14,9.14,0,0,0-3.016.733c-.24.1-.524.237-.774.365a.657.657,0,0,1-.9-.31h0a.616.616,0,0,1,.263-.784A8.881,8.881,0,0,1,443.619,368.2Z" transform="translate(-435.671 -362.702)" fill="#f5f5f5"/>
        </g>
        <g id="Group_111" data-name="Group 111" transform="translate(41.706 187.351)">
          <path id="Path_157" data-name="Path 157" d="M418.577,370.272a2.986,2.986,0,0,1-.188,2.19c-.326.632-3.734,2.423-8.246,1.984a18.847,18.847,0,0,1-9.254-3.547c-1.69-1.193-3.479-1.459-5.714-1.654s-3.933-.932-4.394-1.994a4.956,4.956,0,0,1,.16-2.848Z" transform="translate(-390.499 -355.329)" fill="#263238"/>
          <path id="Path_158" data-name="Path 158" d="M400.784,355.574a9.907,9.907,0,0,0,1.192-.366.977.977,0,0,1,.671-.058c.285.117.388.463.456.764a11.211,11.211,0,0,0,.435,1.979,4.924,4.924,0,0,0,1.229,1.37,20.784,20.784,0,0,0,3.549,2.441c1.454.838,2.882,1.5,4.388,2.228,1.535.746,3.587,1.236,4.779,2.092a3.262,3.262,0,0,1-.178,5.387c-1.774.971-6.4,1.944-11.168.438-2.6-.821-5.427-3.708-8.859-4.08-2.184-.237-5.094-.508-6.454-2.21-.5-.753-.133-2.9.2-5.432.294-2.27.53-5.816,1.253-5.6,0,0,.29.831.346.92a6.653,6.653,0,0,0,.622.794,7.367,7.367,0,0,0,.624.564,11.026,11.026,0,0,0,.789.774,2.205,2.205,0,0,0,1.272.495,1.18,1.18,0,0,0,.632-.152c.365-.221.4-.71.7-1.021a3.542,3.542,0,0,1,1.2-.818,6.8,6.8,0,0,1,1.963-.45C400.547,355.618,400.668,355.6,400.784,355.574Z" transform="translate(-390.58 -354.517)" fill="#3d4642"/>
          <path id="Path_159" data-name="Path 159" d="M410,360.879a2.03,2.03,0,0,0-1.583-1.13,5.885,5.885,0,0,0-3.891,1.335.817.817,0,0,0,.078,1.352h0a.816.816,0,0,0,.935-.075A6.243,6.243,0,0,1,410,360.879Z" transform="translate(-394.276 -354.943)" fill="#f5f5f5"/>
          <path id="Path_160" data-name="Path 160" d="M407.35,362.874a2.337,2.337,0,0,0-1.885-1.044,7.285,7.285,0,0,0-4.256,1.449.8.8,0,0,0,.071,1.307h0a.779.779,0,0,0,.9-.077A6.258,6.258,0,0,1,407.35,362.874Z" transform="translate(-388.586 -355.117)" fill="#f5f5f5"/>
          <path id="Path_161" data-name="Path 161" d="M403.587,364.689a2.617,2.617,0,0,0-1.962-.95,7,7,0,0,0-4.079,1.47.8.8,0,0,0,.071,1.308h0a.781.781,0,0,0,.9-.078A5.983,5.983,0,0,1,403.587,364.689Z" transform="translate(-381.463 -355.274)" fill="#f5f5f5"/>
        </g>
        <g id="Group_112" data-name="Group 112" transform="translate(42.432 37.346)">
          <path id="Path_162" data-name="Path 162" d="M359.079,210.528c1.748-1.609,3.581-5.459,5.007-3.346.963,1.426-1.029,2.387-.9,4.19s5.59-2.472,7.879-4.073c1.519-1.062,5.039,2.266,3.627,5.879a11.352,11.352,0,0,1-6.84,6.746c-3.793,1.6-5.771,2.407-10.532,4.544-2.129-3.016-3.612-6-3.091-8.9C357.941,213.408,357.573,211.915,359.079,210.528Z" transform="translate(-314.036 -192.363)" fill="#80c19c"/>
          <path id="Path_163" data-name="Path 163" d="M359.079,210.528c1.748-1.609,3.581-5.459,5.007-3.346.963,1.426-1.029,2.387-.9,4.19s5.59-2.472,7.879-4.073c1.519-1.062,5.039,2.266,3.627,5.879a11.352,11.352,0,0,1-6.84,6.746c-3.793,1.6-5.771,2.407-10.532,4.544-2.129-3.016-3.612-6-3.091-8.9C357.941,213.408,357.573,211.915,359.079,210.528Z" transform="translate(-314.036 -192.363)" fill="#fff" opacity="0.7"/>
          <path id="Path_164" data-name="Path 164" d="M359.079,210.528c1.748-1.609,3.581-5.459,5.007-3.346.963,1.426-1.029,2.387-.9,4.19s5.59-2.472,7.879-4.073c1.519-1.062,5.039,2.266,3.627,5.879a11.352,11.352,0,0,1-6.84,6.746c-3.793,1.6-5.771,2.407-10.532,4.544-2.129-3.016-3.612-6-3.091-8.9C357.941,213.408,357.573,211.915,359.079,210.528Z" transform="translate(-314.036 -192.363)" opacity="0.1"/>
          <path id="Path_165" data-name="Path 165" d="M368.887,213.874c-.039,1.613-.444,4.18-2.753,5.468a3.737,3.737,0,0,0,2.753-5.468Z" transform="translate(-319.391 -192.963)" opacity="0.1"/>
          <path id="Path_166" data-name="Path 166" d="M372.509,191.221c2.067,2.724,1.215,1.625,1.854,5.823.515,3.389,7.632,35.981,14.075,37.333,2.828.593,23.225-8.736,28.171-11.463A23.809,23.809,0,0,1,412.7,214.3c-5.927,2.318-16.143,4.6-19.816,5.742-1.7-4.737-3.773-9.6-5.722-14.379C383.45,196.562,381.355,190.092,372.509,191.221Z" transform="translate(-372.509 -191.093)" fill="#c6aa80"/>
        </g>
        <g id="Group_113" data-name="Group 113" transform="translate(12.841 91.046)">
          <path id="Path_167" data-name="Path 167" d="M410.137,251.162c0,7.233-.5,49.288-.5,49.288-.176,2.082-2.18,5.782-2.335,13.279-.226,10.871.2,42.822.2,42.822s6.793,2.49,11.55.508c0,0,5.054-41.2,6.411-51.962,1.184-9.391,3.594-30.832,3.594-30.832l3.355,28.475a85.075,85.075,0,0,0-.395,13.666c.354,4.978,4.665,32.859,4.665,32.859s7.189,1.509,12.369-.24c0,0-.28-44.867-.193-49.434.1-5.207-2.171-49.993-2.171-49.993Z" transform="translate(-407.237 -249.597)" fill="#b6bc83"/>
          <path id="Path_168" data-name="Path 168" d="M410.137,251.162c0,7.233-.5,49.288-.5,49.288-.176,2.082-2.18,5.782-2.335,13.279-.226,10.871.2,42.822.2,42.822s6.793,2.49,11.55.508c0,0,5.054-41.2,6.411-51.962,1.184-9.391,3.594-30.832,3.594-30.832l3.355,28.475a85.075,85.075,0,0,0-.395,13.666c.354,4.978,4.665,32.859,4.665,32.859s7.189,1.509,12.369-.24c0,0-.28-44.867-.193-49.434.1-5.207-2.171-49.993-2.171-49.993Z" transform="translate(-407.237 -249.597)" opacity="0.4"/>
          <path id="Path_169" data-name="Path 169" d="M416.763,275.453l.593-4.431c2.142-.371,7.5-3.9,10.658-6.951a25.647,25.647,0,0,1-8.848,8.557l.451,28.168Z" transform="translate(-394.944 -250.786)" opacity="0.15"/>
        </g>
        <g id="Group_117" data-name="Group 117" transform="translate(0 36.324)">
          <path id="Path_170" data-name="Path 170" d="M422.562,191.044c-1.609.387-5.49.862-8.335,1.677-2.1.6-2.979,3.16-3.416,5.086-1.4,6.166-1.643,19.1-1.643,19.1l-.08,30.124c5.216,3.8,26.655,5.729,37.632-2.287,0,0-1.343-35.876-1.343-41.46s-3.1-12.292-11.67-12.791Z" transform="translate(-393.763 -190.021)" fill="#c6aa80"/>
          <path id="Path_171" data-name="Path 171" d="M421.035,191.217h0a1.988,1.988,0,0,0-1.4,2.711,27.979,27.979,0,0,0,4.589,7.214c3.124,3.56,9.731,6.4,9.731,6.4s3.276-3.684,2.681-7.865-2.3-7.7-3.565-8.678a3.369,3.369,0,0,0-1.089-.487v-.482a13.177,13.177,0,0,1,5.55.662c2.235.994,6.188,2.65,7.44,9.522s2.33,45.457,2.33,45.457-13.248,12.006-39.33,3.229V217.1s.186-14.871,4.114-24.561h0l8.941-1.84Z" transform="translate(-393.317 -189.979)" fill="#80c19c"/>
          <g id="Group_114" data-name="Group 114" transform="translate(14.653 5.041)">
            <path id="Path_172" data-name="Path 172" d="M416.8,235.572c3.238,2.328,7.585,5.329,10.748,7.356.92.589,1.738,1.1,2.4,1.479.807.466,2.063-.169,2.976-.357,2.45-.5,4.009-.109,6.319,0,1.808.084,2.8-.415,2.972,0a2.057,2.057,0,0,1-1.262,2.5,14.4,14.4,0,0,1-3.3.9,19.131,19.131,0,0,0,5.885,1.7c4.161.522,5.9,1.8,3.184,5.033a40.4,40.4,0,0,1-12.4,1.669c-.938-.4-1.939-.868-3.026-1.434-1.523-.793-4.664-2.572-7.606-4.17-1.381-.75-2.719-1.46-3.825-2.01-.988-.491-2.017-.987-3.06-1.484Z" transform="translate(-416.798 -198.764)" opacity="0.1"/>
            <path id="Path_173" data-name="Path 173" d="M448.847,195.471c4.361,9.589-2.285,17.478-2.285,17.478l-.87,2.61C445.871,211.652,446.526,202.71,448.847,195.471Z" transform="translate(-445.625 -195.471)" opacity="0.1"/>
          </g>
          <path id="Path_174" data-name="Path 174" d="M447.348,232.7c-2.138,3.844-12.078,6.143-20.648,6.277s-15.695-2.327-18.143-4.622v-3.73c2.448,2.295,9.572,4.757,18.143,4.622s18.363-2.47,20.5-6.313Z" transform="translate(-393.904 -193.178)" fill="#fafafa"/>
          <path id="Path_175" data-name="Path 175" d="M408.291,241.872c2.448,2.295,9.572,4.757,18.143,4.622s18.754-2.524,20.892-6.367l-.131-3.752c-2.138,3.843-12.19,6.218-20.761,6.353s-15.695-2.328-18.143-4.622Z" transform="translate(-393.638 -193.789)" fill="#fafafa"/>
          <path id="Path_176" data-name="Path 176" d="M419.764,209.116l.6,43.737q1-.205,1.925-.448Z" transform="translate(-379.129 -191.551)" opacity="0.15"/>
          <g id="Group_116" data-name="Group 116" transform="translate(28.752 32.688)">
            <path id="Path_177" data-name="Path 177" d="M431.354,228.607l-30.408,2.049-15.46,34.27,29.053-2.692Z" transform="translate(-385.486 -225.839)" fill="#263238"/>
            <path id="Path_178" data-name="Path 178" d="M429.474,254.437a6.88,6.88,0,0,1-5.432,4.34,15.136,15.136,0,0,1-7.9-1.474l1.293-2.866Z" transform="translate(-411.747 -227.96)" opacity="0.15"/>
            <path id="Path_179" data-name="Path 179" d="M408.234,232.327l.451-1.057c.25-.585-1.444-.938-3.782-.789l-4.477.285c-2.338.149-4.436.743-4.685,1.327l-.452,1.057Z" transform="translate(-371.841 -225.99)" opacity="0.15"/>
            <g id="Group_115" data-name="Group 115" transform="translate(23.243)">
              <path id="Path_180" data-name="Path 180" d="M408.682,228.151c.157-.365-.511-.6-1.494-.52l-1.778.141s.963-2.29-2.945-2.177-5.248,2.666-5.248,2.666l-1.9.164a3.443,3.443,0,0,0-2.246.811l-.346.645,15.664-1.054S408.525,228.515,408.682,228.151Z" transform="translate(-392.724 -225.592)" fill="#80c19c"/>
              <path id="Path_181" data-name="Path 181" d="M408.682,228.151c.157-.365-.511-.6-1.494-.52l-1.778.141s.963-2.29-2.945-2.177-5.248,2.666-5.248,2.666l-1.9.164a3.443,3.443,0,0,0-2.246.811l-.346.645,15.664-1.054S408.525,228.515,408.682,228.151Z" transform="translate(-392.724 -225.592)" opacity="0.3"/>
              <path id="Path_182" data-name="Path 182" d="M395.119,232.1c.207-.486,1.7-.974,3.535-1.212.025-.061.05-.122.07-.171.2-.51.04-.872-1.062-.8l-.008-.438,10.846-.641-.522.374c-1.429.066-2.032.139-2.417,1.039-.032.073-.055.134-.084.206,1.685.02,2.791.339,2.588.816l-.452,1.058-12.944.823Z" transform="translate(-394.301 -225.858)" fill="#80c19c"/>
              <path id="Path_183" data-name="Path 183" d="M395.119,232.1c.207-.486,1.7-.974,3.535-1.212.025-.061.05-.122.07-.171.2-.51.04-.872-1.062-.8l-.008-.438,10.846-.641-.522.374c-1.429.066-2.032.139-2.417,1.039-.032.073-.055.134-.084.206,1.685.02,2.791.339,2.588.816l-.452,1.058-12.944.823Z" transform="translate(-394.301 -225.858)" opacity="0.4"/>
            </g>
          </g>
          <path id="Path_184" data-name="Path 184" d="M418.851,242.515c.919.588,1.738,1.1,2.4,1.478.808.467,2.063-.169,2.977-.357,2.45-.5,4.008-.108,6.319,0,1.808.084,2.8-.415,2.972,0a2.057,2.057,0,0,1-1.263,2.5,14.428,14.428,0,0,1-3.3.9,19.1,19.1,0,0,0,5.885,1.7c4.668.586,6.309,2.116,2,6.3-2.7,2.621-6.473,3.013-14.244-1.031-1.524-.793-4.664-2.571-7.606-4.169A10.42,10.42,0,0,1,418.851,242.515Z" transform="translate(-391.796 -194.293)" fill="#80c19c"/>
          <path id="Path_185" data-name="Path 185" d="M418.851,242.515c.919.588,1.738,1.1,2.4,1.478.808.467,2.063-.169,2.977-.357,2.45-.5,4.008-.108,6.319,0,1.808.084,2.8-.415,2.972,0a2.057,2.057,0,0,1-1.263,2.5,14.428,14.428,0,0,1-3.3.9,19.1,19.1,0,0,0,5.885,1.7c4.668.586,6.309,2.116,2,6.3-2.7,2.621-6.473,3.013-14.244-1.031-1.524-.793-4.664-2.571-7.606-4.169A10.42,10.42,0,0,1,418.851,242.515Z" transform="translate(-391.796 -194.293)" fill="#fff" opacity="0.7"/>
          <path id="Path_186" data-name="Path 186" d="M418.851,242.515c.919.588,1.738,1.1,2.4,1.478.808.467,2.063-.169,2.977-.357,2.45-.5,4.008-.108,6.319,0,1.808.084,2.8-.415,2.972,0a2.057,2.057,0,0,1-1.263,2.5,14.428,14.428,0,0,1-3.3.9,19.1,19.1,0,0,0,5.885,1.7c4.668.586,6.309,2.116,2,6.3-2.7,2.621-6.473,3.013-14.244-1.031-1.524-.793-4.664-2.571-7.606-4.169A10.42,10.42,0,0,1,418.851,242.515Z" transform="translate(-391.796 -194.293)" opacity="0.1"/>
          <path id="Path_187" data-name="Path 187" d="M443.956,203.659c2.71-9.641,6.482-10.445,12.118-10.9,5.838,10.254-1.524,18.98-1.524,18.98l-5.334,15.989c.827.889,9.731,7.229,15.145,10.7-1.561,1.274-3.863,5.18-3.863,7.315-1.381-.751-2.719-1.46-3.825-2.01-8.21-4.084-19.182-8.426-19.36-12.585S441.1,213.809,443.956,203.659Z" transform="translate(-437.307 -190.208)" fill="#c6aa80"/>
        </g>
        <g id="Group_128" data-name="Group 128" transform="translate(12.304)">
          <g id="Group_126" data-name="Group 126" transform="translate(0)">
            <g id="Group_118" data-name="Group 118" transform="translate(22.392 14.353)">
              <path id="Path_188" data-name="Path 188" d="M427.211,171.736a1.184,1.184,0,1,1-1.183-1.233A1.2,1.2,0,0,1,427.211,171.736Z" transform="translate(-423.415 -166.409)" fill="#263238"/>
              <path id="Path_189" data-name="Path 189" d="M428.747,167.409,426.3,168.76a1.467,1.467,0,0,1,.571-1.95A1.364,1.364,0,0,1,428.747,167.409Z" transform="translate(-426.134 -166.092)" fill="#263238"/>
              <path id="Path_190" data-name="Path 190" d="M422.272,179.727l2.736,1.027a1.435,1.435,0,0,1-1.859.907A1.531,1.531,0,0,1,422.272,179.727Z" transform="translate(-418.771 -167.167)" fill="#f8aead"/>
              <path id="Path_191" data-name="Path 191" d="M416.475,168.346l-2.233-1.72a1.353,1.353,0,0,1,1.941-.3A1.481,1.481,0,0,1,416.475,168.346Z" transform="translate(-403.218 -166.043)" fill="#263238"/>
              <path id="Path_192" data-name="Path 192" d="M417.376,171.739a1.145,1.145,0,1,1-1.145-1.192A1.163,1.163,0,0,1,417.376,171.739Z" transform="translate(-404.623 -166.413)" fill="#263238"/>
              <path id="Path_193" data-name="Path 193" d="M417.325,169.688l.393,7.209,3.764-1.283Z" transform="translate(-410.784 -166.343)" fill="#f8aead"/>
            </g>
            <g id="Group_121" data-name="Group 121" transform="translate(0 16.272)">
              <g id="Group_119" data-name="Group 119" transform="translate(0 0.504)">
                <path id="Path_194" data-name="Path 194" d="M451.03,169.927l-16.86-1.244c-3.258,2.467-9.32,7.663-9.314,9.1h0v1h0a.33.33,0,0,0,.034.124c.6,1.136,2.745,1.834,6.1,1.891,3.972.068,10.135-.3,11.756-1.687,2.442-2.1,8.288-8.235,8.288-8.235l-.85-.063C450.7,170.267,451.03,169.927,451.03,169.927Z" transform="translate(-424.851 -168.683)" fill="#80c19c"/>
                <path id="Path_195" data-name="Path 195" d="M451.03,169.927l-16.86-1.244c-3.258,2.467-9.32,7.663-9.314,9.1h0v1h0a.33.33,0,0,0,.034.124c.6,1.136,2.745,1.834,6.1,1.891,3.972.068,10.135-.3,11.756-1.687,2.442-2.1,8.288-8.235,8.288-8.235l-.85-.063C450.7,170.267,451.03,169.927,451.03,169.927Z" transform="translate(-424.851 -168.683)" opacity="0.2"/>
                <path id="Path_196" data-name="Path 196" d="M434.174,169.717c-3.4,2.578-9.877,8.139-9.28,9.275s2.745,1.834,6.1,1.891c3.972.068,10.135-.3,11.756-1.687,2.442-2.1,8.288-8.235,8.288-8.235Z" transform="translate(-424.856 -168.768)" fill="#80c19c"/>
                <path id="Path_197" data-name="Path 197" d="M434.174,169.717c-3.4,2.578-9.877,8.139-9.28,9.275s2.745,1.834,6.1,1.891c3.972.068,10.135-.3,11.756-1.687,2.442-2.1,8.288-8.235,8.288-8.235Z" transform="translate(-424.856 -168.768)" opacity="0.4"/>
              </g>
              <g id="Group_120" data-name="Group 120" transform="translate(9.317)">
                <path id="Path_198" data-name="Path 198" d="M441.409,169.587c-.054.489,1.667,1.507,1.667,1.507l-.481-2.96Z" transform="translate(-441.408 -168.134)" fill="#80c19c"/>
                <path id="Path_199" data-name="Path 199" d="M441.409,169.587c-.054.489,1.667,1.507,1.667,1.507l-.481-2.96Z" transform="translate(-441.408 -168.134)" opacity="0.3"/>
              </g>
            </g>
            <g id="Group_124" data-name="Group 124" transform="translate(8.161 1.37)">
              <g id="Group_122" data-name="Group 122" transform="translate(0)">
                <path id="Path_200" data-name="Path 200" d="M437.828,158.989s-2.633.366-3.6,2.351c-.84,1.727-.535,5.894.584,10.435a41.96,41.96,0,0,0,2.832,8.535,3.468,3.468,0,0,0,2.01,1.61l-.131-5.389-.195-3.755s2.41-3.292,2.675-5.989c.341-3.471-.39-4.892-.39-4.892Z" transform="translate(-432.24 -152.481)" fill="#263238"/>
                <path id="Path_201" data-name="Path 201" d="M412.192,163.766A10.063,10.063,0,0,0,422.287,173.8a10.068,10.068,0,0,0-.065-20.126A10.062,10.062,0,0,0,412.192,163.766Z" transform="translate(-402.351 -152.044)" fill="#263238"/>
                <path id="Path_202" data-name="Path 202" d="M420.527,172.148c-.905.785-1.642-1.247-2.4-2.04s-3.245-1.871-4.473.74c-1.252,2.66,1.083,6.4,2.993,7.135a2.724,2.724,0,0,0,3.243-.994v11.942c2.864,5.159,7.919,5,10.616,4.711s3.292-3.1,1.319-5.361l-.021-3.694a21.243,21.243,0,0,0,4.535.218c2.473-.391,3.765-2.256,4.507-4.936,1.191-4.3,1.671-11.541.015-19.9-2.769-2.141-12.374-1.787-18.186,1.9C423.1,169.279,421.433,171.363,420.527,172.148Z" transform="translate(-413.296 -152.453)" fill="#ffa8a7"/>
                <path id="Path_203" data-name="Path 203" d="M435.071,155.761a11.81,11.81,0,0,0-4.08-2.814,10.365,10.365,0,0,0-3.933-.837c-1.755.009-3.5-.259-5.256-.2-3.046.1-6.723,1.336-8.1,4.3-.629,1.355-.737,2.783.507,3.72a8.584,8.584,0,0,0,3.714,1.386c2.256.392,4.493.889,6.764,1.19a20.22,20.22,0,0,0,7.33-.1,9.777,9.777,0,0,0,3.186-1.36,8.635,8.635,0,0,0,1.373-1.146c.161-.165.588-.5.64-.732.057-.249-.242-.67-.358-.893A11.193,11.193,0,0,0,435.071,155.761Z" transform="translate(-408.55 -151.899)" fill="#263238"/>
                <path id="Path_204" data-name="Path 204" d="M434.46,186.482s-5.527-1.094-7.461-2.115a6.359,6.359,0,0,1-2.678-2.632,8.7,8.7,0,0,0,1.526,3.11c1.417,1.8,8.616,3.106,8.616,3.106Z" transform="translate(-415.957 -154.349)" fill="#f89291"/>
              </g>
              <g id="Group_123" data-name="Group 123" transform="translate(13.826 12.804)">
                <path id="Path_205" data-name="Path 205" d="M427.629,171.255a1.108,1.108,0,1,1-1.111-1.149A1.126,1.126,0,0,1,427.629,171.255Z" transform="translate(-423.95 -166.197)" fill="#263238"/>
                <path id="Path_206" data-name="Path 206" d="M429.192,167.086l-2.466,1.107a1.419,1.419,0,0,1,.7-1.833A1.32,1.32,0,0,1,429.192,167.086Z" transform="translate(-426.617 -165.88)" fill="#263238"/>
                <path id="Path_207" data-name="Path 207" d="M421.556,179.575l3.533,1.313a1.851,1.851,0,0,1-2.393,1.177A1.973,1.973,0,0,1,421.556,179.575Z" transform="translate(-417.769 -166.975)" fill="#b16668"/>
                <path id="Path_208" data-name="Path 208" d="M424.2,182.147a1.79,1.79,0,0,0,.978.073,1.712,1.712,0,0,0-1.708-1.64,1.694,1.694,0,0,0-.479.077A1.929,1.929,0,0,0,424.2,182.147Z" transform="translate(-419.273 -167.057)" fill="#f8aead"/>
                <path id="Path_209" data-name="Path 209" d="M417.825,167.709l-2.556-.945a1.309,1.309,0,0,1,1.706-.833A1.432,1.432,0,0,1,417.825,167.709Z" transform="translate(-404.903 -165.848)" fill="#263238"/>
                <path id="Path_210" data-name="Path 210" d="M417.707,170.9a1.108,1.108,0,1,1-1.111-1.15A1.125,1.125,0,0,1,417.707,170.9Z" transform="translate(-404.921 -166.168)" fill="#263238"/>
                <path id="Path_211" data-name="Path 211" d="M416.971,167.875l.41,8.873,4.483-1.187Z" transform="translate(-410.435 -166.014)" fill="#fe9493"/>
              </g>
            </g>
            <g id="Group_125" data-name="Group 125" transform="translate(8.591)">
              <path id="Path_212" data-name="Path 212" d="M412.335,164.029a14.749,14.749,0,0,0,.718,4.187,5.221,5.221,0,0,1,1.031-1.173,24.947,24.947,0,0,1,7.582-4.339h.013c6.367-2.458,13.8-2.842,19.736-.748a13.313,13.313,0,0,0-.792-3.564c-2.167-5.646-6.544-8.6-13.537-7.877C418.883,151.366,412.119,155.92,412.335,164.029Z" transform="translate(-412.33 -150.406)" fill="#80c19c"/>
              <path id="Path_213" data-name="Path 213" d="M416.443,159.265c1.9-.641,6.761-1.018,8.181-.572a8.737,8.737,0,0,0,1.705-1.881c.665-1.055.438-2.382-.185-2.653s-.665.548-3.081,1.744a3.984,3.984,0,0,0,.2-2.439c-.393-.98-1.223.78-3.019,1.914S416.673,157.09,416.443,159.265Z" transform="translate(-401.423 -150.634)" fill="#263238"/>
            </g>
          </g>
        </g>
      </g>
    </g>
    <g id="Shadow-2" data-name="Shadow" transform="translate(93 57)">
      <path id="Path_155-2" data-name="Path 155" d="M166.009,323.788c10.107,5.822,33.809,1.587,52.941-9.458L271.488,284c19.132-11.045,26.43-24.708,16.3-30.517s-33.851-1.564-52.983,9.482l-52.453,30.284C163.219,304.292,155.9,317.966,166.009,323.788Z" fill="#ebebeb"/>
    </g>
    <g id="Character-2" data-name="Character" transform="translate(93 57)">
      <g id="Group_137" data-name="Group 137">
        <path id="Path_156-2" data-name="Path 156" d="M173.218,317.937,185.4,310.9l-4.062-2.345-12.186,7.035Z" fill="#80c19c"/>
        <path id="Path_157-2" data-name="Path 157" d="M197.59,303.866l12.186-7.036-4.062-2.345-12.186,7.035Z" fill="#80c19c"/>
        <path id="Path_158-2" data-name="Path 158" d="M192.585,301.025c0,5.88-4.12,13.03-9.21,15.96-2.71,1.57-5.15,1.62-6.83.44a.01.01,0,0,0-.01-.01,6.066,6.066,0,0,1-2.31-4.43,11.214,11.214,0,0,0,1.03-.53c5.09-2.93,9.21-10.08,9.21-15.96a9.127,9.127,0,0,0-.08-1.31,6.218,6.218,0,0,1,5.04-.36C191.365,295.655,192.585,297.825,192.585,301.025Z" fill="#263238"/>
        <path id="Path_159-2" data-name="Path 159" d="M193.415,288.925a1.508,1.508,0,0,1-.17-.1c-2.56-1.36-6.04-1.11-9.87,1.11-7.85,4.53-14.22,15.55-14.22,24.62,0,4.56,1.61,7.75,4.21,9.23,2.57,1.46,6.11,1.23,10.01-1.02,7.85-4.53,14.21-15.56,14.21-24.63C197.585,293.6,195.995,290.4,193.415,288.925Zm-10.04,28.06c-2.72,1.57-5.16,1.62-6.84.43-1.48-1.03-2.38-3.01-2.38-5.75,0-5.87,4.13-13.02,9.22-15.96,2.32-1.34,4.43-1.57,6.05-.88,1.94.83,3.16,3,3.16,6.2C192.585,306.9,188.465,314.055,183.375,316.985Z" fill="#37474f"/>
        <path id="Path_160-2" data-name="Path 160" d="M189.881,295.05a.984.984,0,0,1-.11-.065c-1.659-.881-3.915-.719-6.4.72-5.089,2.936-9.218,10.08-9.218,15.96,0,2.956,1.043,5.024,2.729,5.983,1.666.947,3.961.8,6.489-.661,5.089-2.937,9.212-10.087,9.212-15.966C192.585,298.077,191.554,296.009,189.881,295.05ZM183.374,314.9c-2.187,1.262-4.148,1.3-5.5.345-1.19-.828-1.913-2.42-1.913-4.622a16.388,16.388,0,0,1,7.412-12.831,5.466,5.466,0,0,1,4.863-.707c1.56.667,2.541,2.411,2.541,4.984A16.355,16.355,0,0,1,183.374,314.9Z" fill="#80c19c"/>
        <path id="Path_161-2" data-name="Path 161" d="M221.962,289.794l12.186-7.036-4.062-2.345L217.9,287.448Z" fill="#80c19c"/>
        <path id="Path_162-2" data-name="Path 162" d="M246.335,275.723l12.186-7.036-4.062-2.345-12.186,7.035Z" fill="#80c19c"/>
        <path id="Path_163-2" data-name="Path 163" d="M270.707,261.652l12.186-7.036-4.062-2.345-12.186,7.035Z" fill="#80c19c"/>
        <path id="Path_164-2" data-name="Path 164" d="M210.063,196.221c.8-.686,1.607-.4,1.8.634a3.652,3.652,0,0,1-1.1,3.119c-.8.687-1.607.4-1.8-.633A3.658,3.658,0,0,1,210.063,196.221Z" fill="#80c19c"/>
        <path id="Path_165-2" data-name="Path 165" d="M219.443,200.641l-8.155-4.707L209.5,200.24l8.174,4.718Z" fill="#80c19c"/>
        <path id="Path_166-2" data-name="Path 166" d="M218.187,200.912c.8-.686,1.607-.4,1.8.634a3.652,3.652,0,0,1-1.1,3.119c-.8.686-1.607.4-1.8-.634A3.655,3.655,0,0,1,218.187,200.912Z" fill="#80c19c"/>
        <path id="Path_167-2" data-name="Path 167" d="M280.83,240.35c.01.2.03.38.03.58,0,.4-.01.809-.04,1.22-1.62-.691-3.73-.46-6.05.879-5.09,2.941-9.22,10.091-9.22,15.96,0,2.74.9,4.721,2.38,5.75a14.5,14.5,0,0,1-1.29.82c-.16.09-.31.16-.47.24l-1.41,5.311-8.16-4.551c-2.58-1.49-4.17-4.67-4.17-9.209,0-9.071,6.36-20.09,14.21-24.63,3.88-2.24,7.39-2.471,9.96-1.04v-.011l8.04,4.481a1.356,1.356,0,0,0,.17.1Z" fill="#455a64"/>
        <path id="Path_168-2" data-name="Path 168" d="M284.81,236.249a1.356,1.356,0,0,1-.17-.1c-2.56-1.361-6.04-1.111-9.87,1.11-7.85,4.529-14.22,15.549-14.22,24.619,0,4.561,1.61,7.75,4.21,9.231,2.57,1.459,6.11,1.23,10.01-1.02,7.85-4.531,14.21-15.56,14.21-24.631C288.98,240.919,287.39,237.73,284.81,236.249Zm-10.04,28.06c-2.72,1.57-5.16,1.621-6.84.43-1.48-1.029-2.38-3.01-2.38-5.75,0-5.869,4.13-13.019,9.22-15.96,2.32-1.339,4.43-1.57,6.05-.879,1.94.83,3.16,3,3.16,6.2C283.98,254.229,279.86,261.379,274.77,264.309Z" fill="#37474f"/>
        <path id="Path_169-2" data-name="Path 169" d="M283.98,248.35c0,5.879-4.12,13.029-9.21,15.959-2.71,1.57-5.15,1.621-6.83.44a.01.01,0,0,0-.01-.01,6.064,6.064,0,0,1-2.31-4.43,11.455,11.455,0,0,0,1.03-.529c5.09-2.93,9.21-10.081,9.21-15.961a9.115,9.115,0,0,0-.08-1.309,6.218,6.218,0,0,1,5.04-.36C282.76,242.98,283.98,245.15,283.98,248.35Z" fill="#263238"/>
        <path id="Path_170-2" data-name="Path 170" d="M281.277,242.378a1.055,1.055,0,0,1-.11-.065c-1.66-.882-3.916-.72-6.4.719-5.088,2.937-9.218,10.081-9.218,15.961,0,2.956,1.044,5.024,2.729,5.983,1.666.946,3.961.8,6.489-.661,5.089-2.937,9.212-10.087,9.212-15.967C283.98,245.4,282.949,243.337,281.277,242.378Zm-6.508,19.846c-2.186,1.262-4.148,1.3-5.5.346-1.189-.828-1.913-2.42-1.913-4.623a16.384,16.384,0,0,1,7.412-12.83,5.469,5.469,0,0,1,4.864-.708c1.56.668,2.54,2.412,2.54,4.985A16.351,16.351,0,0,1,274.769,262.224Z" fill="#80c19c"/>
        <path id="Path_171-2" data-name="Path 171" d="M266.643,251.338l23-13.282c2.675-1.544-6.051-10.6-12.45-11.2a24.909,24.909,0,0,0-10.554,1.032s4.907,6.292,4.062,9.861S266.643,251.338,266.643,251.338Z" fill="#80c19c"/>
        <path id="Path_172-2" data-name="Path 172" d="M234.147,213.814s33.338,16.813,34.779,17.822.045,12.746-2.283,19.7-5.814,17.642-7.221,20.693-3.253,4.116-6.632,6.067-24.016,13.874-24.016,13.874L196.3,295.9l-12.9-7.036,3.352-21.107s34.529-18.374,39.265-21.107S244.739,231.151,234.147,213.814Z" fill="#80c19c"/>
        <path id="Path_173-2" data-name="Path 173" d="M234.147,213.814s33.338,16.813,34.779,17.822.045,12.746-2.283,19.7-5.814,17.642-7.221,20.693-3.253,4.116-6.632,6.067-24.016,13.874-24.016,13.874L196.3,295.9l-12.9-7.036,3.352-21.107s34.529-18.374,39.265-21.107S244.739,231.151,234.147,213.814Z" opacity="0.2"/>
        <path id="Path_174-2" data-name="Path 174" d="M269.566,247.334c2.981-8.065,5.245-14.748,4.859-19.251-.458-5.35-2.451-9.726-11.278-11.924s-21.182-2.168-21.182-2.168l-3.757,2.168s25.361,14.7,28.24,16.3c1.759.981,3.639,5.4.2,18.875l.59.341C267.559,251.867,268.609,249.924,269.566,247.334Z" fill="#80c19c"/>
        <path id="Path_175-2" data-name="Path 175" d="M269.566,247.334c2.981-8.065,5.245-14.748,4.859-19.251-.458-5.35-2.451-9.726-11.278-11.924s-21.182-2.168-21.182-2.168l-3.757,2.168s25.361,14.7,28.24,16.3c1.759.981,3.639,5.4.2,18.875l.59.341C267.559,251.867,268.609,249.924,269.566,247.334Z" fill="#fff" opacity="0.3"/>
        <path id="Path_176-2" data-name="Path 176" d="M250.358,223.2l4.1-2.345s-.24-14.21-6.213-17.659-26.284-1.1-26.284-1.1l-4.062,2.345Z" fill="#80c19c"/>
        <path id="Path_177-2" data-name="Path 177" d="M237.061,206.44c-1.949,1.125-1.949,2.949,0,4.073a7.8,7.8,0,0,0,7.055,0c1.948-1.125,1.948-2.948,0-4.073A7.8,7.8,0,0,0,237.061,206.44Z" fill="#f0f0f0"/>
        <path id="Path_178-2" data-name="Path 178" d="M243.3,213.231c-1.378.795-1.378,2.085,0,2.88a5.514,5.514,0,0,0,4.988,0c1.377-.795,1.377-2.085,0-2.88A5.514,5.514,0,0,0,243.3,213.231Z" fill="#f0f0f0"/>
        <path id="Path_179-2" data-name="Path 179" d="M227.591,204.625c-1.378.8-1.378,2.085,0,2.88a5.514,5.514,0,0,0,4.988,0c1.377-.795,1.378-2.084,0-2.88A5.512,5.512,0,0,0,227.591,204.625Z" fill="#f0f0f0"/>
        <path id="Path_180-2" data-name="Path 180" d="M250.946,219.068c.8-.687,1.607-.4,1.8.633a3.654,3.654,0,0,1-1.1,3.12,1.008,1.008,0,0,1-1.8-.634A3.655,3.655,0,0,1,250.946,219.068Z" fill="#80c19c"/>
        <path id="Path_181-2" data-name="Path 181" d="M260.326,223.487l-8.155-4.707-1.784,4.307,8.174,4.718Z" fill="#80c19c"/>
        <path id="Path_182-2" data-name="Path 182" d="M259.07,223.758c.8-.686,1.607-.4,1.8.634a3.652,3.652,0,0,1-1.1,3.119c-.8.687-1.607.4-1.8-.633A3.657,3.657,0,0,1,259.07,223.758Z" fill="#80c19c"/>
        <path id="Path_183-2" data-name="Path 183" d="M259.07,223.758c.8-.686,1.607-.4,1.8.634a3.652,3.652,0,0,1-1.1,3.119c-.8.687-1.607.4-1.8-.633A3.657,3.657,0,0,1,259.07,223.758Z"/>
        <path id="Path_184-2" data-name="Path 184" d="M189.435,293.025c.01.2.03.38.03.58,0,.4-.01.81-.04,1.22-1.62-.69-3.73-.46-6.05.88-5.09,2.94-9.22,10.09-9.22,15.96,0,2.74.9,4.72,2.38,5.75a14.727,14.727,0,0,1-1.29.82c-.16.09-.31.16-.47.24l-1.41,5.31-8.16-4.55c-2.58-1.49-4.17-4.67-4.17-9.21,0-9.07,6.36-20.09,14.21-24.63,3.88-2.24,7.39-2.47,9.96-1.04v-.01l8.04,4.48a1.508,1.508,0,0,0,.17.1Z" fill="#455a64"/>
        <path id="Path_185-2" data-name="Path 185" d="M165.092,277.135,159,298.242l12.186,7.036L177.5,284.3Z" fill="#80c19c"/>
        <path id="Path_186-2" data-name="Path 186" d="M165.092,277.135,159,298.242l12.186,7.036L177.5,284.3Z" opacity="0.2"/>
        <path id="Path_187-2" data-name="Path 187" d="M165.092,277.135s6.913,5.835,12.409,7.164c7.217,1.747,18.695,1.936,22.766,2.217,6.227.429,10.922.426,13.127-.366,2.851-1.024,10.51-5.447,12.629-6.67,4.062-2.345,5.789-11.551-5.4-14.071a112.7,112.7,0,0,0-23.029-2.345Z" fill="#80c19c"/>
        <path id="Path_188-2" data-name="Path 188" d="M233.966,274.427a11.344,11.344,0,0,0-.7,2.71,6.014,6.014,0,0,0-.216,2.98,5.929,5.929,0,0,0,3.365,2.629,7.531,7.531,0,0,0,5.934-1.148c2.065-1.234,3.624-2.736,6.565-3.573a14.955,14.955,0,0,0,5.807-2.635c1.631-1.31,3.809-4.929.689-5.767-3.146-.844-9.907,2.121-16.08,2.389Z" fill="#37474f"/>
        <path id="Path_189-2" data-name="Path 189" d="M233.966,270.569v4.623a3.092,3.092,0,0,0,3.94,1.788,4.127,4.127,0,0,0,2.648-3.66l.18-2.751Z" fill="#ffa8a7"/>
        <path id="Path_190-2" data-name="Path 190" d="M242.8,241.99c.033,5.752-1.615,30.6-1.615,30.6s-2.352,2.977-7.462,0l-1.734-27.761Z" fill="#37474f"/>
        <path id="Path_191-2" data-name="Path 191" d="M216,266.5l15.981-9.226a4.067,4.067,0,0,0,0-7.19l-11.919-6.881a4.781,4.781,0,0,0-4.33,0l-15.983,9.228a4.066,4.066,0,0,0,0,7.188l11.917,6.881A4.781,4.781,0,0,0,216,266.5Z" fill="#80c19c"/>
        <path id="Path_192-2" data-name="Path 192" d="M216,266.5l15.981-9.226a4.067,4.067,0,0,0,0-7.19l-11.919-6.881a4.781,4.781,0,0,0-4.33,0l-15.983,9.228a4.066,4.066,0,0,0,0,7.188l11.917,6.881A4.781,4.781,0,0,0,216,266.5Z" fill="#fff"/>
        <path id="Path_193-2" data-name="Path 193" d="M199.75,254.934l11.921,6.88a4.79,4.79,0,0,0,4.331,0l15.98-9.226a1.32,1.32,0,0,0,0-2.5l-11.919-6.881a4.781,4.781,0,0,0-4.33,0l-15.983,9.228A1.319,1.319,0,0,0,199.75,254.934Z" fill="#80c19c"/>
        <g id="Group_127-2" data-name="Group 127">
          <g id="Group_123-2" data-name="Group 123">
            <path id="Path_194-2" data-name="Path 194" d="M209.5,193.733l-2.026,8.366-8.718.529,1.883-11.6Z" fill="#ffa8a7"/>
          </g>
          <g id="Group_126-2" data-name="Group 126">
            <g id="Group_124-2" data-name="Group 124">
              <path id="Path_195-2" data-name="Path 195" d="M217.951,187.425s.948,3.548.589,3.743a6.107,6.107,0,0,1-1.9.008Z" fill="#f28f8f"/>
            </g>
            <g id="Group_125-2" data-name="Group 125">
              <path id="Path_196-2" data-name="Path 196" d="M216.327,176.131c1.407,1.651,2.682,4.358,1.7,10.982-1.082,7.26-2.423,8.1-3.506,8.8-1.4.914-7.048.429-8.638-.732-1.91-1.394-4.86-5.8-5.56-10.15-.822-5.117.894-10.787,4.653-11.748C210.259,171.931,215.136,174.734,216.327,176.131Z" fill="#ffa8a7"/>
            </g>
          </g>
        </g>
        <g id="Group_130" data-name="Group 130">
          <g id="Group_128-2" data-name="Group 128">
            <path id="Path_197-2" data-name="Path 197" d="M199.752,193.379c1.344,1.4,4.117,1.785,5.862,2.1s7.086.67,8.668-3.136.5-6.551,2.441-7.471,3.879-1.523,4.386-2.037.523-6.749-4.688-9.957-13.189-4.035-18.439,2.6C193.96,180.554,195.63,189.085,199.752,193.379Z" fill="#c6aa80"/>
          </g>
          <g id="Group_129" data-name="Group 129">
            <path id="Path_198-2" data-name="Path 198" d="M204.983,195.535c1.346.113,5.619-.56,6.9-2.316s1.809-4.9,1.96-6.561a2.87,2.87,0,0,1,2.317-2.73c1.281-.408,4.137-1.807,4.137-1.807l.017-.779a22.251,22.251,0,0,1,2.759-.014c.6.109.275.994-1.246,1.777s-5.687,2.259-6.333,2.767-.937,2.663-1.446,4.95S212.04,196.542,204.983,195.535Z" fill="#37474f"/>
          </g>
        </g>
        <path id="Path_199-2" data-name="Path 199" d="M216.988,204.959l4.972-2.871c.476-1.45-.287-2.177-1.655-2.087s-.938-1.23-1.766-1.605c-1.092-.5-1.709-.216-2.194-.444-.617-.289-.7-.816-1.343-.878-2.858-.275-4.811,3.8-4.811,3.8Z" fill="#f28f8f"/>
        <path id="Path_200-2" data-name="Path 200" d="M183.055,241.718s22.09-10.952,25.949-12.742,9.89-4.337,13.1-4.335a5.228,5.228,0,0,1,4.787,4.9,37.112,37.112,0,0,1-.332,5.771,136.882,136.882,0,0,1-18.526,4.73C198.814,241.6,183.055,241.718,183.055,241.718Z" fill="#37474f"/>
        <path id="Path_201-2" data-name="Path 201" d="M185.46,235.394c.008,4.535-.426,9.252,1.464,12.575,1.827,3.212,12.121,11.014,21.767,9.391,6.3-1.061,25-9.675,25-9.675s9.064-3.325,9.105-5.695c.06-3.494-.18-8.407-8.089-8.2-7.205.191-28.474,4.628-28.474,4.628Z" fill="#455a64"/>
        <path id="Path_202-2" data-name="Path 202" d="M191.635,199.423c3.417-3.576,5.727-3.871,7.365-3.438a57.691,57.691,0,0,1,10.89,4.364h0s-1.319,12.781,4.926,16.465v19.912s-.185,2.163-2.909,4.311c-2.4,1.893-7.826,3.8-14.311,3.265-7.7-.639-12.136-8.908-12.136-8.908s-.2-16.29.892-22.759C187.628,205.083,190.452,200.66,191.635,199.423Z" fill="#455a64"/>
        <path id="Path_203-2" data-name="Path 203" d="M214.816,217.777s-3.777-2.968-4.926-6.9c0,0,.451,6.119,4.926,9.224Z" fill="#37474f"/>
        <path id="Path_204-2" data-name="Path 204" d="M249.807,227.178a7.822,7.822,0,0,0,4.994-1.543s1.742-3.384,3.878-3.1c0,0,.382-1.432-.5-1.91s-1.258-.341-1.613-.832-.4-1.437-1.967-1.437c-.66,0-.564-.472-2.166-.66s-3.184,3.5-4.353,3.5Z" fill="#ffa8a7"/>
        <path id="Path_205-2" data-name="Path 205" d="M209.89,200.349c5.489.848,7.478,2.476,9.478,4.333,2.087,1.937,14.243,14.132,14.243,14.132l14.817,2.13a4.98,4.98,0,0,1,1.64,2.44c.6,1.737.06,3.632-.508,4.09,0,0-14.7.873-17.587.33s-17.2-10.058-17.2-10.058a12.784,12.784,0,0,1-5-8.623C208.84,203.088,209.89,200.349,209.89,200.349Z" fill="#455a64"/>
        <g id="Group_131" data-name="Group 131">
          <path id="Path_206-2" data-name="Path 206" d="M196.715,253.175l-22.74,27.72a6.326,6.326,0,0,1-.76.05,5.443,5.443,0,0,1-2.59-.61c-.01-.01-19.18-11.08-19.18-11.08l-1.3-.75c-.718-.415-1.3-2.094-1.3-3.75v-4.67a27.331,27.331,0,0,1,13.66-23.67l22.9-13.22,24.37,14.07Z" fill="#80c19c"/>
        </g>
        <g id="Group_132" data-name="Group 132" opacity="0.1">
          <path id="Path_207-2" data-name="Path 207" d="M196.715,253.175l-22.74,27.72a6.326,6.326,0,0,1-.76.05,5.443,5.443,0,0,1-2.59-.61c-.01-.01-19.18-11.08-19.18-11.08l-1.3-.75c-.718-.415-1.3-2.094-1.3-3.75v-4.67a27.331,27.331,0,0,1,13.66-23.67l22.9-13.22,24.37,14.07Z"/>
        </g>
        <g id="Group_133" data-name="Group 133">
          <path id="Path_208-2" data-name="Path 208" d="M188.884,262.729l20.89-25.463L185.4,223.2l-22.893,13.217a27.276,27.276,0,0,0-7.7,6.644Z" fill="#80c19c"/>
        </g>
        <g id="Group_136" data-name="Group 136">
          <g id="Group_134" data-name="Group 134">
            <path id="Path_209-2" data-name="Path 209" d="M209.775,257.715c0,1.656-.582,3.335-1.3,3.75l-1.3.75-31.36,18.11a5.019,5.019,0,0,1-1.84.57,6.326,6.326,0,0,1-.76.05v-6.79a27.319,27.319,0,0,1,13.67-23.67l2.59-1.49,20.3-11.73Z" fill="#80c19c"/>
          </g>
          <g id="Group_135" data-name="Group 135" opacity="0.2">
            <path id="Path_210-2" data-name="Path 210" d="M209.775,257.715c0,1.656-.582,3.335-1.3,3.75l-1.3.75-31.36,18.11a5.019,5.019,0,0,1-1.84.57,6.326,6.326,0,0,1-.76.05v-6.79a27.319,27.319,0,0,1,13.67-23.67l2.59-1.49,20.3-11.73Z"/>
          </g>
        </g>
        <path id="Path_211-2" data-name="Path 211" d="M216.5,292.015l12.274-.042,17.559-10.147h0l-17.206,12.44-12.948.179Z" fill="#c8c8c8"/>
        <path id="Path_212-2" data-name="Path 212" d="M186.71,309.468s22.119-8.34,23.979-9.32a47.679,47.679,0,0,0,6.26-4.566,2.662,2.662,0,0,0-.328-3.571s-9.015-.409-11.313.294c-1.291.4-22.1,7.072-22.1,7.072Z" fill="#c8c8c8"/>
        <path id="Path_213-2" data-name="Path 213" d="M185.719,300.147c-1.83-1.569-3.673-.921-4.117,1.448a8.355,8.355,0,0,0,2.508,7.13c1.83,1.569,3.673.921,4.117-1.448A8.354,8.354,0,0,0,185.719,300.147Z" fill="#455a64"/>
      </g>
    </g>
    <g id="Device" transform="translate(91 59)">
      <g id="Group_121-2" data-name="Group 121">
        <path id="Path_146" data-name="Path 146" d="M148.845,332.008l12.186-7.036-4.062-2.345-12.186,7.035Z" fill="#80c19c"/>
        <path id="Path_147" data-name="Path 147" d="M295.08,247.581l12.186-7.036L303.2,238.2l-12.186,7.035Z" fill="#80c19c"/>
        <path id="Path_148" data-name="Path 148" d="M319.452,233.509l12.186-7.036-4.062-2.345-12.186,7.035Z" fill="#80c19c"/>
      </g>
    </g>
    <g id="Shadows" transform="translate(165.002 283.162)">
      <path id="Shadow-3" data-name="Shadow" d="M393.8,273.211c-8.85,5.109-8.85,13.393,0,18.5s23.2,5.109,32.048,0,8.849-13.393,0-18.5S402.652,268.1,393.8,273.211Z" transform="translate(-153.08 -239.327)" fill="#ebebeb"/>
    </g>
    <g id="Tree" transform="translate(2 40)">
      <g id="Tree-2" data-name="Tree">
        <path id="Path_1-2" data-name="Path 1" d="M437.968,211.422l-2.615-1.328-12.479,27.929V204.491h-4.907V231.48L405.22,207.533l-2.493,1.543,15.24,27.975v50.821a1.218,1.218,0,0,0,.718,1,3.832,3.832,0,0,0,3.471,0,1.22,1.22,0,0,0,.718-1V244.5Z" fill="#e0e0e0"/>
        <circle id="Ellipse_1" data-name="Ellipse 1" cx="37.635" cy="37.635" r="37.635" transform="matrix(0.23, -0.973, 0.973, 0.23, 401.36, 206.711)" fill="#f0f0f0"/>
        <path id="Path_2-2" data-name="Path 2" d="M458.431,169.1c4.853-15.284,10.027-21.261,6.744-23.126a37.635,37.635,0,1,0,10.491,56.7C464.516,205.935,452.136,188.929,458.431,169.1Z" fill="#e0e0e0"/>
        <g id="Group_1-2" data-name="Group 1">
          <path id="Path_3-2" data-name="Path 3" d="M413.8,189.382a26.451,26.451,0,1,1-26.451-26.45A26.452,26.452,0,0,1,413.8,189.382Z" fill="#f0f0f0"/>
          <path id="Path_4-2" data-name="Path 4" d="M387.347,162.932a26.32,26.32,0,0,0-15.458,4.993c-.716,16.155,13,31.913,9.167,37.208-3.864,5.338-13.281,2.043-16.571-2.453a26.45,26.45,0,1,0,22.862-39.748Z" fill="#e0e0e0"/>
        </g>
        <g id="Group_2-2" data-name="Group 2">
          <path id="Path_5-2" data-name="Path 5" d="M468.948,160.864a48.523,48.523,0,1,1-48.523-48.524A48.524,48.524,0,0,1,468.948,160.864Z" fill="#f0f0f0"/>
        </g>
        <path id="Path_6-2" data-name="Path 6" d="M467.655,171.951a48.519,48.519,0,1,1-82.736-44.157c3.374-3.619,3.582-3.772.265-.271a48.525,48.525,0,0,0,47.238,59.605A48.4,48.4,0,0,0,467.655,171.951Z" fill="#ebebeb"/>
      </g>
    </g>
  </g>
</svg>
