<svg xmlns="http://www.w3.org/2000/svg" xmlns:xlink="http://www.w3.org/1999/xlink" width="487.428" height="442.405" viewBox="0 0 487.428 442.405">
  <defs>
    <clipPath id="clip-path">
      <path id="Path_251" data-name="Path 251" d="M399.246,96.347v13.414a3.478,3.478,0,0,1-1.573,2.726l-14.085,8.238c-.869.5-1.574.1-1.574-.909V106.4a3.481,3.481,0,0,1,1.574-2.726c3.844-2.219,10.239-6.018,14.084-8.238C398.542,94.936,399.246,95.343,399.246,96.347Z" fill="#80c19c"/>
    </clipPath>
  </defs>
  <g id="_01" data-name="01" transform="translate(-6.286 -31.828)">
    <g id="Floor">
      <ellipse id="Floor-2" data-name="Floor" cx="243.714" cy="136.018" rx="243.714" ry="136.018" transform="translate(6.286 202.198)" fill="#f5f5f5"/>
    </g>
    <g id="Shadows">
      <path id="Shadow" d="M70.11,402.717,44.024,388.048c-2.288-1.321-2.288-3.463,0-4.784l131.009-75.9a9.153,9.153,0,0,1,8.284,0L209.4,322.032c2.287,1.321,2.287,3.463,0,4.783l-131.008,75.9A9.162,9.162,0,0,1,70.11,402.717Z" fill="#e0e0e0"/>
      <ellipse id="Shadow-2" data-name="Shadow" cx="63.739" cy="39.369" rx="63.739" ry="39.369" transform="translate(169.968 364.676)" fill="#e0e0e0"/>
    </g>
    <g id="Plant">
      <g id="Plants">
        <g id="Group_3" data-name="Group 3">
          <g id="Group_1" data-name="Group 1">
            <path id="Path_1" data-name="Path 1" d="M63.673,324.641c-6.23-25.848-25.55-54.722-44.743-44.565s13.9,32.851,23.485,54.2c8.4,18.707,17.8,44.087,19.994,50.079l7.195-3.39C69.555,374.621,69.031,346.868,63.673,324.641Z" fill="#80c19c"/>
            <path id="Path_2" data-name="Path 2" d="M63.673,324.641c-6.23-25.848-25.55-54.722-44.743-44.565s13.9,32.851,23.485,54.2c8.4,18.707,17.8,44.087,19.994,50.079l7.195-3.39C69.555,374.621,69.031,346.868,63.673,324.641Z" opacity="0.15"/>
          </g>
          <g id="Group_2" data-name="Group 2">
            <path id="Path_3" data-name="Path 3" d="M63.952,377.989h.019a.67.67,0,0,0,.668-.672c-.169-50.29-21.375-81.523-39.483-92.988a.67.67,0,0,0-.717,1.132C42.26,296.744,63.131,327.574,63.3,377.322A.669.669,0,0,0,63.952,377.989Z" fill="#fff"/>
          </g>
        </g>
        <g id="Group_4" data-name="Group 4">
          <path id="Path_4" data-name="Path 4" d="M59.666,355.548c-14.829-29.969-35.538-33.181-43.2-26.371-6.114,5.435-1.521,13.7,4.179,17.233,7.426,4.6,32.643,16.606,41.143,38.234l5.6-2.639C67.186,378.14,66.009,368.366,59.666,355.548Z" fill="#80c19c"/>
        </g>
        <g id="Group_5" data-name="Group 5">
          <path id="Path_5" data-name="Path 5" d="M64.275,380.941a.843.843,0,0,0,.141-.014.712.712,0,0,0,.557-.837c-4.9-24.332-28.086-41.222-39.688-43.841a.711.711,0,0,0-.314,1.386c11.281,2.546,33.83,19,38.609,42.735A.71.71,0,0,0,64.275,380.941Z" fill="#fff"/>
        </g>
      </g>
    </g>
    <g id="Device">
      <g id="Device-2" data-name="Device">
        <g id="Mobile">
          <path id="Path_6" data-name="Path 6" d="M181.418,34.976l-116.9,67.5a12.748,12.748,0,0,0-6.373,10.576l.007,267.123c0,4.333,2.676,9.391,5.976,11.3s9.018,1.695,12.771-.472L193.372,323.76a15.077,15.077,0,0,0,6.8-11.77l0-266.191c0-4.333-2.675-9.391-5.976-11.3S185.171,32.809,181.418,34.976Z" fill="#37474f"/>
          <path id="Path_7" data-name="Path 7" d="M75.262,391.775c-3.629,1.412-8.288,1.344-11.142-.3-3.3-1.9-5.973-6.964-5.973-11.3L58.141,113.05a12.105,12.105,0,0,1,1.715-5.824l10.966,6.221a13.23,13.23,0,0,0-3.162,7.919V385.684C67.66,390.9,70.956,393.373,75.262,391.775Z" fill="#263238"/>
          <path id="Path_8" data-name="Path 8" d="M73.652,110.988a13.293,13.293,0,0,0-5.992,10.378l0,264.323c0,5.853,4.148,8.248,9.218,5.321l116.5-67.25a15.077,15.077,0,0,0,6.8-11.77l0-266.191c0-4.315-3.058-6.081-6.795-3.923Z" fill="#455a64"/>
          <path id="Path_9" data-name="Path 9" d="M79.8,127.758c-3.566,2.059-6.457,3.736-6.457,3.736V372.727s2.891-1.663,6.457-3.722l109.5-63.219,6.457-3.728V60.818s-2.906,1.671-6.457,3.721Z" fill="#37474f"/>
          <path id="Path_10" data-name="Path 10" d="M187.582,296.65V65.53L79.8,127.758c-3.566,2.059-6.457,3.736-6.457,3.736V362.632L181.124,300.4C184.676,298.354,187.582,296.65,187.582,296.65Z" fill="#80c19c"/>
          <path id="Path_11" data-name="Path 11" d="M187.582,296.65V65.53L79.8,127.758c-3.566,2.059-6.457,3.736-6.457,3.736V362.632L181.124,300.4C184.676,298.354,187.582,296.65,187.582,296.65Z" fill="#fff" opacity="0.6"/>
          <g id="Group_7" data-name="Group 7">
            <path id="Path_12" data-name="Path 12" d="M126.008,88.226l19.657-11.349c1.173-.677,2.124-.2,2.124,1.074a4.553,4.553,0,0,1-2.124,3.526L126.008,92.826c-1.172.677-2.123.2-2.123-1.074A4.553,4.553,0,0,1,126.008,88.226Z"/>
            <g id="Group_6" data-name="Group 6">
              <path id="Path_13" data-name="Path 13" d="M159.738,68.723c1.1-.635,1.992-.12,1.992,1.15a4.4,4.4,0,0,1-1.992,3.45c-1.1.635-1.992.121-1.992-1.15A4.4,4.4,0,0,1,159.738,68.723Z"/>
              <path id="Path_14" data-name="Path 14" d="M167.711,64.126c1.1-.635,1.992-.12,1.992,1.15a4.4,4.4,0,0,1-1.992,3.45c-1.1.635-1.992.12-1.992-1.15A4.4,4.4,0,0,1,167.711,64.126Z"/>
              <path id="Path_15" data-name="Path 15" d="M103.962,100.93c1.1-.636,1.992-.121,1.992,1.15a4.4,4.4,0,0,1-1.992,3.45c-1.1.635-1.992.12-1.992-1.15A4.4,4.4,0,0,1,103.962,100.93Z"/>
              <path id="Path_16" data-name="Path 16" d="M111.935,96.333c1.1-.636,1.992-.121,1.992,1.15a4.4,4.4,0,0,1-1.991,3.45c-1.1.635-1.992.12-1.992-1.15A4.4,4.4,0,0,1,111.935,96.333Z"/>
            </g>
          </g>
        </g>
        <g id="Milk">
          <path id="Shadow-3" data-name="Shadow" d="M80.168,235.541a3.859,3.859,0,0,1-3.788-4.086V177.711a6.561,6.561,0,0,1,.933-3.247,6.458,6.458,0,0,1,2.324-2.4l38.945-22.449a4.426,4.426,0,0,1,2.215-.624,3.669,3.669,0,0,1,3.458,2.349l.045-.013a5.924,5.924,0,0,1,.28,1.758v53.743a6.949,6.949,0,0,1-3.242,5.641l-38.951,22.45a6.074,6.074,0,0,1-.7.332A4.207,4.207,0,0,1,80.168,235.541Z" opacity="0.1"/>
          <g id="Box">
            <g id="Group_8" data-name="Group 8">
              <path id="Path_17" data-name="Path 17" d="M126.908,156.026a4.184,4.184,0,0,0-1.892-3.278l-1.541-.89a4.186,4.186,0,0,0-3.785,0L80.758,174.3a4.184,4.184,0,0,0-1.892,3.278v53.74a4.184,4.184,0,0,0,1.892,3.278l1.542.889a4.178,4.178,0,0,0,3.784,0l38.932-22.443a4.184,4.184,0,0,0,1.892-3.278Z" fill="#fafafa"/>
              <path id="Path_18" data-name="Path 18" d="M78.866,231.32a4.184,4.184,0,0,0,1.892,3.278l1.542.889a4.228,4.228,0,0,0,3.461.153c-.891.337-1.569-.166-1.569-1.245v-53.74a3.87,3.87,0,0,1,.554-1.865l-5.326-3.075a3.87,3.87,0,0,0-.554,1.865Z" fill="#e0e0e0"/>
              <path id="Path_19" data-name="Path 19" d="M126.846,155.488c-.22-.8-.953-1.059-1.827-.556L86.083,177.379a3.751,3.751,0,0,0-1.333,1.412l-5.324-3.072a3.833,3.833,0,0,1,1.333-1.413l38.927-22.447a4.211,4.211,0,0,1,3.788,0l1.545.892A4.171,4.171,0,0,1,126.846,155.488Z" fill="#f0f0f0"/>
            </g>
          </g>
          <g id="Milk-2" data-name="Milk">
            <g id="Group_9" data-name="Group 9">
              <path id="Path_20" data-name="Path 20" d="M94.555,222.985a.457.457,0,0,1-.457-.456V194.443a.457.457,0,0,1,.229-.395l22.216-12.828a.457.457,0,0,1,.686.4V209.7a.457.457,0,0,1-.229.4L94.784,222.924A.46.46,0,0,1,94.555,222.985Zm.457-28.278v27.031l21.3-12.3V182.407Z" fill="#80c19c"/>
            </g>
            <g id="Group_10" data-name="Group 10">
              <path id="Path_21" data-name="Path 21" d="M103.721,217.693a.457.457,0,0,1-.457-.456V189.294l-3.994-5.763-4.289,11.077a.457.457,0,0,1-.852-.33l4.6-11.879a.455.455,0,0,1,.372-.289.466.466,0,0,1,.429.193l4.566,6.588a.453.453,0,0,1,.082.26v28.086A.457.457,0,0,1,103.721,217.693Z" fill="#80c19c"/>
            </g>
            <g id="Group_11" data-name="Group 11">
              <path id="Path_22" data-name="Path 22" d="M103.721,189.608a.457.457,0,0,1-.375-.2l-4.566-6.588a.456.456,0,0,1,.146-.656L112,174.619a.455.455,0,0,1,.6.135l4.566,6.588a.451.451,0,0,1,.071.36.459.459,0,0,1-.217.3l-13.075,7.549A.465.465,0,0,1,103.721,189.608Zm-3.908-6.9,4.044,5.835,12.281-7.091-4.044-5.835Z" fill="#80c19c"/>
            </g>
            <g id="Group_12" data-name="Group 12">
              <path id="Path_23" data-name="Path 23" d="M99.155,183.02a.457.457,0,0,1-.457-.456v-3.076a.461.461,0,0,1,.228-.4L112,171.543a.457.457,0,0,1,.686.4v3.075a.457.457,0,0,1-.914,0V172.73l-12.161,7.022v2.812A.457.457,0,0,1,99.155,183.02Z" fill="#80c19c"/>
            </g>
          </g>
        </g>
        <g id="Apple">
          <path id="Shadow-4" data-name="Shadow" d="M134.1,204.4a3.859,3.859,0,0,1-3.788-4.086V146.566a6.57,6.57,0,0,1,.932-3.247,6.458,6.458,0,0,1,2.325-2.4l38.945-22.45a4.424,4.424,0,0,1,2.215-.624,3.669,3.669,0,0,1,3.458,2.349l.045-.013a5.929,5.929,0,0,1,.28,1.758V175.68a6.949,6.949,0,0,1-3.242,5.641l-38.951,22.45a6.092,6.092,0,0,1-.7.333A4.226,4.226,0,0,1,134.1,204.4Z" opacity="0.1"/>
          <g id="Box-2" data-name="Box">
            <g id="Group_14" data-name="Group 14">
              <path id="Path_28" data-name="Path 28" d="M180.956,124.845a4.184,4.184,0,0,0-1.892-3.278l-1.541-.89a4.186,4.186,0,0,0-3.785,0l-38.931,22.444a4.182,4.182,0,0,0-1.893,3.278v53.74a4.185,4.185,0,0,0,1.893,3.278l1.54.889a4.182,4.182,0,0,0,3.786,0l38.931-22.443a4.183,4.183,0,0,0,1.893-3.278Z" fill="#fafafa"/>
              <path id="Path_29" data-name="Path 29" d="M132.914,200.139a4.185,4.185,0,0,0,1.893,3.278l1.54.889a4.23,4.23,0,0,0,3.462.153c-.891.337-1.569-.166-1.569-1.245v-53.74a3.873,3.873,0,0,1,.554-1.865l-5.326-3.075a3.873,3.873,0,0,0-.554,1.865Z" fill="#e0e0e0"/>
              <path id="Path_30" data-name="Path 30" d="M180.894,124.307c-.22-.8-.953-1.059-1.827-.556L140.131,146.2a3.751,3.751,0,0,0-1.333,1.412l-5.324-3.072a3.84,3.84,0,0,1,1.333-1.413l38.927-22.447a4.211,4.211,0,0,1,3.788,0l1.545.892A4.173,4.173,0,0,1,180.894,124.307Z" fill="#f0f0f0"/>
            </g>
          </g>
          <g id="Apple-2" data-name="Apple">
            <g id="Group_15" data-name="Group 15">
              <path id="Path_31" data-name="Path 31" d="M153.3,188.5c-2.188,0-4.231-1.2-6.076-3.563-5.284-6.777-2.429-21.528,3.492-26.413,3.969-3.273,6.084-2.814,7.542-1.851a9.42,9.42,0,0,0,3.211-2.936,15.806,15.806,0,0,1,7.154-5.55,3.8,3.8,0,0,1,4.291,1c2.924,3.061,3.615,11.915-.29,21.434-5.541,13.5-11.167,14.111-12.527,14.06-.669.826-3.3,3.778-6.72,3.823ZM156,156.891c-1.108,0-2.578.583-4.708,2.34-5.517,4.552-8.277,18.833-3.353,25.147,1.681,2.156,3.542,3.218,5.421,3.211,3.447-.044,6.133-3.624,6.159-3.66a.458.458,0,0,1,.456-.176c.05.007,5.907.871,11.8-13.48,3.765-9.176,3.2-17.606.475-20.456a2.911,2.911,0,0,0-3.322-.767,14.827,14.827,0,0,0-6.757,5.27,11.485,11.485,0,0,1-3.1,2.974A26.14,26.14,0,0,0,156,156.891Z" fill="#80c19c"/>
              <path id="Path_1178" data-name="Path 1178" d="M147.59,156.771" fill="none" stroke="#707070" stroke-width="1"/>
              <path id="Path_1179" data-name="Path 1179" d="M4573.105,1964.662l1,28" transform="translate(-4414 -1808)" fill="none" stroke="#80c19c" stroke-width="1"/>
            </g>
          </g>
        </g>
        <g id="Fish">
          <path id="Shadow-5" data-name="Shadow" d="M80.168,308.992A3.859,3.859,0,0,1,76.38,304.9V251.162a6.564,6.564,0,0,1,.933-3.248,6.463,6.463,0,0,1,2.324-2.4l38.945-22.449a4.426,4.426,0,0,1,2.215-.624,3.67,3.67,0,0,1,3.458,2.348l.045-.013a5.93,5.93,0,0,1,.28,1.758v53.744a6.946,6.946,0,0,1-3.242,5.64l-38.951,22.45a6.1,6.1,0,0,1-.7.333A4.228,4.228,0,0,1,80.168,308.992Z" opacity="0.1"/>
          <g id="Box-3" data-name="Box">
            <g id="Group_18" data-name="Group 18">
              <path id="Path_34" data-name="Path 34" d="M126.908,229.455a4.184,4.184,0,0,0-1.892-3.278l-1.541-.89a4.186,4.186,0,0,0-3.785,0L80.758,247.731a4.184,4.184,0,0,0-1.892,3.278v53.74a4.184,4.184,0,0,0,1.892,3.278l1.542.889a4.178,4.178,0,0,0,3.784,0l38.932-22.443a4.184,4.184,0,0,0,1.892-3.278Z" fill="#fafafa"/>
              <path id="Path_35" data-name="Path 35" d="M78.866,304.749a4.184,4.184,0,0,0,1.892,3.278l1.542.889a4.228,4.228,0,0,0,3.461.153c-.891.337-1.569-.166-1.569-1.245v-53.74a3.87,3.87,0,0,1,.554-1.865l-5.326-3.075a3.87,3.87,0,0,0-.554,1.865Z" fill="#e0e0e0"/>
              <path id="Path_36" data-name="Path 36" d="M126.846,228.917c-.22-.8-.953-1.059-1.827-.556L86.083,250.808a3.751,3.751,0,0,0-1.333,1.412l-5.324-3.072a3.833,3.833,0,0,1,1.333-1.413l38.927-22.447a4.211,4.211,0,0,1,3.788,0l1.545.892A4.171,4.171,0,0,1,126.846,228.917Z" fill="#f0f0f0"/>
            </g>
          </g>
          <path id="Path_1169" data-name="Path 1169" d="M94.89,260.1l23.6-14.822v7.993l-23.6,14.868Z" fill="none" stroke="#80c19c" stroke-linecap="round" stroke-linejoin="round" stroke-width="1"/>
          <path id="Path_1171" data-name="Path 1171" d="M94.89,255.218l15.83-9.942Z" transform="translate(3.884 20.44)" fill="none" stroke="#80c19c" stroke-linecap="round" stroke-linejoin="round" stroke-width="1"/>
          <path id="Path_1170" data-name="Path 1170" d="M94.89,260.1l23.6-14.822v17.993l-23.6,14.868Z" transform="translate(0 9.224)" fill="none" stroke="#80c19c" stroke-linecap="round" stroke-linejoin="round" stroke-width="1"/>
        </g>
        <g id="Watermelon">
          <path id="Shadow-6" data-name="Shadow" d="M134.1,277.729a3.859,3.859,0,0,1-3.788-4.087V219.9a6.573,6.573,0,0,1,.932-3.248,6.473,6.473,0,0,1,2.325-2.4L172.51,191.8a4.424,4.424,0,0,1,2.215-.624,3.669,3.669,0,0,1,3.458,2.349l.045-.013a5.92,5.92,0,0,1,.28,1.758v53.743a6.946,6.946,0,0,1-3.242,5.64L136.315,277.1a6.252,6.252,0,0,1-.7.332A4.228,4.228,0,0,1,134.1,277.729Z" opacity="0.1"/>
          <g id="Box-4" data-name="Box">
            <g id="Group_30" data-name="Group 30">
              <path id="Path_47" data-name="Path 47" d="M180.956,198.274A4.184,4.184,0,0,0,179.064,195l-1.541-.89a4.186,4.186,0,0,0-3.785,0L134.807,216.55a4.182,4.182,0,0,0-1.893,3.278v53.74a4.185,4.185,0,0,0,1.893,3.278l1.54.889a4.182,4.182,0,0,0,3.786,0l38.931-22.443a4.183,4.183,0,0,0,1.893-3.278Z" fill="#fafafa"/>
              <path id="Path_48" data-name="Path 48" d="M132.914,273.568a4.185,4.185,0,0,0,1.893,3.278l1.54.889a4.23,4.23,0,0,0,3.462.153c-.891.337-1.569-.166-1.569-1.245V222.9a3.873,3.873,0,0,1,.554-1.865l-5.326-3.075a3.873,3.873,0,0,0-.554,1.865Z" fill="#e0e0e0"/>
              <path id="Path_49" data-name="Path 49" d="M180.894,197.736c-.22-.8-.953-1.059-1.827-.556l-38.936,22.447a3.751,3.751,0,0,0-1.333,1.412l-5.324-3.072a3.84,3.84,0,0,1,1.333-1.413l38.927-22.446a4.2,4.2,0,0,1,3.788,0l1.545.891A4.173,4.173,0,0,1,180.894,197.736Z" fill="#f0f0f0"/>
            </g>
          </g>
          <path id="Path_1176" data-name="Path 1176" d="M151.329,226.3l17.268-10.5-1.681,28.255,1.681,7.575-17.268,8.346,1.027-9.024Z" fill="#fff" stroke="#80c19c" stroke-linecap="round" stroke-linejoin="round" stroke-width="1"/>
          <path id="Path_1177" data-name="Path 1177" d="M152.191,250.485l14.31-7.066" transform="translate(0.379 0.179)" fill="#fff" stroke="#80c19c" stroke-linecap="round" stroke-width="1"/>
          <g id="Ellipse_17" data-name="Ellipse 17" transform="translate(158 232)" fill="#fff" stroke="#80c19c" stroke-width="1">
            <ellipse cx="2" cy="3.5" rx="2" ry="3.5" stroke="none"/>
            <ellipse cx="2" cy="3.5" rx="1.5" ry="3" fill="none"/>
          </g>
        </g>
        <g id="Button">
          <path id="Shadow-7" data-name="Shadow" d="M101.646,337.062a3.859,3.859,0,0,1-3.788-4.086V312.2a6.564,6.564,0,0,1,.933-3.248,6.463,6.463,0,0,1,2.324-2.4l60.526-34.816a4.426,4.426,0,0,1,2.215-.624,3.671,3.671,0,0,1,3.459,2.349l.044-.013a5.886,5.886,0,0,1,.28,1.757v20.772a6.949,6.949,0,0,1-3.242,5.641l-60.532,34.817a6.265,6.265,0,0,1-.7.333A4.226,4.226,0,0,1,101.646,337.062Z" opacity="0.1"/>
          <g id="Button-2" data-name="Button">
            <g id="Group_40" data-name="Group 40">
              <path id="Path_59" data-name="Path 59" d="M169.967,278.13a4.184,4.184,0,0,0-1.892-3.278l-1.541-.89a4.186,4.186,0,0,0-3.785,0l-60.513,34.811a4.184,4.184,0,0,0-1.892,3.278v20.768a4.182,4.182,0,0,0,1.892,3.278l1.542.89a4.186,4.186,0,0,0,3.785,0l60.512-34.811a4.181,4.181,0,0,0,1.893-3.278Z" fill="#80c19c"/>
              <path id="Path_60" data-name="Path 60" d="M169.967,278.13a4.184,4.184,0,0,0-1.892-3.278l-1.541-.89a4.186,4.186,0,0,0-3.785,0l-60.513,34.811a4.184,4.184,0,0,0-1.892,3.278v20.768a4.182,4.182,0,0,0,1.892,3.278l1.542.89a4.186,4.186,0,0,0,3.785,0l60.512-34.811a4.181,4.181,0,0,0,1.893-3.278Z" opacity="0.15"/>
              <path id="Path_61" data-name="Path 61" d="M100.344,332.819a4.182,4.182,0,0,0,1.892,3.278l1.542.89a4.228,4.228,0,0,0,3.461.152c-.891.337-1.569-.165-1.569-1.245V315.126a3.87,3.87,0,0,1,.554-1.865l-5.326-3.075a3.873,3.873,0,0,0-.554,1.865Z" opacity="0.3"/>
              <path id="Path_62" data-name="Path 62" d="M169.9,277.592c-.22-.8-.953-1.059-1.827-.556L107.561,311.85a3.751,3.751,0,0,0-1.333,1.412L100.9,310.19a3.84,3.84,0,0,1,1.333-1.413l60.508-34.813a4.2,4.2,0,0,1,3.788,0l1.545.891A4.173,4.173,0,0,1,169.9,277.592Z" opacity="0.15"/>
            </g>
          </g>
          <g id="Group_41" data-name="Group 41">
            <path id="Path_63" data-name="Path 63" d="M111.584,328.382a.171.171,0,0,1-.226-.016.384.384,0,0,1-.1-.293V316.2a.92.92,0,0,1,.1-.4.6.6,0,0,1,.226-.278l3.842-2.219a2.631,2.631,0,0,1,1.349-.437,1.205,1.205,0,0,1,.877.375,2.064,2.064,0,0,1,.471.959,5.542,5.542,0,0,1,.143,1.285,5.69,5.69,0,0,1-.077.973,6.417,6.417,0,0,1-.185.787,4.821,4.821,0,0,1-.22.587q-.114.24-.186.372a1.267,1.267,0,0,1,.65.773,4.64,4.64,0,0,1,.186,1.465,8.946,8.946,0,0,1-.143,1.553,6.875,6.875,0,0,1-.472,1.547,5.981,5.981,0,0,1-.854,1.394,4.64,4.64,0,0,1-1.289,1.084Zm4.463-11.542a.9.9,0,0,0-.185-.655c-.123-.119-.305-.109-.543.028l-1.85,1.069v2.094l1.85-1.068a1.325,1.325,0,0,0,.543-.6A1.994,1.994,0,0,0,116.047,316.84Zm-2.578,7.606,1.969-1.137a1.451,1.451,0,0,0,.573-.651,2.1,2.1,0,0,0,.215-.924.884.884,0,0,0-.215-.675c-.143-.131-.335-.129-.573.01l-1.969,1.137Z" fill="#fafafa"/>
            <path id="Path_64" data-name="Path 64" d="M126.608,306.848a.171.171,0,0,1,.226.017.391.391,0,0,1,.1.294v7.33a10.5,10.5,0,0,1-.263,2.392,8.924,8.924,0,0,1-.746,2.067,7.545,7.545,0,0,1-1.151,1.666A6.261,6.261,0,0,1,123.3,321.8a3.492,3.492,0,0,1-1.479.514,1.581,1.581,0,0,1-1.147-.34,2.485,2.485,0,0,1-.739-1.208,6.957,6.957,0,0,1-.263-2.09v-7.33a.93.93,0,0,1,.1-.4.593.593,0,0,1,.227-.279l1.563-.9a.172.172,0,0,1,.227.018.391.391,0,0,1,.1.293v7.257a2.438,2.438,0,0,0,.352,1.523q.353.422,1.068.009a2.523,2.523,0,0,0,1.068-1.242,4.91,4.91,0,0,0,.352-1.93v-7.257a.927.927,0,0,1,.1-.4.6.6,0,0,1,.226-.279Z" fill="#fafafa"/>
            <path id="Path_65" data-name="Path 65" d="M132.884,315.588a.951.951,0,0,1-.1.4.607.607,0,0,1-.227.278l-1.564.9a.173.173,0,0,1-.227-.017.392.392,0,0,1-.1-.293V312.95l-2.757-6.217a.478.478,0,0,1-.046-.211.777.777,0,0,1,.076-.329.493.493,0,0,1,.185-.226l1.635-.944c.159-.092.278-.1.357-.022a.524.524,0,0,1,.145.191l1.5,3.652,1.514-5.394a2.072,2.072,0,0,1,.144-.359.855.855,0,0,1,.358-.389l1.634-.945a.141.141,0,0,1,.186.013.319.319,0,0,1,.077.24.933.933,0,0,1-.048.266l-2.756,9.4Z" fill="#fafafa"/>
            <path id="Path_66" data-name="Path 66" d="M144.339,309.471a.287.287,0,0,1-.328.025.514.514,0,0,1-.161-.165l-2.732-4.7v6.21a.944.944,0,0,1-.1.4.616.616,0,0,1-.227.279l-1.563.9a.172.172,0,0,1-.227-.017.388.388,0,0,1-.1-.293V300.242a.932.932,0,0,1,.1-.4.609.609,0,0,1,.227-.279l1.241-.716c.135-.078.244-.087.328-.024a.548.548,0,0,1,.161.164l2.733,4.706v-6.21a.917.917,0,0,1,.1-.4.6.6,0,0,1,.226-.278l1.564-.9a.171.171,0,0,1,.226.016.391.391,0,0,1,.1.294v11.868a.934.934,0,0,1-.1.4.6.6,0,0,1-.226.277Z" fill="#fafafa"/>
            <path id="Path_67" data-name="Path 67" d="M147.3,299.7a10.455,10.455,0,0,1,.293-2.108,9.347,9.347,0,0,1,.729-2,8.372,8.372,0,0,1,1.144-1.726,6,6,0,0,1,1.558-1.294,3.178,3.178,0,0,1,1.552-.5,1.735,1.735,0,0,1,1.15.4,2.546,2.546,0,0,1,.729,1.159,6.335,6.335,0,0,1,.293,1.77c.014.519.023,1.064.023,1.64s-.009,1.12-.023,1.63a10.59,10.59,0,0,1-.293,2.108,9.656,9.656,0,0,1-.729,2.01,8.02,8.02,0,0,1-1.15,1.729,6.106,6.106,0,0,1-1.552,1.282,3.257,3.257,0,0,1-1.558.513,1.667,1.667,0,0,1-1.144-.4,2.587,2.587,0,0,1-.729-1.169,6.25,6.25,0,0,1-.293-1.77q-.022-.738-.023-1.6T147.3,299.7Zm5.24.154c.007-.226.015-.475.024-.75s.012-.552.012-.833-.005-.552-.012-.811-.017-.489-.024-.694a3.214,3.214,0,0,0-.126-.771,1.181,1.181,0,0,0-.286-.506.666.666,0,0,0-.46-.186,1.283,1.283,0,0,0-.644.207,2.489,2.489,0,0,0-.645.537,3.364,3.364,0,0,0-.46.716,4.077,4.077,0,0,0-.285.836,5.3,5.3,0,0,0-.126.917c-.016.219-.025.459-.03.726s-.006.538-.006.821,0,.557.006.822.014.507.03.719a2.047,2.047,0,0,0,.411,1.286q.366.4,1.1-.03a2.608,2.608,0,0,0,1.1-1.24A5.149,5.149,0,0,0,152.538,299.852Z" fill="#fafafa"/>
            <path id="Path_68" data-name="Path 68" d="M161.822,293.223l.763-6.65a1.165,1.165,0,0,1,.143-.469.694.694,0,0,1,.226-.24l1.565-.9a.141.141,0,0,1,.184.012.321.321,0,0,1,.078.24,1.347,1.347,0,0,1-.012.154l-1.539,12.5a1.6,1.6,0,0,1-.191.588,1.1,1.1,0,0,1-.407.455l-.99.571c-.159.092-.288.094-.387,0a.711.711,0,0,1-.209-.357l-.9-3.636-.9,4.669a2.416,2.416,0,0,1-.209.6.988.988,0,0,1-.386.445l-.991.572a.349.349,0,0,1-.406.014.5.5,0,0,1-.191-.368L155.533,290.7a1.051,1.051,0,0,1-.012-.141.759.759,0,0,1,.078-.33.493.493,0,0,1,.184-.225l1.564-.9a.238.238,0,0,1,.227-.02c.071.031.119.132.142.3l.764,5.77.705-3.733a2.681,2.681,0,0,1,.107-.392.657.657,0,0,1,.3-.374l1.123-.648c.143-.083.242-.073.3.03a.976.976,0,0,1,.107.269Z" fill="#fafafa"/>
          </g>
        </g>
        <g id="Awning">
          <path id="Path_69" data-name="Path 69" d="M73.339,131.495,99.306,167.9,221.741,97.228l-25.987-36.41Z" fill="#80c19c"/>
          <g id="Group_42" data-name="Group 42">
            <path id="Path_70" data-name="Path 70" d="M84.452,125.07l11.129-6.425,25.981,36.412-11.129,6.424Z" fill="#fafafa"/>
            <path id="Path_71" data-name="Path 71" d="M106.725,112.219l11.129-6.425,25.981,36.412-11.129,6.424Z" fill="#fafafa"/>
            <path id="Path_72" data-name="Path 72" d="M129,99.368l11.129-6.425,25.981,36.412-11.129,6.424Z" fill="#fafafa"/>
            <path id="Path_73" data-name="Path 73" d="M151.269,86.518,162.4,80.092,188.379,116.5l-11.129,6.424Z" fill="#fafafa"/>
            <path id="Path_74" data-name="Path 74" d="M173.541,73.667l11.129-6.425,25.981,36.412-11.129,6.424Z" fill="#fafafa"/>
          </g>
          <g id="Group_47" data-name="Group 47">
            <g id="Group_43" data-name="Group 43">
              <path id="Path_75" data-name="Path 75" d="M110.433,161.48c0,3.548,2.491,4.986,5.564,3.212a12.3,12.3,0,0,0,5.564-9.637Z" fill="#e0e0e0"/>
              <path id="Path_76" data-name="Path 76" d="M132.687,148.631c0,3.549,2.491,4.987,5.564,3.213a12.3,12.3,0,0,0,5.564-9.637Z" fill="#e0e0e0"/>
              <path id="Path_77" data-name="Path 77" d="M154.941,135.783c0,3.548,2.491,4.986,5.564,3.212a12.3,12.3,0,0,0,5.564-9.637Z" fill="#e0e0e0"/>
              <path id="Path_78" data-name="Path 78" d="M177.2,122.934c0,3.549,2.491,4.987,5.564,3.213a12.3,12.3,0,0,0,5.564-9.637Z" fill="#e0e0e0"/>
              <path id="Path_79" data-name="Path 79" d="M199.449,110.086c0,3.548,2.491,4.987,5.564,3.212a12.3,12.3,0,0,0,5.564-9.637Z" fill="#e0e0e0"/>
            </g>
            <g id="Group_46" data-name="Group 46">
              <g id="Group_44" data-name="Group 44">
                <path id="Path_80" data-name="Path 80" d="M99.306,167.9c0,3.548,2.491,4.987,5.564,3.212a12.3,12.3,0,0,0,5.564-9.637Z" fill="#80c19c"/>
                <path id="Path_81" data-name="Path 81" d="M121.56,155.055c0,3.549,2.491,4.987,5.564,3.213a12.3,12.3,0,0,0,5.564-9.637Z" fill="#80c19c"/>
                <path id="Path_82" data-name="Path 82" d="M143.814,142.207c0,3.548,2.491,4.987,5.564,3.212a12.3,12.3,0,0,0,5.564-9.637Z" fill="#80c19c"/>
                <path id="Path_83" data-name="Path 83" d="M166.068,129.358c0,3.549,2.491,4.987,5.564,3.213a12.3,12.3,0,0,0,5.564-9.637Z" fill="#80c19c"/>
                <path id="Path_84" data-name="Path 84" d="M188.322,116.51c0,3.548,2.491,4.987,5.564,3.212a12.3,12.3,0,0,0,5.564-9.637Z" fill="#80c19c"/>
                <path id="Path_85" data-name="Path 85" d="M210.576,103.661c0,3.549,2.492,4.987,5.564,3.213a12.3,12.3,0,0,0,5.564-9.637Z" fill="#80c19c"/>
              </g>
              <g id="Group_45" data-name="Group 45" opacity="0.15">
                <path id="Path_86" data-name="Path 86" d="M99.306,167.9c0,3.548,2.491,4.987,5.564,3.212a12.3,12.3,0,0,0,5.564-9.637Z"/>
                <path id="Path_87" data-name="Path 87" d="M121.56,155.055c0,3.549,2.491,4.987,5.564,3.213a12.3,12.3,0,0,0,5.564-9.637Z"/>
                <path id="Path_88" data-name="Path 88" d="M143.814,142.207c0,3.548,2.491,4.987,5.564,3.212a12.3,12.3,0,0,0,5.564-9.637Z"/>
                <path id="Path_89" data-name="Path 89" d="M166.068,129.358c0,3.549,2.491,4.987,5.564,3.213a12.3,12.3,0,0,0,5.564-9.637Z"/>
                <path id="Path_90" data-name="Path 90" d="M188.322,116.51c0,3.548,2.491,4.987,5.564,3.212a12.3,12.3,0,0,0,5.564-9.637Z"/>
                <path id="Path_91" data-name="Path 91" d="M210.576,103.661c0,3.549,2.492,4.987,5.564,3.213a12.3,12.3,0,0,0,5.564-9.637Z"/>
              </g>
            </g>
          </g>
          <g id="Group_48" data-name="Group 48">
            <path id="Path_92" data-name="Path 92" d="M99.306,167.9,73.338,148.628V131.495Z" fill="#80c19c"/>
            <path id="Path_93" data-name="Path 93" d="M99.306,167.9,73.338,148.628V131.495Z" opacity="0.2"/>
          </g>
        </g>
      </g>
    </g>
    <g id="Character">
      <g id="Character-2" data-name="Character">
        <g id="Group_93" data-name="Group 93">
          <g id="Group_92" data-name="Group 92">
            <path id="Path_214" data-name="Path 214" d="M256.432,189.95c7.383-.5,12.1.481,15.76,8.963,4.646,10.774,10.608,30.951,12.2,37.668.741,3.132.734,5.763-2.359,9.3-6.61,7.553-15.314,16.361-15.314,16.361L262.008,245.8l5.748-8.459-6.923-18.761Z" fill="#ffa8a7"/>
          </g>
          <path id="Path_215" data-name="Path 215" d="M267.756,237.344a35.306,35.306,0,0,0,3.974,5.579,9.245,9.245,0,0,1-4.9-4.218Z" fill="#f28f8f"/>
        </g>
        <g id="Group_104" data-name="Group 104">
          <g id="Group_98" data-name="Group 98">
            <path id="Path_216" data-name="Path 216" d="M191.27,416.638a7.3,7.3,0,0,0-.093,3.871c.369.778,2.694,3.338,7.428,4.269s11.249-.025,14.047-.17,11.6.9,14.4,1.283c4.393.594,7.777-.368,9.416-1.962a2.923,2.923,0,0,0,.66-2.315,11.482,11.482,0,0,0-.466-3.129Z" fill="#37474f"/>
            <g id="Group_95" data-name="Group 95">
              <g id="Group_94" data-name="Group 94">
                <path id="Path_217" data-name="Path 217" d="M235.932,413.88c.087.366.167.733.237,1.1a18.544,18.544,0,0,1,.407,5.7,5.184,5.184,0,0,1-3.377,2.553c-3.306,1.05-5.83.881-9.5.187a67.077,67.077,0,0,0-11.145-.684c-2.887.2-6.859.748-9.746.483a23.258,23.258,0,0,1-7.171-1.462c-1.928-.825-3.894-1.882-4.363-3.864-.571-4.175,1.184-6.02,3.167-7.181,2.094-1.226,4.787-1.077,7.793-1.278,2.723-.182,4.706-.186,7.125-.37a34.322,34.322,0,0,0,6.131-1.174c1.822-.575,3.789-2.593,4.564-2.676,0,0,12.111-.1,13.269,0,1.336.111,1.744,4.253,1.91,5.153.129.706.153,1.461.342,2.142C235.705,412.97,235.824,413.424,235.932,413.88Z" fill="#80c19c"/>
              </g>
            </g>
            <g id="Group_97" data-name="Group 97" opacity="0.4">
              <g id="Group_96" data-name="Group 96">
                <path id="Path_218" data-name="Path 218" d="M235.932,413.88c.087.366.167.733.237,1.1a18.544,18.544,0,0,1,.407,5.7,5.184,5.184,0,0,1-3.377,2.553c-3.306,1.05-5.83.881-9.5.187a67.077,67.077,0,0,0-11.145-.684c-2.887.2-6.859.748-9.746.483a23.258,23.258,0,0,1-7.171-1.462c-1.928-.825-3.894-1.882-4.363-3.864-.571-4.175,1.184-6.02,3.167-7.181,2.094-1.226,4.787-1.077,7.793-1.278,2.723-.182,4.706-.186,7.125-.37a34.322,34.322,0,0,0,6.131-1.174c1.822-.575,3.789-2.593,4.564-2.676,0,0,12.111-.1,13.269,0,1.336.111,1.744,4.253,1.91,5.153.129.706.153,1.461.342,2.142C235.705,412.97,235.824,413.424,235.932,413.88Z"/>
              </g>
            </g>
            <path id="Path_219" data-name="Path 219" d="M198.6,422.671c-.377-3.009-.878-9.527,4.66-13.292l.7-.036a13.764,13.764,0,0,0-7.658,0c-4.434,1.179-6.4,4.762-5.293,8.543C191.018,417.886,192.005,421.554,198.6,422.671Z" fill="#fafafa"/>
          </g>
          <g id="Group_100" data-name="Group 100">
            <g id="Group_99" data-name="Group 99">
              <path id="Path_220" data-name="Path 220" d="M240.342,350.064c-.392,6.912-6.832,54.125-7.394,56.657-.334,1.509-2.249,3.122-7.218,2.953-3.491-.119-6.237.172-6.1-2.562l-3.515-59.951Z" fill="#ffa8a7"/>
            </g>
          </g>
          <g id="Group_102" data-name="Group 102">
            <path id="Path_221" data-name="Path 221" d="M241.489,378.016c-.177,2.129-.462,4.043.407,6.385,1.246,3.36,3.882,4.9,5.43,6.223a44.257,44.257,0,0,1,4.509,5.2c1.516,1.838,1.848,3.037,4.2,4.978,1.471,1.213,5.578,2.211,8.106,1.139,1.979-.839,2.665-1.512,2.542-4.544-.12-2.962-9.785-4.064-9.785-4.064Z" fill="#37474f"/>
            <path id="Path_222" data-name="Path 222" d="M265.437,388.356c.824.3,1.033,1.791,1.158,4.76.094,2.247,1.087,5.535-2.167,6.952-2.624,1.142-6.82.383-8.593-1.735-2.214-2.643-3.71-4.97-6.868-8.2-2.741-2.8-5.594-3.741-6.81-9.332-.783-3.6-.168-5.084,2.376-6.115,3.5-1.417,8.991,3.214,11.732,3.944C258.625,379.262,264.613,388.06,265.437,388.356Z" fill="#80c19c"/>
            <path id="Path_223" data-name="Path 223" d="M265.437,388.356c.824.3,1.033,1.791,1.158,4.76.094,2.247,1.087,5.535-2.167,6.952-2.624,1.142-6.82.383-8.593-1.735-2.214-2.643-3.71-4.97-6.868-8.2-2.741-2.8-5.594-3.741-6.81-9.332-.783-3.6-.168-5.084,2.376-6.115,3.5-1.417,8.991,3.214,11.732,3.944C258.625,379.262,264.613,388.06,265.437,388.356Z" opacity="0.4"/>
            <g id="Group_101" data-name="Group 101">
              <path id="Path_224" data-name="Path 224" d="M269.676,335.183c.469,18.942-2.514,37.958-3.9,54.34-.238,1.6-8.309,4.9-10.992.2-.167-.352-7.537-53.672-7.537-53.672Z" fill="#ffa8a7"/>
            </g>
            <path id="Path_225" data-name="Path 225" d="M243.762,384.944s.266-6.454,9.306-7.534l-.153-1.137a7.821,7.821,0,0,0-3.53-2.035c-3.146-.807-5.629-.034-7.28,1.989S242.128,383.646,243.762,384.944Z" fill="#fafafa"/>
          </g>
          <path id="Path_226" data-name="Path 226" d="M269.262,323.041s-.518-13.262-.2-27.522c.2-8.951.381-14.082.023-20.337a144.432,144.432,0,0,0-2.5-20.837s-49.61-9.456-50.218,8.352c-.728,21.341-1.419,63.662-1.462,69.243-.042,5.622.295,9.315.863,21.177,7.9,1.929,19.072.727,25.3-1.607.218-5.98.358-9.392.358-9.392l2.448-38.214s.624,7.475,1.055,15.3.3,9.725,1.514,24.166c4.958,2.3,19.734,2.161,23.7-2.195A159.036,159.036,0,0,0,269.262,323.041Z" fill="#37474f"/>
          <path id="Path_227" data-name="Path 227" d="M215.088,302.422c7.02,1.656,18.62,1.227,18.62,1.227s-.159,25.1-1.449,28.385-16.193,2.748-17.992,0C214.279,318.621,215.088,302.422,215.088,302.422Z" fill="#263238"/>
          <g id="Group_103" data-name="Group 103">
            <path id="Path_228" data-name="Path 228" d="M262.008,278.968s-6.463,8.889-14.272,12.22l-2.92,26.04-.942-12.991,1.8-15.72S255.543,284.186,262.008,278.968Z" fill="#263238"/>
          </g>
        </g>
        <g id="Group_111" data-name="Group 111">
          <path id="Path_229" data-name="Path 229" d="M236.283,182.834l.108,16.257,16.433-.171.27-18.877Z" fill="#ffa8a7"/>
          <path id="Path_230" data-name="Path 230" d="M269.639,198.213c-1.348-4.43-6.031-8.076-11.941-8.253-1.318-.04-4.745-.011-4.745-.011-.672,2.737-9.459,4.021-16.626,2.333-2.16.567-10.592,2.14-12.391,2.737-5.15,1.71-6.19,6.937-6.992,23.738,0,0-1.365,27.882-.839,48.815,9.059,4.774,23.847,4.7,33.806,3.7,15.644-1.58,18.668-7.293,18.668-7.293a173.947,173.947,0,0,1-.69-21.746c.194-6.835,2.163-14.07,2.77-21.816C271.565,208.856,270.564,201.254,269.639,198.213Z" fill="#80c19c"/>
          <path id="Path_231" data-name="Path 231" d="M269.639,198.213c-1.348-4.43-6.031-8.076-11.941-8.253-1.318-.04-4.745-.011-4.745-.011-.672,2.737-9.459,4.021-16.626,2.333-2.16.567-10.592,2.14-12.391,2.737-5.15,1.71-6.19,6.937-6.992,23.738,0,0-1.365,27.882-.839,48.815,9.059,4.774,23.847,4.7,33.806,3.7,15.644-1.58,18.668-7.293,18.668-7.293a173.947,173.947,0,0,1-.69-21.746c.194-6.835,2.163-14.07,2.77-21.816C271.565,208.856,270.564,201.254,269.639,198.213Z" opacity="0.3"/>
          <g id="Group_107" data-name="Group 107">
            <g id="Group_105" data-name="Group 105">
              <path id="Path_232" data-name="Path 232" d="M224,161.957s-4.361,6.583-3.949,7.172,3.823,1.015,3.823,1.015Z" fill="#f28f8f"/>
            </g>
            <g id="Group_106" data-name="Group 106">
              <path id="Path_233" data-name="Path 233" d="M235.8,140.967c-7.826,1.314-10.711,6-11.869,19.606a121.344,121.344,0,0,0-.053,13.15c.493,5.932,1.61,7.421,2.8,8.745,1.094,1.217,8.373,1.731,11.612.982,4.053-.939,13.242-3.772,17.752-10.073,5.306-7.415,5.961-16.679,1.88-22.148C248.381,138.44,238.989,140.432,235.8,140.967Z" fill="#ffa8a7"/>
            </g>
            <path id="Path_234" data-name="Path 234" d="M226.682,182.466c.9,1,6.259,1.535,9.608,1.269l.037-1.921A25.054,25.054,0,0,1,226.682,182.466Z" fill="#f28f8f"/>
          </g>
          <g id="Group_110" data-name="Group 110">
            <g id="Group_109" data-name="Group 109">
              <g id="Group_108" data-name="Group 108">
                <path id="Path_235" data-name="Path 235" d="M230.283,153.029a7.064,7.064,0,0,0,4.426,7.542,9.611,9.611,0,0,0-.677,3.461,2.96,2.96,0,0,0,.295,1.7,1.091,1.091,0,0,0,1.973.042,14.374,14.374,0,0,1,1.755-2.742,5.313,5.313,0,0,1,3.393-1.718c4.9-.327,5.238,6.071,3.179,8.633-3.369,4.192-5.956,1.153-5.956,1.153s-.841,5.275,4.719,10.521a8.285,8.285,0,0,0,4.375,1.568c1.417.183,3.949.367,5.289-.382,2.73-4.43,8.522-11.84,10.593-15.753,1.987-3.753,4.334-8.126,3.323-12.5a7.137,7.137,0,0,0-3.272-4.64,9.546,9.546,0,0,0,.985-3.932c-.079-2.41-2.519-4.458-4.9-3.392a4.288,4.288,0,0,0-6.845-4.573,4.149,4.149,0,0,0-8.066-1.868,5.691,5.691,0,0,0-9.991.85,8.184,8.184,0,0,0-5.586-1.213,5.82,5.82,0,0,0-4.423,3.419,4.54,4.54,0,0,0,1.4,5.238c-1.8.1-3.187,2.475-3.188,4.275C223.082,150.075,224,154.688,230.283,153.029Z" fill="#263238"/>
              </g>
            </g>
          </g>
        </g>
        <path id="Path_236" data-name="Path 236" d="M167.854,208.431c1.261,2.37,15.194,27.882,19.246,31.738,2.886,2.747,7.355,4.618,11.977.651,8.625-7.4,21.991-19.066,21.991-19.066,10.278-8.146,11.7-22.953,6.969-27.705-2.419.13-9.813.684-14.607,6.281-9.82,11.462-20.286,23.229-20.286,23.229-2.576-3.4-4.862-6.08-7.635-9.942-2.214-3.083-5.656-6.319-5.8-10.341-.074-2.094.695-4.188,1.013-6.245.414-2.676.782-5.333,1.23-8.011a2.131,2.131,0,0,0-.146-1.577,1.583,1.583,0,0,0-2.178-.069,5.582,5.582,0,0,0-1.525,2.258q-.624,1.369-1.25,2.739c-.2.428-.483.921-.954.933-1.476.038-1.724-3.129-2.1-4.089a16.867,16.867,0,0,1-.735-3.946q-.318-2.4-.637-4.792c-.061-.462-.171-1-.588-1.2-.52-.26-1.117.174-1.48.628a6.22,6.22,0,0,0-1.2,2.483c-.491,2.126.126,4.525-.961,6.417a12.384,12.384,0,0,1-1.62,1.938,22.577,22.577,0,0,0-1.909,2.61c-1.018,1.541-1.64,2.8-1.162,4.629A48.356,48.356,0,0,0,167.854,208.431Z" fill="#ffa8a7"/>
        <path id="Path_237" data-name="Path 237" d="M193.144,223.559c-2.636,2.881-4.18,8.594-4.18,8.594s-.287-6.053,2.79-10.4Z" fill="#f28f8f"/>
      </g>
    </g>
    <g id="Credit_Card" data-name="Credit Card">
      <g id="Card_Bubble" data-name="Card Bubble">
        <g id="Card">
          <g id="Group_112" data-name="Group 112">
            <path id="Path_238" data-name="Path 238" d="M300.626,174.24l-1.927-1.112a2.431,2.431,0,0,1-1.1-1.906V92.746a2.431,2.431,0,0,1,1.1-1.9l101.735-58.75a2.434,2.434,0,0,1,2.2,0l1.928,1.113a2.433,2.433,0,0,1,1.1,1.905v78.477a2.431,2.431,0,0,1-1.1,1.9L302.826,174.24A2.43,2.43,0,0,1,300.626,174.24Z" fill="#80c19c"/>
            <path id="Path_239" data-name="Path 239" d="M300.626,174.24l-1.927-1.112a2.431,2.431,0,0,1-1.1-1.906V92.746a2.431,2.431,0,0,1,1.1-1.9l101.735-58.75a2.434,2.434,0,0,1,2.2,0l1.928,1.113a2.433,2.433,0,0,1,1.1,1.905v78.477a2.431,2.431,0,0,1-1.1,1.9L302.826,174.24A2.43,2.43,0,0,1,300.626,174.24Z" fill="#fff" opacity="0.5"/>
            <path id="Path_240" data-name="Path 240" d="M302.826,93.224l101.735-58.75c.607-.351,1.1-.066,1.1.635v78.477a2.431,2.431,0,0,1-1.1,1.9L302.826,174.24c-.607.351-1.1.067-1.1-.635V95.129A2.433,2.433,0,0,1,302.826,93.224Z" fill="#80c19c"/>
            <path id="Path_241" data-name="Path 241" d="M404.561,34.474C396.213,39.6,387.8,44.6,379.369,49.58l-25.36,14.815L328.5,78.957l-12.8,7.191-12.872,7.076,12.562-7.612,12.629-7.5L353.378,63.3l25.508-14.56C387.414,43.935,395.953,39.145,404.561,34.474Z" fill="#fafafa"/>
            <path id="Path_242" data-name="Path 242" d="M302.05,94.044l-4.127-2.382a2.142,2.142,0,0,0-.319,1.082v78.477a2.417,2.417,0,0,0,1.092,1.909l1.927,1.113a2.459,2.459,0,0,0,1.983.1c-.506.165-.875-.13-.875-.74V95.127A2.147,2.147,0,0,1,302.05,94.044Z" fill="#80c19c"/>
            <path id="Path_243" data-name="Path 243" d="M302.05,94.044l-4.127-2.382a2.142,2.142,0,0,0-.319,1.082v78.477a2.417,2.417,0,0,0,1.092,1.909l1.927,1.113a2.459,2.459,0,0,0,1.983.1c-.506.165-.875-.13-.875-.74V95.127A2.147,2.147,0,0,1,302.05,94.044Z" opacity="0.3"/>
          </g>
          <path id="Path_244" data-name="Path 244" d="M301.726,104.089,405.661,44.1V64.585l-103.93,59.986Z" fill="#455a64"/>
          <g id="Cards">
            <g id="Group_118" data-name="Group 118">
              <path id="Path_245" data-name="Path 245" d="M399.246,96.347v13.414a3.478,3.478,0,0,1-1.573,2.726l-14.085,8.238c-.869.5-1.574.1-1.574-.909V106.4a3.481,3.481,0,0,1,1.574-2.726c3.844-2.219,10.239-6.018,14.084-8.238C398.542,94.936,399.246,95.343,399.246,96.347Z" fill="#80c19c"/>
              <g id="Group_117" data-name="Group 117" clip-path="url(#clip-path)">
                <path id="Path_246" data-name="Path 246" d="M399.246,96.347v13.414a3.478,3.478,0,0,1-1.573,2.726l-14.085,8.238c-.869.5-1.574.1-1.574-.909V106.4a3.481,3.481,0,0,1,1.574-2.726c3.844-2.219,10.239-6.018,14.084-8.238C398.542,94.936,399.246,95.343,399.246,96.347Z" opacity="0.2"/>
                <g id="Group_113" data-name="Group 113">
                  <path id="Path_247" data-name="Path 247" d="M402.022,98.452l.356-1.027L379.24,110.89l-.356,1.027Z" fill="#fff"/>
                </g>
                <g id="Group_114" data-name="Group 114">
                  <path id="Path_248" data-name="Path 248" d="M392.984,110.3l.712-.822v-6.833l-.712.822Z" fill="#fff"/>
                </g>
                <g id="Group_115" data-name="Group 115">
                  <path id="Path_249" data-name="Path 249" d="M387.565,113.552l.712-.822v-6.823l-.712.822Z" fill="#fff"/>
                </g>
                <g id="Group_116" data-name="Group 116">
                  <path id="Path_250" data-name="Path 250" d="M402.022,105.3l.356-1.027L379.24,117.738l-.356,1.027Z" fill="#fff"/>
                </g>
              </g>
            </g>
            <g id="Group_121" data-name="Group 121">
              <g id="Group_119" data-name="Group 119">
                <path id="Path_252" data-name="Path 252" d="M308.3,112.673q-.862-.6-.862-2.675a7.677,7.677,0,0,1,.844-3.667,6.2,6.2,0,0,1,2.416-2.491,4.828,4.828,0,0,1,1.2-.516,1.713,1.713,0,0,1,.908-.024.133.133,0,0,1,.09.141.7.7,0,0,1-.054.235l-.317.917a.405.405,0,0,1-.126.206.244.244,0,0,1-.154.016,2.082,2.082,0,0,0-1.363.354,3.649,3.649,0,0,0-1.445,1.551,5.282,5.282,0,0,0-.515,2.422q0,1.422.537,1.821t1.468-.136a4.712,4.712,0,0,0,1.426-1.258.7.7,0,0,1,.154-.161c.042-.024.084,0,.127.06l.352.6a.254.254,0,0,1,.036.124.574.574,0,0,1-.108.243,6.257,6.257,0,0,1-2.177,1.931Q309.168,113.278,308.3,112.673Z" fill="#80c19c"/>
                <path id="Path_253" data-name="Path 253" d="M313.841,110.271c-.063-.048-.1-.16-.094-.336v-7.141a1.006,1.006,0,0,1,.1-.452.769.769,0,0,1,.312-.313l2.285-1.319q2.294-1.324,2.294,1.349a4.723,4.723,0,0,1-.271,1.607,4.362,4.362,0,0,1-.8,1.373l.948,2.223a.413.413,0,0,1,.027.153.354.354,0,0,1-.189.326l-1,.579a.363.363,0,0,1-.189.067c-.042,0-.079-.045-.109-.124l-.83-2.17-1.076.622v2.36a.972.972,0,0,1-.09.442.77.77,0,0,1-.317.31l-.677.391C314.008,110.3,313.9,110.319,313.841,110.271Zm2.38-5.558a1.914,1.914,0,0,0,1.03-1.8c0-.418-.079-.678-.235-.781s-.391-.063-.7.118l-1.075.621v2.408Z" fill="#80c19c"/>
                <path id="Path_254" data-name="Path 254" d="M319.568,106.965c-.064-.048-.1-.16-.1-.336V99.487a.973.973,0,0,1,.1-.451.754.754,0,0,1,.311-.313l3.748-2.164c.145-.083.244-.1.3-.057s.081.16.081.344v.445a1.026,1.026,0,0,1-.081.445.7.7,0,0,1-.3.292l-2.665,1.538v1.9l1.861-1.074c.145-.083.244-.1.3-.057s.082.159.082.344v.421a1.031,1.031,0,0,1-.082.445.7.7,0,0,1-.3.292l-1.861,1.075v1.914l2.656-1.533c.144-.083.244-.1.3-.051s.081.165.081.35v.433a.991.991,0,0,1-.081.439.724.724,0,0,1-.3.286l-3.739,2.159C319.734,107,319.63,107.013,319.568,106.965Z" fill="#80c19c"/>
                <path id="Path_255" data-name="Path 255" d="M324.751,103.972c-.063-.048-.1-.16-.1-.336V96.5a1,1,0,0,1,.1-.452.755.755,0,0,1,.312-.312l1.9-1.1q1.545-.891,2.348-.368t.8,2.643a7.264,7.264,0,0,1-.813,3.564,6.077,6.077,0,0,1-2.339,2.35l-1.9,1.1C324.918,104,324.814,104.021,324.751,103.972Zm2.281-2.647a2.925,2.925,0,0,0,1.2-1.29,5.331,5.331,0,0,0,.4-2.27q0-1.444-.4-1.806t-1.2.1l-.886.511v5.262Z" fill="#80c19c"/>
                <path id="Path_256" data-name="Path 256" d="M330.947,100.395c-.064-.048-.1-.16-.1-.336V92.917a.979.979,0,0,1,.1-.451.758.758,0,0,1,.311-.312l.677-.392c.151-.087.257-.105.317-.056s.09.167.09.351V99.2a.984.984,0,0,1-.09.444.768.768,0,0,1-.317.309l-.677.391C331.114,100.425,331.01,100.443,330.947,100.395Z" fill="#80c19c"/>
                <path id="Path_257" data-name="Path 257" d="M334.857,98.137c-.063-.048-.1-.159-.1-.336V91.6l-1.481.856c-.144.083-.244.1-.3.057s-.081-.16-.081-.344v-.446a1.03,1.03,0,0,1,.081-.444.71.71,0,0,1,.3-.292l4.462-2.576c.144-.083.245-.1.3-.055s.086.164.086.348v.446a.958.958,0,0,1-.086.434.73.73,0,0,1-.3.3l-1.482.855v6.2a.962.962,0,0,1-.094.447.8.8,0,0,1-.321.311l-.668.386C335.027,98.166,334.921,98.185,334.857,98.137Z" fill="#80c19c"/>
                <path id="Path_258" data-name="Path 258" d="M342.624,92.859q-.862-.6-.863-2.675a7.675,7.675,0,0,1,.845-3.667,6.193,6.193,0,0,1,2.416-2.491,4.8,4.8,0,0,1,1.2-.516,1.713,1.713,0,0,1,.908-.024.132.132,0,0,1,.09.141.648.648,0,0,1-.053.235l-.317.917a.405.405,0,0,1-.126.206.232.232,0,0,1-.154.016,2.092,2.092,0,0,0-1.364.354,3.655,3.655,0,0,0-1.445,1.551,5.308,5.308,0,0,0-.514,2.422q0,1.422.537,1.822t1.467-.137a4.733,4.733,0,0,0,1.428-1.258.651.651,0,0,1,.153-.16c.042-.025.084-.005.127.058l.352.6a.254.254,0,0,1,.036.124.574.574,0,0,1-.108.243,6.257,6.257,0,0,1-2.177,1.931Q343.486,93.463,342.624,92.859Z" fill="#80c19c"/>
                <path id="Path_259" data-name="Path 259" d="M347.668,90.663a1,1,0,0,1,.027-.208l2.339-8.781a1.351,1.351,0,0,1,.14-.363.627.627,0,0,1,.222-.207l.659-.38c.1-.056.169-.072.217-.047a.37.37,0,0,1,.135.205l2.339,6.079a.635.635,0,0,1,.027.177.318.318,0,0,1-.162.3l-1.093.631c-.084.05-.146.067-.185.053s-.074-.059-.1-.139l-.415-1.18-2.2,1.266-.407,1.656a.893.893,0,0,1-.1.259.554.554,0,0,1-.185.161l-1.093.631C347.722,90.836,347.668,90.8,347.668,90.663Zm3.8-5.049-.749-2.169-.759,3.04Z" fill="#80c19c"/>
                <path id="Path_260" data-name="Path 260" d="M354.618,86.729c-.063-.048-.1-.16-.1-.337V79.251a.988.988,0,0,1,.1-.451.754.754,0,0,1,.311-.313l2.285-1.319q2.295-1.324,2.294,1.349a4.723,4.723,0,0,1-.27,1.607,4.361,4.361,0,0,1-.8,1.373l.948,2.222a.416.416,0,0,1,.027.153.354.354,0,0,1-.19.327l-1,.578a.37.37,0,0,1-.19.068c-.042,0-.078-.046-.108-.124l-.831-2.17-1.075.621v2.36a.984.984,0,0,1-.09.444.769.769,0,0,1-.316.308l-.678.391C354.785,86.758,354.681,86.777,354.618,86.729ZM357,81.17a1.911,1.911,0,0,0,1.029-1.8q0-.627-.235-.78t-.7.117l-1.075.621v2.409Z" fill="#80c19c"/>
                <path id="Path_261" data-name="Path 261" d="M360.344,83.423c-.064-.048-.1-.16-.1-.337V75.945a.986.986,0,0,1,.1-.452.77.77,0,0,1,.311-.312l1.9-1.1q1.543-.891,2.348-.368t.8,2.642a7.261,7.261,0,0,1-.813,3.564,6.083,6.083,0,0,1-2.339,2.35l-1.9,1.1C360.511,83.453,360.407,83.471,360.344,83.423Zm2.28-2.647a2.924,2.924,0,0,0,1.2-1.29,5.32,5.32,0,0,0,.4-2.271q0-1.444-.4-1.8t-1.2.1l-.885.51v5.263Z" fill="#80c19c"/>
              </g>
              <g id="Group_120" data-name="Group 120" opacity="0.15">
                <path id="Path_262" data-name="Path 262" d="M308.3,112.673q-.862-.6-.862-2.675a7.677,7.677,0,0,1,.844-3.667,6.2,6.2,0,0,1,2.416-2.491,4.828,4.828,0,0,1,1.2-.516,1.713,1.713,0,0,1,.908-.024.133.133,0,0,1,.09.141.7.7,0,0,1-.054.235l-.317.917a.405.405,0,0,1-.126.206.244.244,0,0,1-.154.016,2.082,2.082,0,0,0-1.363.354,3.649,3.649,0,0,0-1.445,1.551,5.282,5.282,0,0,0-.515,2.422q0,1.422.537,1.821t1.468-.136a4.712,4.712,0,0,0,1.426-1.258.7.7,0,0,1,.154-.161c.042-.024.084,0,.127.06l.352.6a.254.254,0,0,1,.036.124.574.574,0,0,1-.108.243,6.257,6.257,0,0,1-2.177,1.931Q309.168,113.278,308.3,112.673Z" fill="#80c19c"/>
                <path id="Path_263" data-name="Path 263" d="M313.841,110.271c-.063-.048-.1-.16-.094-.336v-7.141a1.006,1.006,0,0,1,.1-.452.769.769,0,0,1,.312-.313l2.285-1.319q2.294-1.324,2.294,1.349a4.723,4.723,0,0,1-.271,1.607,4.362,4.362,0,0,1-.8,1.373l.948,2.223a.413.413,0,0,1,.027.153.354.354,0,0,1-.189.326l-1,.579a.363.363,0,0,1-.189.067c-.042,0-.079-.045-.109-.124l-.83-2.17-1.076.622v2.36a.972.972,0,0,1-.09.442.77.77,0,0,1-.317.31l-.677.391C314.008,110.3,313.9,110.319,313.841,110.271Zm2.38-5.558a1.914,1.914,0,0,0,1.03-1.8c0-.418-.079-.678-.235-.781s-.391-.063-.7.118l-1.075.621v2.408Z" fill="#80c19c"/>
                <path id="Path_264" data-name="Path 264" d="M319.568,106.965c-.064-.048-.1-.16-.1-.336V99.487a.973.973,0,0,1,.1-.451.754.754,0,0,1,.311-.313l3.748-2.164c.145-.083.244-.1.3-.057s.081.16.081.344v.445a1.026,1.026,0,0,1-.081.445.7.7,0,0,1-.3.292l-2.665,1.538v1.9l1.861-1.074c.145-.083.244-.1.3-.057s.082.159.082.344v.421a1.031,1.031,0,0,1-.082.445.7.7,0,0,1-.3.292l-1.861,1.075v1.914l2.656-1.533c.144-.083.244-.1.3-.051s.081.165.081.35v.433a.991.991,0,0,1-.081.439.724.724,0,0,1-.3.286l-3.739,2.159C319.734,107,319.63,107.013,319.568,106.965Z" fill="#80c19c"/>
                <path id="Path_265" data-name="Path 265" d="M324.751,103.972c-.063-.048-.1-.16-.1-.336V96.5a1,1,0,0,1,.1-.452.755.755,0,0,1,.312-.312l1.9-1.1q1.545-.891,2.348-.368t.8,2.643a7.264,7.264,0,0,1-.813,3.564,6.077,6.077,0,0,1-2.339,2.35l-1.9,1.1C324.918,104,324.814,104.021,324.751,103.972Zm2.281-2.647a2.925,2.925,0,0,0,1.2-1.29,5.331,5.331,0,0,0,.4-2.27q0-1.444-.4-1.806t-1.2.1l-.886.511v5.262Z" fill="#80c19c"/>
                <path id="Path_266" data-name="Path 266" d="M330.947,100.395c-.064-.048-.1-.16-.1-.336V92.917a.979.979,0,0,1,.1-.451.758.758,0,0,1,.311-.312l.677-.392c.151-.087.257-.105.317-.056s.09.167.09.351V99.2a.984.984,0,0,1-.09.444.768.768,0,0,1-.317.309l-.677.391C331.114,100.425,331.01,100.443,330.947,100.395Z" fill="#80c19c"/>
                <path id="Path_267" data-name="Path 267" d="M334.857,98.137c-.063-.048-.1-.159-.1-.336V91.6l-1.481.856c-.144.083-.244.1-.3.057s-.081-.16-.081-.344v-.446a1.03,1.03,0,0,1,.081-.444.71.71,0,0,1,.3-.292l4.462-2.576c.144-.083.245-.1.3-.055s.086.164.086.348v.446a.958.958,0,0,1-.086.434.73.73,0,0,1-.3.3l-1.482.855v6.2a.962.962,0,0,1-.094.447.8.8,0,0,1-.321.311l-.668.386C335.027,98.166,334.921,98.185,334.857,98.137Z" fill="#80c19c"/>
                <path id="Path_268" data-name="Path 268" d="M342.624,92.859q-.862-.6-.863-2.675a7.675,7.675,0,0,1,.845-3.667,6.193,6.193,0,0,1,2.416-2.491,4.8,4.8,0,0,1,1.2-.516,1.713,1.713,0,0,1,.908-.024.132.132,0,0,1,.09.141.648.648,0,0,1-.053.235l-.317.917a.405.405,0,0,1-.126.206.232.232,0,0,1-.154.016,2.092,2.092,0,0,0-1.364.354,3.655,3.655,0,0,0-1.445,1.551,5.308,5.308,0,0,0-.514,2.422q0,1.422.537,1.822t1.467-.137a4.733,4.733,0,0,0,1.428-1.258.651.651,0,0,1,.153-.16c.042-.025.084-.005.127.058l.352.6a.254.254,0,0,1,.036.124.574.574,0,0,1-.108.243,6.257,6.257,0,0,1-2.177,1.931Q343.486,93.463,342.624,92.859Z" fill="#80c19c"/>
                <path id="Path_269" data-name="Path 269" d="M347.668,90.663a1,1,0,0,1,.027-.208l2.339-8.781a1.351,1.351,0,0,1,.14-.363.627.627,0,0,1,.222-.207l.659-.38c.1-.056.169-.072.217-.047a.37.37,0,0,1,.135.205l2.339,6.079a.635.635,0,0,1,.027.177.318.318,0,0,1-.162.3l-1.093.631c-.084.05-.146.067-.185.053s-.074-.059-.1-.139l-.415-1.18-2.2,1.266-.407,1.656a.893.893,0,0,1-.1.259.554.554,0,0,1-.185.161l-1.093.631C347.722,90.836,347.668,90.8,347.668,90.663Zm3.8-5.049-.749-2.169-.759,3.04Z" fill="#80c19c"/>
                <path id="Path_270" data-name="Path 270" d="M354.618,86.729c-.063-.048-.1-.16-.1-.337V79.251a.988.988,0,0,1,.1-.451.754.754,0,0,1,.311-.313l2.285-1.319q2.295-1.324,2.294,1.349a4.723,4.723,0,0,1-.27,1.607,4.361,4.361,0,0,1-.8,1.373l.948,2.222a.416.416,0,0,1,.027.153.354.354,0,0,1-.19.327l-1,.578a.37.37,0,0,1-.19.068c-.042,0-.078-.046-.108-.124l-.831-2.17-1.075.621v2.36a.984.984,0,0,1-.09.444.769.769,0,0,1-.316.308l-.678.391C354.785,86.758,354.681,86.777,354.618,86.729ZM357,81.17a1.911,1.911,0,0,0,1.029-1.8q0-.627-.235-.78t-.7.117l-1.075.621v2.409Z" fill="#80c19c"/>
                <path id="Path_271" data-name="Path 271" d="M360.344,83.423c-.064-.048-.1-.16-.1-.337V75.945a.986.986,0,0,1,.1-.452.77.77,0,0,1,.311-.312l1.9-1.1q1.543-.891,2.348-.368t.8,2.642a7.261,7.261,0,0,1-.813,3.564,6.083,6.083,0,0,1-2.339,2.35l-1.9,1.1C360.511,83.453,360.407,83.471,360.344,83.423Zm2.28-2.647a2.924,2.924,0,0,0,1.2-1.29,5.32,5.32,0,0,0,.4-2.271q0-1.444-.4-1.8t-1.2.1l-.885.51v5.263Z" fill="#80c19c"/>
              </g>
            </g>
            <g id="Group_124" data-name="Group 124">
              <g id="Group_122" data-name="Group 122">
                <path id="Path_272" data-name="Path 272" d="M316.859,140.246l4.017-2.319c.521-.3.944-.057.944.545V139.7a2.089,2.089,0,0,1-.944,1.636l-4.017,2.319c-.522.3-.945.057-.945-.545v-1.229A2.088,2.088,0,0,1,316.859,140.246Z" fill="#80c19c"/>
                <path id="Path_273" data-name="Path 273" d="M308,145.361l4.017-2.32c.522-.3.944-.057.944.545v1.229a2.085,2.085,0,0,1-.944,1.636L308,148.77c-.522.3-.945.057-.945-.545V147A2.086,2.086,0,0,1,308,145.361Z" fill="#80c19c"/>
                <path id="Path_274" data-name="Path 274" d="M358.715,124.6,308.71,153.473a3.477,3.477,0,0,0-1.574,2.726v1.48c0,1,.7,1.411,1.574.909l50.006-28.872a3.477,3.477,0,0,0,1.574-2.725v-1.48C360.289,124.507,359.585,124.1,358.715,124.6Z" fill="#80c19c"/>
              </g>
              <g id="Group_123" data-name="Group 123">
                <path id="Path_275" data-name="Path 275" d="M316.859,140.246l4.017-2.319c.521-.3.944-.057.944.545V139.7a2.089,2.089,0,0,1-.944,1.636l-4.017,2.319c-.522.3-.945.057-.945-.545v-1.229A2.088,2.088,0,0,1,316.859,140.246Z" fill="#455a64"/>
                <path id="Path_276" data-name="Path 276" d="M308,145.361l4.017-2.32c.522-.3.944-.057.944.545v1.229a2.085,2.085,0,0,1-.944,1.636L308,148.77c-.522.3-.945.057-.945-.545V147A2.086,2.086,0,0,1,308,145.361Z" fill="#455a64"/>
                <path id="Path_277" data-name="Path 277" d="M358.715,124.6,308.71,153.473a3.477,3.477,0,0,0-1.574,2.726v1.48c0,1,.7,1.411,1.574.909l50.006-28.872a3.477,3.477,0,0,0,1.574-2.725v-1.48C360.289,124.507,359.585,124.1,358.715,124.6Z" fill="#455a64"/>
              </g>
            </g>
            <g id="Group_129" data-name="Group 129">
              <g id="Group_125" data-name="Group 125">
                <path id="Path_278" data-name="Path 278" d="M308.079,131.346l.186-.107c.566-.327,1.024.02,1.024.774v3.938a2.571,2.571,0,0,1-1.037,2l-.159.1c-.573.351-1.037.025-1.037-.73V133.3A2.452,2.452,0,0,1,308.079,131.346Z" fill="#fafafa"/>
                <path id="Path_279" data-name="Path 279" d="M313.361,128.316l.186-.108c.565-.326,1.024.021,1.024.775v3.938a2.572,2.572,0,0,1-1.038,2l-.158.1c-.573.351-1.038.025-1.038-.729v-4.019A2.449,2.449,0,0,1,313.361,128.316Z" fill="#fafafa"/>
                <path id="Path_280" data-name="Path 280" d="M318.642,125.286l.186-.108c.566-.326,1.024.021,1.024.775v3.938a2.571,2.571,0,0,1-1.037,2l-.159.1c-.573.351-1.037.025-1.037-.729v-4.019A2.452,2.452,0,0,1,318.642,125.286Z" fill="#fafafa"/>
                <path id="Path_281" data-name="Path 281" d="M323.924,122.256l.186-.107c.565-.327,1.024.02,1.024.774v3.938a2.572,2.572,0,0,1-1.038,2l-.158.1c-.573.351-1.038.025-1.038-.73v-4.018A2.449,2.449,0,0,1,323.924,122.256Z" fill="#fafafa"/>
              </g>
              <g id="Group_126" data-name="Group 126">
                <path id="Path_282" data-name="Path 282" d="M332.783,117.08l.186-.107c.566-.327,1.024.02,1.024.774v3.938a2.569,2.569,0,0,1-1.037,2l-.159.1c-.573.351-1.037.025-1.037-.729v-4.019A2.452,2.452,0,0,1,332.783,117.08Z" fill="#fafafa"/>
                <path id="Path_283" data-name="Path 283" d="M338.065,114.05l.186-.107c.565-.327,1.024.02,1.024.774v3.938a2.572,2.572,0,0,1-1.038,2l-.158.1c-.573.351-1.038.025-1.038-.729v-4.019A2.449,2.449,0,0,1,338.065,114.05Z" fill="#fafafa"/>
                <path id="Path_284" data-name="Path 284" d="M343.346,111.02l.186-.107c.566-.327,1.024.02,1.024.774v3.938a2.571,2.571,0,0,1-1.037,2l-.159.1c-.573.351-1.037.025-1.037-.729v-4.019A2.452,2.452,0,0,1,343.346,111.02Z" fill="#fafafa"/>
                <path id="Path_285" data-name="Path 285" d="M348.628,107.99l.186-.107c.565-.327,1.024.02,1.024.774V112.6a2.57,2.57,0,0,1-1.038,2l-.158.1c-.573.351-1.038.025-1.038-.729v-4.019A2.449,2.449,0,0,1,348.628,107.99Z" fill="#fafafa"/>
              </g>
              <g id="Group_127" data-name="Group 127">
                <path id="Path_286" data-name="Path 286" d="M357.487,102.814l.186-.107c.566-.327,1.024.02,1.024.774v3.938a2.571,2.571,0,0,1-1.037,2l-.159.1c-.573.351-1.038.025-1.038-.729V104.77A2.452,2.452,0,0,1,357.487,102.814Z" fill="#fafafa"/>
                <path id="Path_287" data-name="Path 287" d="M362.769,99.784l.186-.108c.565-.326,1.024.021,1.024.775v3.938a2.572,2.572,0,0,1-1.038,2l-.158.1c-.573.351-1.038.025-1.038-.729V101.74A2.449,2.449,0,0,1,362.769,99.784Z" fill="#fafafa"/>
                <path id="Path_288" data-name="Path 288" d="M368.05,96.754l.186-.108c.566-.326,1.024.021,1.024.775v3.938a2.569,2.569,0,0,1-1.037,2l-.159.1c-.573.351-1.038.025-1.038-.729V98.71A2.452,2.452,0,0,1,368.05,96.754Z" fill="#fafafa"/>
                <path id="Path_289" data-name="Path 289" d="M373.332,93.724l.186-.107c.565-.326,1.024.02,1.024.774v3.938a2.57,2.57,0,0,1-1.038,2l-.158.1c-.573.351-1.038.025-1.038-.729V95.68A2.449,2.449,0,0,1,373.332,93.724Z" fill="#fafafa"/>
              </g>
              <g id="Group_128" data-name="Group 128">
                <path id="Path_290" data-name="Path 290" d="M382.191,88.548l.186-.107c.566-.327,1.024.02,1.024.775v3.937a2.569,2.569,0,0,1-1.037,2l-.159.1c-.573.351-1.038.025-1.038-.729V90.5A2.452,2.452,0,0,1,382.191,88.548Z" fill="#fafafa"/>
                <path id="Path_291" data-name="Path 291" d="M387.473,85.518l.186-.107c.565-.327,1.024.02,1.024.774v3.938a2.57,2.57,0,0,1-1.038,2l-.158.1c-.573.351-1.038.025-1.038-.729V87.474A2.449,2.449,0,0,1,387.473,85.518Z" fill="#fafafa"/>
                <path id="Path_292" data-name="Path 292" d="M392.754,82.488l.186-.107c.566-.326,1.024.02,1.024.774v3.938a2.569,2.569,0,0,1-1.037,2l-.159.1c-.573.351-1.038.025-1.038-.729V84.444A2.452,2.452,0,0,1,392.754,82.488Z" fill="#fafafa"/>
                <path id="Path_293" data-name="Path 293" d="M398.036,79.458l.186-.107c.565-.327,1.024.02,1.024.775v3.937a2.57,2.57,0,0,1-1.038,2l-.158.1c-.573.351-1.038.025-1.038-.729V81.414A2.449,2.449,0,0,1,398.036,79.458Z" fill="#fafafa"/>
              </g>
            </g>
          </g>
          <path id="Path_294" data-name="Path 294" d="M301.726,104.089l-4.127-2.383v20.51l4.132,2.355Z" fill="#263238"/>
        </g>
        <g id="Group_130" data-name="Group 130">
          <path id="Path_295" data-name="Path 295" d="M301.735,132.9l0,0h0l-4.121-2.408-12.014,11.564a1.691,1.691,0,0,0,.331,2.7c.053.026,3.347,1.948,3.969,2.306a2.6,2.6,0,0,0,1.314.276L301.73,145.3a87.293,87.293,0,0,0,0-12.4Z" fill="#80c19c"/>
          <path id="Path_296" data-name="Path 296" d="M289.894,147.054c-.622-.358-3.916-2.28-3.969-2.306a1.691,1.691,0,0,1-.331-2.7l12.014-11.564,4.127,2.412-12.013,11.55A1.7,1.7,0,0,0,289.894,147.054Z" fill="#fff" opacity="0.5"/>
        </g>
      </g>
    </g>
    <path id="Shadow-8" data-name="Shadow" d="M63.028,308.729,34.3,292.136a.372.372,0,0,1,0-.705l45.992-26.554a1.35,1.35,0,0,1,1.221,0l28.732,16.593a.372.372,0,0,1,0,.705L64.249,308.729A1.35,1.35,0,0,1,63.028,308.729Z" transform="translate(267.19 37.711)" fill="#e0e0e0"/>
    <path id="Shadow-9" data-name="Shadow" d="M161.768,266.2l-28.732-16.593a.372.372,0,0,1,0-.7l41.125-23.729a1.35,1.35,0,0,1,1.221,0l28.732,16.593a.372.372,0,0,1,0,.705L162.989,266.2A1.35,1.35,0,0,1,161.768,266.2Z" transform="translate(224.142 55.021)" fill="#e0e0e0"/>
    <g id="Bags" transform="translate(309.815 218.741)">
      <g id="Dark_Bag" data-name="Dark Bag" transform="translate(58.758 0)">
        <path id="Path_1-2" data-name="Path 1" d="M190.816,116.864a4.673,4.673,0,0,0-4.787.284c-3.923,2.265-7.115,8.811-7.115,14.592v13.63a.62.62,0,0,0,1.24,0v-13.63c0-5.387,2.913-11.451,6.494-13.519a3.446,3.446,0,0,1,3.548-.285c1.478.854,2.327,3.021,2.327,5.947v13.569a.62.62,0,1,0,1.24,0V123.884C193.762,120.5,192.688,117.945,190.816,116.864Z" transform="translate(-164.543 -116.331)" fill="#37474f"/>
        <g id="Group_1-2" data-name="Group 1" transform="translate(38.394 6.873)">
          <path id="Path_2-2" data-name="Path 2" d="M239.835,200.33l-3.817-65.524-10.928-6.29-3.584,61.231Z" transform="translate(-221.506 -128.516)" fill="#80c19c"/>
          <path id="Path_3-2" data-name="Path 3" d="M239.835,200.33l-3.817-65.524-10.928-6.29-3.584,61.231Z" transform="translate(-221.506 -128.516)" opacity="0.2"/>
        </g>
        <g id="Group_2-2" data-name="Group 2" transform="translate(0 6.873)">
          <path id="Path_4-2" data-name="Path 4" d="M157.018,150.683l-3.584,61.231,38.394-22.167,3.584-61.231Z" transform="translate(-153.434 -128.516)" fill="#80c19c"/>
          <path id="Path_5-2" data-name="Path 5" d="M157.018,150.683l-3.584,61.231,38.394-22.167,3.584-61.231Z" transform="translate(-153.434 -128.516)" opacity="0.3"/>
        </g>
        <g id="Group_3-2" data-name="Group 3" transform="translate(0 29.04)">
          <path id="Path_6-2" data-name="Path 6" d="M157.018,167.817l10.928,6.29,3.817,65.524-18.329-10.582Z" transform="translate(-153.434 -167.817)" fill="#80c19c"/>
          <path id="Path_7-2" data-name="Path 7" d="M157.018,167.817l10.928,6.29,3.817,65.524-18.329-10.582Z" transform="translate(-153.434 -167.817)" opacity="0.15"/>
        </g>
        <path id="Path_8-2" data-name="Path 8" d="M171.763,256.739l-7.878-11.06-.986-38.621-.983,37.951-8.481,1.147Z" transform="translate(-153.434 -155.886)" opacity="0.15"/>
        <path id="Path_9-2" data-name="Path 9" d="M217.557,139.668l-38.394,22.167,3.817,65.524,38.394-22.167Zm-26.963,23.7c-.757.43-1.371.07-1.371-.8a3.032,3.032,0,0,1,1.372-2.375c.757-.437,1.371-.077,1.371.8A3.01,3.01,0,0,1,190.594,163.368Zm13.608-7.917c-.757.43-1.371.071-1.371-.8a3.03,3.03,0,0,1,1.371-2.375c.757-.438,1.371-.077,1.371.8A3.009,3.009,0,0,1,204.2,155.451Z" transform="translate(-164.651 -126.505)" fill="#80c19c"/>
        <path id="Path_10-2" data-name="Path 10" d="M210.232,127.912a4.67,4.67,0,0,0-4.786.285c-3.923,2.265-7.115,8.811-7.115,14.592v13.63a.62.62,0,0,0,1.24,0v-13.63c0-5.386,2.913-11.451,6.494-13.519a3.443,3.443,0,0,1,3.547-.285c1.479.854,2.327,3.021,2.327,5.947V148.5a.62.62,0,0,0,1.239,0V134.932C213.178,131.552,212.1,128.992,210.232,127.912Z" transform="translate(-173.008 -121.147)" fill="#455a64"/>
      </g>
      <g id="Light_Bag" data-name="Light Bag" transform="translate(0 10.757)">
        <path id="Path_11-2" data-name="Path 11" d="M92.09,136.013a5.355,5.355,0,0,0-5.485.327c-4.495,2.595-8.151,10.095-8.151,16.719v15.617a.71.71,0,1,0,1.42,0V153.059c0-6.172,3.338-13.12,7.441-15.49a3.946,3.946,0,0,1,4.065-.326c1.694.978,2.666,3.462,2.666,6.814v15.548a.71.71,0,0,0,1.42,0V144.057C95.466,140.184,94.236,137.252,92.09,136.013Z" transform="translate(-61.987 -135.403)" fill="#37474f"/>
        <g id="Group_4-2" data-name="Group 4" transform="translate(43.993 7.875)">
          <path id="Path_12-2" data-name="Path 12" d="M148.258,231.649l-4.374-75.078-12.521-7.207-4.106,70.16Z" transform="translate(-127.256 -149.365)" fill="#80c19c"/>
          <path id="Path_13-2" data-name="Path 13" d="M148.258,231.649l-4.374-75.078-12.521-7.207-4.106,70.16Z" transform="translate(-127.256 -149.365)" fill="#fff" opacity="0.6"/>
          <path id="Path_14-2" data-name="Path 14" d="M148.258,231.649l-4.374-75.078-12.521-7.207-4.106,70.16Z" transform="translate(-127.256 -149.365)" opacity="0.05"/>
        </g>
        <g id="Group_5-2" data-name="Group 5" transform="translate(0 7.875)">
          <path id="Path_15-2" data-name="Path 15" d="M53.365,174.764l-4.106,70.16,43.993-25.4,4.106-70.16Z" transform="translate(-49.259 -149.365)" fill="#80c19c"/>
          <path id="Path_16-2" data-name="Path 16" d="M53.365,174.764l-4.106,70.16,43.993-25.4,4.106-70.16Z" transform="translate(-49.259 -149.365)" fill="#fff" opacity="0.3"/>
          <path id="Path_17-2" data-name="Path 17" d="M53.365,174.764l-4.106,70.16,43.993-25.4,4.106-70.16Z" transform="translate(-49.259 -149.365)" opacity="0.05"/>
        </g>
        <g id="Group_6-2" data-name="Group 6" transform="translate(0 33.274)">
          <path id="Path_18-2" data-name="Path 18" d="M53.365,194.4,65.886,201.6l4.374,75.078-21-12.125Z" transform="translate(-49.259 -194.396)" fill="#80c19c"/>
          <path id="Path_19-2" data-name="Path 19" d="M53.365,194.4,65.886,201.6l4.374,75.078-21-12.125Z" transform="translate(-49.259 -194.396)" fill="#fff" opacity="0.55"/>
        </g>
        <path id="Path_20-2" data-name="Path 20" d="M70.26,296.284l-9.027-12.673L60.1,239.359l-1.127,43.484-9.718,1.315Z" transform="translate(-49.258 -180.725)" opacity="0.05"/>
        <path id="Path_21-2" data-name="Path 21" d="M122.731,162.142l-43.993,25.4,4.374,75.078,43.993-25.4ZM91.836,189.3c-.867.492-1.571.08-1.571-.922a3.473,3.473,0,0,1,1.571-2.721c.868-.5,1.571-.089,1.571.922A3.45,3.45,0,0,1,91.836,189.3Zm15.592-9.072c-.867.493-1.571.081-1.571-.921a3.472,3.472,0,0,1,1.571-2.721c.868-.5,1.571-.089,1.571.922A3.447,3.447,0,0,1,107.428,180.227Z" transform="translate(-62.111 -147.06)" fill="#80c19c"/>
        <path id="Path_22-2" data-name="Path 22" d="M122.731,162.142l-43.993,25.4,4.374,75.078,43.993-25.4ZM91.836,189.3c-.867.492-1.571.08-1.571-.922a3.473,3.473,0,0,1,1.571-2.721c.868-.5,1.571-.089,1.571.922A3.45,3.45,0,0,1,91.836,189.3Zm15.592-9.072c-.867.493-1.571.081-1.571-.921a3.472,3.472,0,0,1,1.571-2.721c.868-.5,1.571-.089,1.571.922A3.447,3.447,0,0,1,107.428,180.227Z" transform="translate(-62.111 -147.06)" fill="#fff" opacity="0.7"/>
        <path id="Path_23-2" data-name="Path 23" d="M114.338,148.672a5.351,5.351,0,0,0-5.484.327c-4.5,2.595-8.152,10.095-8.152,16.719v15.617a.71.71,0,1,0,1.42,0V165.719c0-6.172,3.338-13.121,7.441-15.49a3.944,3.944,0,0,1,4.064-.327c1.695.979,2.667,3.462,2.667,6.814v15.549a.71.71,0,0,0,1.42,0V156.716C117.715,152.843,116.484,149.911,114.338,148.672Z" transform="translate(-71.687 -140.921)" fill="#455a64"/>
      </g>
    </g>
  </g>
</svg>
