<svg xmlns="http://www.w3.org/2000/svg" width="435.193" height="371.078" viewBox="0 0 435.193 371.078">
  <g id="_04" data-name="04" transform="translate(-32.799 -53)">
    <g id="Group_2" data-name="Group 2">
      <path id="Path_6" data-name="Path 6" d="M402.211,227.336s-4.666-10.316-3.9-19.163c.782-9.047,4.012-17.517,11.677-23.468s13.626-3.253,14.89-1.076,1.292,6.47-4.418,11.14-11.949,17.421-10.184,30.158l-2.622,7.45Z" fill="#80c19c"/>
      <path id="Path_7" data-name="Path 7" d="M405.029,228.318a.5.5,0,0,1-.439-.262c-1.946-3.584-2.242-18.452.895-26.769,3.819-10.117,10.7-15.837,15.873-17.815a.5.5,0,0,1,.358.934c-4.968,1.9-11.594,7.426-15.3,17.235-3,7.941-2.776,22.581-.952,25.938a.5.5,0,0,1-.44.739Z" fill="#fff"/>
      <path id="Path_8" data-name="Path 8" d="M424.276,248.859c.783-5.142.907-8.3,5.7-11.447s9.053-5.377,9.4-9.87-2.619-9.556-2.467-13.474,2.554-5.756,7.615-9.2,10.247-9.324,5.276-13.518-12.382-.3-15.759,2.628-6.118,4.006-11.3,2.628-10.245,2.209-9.013,8.815.594,9.613-3.573,9.381-10.282,4.1-5.385,14.071Z" fill="#80c19c"/>
      <path id="Path_9" data-name="Path 9" d="M413.727,238.548a.609.609,0,0,1-.061,0,.5.5,0,0,1-.437-.556C415.6,218.037,435.4,196.618,444.4,193.5a.5.5,0,1,1,.326.946c-8.8,3.046-28.175,24.061-30.509,43.659A.5.5,0,0,1,413.727,238.548Z" fill="#fff"/>
      <path id="Path_10" data-name="Path 10" d="M422.3,216.512a.5.5,0,0,1-.479-.354,84,84,0,0,1-2.848-13.727.5.5,0,1,1,.994-.106,82.884,82.884,0,0,0,2.811,13.541.5.5,0,0,1-.478.646Z" fill="#fff"/>
      <path id="Path_11" data-name="Path 11" d="M416.708,227.308a.5.5,0,0,1-.2-.958,26.111,26.111,0,0,1,17.692-1.039.5.5,0,0,1-.325.946,25.575,25.575,0,0,0-16.965,1.009A.51.51,0,0,1,416.708,227.308Z" fill="#fff"/>
    </g>
    <g id="Floor">
      <path id="Path_1" data-name="Path 1" d="M96.533,390.783c84.977,44.393,222.751,44.394,307.727,0s84.977-116.367,0-160.76-222.752-44.393-307.728,0S11.555,346.391,96.533,390.783Z" fill="#e6efef"/>
    </g>
    <g id="Group_1" data-name="Group 1" transform="translate(4 48)">
      <path id="Path_2" data-name="Path 2" d="M64.806,316.321a85.738,85.738,0,0,0,4.3-20.221c.785-10.548-4.324-26.7-13.689-32.1s-14.425,1.278-11.287,7.036,13.731,21.955,13.861,35.956Z" fill="#80c19c"/>
      <path id="Path_3" data-name="Path 3" d="M61.545,316.091a.456.456,0,0,1-.082-.007.5.5,0,0,1-.412-.574l.021-.13c.786-4.758,1.863-11.275.448-23.183-1.59-13.4-5.966-19.6-10.037-23.9a.5.5,0,0,1,.727-.688c4.183,4.416,8.679,10.777,10.3,24.467,1.431,12.049.341,18.645-.454,23.463l-.022.129A.5.5,0,0,1,61.545,316.091Z" fill="#fff"/>
      <path id="Path_4" data-name="Path 4" d="M59.48,322.318c-.972-4.943-4.661-10.495-11.687-13.762s-14.254-5.174-15.561-9.381,3.138-9.08,12.292-7.036,18.961,15.643,18.437,24.8Z" fill="#80c19c"/>
      <path id="Path_5" data-name="Path 5" d="M61.543,319.628a.5.5,0,0,1-.493-.425c-1.874-12.4-12.393-21.865-20.661-22.606a.5.5,0,0,1-.454-.542.505.505,0,0,1,.543-.454c8.638.774,19.618,10.6,21.56,23.452a.5.5,0,0,1-.419.569A.487.487,0,0,1,61.543,319.628Z" fill="#fff"/>
    </g>
    <g id="Boxes" transform="translate(-1 28)">
      <g id="Group_29" data-name="Group 29">
        <path id="Path_12" data-name="Path 12" d="M282.892,127.974,258.52,113.9l-24.363,14.071,24.363,14.071Z" fill="#f5f5f5"/>
        <path id="Path_13" data-name="Path 13" d="M258.52,170.187l24.372-14.07V127.974l-24.372,14.07Z" fill="#ebebeb"/>
        <g id="Group_3" data-name="Group 3">
          <path id="Path_14" data-name="Path 14" d="M263.216,160.852a.719.719,0,0,1-.366-.1,1.112,1.112,0,0,1-.457-1.011v-3.208l.152.027,2.338-1.373v3.332a2.7,2.7,0,0,1-1.152,2.177A1.031,1.031,0,0,1,263.216,160.852Zm-.448-3.869v2.761a.768.768,0,0,0,.269.687.514.514,0,0,0,.507-.057,2.361,2.361,0,0,0,.964-1.852v-.244h-.866l-.17-1.169Zm1.2.92h.542v-2.058l-1.395.819.691.123Z" fill="#fff"/>
        </g>
        <g id="Group_4" data-name="Group 4">
          <path id="Path_15" data-name="Path 15" d="M263.638,163.229a.188.188,0,0,1-.188-.188v-2.5a.188.188,0,1,1,.375,0v2.5A.188.188,0,0,1,263.638,163.229Z" fill="#fff"/>
        </g>
        <g id="Group_5" data-name="Group 5">
          <path id="Path_16" data-name="Path 16" d="M262.549,163.857a.185.185,0,0,1-.162-.093.188.188,0,0,1,.068-.257l2.177-1.257a.187.187,0,1,1,.187.325l-2.176,1.257A.189.189,0,0,1,262.549,163.857Z" fill="#fff"/>
        </g>
        <g id="Group_6" data-name="Group 6">
          <path id="Path_17" data-name="Path 17" d="M270.306,159.543a.4.4,0,0,1-.2-.052.5.5,0,0,1-.225-.451v-.514a.188.188,0,0,1,.375,0v.514c0,.077.021.117.035.125s.059.005.124-.032a1.1,1.1,0,0,0,.348-.848v-3.331a.188.188,0,0,1,.375,0v3.331a1.431,1.431,0,0,1-.533,1.171A.59.59,0,0,1,270.306,159.543Z" fill="#fff"/>
        </g>
        <g id="Group_7" data-name="Group 7">
          <path id="Path_18" data-name="Path 18" d="M268.331,156.631v-.325a5.31,5.31,0,0,1,2.4-4.154,1.587,1.587,0,0,1,2.586,1.493v.108Zm3.521-4.445a1.91,1.91,0,0,0-.935.291,4.952,4.952,0,0,0-2.193,3.494l4.214-2.433a1.387,1.387,0,0,0-.579-1.223A1,1,0,0,0,271.852,152.186Z" fill="#fff"/>
        </g>
        <g id="Group_10" data-name="Group 10">
          <g id="Group_8" data-name="Group 8">
            <path id="Path_19" data-name="Path 19" d="M277.039,155.705a.187.187,0,0,1-.187-.188v-6.38a.188.188,0,0,1,.375,0v6.38A.188.188,0,0,1,277.039,155.705Z" fill="#fff"/>
          </g>
          <g id="Group_9" data-name="Group 9">
            <path id="Path_20" data-name="Path 20" d="M276.49,150.592a.192.192,0,0,1-.074-.015.188.188,0,0,1-.1-.247l.667-1.541.744.86a.186.186,0,0,1-.018.264.188.188,0,0,1-.265-.019l-.353-.408-.431.993A.187.187,0,0,1,276.49,150.592Z" fill="#fff"/>
          </g>
        </g>
        <g id="Group_13" data-name="Group 13">
          <g id="Group_11" data-name="Group 11">
            <path id="Path_21" data-name="Path 21" d="M278.773,154.716a.187.187,0,0,1-.187-.187v-6.38a.188.188,0,1,1,.375,0v6.38A.188.188,0,0,1,278.773,154.716Z" fill="#fff"/>
          </g>
          <g id="Group_12" data-name="Group 12">
            <path id="Path_22" data-name="Path 22" d="M278.225,149.6a.181.181,0,0,1-.075-.016.187.187,0,0,1-.1-.246l.667-1.541.744.859a.187.187,0,1,1-.283.245l-.354-.408-.431.994A.187.187,0,0,1,278.225,149.6Z" fill="#fff"/>
          </g>
        </g>
        <path id="Path_23" data-name="Path 23" d="M258.52,170.187l-24.373-14.071.01-28.143,24.363,14.071Z" fill="#e0e0e0"/>
        <path id="Path_24" data-name="Path 24" d="M247.656,135.772l24.358-14.079-2.755-1.591L244.9,134.18Z" fill="#fff"/>
        <path id="Path_25" data-name="Path 25" d="M237.854,144.108l8.721,5.036a3.828,3.828,0,0,1,1.732,3v5.381c0,1.105-.776,1.552-1.732,1l-8.723-5.036a3.829,3.829,0,0,1-1.732-3v-5.381C236.122,144,236.9,143.556,237.854,144.108Z" fill="#80c19c"/>
        <g id="Group_14" data-name="Group 14">
          <path id="Path_26" data-name="Path 26" d="M237.178,145.454l.331.191v5.976l-.331-.191Z" fill="#80c19c"/>
        </g>
        <g id="Group_15" data-name="Group 15">
          <path id="Path_27" data-name="Path 27" d="M238.527,146.232l.571.336v5.976l-.571-.336Z" fill="#80c19c"/>
        </g>
        <g id="Group_16" data-name="Group 16">
          <path id="Path_28" data-name="Path 28" d="M239.876,147.01l.331.191v5.976l-.331-.191Z" fill="#80c19c"/>
        </g>
        <g id="Group_17" data-name="Group 17">
          <path id="Path_29" data-name="Path 29" d="M240.893,147.587l.663.393v5.976l-.663-.393Z" fill="#80c19c"/>
        </g>
        <g id="Group_18" data-name="Group 18">
          <path id="Path_30" data-name="Path 30" d="M242.574,148.568l.331.191v5.976l-.331-.191Z" fill="#80c19c"/>
        </g>
        <g id="Group_19" data-name="Group 19">
          <path id="Path_31" data-name="Path 31" d="M243.546,149.116l.709.422v5.976l-.709-.421Z" fill="#80c19c"/>
        </g>
        <g id="Group_20" data-name="Group 20">
          <path id="Path_32" data-name="Path 32" d="M245.272,150.125l.331.191v5.976l-.331-.191Z" fill="#80c19c"/>
        </g>
        <g id="Group_21" data-name="Group 21">
          <path id="Path_33" data-name="Path 33" d="M246.042,150.563l.166.1v5.976l-.166-.1Z" fill="#80c19c"/>
        </g>
        <g id="Group_22" data-name="Group 22">
          <path id="Path_34" data-name="Path 34" d="M244.657,149.8l.166.1v5.976l-.166-.1Z" fill="#80c19c"/>
        </g>
        <g id="Group_23" data-name="Group 23">
          <path id="Path_35" data-name="Path 35" d="M241.94,148.207l.166.1v5.976l-.166-.1Z" fill="#80c19c"/>
        </g>
        <g id="Group_24" data-name="Group 24">
          <path id="Path_36" data-name="Path 36" d="M240.451,147.353l.166.1v5.976l-.166-.1Z" fill="#80c19c"/>
        </g>
        <g id="Group_25" data-name="Group 25">
          <path id="Path_37" data-name="Path 37" d="M239.382,146.763l.166.1v5.976l-.166-.1Z" fill="#80c19c"/>
        </g>
        <g id="Group_26" data-name="Group 26">
          <path id="Path_38" data-name="Path 38" d="M237.933,145.883l.166.1v5.976l-.165-.1Z" fill="#80c19c"/>
        </g>
        <g id="Group_27" data-name="Group 27">
          <path id="Path_39" data-name="Path 39" d="M246.621,150.9l.331.191v5.976l-.331-.191Z" fill="#80c19c"/>
        </g>
        <path id="Path_40" data-name="Path 40" d="M250.4,123.283l-28.434-16.416-28.434,16.416L221.96,139.7Z" fill="#f5f5f5"/>
        <path id="Path_41" data-name="Path 41" d="M209.774,132.662l28.434-16.417-2.757-1.59-28.433,16.416Z" fill="#fff"/>
        <path id="Path_42" data-name="Path 42" d="M221.961,191.294,250.4,174.878v-51.6L221.961,139.7Z" fill="#ebebeb"/>
        <path id="Path_43" data-name="Path 43" d="M226.656,181.959a.728.728,0,0,1-.366-.1,1.113,1.113,0,0,1-.457-1.012v-3.208l.152.027,2.338-1.373v3.333a2.7,2.7,0,0,1-1.151,2.176A1.037,1.037,0,0,1,226.656,181.959Zm-.448-3.868v2.76a.768.768,0,0,0,.269.687.517.517,0,0,0,.507-.056,2.359,2.359,0,0,0,.964-1.852v-.244h-.865l-.171-1.17Zm1.2.92h.541v-2.058l-1.394.818.69.124Z" fill="#fff"/>
        <path id="Path_44" data-name="Path 44" d="M227.078,184.336a.187.187,0,0,1-.187-.187v-2.505a.188.188,0,1,1,.375,0v2.505A.188.188,0,0,1,227.078,184.336Z" fill="#fff"/>
        <path id="Path_45" data-name="Path 45" d="M225.99,184.965a.188.188,0,0,1-.094-.35l2.177-1.257a.188.188,0,0,1,.188.325l-2.177,1.257A.2.2,0,0,1,225.99,184.965Z" fill="#fff"/>
        <path id="Path_46" data-name="Path 46" d="M233.747,180.651a.4.4,0,0,1-.2-.053.5.5,0,0,1-.225-.451v-.513a.188.188,0,1,1,.375,0v.513c0,.077.022.118.035.126s.059.006.124-.032a1.1,1.1,0,0,0,.348-.848v-3.331a.188.188,0,1,1,.375,0v3.331a1.431,1.431,0,0,1-.533,1.171A.59.59,0,0,1,233.747,180.651Z" fill="#fff"/>
        <path id="Path_47" data-name="Path 47" d="M231.772,177.738v-.325a5.31,5.31,0,0,1,2.4-4.154,1.587,1.587,0,0,1,2.585,1.493v.109Zm3.521-4.444a1.91,1.91,0,0,0-.935.29,4.955,4.955,0,0,0-2.193,3.494l4.214-2.433a1.388,1.388,0,0,0-.579-1.222A1,1,0,0,0,235.293,173.294Z" fill="#fff"/>
        <path id="Path_48" data-name="Path 48" d="M240.48,176.812a.187.187,0,0,1-.187-.187v-6.38a.188.188,0,1,1,.375,0v6.38A.188.188,0,0,1,240.48,176.812Z" fill="#fff"/>
        <path id="Path_49" data-name="Path 49" d="M239.932,171.7a.18.18,0,0,1-.075-.015.188.188,0,0,1-.1-.247l.667-1.54.744.859a.187.187,0,0,1-.283.245l-.354-.408-.431.994A.184.184,0,0,1,239.932,171.7Z" fill="#fff"/>
        <path id="Path_50" data-name="Path 50" d="M242.214,175.824a.188.188,0,0,1-.188-.188v-6.38a.188.188,0,0,1,.375,0v6.38A.188.188,0,0,1,242.214,175.824Z" fill="#fff"/>
        <path id="Path_51" data-name="Path 51" d="M241.666,170.711a.192.192,0,0,1-.074-.015.187.187,0,0,1-.1-.247l.667-1.541.744.859a.187.187,0,1,1-.283.245l-.353-.408-.431.995A.187.187,0,0,1,241.666,170.711Z" fill="#fff"/>
        <path id="Path_52" data-name="Path 52" d="M221.961,191.295l-28.434-16.416v-51.6L221.96,139.7Z" fill="#e0e0e0"/>
        <path id="Path_53" data-name="Path 53" d="M199.312,164.149l8.721,5.035a3.833,3.833,0,0,1,1.733,3v5.381c0,1.1-.775,1.553-1.732,1l-8.723-5.035a3.832,3.832,0,0,1-1.732-3v-5.381C197.58,164.044,198.355,163.6,199.312,164.149Z" fill="#f5f5f5"/>
        <path id="Path_54" data-name="Path 54" d="M198.636,165.494l.331.191v5.976l-.331-.191Z" fill="#e0e0e0"/>
        <path id="Path_55" data-name="Path 55" d="M199.985,166.272l.571.336v5.976l-.571-.336Z" fill="#e0e0e0"/>
        <path id="Path_56" data-name="Path 56" d="M201.334,167.051l.331.191v5.976l-.331-.191Z" fill="#e0e0e0"/>
        <path id="Path_57" data-name="Path 57" d="M202.351,167.627l.663.393V174l-.663-.393Z" fill="#e0e0e0"/>
        <path id="Path_58" data-name="Path 58" d="M204.032,168.608l.331.191v5.976l-.331-.191Z" fill="#e0e0e0"/>
        <path id="Path_59" data-name="Path 59" d="M205,169.156l.709.422v5.976l-.709-.421Z" fill="#e0e0e0"/>
        <path id="Path_60" data-name="Path 60" d="M206.73,170.165l.332.191v5.976l-.331-.191Z" fill="#e0e0e0"/>
        <path id="Path_61" data-name="Path 61" d="M207.5,170.6l.166.1v5.976l-.166-.1Z" fill="#e0e0e0"/>
        <path id="Path_62" data-name="Path 62" d="M206.115,169.839l.166.1v5.976l-.166-.1Z" fill="#e0e0e0"/>
        <path id="Path_63" data-name="Path 63" d="M203.4,168.248l.166.1v5.976l-.165-.1Z" fill="#e0e0e0"/>
        <path id="Path_64" data-name="Path 64" d="M201.91,167.393l.166.1v5.976l-.165-.1Z" fill="#e0e0e0"/>
        <path id="Path_65" data-name="Path 65" d="M200.841,166.8l.166.1v5.976l-.165-.1Z" fill="#e0e0e0"/>
        <path id="Path_66" data-name="Path 66" d="M199.391,165.923l.166.1V172l-.166-.1Z" fill="#e0e0e0"/>
        <path id="Path_67" data-name="Path 67" d="M208.08,170.943l.331.191v5.976l-.331-.191Z" fill="#e0e0e0"/>
        <g id="Group_28" data-name="Group 28">
          <path id="Path_68" data-name="Path 68" d="M207.019,137.729l2.755,1.591v-6.658l-2.755-1.591Z" fill="#f0f0f0"/>
        </g>
      </g>
      <g id="Group_117" data-name="Group 117">
        <g id="Group_30" data-name="Group 30">
          <path id="Path_69" data-name="Path 69" d="M165.093,177.223,144.782,165.5l-28.434,16.417,20.311,11.726Z" fill="#f5f5f5"/>
        </g>
        <g id="Group_31" data-name="Group 31">
          <path id="Path_70" data-name="Path 70" d="M136.659,240.544l28.435-16.417v-46.9L136.659,193.64Z" fill="#ebebeb"/>
        </g>
        <g id="Group_35" data-name="Group 35">
          <g id="Group_32" data-name="Group 32">
            <path id="Path_71" data-name="Path 71" d="M141.353,231.208a.732.732,0,0,1-.365-.1,1.114,1.114,0,0,1-.457-1.011v-3.209l.153.027,2.337-1.372v3.332a2.694,2.694,0,0,1-1.151,2.177A1.047,1.047,0,0,1,141.353,231.208Zm-.447-3.868V230.1a.765.765,0,0,0,.27.686.52.52,0,0,0,.507-.056,2.361,2.361,0,0,0,.963-1.852v-.244h-.865l-.171-1.17Zm1.2.92h.541V226.2l-1.394.818.69.124Z" fill="#fff"/>
          </g>
          <g id="Group_33" data-name="Group 33">
            <path id="Path_72" data-name="Path 72" d="M141.776,233.586a.188.188,0,0,1-.187-.188v-2.5a.188.188,0,1,1,.375,0v2.5A.188.188,0,0,1,141.776,233.586Z" fill="#fff"/>
          </g>
          <g id="Group_34" data-name="Group 34">
            <path id="Path_73" data-name="Path 73" d="M140.687,234.214a.187.187,0,0,1-.093-.35l2.177-1.257a.189.189,0,0,1,.256.069.186.186,0,0,1-.068.256l-2.178,1.257A.184.184,0,0,1,140.687,234.214Z" fill="#fff"/>
          </g>
        </g>
        <g id="Group_38" data-name="Group 38">
          <g id="Group_36" data-name="Group 36">
            <path id="Path_74" data-name="Path 74" d="M148.445,229.9a.4.4,0,0,1-.2-.053.5.5,0,0,1-.224-.45v-.514a.188.188,0,0,1,.375,0v.514c0,.077.021.117.035.125a.16.16,0,0,0,.123-.032,1.1,1.1,0,0,0,.348-.848v-3.331a.188.188,0,1,1,.375,0v3.331a1.427,1.427,0,0,1-.534,1.171A.581.581,0,0,1,148.445,229.9Z" fill="#fff"/>
          </g>
          <g id="Group_37" data-name="Group 37">
            <path id="Path_75" data-name="Path 75" d="M146.471,226.987v-.325a5.307,5.307,0,0,1,2.4-4.153A1.587,1.587,0,0,1,151.454,224v.108Zm3.52-4.444a1.909,1.909,0,0,0-.934.291,4.955,4.955,0,0,0-2.194,3.494l4.214-2.433a1.385,1.385,0,0,0-.579-1.223A1,1,0,0,0,149.991,222.543Z" fill="#fff"/>
          </g>
        </g>
        <g id="Group_45" data-name="Group 45">
          <g id="Group_41" data-name="Group 41">
            <g id="Group_39" data-name="Group 39">
              <path id="Path_76" data-name="Path 76" d="M155.179,226.062a.188.188,0,0,1-.188-.188v-6.38a.188.188,0,1,1,.375,0v6.38A.188.188,0,0,1,155.179,226.062Z" fill="#fff"/>
            </g>
            <g id="Group_40" data-name="Group 40">
              <path id="Path_77" data-name="Path 77" d="M154.63,220.949a.173.173,0,0,1-.074-.016.186.186,0,0,1-.1-.246l.667-1.541.744.859a.187.187,0,1,1-.283.245l-.354-.408-.43.994A.188.188,0,0,1,154.63,220.949Z" fill="#fff"/>
            </g>
          </g>
          <g id="Group_44" data-name="Group 44">
            <g id="Group_42" data-name="Group 42">
              <path id="Path_78" data-name="Path 78" d="M156.912,225.073a.187.187,0,0,1-.187-.187v-6.38a.188.188,0,1,1,.375,0v6.38A.188.188,0,0,1,156.912,225.073Z" fill="#fff"/>
            </g>
            <g id="Group_43" data-name="Group 43">
              <path id="Path_79" data-name="Path 79" d="M156.364,219.96a.192.192,0,0,1-.074-.015.187.187,0,0,1-.1-.247l.667-1.54.744.858a.187.187,0,1,1-.283.246l-.353-.408-.431.993A.187.187,0,0,1,156.364,219.96Z" fill="#fff"/>
            </g>
          </g>
        </g>
        <g id="Group_46" data-name="Group 46">
          <path id="Path_80" data-name="Path 80" d="M136.659,240.544l-20.309-11.726v-46.9l20.311,11.726Z" fill="#e0e0e0"/>
        </g>
        <g id="Group_47" data-name="Group 47">
          <path id="Path_81" data-name="Path 81" d="M125.779,194.017l2.755,1.591v-6.658l-2.755-1.591Z" fill="#f5f5f5"/>
        </g>
        <g id="Group_48" data-name="Group 48">
          <path id="Path_82" data-name="Path 82" d="M128.534,188.95l28.434-16.417-2.757-1.59-28.433,16.415Z" fill="#fff"/>
        </g>
        <g id="Group_49" data-name="Group 49">
          <path id="Path_83" data-name="Path 83" d="M128.534,217.092,91.976,195.985,55.417,217.092,91.976,238.2Z" fill="#f5f5f5"/>
        </g>
        <g id="Group_50" data-name="Group 50">
          <path id="Path_84" data-name="Path 84" d="M91.976,266.342l36.558-21.107V217.092L91.976,238.2Z" fill="#ebebeb"/>
        </g>
        <g id="Group_54" data-name="Group 54">
          <g id="Group_51" data-name="Group 51">
            <path id="Path_85" data-name="Path 85" d="M96.672,257.007a.729.729,0,0,1-.366-.1,1.115,1.115,0,0,1-.457-1.012V252.69l.152.028,2.338-1.373v3.332a2.7,2.7,0,0,1-1.152,2.176A1.033,1.033,0,0,1,96.672,257.007Zm-.448-3.869v2.76a.767.767,0,0,0,.269.687.522.522,0,0,0,.507-.056,2.363,2.363,0,0,0,.964-1.852v-.245H97.1l-.171-1.168Zm1.2.919h.541V252l-1.395.819.691.123Z" fill="#fff"/>
          </g>
          <g id="Group_52" data-name="Group 52">
            <path id="Path_86" data-name="Path 86" d="M97.094,259.384a.188.188,0,0,1-.188-.188v-2.505a.188.188,0,0,1,.375,0V259.2A.188.188,0,0,1,97.094,259.384Z" fill="#fff"/>
          </g>
          <g id="Group_53" data-name="Group 53">
            <path id="Path_87" data-name="Path 87" d="M96,260.012a.188.188,0,0,1-.094-.35l2.178-1.257a.184.184,0,0,1,.256.069.187.187,0,0,1-.069.255L96.1,259.986A.181.181,0,0,1,96,260.012Z" fill="#fff"/>
          </g>
        </g>
        <g id="Group_57" data-name="Group 57">
          <g id="Group_55" data-name="Group 55">
            <path id="Path_88" data-name="Path 88" d="M103.763,255.7a.4.4,0,0,1-.205-.053.5.5,0,0,1-.225-.451v-.513a.188.188,0,1,1,.375,0v.513c0,.077.021.117.036.126s.059,0,.122-.032a1.1,1.1,0,0,0,.349-.848v-3.331a.188.188,0,0,1,.375,0v3.331a1.427,1.427,0,0,1-.532,1.17A.585.585,0,0,1,103.763,255.7Z" fill="#fff"/>
          </g>
          <g id="Group_56" data-name="Group 56">
            <path id="Path_89" data-name="Path 89" d="M101.788,252.786v-.325a5.31,5.31,0,0,1,2.4-4.155,1.587,1.587,0,0,1,2.586,1.493v.109Zm3.521-4.445a1.91,1.91,0,0,0-.936.291,4.95,4.95,0,0,0-2.192,3.494l4.213-2.434a1.385,1.385,0,0,0-.579-1.222A1,1,0,0,0,105.309,248.341Z" fill="#fff"/>
          </g>
        </g>
        <g id="Group_64" data-name="Group 64">
          <g id="Group_60" data-name="Group 60">
            <g id="Group_58" data-name="Group 58">
              <path id="Path_90" data-name="Path 90" d="M110.5,251.859a.187.187,0,0,1-.187-.187v-6.38a.188.188,0,1,1,.375,0v6.38A.188.188,0,0,1,110.5,251.859Z" fill="#fff"/>
            </g>
            <g id="Group_59" data-name="Group 59">
              <path id="Path_91" data-name="Path 91" d="M109.947,246.747a.176.176,0,0,1-.074-.016.186.186,0,0,1-.1-.246l.667-1.541.744.859a.186.186,0,0,1-.018.264.188.188,0,0,1-.265-.019l-.353-.408-.431.994A.188.188,0,0,1,109.947,246.747Z" fill="#fff"/>
            </g>
          </g>
          <g id="Group_63" data-name="Group 63">
            <g id="Group_61" data-name="Group 61">
              <path id="Path_92" data-name="Path 92" d="M112.229,250.871a.188.188,0,0,1-.187-.188V244.3a.188.188,0,0,1,.375,0v6.38A.188.188,0,0,1,112.229,250.871Z" fill="#fff"/>
            </g>
            <g id="Group_62" data-name="Group 62">
              <path id="Path_93" data-name="Path 93" d="M111.681,245.758a.2.2,0,0,1-.075-.015.188.188,0,0,1-.1-.247l.667-1.541.744.859a.187.187,0,1,1-.283.245l-.354-.408-.431.994A.185.185,0,0,1,111.681,245.758Z" fill="#fff"/>
            </g>
          </g>
        </g>
        <g id="Group_65" data-name="Group 65">
          <path id="Path_94" data-name="Path 94" d="M91.976,266.342,55.417,245.235V217.092L91.976,238.2Z" fill="#e0e0e0"/>
        </g>
        <g id="Group_66" data-name="Group 66">
          <path id="Path_95" data-name="Path 95" d="M72.319,233.509l2.755,1.591v-6.658l-2.755-1.591Z" fill="#f5f5f5"/>
        </g>
        <g id="Group_67" data-name="Group 67">
          <path id="Path_96" data-name="Path 96" d="M75.074,228.442l36.558-21.107-2.755-1.591L72.319,226.85Z" fill="#fff"/>
        </g>
        <path id="Path_97" data-name="Path 97" d="M61.212,234.508l8.721,5.036a3.833,3.833,0,0,1,1.733,3v5.381c0,1.1-.775,1.552-1.732,1l-8.723-5.035a3.832,3.832,0,0,1-1.732-3v-5.382C59.48,234.4,60.255,233.956,61.212,234.508Z" fill="#f5f5f5"/>
        <g id="Group_68" data-name="Group 68">
          <path id="Path_98" data-name="Path 98" d="M60.536,235.854l.331.191v5.976l-.331-.191Z" fill="#e0e0e0"/>
        </g>
        <g id="Group_69" data-name="Group 69">
          <path id="Path_99" data-name="Path 99" d="M61.885,236.632l.571.336v5.976l-.571-.336Z" fill="#e0e0e0"/>
        </g>
        <g id="Group_70" data-name="Group 70">
          <path id="Path_100" data-name="Path 100" d="M63.234,237.411l.331.191v5.976l-.331-.191Z" fill="#e0e0e0"/>
        </g>
        <g id="Group_71" data-name="Group 71">
          <path id="Path_101" data-name="Path 101" d="M64.251,237.987l.663.393v5.976l-.663-.393Z" fill="#e0e0e0"/>
        </g>
        <g id="Group_72" data-name="Group 72">
          <path id="Path_102" data-name="Path 102" d="M65.932,238.968l.331.191v5.976l-.331-.191Z" fill="#e0e0e0"/>
        </g>
        <g id="Group_73" data-name="Group 73">
          <path id="Path_103" data-name="Path 103" d="M66.9,239.516l.709.422v5.976l-.709-.421Z" fill="#e0e0e0"/>
        </g>
        <g id="Group_74" data-name="Group 74">
          <path id="Path_104" data-name="Path 104" d="M68.631,240.525l.331.191v5.976l-.331-.191Z" fill="#e0e0e0"/>
        </g>
        <g id="Group_75" data-name="Group 75">
          <path id="Path_105" data-name="Path 105" d="M69.4,240.963l.166.1v5.976l-.166-.1Z" fill="#e0e0e0"/>
        </g>
        <g id="Group_76" data-name="Group 76">
          <path id="Path_106" data-name="Path 106" d="M68.015,240.2l.166.1v5.976l-.166-.1Z" fill="#e0e0e0"/>
        </g>
        <g id="Group_77" data-name="Group 77">
          <path id="Path_107" data-name="Path 107" d="M65.3,238.607l.166.1v5.976l-.166-.1Z" fill="#e0e0e0"/>
        </g>
        <g id="Group_78" data-name="Group 78">
          <path id="Path_108" data-name="Path 108" d="M63.81,237.753l.166.1v5.976l-.166-.1Z" fill="#e0e0e0"/>
        </g>
        <g id="Group_79" data-name="Group 79">
          <path id="Path_109" data-name="Path 109" d="M62.741,237.163l.166.1v5.976l-.166-.1Z" fill="#e0e0e0"/>
        </g>
        <g id="Group_80" data-name="Group 80">
          <path id="Path_110" data-name="Path 110" d="M61.291,236.283l.166.1v5.976l-.166-.1Z" fill="#e0e0e0"/>
        </g>
        <g id="Group_81" data-name="Group 81">
          <path id="Path_111" data-name="Path 111" d="M69.98,241.3l.331.191v5.976l-.331-.191Z" fill="#e0e0e0"/>
        </g>
        <g id="Group_82" data-name="Group 82">
          <path id="Path_112" data-name="Path 112" d="M120.41,160.807,91.976,144.39,63.542,160.806l28.434,16.417Z" fill="#f5f5f5"/>
        </g>
        <g id="Group_83" data-name="Group 83">
          <path id="Path_113" data-name="Path 113" d="M91.976,233.508l28.434-16.417V160.806L91.976,177.223Z" fill="#ebebeb"/>
        </g>
        <g id="Group_87" data-name="Group 87">
          <g id="Group_84" data-name="Group 84">
            <path id="Path_114" data-name="Path 114" d="M96.672,224.173a.728.728,0,0,1-.366-.1,1.115,1.115,0,0,1-.457-1.012v-3.208l.152.027,2.338-1.373v3.333a2.7,2.7,0,0,1-1.152,2.176A1.031,1.031,0,0,1,96.672,224.173Zm-.448-3.868v2.76a.765.765,0,0,0,.269.687A.517.517,0,0,0,97,223.7a2.363,2.363,0,0,0,.964-1.852V221.6H97.1l-.171-1.169Zm1.2.919h.541v-2.058l-1.395.819.691.124Z" fill="#fff"/>
          </g>
          <g id="Group_85" data-name="Group 85">
            <path id="Path_115" data-name="Path 115" d="M97.094,226.551a.188.188,0,0,1-.188-.188v-2.505a.188.188,0,1,1,.375,0v2.505A.188.188,0,0,1,97.094,226.551Z" fill="#fff"/>
          </g>
          <g id="Group_86" data-name="Group 86">
            <path id="Path_116" data-name="Path 116" d="M96,227.179a.188.188,0,0,1-.094-.35l2.178-1.257a.187.187,0,1,1,.187.325L96.1,227.154A.189.189,0,0,1,96,227.179Z" fill="#fff"/>
          </g>
        </g>
        <g id="Group_90" data-name="Group 90">
          <g id="Group_88" data-name="Group 88">
            <path id="Path_117" data-name="Path 117" d="M103.763,222.865a.409.409,0,0,1-.205-.053.5.5,0,0,1-.225-.45v-.515a.188.188,0,0,1,.375,0v.515c0,.076.021.116.035.124s.06.007.124-.032a1.1,1.1,0,0,0,.348-.847v-3.331a.188.188,0,1,1,.375,0v3.331a1.431,1.431,0,0,1-.533,1.171A.587.587,0,0,1,103.763,222.865Z" fill="#fff"/>
          </g>
          <g id="Group_89" data-name="Group 89">
            <path id="Path_118" data-name="Path 118" d="M101.788,219.952v-.325a5.306,5.306,0,0,1,2.4-4.153,1.587,1.587,0,0,1,2.586,1.492v.108Zm3.521-4.444a1.91,1.91,0,0,0-.936.291,4.95,4.95,0,0,0-2.192,3.493l4.213-2.433a1.385,1.385,0,0,0-.579-1.222A1,1,0,0,0,105.309,215.508Z" fill="#fff"/>
          </g>
        </g>
        <g id="Group_97" data-name="Group 97">
          <g id="Group_93" data-name="Group 93">
            <g id="Group_91" data-name="Group 91">
              <path id="Path_119" data-name="Path 119" d="M110.5,219.026a.187.187,0,0,1-.187-.187v-6.38a.188.188,0,1,1,.375,0v6.38A.188.188,0,0,1,110.5,219.026Z" fill="#fff"/>
            </g>
            <g id="Group_92" data-name="Group 92">
              <path id="Path_120" data-name="Path 120" d="M109.947,213.914a.176.176,0,0,1-.074-.016.186.186,0,0,1-.1-.246l.667-1.541.744.859a.186.186,0,0,1-.018.264.189.189,0,0,1-.265-.019l-.353-.408-.431.994A.188.188,0,0,1,109.947,213.914Z" fill="#fff"/>
            </g>
          </g>
          <g id="Group_96" data-name="Group 96">
            <g id="Group_94" data-name="Group 94">
              <path id="Path_121" data-name="Path 121" d="M112.229,218.037a.187.187,0,0,1-.187-.187v-6.38a.188.188,0,0,1,.375,0v6.38A.188.188,0,0,1,112.229,218.037Z" fill="#fff"/>
            </g>
            <g id="Group_95" data-name="Group 95">
              <path id="Path_122" data-name="Path 122" d="M111.681,212.925a.181.181,0,0,1-.075-.016.186.186,0,0,1-.1-.246l.667-1.541.744.859a.187.187,0,0,1-.283.245l-.354-.408-.431.994A.185.185,0,0,1,111.681,212.925Z" fill="#fff"/>
            </g>
          </g>
        </g>
        <g id="Group_98" data-name="Group 98">
          <path id="Path_123" data-name="Path 123" d="M91.976,233.509,63.542,217.092V160.806l28.434,16.417Z" fill="#e0e0e0"/>
        </g>
        <g id="Group_99" data-name="Group 99">
          <path id="Path_124" data-name="Path 124" d="M77.034,175.253l2.755,1.591v-6.659l-2.755-1.591Z" fill="#f5f5f5"/>
        </g>
        <g id="Group_100" data-name="Group 100">
          <path id="Path_125" data-name="Path 125" d="M79.79,170.186l28.434-16.417-2.757-1.59L77.034,168.595Z" fill="#fff"/>
        </g>
        <g id="Group_101" data-name="Group 101">
          <path id="Path_126" data-name="Path 126" d="M69.327,206.363l8.722,5.035a3.832,3.832,0,0,1,1.732,3v5.381c0,1.1-.775,1.553-1.732,1l-8.722-5.035a3.829,3.829,0,0,1-1.732-3v-5.381C67.6,206.258,68.371,205.81,69.327,206.363Z" fill="#f5f5f5"/>
        </g>
        <g id="Group_116" data-name="Group 116">
          <g id="Group_102" data-name="Group 102">
            <path id="Path_127" data-name="Path 127" d="M68.651,207.708l.331.191v5.976l-.331-.191Z" fill="#e0e0e0"/>
          </g>
          <g id="Group_103" data-name="Group 103">
            <path id="Path_128" data-name="Path 128" d="M70,208.486l.571.336V214.8L70,214.463Z" fill="#e0e0e0"/>
          </g>
          <g id="Group_104" data-name="Group 104">
            <path id="Path_129" data-name="Path 129" d="M71.35,209.265l.331.191v5.976l-.331-.191Z" fill="#e0e0e0"/>
          </g>
          <g id="Group_105" data-name="Group 105">
            <path id="Path_130" data-name="Path 130" d="M72.367,209.841l.663.393v5.976l-.663-.393Z" fill="#e0e0e0"/>
          </g>
          <g id="Group_106" data-name="Group 106">
            <path id="Path_131" data-name="Path 131" d="M74.048,210.822l.332.192v5.976l-.331-.191Z" fill="#e0e0e0"/>
          </g>
          <g id="Group_107" data-name="Group 107">
            <path id="Path_132" data-name="Path 132" d="M75.019,211.37l.709.421v5.976l-.709-.422Z" fill="#e0e0e0"/>
          </g>
          <g id="Group_108" data-name="Group 108">
            <path id="Path_133" data-name="Path 133" d="M76.746,212.379l.331.191v5.976l-.331-.191Z" fill="#e0e0e0"/>
          </g>
          <g id="Group_109" data-name="Group 109">
            <path id="Path_134" data-name="Path 134" d="M77.516,212.817l.166.1v5.976l-.166-.1Z" fill="#e0e0e0"/>
          </g>
          <g id="Group_110" data-name="Group 110">
            <path id="Path_135" data-name="Path 135" d="M76.131,212.053l.166.1v5.976l-.165-.1Z" fill="#e0e0e0"/>
          </g>
          <g id="Group_111" data-name="Group 111">
            <path id="Path_136" data-name="Path 136" d="M73.413,210.462l.166.1v5.976l-.166-.1Z" fill="#e0e0e0"/>
          </g>
          <g id="Group_112" data-name="Group 112">
            <path id="Path_137" data-name="Path 137" d="M71.925,209.607l.166.1v5.976l-.166-.1Z" fill="#e0e0e0"/>
          </g>
          <g id="Group_113" data-name="Group 113">
            <path id="Path_138" data-name="Path 138" d="M70.856,209.017l.166.1v5.976l-.166-.1Z" fill="#e0e0e0"/>
          </g>
          <g id="Group_114" data-name="Group 114">
            <path id="Path_139" data-name="Path 139" d="M69.407,208.137l.166.1v5.976l-.166-.1Z" fill="#e0e0e0"/>
          </g>
          <g id="Group_115" data-name="Group 115">
            <path id="Path_140" data-name="Path 140" d="M78.1,213.157l.331.191v5.976l-.331-.191Z" fill="#e0e0e0"/>
          </g>
        </g>
      </g>
    </g>
    <g id="Device" transform="translate(-21 28)">
      <g id="Group_121" data-name="Group 121">
        <path id="Path_146" data-name="Path 146" d="M148.845,332.008l12.186-7.036-4.062-2.345-12.186,7.035Z" fill="#80c19c"/>
        <path id="Path_147" data-name="Path 147" d="M295.08,247.581l12.186-7.036L303.2,238.2l-12.186,7.035Z" fill="#80c19c"/>
        <path id="Path_148" data-name="Path 148" d="M319.452,233.509l12.186-7.036-4.062-2.345-12.186,7.035Z" fill="#80c19c"/>
        <path id="Path_476" data-name="Path 476" d="M319.452,233.509l12.186-7.036-4.062-2.345-12.186,7.035Z" transform="translate(22 -13)" fill="#80c19c"/>
      </g>
    </g>
    <g id="Shadow" transform="translate(-3 24)">
      <path id="Path_155" data-name="Path 155" d="M166.009,323.788c10.107,5.822,33.809,1.587,52.941-9.458L271.488,284c19.132-11.045,26.43-24.708,16.3-30.517s-33.851-1.564-52.983,9.482l-52.453,30.284C163.219,304.292,155.9,317.966,166.009,323.788Z" fill="#ebebeb"/>
    </g>
    <g id="Character" transform="translate(-21 28)">
      <g id="Group_137" data-name="Group 137">
        <path id="Path_156" data-name="Path 156" d="M173.218,317.937,185.4,310.9l-4.062-2.345-12.186,7.035Z" fill="#80c19c"/>
        <path id="Path_157" data-name="Path 157" d="M197.59,303.866l12.186-7.036-4.062-2.345-12.186,7.035Z" fill="#80c19c"/>
        <path id="Path_158" data-name="Path 158" d="M192.585,301.025c0,5.88-4.12,13.03-9.21,15.96-2.71,1.57-5.15,1.62-6.83.44a.01.01,0,0,0-.01-.01,6.066,6.066,0,0,1-2.31-4.43,11.214,11.214,0,0,0,1.03-.53c5.09-2.93,9.21-10.08,9.21-15.96a9.127,9.127,0,0,0-.08-1.31,6.218,6.218,0,0,1,5.04-.36C191.365,295.655,192.585,297.825,192.585,301.025Z" fill="#263238"/>
        <path id="Path_159" data-name="Path 159" d="M193.415,288.925a1.508,1.508,0,0,1-.17-.1c-2.56-1.36-6.04-1.11-9.87,1.11-7.85,4.53-14.22,15.55-14.22,24.62,0,4.56,1.61,7.75,4.21,9.23,2.57,1.46,6.11,1.23,10.01-1.02,7.85-4.53,14.21-15.56,14.21-24.63C197.585,293.6,195.995,290.4,193.415,288.925Zm-10.04,28.06c-2.72,1.57-5.16,1.62-6.84.43-1.48-1.03-2.38-3.01-2.38-5.75,0-5.87,4.13-13.02,9.22-15.96,2.32-1.34,4.43-1.57,6.05-.88,1.94.83,3.16,3,3.16,6.2C192.585,306.9,188.465,314.055,183.375,316.985Z" fill="#37474f"/>
        <path id="Path_160" data-name="Path 160" d="M189.881,295.05a.984.984,0,0,1-.11-.065c-1.659-.881-3.915-.719-6.4.72-5.089,2.936-9.218,10.08-9.218,15.96,0,2.956,1.043,5.024,2.729,5.983,1.666.947,3.961.8,6.489-.661,5.089-2.937,9.212-10.087,9.212-15.966C192.585,298.077,191.554,296.009,189.881,295.05ZM183.374,314.9c-2.187,1.262-4.148,1.3-5.5.345-1.19-.828-1.913-2.42-1.913-4.622a16.388,16.388,0,0,1,7.412-12.831,5.466,5.466,0,0,1,4.863-.707c1.56.667,2.541,2.411,2.541,4.984A16.355,16.355,0,0,1,183.374,314.9Z" fill="#80c19c"/>
        <path id="Path_161" data-name="Path 161" d="M221.962,289.794l12.186-7.036-4.062-2.345L217.9,287.448Z" fill="#80c19c"/>
        <path id="Path_162" data-name="Path 162" d="M246.335,275.723l12.186-7.036-4.062-2.345-12.186,7.035Z" fill="#80c19c"/>
        <path id="Path_163" data-name="Path 163" d="M270.707,261.652l12.186-7.036-4.062-2.345-12.186,7.035Z" fill="#80c19c"/>
        <path id="Path_164" data-name="Path 164" d="M210.063,196.221c.8-.686,1.607-.4,1.8.634a3.652,3.652,0,0,1-1.1,3.119c-.8.687-1.607.4-1.8-.633A3.658,3.658,0,0,1,210.063,196.221Z" fill="#80c19c"/>
        <path id="Path_165" data-name="Path 165" d="M219.443,200.641l-8.155-4.707L209.5,200.24l8.174,4.718Z" fill="#80c19c"/>
        <path id="Path_166" data-name="Path 166" d="M218.187,200.912c.8-.686,1.607-.4,1.8.634a3.652,3.652,0,0,1-1.1,3.119c-.8.686-1.607.4-1.8-.634A3.655,3.655,0,0,1,218.187,200.912Z" fill="#80c19c"/>
        <path id="Path_167" data-name="Path 167" d="M280.83,240.35c.01.2.03.38.03.58,0,.4-.01.809-.04,1.22-1.62-.691-3.73-.46-6.05.879-5.09,2.941-9.22,10.091-9.22,15.96,0,2.74.9,4.721,2.38,5.75a14.5,14.5,0,0,1-1.29.82c-.16.09-.31.16-.47.24l-1.41,5.311-8.16-4.551c-2.58-1.49-4.17-4.67-4.17-9.209,0-9.071,6.36-20.09,14.21-24.63,3.88-2.24,7.39-2.471,9.96-1.04v-.011l8.04,4.481a1.356,1.356,0,0,0,.17.1Z" fill="#455a64"/>
        <path id="Path_168" data-name="Path 168" d="M284.81,236.249a1.356,1.356,0,0,1-.17-.1c-2.56-1.361-6.04-1.111-9.87,1.11-7.85,4.529-14.22,15.549-14.22,24.619,0,4.561,1.61,7.75,4.21,9.231,2.57,1.459,6.11,1.23,10.01-1.02,7.85-4.531,14.21-15.56,14.21-24.631C288.98,240.919,287.39,237.73,284.81,236.249Zm-10.04,28.06c-2.72,1.57-5.16,1.621-6.84.43-1.48-1.029-2.38-3.01-2.38-5.75,0-5.869,4.13-13.019,9.22-15.96,2.32-1.339,4.43-1.57,6.05-.879,1.94.83,3.16,3,3.16,6.2C283.98,254.229,279.86,261.379,274.77,264.309Z" fill="#37474f"/>
        <path id="Path_169" data-name="Path 169" d="M283.98,248.35c0,5.879-4.12,13.029-9.21,15.959-2.71,1.57-5.15,1.621-6.83.44a.01.01,0,0,0-.01-.01,6.064,6.064,0,0,1-2.31-4.43,11.455,11.455,0,0,0,1.03-.529c5.09-2.93,9.21-10.081,9.21-15.961a9.115,9.115,0,0,0-.08-1.309,6.218,6.218,0,0,1,5.04-.36C282.76,242.98,283.98,245.15,283.98,248.35Z" fill="#263238"/>
        <path id="Path_170" data-name="Path 170" d="M281.277,242.378a1.055,1.055,0,0,1-.11-.065c-1.66-.882-3.916-.72-6.4.719-5.088,2.937-9.218,10.081-9.218,15.961,0,2.956,1.044,5.024,2.729,5.983,1.666.946,3.961.8,6.489-.661,5.089-2.937,9.212-10.087,9.212-15.967C283.98,245.4,282.949,243.337,281.277,242.378Zm-6.508,19.846c-2.186,1.262-4.148,1.3-5.5.346-1.189-.828-1.913-2.42-1.913-4.623a16.384,16.384,0,0,1,7.412-12.83,5.469,5.469,0,0,1,4.864-.708c1.56.668,2.54,2.412,2.54,4.985A16.351,16.351,0,0,1,274.769,262.224Z" fill="#80c19c"/>
        <path id="Path_171" data-name="Path 171" d="M266.643,251.338l23-13.282c2.675-1.544-6.051-10.6-12.45-11.2a24.909,24.909,0,0,0-10.554,1.032s4.907,6.292,4.062,9.861S266.643,251.338,266.643,251.338Z" fill="#80c19c"/>
        <path id="Path_172" data-name="Path 172" d="M234.147,213.814s33.338,16.813,34.779,17.822.045,12.746-2.283,19.7-5.814,17.642-7.221,20.693-3.253,4.116-6.632,6.067-24.016,13.874-24.016,13.874L196.3,295.9l-12.9-7.036,3.352-21.107s34.529-18.374,39.265-21.107S244.739,231.151,234.147,213.814Z" fill="#80c19c"/>
        <path id="Path_173" data-name="Path 173" d="M234.147,213.814s33.338,16.813,34.779,17.822.045,12.746-2.283,19.7-5.814,17.642-7.221,20.693-3.253,4.116-6.632,6.067-24.016,13.874-24.016,13.874L196.3,295.9l-12.9-7.036,3.352-21.107s34.529-18.374,39.265-21.107S244.739,231.151,234.147,213.814Z" opacity="0.2"/>
        <path id="Path_174" data-name="Path 174" d="M269.566,247.334c2.981-8.065,5.245-14.748,4.859-19.251-.458-5.35-2.451-9.726-11.278-11.924s-21.182-2.168-21.182-2.168l-3.757,2.168s25.361,14.7,28.24,16.3c1.759.981,3.639,5.4.2,18.875l.59.341C267.559,251.867,268.609,249.924,269.566,247.334Z" fill="#80c19c"/>
        <path id="Path_175" data-name="Path 175" d="M269.566,247.334c2.981-8.065,5.245-14.748,4.859-19.251-.458-5.35-2.451-9.726-11.278-11.924s-21.182-2.168-21.182-2.168l-3.757,2.168s25.361,14.7,28.24,16.3c1.759.981,3.639,5.4.2,18.875l.59.341C267.559,251.867,268.609,249.924,269.566,247.334Z" fill="#fff" opacity="0.3"/>
        <path id="Path_176" data-name="Path 176" d="M250.358,223.2l4.1-2.345s-.24-14.21-6.213-17.659-26.284-1.1-26.284-1.1l-4.062,2.345Z" fill="#80c19c"/>
        <path id="Path_177" data-name="Path 177" d="M237.061,206.44c-1.949,1.125-1.949,2.949,0,4.073a7.8,7.8,0,0,0,7.055,0c1.948-1.125,1.948-2.948,0-4.073A7.8,7.8,0,0,0,237.061,206.44Z" fill="#f0f0f0"/>
        <path id="Path_178" data-name="Path 178" d="M243.3,213.231c-1.378.795-1.378,2.085,0,2.88a5.514,5.514,0,0,0,4.988,0c1.377-.795,1.377-2.085,0-2.88A5.514,5.514,0,0,0,243.3,213.231Z" fill="#f0f0f0"/>
        <path id="Path_179" data-name="Path 179" d="M227.591,204.625c-1.378.8-1.378,2.085,0,2.88a5.514,5.514,0,0,0,4.988,0c1.377-.795,1.378-2.084,0-2.88A5.512,5.512,0,0,0,227.591,204.625Z" fill="#f0f0f0"/>
        <path id="Path_180" data-name="Path 180" d="M250.946,219.068c.8-.687,1.607-.4,1.8.633a3.654,3.654,0,0,1-1.1,3.12,1.008,1.008,0,0,1-1.8-.634A3.655,3.655,0,0,1,250.946,219.068Z" fill="#80c19c"/>
        <path id="Path_181" data-name="Path 181" d="M260.326,223.487l-8.155-4.707-1.784,4.307,8.174,4.718Z" fill="#80c19c"/>
        <path id="Path_182" data-name="Path 182" d="M259.07,223.758c.8-.686,1.607-.4,1.8.634a3.652,3.652,0,0,1-1.1,3.119c-.8.687-1.607.4-1.8-.633A3.657,3.657,0,0,1,259.07,223.758Z" fill="#80c19c"/>
        <path id="Path_183" data-name="Path 183" d="M259.07,223.758c.8-.686,1.607-.4,1.8.634a3.652,3.652,0,0,1-1.1,3.119c-.8.687-1.607.4-1.8-.633A3.657,3.657,0,0,1,259.07,223.758Z"/>
        <path id="Path_184" data-name="Path 184" d="M189.435,293.025c.01.2.03.38.03.58,0,.4-.01.81-.04,1.22-1.62-.69-3.73-.46-6.05.88-5.09,2.94-9.22,10.09-9.22,15.96,0,2.74.9,4.72,2.38,5.75a14.727,14.727,0,0,1-1.29.82c-.16.09-.31.16-.47.24l-1.41,5.31-8.16-4.55c-2.58-1.49-4.17-4.67-4.17-9.21,0-9.07,6.36-20.09,14.21-24.63,3.88-2.24,7.39-2.47,9.96-1.04v-.01l8.04,4.48a1.508,1.508,0,0,0,.17.1Z" fill="#455a64"/>
        <path id="Path_185" data-name="Path 185" d="M165.092,277.135,159,298.242l12.186,7.036L177.5,284.3Z" fill="#80c19c"/>
        <path id="Path_186" data-name="Path 186" d="M165.092,277.135,159,298.242l12.186,7.036L177.5,284.3Z" opacity="0.2"/>
        <path id="Path_187" data-name="Path 187" d="M165.092,277.135s6.913,5.835,12.409,7.164c7.217,1.747,18.695,1.936,22.766,2.217,6.227.429,10.922.426,13.127-.366,2.851-1.024,10.51-5.447,12.629-6.67,4.062-2.345,5.789-11.551-5.4-14.071a112.7,112.7,0,0,0-23.029-2.345Z" fill="#80c19c"/>
        <path id="Path_188" data-name="Path 188" d="M233.966,274.427a11.344,11.344,0,0,0-.7,2.71,6.014,6.014,0,0,0-.216,2.98,5.929,5.929,0,0,0,3.365,2.629,7.531,7.531,0,0,0,5.934-1.148c2.065-1.234,3.624-2.736,6.565-3.573a14.955,14.955,0,0,0,5.807-2.635c1.631-1.31,3.809-4.929.689-5.767-3.146-.844-9.907,2.121-16.08,2.389Z" fill="#37474f"/>
        <path id="Path_189" data-name="Path 189" d="M233.966,270.569v4.623a3.092,3.092,0,0,0,3.94,1.788,4.127,4.127,0,0,0,2.648-3.66l.18-2.751Z" fill="#ffa8a7"/>
        <path id="Path_190" data-name="Path 190" d="M242.8,241.99c.033,5.752-1.615,30.6-1.615,30.6s-2.352,2.977-7.462,0l-1.734-27.761Z" fill="#37474f"/>
        <path id="Path_191" data-name="Path 191" d="M216,266.5l15.981-9.226a4.067,4.067,0,0,0,0-7.19l-11.919-6.881a4.781,4.781,0,0,0-4.33,0l-15.983,9.228a4.066,4.066,0,0,0,0,7.188l11.917,6.881A4.781,4.781,0,0,0,216,266.5Z" fill="#80c19c"/>
        <path id="Path_192" data-name="Path 192" d="M216,266.5l15.981-9.226a4.067,4.067,0,0,0,0-7.19l-11.919-6.881a4.781,4.781,0,0,0-4.33,0l-15.983,9.228a4.066,4.066,0,0,0,0,7.188l11.917,6.881A4.781,4.781,0,0,0,216,266.5Z" fill="#fff"/>
        <path id="Path_193" data-name="Path 193" d="M199.75,254.934l11.921,6.88a4.79,4.79,0,0,0,4.331,0l15.98-9.226a1.32,1.32,0,0,0,0-2.5l-11.919-6.881a4.781,4.781,0,0,0-4.33,0l-15.983,9.228A1.319,1.319,0,0,0,199.75,254.934Z" fill="#80c19c"/>
        <g id="Group_127" data-name="Group 127">
          <g id="Group_123" data-name="Group 123">
            <path id="Path_194" data-name="Path 194" d="M209.5,193.733l-2.026,8.366-8.718.529,1.883-11.6Z" fill="#ffa8a7"/>
          </g>
          <g id="Group_126" data-name="Group 126">
            <g id="Group_124" data-name="Group 124">
              <path id="Path_195" data-name="Path 195" d="M217.951,187.425s.948,3.548.589,3.743a6.107,6.107,0,0,1-1.9.008Z" fill="#f28f8f"/>
            </g>
            <g id="Group_125" data-name="Group 125">
              <path id="Path_196" data-name="Path 196" d="M216.327,176.131c1.407,1.651,2.682,4.358,1.7,10.982-1.082,7.26-2.423,8.1-3.506,8.8-1.4.914-7.048.429-8.638-.732-1.91-1.394-4.86-5.8-5.56-10.15-.822-5.117.894-10.787,4.653-11.748C210.259,171.931,215.136,174.734,216.327,176.131Z" fill="#ffa8a7"/>
            </g>
          </g>
        </g>
        <g id="Group_130" data-name="Group 130">
          <g id="Group_128" data-name="Group 128">
            <path id="Path_197" data-name="Path 197" d="M199.752,193.379c1.344,1.4,4.117,1.785,5.862,2.1s7.086.67,8.668-3.136.5-6.551,2.441-7.471,3.879-1.523,4.386-2.037.523-6.749-4.688-9.957-13.189-4.035-18.439,2.6C193.96,180.554,195.63,189.085,199.752,193.379Z" fill="#c6aa80"/>
          </g>
          <g id="Group_129" data-name="Group 129">
            <path id="Path_198" data-name="Path 198" d="M204.983,195.535c1.346.113,5.619-.56,6.9-2.316s1.809-4.9,1.96-6.561a2.87,2.87,0,0,1,2.317-2.73c1.281-.408,4.137-1.807,4.137-1.807l.017-.779a22.251,22.251,0,0,1,2.759-.014c.6.109.275.994-1.246,1.777s-5.687,2.259-6.333,2.767-.937,2.663-1.446,4.95S212.04,196.542,204.983,195.535Z" fill="#37474f"/>
          </g>
        </g>
        <path id="Path_199" data-name="Path 199" d="M216.988,204.959l4.972-2.871c.476-1.45-.287-2.177-1.655-2.087s-.938-1.23-1.766-1.605c-1.092-.5-1.709-.216-2.194-.444-.617-.289-.7-.816-1.343-.878-2.858-.275-4.811,3.8-4.811,3.8Z" fill="#f28f8f"/>
        <path id="Path_200" data-name="Path 200" d="M183.055,241.718s22.09-10.952,25.949-12.742,9.89-4.337,13.1-4.335a5.228,5.228,0,0,1,4.787,4.9,37.112,37.112,0,0,1-.332,5.771,136.882,136.882,0,0,1-18.526,4.73C198.814,241.6,183.055,241.718,183.055,241.718Z" fill="#37474f"/>
        <path id="Path_201" data-name="Path 201" d="M185.46,235.394c.008,4.535-.426,9.252,1.464,12.575,1.827,3.212,12.121,11.014,21.767,9.391,6.3-1.061,25-9.675,25-9.675s9.064-3.325,9.105-5.695c.06-3.494-.18-8.407-8.089-8.2-7.205.191-28.474,4.628-28.474,4.628Z" fill="#455a64"/>
        <path id="Path_202" data-name="Path 202" d="M191.635,199.423c3.417-3.576,5.727-3.871,7.365-3.438a57.691,57.691,0,0,1,10.89,4.364h0s-1.319,12.781,4.926,16.465v19.912s-.185,2.163-2.909,4.311c-2.4,1.893-7.826,3.8-14.311,3.265-7.7-.639-12.136-8.908-12.136-8.908s-.2-16.29.892-22.759C187.628,205.083,190.452,200.66,191.635,199.423Z" fill="#455a64"/>
        <path id="Path_203" data-name="Path 203" d="M214.816,217.777s-3.777-2.968-4.926-6.9c0,0,.451,6.119,4.926,9.224Z" fill="#37474f"/>
        <path id="Path_204" data-name="Path 204" d="M249.807,227.178a7.822,7.822,0,0,0,4.994-1.543s1.742-3.384,3.878-3.1c0,0,.382-1.432-.5-1.91s-1.258-.341-1.613-.832-.4-1.437-1.967-1.437c-.66,0-.564-.472-2.166-.66s-3.184,3.5-4.353,3.5Z" fill="#ffa8a7"/>
        <path id="Path_205" data-name="Path 205" d="M209.89,200.349c5.489.848,7.478,2.476,9.478,4.333,2.087,1.937,14.243,14.132,14.243,14.132l14.817,2.13a4.98,4.98,0,0,1,1.64,2.44c.6,1.737.06,3.632-.508,4.09,0,0-14.7.873-17.587.33s-17.2-10.058-17.2-10.058a12.784,12.784,0,0,1-5-8.623C208.84,203.088,209.89,200.349,209.89,200.349Z" fill="#455a64"/>
        <g id="Group_131" data-name="Group 131">
          <path id="Path_206" data-name="Path 206" d="M196.715,253.175l-22.74,27.72a6.326,6.326,0,0,1-.76.05,5.443,5.443,0,0,1-2.59-.61c-.01-.01-19.18-11.08-19.18-11.08l-1.3-.75c-.718-.415-1.3-2.094-1.3-3.75v-4.67a27.331,27.331,0,0,1,13.66-23.67l22.9-13.22,24.37,14.07Z" fill="#80c19c"/>
        </g>
        <g id="Group_132" data-name="Group 132" opacity="0.1">
          <path id="Path_207" data-name="Path 207" d="M196.715,253.175l-22.74,27.72a6.326,6.326,0,0,1-.76.05,5.443,5.443,0,0,1-2.59-.61c-.01-.01-19.18-11.08-19.18-11.08l-1.3-.75c-.718-.415-1.3-2.094-1.3-3.75v-4.67a27.331,27.331,0,0,1,13.66-23.67l22.9-13.22,24.37,14.07Z"/>
        </g>
        <g id="Group_133" data-name="Group 133">
          <path id="Path_208" data-name="Path 208" d="M188.884,262.729l20.89-25.463L185.4,223.2l-22.893,13.217a27.276,27.276,0,0,0-7.7,6.644Z" fill="#80c19c"/>
        </g>
        <g id="Group_136" data-name="Group 136">
          <g id="Group_134" data-name="Group 134">
            <path id="Path_209" data-name="Path 209" d="M209.775,257.715c0,1.656-.582,3.335-1.3,3.75l-1.3.75-31.36,18.11a5.019,5.019,0,0,1-1.84.57,6.326,6.326,0,0,1-.76.05v-6.79a27.319,27.319,0,0,1,13.67-23.67l2.59-1.49,20.3-11.73Z" fill="#80c19c"/>
          </g>
          <g id="Group_135" data-name="Group 135" opacity="0.2">
            <path id="Path_210" data-name="Path 210" d="M209.775,257.715c0,1.656-.582,3.335-1.3,3.75l-1.3.75-31.36,18.11a5.019,5.019,0,0,1-1.84.57,6.326,6.326,0,0,1-.76.05v-6.79a27.319,27.319,0,0,1,13.67-23.67l2.59-1.49,20.3-11.73Z"/>
          </g>
        </g>
        <path id="Path_211" data-name="Path 211" d="M216.5,292.015l12.274-.042,17.559-10.147h0l-17.206,12.44-12.948.179Z" fill="#c8c8c8"/>
        <path id="Path_212" data-name="Path 212" d="M186.71,309.468s22.119-8.34,23.979-9.32a47.679,47.679,0,0,0,6.26-4.566,2.662,2.662,0,0,0-.328-3.571s-9.015-.409-11.313.294c-1.291.4-22.1,7.072-22.1,7.072Z" fill="#c8c8c8"/>
        <path id="Path_213" data-name="Path 213" d="M185.719,300.147c-1.83-1.569-3.673-.921-4.117,1.448a8.355,8.355,0,0,0,2.508,7.13c1.83,1.569,3.673.921,4.117-1.448A8.354,8.354,0,0,0,185.719,300.147Z" fill="#455a64"/>
      </g>
    </g>
    <g id="Pin" transform="translate(309.683 152.846)">
      <g id="Pin-2" data-name="Pin">
        <g id="Group_19-2" data-name="Group 19" transform="translate(3.222)">
          <g id="Group_18-2" data-name="Group 18">
            <path id="Path_16-2" data-name="Path 16" d="M276.132,153.41s0,0,0,0c.086-.05.186-.113.275-.163L285,148.313a11.855,11.855,0,0,1,6.707-1.965c3,0,6.035,1.089,9.6,3.064,12.47,6.908,23.127,26.832,23.127,39.915v3.62c0,15.857-20.853,35.207-20.853,35.207l-8.646,5a.041.041,0,0,1-.038.015c.29-.341-9.188-14.167-18.124-41.135C266.879,162.178,275.945,153.582,276.132,153.41Zm14.593,47.4c7.06,4.079,12.98,1.942,14.655-4.638,3.238-.456,5.58-2.936,6.3-7.024.909-13.2-6.106-23.727-16.153-28-4.3-1.563-7.895-.447-9.818,2.786-5.9-1.013-10.123,3.031-10.123,10.65C275.584,184.242,282.36,195.99,290.725,200.815Z" transform="translate(-272.158 -146.348)" fill="#a7d4ba"/>
          </g>
        </g>
        <path id="Path_17-2" data-name="Path 17" d="M334.144,213.891c0,9.65,6.776,21.4,15.14,26.223,7.06,4.079,12.98,1.942,14.655-4.638a11.586,11.586,0,0,1-7.326-1.82c-7.66-4.416-13.864-15.17-13.864-24.006a12.439,12.439,0,0,1,1.518-6.408C338.365,202.228,334.144,206.272,334.144,213.891Z" transform="translate(-327.496 -185.647)" fill="#a7d4ba"/>
        <g id="Group_24-2" data-name="Group 24" transform="translate(10.659 23.915)">
          <g id="Group_20-2" data-name="Group 20" transform="translate(18.122 15.684)">
            <path id="Path_18-2" data-name="Path 18" d="M348.242,284.481l-4.807,2.775v-9.307l4.807-2.775Z" transform="translate(-343.435 -275.174)" fill="#f7b0c4"/>
            <path id="Path_19-2" data-name="Path 19" d="M348.242,284.481l-4.807,2.775v-9.307l4.807-2.775Z" transform="translate(-343.435 -275.174)" opacity="0.2"/>
          </g>
          <path id="Path_20-2" data-name="Path 20" d="M345.569,238.4l11.137-5.221,11.137,18.08-4.151-2.4v9.307l-5.261-3.038v-6.088l-3.445-1.989v6.088l-5.269-3.045v-9.307Z" transform="translate(-345.569 -230.401)" fill="#f7b0c4"/>
          <g id="Group_21-2" data-name="Group 21" transform="translate(11.137)">
            <path id="Path_21-2" data-name="Path 21" d="M334.737,224.149l-4.807,2.775L341.066,245l4.807-2.775Z" transform="translate(-329.93 -224.149)" fill="#f7b0c4"/>
            <path id="Path_22-2" data-name="Path 22" d="M334.737,224.149l-4.807,2.775L341.066,245l4.807-2.775Z" transform="translate(-329.93 -224.149)" opacity="0.1"/>
          </g>
          <g id="Group_22-2" data-name="Group 22">
            <path id="Path_23-2" data-name="Path 23" d="M382.1,224.149l-4.807,2.775-11.137,5.221,4.807-2.775Z" transform="translate(-366.16 -224.149)" fill="#f7b0c4"/>
            <path id="Path_24-2" data-name="Path 24" d="M382.1,224.149l-4.807,2.775-11.137,5.221,4.807-2.775Z" transform="translate(-366.16 -224.149)" fill="#fff" opacity="0.4"/>
          </g>
          <g id="Group_23-2" data-name="Group 23" transform="translate(9.416 16.651)">
            <path id="Path_25-2" data-name="Path 25" d="M379.633,286.4l-3.445-1.989v-6.088l3.445,1.989Z" transform="translate(-376.188 -278.319)" fill="#f8aead"/>
            <path id="Path_26-2" data-name="Path 26" d="M379.633,286.4l-3.445-1.989v-6.088l3.445,1.989Z" transform="translate(-376.188 -278.319)" opacity="0.2"/>
          </g>
        </g>
        <g id="Group_25-2" data-name="Group 25" transform="translate(0 5.393)">
          <path id="Path_27-2" data-name="Path 27" d="M308.763,165.563s0,0,0,0c.086-.05.186-.113.275-.163,4.168-2.341,9.738-2.027,15.857,1.5,9.226,5.334,17.212,16.535,20.992,28.289,1.5,4.656,2.134,7.122,2.134,11.627v3.617c0,12.219-13.625,28.653-19.995,34.522a2.814,2.814,0,0,1-.465.349.041.041,0,0,1-.038.015,3.126,3.126,0,0,1-4.455-1.291c-5.494-11.251-21.5-45.134-21.5-58.265v-3.617C301.567,174,304.323,168.23,308.763,165.563Zm29.248,42.766c.089-.338.166-.687.228-1.048a16.57,16.57,0,0,0,.261-3.055c0-9.649-6.776-21.395-15.143-26.219a18.033,18.033,0,0,0-2.762-1.3,13.106,13.106,0,0,0-2.256-.61c-5.9-1.013-10.123,3.031-10.123,10.65,0,9.65,6.776,21.4,15.14,26.223C330.415,217.046,336.335,214.909,338.011,208.329Z" transform="translate(-301.567 -163.893)" fill="#679b7d"/>
        </g>
      </g>
    </g>
    <g id="Group_18-3" data-name="Group 18" transform="translate(371.448 152.063)">
      <rect id="Rectangle_7" data-name="Rectangle 7" width="3.438" height="4.188" transform="translate(11.401 6.719) rotate(-100.477)" fill="#ebebeb"/>
      <path id="Path_36-2" data-name="Path 36" d="M90.8,294.293l-4.8.888.213,1.15c-4.5,3.376-6.873,10.171-5.543,17.368s5.979,12.692,11.387,14.237l.212,1.15,4.8-.888c7.328-1.355,11.865-10.044,10.134-19.406S98.126,292.937,90.8,294.293Z" transform="translate(-75.491 -289.484)" fill="#e0e0e0"/>
      <path id="Path_37-2" data-name="Path 37" d="M116.544,310.519c1.731,9.362-2.806,18.051-10.134,19.406s-14.673-5.136-16.4-14.5,2.806-18.051,10.134-19.406S114.813,301.156,116.544,310.519Z" transform="translate(-89.639 -290.323)" fill="#ebebeb"/>
      <path id="Path_38-2" data-name="Path 38" d="M116.464,314.378c1.373,7.424-2.226,14.314-8.037,15.389s-11.635-4.073-13.008-11.5,2.225-14.315,8.036-15.389S115.091,306.953,116.464,314.378Z" transform="translate(-92.304 -293.673)" fill="#f0f0f0"/>
      <g id="Group_17-2" data-name="Group 17" transform="translate(11.224 12.491)">
        <path id="Path_39-2" data-name="Path 39" d="M107.432,320.216a.654.654,0,0,0,.373-.117l5.073-3.508a.656.656,0,0,0-.746-1.079l-4.239,2.932-1.573-8.507a.656.656,0,0,0-1.29.238l1.758,9.5a.656.656,0,0,0,.645.537Z" transform="translate(-105.018 -309.401)" fill="#e0e0e0"/>
      </g>
      <path id="Path_40-2" data-name="Path 40" d="M117.667,285.572l.447,2.416a.568.568,0,0,1-.454.659l-4.227.782a.567.567,0,0,1-.659-.454l-.447-2.416a.568.568,0,0,1,.453-.659l4.227-.782A.567.567,0,0,1,117.667,285.572Z" transform="translate(-102.512 -285.11)" fill="#e0e0e0"/>
      <path id="Path_41-2" data-name="Path 41" d="M119.287,286.189l.447,2.416a.568.568,0,0,1-.454.659l-2.511.464a.567.567,0,0,1-.659-.454l-.447-2.416a.568.568,0,0,1,.453-.659l2.512-.464A.567.567,0,0,1,119.287,286.189Z" transform="translate(-105.848 -285.41)" fill="#ebebeb"/>
    </g>
    <g id="Clouds" transform="translate(-156 14.162)">
      <g id="Clouds-2" data-name="Clouds">
        <path id="Path_54-2" data-name="Path 54" d="M317.794,72.831l7.445-4.3a7.124,7.124,0,0,1-.063-.913V65.463a13.3,13.3,0,0,1,6.018-10.424,4.691,4.691,0,0,1,3.587-.692c.544-5.455,4.331-11.624,8.929-14.279,4.973-2.871,9-.544,9,5.2v3.226a15.661,15.661,0,0,1-.762,4.618l6.183-3.57c1.844-1.064,3.338-.2,3.338,1.927a7.377,7.377,0,0,1-3.338,5.782L317.794,80.54c-1.843,1.065-3.338.2-3.338-1.927A7.379,7.379,0,0,1,317.794,72.831Z" fill="#bee1db"/>
        <path id="Path_55-2" data-name="Path 55" d="M282.121,122.836l5.619-3.243a5.382,5.382,0,0,1-.047-.689v-1.628a10.037,10.037,0,0,1,4.542-7.867,3.538,3.538,0,0,1,2.706-.523,15.191,15.191,0,0,1,6.74-10.776c3.752-2.167,6.8-.411,6.8,3.923v2.435a11.81,11.81,0,0,1-.576,3.485l4.667-2.694c1.391-.8,2.519-.153,2.519,1.454a5.569,5.569,0,0,1-2.519,4.364l-30.446,17.577c-1.391.8-2.519.153-2.519-1.454A5.571,5.571,0,0,1,282.121,122.836Z" fill="#bee1db"/>
      </g>
    </g>
  </g>
</svg>
