<svg xmlns="http://www.w3.org/2000/svg" width="448.983" height="458.68" viewBox="0 0 448.983 458.68">
  <g id="_06" data-name="06" transform="translate(-24.017 -27.513)">
    <g id="Floor">
      <ellipse id="Floor-2" data-name="Floor" cx="223" cy="128.324" rx="223" ry="128.324" transform="translate(27 229.545)" fill="#e6efef"/>
    </g>
    <g id="Gear">
      <g id="Gear-2" data-name="Gear">
        <path id="Path_7" data-name="Path 7" d="M288.867,126.262a1.143,1.143,0,0,0-.242-.631.862.862,0,0,0-.134-.136,1,1,0,0,0-.165-.108,1.087,1.087,0,0,0-.406-.1,1.487,1.487,0,0,0-.616.113l-12.912,5.151a1.512,1.512,0,0,1-2.064-1.073c-.129-.476-.268-.952-.417-1.419-.123-.386-.256-.773-.39-1.139-.2-.549-.412-1.089-.64-1.6-.108-.265-.227-.52-.346-.776l-.357-.737h-.01v-.01c-.119-.246-.249-.482-.378-.717a3.5,3.5,0,0,1-.313-.845,3.407,3.407,0,0,1,.25-2.231l2.645-4.788,6.553-11.85a1.923,1.923,0,0,0-.639-2.511s-8.946-5.7-8.955-5.713c-.039-.022-11.369-7.263-11.408-7.285l-8.916-5.691H249a1.027,1.027,0,0,0-.2-.119,1.238,1.238,0,0,0-.187-.068.19.19,0,0,1-.069-.024,2.017,2.017,0,0,0-.228-.05,2.084,2.084,0,0,0-.429-.019l-.04,0-.171.023a.343.343,0,0,0-.051.008v.01a.106.106,0,0,0-.081.016c-.051.008-.092.026-.142.034a.314.314,0,0,0-.091.036.577.577,0,0,0-.122.044v.01a.158.158,0,0,1-.061.018.488.488,0,0,0-.062.037c-.01.009-.02.009-.02.019a.8.8,0,0,0-.217.14c-.01,0-.02.01-.031.019l-.01.01a.769.769,0,0,0-.167.153.886.886,0,0,0-.159.183L238.47,93.571h-.01l-9.207-5.885-.175-.118-2.784-1.775-3.787-2.411a.333.333,0,0,0-.117-.075c-.009-.01-.019-.011-.039-.012a.138.138,0,0,0-.069-.023.041.041,0,0,0-.02-.011c0-.01-.009-.01-.019-.011s-.01-.01-.02-.01h-.02a1.344,1.344,0,0,0-.2-.029c-.01,0-.01,0-.019-.011l-.07,0a.038.038,0,0,0-.031.008.306.306,0,0,0-.09.006.218.218,0,0,0-.08.007c-.031.009-.051.008-.081.016a1.884,1.884,0,0,0-.367.144h-.01l-14.58,7.569a.011.011,0,0,0-.011.01c-.02.009-.031.018-.051.028a.149.149,0,0,0-.083.056.2.2,0,0,0-.061.037,1.58,1.58,0,0,0-.208.151c-.041.028-.072.057-.113.085a.48.48,0,0,0-.074.077c-.02.009-.031.029-.052.048l-.156.143a1.107,1.107,0,0,0-.106.115c-.052.058-.1.126-.148.184v.01a2.138,2.138,0,0,0-.149.194,1.969,1.969,0,0,0-.194.311l-.011.01a.392.392,0,0,1-.066.147l-.033.059c-.011.019-.032.038-.032.058a.575.575,0,0,0-.046.118c-.045.118-.091.247-.137.375a.92.92,0,0,0-.047.158,1.521,1.521,0,0,0-.039.208l-2.133,15.761a3.551,3.551,0,0,1-.088.426.93.93,0,0,1-.07.217c-.024.08-.057.148-.08.227a5.438,5.438,0,0,1-1.372,2.021c-.717.609-1.425,1.228-2.125,1.868-.531.477-1.054.964-1.576,1.461s-1.036,1-1.549,1.513-1.027,1.035-1.531,1.563-1,1.057-1.493,1.605a1.791,1.791,0,0,1-.2.192,1.218,1.218,0,0,1-.228.17.943.943,0,0,1-.256.139.687.687,0,0,1-.226.11.885.885,0,0,1-.213.07.415.415,0,0,1-.1.036.349.349,0,0,1-.141.024,1.13,1.13,0,0,1-.252.048.078.078,0,0,1-.08.007.263.263,0,0,1-.151.013.342.342,0,0,1-.171,0,2.333,2.333,0,0,1-.448-.04l-.01-.011a.851.851,0,0,1-.228-.06l-.108-.035-8.989-3.593a1.4,1.4,0,0,0-.336-.1c-.11-.015-.219-.03-.329-.035l.034.022a2.205,2.205,0,0,0-1.979.943l-11.265,17.647a1.941,1.941,0,0,0-.16.346c-.007.02-.019.038-.026.058a1.975,1.975,0,0,0-.088.372c-.005.027-.011.053-.014.081-.006.054-.025.106-.028.16a2.023,2.023,0,0,0,.015.351,1.891,1.891,0,0,0,.074.364,2.315,2.315,0,0,0,.272.622.011.011,0,0,1,.01.011c.037.061.085.124.132.186s.1.114.162.167l7.042,6.64a1.38,1.38,0,0,1,.2.229.811.811,0,0,1,.114.145c.056.083.112.185.167.288a1.786,1.786,0,0,1,.1.254s.01,0,0,.01a.572.572,0,0,1,.017.059,2.017,2.017,0,0,1,.119.478.168.168,0,0,1,.016.1.664.664,0,0,1,.013.14c0,.054,0,.108,0,.161,0,.081,0,.161-.009.241a2.491,2.491,0,0,1-.038.311c-.007.036-.02.069-.029.1a2.048,2.048,0,0,1-.1.317,84.418,84.418,0,0,0-3.777,10.883,4.21,4.21,0,0,1-.294.738,1.369,1.369,0,0,1-.13.234.132.132,0,0,1-.043.068,1.816,1.816,0,0,1-.162.263.17.17,0,0,1-.054.078.318.318,0,0,1-.075.107,1.126,1.126,0,0,1-.1.135,3.753,3.753,0,0,1-.244.3.346.346,0,0,1-.084.1c-.053.058-.106.125-.169.183a3.186,3.186,0,0,1-.271.248,3.242,3.242,0,0,1-.3.227l-13.4,8.563a2.133,2.133,0,0,0-.3.226,1.353,1.353,0,0,0-.167.163,1.644,1.644,0,0,0-.126.125.009.009,0,0,0-.01.009c-.063.068-.127.145-.19.222a3.333,3.333,0,0,0-.2.311c-.054.088-.1.166-.151.254l-.132.264a2.432,2.432,0,0,0-.113.275,1.352,1.352,0,0,0-.058.188c-.035.109-.06.218-.084.317a2.454,2.454,0,0,0-.047.378l-.73,16.414a1.06,1.06,0,0,0,.018.271l.023.151a.488.488,0,0,0,.061.2.054.054,0,0,0,.018.041.934.934,0,0,0,.131.226c.009.01.009.01.019.011a.718.718,0,0,0,.183.168l.009.01a.36.36,0,0,0,.088.054L170.2,200.533l-6.543,11.841a1.308,1.308,0,0,0-.089.2,1.925,1.925,0,0,0-.137.614,1.525,1.525,0,0,0,.024.362v.01a2.187,2.187,0,0,0,.084.354l.009.01a2.177,2.177,0,0,0,.212.43.01.01,0,0,0,.009.011,1.387,1.387,0,0,0,.152.2,2.029,2.029,0,0,0,.385.328l21.8,13.952a1.5,1.5,0,0,0,.333.175l7.144,4.553a1.912,1.912,0,0,0,2.544-.478l7.983-10.916,15.963,10.189c.01,0,.02.011.03.012v-.01a.98.98,0,0,0,.244.131,1.228,1.228,0,0,0,.977-.127l14.591-7.579a2.986,2.986,0,0,0,.631-.453,4.22,4.22,0,0,0,.549-.646,3.418,3.418,0,0,0,.627-1.484l2.132-15.76a5.305,5.305,0,0,1,1.61-2.882,85.131,85.131,0,0,0,8.264-8.01,2.71,2.71,0,0,1,2.832-.665l8.989,3.593a2.228,2.228,0,0,0,2.6-.845L275.416,180a2.223,2.223,0,0,0-.339-2.718l-7.042-6.64a2.733,2.733,0,0,1-.584-2.848,85.123,85.123,0,0,0,3.777-10.873,5.342,5.342,0,0,1,1.941-2.677l13.4-8.562a3.853,3.853,0,0,0,1.573-2.733l.731-16.424A2.015,2.015,0,0,0,288.867,126.262ZM237.88,138.646c-.712,16.011-12.815,34.977-27.037,42.36a28.876,28.876,0,0,1-4.9,2.027c-.106-.8-.183-1.644-.22-2.511-.023-.343-.027-.7-.03-1.047,0-.2,0-.391,0-.59.007-.38.014-.751.031-1.14.712-16.011,12.825-34.976,27.047-42.369q.642-.342,1.283-.628c.214-.1.427-.2.631-.285s.426-.181.63-.267c.794-.326,1.577-.615,2.348-.847A29.518,29.518,0,0,1,237.88,138.646Z" fill="#80c19c"/>
        <path id="Path_8" data-name="Path 8" d="M288.867,126.262a1.143,1.143,0,0,0-.242-.631.862.862,0,0,0-.134-.136,1,1,0,0,0-.165-.108,1.087,1.087,0,0,0-.406-.1,1.487,1.487,0,0,0-.616.113l-12.912,5.151a1.512,1.512,0,0,1-2.064-1.073c-.129-.476-.268-.952-.417-1.419-.123-.386-.256-.773-.39-1.139-.2-.549-.412-1.089-.64-1.6-.108-.265-.227-.52-.346-.776l-.357-.737h-.01v-.01c-.119-.246-.249-.482-.378-.717a3.5,3.5,0,0,1-.313-.845,3.407,3.407,0,0,1,.25-2.231l2.645-4.788,6.553-11.85a1.923,1.923,0,0,0-.639-2.511s-8.946-5.7-8.955-5.713c-.039-.022-11.369-7.263-11.408-7.285l-8.916-5.691H249a1.027,1.027,0,0,0-.2-.119,1.238,1.238,0,0,0-.187-.068.19.19,0,0,1-.069-.024,2.017,2.017,0,0,0-.228-.05,2.084,2.084,0,0,0-.429-.019l-.04,0-.171.023a.343.343,0,0,0-.051.008v.01a.106.106,0,0,0-.081.016c-.051.008-.092.026-.142.034a.314.314,0,0,0-.091.036.577.577,0,0,0-.122.044v.01a.158.158,0,0,1-.061.018.488.488,0,0,0-.062.037c-.01.009-.02.009-.02.019a.8.8,0,0,0-.217.14c-.01,0-.02.01-.031.019l-.01.01a.769.769,0,0,0-.167.153.886.886,0,0,0-.159.183L238.47,93.571h-.01l-9.207-5.885-.175-.118-2.784-1.775-3.787-2.411a.333.333,0,0,0-.117-.075c-.009-.01-.019-.011-.039-.012a.138.138,0,0,0-.069-.023.041.041,0,0,0-.02-.011c0-.01-.009-.01-.019-.011s-.01-.01-.02-.01h-.02a1.344,1.344,0,0,0-.2-.029c-.01,0-.01,0-.019-.011l-.07,0a.038.038,0,0,0-.031.008.306.306,0,0,0-.09.006.218.218,0,0,0-.08.007c-.031.009-.051.008-.081.016a1.884,1.884,0,0,0-.367.144h-.01l-14.58,7.569a.011.011,0,0,0-.011.01c-.02.009-.031.018-.051.028a.149.149,0,0,0-.083.056.2.2,0,0,0-.061.037,1.58,1.58,0,0,0-.208.151c-.041.028-.072.057-.113.085a.48.48,0,0,0-.074.077c-.02.009-.031.029-.052.048l-.156.143a1.107,1.107,0,0,0-.106.115c-.052.058-.1.126-.148.184v.01a2.138,2.138,0,0,0-.149.194,1.969,1.969,0,0,0-.194.311l-.011.01a.392.392,0,0,1-.066.147l-.033.059c-.011.019-.032.038-.032.058a.575.575,0,0,0-.046.118c-.045.118-.091.247-.137.375a.92.92,0,0,0-.047.158,1.521,1.521,0,0,0-.039.208l-2.133,15.761a3.551,3.551,0,0,1-.088.426.93.93,0,0,1-.07.217c-.024.08-.057.148-.08.227a5.438,5.438,0,0,1-1.372,2.021c-.717.609-1.425,1.228-2.125,1.868-.531.477-1.054.964-1.576,1.461s-1.036,1-1.549,1.513-1.027,1.035-1.531,1.563-1,1.057-1.493,1.605a1.791,1.791,0,0,1-.2.192,1.218,1.218,0,0,1-.228.17.943.943,0,0,1-.256.139.687.687,0,0,1-.226.11.885.885,0,0,1-.213.07.415.415,0,0,1-.1.036.349.349,0,0,1-.141.024,1.13,1.13,0,0,1-.252.048.078.078,0,0,1-.08.007.263.263,0,0,1-.151.013.342.342,0,0,1-.171,0,2.333,2.333,0,0,1-.448-.04l-.01-.011a.851.851,0,0,1-.228-.06l-.108-.035-8.989-3.593a1.4,1.4,0,0,0-.336-.1c-.11-.015-.219-.03-.329-.035l.034.022a2.205,2.205,0,0,0-1.979.943l-11.265,17.647a1.941,1.941,0,0,0-.16.346c-.007.02-.019.038-.026.058a1.975,1.975,0,0,0-.088.372c-.005.027-.011.053-.014.081-.006.054-.025.106-.028.16a2.023,2.023,0,0,0,.015.351,1.891,1.891,0,0,0,.074.364,2.315,2.315,0,0,0,.272.622.011.011,0,0,1,.01.011c.037.061.085.124.132.186s.1.114.162.167l7.042,6.64a1.38,1.38,0,0,1,.2.229.811.811,0,0,1,.114.145c.056.083.112.185.167.288a1.786,1.786,0,0,1,.1.254s.01,0,0,.01a.572.572,0,0,1,.017.059,2.017,2.017,0,0,1,.119.478.168.168,0,0,1,.016.1.664.664,0,0,1,.013.14c0,.054,0,.108,0,.161,0,.081,0,.161-.009.241a2.491,2.491,0,0,1-.038.311c-.007.036-.02.069-.029.1a2.048,2.048,0,0,1-.1.317,84.418,84.418,0,0,0-3.777,10.883,4.21,4.21,0,0,1-.294.738,1.369,1.369,0,0,1-.13.234.132.132,0,0,1-.043.068,1.816,1.816,0,0,1-.162.263.17.17,0,0,1-.054.078.318.318,0,0,1-.075.107,1.126,1.126,0,0,1-.1.135,3.753,3.753,0,0,1-.244.3.346.346,0,0,1-.084.1c-.053.058-.106.125-.169.183a3.186,3.186,0,0,1-.271.248,3.242,3.242,0,0,1-.3.227l-13.4,8.563a2.133,2.133,0,0,0-.3.226,1.353,1.353,0,0,0-.167.163,1.644,1.644,0,0,0-.126.125.009.009,0,0,0-.01.009c-.063.068-.127.145-.19.222a3.333,3.333,0,0,0-.2.311c-.054.088-.1.166-.151.254l-.132.264a2.432,2.432,0,0,0-.113.275,1.352,1.352,0,0,0-.058.188c-.035.109-.06.218-.084.317a2.454,2.454,0,0,0-.047.378l-.73,16.414a1.06,1.06,0,0,0,.018.271l.023.151a.488.488,0,0,0,.061.2.054.054,0,0,0,.018.041.934.934,0,0,0,.131.226c.009.01.009.01.019.011a.718.718,0,0,0,.183.168l.009.01a.36.36,0,0,0,.088.054L170.2,200.533l-6.543,11.841a1.308,1.308,0,0,0-.089.2,1.925,1.925,0,0,0-.137.614,1.525,1.525,0,0,0,.024.362v.01a2.187,2.187,0,0,0,.084.354l.009.01a2.177,2.177,0,0,0,.212.43.01.01,0,0,0,.009.011,1.387,1.387,0,0,0,.152.2,2.029,2.029,0,0,0,.385.328l21.8,13.952a1.5,1.5,0,0,0,.333.175l7.144,4.553a1.912,1.912,0,0,0,2.544-.478l7.983-10.916,15.963,10.189c.01,0,.02.011.03.012v-.01a.98.98,0,0,0,.244.131,1.228,1.228,0,0,0,.977-.127l14.591-7.579a2.986,2.986,0,0,0,.631-.453,4.22,4.22,0,0,0,.549-.646,3.418,3.418,0,0,0,.627-1.484l2.132-15.76a5.305,5.305,0,0,1,1.61-2.882,85.131,85.131,0,0,0,8.264-8.01,2.71,2.71,0,0,1,2.832-.665l8.989,3.593a2.228,2.228,0,0,0,2.6-.845L275.416,180a2.223,2.223,0,0,0-.339-2.718l-7.042-6.64a2.733,2.733,0,0,1-.584-2.848,85.123,85.123,0,0,0,3.777-10.873,5.342,5.342,0,0,1,1.941-2.677l13.4-8.562a3.853,3.853,0,0,0,1.573-2.733l.731-16.424A2.015,2.015,0,0,0,288.867,126.262ZM237.88,138.646c-.712,16.011-12.815,34.977-27.037,42.36a28.876,28.876,0,0,1-4.9,2.027c-.106-.8-.183-1.644-.22-2.511-.023-.343-.027-.7-.03-1.047,0-.2,0-.391,0-.59.007-.38.014-.751.031-1.14.712-16.011,12.825-34.976,27.047-42.369q.642-.342,1.283-.628c.214-.1.427-.2.631-.285s.426-.181.63-.267c.794-.326,1.577-.615,2.348-.847A29.518,29.518,0,0,1,237.88,138.646Z" opacity="0.3"/>
        <path id="Path_9" data-name="Path 9" d="M182,200.8l-6.356,2.528a1.194,1.194,0,0,1-1.125-.043l-4.317-2.753L163.66,212.37a1.917,1.917,0,0,0,.638,2.51L186.1,228.842a1.891,1.891,0,0,0,1.368.255l5.975-20.994Z" opacity="0.05"/>
        <path id="Path_10" data-name="Path 10" d="M195.684,160.1,175.3,147.056a2.7,2.7,0,0,0-.753-1.965l-7.043-6.63a2.2,2.2,0,0,1-.641-1.339l20.371,13.028a2.141,2.141,0,0,0,.633,1.3l7.042,6.639A2.71,2.71,0,0,1,195.684,160.1Z" fill="#80c19c"/>
        <path id="Path_11" data-name="Path 11" d="M195.684,160.1,175.3,147.056a2.7,2.7,0,0,0-.753-1.965l-7.043-6.63a2.2,2.2,0,0,1-.641-1.339l20.371,13.028a2.141,2.141,0,0,0,.633,1.3l7.042,6.639A2.71,2.71,0,0,1,195.684,160.1Z" opacity="0.4"/>
        <path id="Path_12" data-name="Path 12" d="M212.1,133.868a2.646,2.646,0,0,1-1.71-.016l-8.99-3.593a1.827,1.827,0,0,0-.654-.139h-.01l-20.353-12.987a2.129,2.129,0,0,1,.655.129l8.989,3.593a2.618,2.618,0,0,0,1.7.016Z" fill="#80c19c"/>
        <path id="Path_13" data-name="Path 13" d="M212.1,133.868a2.646,2.646,0,0,1-1.71-.016l-8.99-3.593a1.827,1.827,0,0,0-.654-.139h-.01l-20.353-12.987a2.129,2.129,0,0,1,.655.129l8.989,3.593a2.618,2.618,0,0,0,1.7.016Z" opacity="0.2"/>
        <path id="Path_14" data-name="Path 14" d="M225.492,105.666a3.218,3.218,0,0,0-.269.858L223.1,122.286a3.859,3.859,0,0,1-.249.869l-20.363-13a3.78,3.78,0,0,0,.239-.87l2.133-15.761a2.949,2.949,0,0,1,.268-.859Z" fill="#80c19c"/>
        <path id="Path_15" data-name="Path 15" d="M225.492,105.666a3.218,3.218,0,0,0-.269.858L223.1,122.286a3.859,3.859,0,0,1-.249.869l-20.363-13a3.78,3.78,0,0,0,.239-.87l2.133-15.761a2.949,2.949,0,0,1,.268-.859Z" opacity="0.2"/>
        <g id="Group_10" data-name="Group 10">
          <path id="Path_16" data-name="Path 16" d="M272.373,115.218l15.954,10.169a1.236,1.236,0,0,0-1.021.025l-12.912,5.141a1.512,1.512,0,0,1-2.064-1.073,28.28,28.28,0,0,0-2.548-6.4,3.526,3.526,0,0,1-.054-3.076Z" fill="#80c19c"/>
          <path id="Path_17" data-name="Path 17" d="M288.406,125.431h-.02l-.01-.011Z" fill="#80c19c"/>
          <path id="Path_18" data-name="Path 18" d="M269.333,95.143a1.919,1.919,0,0,0-2.515.5L255.6,110.989a2.868,2.868,0,0,1-.8.705l-5.743-3.669-5.353-3.421-.407-7.285a1.173,1.173,0,0,0-.526-1,.365.365,0,0,0-.068-.043l-4.244-2.7,7.993-10.926a1.919,1.919,0,0,1,2.515-.489l8.945,5.714Z" fill="#80c19c"/>
          <path id="Path_19" data-name="Path 19" d="M190.782,173.54a4.344,4.344,0,0,1-1,.946l-13.4,8.574a3.161,3.161,0,0,0-.966,1.008l-20.342-13.007a3.394,3.394,0,0,1,.936-1l13.4-8.563a4.728,4.728,0,0,0,1.005-.976Z" fill="#80c19c"/>
          <path id="Path_20" data-name="Path 20" d="M200.4,130.135a2.206,2.206,0,0,0-1.6.959L187.53,148.741a2.076,2.076,0,0,0-.293,1.409l-20.361-13.028a2.092,2.092,0,0,1,.292-1.378L178.423,118.1a2.212,2.212,0,0,1,1.754-.963Z" fill="#80c19c"/>
          <path id="Path_21" data-name="Path 21" d="M242.706,96.271a1.235,1.235,0,0,0-1.085.092l-5.963,3.1-8.618,4.482a3.8,3.8,0,0,0-1.548,1.723l-20.373-13a3.8,3.8,0,0,1,1.548-1.713l14.591-7.579a1.441,1.441,0,0,1,.719-.178.784.784,0,0,1,.424.129l6.678,4.241.175.118,9.208,5.885Z" fill="#80c19c"/>
        </g>
        <path id="Path_22" data-name="Path 22" d="M272.373,115.218l15.954,10.169a1.236,1.236,0,0,0-1.021.025l-12.912,5.141a1.512,1.512,0,0,1-2.064-1.073,28.28,28.28,0,0,0-2.548-6.4,3.526,3.526,0,0,1-.054-3.076Z" opacity="0.1"/>
        <path id="Path_23" data-name="Path 23" d="M269.333,95.143a1.919,1.919,0,0,0-2.515.5L255.6,110.989a2.868,2.868,0,0,1-.8.705l-5.743-3.669-5.353-3.421-.407-7.285a1.173,1.173,0,0,0-.526-1,.365.365,0,0,0-.068-.043l-4.244-2.7,7.993-10.926a1.919,1.919,0,0,1,2.515-.489l8.945,5.714Z" opacity="0.2"/>
        <path id="Path_24" data-name="Path 24" d="M190.782,173.54a4.344,4.344,0,0,1-1,.946l-13.4,8.574a3.161,3.161,0,0,0-.966,1.008l-20.342-13.007a3.394,3.394,0,0,1,.936-1l13.4-8.563a4.728,4.728,0,0,0,1.005-.976Z" opacity="0.2"/>
        <path id="Path_25" data-name="Path 25" d="M200.4,130.135a2.206,2.206,0,0,0-1.6.959L187.53,148.741a2.076,2.076,0,0,0-.293,1.409l-20.361-13.028a2.092,2.092,0,0,1,.292-1.378L178.423,118.1a2.212,2.212,0,0,1,1.754-.963Z" opacity="0.1"/>
        <path id="Path_26" data-name="Path 26" d="M242.706,96.271a1.235,1.235,0,0,0-1.085.092l-5.963,3.1-8.618,4.482a3.8,3.8,0,0,0-1.548,1.723l-20.373-13a3.8,3.8,0,0,1,1.548-1.713l14.591-7.579a1.441,1.441,0,0,1,.719-.178.784.784,0,0,1,.424.129l6.678,4.241.175.118,9.208,5.885Z" opacity="0.1"/>
        <path id="Path_27" data-name="Path 27" d="M193.448,208.1,182,200.8l6.552-2.611a1.5,1.5,0,0,1,2.065,1.062,28.5,28.5,0,0,0,2.548,6.41A3.544,3.544,0,0,1,193.448,208.1Z" opacity="0.15"/>
        <path id="Path_28" data-name="Path 28" d="M220.087,232.36,204.1,222.17l3.239-4.42a3.5,3.5,0,0,1,2.819-1.246,28.448,28.448,0,0,0,6.874-.4,1.5,1.5,0,0,1,1.838,1.423l.775,13.878A1.223,1.223,0,0,0,220.087,232.36Z" opacity="0.15"/>
        <path id="Path_29" data-name="Path 29" d="M288.867,126.262a1.143,1.143,0,0,0-.242-.631.862.862,0,0,0-.134-.136,1,1,0,0,0-.165-.108,1.087,1.087,0,0,0-.406-.1,1.487,1.487,0,0,0-.616.113l-12.912,5.151a1.512,1.512,0,0,1-2.064-1.073c-.129-.476-.268-.952-.417-1.419-.123-.386-.256-.773-.39-1.139-.2-.549-.412-1.089-.64-1.6-.108-.265-.227-.52-.346-.776l-.357-.737h-.01v-.01c-.119-.246-.249-.482-.378-.717a3.5,3.5,0,0,1-.313-.845,3.407,3.407,0,0,1,.25-2.231l2.645-4.788,6.553-11.85a1.923,1.923,0,0,0-.639-2.511l-8.926-5.692c-.009-.011-.02-.011-.029-.021a.479.479,0,0,0-.108-.055.267.267,0,0,0-.078-.044c-.01,0-.019-.011-.03-.011a1.543,1.543,0,0,0-.2-.079h-.02a.358.358,0,0,0-.1-.024.429.429,0,0,0-.109-.025,1.587,1.587,0,0,0-.229-.03,1.963,1.963,0,0,0-1.487.584.881.881,0,0,0-.159.183l-4.114,5.633-7.1,9.714a1.488,1.488,0,0,1-.169.193.637.637,0,0,1-.146.143,2.479,2.479,0,0,1-.487.369,3.671,3.671,0,0,1-2.016.541c-.758-.054-1.538-.078-2.329-.063a29.877,29.877,0,0,0-4.545.448,1.5,1.5,0,0,1-1.838-1.423l-.368-6.593-.407-7.285a1.534,1.534,0,0,0-.055-.333,1.038,1.038,0,0,0-.107-.285.92.92,0,0,0-.132-.2.158.158,0,0,0-.038-.042,1.493,1.493,0,0,0-.193-.148.5.5,0,0,0-.069-.044.009.009,0,0,1-.009-.01c-.05-.012-.109-.035-.158-.047a1.289,1.289,0,0,0-.908.15l-14.591,7.579a2.31,2.31,0,0,0-.527.367.883.883,0,0,0-.146.134,3.618,3.618,0,0,0-.507.6c-.085.116-.16.233-.236.359l-.132.265a3.618,3.618,0,0,0-.169.433,2.336,2.336,0,0,0-.1.426l-1.51,11.224-.612,4.537a3.448,3.448,0,0,1-.123.525,1.635,1.635,0,0,1-.126.345,5.291,5.291,0,0,1-1.361,2.021,85.233,85.233,0,0,0-8.274,8.011,2.531,2.531,0,0,1-1.121.68,2.064,2.064,0,0,1-.5.108.986.986,0,0,1-.241.02,2.274,2.274,0,0,1-.975-.144L201.4,130.26a1.681,1.681,0,0,0-.306-.094.82.82,0,0,0-.269-.032.334.334,0,0,0-.1-.014,1.36,1.36,0,0,0-.291.017,2.2,2.2,0,0,0-1.644.958l-2.282,3.572L189.83,145.16l-2.292,3.582a2.206,2.206,0,0,0-.184,1.9,1.946,1.946,0,0,0,.514.8l7.052,6.64a2.735,2.735,0,0,1,.584,2.849,86.809,86.809,0,0,0-3.787,10.872,5.239,5.239,0,0,1-1.941,2.677l-3.843,2.462-9.551,6.111a3.815,3.815,0,0,0-1.572,2.723l-.731,16.424a1.063,1.063,0,0,0,1.572,1.121l12.911-5.142a1.5,1.5,0,0,1,2.065,1.063,29.423,29.423,0,0,0,1.5,4.321c.328.725.667,1.421,1.038,2.088a3.5,3.5,0,0,1,.053,3.076l-9.188,16.628a1.915,1.915,0,0,0,.639,2.511l8.916,5.692a1.912,1.912,0,0,0,2.544-.478l7.983-10.916,3.239-4.42a3.468,3.468,0,0,1,2.809-1.247,28.605,28.605,0,0,0,6.884-.394,1.512,1.512,0,0,1,1.839,1.423l.774,13.878a1.262,1.262,0,0,0,.4.929l.019.02c.01,0,.02.011.03.012a.7.7,0,0,0,.244.121,1.228,1.228,0,0,0,.977-.127l14.591-7.579a2.986,2.986,0,0,0,.631-.453,4.22,4.22,0,0,0,.549-.646,3.418,3.418,0,0,0,.627-1.484l2.132-15.76a5.305,5.305,0,0,1,1.61-2.882,85.131,85.131,0,0,0,8.264-8.01,2.71,2.71,0,0,1,2.832-.665l8.989,3.593a2.228,2.228,0,0,0,2.6-.845L275.416,180a2.223,2.223,0,0,0-.339-2.718l-7.042-6.64a2.733,2.733,0,0,1-.584-2.848,85.123,85.123,0,0,0,3.777-10.873,5.342,5.342,0,0,1,1.941-2.677l13.4-8.562a3.853,3.853,0,0,0,1.573-2.733l.731-16.424A2.015,2.015,0,0,0,288.867,126.262ZM254.05,165.051a53.747,53.747,0,0,1-2.383,5.276,60.037,60.037,0,0,1-6.308,9.894,54.652,54.652,0,0,1-3.739,4.322,44.2,44.2,0,0,1-11.432,8.811,23.514,23.514,0,0,1-10.677,2.958c-7.227-.017-12.394-4.849-13.57-13.279-.106-.8-.183-1.644-.22-2.511-.023-.343-.027-.7-.03-1.047,0-.2,0-.391,0-.59.007-.38.014-.751.031-1.14.712-16.011,12.825-34.976,27.047-42.369q.642-.342,1.283-.628c.214-.1.427-.2.631-.285s.426-.181.63-.267c.794-.326,1.577-.615,2.348-.847,8.146-2.481,14.7.159,17.741,6.714a23.386,23.386,0,0,1,1.825,10.922A44.457,44.457,0,0,1,254.05,165.051Z" fill="#80c19c"/>
      </g>
    </g>
    <g id="Check_Mark" data-name="Check Mark">
      <g id="Check_Mark-2" data-name="Check Mark">
        <g id="Group_12" data-name="Group 12">
          <g id="Group_11" data-name="Group 11">
            <path id="Path_30" data-name="Path 30" d="M123.3,150.636l-.8,17.946c11.075-6.173,21.524-15.477,30.418-26.5l-8.713-9.637A77.445,77.445,0,0,1,123.3,150.636Z" fill="#80c19c"/>
            <path id="Path_31" data-name="Path 31" d="M123.3,150.636l-.8,17.946c11.075-6.173,21.524-15.477,30.418-26.5l-8.713-9.637A77.445,77.445,0,0,1,123.3,150.636Z" fill="#fff" opacity="0.8"/>
          </g>
          <path id="Path_32" data-name="Path 32" d="M112.176,143.506l-.8,17.945,11.126,7.13.8-17.945Z" fill="#80c19c"/>
          <path id="Path_33" data-name="Path 33" d="M112.176,143.506l-.8,17.945,11.126,7.13.8-17.945Z" fill="#fff" opacity="0.65"/>
          <path id="Path_34" data-name="Path 34" d="M112.176,143.506l-.8,17.945,11.126,7.13.8-17.945Z" fill="#80c19c"/>
          <path id="Path_35" data-name="Path 35" d="M112.176,143.506l-.8,17.945,11.126,7.13.8-17.945Z" opacity="0.05"/>
          <path id="Path_36" data-name="Path 36" d="M123.3,150.636a77.445,77.445,0,0,0,20.907-18.193l-11.125-7.13a77.464,77.464,0,0,1-20.908,18.193Z" fill="#80c19c"/>
          <path id="Path_37" data-name="Path 37" d="M123.3,150.636a77.445,77.445,0,0,0,20.907-18.193l-11.125-7.13a77.464,77.464,0,0,1-20.908,18.193Z" fill="#fff" opacity="0.6"/>
        </g>
        <g id="Group_14" data-name="Group 14">
          <g id="Group_13" data-name="Group 13">
            <path id="Path_38" data-name="Path 38" d="M99.09,155.884l-10,19.36c8.311,2.086,18.406.717,29.444-4.6l.8-17.945C111.779,156.223,104.858,157.2,99.09,155.884Z" fill="#80c19c"/>
          </g>
          <path id="Path_39" data-name="Path 39" d="M99.09,155.884l-10,19.36c8.311,2.086,18.406.717,29.444-4.6l.8-17.945C111.779,156.223,104.858,157.2,99.09,155.884Z" fill="#fff" opacity="0.65"/>
          <path id="Path_40" data-name="Path 40" d="M87.964,148.754l-10,19.36,11.126,7.13,10-19.36Z" fill="#80c19c"/>
          <path id="Path_41" data-name="Path 41" d="M87.964,148.754l-10,19.36,11.126,7.13,10-19.36Z" fill="#fff" opacity="0.55"/>
          <path id="Path_42" data-name="Path 42" d="M87.964,148.754l-10,19.36,11.126,7.13,10-19.36Z" fill="#80c19c"/>
          <path id="Path_43" data-name="Path 43" d="M87.964,148.754l-10,19.36,11.126,7.13,10-19.36Z" opacity="0.1"/>
          <path id="Path_44" data-name="Path 44" d="M108.2,145.57c-7.551,3.523-14.472,4.5-20.24,3.184l11.126,7.13c5.768,1.316,12.689.339,20.24-3.184Z" fill="#80c19c"/>
          <path id="Path_45" data-name="Path 45" d="M108.2,145.57c-7.551,3.523-14.472,4.5-20.24,3.184l11.126,7.13c5.768,1.316,12.689.339,20.24-3.184Z" fill="#fff" opacity="0.55"/>
        </g>
        <g id="Group_16" data-name="Group 16">
          <g id="Group_15" data-name="Group 15">
            <path id="Path_46" data-name="Path 46" d="M84.166,141.819,68.75,155.249c3.188,9.479,9.242,15.993,17.255,19.011L96,154.919C90.558,152.73,86.449,148.233,84.166,141.819Z" fill="#80c19c"/>
            <path id="Path_47" data-name="Path 47" d="M84.166,141.819,68.75,155.249c3.188,9.479,9.242,15.993,17.255,19.011L96,154.919C90.558,152.73,86.449,148.233,84.166,141.819Z" fill="#fff" opacity="0.55"/>
          </g>
          <path id="Path_48" data-name="Path 48" d="M68.75,155.248l-11.126-7.129c2.474,7.354,6.672,12.923,12.171,16.46l11.126,7.13C75.422,168.172,71.223,162.6,68.75,155.248Z" fill="#80c19c"/>
          <path id="Path_49" data-name="Path 49" d="M68.75,155.248l-11.126-7.129c2.474,7.354,6.672,12.923,12.171,16.46l11.126,7.13C75.422,168.172,71.223,162.6,68.75,155.248Z" fill="#fff" opacity="0.45"/>
          <path id="Path_50" data-name="Path 50" d="M73.04,134.689,57.624,148.119l11.126,7.13,15.415-13.429Z" fill="#80c19c"/>
          <path id="Path_51" data-name="Path 51" d="M73.04,134.689,57.624,148.119l11.126,7.13,15.415-13.429Z" fill="#fff" opacity="0.55"/>
          <path id="Path_52" data-name="Path 52" d="M73.04,134.689,57.624,148.119l11.126,7.13,15.415-13.429Z" fill="#80c19c"/>
          <path id="Path_53" data-name="Path 53" d="M73.04,134.689,57.624,148.119l11.126,7.13,15.415-13.429Z" opacity="0.1"/>
        </g>
        <g id="Group_18" data-name="Group 18">
          <g id="Group_17" data-name="Group 17">
            <path id="Path_54" data-name="Path 54" d="M147.537,128.142l8.7,9.628a132.03,132.03,0,0,0,19.8-38.263l-14.921,2.332A95.289,95.289,0,0,1,147.537,128.142Z" fill="#80c19c"/>
            <path id="Path_55" data-name="Path 55" d="M147.537,128.142l8.7,9.628a132.03,132.03,0,0,0,19.8-38.263l-14.921,2.332A95.289,95.289,0,0,1,147.537,128.142Z" fill="#fff" opacity="0.85"/>
          </g>
          <path id="Path_56" data-name="Path 56" d="M164.917,92.377l-14.922,2.332,11.126,7.13,14.922-2.332Z" fill="#80c19c"/>
          <path id="Path_57" data-name="Path 57" d="M164.917,92.377l-14.922,2.332,11.126,7.13,14.922-2.332Z" fill="#fff" opacity="0.75"/>
          <path id="Path_58" data-name="Path 58" d="M164.917,92.377l-14.922,2.332,11.126,7.13,14.922-2.332Z" fill="#80c19c"/>
          <path id="Path_59" data-name="Path 59" d="M149.995,94.709a95.3,95.3,0,0,1-13.584,26.3l11.126,7.129a95.289,95.289,0,0,0,13.584-26.3Z" fill="#80c19c"/>
          <path id="Path_60" data-name="Path 60" d="M149.995,94.709a95.3,95.3,0,0,1-13.584,26.3l11.126,7.129a95.289,95.289,0,0,0,13.584-26.3Z" fill="#fff" opacity="0.65"/>
          <path id="Path_61" data-name="Path 61" d="M147.537,128.143l-11.126-7.13,8.7,9.628,11.126,7.13Z" fill="#80c19c"/>
          <path id="Path_62" data-name="Path 62" d="M147.537,128.143l-11.126-7.13,8.7,9.628,11.126,7.13Z" fill="#fff" opacity="0.75"/>
          <path id="Path_63" data-name="Path 63" d="M147.537,128.143l-11.126-7.13,8.7,9.628,11.126,7.13Z" fill="#80c19c"/>
        </g>
        <g id="Group_20" data-name="Group 20">
          <g id="Group_19" data-name="Group 19">
            <path id="Path_64" data-name="Path 64" d="M180.463,75.746a89.835,89.835,0,0,1-3.018,18.875L162.537,96.95A64.114,64.114,0,0,0,164.572,84a44.778,44.778,0,0,0-.305-7.749l12.85-23.042c.322.754.607,1.547.883,2.344,0,0,.625,1.938,1.021,3.634A58.987,58.987,0,0,1,180.463,75.746Z" fill="#80c19c"/>
            <path id="Path_65" data-name="Path 65" d="M180.463,75.746a89.835,89.835,0,0,1-3.018,18.875L162.537,96.95A64.114,64.114,0,0,0,164.572,84a44.778,44.778,0,0,0-.305-7.749l12.85-23.042c.322.754.607,1.547.883,2.344,0,0,.625,1.938,1.021,3.634A58.987,58.987,0,0,1,180.463,75.746Z" fill="#fff" opacity="0.9"/>
          </g>
          <path id="Path_66" data-name="Path 66" d="M165.991,46.081l-12.85,23.042,11.126,7.13,12.85-23.042Z" fill="#80c19c"/>
          <path id="Path_67" data-name="Path 67" d="M165.991,46.081l-12.85,23.042,11.126,7.13,12.85-23.042Z" fill="#fff" opacity="0.85"/>
          <path id="Path_68" data-name="Path 68" d="M165.991,46.081l-12.85,23.042,11.126,7.13,12.85-23.042Z" fill="#80c19c"/>
          <path id="Path_69" data-name="Path 69" d="M164.267,76.253l-11.126-7.13a44.78,44.78,0,0,1,.3,7.749,64.181,64.181,0,0,1-2.034,12.948l11.125,7.13A64.114,64.114,0,0,0,164.572,84,44.778,44.778,0,0,0,164.267,76.253Z" fill="#80c19c"/>
          <path id="Path_70" data-name="Path 70" d="M164.644,76.493l-11.126-7.13a44.791,44.791,0,0,1,.3,7.75,64.04,64.04,0,0,1-2.034,12.948l11.126,7.13a64.11,64.11,0,0,0,2.034-12.948A44.79,44.79,0,0,0,164.644,76.493Z" fill="#fff" opacity="0.7"/>
        </g>
        <g id="Group_21" data-name="Group 21">
          <path id="Path_71" data-name="Path 71" d="M175.586,42.381c-.1-.061-5.3-3.735-5.3-3.735a1.9,1.9,0,0,0-.311-.161l-10.384-4.291a2.3,2.3,0,0,0-2.823.982l-41.925,75.168-16.665-9.163a2.106,2.106,0,0,0-2.791.744L87.2,114.878a1.9,1.9,0,0,0,.6,2.608c.035.023,4.476,3.21,5.306,3.739.035.022.072.044.109.065l29.017,15.993a2.013,2.013,0,0,0,2.726-.782l51.19-91.769A1.729,1.729,0,0,0,175.586,42.381Z" fill="#f9dbd9"/>
          <path id="Path_72" data-name="Path 72" d="M175.586,42.381c-.1-.061-5.3-3.735-5.3-3.735a1.9,1.9,0,0,0-.311-.161l-10.384-4.291a2.281,2.281,0,0,0-1.933.123l18.1,11.122.394-.707A1.729,1.729,0,0,0,175.586,42.381Z" fill="#f8aead"/>
          <path id="Path_73" data-name="Path 73" d="M175.277,42.221,164.893,37.93a2.3,2.3,0,0,0-2.823.983l-41.925,75.168-16.666-9.163a2.106,2.106,0,0,0-2.791.744l-8.182,12.953a1.9,1.9,0,0,0,.712,2.675l29.017,15.993a2.013,2.013,0,0,0,2.726-.782l51.19-91.769A1.737,1.737,0,0,0,175.277,42.221Z" fill="#f7b0c4"/>
          <path id="Path_74" data-name="Path 74" d="M114.842,110.344l5.289,3.741-16.65-9.167a2.068,2.068,0,0,0-1.554-.179L96.629,101a2.089,2.089,0,0,1,1.543.179Z" fill="#f8aead"/>
        </g>
        <g id="Group_23" data-name="Group 23">
          <g id="Group_22" data-name="Group 22">
            <path id="Path_75" data-name="Path 75" d="M82.178,126.806a64.344,64.344,0,0,1,2.03-12.946L69.3,116.19a89.691,89.691,0,0,0-3.011,18.871,59.108,59.108,0,0,0,1.435,16.562l15.4-13.417A42.793,42.793,0,0,1,82.178,126.806Z" fill="#80c19c"/>
          </g>
          <path id="Path_76" data-name="Path 76" d="M82.178,126.806a64.344,64.344,0,0,1,2.03-12.946L69.3,116.19a89.691,89.691,0,0,0-3.011,18.871,59.108,59.108,0,0,0,1.435,16.562l15.4-13.417A42.793,42.793,0,0,1,82.178,126.806Z" fill="#80c19c"/>
          <path id="Path_77" data-name="Path 77" d="M73.082,106.729l-14.908,2.33,11.126,7.13,14.908-2.33Z" fill="#80c19c"/>
          <path id="Path_78" data-name="Path 78" d="M73.082,106.729l-14.908,2.33,11.126,7.13,14.908-2.33Z" opacity="0.15"/>
          <path id="Path_79" data-name="Path 79" d="M69.3,116.189,58.173,109.06a89.757,89.757,0,0,0-3.011,18.871A59.108,59.108,0,0,0,56.6,144.493l11.126,7.13a59.108,59.108,0,0,1-1.435-16.562A89.775,89.775,0,0,1,69.3,116.189Z" fill="#80c19c"/>
          <path id="Path_80" data-name="Path 80" d="M69.3,116.189,58.173,109.06a89.757,89.757,0,0,0-3.011,18.871A59.108,59.108,0,0,0,56.6,144.493l11.126,7.13a59.108,59.108,0,0,1-1.435-16.562A89.775,89.775,0,0,1,69.3,116.189Z" fill="#fff" opacity="0.3"/>
        </g>
        <g id="Group_25" data-name="Group 25">
          <g id="Group_24" data-name="Group 24">
            <path id="Path_81" data-name="Path 81" d="M147.65,54.938l10.021-19.4c-8.639-2.131-18.891-.423-29.456,4.648l-.8,17.9C134.665,54.722,141.663,53.6,147.65,54.938Z" fill="#80c19c"/>
            <path id="Path_82" data-name="Path 82" d="M147.65,54.938l10.021-19.4c-8.639-2.131-18.891-.423-29.456,4.648l-.8,17.9C134.665,54.722,141.663,53.6,147.65,54.938Z" opacity="0.3"/>
          </g>
          <path id="Path_83" data-name="Path 83" d="M117.089,33.06l-.8,17.9,11.126,7.13.8-17.9Z" fill="#80c19c"/>
          <path id="Path_84" data-name="Path 84" d="M117.089,33.06l-.8,17.9,11.126,7.13.8-17.9Z" opacity="0.42"/>
          <path id="Path_85" data-name="Path 85" d="M128.215,40.189c10.565-5.071,20.817-6.779,29.456-4.648l-11.125-7.13c-8.64-2.131-18.891-.423-29.457,4.649Z" fill="#80c19c"/>
          <path id="Path_86" data-name="Path 86" d="M128.215,40.189c10.565-5.071,20.817-6.779,29.456-4.648l-11.125-7.13c-8.64-2.131-18.891-.423-29.457,4.649Z" opacity="0.2"/>
        </g>
        <g id="Group_27" data-name="Group 27">
          <g id="Group_26" data-name="Group 26">
            <path id="Path_87" data-name="Path 87" d="M123.445,60.171l.8-17.945C113.168,48.4,102.72,57.7,93.825,68.727l8.713,9.638A77.465,77.465,0,0,1,123.445,60.171Z" fill="#80c19c"/>
            <path id="Path_88" data-name="Path 88" d="M123.445,60.171l.8-17.945C113.168,48.4,102.72,57.7,93.825,68.727l8.713,9.638A77.465,77.465,0,0,1,123.445,60.171Z" opacity="0.2"/>
          </g>
          <path id="Path_89" data-name="Path 89" d="M113.118,35.1C102.042,41.268,91.594,50.572,82.7,61.6l11.125,7.13c8.9-11.025,19.343-20.329,30.418-26.5Z" fill="#80c19c"/>
          <path id="Path_90" data-name="Path 90" d="M113.118,35.1C102.042,41.268,91.594,50.572,82.7,61.6l11.125,7.13c8.9-11.025,19.343-20.329,30.418-26.5Z" opacity="0.1"/>
          <path id="Path_91" data-name="Path 91" d="M93.826,68.727,82.7,61.6l8.712,9.638,11.126,7.13Z" fill="#80c19c"/>
          <path id="Path_92" data-name="Path 92" d="M93.826,68.727,82.7,61.6l8.712,9.638,11.126,7.13Z" opacity="0.35"/>
        </g>
        <g id="Group_29" data-name="Group 29">
          <g id="Group_28" data-name="Group 28">
            <path id="Path_93" data-name="Path 93" d="M99.211,82.664l-8.7-9.627a132.029,132.029,0,0,0-19.8,38.263l14.922-2.332A95.282,95.282,0,0,1,99.211,82.664Z" fill="#80c19c"/>
            <path id="Path_94" data-name="Path 94" d="M99.211,82.664l-8.7-9.627a132.029,132.029,0,0,0-19.8,38.263l14.922-2.332A95.282,95.282,0,0,1,99.211,82.664Z" opacity="0.1"/>
          </g>
          <path id="Path_95" data-name="Path 95" d="M70.705,111.3a132.029,132.029,0,0,1,19.8-38.263l-11.126-7.13a132.066,132.066,0,0,0-19.8,38.263Z" fill="#80c19c"/>
        </g>
      </g>
    </g>
    <path id="Shadow" d="M321.268,294.137l22.2,12.817a8.914,8.914,0,0,0,8.066,0l71.377-41.21c2.228-1.286,2.228-3.371,0-4.657l-22.2-12.817a8.914,8.914,0,0,0-8.066,0l-71.377,41.21C319.041,290.766,319.041,292.851,321.268,294.137Z" transform="translate(-280 37)" fill="#ebebeb"/>
    <g id="Clock">
      <g id="Clock-2" data-name="Clock">
        <path id="Path_96" data-name="Path 96" d="M141.3,200.943l0,0-.08-.047-.009-.005-19.255-12.6-.019-.011-.112-.066,0,.005c-9.033-5.226-21.526-4.53-35.371,3.337-27.815,15.806-50.54,54.553-50.758,86.544-.11,15.946,5.4,27.2,14.388,32.524l0,0,.08.047.009.006,19.26,12.607.008.005.1.055,0,0c9.035,5.24,21.538,4.549,35.4-3.325,27.814-15.807,50.54-54.553,50.758-86.545C155.795,217.521,150.29,206.267,141.3,200.943Z" fill="#3d4642"/>
        <path id="Path_97" data-name="Path 97" d="M68.771,322.877l-18.6-12.206H50.16l-.087-.059c-8.986-5.336-14.489-16.59-14.38-32.514.1-14.267,4.68-29.869,12.173-44.173l19.263,12.6c-7.508,14.3-12.076,29.906-12.173,44.174C54.849,306.306,60.12,317.413,68.771,322.877Z" fill="#263238"/>
        <ellipse id="Ellipse_1" data-name="Ellipse 1" cx="70.945" cy="40.96" rx="70.945" ry="40.96" transform="translate(34.101 302.559) rotate(-59.608)" fill="#c6aa80"/>
        <path id="Path_98" data-name="Path 98" d="M82.546,316.538c-15.876-.108-17.467-18.054-17.414-25.764.193-28.216,21.081-63.831,45.613-77.77,6.243-3.548,12.245-5.406,17.356-5.371,15.877.109,17.468,18.054,17.415,25.764-.193,28.215-21.081,63.83-45.613,77.77-6.245,3.549-12.247,5.406-17.356,5.371Z" fill="#fafafa"/>
        <g id="Group_30" data-name="Group 30">
          <path id="Path_99" data-name="Path 99" d="M108.139,267.534a1.725,1.725,0,0,1-1.629-1.82L108.767,225a1.727,1.727,0,0,1,3.449.191l-1.979,35.694,20.338-23.335a1.728,1.728,0,1,1,2.6,2.271l-23.643,27.126A1.726,1.726,0,0,1,108.139,267.534Z" fill="#3d4642"/>
        </g>
        <g id="Group_32" data-name="Group 32">
          <g id="Group_31" data-name="Group 31">
            <path id="Path_100" data-name="Path 100" d="M96.749,297.06a.693.693,0,0,1-.239-.042.725.725,0,0,1-.439-.928l11.336-31.671a.726.726,0,0,1,1.368.489L97.438,296.579A.726.726,0,0,1,96.749,297.06Z" fill="#e2b48a"/>
          </g>
          <path id="Path_101" data-name="Path 101" d="M108.139,257.637c3.272-1.86,5.9-.316,5.878,3.448a13.042,13.042,0,0,1-5.971,10.181c-3.272,1.86-5.9.316-5.879-3.448A13.046,13.046,0,0,1,108.139,257.637Z" fill="#e2b48a"/>
          <path id="Path_102" data-name="Path 102" d="M108.139,257.637c3.272-1.86,5.9-.316,5.878,3.448a13.042,13.042,0,0,1-5.971,10.181c-3.272,1.86-5.9.316-5.879-3.448A13.046,13.046,0,0,1,108.139,257.637Z" opacity="0.2"/>
        </g>
      </g>
    </g>
    <g id="Plants" transform="translate(69 51)">
      <g id="Group_10-2" data-name="Group 10">
        <g id="Group_4" data-name="Group 4">
          <g id="Group_3" data-name="Group 3">
            <path id="Path_3" data-name="Path 3" d="M92.627,335.887S93.632,321.15,88.5,308.63,74.793,287.309,65.72,284.893s-18.061,4.692-9.277,12.314,25.2,16.766,29.263,40Z" fill="#80c19c"/>
            <path id="Path_4" data-name="Path 4" d="M92.627,335.887S93.632,321.15,88.5,308.63,74.793,287.309,65.72,284.893s-18.061,4.692-9.277,12.314,25.2,16.766,29.263,40Z" opacity="0.2"/>
          </g>
          <path id="Path_5" data-name="Path 5" d="M89.282,337.023h-.017a.5.5,0,0,1-.483-.518c.606-17.375-11.9-42.056-28.928-47.838a.5.5,0,0,1,.323-.947c17.425,5.916,30.222,31.1,29.6,48.821A.5.5,0,0,1,89.282,337.023Z" fill="#fff"/>
        </g>
        <g id="Group_9" data-name="Group 9">
          <g id="Group_5" data-name="Group 5">
            <path id="Path_6" data-name="Path 6" d="M89.883,371.292a10.733,10.733,0,0,1-4.882,1.3,14.341,14.341,0,0,1-5.9-.892c-3.343-1.261-6.141-3.18-6.986-6.8-.666-2.851.391-6.064-.855-8.794-1.176-2.577-4.98-4.353-7.531-5.163-1.792-.569-3.674-.842-5.432-1.507a6.963,6.963,0,0,1-4.164-3.565c-1.691-4.147,2.913-8.846,1.4-13.062-.749-2.091-2.792-3.382-4.67-4.568S47,325.62,46.482,323.459a6.155,6.155,0,0,1,1.863-5.5c3.351-3.469,8.99-3.8,13.495-2.082a41.839,41.839,0,0,0,4.263,1.653c5.675,1.484,11.712-2.239,17.422-.893a10.324,10.324,0,0,1,7.533,7.628c.276,1.243.316,2.529.6,3.768.724,3.114,4.01,3.774,4.795,6.963.709,2.884-.192,5.923-.688,8.766-.763,4.371-1.62,8.725-2.526,13.068q-.739,3.539-1.516,7.07c-.479,2.165.152,4.543-.816,6.533A10.888,10.888,0,0,1,89.883,371.292Z" fill="#80c19c"/>
          </g>
          <g id="Group_6" data-name="Group 6">
            <path id="Path_7-2" data-name="Path 7" d="M91.478,355.885a.5.5,0,0,1-.493-.424c-2.394-15.534-24.243-33.9-38.2-35.765a.5.5,0,1,1,.133-.992c14.265,1.9,36.6,20.7,39.054,36.6a.5.5,0,0,1-.418.57A.513.513,0,0,1,91.478,355.885Z" fill="#fff"/>
          </g>
          <g id="Group_7" data-name="Group 7">
            <path id="Path_8-2" data-name="Path 8" d="M78.719,334.632l-.047,0a.5.5,0,0,1-.452-.544c.926-10.093,4.572-13.944,4.726-14.1a.5.5,0,0,1,.718.7c-.035.037-3.559,3.8-4.448,13.5A.5.5,0,0,1,78.719,334.632Z" fill="#fff"/>
          </g>
          <g id="Group_8" data-name="Group 8">
            <path id="Path_9-2" data-name="Path 9" d="M63.191,342.727a.5.5,0,0,1-.2-.96c.46-.2,11.359-4.762,20.874-2.18a.5.5,0,1,1-.262.965c-9.174-2.491-20.11,2.089-20.219,2.135A.511.511,0,0,1,63.191,342.727Z" fill="#fff"/>
          </g>
        </g>
      </g>
    </g>
    <g id="Group_98" data-name="Group 98" transform="translate(49 38)">
      <g id="Group_51" data-name="Group 51">
        <path id="Path_48-2" data-name="Path 48" d="M117.33,389.263l-.6-.345a3.829,3.829,0,0,1-1.732-3V216.372a3.829,3.829,0,0,1,1.732-3L227,149.7a3.826,3.826,0,0,0,1.732-3V136.633a3.832,3.832,0,0,1,1.732-3l49.342-28.487a3.824,3.824,0,0,1,3.464,0l.6.345a3.829,3.829,0,0,1,1.732,3v5.381c0,1.1.775,1.552,1.732,1L332.617,88.73a3.83,3.83,0,0,1,3.464,0l.6.345a3.83,3.83,0,0,1,1.732,3V261.622a3.826,3.826,0,0,1-1.732,3L120.794,389.263A3.824,3.824,0,0,1,117.33,389.263Z" fill="#e0e0e0"/>
        <path id="Path_49-2" data-name="Path 49" d="M119.062,388.263V218.717a3.829,3.829,0,0,1,1.732-3l110.273-63.668a3.826,3.826,0,0,0,1.732-3v-10.07a3.829,3.829,0,0,1,1.732-3l49.343-28.488c.956-.552,1.732-.1,1.732,1v10.071c0,1.105.775,1.553,1.732,1l49.343-28.487c.956-.552,1.732-.1,1.732,1V261.622a3.826,3.826,0,0,1-1.732,3L120.794,389.263C119.838,389.816,119.062,389.368,119.062,388.263Z" fill="#f5f5f5"/>
        <g id="Group_50" data-name="Group 50">
          <path id="Path_50-2" data-name="Path 50" d="M115,226.967v1.475l4.062,2.345L338.41,104.146V92.074a3.828,3.828,0,0,0-1.732-3l-.6-.345a3.83,3.83,0,0,0-3.464,0l-45.282,26.143c-.956.553-1.732.1-1.732-1v-5.38a3.826,3.826,0,0,0-1.732-3l-.6-.346a3.83,3.83,0,0,0-3.464,0l-49.342,28.488a3.826,3.826,0,0,0-1.732,3v10.071a3.83,3.83,0,0,1-1.732,3L116.73,213.37a3.829,3.829,0,0,0-1.731,3Z" fill="#3d4642"/>
          <path id="Path_51-2" data-name="Path 51" d="M115,226.967v1.475l4.062,2.345L338.41,104.146V92.074a3.828,3.828,0,0,0-1.732-3l-.6-.345a3.83,3.83,0,0,0-3.464,0l-45.282,26.143c-.956.553-1.732.1-1.732-1v-5.38a3.826,3.826,0,0,0-1.732-3l-.6-.346a3.83,3.83,0,0,0-3.464,0l-49.342,28.488a3.826,3.826,0,0,0-1.732,3v10.071a3.83,3.83,0,0,1-1.732,3L116.73,213.37a3.829,3.829,0,0,0-1.731,3Z" fill="#526d60"/>
          <path id="Path_52-2" data-name="Path 52" d="M236.858,153.4V139.323l-7.617-4.4a3.537,3.537,0,0,0-.508,1.708v10.071a3.546,3.546,0,0,1-.507,1.707Z" fill="#263238"/>
          <path id="Path_53-2" data-name="Path 53" d="M123.123,219.061l-7.617-4.4A3.535,3.535,0,0,0,115,216.37v12.072l4.062,2.345Z" fill="#263238"/>
          <path id="Path_54-2" data-name="Path 54" d="M231.065,152.05,120.792,215.716a3.828,3.828,0,0,0-1.731,3v12.071L338.41,104.146V92.074c0-1.1-.775-1.552-1.732-1l-49.344,28.489c-.956.552-1.732.1-1.732-1V108.492c0-1.1-.775-1.553-1.732-1l-49.342,28.487a3.829,3.829,0,0,0-1.732,3V149.05A3.828,3.828,0,0,1,231.065,152.05Z" fill="#ebebeb"/>
          <g id="Group_43" data-name="Group 43">
            <g id="Group_38" data-name="Group 38" opacity="0.7" style="mix-blend-mode: multiply;isolation: isolate">
              <path id="Path_55-2" data-name="Path 55" d="M129.815,216.681l-3.556,2.054,1.364-2.342a.5.5,0,1,0-.864-.5l-2.31,3.966a.5.5,0,0,0-.051.383.5.5,0,0,0,.237.305l2.311,1.3a.507.507,0,0,0,.245.064.5.5,0,0,0,.245-.936l-1.545-.868,4.424-2.555a.5.5,0,1,0-.5-.866Z" fill="#e0e0e0"/>
              <path id="Path_56-2" data-name="Path 56" d="M138.083,212.618a.5.5,0,0,0-.237-.3l-2.31-1.3a.5.5,0,0,0-.491.872l1.546.868-4.425,2.555a.5.5,0,0,0,.25.933.5.5,0,0,0,.25-.067l3.557-2.053-1.364,2.341a.5.5,0,1,0,.863.5L138.033,213A.5.5,0,0,0,138.083,212.618Z" fill="#e0e0e0"/>
            </g>
            <g id="Group_39" data-name="Group 39">
              <path id="Path_57-2" data-name="Path 57" d="M145.6,206.085l158.151-91.309c1.2-.69,2.165-.2,2.165,1.1a4.643,4.643,0,0,1-2.165,3.6L145.6,210.775c-1.2.691-2.165.2-2.165-1.1A4.641,4.641,0,0,1,145.6,206.085Z" fill="#e0e0e0"/>
            </g>
            <g id="Group_40" data-name="Group 40">
              <path id="Path_58-2" data-name="Path 58" d="M312.013,110.008c1.122-.647,2.031-.122,2.031,1.173a4.49,4.49,0,0,1-2.031,3.518c-1.121.647-2.031.122-2.031-1.173A4.492,4.492,0,0,1,312.013,110.008Z" fill="#fafafa"/>
            </g>
            <g id="Group_41" data-name="Group 41">
              <path id="Path_59-2" data-name="Path 59" d="M320.138,105.318c1.121-.647,2.031-.122,2.031,1.173a4.492,4.492,0,0,1-2.031,3.518c-1.122.647-2.031.122-2.031-1.173A4.49,4.49,0,0,1,320.138,105.318Z" fill="#fafafa"/>
            </g>
            <g id="Group_42" data-name="Group 42">
              <path id="Path_60-2" data-name="Path 60" d="M328.262,100.628c1.122-.648,2.031-.123,2.031,1.173a4.486,4.486,0,0,1-2.031,3.517c-1.122.648-2.031.123-2.031-1.172A4.49,4.49,0,0,1,328.262,100.628Z" fill="#fafafa"/>
            </g>
          </g>
          <g id="Group_49" data-name="Group 49" opacity="0.7" style="mix-blend-mode: multiply;isolation: isolate">
            <g id="Group_44" data-name="Group 44">
              <path id="Path_61-2" data-name="Path 61" d="M244.983,136.978c0,1.3.969,1.786,2.165,1.1l24.1-13.917a4.646,4.646,0,0,0,2.165-3.6c0-1.295-.97-1.785-2.165-1.095l-24.1,13.917A4.643,4.643,0,0,0,244.983,136.978Z" fill="#e0e0e0"/>
            </g>
            <g id="Group_45" data-name="Group 45">
              <path id="Path_62-2" data-name="Path 62" d="M238.889,138.151a4.489,4.489,0,0,0-2.031,3.517c0,1.3.91,1.821,2.031,1.173a4.49,4.49,0,0,0,2.031-3.518C240.92,138.028,240.011,137.5,238.889,138.151Z" fill="#80c19c"/>
            </g>
            <g id="Group_48" data-name="Group 48">
              <g id="Group_46" data-name="Group 46">
                <path id="Path_63-2" data-name="Path 63" d="M281.541,118.716a.494.494,0,0,1-.25-.067l-4.062-2.345a.5.5,0,1,1,.5-.866l4.062,2.345a.5.5,0,0,1-.25.933Z" fill="#e0e0e0"/>
              </g>
              <g id="Group_47" data-name="Group 47">
                <path id="Path_64-2" data-name="Path 64" d="M277.479,121.061a.5.5,0,0,1-.433-.75l4.063-7.035a.5.5,0,1,1,.865.5l-4.063,7.035A.5.5,0,0,1,277.479,121.061Z" fill="#e0e0e0"/>
              </g>
            </g>
          </g>
        </g>
      </g>
      <g id="Group_52" data-name="Group 52">
        <path id="Path_65-2" data-name="Path 65" d="M129.516,396.3l-.6-.345a3.829,3.829,0,0,1-1.732-3V223.406a3.828,3.828,0,0,1,1.732-3l57.467-33.177a3.829,3.829,0,0,0,1.732-3V174.158a3.826,3.826,0,0,1,1.732-3l49.342-28.488a3.83,3.83,0,0,1,3.464,0l.6.345a3.829,3.829,0,0,1,1.732,3V151.4c0,1.105.776,1.553,1.733,1L344.8,95.765a3.824,3.824,0,0,1,3.464,0l.6.345a3.829,3.829,0,0,1,1.732,3V268.657a3.832,3.832,0,0,1-1.732,3L132.98,396.3A3.83,3.83,0,0,1,129.516,396.3Z" fill="#e0e0e0"/>
        <path id="Path_66-2" data-name="Path 66" d="M131.248,395.3V225.751a3.829,3.829,0,0,1,1.732-3l57.467-33.177a3.829,3.829,0,0,0,1.732-3V176.5a3.832,3.832,0,0,1,1.732-3l49.342-28.488c.957-.552,1.732-.1,1.732,1v10.072c0,1.1.776,1.552,1.733,1L348.865,98.11c.956-.553,1.732-.105,1.732,1V268.657a3.832,3.832,0,0,1-1.732,3L132.98,396.3C132.023,396.85,131.248,396.4,131.248,395.3Z" fill="#fafafa"/>
      </g>
      <g id="Group_65" data-name="Group 65">
        <path id="Path_67-2" data-name="Path 67" d="M127.185,234v1.474l4.062,2.346L350.6,111.182V99.11a3.827,3.827,0,0,0-1.733-3l-.6-.345a3.824,3.824,0,0,0-3.464,0L246.716,152.4c-.957.553-1.733.105-1.733-1v-5.381a3.829,3.829,0,0,0-1.732-3l-.6-.345a3.83,3.83,0,0,0-3.464,0l-49.342,28.488a3.826,3.826,0,0,0-1.732,3v10.071a3.829,3.829,0,0,1-1.732,3l-57.467,33.177a3.826,3.826,0,0,0-1.732,3Z" fill="#526d60"/>
        <path id="Path_68-2" data-name="Path 68" d="M196.239,190.918V176.847l-7.617-4.4a3.537,3.537,0,0,0-.508,1.708v10.071a3.539,3.539,0,0,1-.507,1.706Z" fill="#263238"/>
        <path id="Path_69-2" data-name="Path 69" d="M135.309,226.1l-7.617-4.4a3.542,3.542,0,0,0-.507,1.706v12.072l4.062,2.346Z" fill="#263238"/>
        <path id="Path_70-2" data-name="Path 70" d="M190.446,189.574l-57.467,33.177a3.829,3.829,0,0,0-1.732,3v12.072L350.6,111.182V99.11c0-1.105-.776-1.553-1.733-1L246.716,157.087c-.957.552-1.733.1-1.733-1V146.015c0-1.1-.775-1.552-1.732-1L193.909,173.5a3.83,3.83,0,0,0-1.732,3v10.071A3.829,3.829,0,0,1,190.446,189.574Z" fill="#e0e0e0"/>
        <g id="Group_58" data-name="Group 58">
          <g id="Group_53" data-name="Group 53" opacity="0.7" style="mix-blend-mode: multiply;isolation: isolate">
            <path id="Path_71-2" data-name="Path 71" d="M142,223.717l-3.556,2.053,1.364-2.341a.5.5,0,1,0-.863-.5l-2.311,3.966a.5.5,0,0,0,.187.687l2.31,1.3a.506.506,0,0,0,.245.064.5.5,0,0,0,.246-.936l-1.546-.868,4.424-2.555a.5.5,0,1,0-.5-.866Z" fill="#e0e0e0"/>
            <path id="Path_72-2" data-name="Path 72" d="M150.27,219.654a.5.5,0,0,0-.237-.305l-2.311-1.3a.5.5,0,0,0-.49.872l1.545.868-4.424,2.555a.5.5,0,1,0,.5.866l3.556-2.054-1.364,2.342a.5.5,0,0,0,.864.5l2.31-3.967A.5.5,0,0,0,150.27,219.654Z" fill="#e0e0e0"/>
          </g>
          <g id="Group_54" data-name="Group 54">
            <path id="Path_73-2" data-name="Path 73" d="M157.791,213.121l158.151-91.309c1.2-.69,2.165-.2,2.165,1.1a4.641,4.641,0,0,1-2.165,3.6L157.791,217.811c-1.2.69-2.165.2-2.165-1.1A4.641,4.641,0,0,1,157.791,213.121Z" fill="#e0e0e0"/>
          </g>
          <g id="Group_55" data-name="Group 55">
            <path id="Path_74-2" data-name="Path 74" d="M324.2,117.044c1.122-.648,2.031-.122,2.031,1.173a4.49,4.49,0,0,1-2.031,3.518c-1.122.647-2.031.122-2.031-1.173A4.49,4.49,0,0,1,324.2,117.044Z" fill="#fafafa"/>
          </g>
          <g id="Group_56" data-name="Group 56">
            <path id="Path_75-2" data-name="Path 75" d="M332.324,112.354c1.122-.648,2.031-.123,2.031,1.172a4.487,4.487,0,0,1-2.031,3.518c-1.121.648-2.031.123-2.031-1.172A4.492,4.492,0,0,1,332.324,112.354Z" fill="#fafafa"/>
          </g>
          <g id="Group_57" data-name="Group 57">
            <path id="Path_76-2" data-name="Path 76" d="M340.449,107.664c1.121-.648,2.031-.123,2.031,1.172a4.489,4.489,0,0,1-2.031,3.518c-1.122.648-2.031.123-2.031-1.173A4.486,4.486,0,0,1,340.449,107.664Z" fill="#fafafa"/>
          </g>
        </g>
        <g id="Group_64" data-name="Group 64" opacity="0.7" style="mix-blend-mode: multiply;isolation: isolate">
          <g id="Group_59" data-name="Group 59">
            <path id="Path_77-2" data-name="Path 77" d="M204.364,174.5c0,1.295.969,1.786,2.165,1.1l24.1-13.916a4.643,4.643,0,0,0,2.165-3.6c0-1.3-.969-1.785-2.165-1.1l-24.1,13.917A4.641,4.641,0,0,0,204.364,174.5Z" fill="#e0e0e0"/>
          </g>
          <g id="Group_60" data-name="Group 60">
            <path id="Path_78-2" data-name="Path 78" d="M198.271,175.674a4.49,4.49,0,0,0-2.031,3.518c0,1.295.909,1.82,2.031,1.173a4.492,4.492,0,0,0,2.031-3.518C200.3,175.552,199.392,175.027,198.271,175.674Z" fill="#80c19c"/>
          </g>
          <g id="Group_63" data-name="Group 63">
            <g id="Group_61" data-name="Group 61">
              <path id="Path_79-2" data-name="Path 79" d="M240.922,156.24a.5.5,0,0,1-.25-.067l-4.062-2.345a.5.5,0,1,1,.5-.866l4.062,2.345a.5.5,0,0,1-.25.933Z" fill="#e0e0e0"/>
            </g>
            <g id="Group_62" data-name="Group 62">
              <path id="Path_80-2" data-name="Path 80" d="M236.86,158.585a.494.494,0,0,1-.25-.067.5.5,0,0,1-.183-.683l4.063-7.035a.5.5,0,1,1,.865.5l-4.063,7.035A.5.5,0,0,1,236.86,158.585Z" fill="#e0e0e0"/>
            </g>
          </g>
        </g>
      </g>
      <path id="Path_81-2" data-name="Path 81" d="M141.7,403.334l-.6-.346a3.826,3.826,0,0,1-1.732-3V230.442a3.826,3.826,0,0,1,1.732-3l4.659-2.69a3.826,3.826,0,0,0,1.732-3v-10.07a3.826,3.826,0,0,1,1.732-3l49.342-28.488a3.827,3.827,0,0,1,3.464,0l.6.345a3.828,3.828,0,0,1,1.732,3v5.381c0,1.1.775,1.552,1.732,1L356.99,102.8a3.83,3.83,0,0,1,3.464,0l.6.345a3.832,3.832,0,0,1,1.732,3V275.692a3.826,3.826,0,0,1-1.732,3L145.167,403.334A3.83,3.83,0,0,1,141.7,403.334Z" fill="#e0e0e0"/>
      <path id="Path_82-2" data-name="Path 82" d="M143.435,402.334V232.787a3.829,3.829,0,0,1,1.732-3l4.659-2.69a3.826,3.826,0,0,0,1.732-3v-10.07a3.829,3.829,0,0,1,1.732-3l49.342-28.488c.957-.552,1.732-.1,1.732,1V193.61c0,1.1.775,1.553,1.732,1l154.957-89.465c.956-.552,1.732-.1,1.732,1V275.692a3.826,3.826,0,0,1-1.732,3L145.167,403.334C144.21,403.886,143.435,403.438,143.435,402.334Z" fill="#fafafa"/>
      <g id="Group_68" data-name="Group 68">
        <path id="Path_83-2" data-name="Path 83" d="M143.434,244.858v32.833L362.784,151.049V118.217Z" fill="#80c19c"/>
        <g id="Group_66" data-name="Group 66">
          <path id="Path_84-2" data-name="Path 84" d="M139.372,242.514v32.832l4.062,2.345V244.858Z" fill="#80c19c"/>
          <path id="Path_85-2" data-name="Path 85" d="M139.372,242.514v32.832l4.062,2.345V244.858Z" opacity="0.2"/>
        </g>
        <g id="Group_67" data-name="Group 67">
          <path id="Path_86-2" data-name="Path 86" d="M214.655,217.811l70.952-40.964v4.69L214.655,222.5c-1.195.69-2.165.2-2.165-1.1A4.643,4.643,0,0,1,214.655,217.811Z" fill="#fff"/>
          <path id="Path_87-2" data-name="Path 87" d="M291.7,173.329l-6.093,3.518v4.69l6.093-3.518a4.486,4.486,0,0,0,2.031-3.517C293.73,173.207,292.821,172.682,291.7,173.329Z" fill="#fff"/>
        </g>
      </g>
      <g id="Group_79" data-name="Group 79">
        <g id="Group_70" data-name="Group 70">
          <path id="Path_88-2" data-name="Path 88" d="M155.621,280.037c2.244-1.295,4.063-.245,4.063,2.345a8.977,8.977,0,0,1-4.063,7.036c-2.245,1.3-4.064.245-4.064-2.345A8.976,8.976,0,0,1,155.621,280.037Z" fill="#80c19c"/>
          <path id="Path_89-2" data-name="Path 89" d="M165.91,274.1l24.1-13.917c1.2-.69,2.165-.2,2.165,1.1a4.643,4.643,0,0,1-2.165,3.6l-24.1,13.916c-1.2.69-2.165.2-2.165-1.1A4.644,4.644,0,0,1,165.91,274.1Z" fill="#80c19c"/>
          <g id="Group_69" data-name="Group 69">
            <path id="Path_90-2" data-name="Path 90" d="M163.746,283.555a2.321,2.321,0,0,1,1.083-1.8l14.083-8.131c.6-.345,1.082-.1,1.082.548a2.32,2.32,0,0,1-1.082,1.8L164.829,284.1C164.231,284.448,163.746,284.2,163.746,283.555Z" fill="#80c19c"/>
            <path id="Path_91-2" data-name="Path 91" d="M163.746,283.555a2.321,2.321,0,0,1,1.083-1.8l14.083-8.131c.6-.345,1.082-.1,1.082.548a2.32,2.32,0,0,1-1.082,1.8L164.829,284.1C164.231,284.448,163.746,284.2,163.746,283.555Z" fill="#fff" opacity="0.3"/>
          </g>
        </g>
        <g id="Group_72" data-name="Group 72">
          <path id="Path_92-2" data-name="Path 92" d="M155.621,298.037c2.244-1.295,4.063-.245,4.063,2.345a8.977,8.977,0,0,1-4.063,7.036c-2.245,1.3-4.064.245-4.064-2.345A8.976,8.976,0,0,1,155.621,298.037Z" fill="#80c19c"/>
          <path id="Path_93-2" data-name="Path 93" d="M165.91,292.1l24.1-13.917c1.2-.69,2.165-.2,2.165,1.1a4.643,4.643,0,0,1-2.165,3.6l-24.1,13.916c-1.2.69-2.165.2-2.165-1.1A4.644,4.644,0,0,1,165.91,292.1Z" fill="#80c19c"/>
          <g id="Group_71" data-name="Group 71">
            <path id="Path_94-2" data-name="Path 94" d="M163.746,301.555a2.321,2.321,0,0,1,1.083-1.8l14.083-8.131c.6-.345,1.082-.1,1.082.548a2.32,2.32,0,0,1-1.082,1.8L164.829,302.1C164.231,302.448,163.746,302.2,163.746,301.555Z" fill="#80c19c"/>
            <path id="Path_95-2" data-name="Path 95" d="M163.746,301.555a2.321,2.321,0,0,1,1.083-1.8l14.083-8.131c.6-.345,1.082-.1,1.082.548a2.32,2.32,0,0,1-1.082,1.8L164.829,302.1C164.231,302.448,163.746,302.2,163.746,301.555Z" fill="#fff" opacity="0.3"/>
          </g>
        </g>
        <g id="Group_74" data-name="Group 74">
          <path id="Path_96-2" data-name="Path 96" d="M155.621,318.037c2.244-1.295,4.063-.245,4.063,2.345a8.977,8.977,0,0,1-4.063,7.036c-2.245,1.3-4.064.245-4.064-2.345A8.976,8.976,0,0,1,155.621,318.037Z" fill="#80c19c"/>
          <path id="Path_97-2" data-name="Path 97" d="M165.91,312.1l24.1-13.917c1.2-.69,2.165-.2,2.165,1.1a4.643,4.643,0,0,1-2.165,3.6l-24.1,13.916c-1.2.69-2.165.2-2.165-1.1A4.644,4.644,0,0,1,165.91,312.1Z" fill="#80c19c"/>
          <g id="Group_73" data-name="Group 73">
            <path id="Path_98-2" data-name="Path 98" d="M163.746,321.555a2.321,2.321,0,0,1,1.083-1.8l14.083-8.131c.6-.345,1.082-.1,1.082.548a2.32,2.32,0,0,1-1.082,1.8L164.829,322.1C164.231,322.448,163.746,322.2,163.746,321.555Z" fill="#80c19c"/>
            <path id="Path_99-2" data-name="Path 99" d="M163.746,321.555a2.321,2.321,0,0,1,1.083-1.8l14.083-8.131c.6-.345,1.082-.1,1.082.548a2.32,2.32,0,0,1-1.082,1.8L164.829,322.1C164.231,322.448,163.746,322.2,163.746,321.555Z" fill="#fff" opacity="0.3"/>
          </g>
        </g>
        <g id="Group_76" data-name="Group 76">
          <path id="Path_100-2" data-name="Path 100" d="M155.621,350.037c2.244-1.295,4.063-.245,4.063,2.345a8.977,8.977,0,0,1-4.063,7.036c-2.245,1.3-4.064.245-4.064-2.345A8.976,8.976,0,0,1,155.621,350.037Z" fill="#80c19c"/>
          <path id="Path_101-2" data-name="Path 101" d="M165.91,344.1l24.1-13.917c1.2-.69,2.165-.2,2.165,1.1a4.643,4.643,0,0,1-2.165,3.6l-24.1,13.916c-1.2.69-2.165.2-2.165-1.1A4.644,4.644,0,0,1,165.91,344.1Z" fill="#80c19c"/>
          <g id="Group_75" data-name="Group 75">
            <path id="Path_102-2" data-name="Path 102" d="M163.746,353.555a2.321,2.321,0,0,1,1.083-1.8l14.083-8.131c.6-.345,1.082-.1,1.082.548a2.32,2.32,0,0,1-1.082,1.8L164.829,354.1C164.231,354.448,163.746,354.2,163.746,353.555Z" fill="#80c19c"/>
            <path id="Path_103" data-name="Path 103" d="M163.746,353.555a2.321,2.321,0,0,1,1.083-1.8l14.083-8.131c.6-.345,1.082-.1,1.082.548a2.32,2.32,0,0,1-1.082,1.8L164.829,354.1C164.231,354.448,163.746,354.2,163.746,353.555Z" fill="#fff" opacity="0.3"/>
          </g>
        </g>
        <g id="Group_78" data-name="Group 78">
          <path id="Path_104" data-name="Path 104" d="M155.621,367.037c2.244-1.295,4.063-.245,4.063,2.345a8.977,8.977,0,0,1-4.063,7.036c-2.245,1.3-4.064.245-4.064-2.345A8.976,8.976,0,0,1,155.621,367.037Z" fill="#80c19c"/>
          <path id="Path_105" data-name="Path 105" d="M165.91,361.1l24.1-13.917c1.2-.69,2.165-.2,2.165,1.1a4.643,4.643,0,0,1-2.165,3.6l-24.1,13.916c-1.2.69-2.165.2-2.165-1.1A4.644,4.644,0,0,1,165.91,361.1Z" fill="#80c19c"/>
          <g id="Group_77" data-name="Group 77">
            <path id="Path_106" data-name="Path 106" d="M163.746,370.555a2.321,2.321,0,0,1,1.083-1.8l14.083-8.131c.6-.345,1.082-.1,1.082.548a2.32,2.32,0,0,1-1.082,1.8L164.829,371.1C164.231,371.448,163.746,371.2,163.746,370.555Z" fill="#80c19c"/>
            <path id="Path_107" data-name="Path 107" d="M163.746,370.555a2.321,2.321,0,0,1,1.083-1.8l14.083-8.131c.6-.345,1.082-.1,1.082.548a2.32,2.32,0,0,1-1.082,1.8L164.829,371.1C164.231,371.448,163.746,371.2,163.746,370.555Z" fill="#fff" opacity="0.3"/>
          </g>
        </g>
        <path id="Path_108" data-name="Path 108" d="M147.5,344.961v.109c0,.332.233.466.52.3L171.351,331.9a1.149,1.149,0,0,0,.519-.9v-.11c0-.331-.232-.465-.519-.3l-23.334,13.472A1.147,1.147,0,0,0,147.5,344.961Z" fill="#e0e0e0"/>
      </g>
      <g id="Group_82" data-name="Group 82">
        <path id="Path_109" data-name="Path 109" d="M206.529,250.646l109.406-63.17c1.2-.69,2.165-.13,2.165,1.25v41.9a4.784,4.784,0,0,1-2.165,3.75l-109.406,63.17c-1.2.69-2.165.13-2.165-1.25V254.4A4.784,4.784,0,0,1,206.529,250.646Z" fill="#80c19c"/>
        <g id="Group_80" data-name="Group 80">
          <path id="Path_110" data-name="Path 110" d="M212.489,254.239c0,1.295.97,1.785,2.165,1.1l26.268-15.165a4.639,4.639,0,0,0,2.165-3.594c0-1.294-.969-1.784-2.165-1.094l-26.268,15.164A4.644,4.644,0,0,0,212.489,254.239Z" fill="#f5f5f5"/>
          <path id="Path_111" data-name="Path 111" d="M245.935,234.931c0,1.295.97,1.785,2.166,1.094l26.267-15.165a4.639,4.639,0,0,0,2.165-3.594c0-1.294-.969-1.784-2.165-1.093L248.1,231.336A4.642,4.642,0,0,0,245.935,234.931Z" fill="#f5f5f5"/>
          <path id="Path_112" data-name="Path 112" d="M279.382,215.622c0,1.3.969,1.785,2.165,1.094l26.267-15.165a4.639,4.639,0,0,0,2.165-3.593c0-1.295-.969-1.785-2.165-1.094l-26.267,15.163A4.641,4.641,0,0,0,279.382,215.622Z" fill="#f5f5f5"/>
        </g>
        <g id="Group_81" data-name="Group 81">
          <path id="Path_113" data-name="Path 113" d="M212.489,287.072c0,1.3.97,1.785,2.165,1.1l93.16-53.782a4.639,4.639,0,0,0,2.165-3.594c0-1.294-.969-1.784-2.165-1.093l-93.16,53.779A4.646,4.646,0,0,0,212.489,287.072Z" fill="#f5f5f5"/>
        </g>
        <path id="Path_114" data-name="Path 114" d="M214.223,260.276l94.025-54.286c.956-.553,1.732-.105,1.732,1v14.762a3.832,3.832,0,0,1-1.732,3l-94.024,54.285c-.956.553-1.732.105-1.732-1V263.276A3.826,3.826,0,0,1,214.223,260.276Z" fill="#f5f5f5"/>
      </g>
      <g id="Group_85" data-name="Group 85">
        <path id="Path_115" data-name="Path 115" d="M206.529,306.646l109.406-63.17c1.2-.69,2.165-.13,2.165,1.25v41.9a4.784,4.784,0,0,1-2.165,3.75l-109.406,63.17c-1.2.69-2.165.13-2.165-1.25V310.4A4.784,4.784,0,0,1,206.529,306.646Z" fill="#80c19c"/>
        <g id="Group_83" data-name="Group 83">
          <path id="Path_116" data-name="Path 116" d="M212.489,310.239c0,1.295.97,1.785,2.165,1.1l26.268-15.165a4.639,4.639,0,0,0,2.165-3.594c0-1.294-.969-1.784-2.165-1.094l-26.268,15.164A4.644,4.644,0,0,0,212.489,310.239Z" fill="#f5f5f5"/>
          <path id="Path_117" data-name="Path 117" d="M245.935,290.931c0,1.3.97,1.785,2.166,1.094l26.267-15.165a4.639,4.639,0,0,0,2.165-3.594c0-1.294-.969-1.784-2.165-1.093L248.1,287.336A4.642,4.642,0,0,0,245.935,290.931Z" fill="#f5f5f5"/>
          <path id="Path_118" data-name="Path 118" d="M279.382,271.622c0,1.295.969,1.785,2.165,1.094l26.267-15.165a4.639,4.639,0,0,0,2.165-3.593c0-1.295-.969-1.785-2.165-1.094l-26.267,15.163A4.641,4.641,0,0,0,279.382,271.622Z" fill="#f5f5f5"/>
        </g>
        <g id="Group_84" data-name="Group 84">
          <path id="Path_119" data-name="Path 119" d="M212.489,343.072c0,1.3.97,1.785,2.165,1.1l93.16-53.782a4.639,4.639,0,0,0,2.165-3.594c0-1.294-.969-1.784-2.165-1.093l-93.16,53.779A4.646,4.646,0,0,0,212.489,343.072Z" fill="#f5f5f5"/>
        </g>
        <path id="Path_120" data-name="Path 120" d="M214.223,316.276l94.025-54.286c.956-.553,1.732-.1,1.732,1v14.762a3.832,3.832,0,0,1-1.732,3l-94.024,54.285c-.956.553-1.732.105-1.732-1V319.276A3.826,3.826,0,0,1,214.223,316.276Z" fill="#f5f5f5"/>
      </g>
      <path id="Path_121" data-name="Path 121" d="M352.5,166.372l-24.1,13.915a4.784,4.784,0,0,0-2.165,3.75v23.144c0,1.381.969,1.94,2.165,1.25l24.1-13.915a4.786,4.786,0,0,0,2.165-3.75V167.622C354.661,166.241,353.691,165.681,352.5,166.372Z" fill="#80c19c"/>
      <path id="Path_122" data-name="Path 122" d="M333.273,182.18c1.649-.951,2.985-.18,2.985,1.723a6.594,6.594,0,0,1-2.986,5.169c-1.648.952-2.985.18-2.984-1.723A6.6,6.6,0,0,1,333.273,182.18Z" fill="#f5f5f5"/>
      <path id="Path_123" data-name="Path 123" d="M338.413,182.71a2.321,2.321,0,0,1,1.083-1.8l10.021-5.785c.6-.345,1.082-.1,1.081.547a2.325,2.325,0,0,1-1.084,1.8L339.5,183.258C338.9,183.6,338.413,183.358,338.413,182.71Z" fill="#f5f5f5"/>
      <path id="Path_124" data-name="Path 124" d="M331.369,192.64l18.145-10.478c.6-.346,1.083-.066,1.083.625l0,6.882a2.392,2.392,0,0,1-1.082,1.875L331.372,202.02c-.6.345-1.083.066-1.083-.625l0-6.879A2.394,2.394,0,0,1,331.369,192.64Z" fill="#f5f5f5"/>
      <path id="Path_125" data-name="Path 125" d="M352.5,199.206l-24.1,13.915a4.784,4.784,0,0,0-2.165,3.75v46.59c0,1.38.969,1.94,2.165,1.25L352.5,250.8a4.79,4.79,0,0,0,2.165-3.75v-46.59C354.661,199.075,353.691,198.515,352.5,199.206Z" fill="#80c19c"/>
      <path id="Path_126" data-name="Path 126" d="M333.273,215.014c1.649-.951,2.985-.18,2.985,1.723a6.594,6.594,0,0,1-2.986,5.169c-1.648.952-2.985.18-2.984-1.723A6.6,6.6,0,0,1,333.273,215.014Z" fill="#f5f5f5"/>
      <path id="Path_127" data-name="Path 127" d="M338.413,215.544a2.321,2.321,0,0,1,1.083-1.8l10.021-5.785c.6-.345,1.082-.1,1.081.547a2.325,2.325,0,0,1-1.084,1.8L339.5,216.092C338.9,216.437,338.413,216.192,338.413,215.544Z" fill="#f5f5f5"/>
      <path id="Path_128" data-name="Path 128" d="M331.369,225.474,349.514,215c.6-.346,1.083-.066,1.083.625l0,6.882a2.392,2.392,0,0,1-1.082,1.875l-18.145,10.476c-.6.345-1.083.065-1.083-.625l0-6.879A2.394,2.394,0,0,1,331.369,225.474Z" fill="#f5f5f5"/>
      <path id="Path_129" data-name="Path 129" d="M333.273,238.443c1.649-.951,2.985-.18,2.985,1.724a6.594,6.594,0,0,1-2.986,5.168c-1.648.952-2.985.18-2.984-1.723A6.6,6.6,0,0,1,333.273,238.443Z" fill="#f5f5f5"/>
      <path id="Path_130" data-name="Path 130" d="M338.413,238.973a2.321,2.321,0,0,1,1.083-1.8l10.021-5.785c.6-.345,1.082-.1,1.081.547a2.325,2.325,0,0,1-1.084,1.8L339.5,239.521C338.9,239.866,338.413,239.621,338.413,238.973Z" fill="#f5f5f5"/>
      <path id="Path_131" data-name="Path 131" d="M331.369,248.9l18.145-10.479c.6-.345,1.083-.066,1.083.625l0,6.882a2.391,2.391,0,0,1-1.082,1.875l-18.145,10.476c-.6.346-1.083.066-1.083-.625l0-6.879A2.391,2.391,0,0,1,331.369,248.9Z" fill="#f5f5f5"/>
      <path id="Path_132" data-name="Path 132" d="M352.5,255.477l-24.1,13.915a4.784,4.784,0,0,0-2.165,3.75v9.084c0,1.381.969,1.94,2.165,1.25l24.1-13.915a4.786,4.786,0,0,0,2.165-3.75v-9.084C354.661,255.346,353.691,254.787,352.5,255.477Z" fill="#80c19c"/>
      <path id="Path_133" data-name="Path 133" d="M333.276,270.432c1.649-.951,2.985-.18,2.985,1.724a6.594,6.594,0,0,1-2.986,5.168c-1.649.952-2.985.18-2.984-1.723A6.6,6.6,0,0,1,333.276,270.432Z" fill="#f5f5f5"/>
      <path id="Path_134" data-name="Path 134" d="M338.416,270.962a2.321,2.321,0,0,1,1.083-1.8l10.021-5.785c.6-.345,1.082-.1,1.081.547a2.323,2.323,0,0,1-1.084,1.8L339.5,271.51C338.9,271.855,338.416,271.61,338.416,270.962Z" fill="#f5f5f5"/>
      <g id="Group_97" data-name="Group 97">
        <path id="Path_135" data-name="Path 135" d="M362.784,118.217V106.139a3.828,3.828,0,0,0-1.731-2.994l-.6-.345a3.83,3.83,0,0,0-3.464,0L206.1,189.92c-.957.552-1.732.1-1.732-1v-5.381a3.828,3.828,0,0,0-1.732-3l-.6-.345a3.824,3.824,0,0,0-3.464,0l-49.342,28.488a3.829,3.829,0,0,0-1.732,3v10.07a3.829,3.829,0,0,1-1.732,3l-4.659,2.69a3.826,3.826,0,0,0-1.732,3v12.072l4.062,2.344Z" fill="#526d60"/>
        <path id="Path_136" data-name="Path 136" d="M151.557,226.1h.437l1.114-13.176L148,209.973a3.541,3.541,0,0,0-.508,1.709v10.07a3.546,3.546,0,0,1-.507,1.707Z" fill="#263238"/>
        <path id="Path_137" data-name="Path 137" d="M139.879,228.735a3.546,3.546,0,0,0-.507,1.707v12.072l4.062,2.344,4.062-11.726Z" fill="#263238"/>
        <path id="Path_138" data-name="Path 138" d="M149.825,227.1l-4.659,2.69a3.826,3.826,0,0,0-1.732,3v12.071l219.35-126.641V106.145c0-1.1-.776-1.552-1.732-1L206.1,194.61c-.957.553-1.732.1-1.732-1V183.539c0-1.1-.775-1.552-1.732-1l-49.342,28.488a3.829,3.829,0,0,0-1.732,3V224.1A3.826,3.826,0,0,1,149.825,227.1Z" fill="#f5f5f5"/>
        <g id="Group_89" data-name="Group 89">
          <path id="Path_139" data-name="Path 139" d="M163.743,212.026c0,1.295.97,1.785,2.165,1.1l24.1-13.917a4.641,4.641,0,0,0,2.165-3.6c0-1.295-.969-1.786-2.165-1.095l-24.1,13.917A4.642,4.642,0,0,0,163.743,212.026Z" fill="#e0e0e0"/>
          <path id="Path_140" data-name="Path 140" d="M157.65,213.2a4.49,4.49,0,0,0-2.031,3.518c0,1.295.909,1.82,2.031,1.172a4.486,4.486,0,0,0,2.031-3.517C159.681,213.075,158.772,212.55,157.65,213.2Z" fill="#80c19c"/>
          <g id="Group_88" data-name="Group 88">
            <g id="Group_86" data-name="Group 86">
              <path id="Path_141" data-name="Path 141" d="M200.3,193.764a.5.5,0,0,1-.25-.067l-4.063-2.345a.5.5,0,0,1,.5-.867l4.063,2.346a.5.5,0,0,1-.25.933Z" fill="#e0e0e0"/>
            </g>
            <g id="Group_87" data-name="Group 87">
              <path id="Path_142" data-name="Path 142" d="M196.239,196.109a.5.5,0,0,1-.25-.067.5.5,0,0,1-.182-.683l4.062-7.036a.5.5,0,1,1,.865.5l-4.062,7.036A.5.5,0,0,1,196.239,196.109Z" fill="#e0e0e0"/>
            </g>
          </g>
        </g>
        <g id="Group_96" data-name="Group 96">
          <g id="Group_92" data-name="Group 92">
            <g id="Group_90" data-name="Group 90">
              <path id="Path_143" data-name="Path 143" d="M149.557,234.5a.5.5,0,0,1-.25-.933l4.875-2.815a.5.5,0,0,1,.5.867l-4.875,2.814A.5.5,0,0,1,149.557,234.5Z" fill="#e0e0e0"/>
            </g>
            <g id="Group_91" data-name="Group 91">
              <path id="Path_144" data-name="Path 144" d="M151.557,235.978a.51.51,0,0,1-.246-.064l-2.751-1.548,2.565-4.4a.5.5,0,1,1,.863.5l-2.053,3.528,1.867,1.05a.5.5,0,0,1-.245.936Z" fill="#e0e0e0"/>
            </g>
          </g>
          <g id="Group_95" data-name="Group 95">
            <g id="Group_93" data-name="Group 93">
              <path id="Path_145" data-name="Path 145" d="M156.782,230.314a.5.5,0,0,1-.25-.933l4.875-2.814a.5.5,0,1,1,.5.866l-4.875,2.814A.5.5,0,0,1,156.782,230.314Z" fill="#e0e0e0"/>
            </g>
            <g id="Group_94" data-name="Group 94">
              <path id="Path_146" data-name="Path 146" d="M159.657,231.287a.5.5,0,0,1-.431-.751l2.053-3.528-1.867-1.05a.5.5,0,0,1,.49-.872l2.752,1.548-2.565,4.4A.5.5,0,0,1,159.657,231.287Z" fill="#e0e0e0"/>
            </g>
          </g>
          <path id="Path_147" data-name="Path 147" d="M169.97,220.156l158.151-91.308c1.2-.691,2.166-.2,2.166,1.095a4.644,4.644,0,0,1-2.165,3.6L169.97,224.847c-1.2.69-2.165.2-2.165-1.1A4.644,4.644,0,0,1,169.97,220.156Z" fill="#f5f5f5"/>
          <path id="Path_148" data-name="Path 148" d="M336.38,124.08c1.121-.648,2.031-.123,2.031,1.172a4.489,4.489,0,0,1-2.031,3.518c-1.122.648-2.031.123-2.031-1.172A4.487,4.487,0,0,1,336.38,124.08Z" fill="#fafafa"/>
          <path id="Path_149" data-name="Path 149" d="M344.5,119.39c1.122-.648,2.031-.123,2.031,1.172a4.488,4.488,0,0,1-2.031,3.518c-1.122.648-2.031.123-2.031-1.173A4.486,4.486,0,0,1,344.5,119.39Z" fill="#fafafa"/>
          <path id="Path_150" data-name="Path 150" d="M352.628,114.7c1.122-.647,2.031-.122,2.031,1.173a4.49,4.49,0,0,1-2.031,3.518c-1.121.648-2.031.122-2.031-1.173A4.492,4.492,0,0,1,352.628,114.7Z" fill="#fafafa"/>
        </g>
      </g>
    </g>
    <g id="Paper_Planes" data-name="Paper Planes">
      <g id="Group_62-2" data-name="Group 62">
        <g id="Group_57-2" data-name="Group 57">
          <path id="Path_121-2" data-name="Path 121" d="M57.99,155.348l44.165-13.73L68.182,165.155Z" fill="#b6bc83"/>
          <path id="Path_122-2" data-name="Path 122" d="M102.155,141.618l-47.563,7.846L44.4,139.656Z" fill="#b6bc83"/>
          <path id="Path_123-2" data-name="Path 123" d="M54.592,149.464v11.769l3.4-5.884,44.165-13.73Z" fill="#b6bc83"/>
          <path id="Path_124-2" data-name="Path 124" d="M54.592,149.464v11.769l3.4-5.884,44.165-13.73Z" opacity="0.25"/>
          <path id="Path_125-2" data-name="Path 125" d="M54.592,161.232l6.794-2.615-3.4-3.269Z" fill="#b6bc83"/>
          <path id="Path_126-2" data-name="Path 126" d="M57.99,155.348l3.4,3.269-1.084.417Z" opacity="0.25"/>
        </g>
        <g id="Group_61-2" data-name="Group 61">
          <g id="Group_58-2" data-name="Group 58">
            <path id="Path_127-2" data-name="Path 127" d="M46.84,159.818a.75.75,0,0,1-.37-1.4c.9-.508,1.806-.983,2.7-1.412a.75.75,0,1,1,.647,1.353c-.867.414-1.746.873-2.612,1.364A.749.749,0,0,1,46.84,159.818Z" fill="#e6efef"/>
          </g>
          <g id="Group_59-2" data-name="Group 59">
            <path id="Path_128-2" data-name="Path 128" d="M38.325,226.221a.748.748,0,0,1-.458-.156,33.716,33.716,0,0,1-4.583-4.28.75.75,0,1,1,1.122-1,32.289,32.289,0,0,0,4.378,4.089.75.75,0,0,1-.459,1.343Zm-7.569-8.257a.748.748,0,0,1-.63-.343,36.148,36.148,0,0,1-2.92-5.539.75.75,0,1,1,1.382-.584,34.8,34.8,0,0,0,2.8,5.31.749.749,0,0,1-.63,1.156Zm-4.525-10.258a.751.751,0,0,1-.723-.553,42.17,42.17,0,0,1-1.185-6.134.75.75,0,0,1,1.49-.176,40.658,40.658,0,0,0,1.142,5.915.752.752,0,0,1-.724.948Zm-1.464-11.88h-.75a45.951,45.951,0,0,1,.418-6.224.75.75,0,0,1,1.486.2,44.24,44.24,0,0,0-.4,5.972Zm1.423-10.385a.735.735,0,0,1-.2-.026.749.749,0,0,1-.528-.92,39.4,39.4,0,0,1,2.115-5.885.75.75,0,1,1,1.367.618,37.663,37.663,0,0,0-2.034,5.66A.75.75,0,0,1,26.19,185.441Zm4.48-10.284a.749.749,0,0,1-.637-1.145,42.46,42.46,0,0,1,3.674-5.05.75.75,0,1,1,1.145.968,41.072,41.072,0,0,0-3.544,4.872A.749.749,0,0,1,30.67,175.157Zm7.13-8.671a.75.75,0,0,1-.514-1.3,48,48,0,0,1,4.812-3.968.75.75,0,1,1,.877,1.217,46.384,46.384,0,0,0-4.66,3.843A.753.753,0,0,1,37.8,166.486Z" fill="#e6efef"/>
          </g>
          <g id="Group_60-2" data-name="Group 60">
            <path id="Path_129-2" data-name="Path 129" d="M45.306,230.394a.738.738,0,0,1-.308-.067c-.934-.421-1.855-.883-2.737-1.372a.75.75,0,1,1,.728-1.312c.846.47,1.729.913,2.626,1.317a.75.75,0,0,1-.309,1.434Z" fill="#e6efef"/>
          </g>
        </g>
      </g>
      <g id="Group_64-2" data-name="Group 64">
        <path id="Path_130-2" data-name="Path 130" d="M414.4,122.011l35.377-22.656,15.584,5Z" fill="#c6aa80"/>
        <path id="Path_131-2" data-name="Path 131" d="M414.4,122.011l30.576-25.5-6.795-7.846Z" fill="#c6aa80"/>
        <path id="Path_132-2" data-name="Path 132" d="M444.976,96.512v5.917L414.4,122.011Z" fill="#c6aa80"/>
        <path id="Path_133-2" data-name="Path 133" d="M444.976,96.512v5.917L414.4,122.011Z" opacity="0.25"/>
        <g id="Group_63-2" data-name="Group 63">
          <path id="Path_134-2" data-name="Path 134" d="M450.071,96.018a.75.75,0,0,1-.508-1.3,25.793,25.793,0,0,0,2.887-3.152.75.75,0,0,1,1.188.917,27.286,27.286,0,0,1-3.058,3.336A.743.743,0,0,1,450.071,96.018ZM455.7,88.55a.751.751,0,0,1-.67-1.086A25.1,25.1,0,0,0,457.013,82a.75.75,0,1,1,1.459.345,26.615,26.615,0,0,1-2.1,5.79A.751.751,0,0,1,455.7,88.55Zm2.733-10.572H458.4a.749.749,0,0,1-.715-.783c.017-.4.027-.805.027-1.21a27.7,27.7,0,0,0-.391-4.607.75.75,0,0,1,1.479-.251,29.2,29.2,0,0,1,.412,4.858c0,.428-.01.853-.029,1.278A.75.75,0,0,1,458.432,77.978Zm-1.615-10.813a.751.751,0,0,1-.709-.5,31.843,31.843,0,0,0-2.423-5.328.751.751,0,0,1,1.3-.742,33.433,33.433,0,0,1,2.536,5.578.749.749,0,0,1-.463.954A.736.736,0,0,1,456.817,67.165Zm-5.252-9.609a.748.748,0,0,1-.594-.291,38.7,38.7,0,0,0-3.944-4.361.75.75,0,0,1,1.036-1.086,40.215,40.215,0,0,1,4.1,4.53.75.75,0,0,1-.593,1.208Zm-7.834-7.675a.748.748,0,0,1-.451-.151,48.128,48.128,0,0,0-4.924-3.255.75.75,0,0,1,.75-1.3,49.987,49.987,0,0,1,5.079,3.356.75.75,0,0,1-.454,1.349Zm-78.592-2.9a.75.75,0,0,1-.376-1.4c1.737-1,3.544-1.949,5.37-2.81a.75.75,0,1,1,.64,1.356c-1.79.845-3.559,1.77-5.26,2.752A.738.738,0,0,1,365.139,46.981Zm69.174-2.741a.756.756,0,0,1-.326-.074c-1.776-.859-3.609-1.652-5.447-2.357a.75.75,0,1,1,.537-1.4c1.877.719,3.749,1.529,5.563,2.406a.75.75,0,0,1-.327,1.425Zm-59.269-2.017a.75.75,0,0,1-.273-1.448c1.871-.732,3.8-1.4,5.727-1.979a.75.75,0,0,1,.432,1.437c-1.89.569-3.779,1.221-5.613,1.938A.727.727,0,0,1,375.044,42.223Zm49.038-1.989a.754.754,0,0,1-.219-.032c-1.88-.575-3.812-1.078-5.744-1.5a.75.75,0,1,1,.319-1.466c1.971.427,3.944.941,5.863,1.527a.75.75,0,0,1-.219,1.467Zm-38.538-1.252a.75.75,0,0,1-.167-1.481c1.956-.451,3.958-.829,5.951-1.124a.75.75,0,1,1,.221,1.483c-1.954.29-3.918.661-5.836,1.1A.755.755,0,0,1,385.544,38.982Zm27.816-1.151a.675.675,0,0,1-.109-.008c-1.948-.285-3.935-.494-5.9-.621a.75.75,0,0,1,.1-1.5c2.01.13,4.037.343,6.025.634a.75.75,0,0,1-.108,1.492ZM396.4,37.3a.75.75,0,0,1-.06-1.5c2.008-.164,4.045-.249,6.053-.253h0a.75.75,0,0,1,0,1.5c-1.968,0-3.964.088-5.933.248C396.445,37.3,396.425,37.3,396.4,37.3Z" fill="#e6efef"/>
        </g>
      </g>
    </g>
    <path id="Shadow-2" data-name="Shadow" d="M321.268,294.137l22.2,12.817a8.914,8.914,0,0,0,8.066,0l71.377-41.21c2.228-1.286,2.228-3.371,0-4.657l-22.2-12.817a8.914,8.914,0,0,0-8.066,0l-71.377,41.21C319.041,290.766,319.041,292.851,321.268,294.137Z" transform="translate(40 123)" fill="#ebebeb"/>
    <g id="Magnet" transform="translate(40 123)">
      <g id="Group_54-2" data-name="Group 54">
        <path id="Path_100-3" data-name="Path 100" d="M402.895,145.87l-22.7,13.105v65.464a30.368,30.368,0,0,1-15.132,26.267V185.185l-15.133-8.737-22.7,13.1V255.08a24.96,24.96,0,0,0,12.516,21.775c2.594,1.51,12.675,7.318,15.248,8.8a24.96,24.96,0,0,0,25.2,0h0a75.665,75.665,0,0,0,37.834-65.528V154.607Z" fill="#80c19c"/>
        <path id="Path_101-3" data-name="Path 101" d="M342.367,198.289v65.527a25.218,25.218,0,0,0,37.827,21.84h0a75.663,75.663,0,0,0,37.834-65.528V154.607l-22.7,13.1v65.464a30.37,30.37,0,0,1-15.184,26.3h0a10.053,10.053,0,0,1-15.08-8.706V185.185Z" fill="#80c19c"/>
        <path id="Path_102-3" data-name="Path 102" d="M418.025,154.611l-22.7,13.1v65.462a30.367,30.367,0,0,1-15.18,26.3,10.041,10.041,0,0,1-15.087-8.707V250.7A30.345,30.345,0,0,0,380.2,224.44V158.979l22.7-13.113Z" opacity="0.15"/>
        <path id="Path_103-2" data-name="Path 103" d="M354.426,285.329c-3.231-1.862-12.237-7.059-14.677-8.474a24.965,24.965,0,0,1-12.517-21.774V189.554l22.705-13.1,15.125,8.736-22.7,13.1v65.527A24.955,24.955,0,0,0,354.426,285.329Z" opacity="0.15"/>
        <path id="Path_104-2" data-name="Path 104" d="M380.2,158.975l15.132,8.737,22.7-13.1L402.9,145.87Z" fill="#68967e"/>
        <path id="Path_105-2" data-name="Path 105" d="M349.968,176.451l15.132,8.737-22.733,13.1-15.135-8.736Z" fill="#68967e"/>
        <path id="Path_106-2" data-name="Path 106" d="M395.33,167.711v17.473l22.7-13.1V154.607Z" fill="#526d60"/>
        <path id="Path_107-2" data-name="Path 107" d="M380.2,158.975l15.132,8.737v17.473L380.2,176.448Z" fill="#526d60"/>
        <path id="Path_108-2" data-name="Path 108" d="M342.367,198.29v17.473l22.7-13.1V185.186Z" fill="#526d60"/>
        <path id="Path_109-2" data-name="Path 109" d="M327.232,189.554l15.135,8.736v17.516l-15.132-8.736Z" fill="#526d60"/>
      </g>
    </g>
  </g>
</svg>
