<svg xmlns="http://www.w3.org/2000/svg" width="377" height="332" viewBox="0 0 377 332">
    <g fill="none" fill-rule="evenodd">
        <g>
            <g>
                <g>
                    <path fill="#011269" d="M8.419 163.232c-1.998-20.946 2.852-45.317 21.064-55.809 14.428-8.312 32.938-5.379 48.177-12.084 16.431-7.23 26.06-24.068 35.401-39.415 9.342-15.346 21.213-31.432 38.779-35.12 23.362-4.905 44.923 14.106 68.595 17.179 13.862 1.8 27.749-1.97 41.542-4.244 13.792-2.274 28.885-2.817 40.747 4.588 24.766 15.457 21.518 54.8 42.866 74.724 11.8 11.013 30.465 15.394 37.04 30.145 4.284 9.62 1.918 20.755-.516 31-4.435 18.659-8.869 37.317-13.302 55.976-2.805 11.805-5.842 24.078-13.65 33.354-12.03 14.288-32.761 18.09-51.307 15.989-18.545-2.1-36.195-9.046-54.54-12.484-23.962-4.49-48.54-2.836-72.403 1.433-19.894 3.557-41.629 13.763-61.846 13.532-34.112-.387-69.646-34.157-86.563-61.026-10.952-17.392-18.127-37.23-20.084-57.738" transform="translate(-773.000000, -9821.000000) translate(219.000000, 9125.000000) translate(546.000000, 696.000000)"/>
                    <path fill="#22297D" d="M257.097 54H137.903C130.777 54 125 59.827 125 67.015v202.488C125 279.72 133.211 288 143.34 288h108.32c10.13 0 18.34-8.28 18.34-18.497V67.015C270 59.827 264.224 54 257.097 54" transform="translate(-773.000000, -9821.000000) translate(219.000000, 9125.000000) translate(546.000000, 696.000000)"/>
                    <path fill="#B7C7EF" d="M261 72v185.787c0 3.433-2.784 6.213-6.222 6.213H140.223c-3.437 0-6.223-2.78-6.223-6.213V72h127" transform="translate(-773.000000, -9821.000000) translate(219.000000, 9125.000000) translate(546.000000, 696.000000)"/>
                    <path fill="#155BCD" d="M223.197 65h-51.394c-.443 0-.803-.335-.803-.749V62.75c0-.414.36-.749.803-.749h51.394c.445 0 .803.335.803.749v1.502c0 .414-.358.749-.803.749" transform="translate(-773.000000, -9821.000000) translate(219.000000, 9125.000000) translate(546.000000, 696.000000)"/>
                    <path fill="#FFF" d="M198.09 120.367c4.322 0 7.826 3.503 7.826 7.825 0 4.321-3.504 7.824-7.827 7.824s-7.828-3.503-7.828-7.824c0-4.322 3.505-7.825 7.828-7.825zm16.553 65.446c.88-3.142 1.697-5.863 2.436-8.36.72-2.436 1.369-4.655 1.934-6.844.515-1.995.965-3.96 1.339-6.033.408-2.243.729-4.614.953-7.288.256-3.055.393-6.503.393-10.602 0-20.171-7.289-38.479-13.782-50.786C202.7 86.014 198 80 198 80s-4.702 6.014-9.918 15.901c-6.493 12.308-13.78 30.614-13.78 50.785 0 4.117.135 7.577.397 10.642.226 2.671.546 5.042.953 7.286.377 2.074.826 4.04 1.343 6.035.566 2.186 1.214 4.405 1.934 6.843.737 2.485 1.548 5.197 2.429 8.321L165 213l23.048-12.562h19.903L231 213l-16.357-27.187z" transform="translate(-773.000000, -9821.000000) translate(219.000000, 9125.000000) translate(546.000000, 696.000000)"/>
                    <path fill="#FF654F" d="M187 199.524L164 212 180.324 185 187 199.524M230 212L207 199.524 213.677 185 230 212" transform="translate(-773.000000, -9821.000000) translate(219.000000, 9125.000000) translate(546.000000, 696.000000)"/>
                    <path fill="#050F64" d="M197.5 136.338c-4.329 0-7.838-3.51-7.838-7.838 0-4.329 3.51-7.838 7.839-7.838 4.328 0 7.837 3.51 7.837 7.838 0 4.329-3.509 7.838-7.837 7.838zm0-17.338c-5.246 0-9.5 4.254-9.5 9.5s4.254 9.5 9.5 9.5 9.5-4.254 9.5-9.5-4.254-9.5-9.5-9.5z" transform="translate(-773.000000, -9821.000000) translate(219.000000, 9125.000000) translate(546.000000, 696.000000)"/>
                    <path fill="#FF654F" d="M207 95.999c-3.202-.703-6.55-1.076-10-1.076-3.449 0-6.798.373-10 1.077 5.26-9.327 10-15 10-15s4.74 5.673 10 14.999M220 157.634c-.221 2.689-.538 5.072-.94 7.328-14.718-6.496-29.287-6.484-44.119.038-.402-2.256-.718-4.64-.941-7.326 15.353-6.22 30.747-6.231 46-.04M218 170.52c-.565 2.061-1.214 4.15-1.933 6.443-12.713-4.435-25.338-4.421-38.134.037-.72-2.295-1.368-4.383-1.933-6.442 14.02-4.732 28.063-4.744 42-.037" transform="translate(-773.000000, -9821.000000) translate(219.000000, 9125.000000) translate(546.000000, 696.000000)"/>
                    <path fill="#DCAB28" d="M187 275L207 275 207 201 187 201z" transform="translate(-773.000000, -9821.000000) translate(219.000000, 9125.000000) translate(546.000000, 696.000000)"/>
                    <path fill="#FFCA32" d="M194.437 215.65L191 201h10l-3.44 14.65c-.422 1.8-2.7 1.8-3.123 0M190 275L191 275 191 217 190 217zM198 275L199 275 199 232 198 232zM203 275L204 275 204 211 203 211z" transform="translate(-773.000000, -9821.000000) translate(219.000000, 9125.000000) translate(546.000000, 696.000000)"/>
                    <g>
                        <path fill="#F5BDC8" d="M59.443 19.51l-.189 9.428c.063-.043.126-.092.187-.135 1.887-1.406 3.637-3.125 5.198-5.114 1.327-1.686 2.55-3.565 3.845-5.912.956-1.737 1.894-3.619 3.045-6.101 1.041-2.24 2.001-4.453 2.723-6.133.1-.23.154-.48.16-.739.014-.717-.344-1.395-.933-1.772-.819-.518-1.84-.287-2.326.526-1.36 2.255-2.413 3.96-3.419 5.522-1.367 2.127-2.505 3.79-3.579 5.224-1.36 1.818-2.634 3.277-3.895 4.467-.27.256-.543.5-.817.739" transform="translate(-773.000000, -9821.000000) translate(219.000000, 9125.000000) translate(546.000000, 696.000000) translate(37.000000, 166.000000)"/>
                        <path fill="#155BCD" d="M42.995 35.09c1.975-.438 3.958-.9 5.968-1.522 2.005-.612 4.031-1.352 6.018-2.315 1.984-.96 4.02-1.772 5.755-3.197 1.74-1.421 3.167-3.43 4.487-5.11 1.324-1.678 2.462-3.42 3.512-5.164 1.048-1.748 2.01-3.51 2.921-5.276l-4.602-2.86c-1.077 1.581-2.181 3.121-3.323 4.584-1.14 1.463-2.32 2.854-3.561 4.08-1.24 1.23-2.54 2.29-3.918 3.15-1.377.861-2.837 1.532-4.4 2.057-3.124 1.053-6.652 1.557-10.302 1.88-3.651.32-7.419.466-11.218.573-2.488.08-4.382 2.795-4.127 5.996.254 3.2 2.572 5.585 5.112 5.199 3.852-.594 7.733-1.227 11.678-2.075z" transform="translate(-773.000000, -9821.000000) translate(219.000000, 9125.000000) translate(546.000000, 696.000000) translate(37.000000, 166.000000)"/>
                        <path fill="#6D7DD3" d="M34.468 161.135l15.14.091c-.008-.458-.106-.901-.416-1.26-.355-.415-.936-.634-1.512-.725-.578-.094-1.171-.073-1.756-.103-1.436-.07-2.852-.443-4.1-1.078-.651-.33-1.26-.734-1.965-.968l-4.127.07c-.569.537-.937 1.241-1.118 1.967-.165.655-.187 1.332-.146 2.006M.019 161.15l15.139.076c-.009-.46-.107-.904-.418-1.263-.356-.417-.937-.634-1.513-.728-.578-.091-1.17-.07-1.756-.097-1.436-.07-2.853-.442-4.101-1.078-.652-.332-1.262-.737-1.967-.968l-4.126.076c-.568.539-.936 1.245-1.115 1.973-.164.657-.185 1.336-.143 2.009" transform="translate(-773.000000, -9821.000000) translate(219.000000, 9125.000000) translate(546.000000, 696.000000) translate(37.000000, 166.000000)"/>
                        <path fill="#4443A8" d="M2.41 77.603l14.64.103v.007c.028.774 17.342-4.43 17.616-.331l3.49 29.054c.277 2.303.45 4.623.518 6.944l1.288 43.712-5.25-.035-15.274-62.054-12.822 61.896-5.238.055 1.031-79.351" transform="translate(-773.000000, -9821.000000) translate(219.000000, 9125.000000) translate(546.000000, 696.000000) translate(37.000000, 166.000000)"/>
                        <path fill="#155BCD" d="M1.378 77.58c11.85 3.83 19.613 6.097 33.072-.287l-.158-30.351-.087-9.4c-.002-.448-.025-.892-.068-1.327-.52-5.327-4.037-9.742-8.815-11.701-.648-.267-1.32-.486-2.01-.657-1.527-.38-3.149-.52-4.817-.376-.232.02-.465.045-.695.075-1.21.15-2.38.421-3.5.797-5.538 1.86-9.803 6.32-11.341 11.862-.365 1.31-.575 2.681-.614 4.093l-.012.438-.045 1.662-.06 2.106-.85 33.066" transform="translate(-773.000000, -9821.000000) translate(219.000000, 9125.000000) translate(546.000000, 696.000000) translate(37.000000, 166.000000)"/>
                        <path fill="#F5BDC8" d="M24.804 17.988l-.114 9.932c-2.275 1.38-4.534 1.357-6.776-.07l.114-9.936 6.776.074" transform="translate(-773.000000, -9821.000000) translate(219.000000, 9125.000000) translate(546.000000, 696.000000) translate(37.000000, 166.000000)"/>
                        <path fill="#F5BDC8" d="M27.554 11.487l-.272 6.023c-.106 2.41-1.85 4.348-4.06 4.525-.731.055-1.45-.063-2.107-.336-.152-.062-.301-.135-.446-.215-.09-.048-.179-.097-.266-.152-.836-.526-1.527-1.319-1.954-2.309-.362-.834-.7-1.755-1.023-2.728-.186-.554-.366-1.125-.541-1.706-.78-2.558-.24-5.418 1.493-7.346 1.476-1.644 3.317-2.136 5.547-1.395 2.255.748 3.744 3.078 3.629 5.64" transform="translate(-773.000000, -9821.000000) translate(219.000000, 9125.000000) translate(546.000000, 696.000000) translate(37.000000, 166.000000)"/>
                        <path fill="#1C2B4B" d="M15.696 11.177c-1.639-4.778.99-5.595.99-5.595-.045.012-.075-.616-.07-.672.023-.237.096-.468.205-.679.78-1.534 2.527-1.31 4.038-1.294.849.01 1.547-.208 2.162-.754.644-.568 1.045-1.338 1.78-1.828 1.127-.741 2.765-.24 3.517.745.179.234.314.493.398.77.44 1.449.25 3.26-.792 4.46-.946 1.089-2.634 1.401-4.043 1.556-.467.053-.935.088-1.403.123-2.424.173-3.513-1.695-3.513-1.695.552.511.798 2.165.322 3.197-.475 1.035-.018 2.891-.018 2.891l-.172-.022c-1.095-1.53-2.307-2.07-3.401-1.203" transform="translate(-773.000000, -9821.000000) translate(219.000000, 9125.000000) translate(546.000000, 696.000000) translate(37.000000, 166.000000)"/>
                        <path fill="#F5BDC8" d="M19.292 14.493c-.011 1.142-.946 2.056-2.087 2.043-1.142-.013-2.058-.953-2.047-2.091.012-1.142.946-2.056 2.087-2.043 1.142.013 2.058.953 2.047 2.091M37.206 49.58c.08.006.162.01.242.013 2.476.081 5.007-.166 7.526-.74 2.138-.483 4.293-1.178 6.777-2.195 1.838-.753 3.742-1.628 6.174-2.833 2.2-1.088 4.313-2.209 5.909-3.06.22-.115.409-.273.56-.47.422-.55.49-1.293.18-1.948-.433-.908-1.471-1.364-2.366-1.033-2.492.901-4.396 1.57-6.177 2.154-2.425.8-4.38 1.382-6.15 1.824-2.243.567-4.205.908-6.002 1.05-.384.03-.766.05-1.146.064l-5.527 7.173z" transform="translate(-773.000000, -9821.000000) translate(219.000000, 9125.000000) translate(546.000000, 696.000000) translate(37.000000, 166.000000)"/>
                        <path fill="#155BCD" d="M19.856 45.3c1.877.788 3.778 1.56 5.79 2.223 2.006.663 4.1 1.243 6.292 1.622 2.188.382 4.456.587 6.708.463 2.253-.12 4.548-.253 6.605-.812 2.062-.563 4.282-1.055 6.155-1.826 1.874-.77 3.612-1.326 5.382-2.188L54.365 39.1c-1.801.627-3.6 1.204-5.386 1.7-1.785.492-3.558.908-5.288 1.16-1.732.257-3.415.344-5.045.23-1.632-.11-3.221-.418-4.813-.901-3.178-.962-6.373-2.58-9.563-4.414-3.191-1.837-6.376-3.878-9.565-5.963-2.094-1.36-5.222-.315-6.863 2.343-1.64 2.655-1.111 5.849 1.203 6.998 3.513 1.736 7.073 3.46 10.811 5.048z" transform="translate(-773.000000, -9821.000000) translate(219.000000, 9125.000000) translate(546.000000, 696.000000) translate(37.000000, 166.000000)"/>
                    </g>
                    <path fill="#050F64" d="M366 224.242L364.946 227 363 226.796 364.453 223 366 224.242M358 229.044l-.475 1.956-.147-.061c-.28-.116-.434-.429-.36-.732l.18-.737c.088-.365.465-.565.802-.426M350.95 218l-.95 2.617c1.164.463 1.623 1.383 1.623 1.383.278-.564.546-1.183.786-1.846.242-.67.438-1.328.591-1.954-.913.561-2.05-.2-2.05-.2M357 225.595l4.874 2.324c.417.2.882.017 1.126-.409 0 0-.937-.477-3.83-1.825-.527-.246-1.099-.47-1.676-.685-.152.207-.319.404-.494.595" transform="translate(-773.000000, -9821.000000) translate(219.000000, 9125.000000) translate(546.000000, 696.000000)"/>
                    <path fill="#050F64" d="M358 226l.056.945c.196.018.437.055.69.125.432.121.898.337 1.22.727l1.475.196.043.004c.156.02.304-.058.363-.19l.153-.353-4-1.454" transform="translate(-773.000000, -9821.000000) translate(219.000000, 9125.000000) translate(546.000000, 696.000000)"/>
                    <g>
                        <path fill="#6D7DD3" d="M25.801 173.723c.271-.371.725-.575 1.178-.666.457-.091.926-.087 1.386-.124 1.138-.09 2.249-.444 3.222-1.026.506-.303.978-.667 1.532-.885l3.266-.022c.465.459.77 1.067.93 1.697.148.571.181 1.161.163 1.75l.022.667-11.974.386-.022-.666H25.5c-.004-.404.063-.79.301-1.11" transform="translate(-773.000000, -9821.000000) translate(219.000000, 9125.000000) translate(546.000000, 696.000000) translate(279.000000, 151.000000)"/>
                        <path fill="#4443A8" d="M24.166 120.306L25.99 111l14.51 3.836-3.848 8.483-.551 44.73-.148 2.929-3.083.022-.439-2.595-8.307-45.28h.003l-.01-.048c-.035-.205-.067-.415-.084-.62l-.004-.008c-.067-.734-.018-1.457.137-2.143" transform="translate(-773.000000, -9821.000000) translate(219.000000, 9125.000000) translate(546.000000, 696.000000) translate(279.000000, 151.000000)"/>
                        <path fill="#4443A8" d="M31.562 81.72c.712-4.875 25.74-1.23 25.74-1.23 3.97 4.988 4.014 13.558 4.184 22.361.066 3.37-3.468 21.814-3.83 24.966H45.49l-2.33-14.587c-.353.773-6.057 9.039-6.426 9.778L25.99 111" transform="translate(-773.000000, -9821.000000) translate(219.000000, 9125.000000) translate(546.000000, 696.000000) translate(279.000000, 151.000000)"/>
                        <path fill="#6D7DD3" d="M46.531 174.461c.457-.08.93-.062 1.39-.085 1.138-.061 2.26-.404 3.249-.99.516-.3 1.003-.674 1.56-.886l3.267.077c.446.497.736 1.152.878 1.822.13.61.144 1.233.107 1.857l.004.705-11.982.039-.004-.705c.007-.424.085-.836.33-1.167.287-.382.744-.582 1.201-.667z" transform="translate(-773.000000, -9821.000000) translate(219.000000, 9125.000000) translate(546.000000, 696.000000) translate(279.000000, 151.000000)"/>
                        <path fill="#4443A8" d="M43.5 114.872L58.5 112.5 55.485 172.5 52.352 172.426 43.5 114.872" transform="translate(-773.000000, -9821.000000) translate(219.000000, 9125.000000) translate(546.000000, 696.000000) translate(279.000000, 151.000000)"/>
                        <path fill="#050F64" d="M43.5 35.824s6.764 2.23 7.5-9.18c0 0-2.432-2.515-2.611-2.642-.179-.13-4.023 7.07-4.023 7.07l-.866 4.752" transform="translate(-773.000000, -9821.000000) translate(219.000000, 9125.000000) translate(546.000000, 696.000000) translate(279.000000, 151.000000)"/>
                        <path fill="#F5BDC8" d="M2.806.055c.872-.21 1.744.202 1.995.934l.567 1.62.594 1.61c.384 1.079.818 2.135 1.226 3.194.86 2.105 1.74 4.195 2.733 6.2.99 2.006 2.055 3.948 3.239 5.762 1.187 1.818 2.493 3.496 3.94 5.004 1.45 1.513 3.03 2.867 4.78 4.118 1.74 1.254 3.624 2.428 5.592 3.594 1.964 1.163 4.012 2.326 6.07 3.518 2.064 1.196 4.146 2.414 6.213 3.683 1.29.835 2.055 2.152 2.211 3.584.164 1.431-.266 2.958-1.302 4.238-1.035 1.285-2.462 2.065-3.897 2.307-1.431.236-2.89-.051-4.02-.956-1.755-1.468-3.551-2.907-5.378-4.357-1.827-1.45-3.696-2.899-5.58-4.426-1.884-1.527-3.791-3.139-5.622-4.92-1.835-1.77-3.56-3.749-5.04-5.857-1.484-2.105-2.721-4.33-3.75-6.579-1.027-2.255-1.857-4.537-2.58-6.814-.723-2.281-1.302-4.57-1.85-6.855-.255-1.144-.529-2.285-.75-3.43l-.35-1.714L1.524 1.8C1.375 1.026 1.939.264 2.806.055" transform="translate(-773.000000, -9821.000000) translate(219.000000, 9125.000000) translate(546.000000, 696.000000) translate(279.000000, 151.000000)"/>
                        <path fill="#155BCD" d="M21 41.504l10.021 7.928c3.03 2.4 7.272 2.058 9.564-1.12 2.287-3.175 1.758-7.984-1.272-10.38L29.288 30 21 41.504" transform="translate(-773.000000, -9821.000000) translate(219.000000, 9125.000000) translate(546.000000, 696.000000) translate(279.000000, 151.000000)"/>
                        <path fill="#155BCD" d="M47.35 34.533c-9.959-.633-18.148 7.83-17.288 17.878l2.151 28.278c6.955 3.148 16.7 1.6 25.09-.199l2.559-30.41c1.116-7.878-4.652-15.044-12.511-15.547" transform="translate(-773.000000, -9821.000000) translate(219.000000, 9125.000000) translate(546.000000, 696.000000) translate(279.000000, 151.000000)"/>
                        <path fill="#F5BDC8" d="M42 31.942l.293 7.69c1.985 1.29 3.888 1.142 5.707-.441l-.293-7.691-5.707.442" transform="translate(-773.000000, -9821.000000) translate(219.000000, 9125.000000) translate(546.000000, 696.000000) translate(279.000000, 151.000000)"/>
                        <path fill="#EA8096" d="M42 33.353l.147 2.015c.919.423 1.954.652 3.04.63.06 0 .12-.002.18-.005 1.016-.064 1.968-.474 2.633-1.135L47.86 33l-5.86.353" transform="translate(-773.000000, -9821.000000) translate(219.000000, 9125.000000) translate(546.000000, 696.000000) translate(279.000000, 151.000000)"/>
                        <path fill="#F5BDC8" d="M37.5 27.054l.648 2.319.435 1.273c.303 3.084 2.869 5.41 5.905 5.353.3-.007.606-.057.906-.15.115-.039.226-.078.34-.127l.07-.032c.422-.196.808-.488 1.118-.865.676-.825 1.097-1.71 1.477-2.628.33-.8.626-1.587.828-2.387.24-.95.345-1.917.22-2.941L49.102 21l-9.029 2.074-2.573 3.98" transform="translate(-773.000000, -9821.000000) translate(219.000000, 9125.000000) translate(546.000000, 696.000000) translate(279.000000, 151.000000)"/>
                        <path fill="#1C2B4B" d="M37.436 24.857s.1-2.125 1.239-4.227c.98-1.81 4.563-4.077 7.678-2.215.103-1.091.641-2.114 1.57-2.765 1.718-1.203 4.114-.688 5.352 1.151 1.239 1.84.852 4.306-.866 5.51-.52.361-1.102.568-1.696.628.037.098.078.203.11.312.546 1.666.834 5.187-1.168 6.41-.67.41-2.292-.091-2.392-2.367-.007-.127.302-3.847-.125-4.889-.262.402-1.088 1.177-3.461.748-1.187-.21-2.182-.146-3.012.132-1.279 1.072-2.17 2.25-3.14 3.216-.951.948-.343 1.895.298 2.798.951 1.335.033 3.212-1.028 3.701 0 0 1.75-1.81-.078-3.494-1.43-1.32-.475-4.36.72-4.649" transform="translate(-773.000000, -9821.000000) translate(219.000000, 9125.000000) translate(546.000000, 696.000000) translate(279.000000, 151.000000)"/>
                        <path fill="#F5BDC8" d="M48.005 27.9c.084 1.237 1.157 2.176 2.398 2.095 1.237-.084 2.176-1.157 2.092-2.398-.081-1.237-1.154-2.176-2.395-2.092-1.237.081-2.176 1.154-2.095 2.395M.573 27.472c.648-.591 1.588-.632 2.15-.094l1.263 1.19 1.274 1.166c.84.786 1.714 1.53 2.569 2.293 1.74 1.484 3.487 2.946 5.29 4.281 1.803 1.335 3.639 2.58 5.52 3.654 1.88 1.077 3.797 1.97 5.756 2.651 1.962.681 3.96 1.16 6.056 1.466 2.088.314 4.257.49 6.5.621 2.24.13 4.543.217 6.879.33 2.332.111 4.698.235 7.074.41 1.503.15 2.784.973 3.602 2.184.818 1.205 1.181 2.771.9 4.402-.278 1.627-1.13 2.992-2.244 3.874-1.114.875-2.498 1.294-3.901 1.014-2.2-.502-4.424-.954-6.679-1.403-2.258-.449-4.546-.882-6.889-1.372-2.343-.494-4.742-1.051-7.16-1.791-2.413-.737-4.83-1.71-7.103-2.906-2.273-1.197-4.395-2.614-6.346-4.151-1.95-1.54-3.746-3.197-5.452-4.903C7.925 38.68 6.34 36.9 4.786 35.112c-.763-.909-1.537-1.803-2.273-2.726l-1.114-1.373L.306 29.63c-.496-.625-.377-1.571.267-2.158" transform="translate(-773.000000, -9821.000000) translate(219.000000, 9125.000000) translate(546.000000, 696.000000) translate(279.000000, 151.000000)"/>
                        <path fill="#155BCD" d="M48.267 56.905c3.863.616 8.614.32 9.214-3.649.6-3.965-3.177-10.101-7.04-10.717L37.675 40.5 35.5 54.866l12.767 2.039z" transform="translate(-773.000000, -9821.000000) translate(219.000000, 9125.000000) translate(546.000000, 696.000000) translate(279.000000, 151.000000)"/>
                    </g>
                    <path fill="#050F64" d="M324.999 265L325.001 265 324.999 265" transform="translate(-773.000000, -9821.000000) translate(219.000000, 9125.000000) translate(546.000000, 696.000000)"/>
                    <path fill="#637BFB" d="M215 270.001c0 17.12-13.88 30.999-31 30.999-17.121 0-31-13.879-31-30.999C153 252.88 166.879 239 184 239c17.12 0 31 13.879 31 31.001" transform="translate(-773.000000, -9821.000000) translate(219.000000, 9125.000000) translate(546.000000, 696.000000)"/>
                    <path fill="#637BFB" d="M177 278c0 17.12-13.88 31-31 31-17.12 0-31-13.88-31-31 0-17.12 13.88-31 31-31 17.12 0 31 13.88 31 31" transform="translate(-773.000000, -9821.000000) translate(219.000000, 9125.000000) translate(546.000000, 696.000000)"/>
                    <path fill="#637BFB" d="M191 309.428c0 3.273-.494 6.426-1.41 9.394-1.073 3.486-2.732 6.71-4.857 9.554-.963 1.29-2.02 2.5-3.162 3.624h-43.142c-5.815-5.713-9.429-13.713-9.429-22.572 0-1.546.111-3.065.323-4.552 1.025-7.154 4.426-13.528 9.365-18.27 4.063-3.901 9.168-6.7 14.845-7.92 2.086-.45 4.248-.686 6.467-.686 5.887 0 11.389 1.664 16.079 4.552 2.952 1.82 5.583 4.129 7.783 6.814 2.006 2.447 3.65 5.21 4.855 8.203.365.908.69 1.84.97 2.788.854 2.873 1.313 5.918 1.313 9.071" transform="translate(-773.000000, -9821.000000) translate(219.000000, 9125.000000) translate(546.000000, 696.000000)"/>
                    <path fill="#637BFB" d="M152 312.516c0 7.356-2.478 14.124-6.635 19.484h-48.73C92.478 326.64 90 319.872 90 312.516c0-15.107 10.458-27.734 24.414-30.8 2.123-.47 4.325-.716 6.586-.716 6.48 0 12.495 2.023 17.469 5.478 7.182 4.989 12.193 12.97 13.299 22.174.153 1.267.232 2.557.232 3.864M245 299c0 17.12-13.88 31-31 31-17.12 0-31-13.88-31-31 0-17.123 13.88-31 31-31 17.12 0 31 13.877 31 31" transform="translate(-773.000000, -9821.000000) translate(219.000000, 9125.000000) translate(546.000000, 696.000000)"/>
                    <path fill="#637BFB" d="M273 272c0 17.123-13.88 31-31 31-17.12 0-31-13.877-31-31 0-17.12 13.88-31 31-31 17.12 0 31 13.88 31 31" transform="translate(-773.000000, -9821.000000) translate(219.000000, 9125.000000) translate(546.000000, 696.000000)"/>
                    <path fill="#637BFB" d="M304 297c0 17.12-13.88 31-31 31-17.12 0-31-13.88-31-31 0-17.12 13.88-31 31-31 17.12 0 31 13.88 31 31" transform="translate(-773.000000, -9821.000000) translate(219.000000, 9125.000000) translate(546.000000, 696.000000)"/>
                    <path fill="#637BFB" d="M287 316.818c0 2.856-.39 5.622-1.123 8.245-.681 2.449-1.659 4.775-2.893 6.937h-53.968c-.834-1.462-1.553-3.001-2.143-4.603-1.211-3.298-1.873-6.861-1.873-10.579 0-5.433 1.414-10.537 3.895-14.971 1.604-2.859 3.65-5.44 6.05-7.649 2.152-1.98 4.586-3.66 7.237-4.976.277-.135.553-.268.834-.398 3.95-1.813 8.348-2.824 12.984-2.824 4.559 0 8.886.98 12.784 2.734C279.528 293.575 287 304.33 287 316.818" transform="translate(-773.000000, -9821.000000) translate(219.000000, 9125.000000) translate(546.000000, 696.000000)"/>
                    <path fill="#637BFB" d="M245 316.818c0 5.521-1.459 10.701-4.016 15.182h-53.968c-.652-1.141-1.232-2.326-1.735-3.553-1.469-3.588-2.281-7.514-2.281-11.629 0-3.023.437-5.946 1.256-8.706.692-2.344 1.66-4.574 2.859-6.65.651-1.122 1.37-2.196 2.15-3.225 5.028-6.6 12.665-11.13 21.388-12.058h.002c.882-.096 1.775-.152 2.679-.172.222-.005.444-.007.666-.007 8.128 0 15.528 3.111 21.055 8.198 2.678 2.464 4.915 5.391 6.586 8.653.288.564.562 1.14.814 1.725.501 1.143.933 2.323 1.289 3.536.323 1.084.585 2.191.785 3.322.31 1.747.471 3.549.471 5.384" transform="translate(-773.000000, -9821.000000) translate(219.000000, 9125.000000) translate(546.000000, 696.000000)"/>
                    <path fill="#4339A4" d="M26.5 332h332c1.38 0 2.5-1.12 2.5-2.5s-1.12-2.5-2.5-2.5h-332c-1.38 0-2.5 1.12-2.5 2.5s1.12 2.5 2.5 2.5z" transform="translate(-773.000000, -9821.000000) translate(219.000000, 9125.000000) translate(546.000000, 696.000000)"/>
                    <path fill="#02D8FB" d="M58.497 147c-5.245 0-9.497-4.25-9.497-9.503 0-5.245 4.252-9.497 9.497-9.497 5.251 0 9.503 4.252 9.503 9.497 0 5.252-4.252 9.503-9.503 9.503zM83 131.92l-2.987-7.23-7.122 1.923c-.986-1.292-2.14-2.458-3.456-3.474l1.94-7.116-7.224-3.005-3.672 6.4c-1.647-.221-3.293-.221-4.898-.011L51.92 113l-7.231 2.987 1.923 7.122c-1.292.986-2.458 2.14-3.474 3.456l-7.116-1.941-3.005 7.224 6.4 3.672c-.222 1.647-.222 3.295-.005 4.9L33 144.079l2.987 7.23 7.122-1.923c.986 1.292 2.14 2.458 3.456 3.468l-1.941 7.123 7.224 2.999 3.673-6.396c1.647.223 3.293.217 4.898.006L64.08 163l7.23-2.989-1.923-7.12c1.293-.986 2.459-2.14 3.468-3.457l7.123 1.94 3.005-7.222-6.4-3.674c.221-1.645.221-3.293.005-4.898L83 131.92z" transform="translate(-773.000000, -9821.000000) translate(219.000000, 9125.000000) translate(546.000000, 696.000000)"/>
                    <path fill="#02D8FB" d="M92.503 116.725c-3.989 1.107-8.12-1.229-9.228-5.222-1.107-3.99 1.229-8.12 5.218-9.227 3.993-1.109 8.124 1.227 9.231 5.216 1.11 3.994-1.227 8.124-5.22 9.233zm15.903-17.223l-3.835-4.918-5.061 2.996c-1.033-.782-2.168-1.432-3.395-1.931l-.026-5.88-6.19-.769-1.456 5.7c-1.312.18-2.577.531-3.765 1.035L80.5 91.594l-4.916 3.836 2.996 5.061c-.783 1.033-1.433 2.168-1.932 3.396l-5.88.026-.768 6.19 5.7 1.456c.18 1.313.53 2.578 1.04 3.765l-4.146 4.179 3.836 4.917 5.06-2.996c1.033.783 2.168 1.432 3.394 1.927l.027 5.885L91.1 130l1.457-5.696c1.313-.18 2.576-.536 3.764-1.04l4.179 4.147 4.916-3.837-2.995-5.06c.782-1.033 1.432-2.169 1.926-3.395l5.885-.027.768-6.19-5.7-1.457c-.18-1.312-.53-2.578-1.04-3.764l4.146-4.18z" transform="translate(-773.000000, -9821.000000) translate(219.000000, 9125.000000) translate(546.000000, 696.000000)"/>
                    <path fill="#84A9FF" d="M366 35c0 18.778-15.221 34-33.999 34C313.224 69 298 53.778 298 35s15.224-34 34.001-34C350.78 1 366 16.222 366 35" transform="translate(-773.000000, -9821.000000) translate(219.000000, 9125.000000) translate(546.000000, 696.000000)"/>
                    <path fill="#155BCD" d="M298.547 37.95c-.125.006-.244.047-.35.12-.126.086-.256.177-.378.266l-.118.081c-5.799 4.112-12.303 10.058-10.346 15.03C288.55 56.468 292.364 58 298.692 58c.982 0 2.025-.036 3.12-.111 1.095-.073 2.245-.182 3.44-.33l.595-.075c.14-.018.277-.036.417-.057 8.954-1.209 20.043-4.259 31.285-8.602 11.241-4.348 21.485-9.542 28.9-14.656.115-.077.227-.154.342-.234.125-.089.254-.177.376-.266l.118-.084c8.438-5.982 11.92-11.039 10.348-15.028-1.192-3.023-5.01-4.557-11.343-4.557-1.958 0-4.163.148-6.55.441l-.04.005c-.187.022-.38.047-.569.075-.125.018-.24.065-.332.143v.002l2.7 3.752c1.783-.183 3.426-.28 4.89-.28 4.857 0 6.99 1.037 7.34 1.926.415 1.048-.792 4.198-7.866 9.417-.092.068-.185.133-.277.202-.24.177-.481.352-.736.531-7.208 5.112-17.444 10.349-28.823 14.745-11.366 4.395-22.48 7.41-31.29 8.486-.309.039-.613.073-.915.105-.112.011-.222.025-.332.034-1.778.186-3.422.28-4.888.28-4.859 0-6.994-1.04-7.346-1.928-.411-1.048.801-4.2 7.87-9.412l-.579-4.575" transform="translate(-773.000000, -9821.000000) translate(219.000000, 9125.000000) translate(546.000000, 696.000000)"/>
                    <path fill="#FFF" d="M341.64 20.743c.972 2.287-.095 4.928-2.382 5.899-2.288.97-4.929-.098-5.9-2.385-.97-2.287.098-4.928 2.385-5.899 2.288-.97 4.929.098 5.898 2.385M349.761 17.829c.647 1.525-.065 3.285-1.59 3.932-1.524.647-3.285-.065-3.932-1.59-.647-1.525.065-3.285 1.59-3.932 1.524-.647 3.285.065 3.932 1.59M342.721 11.134c.755 1.779-.076 3.833-1.854 4.587-1.78.755-3.834-.076-4.588-1.854-.755-1.78.076-3.834 1.854-4.588 1.78-.755 3.834.075 4.588 1.855" transform="translate(-773.000000, -9821.000000) translate(219.000000, 9125.000000) translate(546.000000, 696.000000)"/>
                    <path fill="#4443A8" d="M274.884 18c.076-.447.116-.907.116-1.377 0-4.419-3.564-8-7.96-8-.19 0-.38.006-.568.02.017-.212.027-.426.027-.642 0-4.419-3.564-8.001-7.962-8.001-3.018 0-5.645 1.69-6.995 4.18-1.135.028-2.21.297-3.179.755-1.028-.486-2.175-.759-3.386-.759-4.173 0-7.596 3.226-7.935 7.331-.96-.412-2.017-.641-3.127-.641-4.106 0-7.485 3.123-7.915 7.134h48.884M86.504 77c.319-.75.496-1.576.496-2.445 0-3.405-2.712-6.165-6.058-6.165-.887 0-1.728.196-2.488.544.193-.683.299-1.404.299-2.15 0-4.29-3.419-7.77-7.636-7.77-1.314 0-2.55.338-3.63.933C66.105 55.346 61.9 52 56.925 52c-6.1 0-11.046 5.033-11.046 11.24 0 .307.015.61.039.909-.27-.037-.544-.058-.823-.058-3.346 0-6.058 2.76-6.058 6.164 0 .373.034.737.096 1.09l-.096-.002c-3.178 0-5.782 2.49-6.036 5.657h53.504M351.732 128.817c-2.37 0-4.585.686-6.461 1.875-1.532-2.8-4.466-4.692-7.835-4.692-4.225 0-7.77 2.976-8.716 6.985-2.033-3.25-5.604-5.404-9.666-5.404-6.216 0-11.277 5.04-11.455 11.326-3.319 1.671-5.599 5.153-5.599 9.18 0 .307.012.61.04.913h59.368c1.623-2.12 2.592-4.789 2.592-7.685 0-6.902-5.492-12.498-12.268-12.498" transform="translate(-773.000000, -9821.000000) translate(219.000000, 9125.000000) translate(546.000000, 696.000000)"/>
                </g>
            </g>
        </g>
    </g>
</svg>
