<svg xmlns="http://www.w3.org/2000/svg" width="487.781" height="464.601" viewBox="0 0 487.781 464.601">
  <g id="Component_99_1" data-name="Component 99 – 1" transform="translate(0)">
    <path id="Path_1485" data-name="Path 1485" d="M295.184,266.473c-171.845-23.6-133.6,207.032-23.9,287.171s263.593,56.179,343.732-53.52,66.275-279.662-53.522-343.732C403.111,71.685,429.774,284.954,295.184,266.473Z" transform="translate(-177.587 -136.417)" fill="#e8ecd6"/>
    <rect id="Rectangle_1389" data-name="Rectangle 1389" width="167.13" height="118.953" rx="2.363" transform="translate(87.338 139.869)" fill="#fff"/>
    <line id="Line_17" data-name="Line 17" x2="178.222" transform="translate(81.157 179.623)" fill="none" stroke="#fdeeea" stroke-miterlimit="10" stroke-width="1.96"/>
    <line id="Line_18" data-name="Line 18" x2="178.222" transform="translate(81.157 216.832)" fill="none" stroke="#fdeeea" stroke-miterlimit="10" stroke-width="1.96"/>
    <circle id="Ellipse_38" data-name="Ellipse 38" cx="10.113" cy="10.113" r="10.113" transform="translate(105.053 152.271)" fill="#7dc4a6"/>
    <circle id="Ellipse_39" data-name="Ellipse 39" cx="10.113" cy="10.113" r="10.113" transform="translate(103.057 205.746) rotate(-77.162)" fill="#7dc4a6"/>
    <circle id="Ellipse_40" data-name="Ellipse 40" cx="10.113" cy="10.113" r="10.113" transform="translate(105.053 225.118)" fill="#7dc4a6"/>
    <g id="Group_940" data-name="Group 940" transform="translate(131.393 158.007)">
      <line id="Line_19" data-name="Line 19" x2="90.401" transform="translate(0 0)" fill="none" stroke="#dedede" stroke-linecap="round" stroke-linejoin="round" stroke-width="0.98"/>
      <line id="Line_20" data-name="Line 20" x2="13.41" transform="translate(0 7.074)" fill="none" stroke="#dedede" stroke-linecap="round" stroke-linejoin="round" stroke-width="0.98"/>
    </g>
    <g id="Group_941" data-name="Group 941" transform="translate(131.393 194.131)">
      <line id="Line_21" data-name="Line 21" x2="90.401" transform="translate(0)" fill="none" stroke="#dedede" stroke-linecap="round" stroke-linejoin="round" stroke-width="0.98"/>
      <line id="Line_22" data-name="Line 22" x2="47.911" transform="translate(0 7.074)" fill="none" stroke="#dedede" stroke-linecap="round" stroke-linejoin="round" stroke-width="0.98"/>
    </g>
    <g id="Group_942" data-name="Group 942" transform="translate(131.393 231.604)">
      <line id="Line_23" data-name="Line 23" x2="19.754" transform="translate(0)" fill="none" stroke="#dedede" stroke-linecap="round" stroke-linejoin="round" stroke-width="0.98"/>
      <line id="Line_24" data-name="Line 24" x2="90.401" transform="translate(0 7.074)" fill="none" stroke="#dedede" stroke-linecap="round" stroke-linejoin="round" stroke-width="0.98"/>
    </g>
    <path id="Path_1186" data-name="Path 1186" d="M100.163,282.115l2.867,1.955,5.244-6.04" transform="translate(10.946 -118.667)" fill="none" stroke="#fff" stroke-linecap="round" stroke-linejoin="round" stroke-width="1.22"/>
    <path id="Path_1187" data-name="Path 1187" d="M100.163,308.025l2.867,1.955,5.244-6.04" transform="translate(10.946 -108.913)" fill="none" stroke="#fff" stroke-linecap="round" stroke-linejoin="round" stroke-width="1.22"/>
    <path id="Path_1188" data-name="Path 1188" d="M100.163,335.04l2.867,1.955,5.244-6.04" transform="translate(10.946 -98.744)" fill="none" stroke="#fff" stroke-linecap="round" stroke-linejoin="round" stroke-width="1.22"/>
    <g id="Group_949" data-name="Group 949" transform="translate(310.23 243.991)">
      <path id="Path_1194" data-name="Path 1194" d="M244.828,413.831h31.1c17.478,0,29.7-11.272,32.606-28.506l7.715-45.812" transform="translate(-244.828 -339.513)" fill="none" stroke="#3d4642" stroke-linecap="round" stroke-linejoin="round" stroke-width="5.463"/>
      <path id="Path_1195" data-name="Path 1195" d="M245.085,463.662l13.954-64.674a16.2,16.2,0,0,1,15.821-12.714h0a16.2,16.2,0,0,1,15.883,13.01l12.663,64.378" transform="translate(-244.731 -321.911)" fill="none" stroke="#fff" stroke-miterlimit="10" stroke-width="1.879"/>
    </g>
    <g id="Group_968" data-name="Group 968" transform="translate(227.769 176.804)">
      <g id="Group_958" data-name="Group 958" transform="translate(0 109.368)">
        <g id="Group_953" data-name="Group 953" transform="translate(0 1.069)">
          <g id="Group_951" data-name="Group 951" transform="translate(0 65.716)">
            <path id="Path_1196" data-name="Path 1196" d="M199.72,442.183l7.209-22.9,11.467-.609L211.2,443.248l-11.059.07Z" transform="translate(-179.348 -418.679)" fill="#ffbd9a"/>
            <g id="Group_950" data-name="Group 950" transform="translate(0 17.575)">
              <path id="Path_1197" data-name="Path 1197" d="M218.377,433.695s-9.482,3.9-13.936-2.248l-19.522,11.859,36.4-.234Z" transform="translate(-184.919 -431.447)" fill="#4faf86"/>
              <rect id="Rectangle_1390" data-name="Rectangle 1390" width="36.398" height="3.352" transform="translate(0.001 11.86) rotate(-0.369)" fill="#fff"/>
              <path id="Path_1198" data-name="Path 1198" d="M200.247,436.377a.65.65,0,0,1-.267-.2,13.332,13.332,0,0,0-3-2.926.592.592,0,0,1-.176-.848.669.669,0,0,1,.889-.171,14.285,14.285,0,0,1,3.33,3.225.592.592,0,0,1-.143.855A.667.667,0,0,1,200.247,436.377Z" transform="translate(-180.487 -431.19)" fill="#fff"/>
              <path id="Path_1199" data-name="Path 1199" d="M197.97,437.515a.633.633,0,0,1-.266-.2,13.317,13.317,0,0,0-3-2.926.593.593,0,0,1-.178-.848.666.666,0,0,1,.889-.171,14.182,14.182,0,0,1,3.33,3.225.593.593,0,0,1-.142.855A.674.674,0,0,1,197.97,437.515Z" transform="translate(-181.343 -430.761)" fill="#fff"/>
              <path id="Path_1200" data-name="Path 1200" d="M195.694,438.653a.632.632,0,0,1-.266-.2,13.274,13.274,0,0,0-3-2.924.6.6,0,0,1-.178-.849.668.668,0,0,1,.891-.171,14.313,14.313,0,0,1,3.33,3.225.593.593,0,0,1-.143.855A.673.673,0,0,1,195.694,438.653Z" transform="translate(-182.2 -430.333)" fill="#fff"/>
            </g>
          </g>
          <g id="Group_952" data-name="Group 952" transform="translate(17.491)">
            <path id="Path_1201" data-name="Path 1201" d="M240.134,370.935l-9.967.633a16.54,16.54,0,0,0-14.882,12.062l-15.618,60.157,21.642-2.014,17.449-52.844Z" transform="translate(-196.858 -370.935)" fill="#8eb44a"/>
            <path id="Path_1202" data-name="Path 1202" d="M223.764,428.536H197.626l1.812-9.636h26.137Z" transform="translate(-197.626 -352.88)" fill="#8eb44a"/>
          </g>
        </g>
        <g id="Group_957" data-name="Group 957" transform="translate(41.801)">
          <g id="Group_955" data-name="Group 955" transform="translate(0 67.09)">
            <path id="Path_1203" data-name="Path 1203" d="M230.089,442.1l.333-22.591,11.467-.609-.316,24.265-11.06.07Z" transform="translate(-209.717 -418.9)" fill="#ffbd9a"/>
            <g id="Group_954" data-name="Group 954" transform="translate(0 17.27)">
              <path id="Path_1204" data-name="Path 1204" d="M248.746,433.695s-9.482,3.9-13.936-2.248l-19.522,11.859,36.4-.234Z" transform="translate(-215.288 -431.447)" fill="#4faf86"/>
              <rect id="Rectangle_1391" data-name="Rectangle 1391" width="36.398" height="3.352" transform="matrix(1, -0.006, 0.006, 1, 0.001, 11.86)" fill="#fff"/>
              <path id="Path_1205" data-name="Path 1205" d="M230.616,436.377a.65.65,0,0,1-.267-.2,13.377,13.377,0,0,0-3-2.926.592.592,0,0,1-.178-.848.669.669,0,0,1,.889-.171,14.254,14.254,0,0,1,3.33,3.225.593.593,0,0,1-.142.855A.67.67,0,0,1,230.616,436.377Z" transform="translate(-210.856 -431.19)" fill="#fff"/>
              <path id="Path_1206" data-name="Path 1206" d="M228.339,437.515a.633.633,0,0,1-.266-.2,13.284,13.284,0,0,0-3-2.926.594.594,0,0,1-.178-.848.668.668,0,0,1,.891-.171,14.221,14.221,0,0,1,3.328,3.225.593.593,0,0,1-.142.855A.673.673,0,0,1,228.339,437.515Z" transform="translate(-211.712 -430.761)" fill="#fff"/>
              <path id="Path_1207" data-name="Path 1207" d="M226.063,438.653a.632.632,0,0,1-.266-.2,13.273,13.273,0,0,0-3-2.924.6.6,0,0,1-.178-.849.668.668,0,0,1,.891-.171,14.313,14.313,0,0,1,3.33,3.225.593.593,0,0,1-.143.855A.673.673,0,0,1,226.063,438.653Z" transform="translate(-212.569 -430.333)" fill="#fff"/>
            </g>
          </g>
          <g id="Group_956" data-name="Group 956" transform="translate(12.168)">
            <path id="Path_1208" data-name="Path 1208" d="M291.911,370.158,260.732,371.4l-23.282.476c-6.8,0-12.333,4.1-12.435,10.893-.311,20.891,1.3,64.31,2.288,64.113,1.326-.264,20.411,0,20.411,0l1.939-47.439,14.954,1.627c3.686.03,14.457.727,17.744-.94C289.155,396.685,297.839,388.61,291.911,370.158Z" transform="translate(-223.809 -370.158)" fill="#8eb44a"/>
            <rect id="Rectangle_1392" data-name="Rectangle 1392" width="26.137" height="9.636" transform="translate(0 67.09)" fill="#8eb44a"/>
            <line id="Line_25" data-name="Line 25" x1="0.363" y1="10.625" transform="translate(25.481 18.663)" fill="none" stroke="#55382c" stroke-miterlimit="10" stroke-width="0.844"/>
          </g>
        </g>
      </g>
      <g id="Group_963" data-name="Group 963" transform="translate(1.702 45.41)">
        <g id="Group_959" data-name="Group 959" transform="translate(0 10.707)">
          <path id="Path_1209" data-name="Path 1209" d="M216.063,345.008l-12.53-6.266s-10.224-.754-16.436.6a1.178,1.178,0,0,0-.908,1.427h0a1.17,1.17,0,0,0,1.266.891l5.737-.628-3.089,2.1a1.312,1.312,0,0,0,.169,2.268h0a1.3,1.3,0,0,0,1.192-.026c1.715-.95,7.109-3.422,12.367-.464l-4.906,2.2a1.555,1.555,0,0,0-.513,2.465h0a1.557,1.557,0,0,0,1.352.5l4.564-.592s5.369,2.187,10.341-.2Z" transform="translate(-186.156 -328.813)" fill="#ffc9bd"/>
          <path id="Path_1210" data-name="Path 1210" d="M249.946,331.471c-3.968,9.72-9.645,29.08-9.645,29.08l-31.361-14.77-4.147,10.766L231.4,374.713l29.1-1.214,2.157-22.761Z" transform="translate(-179.14 -331.471)" fill="#4bcc96"/>
        </g>
        <g id="Group_960" data-name="Group 960" transform="translate(68.922)">
          <path id="Path_1211" data-name="Path 1211" d="M243.349,328.061a16.03,16.03,0,0,0-5.236,6.339l-1.884,54.319s33.339,7.021,51.445-1.07c0,0-.511-45.492-10.823-57.533,0,0-3.25-6.394-19.781-6.424A22.673,22.673,0,0,0,243.349,328.061Z" transform="translate(-236.229 -323.692)" fill="#4bcc96"/>
          <line id="Line_26" data-name="Line 26" x2="2.405" y2="38.14" transform="translate(4.189 20.428)" fill="none" stroke="#4faf86" stroke-miterlimit="10" stroke-width="0.735"/>
        </g>
        <g id="Group_962" data-name="Group 962" transform="translate(27.001 9.009)">
          <path id="Path_1212" data-name="Path 1212" d="M219.645,365.93l-.457-9.364s-3.357-7.01-6.418-7.109a9.947,9.947,0,0,0-6.582,3.049,1.477,1.477,0,0,0,.388,2.343,13.6,13.6,0,0,1,4.812,3.693s-1.481,7.554,1.019,10.663c1.272,1.581,8.755,3.357,8.755,3.357Z" transform="translate(-205.773 -323.003)" fill="#ffc9bd"/>
          <g id="Group_961" data-name="Group 961" transform="translate(13.602)">
            <path id="Path_1213" data-name="Path 1213" d="M266.843,330.237l-6.009,38.082-45.179,1.957v15.979l48.585-1.175a5.246,5.246,0,0,0,4.27-1.528l.493.233s13.159.222,16.856-44.705Z" transform="translate(-215.655 -330.237)" fill="#4bcc96"/>
            <path id="Path_1214" data-name="Path 1214" d="M218.714,368.146l40.981-1.851,4.874-30.884" transform="translate(-214.504 -328.29)" fill="none" stroke="#4faf86" stroke-miterlimit="10" stroke-width="0.735"/>
            <line id="Line_27" data-name="Line 27" x2="6.254" y2="1.851" transform="translate(45.191 38.005)" fill="none" stroke="#4faf86" stroke-miterlimit="10" stroke-width="0.735"/>
            <path id="Path_1215" data-name="Path 1215" d="M269.963,345.4l-4.557,20.334a24.222,24.222,0,0,1-7.91,13.126l-2.043,1.615" transform="translate(-200.674 -324.529)" fill="none" stroke="#4faf86" stroke-miterlimit="10" stroke-width="0.735"/>
          </g>
        </g>
      </g>
      <g id="Group_967" data-name="Group 967" transform="translate(66 0)">
        <path id="Path_1216" data-name="Path 1216" d="M236.467,299.123s1.127,5.374,0,8.647-4.713,4.812-3.1,13.361-.107,8.751-.5,11.167c0,0,34.325,3.232,51.514-5.584,0,0-2.907-4.988-6.126-10.523s-4.429-14.636-4.429-14.636l-13.163-5.038Z" transform="translate(-232.869 -288.511)" fill="#1a1d1c"/>
        <g id="Group_966" data-name="Group 966" transform="translate(4.588)">
          <path id="Path_1217" data-name="Path 1217" d="M241.421,294.97c-.392-.124,1.134-2.384,1.525-2.509,6.11-1.952,19.163-4.534,25.8,6.2,4.878,7.887-.019,22.719-10.271,27.208-9.766,4.277-8.1-28.1-8.1-28.1Z" transform="translate(-234.262 -290.7)" fill="#1a1d1c"/>
          <path id="Path_1218" data-name="Path 1218" d="M245.857,309.563a4.845,4.845,0,1,1-5.389-4.233A4.843,4.843,0,0,1,245.857,309.563Z" transform="translate(-236.202 -285.206)" fill="#ffb1a7"/>
          <path id="Path_1219" data-name="Path 1219" d="M244.428,319.549l1.2,10.491c.413,3.686,2.906,5.4,6.528,4.966h0c3.094-.372,5.809-2.318,5.822-5.434L255.3,313.153Z" transform="translate(-233.106 -282.249)" fill="#ffc9bd"/>
          <path id="Path_1220" data-name="Path 1220" d="M245.208,325.566c7.361-.639,11.145-11.167,11.145-11.167l-12.029,3.609Z" transform="translate(-233.145 -281.78)" fill="#1a1d1c" opacity="0.6"/>
          <path id="Path_1221" data-name="Path 1221" d="M250.386,328.268h0c-6.217.33-11.6-4.308-12.038-9.376l-.968-11.963a11.819,11.819,0,0,1,10.365-12.758h0c6.48-.779,13.5,3.707,14.28,10.187l.673,9.631C263.22,321.437,258.356,327.66,250.386,328.268Z" transform="translate(-235.776 -289.427)" fill="#ffc9bd"/>
          <path id="Path_1222" data-name="Path 1222" d="M251.844,300.774c-2.952,4.406,1.868,10.662,1.868,10.662l9.108-11.01S253.592,298.163,251.844,300.774Z" transform="translate(-230.675 -287.382)" fill="#1a1d1c"/>
          <g id="Group_964" data-name="Group 964" transform="translate(23.002 18.63)">
            <path id="Path_1223" data-name="Path 1223" d="M262.57,308.5a4.845,4.845,0,1,1-5.389-4.233A4.845,4.845,0,0,1,262.57,308.5Z" transform="translate(-252.914 -304.236)" fill="#ffc9bd"/>
            <path id="Path_1224" data-name="Path 1224" d="M255.342,309.856s-.42-3.488,2.981-3.339" transform="translate(-252.005 -303.378)" fill="none" stroke="#1b172c" stroke-linecap="round" stroke-linejoin="round" stroke-width="0.562"/>
          </g>
          <g id="Group_965" data-name="Group 965" transform="translate(2.536 18.928)">
            <path id="Path_1225" data-name="Path 1225" d="M242.385,310.791l-.093,1.425,1.409,0" transform="translate(-236.447 -302.066)" fill="none" stroke="#1b172c" stroke-linecap="round" stroke-linejoin="round" stroke-width="0.562"/>
            <path id="Path_1226" data-name="Path 1226" d="M248.182,304.456s-2.7-.106-2.684.761c0,0,.028.586,2.377.643s2.955-.095,3.145-.651S249.444,304.43,248.182,304.456Z" transform="translate(-235.24 -304.452)" fill="#793641"/>
            <path id="Path_1227" data-name="Path 1227" d="M240.232,304.72s2.212-.238,2.428.571c0,0,.129.548-1.807.723s-2.578-.006-2.782-.446C237.843,305.07,239.179,304.76,240.232,304.72Z" transform="translate(-238.045 -304.363)" fill="#793641"/>
            <path id="Path_1228" data-name="Path 1228" d="M245.632,308.775s1.2-1.715,3.427-.056" transform="translate(-235.189 -303.118)" fill="none" stroke="#1b172c" stroke-linecap="round" stroke-linejoin="round" stroke-width="0.705"/>
            <path id="Path_1229" data-name="Path 1229" d="M238.937,309.032a1.5,1.5,0,0,1,2.562-.113" transform="translate(-237.71 -303.026)" fill="none" stroke="#1b172c" stroke-linecap="round" stroke-linejoin="round" stroke-width="0.705"/>
            <path id="Path_1230" data-name="Path 1230" d="M243.983,314.058a3.464,3.464,0,0,0,3.331-1.416" transform="translate(-235.81 -301.369)" fill="none" stroke="#1b172c" stroke-linecap="round" stroke-linejoin="round" stroke-width="0.705"/>
          </g>
        </g>
        <path id="Path_1231" data-name="Path 1231" d="M245.493,292.084s-13.274,4.793-10.524,9.788c2.039,3.7,15.4,6,28.089,3.383,0,0,5.791-4.7-1.379-9.579C261.678,295.676,257.83,290.238,245.493,292.084Z" transform="translate(-232.22 -290.324)" fill="#1a1d1c"/>
        <path id="Path_1232" data-name="Path 1232" d="M242.641,326.922A25.114,25.114,0,0,1,252,323.708a49.2,49.2,0,0,1,12.234.91s-.366,5.919-11.576,7.226a16.943,16.943,0,0,1-6.583-.4C243.935,330.837,243.428,329.349,242.641,326.922Z" transform="translate(-229.191 -278.298)" fill="#ffc9bd"/>
      </g>
    </g>
    <g id="Group_971" data-name="Group 971" transform="translate(164.984 238.343)">
      <path id="Path_1233" data-name="Path 1233" d="M225.8,370.191h-38.04V365.9H225.8a2.146,2.146,0,0,1,2.146,2.146h0A2.146,2.146,0,0,1,225.8,370.191Z" transform="translate(-121.065 -323.933)" fill="#3d4642"/>
      <g id="Group_970" data-name="Group 970" transform="translate(0 0)">
        <path id="Path_1234" data-name="Path 1234" d="M211,381.668H156.389a6.465,6.465,0,0,1-6.23-4.732l-10.772-38.7a2.227,2.227,0,0,1,2.146-2.826h55.261a2.658,2.658,0,0,1,2.57,1.982Z" transform="translate(-139.304 -335.41)" fill="#3d4642"/>
        <path id="Path_1235" data-name="Path 1235" d="M169.388,354.165a4.769,4.769,0,1,1-4.768-4.769A4.768,4.768,0,0,1,169.388,354.165Z" transform="translate(-131.57 -330.145)" fill="#fff"/>
      </g>
    </g>
    <g id="Group_972" data-name="Group 972" transform="translate(139.41 284.602)">
      <line id="Line_28" data-name="Line 28" y2="96.047" transform="translate(83.159 5.094)" fill="none" stroke="#55382e" stroke-miterlimit="10" stroke-width="1.147"/>
      <rect id="Rectangle_1393" data-name="Rectangle 1393" width="162.272" height="10.189" transform="translate(0 0)" fill="#fff"/>
    </g>
    <line id="Line_29" data-name="Line 29" x1="340.086" transform="translate(69.221 385.743)" fill="none" stroke="#3d4642" stroke-miterlimit="10" stroke-width="1.147"/>
  </g>
</svg>
