<svg xmlns="http://www.w3.org/2000/svg" xmlns:xlink="http://www.w3.org/1999/xlink" width="143.862" height="61.586" viewBox="0 0 143.862 61.586">
  <defs>
    <clipPath id="clip-path">
      <path id="Path_3976" data-name="Path 3976" d="M272,424H415.862v61.587H272Z" transform="translate(-272 -424)" clip-rule="evenodd"/>
    </clipPath>
  </defs>
  <g id="Enterprise_Resource_Planning_ERP_" data-name="Enterprise Resource Planning (ERP)" clip-path="url(#clip-path)">
    <g id="Group_1995" data-name="Group 1995" clip-path="url(#clip-path)">
      <path id="Path_3935" data-name="Path 3935" d="M448.626,148.46h56.439a2.168,2.168,0,0,1,2.166,2.17v9.194a2.168,2.168,0,0,1-2.166,2.17H448.626a2.168,2.168,0,0,1-2.166-2.17V150.63A2.168,2.168,0,0,1,448.626,148.46Z" transform="translate(-445.936 -141.374)" fill="#f7f8fa" stroke="#3d4642" stroke-linejoin="round" stroke-width="0.4" fill-rule="evenodd"/>
      <path id="Path_3936" data-name="Path 3936" d="M518.824,157.6h21.269a2.2,2.2,0,0,1,0,4.4H518.824a2.2,2.2,0,0,1,0-4.4Z" transform="translate(-482.344 -146.118)" fill="#f7f8fa" stroke="#3d4642" stroke-linejoin="round" stroke-width="0.4" fill-rule="evenodd"/>
      <path id="Path_3937" data-name="Path 3937" stroke="#3d4642" d="M499.788,160.416h4.389" fill="none" transform="translate(-473.606 -147.577)" stroke-linecap="round" stroke-linejoin="round" stroke-width="0.4" fill-rule="evenodd"/>
      <path id="Path_3938" data-name="Path 3938" stroke="#3d4642" d="M499.788,163.932h4.389" fill="none" transform="translate(-473.606 -149.402)" stroke-linecap="round" stroke-linejoin="round" stroke-width="0.4" fill-rule="evenodd"/>
      <path id="Path_3939" data-name="Path 3939" d="M464.375,142l7.99,11.951a.521.521,0,0,1-.433.812H456.058a.522.522,0,0,1-.433-.81L463.512,142a.521.521,0,0,1,.723-.143A.516.516,0,0,1,464.375,142Z" transform="translate(-450.647 -137.904)" fill="#89c19d" stroke="#3d4642" stroke-linejoin="round" stroke-width="0.4" fill-rule="evenodd"/>
      <path id="Path_3940" data-name="Path 3940" d="M448.626,190.656h56.439a2.168,2.168,0,0,1,2.166,2.171v9.193a2.168,2.168,0,0,1-2.166,2.171H448.626a2.168,2.168,0,0,1-2.166-2.171v-9.193A2.168,2.168,0,0,1,448.626,190.656Z" transform="translate(-445.936 -163.268)" fill="#f7f8fa" stroke="#3d4642" stroke-linejoin="round" stroke-width="0.4" fill-rule="evenodd"/>
      <path id="Path_3941" data-name="Path 3941" d="M448.626,232.851h56.439a2.168,2.168,0,0,1,2.166,2.17v9.194a2.168,2.168,0,0,1-2.166,2.171H448.626a2.168,2.168,0,0,1-2.166-2.171v-9.194A2.168,2.168,0,0,1,448.626,232.851Z" transform="translate(-445.936 -185.161)" fill="#f7f8fa" stroke="#3d4642" stroke-linejoin="round" stroke-width="0.4" fill-rule="evenodd"/>
      <path id="Path_3942" data-name="Path 3942" d="M26.834,56.642A7.427,7.427,0,1,1,19.406,49.2,7.436,7.436,0,0,1,26.834,56.642Z" transform="translate(-6.053 -25.527)" fill="#f7f8fa" stroke="#3d4642" stroke-linejoin="round" stroke-width="0.4"/>
      <path id="Path_3943" data-name="Path 3943" stroke="#3d4642" d="M499.788,202.611h4.389" fill="none" transform="translate(-473.606 -169.471)" stroke-linecap="round" stroke-linejoin="round" stroke-width="0.4" fill-rule="evenodd"/>
      <path id="Path_3944" data-name="Path 3944" d="M518.824,199.8h21.269a2.2,2.2,0,0,1,0,4.4H518.824a2.2,2.2,0,0,1,0-4.4Z" transform="translate(-482.344 -168.011)" fill="#f7f8fa" stroke="#3d4642" stroke-linejoin="round" stroke-width="0.4" fill-rule="evenodd"/>
      <path id="Path_3945" data-name="Path 3945" d="M518.853,241.994H535.4a2.2,2.2,0,0,1,0,4.4H518.853a2.2,2.2,0,0,1,0-4.4Z" transform="translate(-482.373 -189.905)" fill="#f7f8fa" stroke="#3d4642" stroke-linejoin="round" stroke-width="0.4" fill-rule="evenodd"/>
      <path id="Path_3946" data-name="Path 3946" stroke="#3d4642" d="M499.788,206.127h4.389" fill="none" transform="translate(-473.606 -171.295)" stroke-linecap="round" stroke-linejoin="round" stroke-width="0.4" fill-rule="evenodd"/>
      <path id="Path_3947" data-name="Path 3947" stroke="#3d4642" d="M499.788,244.807h4.389" fill="none" transform="translate(-473.606 -191.364)" stroke-linecap="round" stroke-linejoin="round" stroke-width="0.4" fill-rule="evenodd"/>
      <path id="Path_3948" data-name="Path 3948" stroke="#3d4642" d="M499.788,248.323h4.389" fill="none" transform="translate(-473.606 -193.189)" stroke-linecap="round" stroke-linejoin="round" stroke-width="0.4" fill-rule="evenodd"/>
      <path id="Path_3949" data-name="Path 3949" d="M459.111,225.819h12.4a.723.723,0,0,1,.722.723v12.426a.723.723,0,0,1-.722.724h-12.4a.723.723,0,0,1-.722-.724V226.542A.722.722,0,0,1,459.111,225.819Z" transform="translate(-452.125 -181.512)" fill="#f7b0c4" stroke="#3d4642" stroke-linejoin="round" stroke-width="0.4" fill-rule="evenodd"/>
      <path id="Path_3950" data-name="Path 3950" d="M541.547,134.483h81.1a1.084,1.084,0,0,1,1.083,1.085V186.1a1.084,1.084,0,0,1-1.083,1.085h-81.1a1.084,1.084,0,0,1-1.083-1.085V135.568A1.084,1.084,0,0,1,541.547,134.483Z" transform="translate(-494.711 -134.122)" fill="#f7f8fa" stroke="#3d4642" stroke-linejoin="round" stroke-width="0.4" fill-rule="evenodd"/>
      <path id="Path_3951" data-name="Path 3951" d="M648.581,227.928h35.793a6.43,6.43,0,0,1,0,12.858H648.581a6.429,6.429,0,0,1-.1-12.858Z" transform="translate(-547.454 -182.607)" fill="#f7f8fa" stroke="#3d4642" stroke-linejoin="round" stroke-width="0.4" fill-rule="evenodd"/>
      <path id="Path_3952" data-name="Path 3952" d="M656.119,236.827h18.769a1.99,1.99,0,0,1,0,3.979H656.119a1.99,1.99,0,0,1,0-3.979Z" transform="translate(-553.689 -187.224)" fill="#f7f8fa" stroke="#3d4642" stroke-linejoin="round" stroke-width="0.4" fill-rule="evenodd"/>
      <path id="Path_3953" data-name="Path 3953" stroke="#3d4642" d="M712.4,241.29h9.116" fill="none" transform="translate(-583.92 -189.54)" stroke-linecap="round" stroke-linejoin="round" stroke-width="0.4" fill-rule="evenodd"/>
      <path id="Path_3954" data-name="Path 3954" stroke="#3d4642" d="M727.135,236.367l2.363,2.369-2.363,2.369" fill="none" transform="translate(-591.566 -186.985)" stroke-linecap="round" stroke-linejoin="round" stroke-width="0.4" fill-rule="evenodd"/>
      <path id="Path_3955" data-name="Path 3955" d="M227.109,42.913a10.467,10.467,0,1,1-10.467-10.49A10.479,10.479,0,0,1,227.109,42.913Z" transform="translate(-106.813 -16.823)" fill="#89c19d" stroke="#3d4642" stroke-linecap="round" stroke-linejoin="round" stroke-width="0.4"/>
      <path id="Path_3956" data-name="Path 3956" stroke="#3d4642" d="M674.279,183.864a2.162,2.162,0,0,0-.4-1.351,2.5,2.5,0,0,0-.978-.774,9.385,9.385,0,0,0-1.466-.483v-2.873a4.167,4.167,0,0,1,2.087.953l.581-1.245a3.818,3.818,0,0,0-1.136-.7,5.482,5.482,0,0,0-1.44-.37v-1.456h-1.347v1.469a3.682,3.682,0,0,0-1.473.5,2.9,2.9,0,0,0-1,.979,2.464,2.464,0,0,0-.357,1.3,2.233,2.233,0,0,0,.409,1.4,2.588,2.588,0,0,0,1.017.808,9.294,9.294,0,0,0,1.492.5v2.753a4.464,4.464,0,0,1-2.483-.993l-.581,1.245a4.378,4.378,0,0,0,1.327.755,6.071,6.071,0,0,0,1.645.344v1.443h1.347v-1.467a3.487,3.487,0,0,0,2-.92,2.438,2.438,0,0,0,.746-1.809h0Zm-5.218-4.145a1.205,1.205,0,0,1,.325-.86,1.644,1.644,0,0,1,.891-.463v2.555a2.588,2.588,0,0,1-.9-.483.956.956,0,0,1-.317-.748h0Zm2.378,5.48V182.83a2.35,2.35,0,0,1,.845.423.831.831,0,0,1,.289.662,1.21,1.21,0,0,1-.289.84,1.52,1.52,0,0,1-.845.444Z" fill="#f7f8fa" transform="translate(-560.474 -155.437)" stroke-linecap="round" stroke-linejoin="round" stroke-width="0.4" fill-rule="evenodd"/>
      <path id="Path_3957" data-name="Path 3957" d="M555.221,212.385V184.639a1.014,1.014,0,0,1,1.013-1.015h33.423a1.014,1.014,0,0,1,1.013,1.015v27.746" transform="translate(-502.367 -159.619)" fill="#89c19d" stroke="#3d4642" stroke-linejoin="round" stroke-width="0.4" fill-rule="evenodd"/>
      <path id="Path_3958" data-name="Path 3958" d="M608.23,189.249h4.924a1.084,1.084,0,0,1,1.083,1.085v4.935a1.084,1.084,0,0,1-1.083,1.085H608.23a1.084,1.084,0,0,1-1.083-1.085v-4.935A1.084,1.084,0,0,1,608.23,189.249Z" transform="translate(-529.309 -162.538)" fill="#f7f8fa" stroke="#3d4642" stroke-linejoin="round" stroke-width="0.4" fill-rule="evenodd"/>
      <path id="Path_3959" data-name="Path 3959" d="M608.23,210.347h4.924a1.084,1.084,0,0,1,1.083,1.085v4.935a1.084,1.084,0,0,1-1.083,1.085H608.23a1.084,1.084,0,0,1-1.083-1.085v-4.935A1.084,1.084,0,0,1,608.23,210.347Z" transform="translate(-529.309 -173.485)" fill="#f7f8fa" stroke="#3d4642" stroke-linejoin="round" stroke-width="0.4" fill-rule="evenodd"/>
      <path id="Path_3960" data-name="Path 3960" d="M607.147,237.2v-4.739a1.014,1.014,0,0,1,1.013-1.015h5.064a1.014,1.014,0,0,1,1.012,1.015V237.2" transform="translate(-529.309 -184.429)" fill="#f7f8fa" stroke="#3d4642" stroke-linejoin="round" stroke-width="0.4" fill-rule="evenodd"/>
      <path id="Path_3961" data-name="Path 3961" d="M576.433,161.118h28.7a.846.846,0,0,1,0,1.692h-28.7a.846.846,0,0,1,0-1.692Z" transform="translate(-512.944 -147.942)" fill="#f7b0c4" stroke="#3d4642" stroke-linejoin="round" stroke-width="0.4" fill-rule="evenodd"/>
      <path id="Path_3962" data-name="Path 3962" d="M576.433,168.151H595a.846.846,0,0,1,0,1.692H576.433a.846.846,0,0,1,0-1.692Z" transform="translate(-512.944 -151.591)" fill="#f7b0c4" stroke="#3d4642" stroke-linejoin="round" stroke-width="0.4" fill-rule="evenodd"/>
      <path id="Path_3963" data-name="Path 3963" d="M558.633,159.778a3.352,3.352,0,1,1-3.344,3.352A3.348,3.348,0,0,1,558.633,159.778Z" transform="translate(-502.403 -147.247)" fill="none" stroke="#3d4642" stroke-linejoin="round" stroke-width="0.4" fill-rule="evenodd"/>
      <path id="Path_3964" data-name="Path 3964" d="M560.572,163.622a1.255,1.255,0,1,1-1.382,1.248A1.321,1.321,0,0,1,560.572,163.622Z" transform="translate(-504.427 -149.24)" fill="none" stroke="#3d4642" stroke-linejoin="round" stroke-width="0.4" fill-rule="evenodd"/>
      <path id="Path_3965" data-name="Path 3965" d="M557.776,170.372a2.191,2.191,0,0,1,4.139.051" transform="translate(-503.693 -151.993)" fill="none" stroke="#3d4642" stroke-linejoin="round" stroke-width="0.4" fill-rule="evenodd"/>
      <path id="Path_3966" data-name="Path 3966" d="M540.869,146.94h83.322" transform="translate(-494.921 -140.586)" fill="none" stroke="#3d4642" stroke-linejoin="round" stroke-width="0.4" fill-rule="evenodd"/>
      <path id="Path_3967" data-name="Path 3967" d="M103.1,5.794a1.139,1.139,0,1,1-1.139-1.142A1.14,1.14,0,0,1,103.1,5.794Z" transform="translate(-52.152 -2.414)" fill="#f7f8fa" stroke="#3d4642" stroke-linejoin="round" stroke-width="0.4"/>
      <path id="Path_3968" data-name="Path 3968" d="M112.575,5.794a1.139,1.139,0,1,1-1.139-1.142A1.14,1.14,0,0,1,112.575,5.794Z" transform="translate(-57.066 -2.414)" fill="#f7f8fa" stroke="#3d4642" stroke-linejoin="round" stroke-width="0.4"/>
      <path id="Path_3969" data-name="Path 3969" d="M566.618,138.394a1.142,1.142,0,1,1-1.135,1.147v-.005a1.138,1.138,0,0,1,1.134-1.142Z" transform="translate(-507.692 -136.152)" fill="#f7f8fa" stroke="#3d4642" stroke-linejoin="round" stroke-width="0.4" fill-rule="evenodd"/>
      <path id="Path_3970" data-name="Path 3970" d="M583.249,139.314h56.042a.677.677,0,0,1,.031,1.354H583.249a.677.677,0,0,1-.031-1.354Z" transform="translate(-516.551 -136.629)" fill="#f7f8fa" stroke="#3d4642" stroke-linejoin="round" stroke-width="0.4" fill-rule="evenodd"/>
      <path id="Path_3971" data-name="Path 3971" d="M611.062,236.833l1.107,1.11,2.215-2.22" transform="translate(-531.341 -186.651)" fill="none" stroke="#3d4642" stroke-linejoin="round" stroke-width="0.4" fill-rule="evenodd"/>
      <path id="Path_3972" data-name="Path 3972" d="M612.662,217.548l2.215-2.22" transform="translate(-532.171 -176.069)" fill="none" stroke="#3d4642" stroke-linejoin="round" stroke-width="0.4" fill-rule="evenodd"/>
      <path id="Path_3973" data-name="Path 3973" d="M614.878,217.548l-2.215-2.22" transform="translate(-532.171 -176.069)" fill="none" stroke="#3d4642" stroke-linejoin="round" stroke-width="0.4" fill-rule="evenodd"/>
      <path id="Path_3974" data-name="Path 3974" d="M611.062,195.34l1.107,1.11,2.215-2.22" transform="translate(-531.341 -165.122)" fill="none" stroke="#3d4642" stroke-linejoin="round" stroke-width="0.4" fill-rule="evenodd"/>
    </g>
  </g>
</svg>
