<svg xmlns="http://www.w3.org/2000/svg" xmlns:xlink="http://www.w3.org/1999/xlink" width="99" height="98" viewBox="0 0 99 98">
  <defs>
    <clipPath id="clip-path">
      <path id="Path_3413" data-name="Path 3413" d="M1198,901h61.12v61.757H1198Z" transform="translate(-1198 -901)" stroke="#707070" stroke-width="0.4" clip-rule="evenodd"/>
    </clipPath>
    <clipPath id="clip-path-4">
      <path id="Path_3417" data-name="Path 3417" d="M1210,911h91.36v91.633H1210Z" transform="translate(-1210 -911)" stroke="#707070" stroke-width="0.4" clip-rule="evenodd"/>
    </clipPath>
  </defs>
  <g id="no_risk" data-name="no risk" transform="translate(-774.117 -582.203)">
    <g id="Group_1824" data-name="Group 1824" transform="translate(774.117 582.203)" clip-path="url(#clip-path)">
      <g id="Group_1823" data-name="Group 1823" clip-path="url(#clip-path)">
        <g id="Group_1822" data-name="Group 1822" clip-path="url(#clip-path)">
          <path id="Path_3410" data-name="Path 3410" d="M59.454,55.126,34.56,11.382a2.5,2.5,0,0,0-4.393,0L5.21,55.126a2.583,2.583,0,0,0,2.228,3.86H57.226A2.583,2.583,0,0,0,59.454,55.126ZM30.422,21.674h3.82V44.19h-3.82ZM32.332,53.2a3.217,3.217,0,1,1,3.183-3.216A3.169,3.169,0,0,1,32.332,53.2Z" transform="translate(-1.772 -3.662)" fill="#f7b0c4" stroke="#3d4642" stroke-width="0.4"/>
        </g>
      </g>
    </g>
    <g id="Group_1827" data-name="Group 1827" transform="translate(781.757 588.57)" clip-path="url(#clip-path-4)">
      <g id="Group_1826" data-name="Group 1826" clip-path="url(#clip-path-4)">
        <g id="Group_1825" data-name="Group 1825" clip-path="url(#clip-path-4)">
          <path id="Path_3414" data-name="Path 3414" d="M1296.083,987.853l-11.9-11.931a6.562,6.562,0,0,0-5.9-1.814l-4.187-4.2a28.344,28.344,0,0,0,5.9-17.372,28.55,28.55,0,1,0-28.55,28.635,28.356,28.356,0,0,0,17.32-5.918l4.187,4.2a6.606,6.606,0,0,0,1.808,5.918l11.9,11.931a6.65,6.65,0,0,0,9.517,0A6.847,6.847,0,0,0,1296.083,987.853Zm-44.728-12.5a22.908,22.908,0,1,1,22.84-22.908A22.942,22.942,0,0,1,1251.355,975.348Z" transform="translate(-1214.716 -915.691)" fill="#89c19d" stroke="#3d4642" stroke-width="0.4"/>
        </g>
      </g>
    </g>
  </g>
</svg>
