<svg xmlns="http://www.w3.org/2000/svg" xmlns:xlink="http://www.w3.org/1999/xlink" width="105.972" height="95.634" viewBox="0 0 105.972 95.634">
  <defs>
    <clipPath id="clip-path">
      <path id="Path_3453" data-name="Path 3453" d="M1232,390h84v83.357h-84Z" transform="translate(-1232 -390)" stroke="#707070" stroke-width="0.4" clip-rule="evenodd"/>
    </clipPath>
    <clipPath id="clip-path-4">
      <path id="Path_3459" data-name="Path 3459" d="M1198,408h84v84h-84Z" transform="translate(-1198 -408)" stroke="#707070" stroke-width="0.4" clip-rule="evenodd"/>
    </clipPath>
  </defs>
  <g id="own_your_cx" data-name="own your cx" transform="translate(-774.117 -252.008)">
    <g id="Group_1845" data-name="Group 1845" transform="translate(796.087 252.008)" clip-path="url(#clip-path)">
      <g id="Group_1844" data-name="Group 1844" clip-path="url(#clip-path)">
        <g id="Group_1843" data-name="Group 1843" clip-path="url(#clip-path)">
          <path id="Path_3450" data-name="Path 3450" d="M67.477,74.144l2.363-36.989,2.45,32.214Zm-5.425,2.432h-35l3.063-48.625h3.85V34.9a1.75,1.75,0,0,0,3.5,0V27.951h17.5V34.9a1.75,1.75,0,0,0,3.5,0V27.951h6.65ZM37.463,19.268a8.684,8.684,0,0,1,6.388-8.336,11.535,11.535,0,0,0-2.013,6.6v5.21H37.463Zm11.025-8.422a8.612,8.612,0,0,1,6.475,8.422v3.473H45.338v-5.21A8.74,8.74,0,0,1,48.488,10.845Zm5.6-2a8.742,8.742,0,0,1,8.75,8.683v5.21H58.464V19.268A12.122,12.122,0,0,0,52.689,8.935C53.126,8.935,53.651,8.848,54.089,8.848ZM74.214,26.041a3.525,3.525,0,0,0-3.5-3.3H66.952a3.564,3.564,0,0,1,3.5,2.952,3.5,3.5,0,0,0-3.5-2.952h-.613v-5.21A12.217,12.217,0,0,0,47.7,7.2a8.555,8.555,0,0,0-1.488-.087,12.239,12.239,0,0,0-12.25,12.156v3.473H28.538a3.463,3.463,0,0,0-3.5,3.3L21.8,78.138a3.482,3.482,0,0,0,3.5,3.647H65.814a3.455,3.455,0,0,0,2.538-1.129l8.313-8.162a3.515,3.515,0,0,0,1.05-2.692Z" transform="translate(-7.712 -1.902)" fill="#f7b0c4" stroke="#3d4642" stroke-width="0.4"/>
        </g>
      </g>
    </g>
    <path id="Path_3454" data-name="Path 3454" d="M1282.5,461.577a8.077,8.077,0,1,1,8.077,8.077A8.078,8.078,0,0,1,1282.5,461.577Z" transform="translate(-453.781 -160.46)" fill="#f7b0c4" stroke="#3d4642" stroke-miterlimit="8" stroke-width="0.4" fill-rule="evenodd"/>
    <path id="Path_3455" data-name="Path 3455" d="M1228.417,444h41.64c-.1,15.153,5.667,30.306,5.577,45.458-8.116,19.536-35.753,5.9-53.633,8.847Z" transform="translate(-432.375 -157.098)" fill="#f7f8fa" stroke="#707070" stroke-width="0.4" fill-rule="evenodd"/>
    <g id="Group_1848" data-name="Group 1848" transform="translate(774.117 263.639)" clip-path="url(#clip-path-4)">
      <g id="Group_1847" data-name="Group 1847" clip-path="url(#clip-path-4)">
        <g id="Group_1846" data-name="Group 1846" clip-path="url(#clip-path-4)">
          <path id="Path_3456" data-name="Path 3456" d="M1265.476,482.719l2.365-37.277,2.449,32.464Zm-5.428,2.45h-35l3.063-49h3.851v7a1.748,1.748,0,1,0,3.5,0v-7h17.5v7a1.748,1.748,0,1,0,3.5,0v-7h6.649Zm-24.587-57.752a8.741,8.741,0,0,1,6.391-8.4,11.7,11.7,0,0,0-2.016,6.65v5.25h-4.375Zm11.024-8.488a8.668,8.668,0,0,1,6.481,8.488v3.5h-9.628v-5.25A8.851,8.851,0,0,1,1246.485,418.93Zm5.6-2.013a8.774,8.774,0,0,1,8.749,8.75v5.25h-4.375v-3.5A12.233,12.233,0,0,0,1250.685,417C1251.125,417,1251.648,416.917,1252.088,416.917Zm20.128,17.326a3.543,3.543,0,0,0-3.5-3.325h-3.761a3.563,3.563,0,0,1,3.5,2.975,3.5,3.5,0,0,0-3.5-2.975h-.614v-5.25a12.286,12.286,0,0,0-12.251-12.25,12.1,12.1,0,0,0-6.384,1.837,8.571,8.571,0,0,0-1.493-.087,12.285,12.285,0,0,0-12.245,12.25v3.5h-5.428a3.48,3.48,0,0,0-3.5,3.325l-3.237,52.5a3.5,3.5,0,0,0,3.5,3.675h40.515a3.425,3.425,0,0,0,2.533-1.137l8.316-8.225a3.551,3.551,0,0,0,1.047-2.713Z" transform="translate(-1205.712 -409.917)" fill="#89c19d" stroke="#3d4642" stroke-width="0.4"/>
        </g>
      </g>
    </g>
    <path id="Path_3460" data-name="Path 3460" d="M1241,488.862,1251.739,474l6.707,14.862Z" transform="translate(-439.097 -167.713)" fill="#89c19d" stroke="#3d4642" stroke-miterlimit="8" stroke-width="0.4" fill-rule="evenodd"/>
  </g>
</svg>
