<svg xmlns="http://www.w3.org/2000/svg" width="40" height="40.004" viewBox="0 0 40 40.004">
  <g id="branding" transform="translate(0 0)">
    <g id="Group_676" data-name="Group 676" transform="translate(6.924 6.953)">
      <g id="Group_675" data-name="Group 675">
        <path id="Path_1059" data-name="Path 1059" d="M113.016,100a7.127,7.127,0,0,1-1.2-3.578,2.6,2.6,0,0,0-1.961-2.516V92.521a.654.654,0,0,0-.654-.654H107.83a3.275,3.275,0,0,0-3.2-2.615c-2,0-3.491-.6-3.992-1.6a.681.681,0,0,0-1.17,0c-.5,1-1.993,1.6-3.992,1.6a3.275,3.275,0,0,0-3.2,2.615H90.9a.654.654,0,0,0-.654.654v1.386a2.6,2.6,0,0,0-1.961,2.518,7.128,7.128,0,0,1-1.2,3.578.653.653,0,0,0,0,.725,7.127,7.127,0,0,1,1.2,3.578,2.6,2.6,0,0,0,1.961,2.516v1.389a.654.654,0,0,0,.654.654H92.27a3.275,3.275,0,0,0,3.2,2.615c2.268,0,3.474.067,3.956,1.514a.654.654,0,0,0,1.241,0c.482-1.447,1.688-1.514,3.956-1.514a3.275,3.275,0,0,0,3.2-2.615H109.2a.654.654,0,0,0,.654-.654v-1.386a2.6,2.6,0,0,0,1.961-2.518,7.128,7.128,0,0,1,1.2-3.578A.653.653,0,0,0,113.016,100Zm-2.505,4.3A1.3,1.3,0,0,1,109.2,105.6a.654.654,0,0,0-.654.654v1.308h-1.308a.654.654,0,0,0-.654.654,1.964,1.964,0,0,1-1.961,1.961c-1.74,0-3.527,0-4.577,1.258-1.049-1.258-2.837-1.258-4.577-1.258a1.964,1.964,0,0,1-1.961-1.961.654.654,0,0,0-.654-.654H91.551V106.25a.67.67,0,0,0-.672-.654,1.291,1.291,0,0,1-1.289-1.289,8.3,8.3,0,0,0-1.189-3.941,8.3,8.3,0,0,0,1.189-3.941A1.3,1.3,0,0,1,90.9,95.136a.654.654,0,0,0,.654-.654V93.175h1.308a.654.654,0,0,0,.654-.654,1.964,1.964,0,0,1,1.961-1.961,6.314,6.314,0,0,0,4.577-1.506,6.314,6.314,0,0,0,4.577,1.506,1.964,1.964,0,0,1,1.961,1.961.654.654,0,0,0,.654.654h1.308v1.308a.67.67,0,0,0,.672.654,1.291,1.291,0,0,1,1.289,1.289,8.3,8.3,0,0,0,1.189,3.941A8.3,8.3,0,0,0,110.511,104.307Z" transform="translate(-86.974 -87.319)" fill="#818181"/>
      </g>
    </g>
    <g id="Group_678" data-name="Group 678" transform="translate(19.346 3.838)">
      <g id="Group_677" data-name="Group 677">
        <rect id="Rectangle_1314" data-name="Rectangle 1314" width="1.308" height="1.961" fill="#818181"/>
      </g>
    </g>
    <g id="Group_680" data-name="Group 680" transform="translate(35.699 0.759)">
      <g id="Group_679" data-name="Group 679" transform="translate(0 0)">
        <rect id="Rectangle_1315" data-name="Rectangle 1315" width="3.699" height="1.308" transform="translate(0 2.615) rotate(-45)" fill="#818181"/>
      </g>
    </g>
    <g id="Group_682" data-name="Group 682" transform="translate(36.816 19.346)">
      <g id="Group_681" data-name="Group 681">
        <rect id="Rectangle_1316" data-name="Rectangle 1316" width="2.615" height="1.308" fill="#818181"/>
      </g>
    </g>
    <g id="Group_684" data-name="Group 684" transform="translate(19.346 0.569)">
      <g id="Group_683" data-name="Group 683">
        <rect id="Rectangle_1317" data-name="Rectangle 1317" width="1.308" height="1.961" fill="#818181"/>
      </g>
    </g>
    <g id="Group_686" data-name="Group 686" transform="translate(34.201 19.346)">
      <g id="Group_685" data-name="Group 685">
        <rect id="Rectangle_1318" data-name="Rectangle 1318" width="1.308" height="1.308" fill="#818181"/>
      </g>
    </g>
    <g id="Group_688" data-name="Group 688" transform="translate(32.856 13.446)">
      <g id="Group_687" data-name="Group 687" transform="translate(0 0)">
        <rect id="Rectangle_1319" data-name="Rectangle 1319" width="1.308" height="1.308" transform="translate(0 0.501) rotate(-22.508)" fill="#818181"/>
      </g>
    </g>
    <g id="Group_690" data-name="Group 690" transform="translate(31.375 5.851)">
      <g id="Group_689" data-name="Group 689">
        <rect id="Rectangle_1320" data-name="Rectangle 1320" width="2.615" height="1.308" transform="translate(0 1.849) rotate(-45)" fill="#818181"/>
      </g>
    </g>
    <g id="Group_692" data-name="Group 692" transform="translate(29.607 8.546)">
      <g id="Group_691" data-name="Group 691">
        <rect id="Rectangle_1321" data-name="Rectangle 1321" width="1.308" height="1.308" transform="translate(0 0.925) rotate(-45)" fill="#818181"/>
      </g>
    </g>
    <g id="Group_694" data-name="Group 694" transform="translate(24.846 5.437)">
      <g id="Group_693" data-name="Group 693" transform="translate(0 0)">
        <rect id="Rectangle_1322" data-name="Rectangle 1322" width="1.308" height="1.308" transform="translate(0 1.208) rotate(-67.492)" fill="#818181"/>
      </g>
    </g>
    <g id="Group_696" data-name="Group 696" transform="translate(35.271 11.211)">
      <g id="Group_695" data-name="Group 695" transform="translate(0 0)">
        <rect id="Rectangle_1323" data-name="Rectangle 1323" width="4.577" height="1.308" transform="translate(0 1.752) rotate(-22.508)" fill="#818181"/>
      </g>
    </g>
    <g id="Group_698" data-name="Group 698" transform="translate(25.828 0.001)">
      <g id="Group_697" data-name="Group 697" transform="translate(0 0)">
        <rect id="Rectangle_1324" data-name="Rectangle 1324" width="4.577" height="1.308" transform="translate(0 4.228) rotate(-67.492)" fill="#818181"/>
      </g>
    </g>
    <g id="Group_700" data-name="Group 700" transform="translate(0.761 0.761)">
      <g id="Group_699" data-name="Group 699" transform="translate(0 0)">
        <rect id="Rectangle_1325" data-name="Rectangle 1325" width="1.308" height="3.699" transform="translate(0 0.925) rotate(-45)" fill="#818181"/>
      </g>
    </g>
    <g id="Group_702" data-name="Group 702" transform="translate(0.569 19.346)">
      <g id="Group_701" data-name="Group 701">
        <rect id="Rectangle_1326" data-name="Rectangle 1326" width="2.615" height="1.308" fill="#818181"/>
      </g>
    </g>
    <g id="Group_704" data-name="Group 704" transform="translate(4.492 19.346)">
      <g id="Group_703" data-name="Group 703">
        <rect id="Rectangle_1327" data-name="Rectangle 1327" width="1.308" height="1.308" fill="#818181"/>
      </g>
    </g>
    <g id="Group_706" data-name="Group 706" transform="translate(5.437 13.444)">
      <g id="Group_705" data-name="Group 705" transform="translate(0 0)">
        <rect id="Rectangle_1328" data-name="Rectangle 1328" width="1.308" height="1.308" transform="translate(0 1.208) rotate(-67.5)" fill="#818181"/>
      </g>
    </g>
    <g id="Group_708" data-name="Group 708" transform="translate(5.854 5.852)">
      <g id="Group_707" data-name="Group 707">
        <rect id="Rectangle_1329" data-name="Rectangle 1329" width="1.308" height="2.615" transform="translate(0 0.925) rotate(-45)" fill="#818181"/>
      </g>
    </g>
    <g id="Group_710" data-name="Group 710" transform="translate(8.543 8.544)">
      <g id="Group_709" data-name="Group 709" transform="translate(0)">
        <rect id="Rectangle_1330" data-name="Rectangle 1330" width="1.308" height="1.308" transform="translate(0 0.925) rotate(-45)" fill="#818181"/>
      </g>
    </g>
    <g id="Group_712" data-name="Group 712" transform="translate(13.447 5.436)">
      <g id="Group_711" data-name="Group 711" transform="translate(0 0)">
        <rect id="Rectangle_1331" data-name="Rectangle 1331" width="1.308" height="1.308" transform="translate(0 0.501) rotate(-22.508)" fill="#818181"/>
      </g>
    </g>
    <g id="Group_714" data-name="Group 714" transform="translate(0 11.212)">
      <g id="Group_713" data-name="Group 713" transform="translate(0 0)">
        <rect id="Rectangle_1332" data-name="Rectangle 1332" width="1.308" height="4.577" transform="translate(0 1.208) rotate(-67.5)" fill="#818181"/>
      </g>
    </g>
    <g id="Group_716" data-name="Group 716" transform="translate(11.212)">
      <g id="Group_715" data-name="Group 715" transform="translate(0 0)">
        <rect id="Rectangle_1333" data-name="Rectangle 1333" width="1.308" height="4.577" transform="translate(0 0.5) rotate(-22.5)" fill="#818181"/>
      </g>
    </g>
    <g id="Group_718" data-name="Group 718" transform="translate(19.346 34.201)">
      <g id="Group_717" data-name="Group 717">
        <rect id="Rectangle_1334" data-name="Rectangle 1334" width="1.308" height="1.961" fill="#818181"/>
      </g>
    </g>
    <g id="Group_720" data-name="Group 720" transform="translate(35.699 35.699)">
      <g id="Group_719" data-name="Group 719">
        <rect id="Rectangle_1335" data-name="Rectangle 1335" width="1.308" height="3.699" transform="translate(0 0.925) rotate(-45)" fill="#818181"/>
      </g>
    </g>
    <g id="Group_722" data-name="Group 722" transform="translate(19.346 37.47)">
      <g id="Group_721" data-name="Group 721">
        <rect id="Rectangle_1336" data-name="Rectangle 1336" width="1.308" height="1.961" fill="#818181"/>
      </g>
    </g>
    <g id="Group_724" data-name="Group 724" transform="translate(32.856 24.843)">
      <g id="Group_723" data-name="Group 723" transform="translate(0 0)">
        <rect id="Rectangle_1337" data-name="Rectangle 1337" width="1.308" height="1.308" transform="translate(0 1.208) rotate(-67.5)" fill="#818181"/>
      </g>
    </g>
    <g id="Group_726" data-name="Group 726" transform="translate(31.375 31.375)">
      <g id="Group_725" data-name="Group 725" transform="translate(0)">
        <rect id="Rectangle_1338" data-name="Rectangle 1338" width="1.308" height="2.615" transform="translate(0 0.925) rotate(-45)" fill="#818181"/>
      </g>
    </g>
    <g id="Group_728" data-name="Group 728" transform="translate(29.604 29.605)">
      <g id="Group_727" data-name="Group 727" transform="translate(0)">
        <rect id="Rectangle_1339" data-name="Rectangle 1339" width="1.308" height="1.308" transform="translate(0 0.925) rotate(-45)" fill="#818181"/>
      </g>
    </g>
    <g id="Group_730" data-name="Group 730" transform="translate(24.846 32.856)">
      <g id="Group_729" data-name="Group 729" transform="translate(0 0)">
        <rect id="Rectangle_1340" data-name="Rectangle 1340" width="1.308" height="1.308" transform="translate(0 0.501) rotate(-22.508)" fill="#818181"/>
      </g>
    </g>
    <g id="Group_732" data-name="Group 732" transform="translate(35.271 25.833)">
      <g id="Group_731" data-name="Group 731" transform="translate(0 0)">
        <rect id="Rectangle_1341" data-name="Rectangle 1341" width="1.308" height="4.577" transform="translate(0 1.208) rotate(-67.5)" fill="#818181"/>
      </g>
    </g>
    <g id="Group_734" data-name="Group 734" transform="translate(25.831 35.275)">
      <g id="Group_733" data-name="Group 733" transform="translate(0 0)">
        <rect id="Rectangle_1342" data-name="Rectangle 1342" width="1.308" height="4.577" transform="translate(0 0.5) rotate(-22.5)" fill="#818181"/>
      </g>
    </g>
    <g id="Group_736" data-name="Group 736" transform="translate(0.764 35.7)">
      <g id="Group_735" data-name="Group 735" transform="translate(0 0)">
        <rect id="Rectangle_1343" data-name="Rectangle 1343" width="3.699" height="1.308" transform="translate(0 2.615) rotate(-45)" fill="#818181"/>
      </g>
    </g>
    <g id="Group_738" data-name="Group 738" transform="translate(5.436 24.846)">
      <g id="Group_737" data-name="Group 737" transform="translate(0 0)">
        <rect id="Rectangle_1344" data-name="Rectangle 1344" width="1.308" height="1.308" transform="translate(0 0.501) rotate(-22.508)" fill="#818181"/>
      </g>
    </g>
    <g id="Group_740" data-name="Group 740" transform="translate(5.854 31.375)">
      <g id="Group_739" data-name="Group 739">
        <rect id="Rectangle_1345" data-name="Rectangle 1345" width="2.615" height="1.308" transform="translate(0 1.849) rotate(-45)" fill="#818181"/>
      </g>
    </g>
    <g id="Group_742" data-name="Group 742" transform="translate(8.542 29.604)">
      <g id="Group_741" data-name="Group 741" transform="translate(0)">
        <rect id="Rectangle_1346" data-name="Rectangle 1346" width="1.308" height="1.308" transform="translate(0 0.925) rotate(-45)" fill="#818181"/>
      </g>
    </g>
    <g id="Group_744" data-name="Group 744" transform="translate(13.446 32.858)">
      <g id="Group_743" data-name="Group 743" transform="translate(0 0)">
        <rect id="Rectangle_1347" data-name="Rectangle 1347" width="1.308" height="1.308" transform="translate(0 1.208) rotate(-67.492)" fill="#818181"/>
      </g>
    </g>
    <g id="Group_746" data-name="Group 746" transform="translate(0 25.829)">
      <g id="Group_745" data-name="Group 745" transform="translate(0 0)">
        <rect id="Rectangle_1348" data-name="Rectangle 1348" width="4.577" height="1.308" transform="translate(0 1.752) rotate(-22.508)" fill="#818181"/>
      </g>
    </g>
    <g id="Group_748" data-name="Group 748" transform="translate(11.208 35.271)">
      <g id="Group_747" data-name="Group 747" transform="translate(0 0)">
        <rect id="Rectangle_1349" data-name="Rectangle 1349" width="4.577" height="1.308" transform="translate(0 4.228) rotate(-67.492)" fill="#818181"/>
      </g>
    </g>
    <g id="Group_750" data-name="Group 750" transform="translate(13.517 12.615)">
      <g id="Group_749" data-name="Group 749">
        <path id="Path_1060" data-name="Path 1060" d="M178.3,163.985l2.181-2.979a.654.654,0,0,0-.6-1.036l-3.671.4-1.49-3.378a.654.654,0,0,0-1.2,0l-1.49,3.378-3.671-.4a.654.654,0,0,0-.6,1.036l2.181,2.979-2.181,2.979a.654.654,0,0,0,.6,1.036l3.671-.4,1.49,3.379a.654.654,0,0,0,1.2,0l1.49-3.379,3.671.4a.654.654,0,0,0,.6-1.036Zm-2.423,2.265a.656.656,0,0,0-.669.386l-1.084,2.46-1.085-2.46a.653.653,0,0,0-.6-.39.668.668,0,0,0-.071,0l-2.673.291,1.588-2.169a.654.654,0,0,0,0-.773L169.7,161.43l2.673.291a.66.66,0,0,0,.669-.386l1.084-2.46,1.084,2.46a.658.658,0,0,0,.669.386l2.673-.291-1.588,2.169a.654.654,0,0,0,0,.773l1.588,2.169Z" transform="translate(-167.644 -156.6)" fill="#818181"/>
      </g>
    </g>
  </g>
</svg>
