<svg id="Component_31_1" data-name="Component 31 – 1" xmlns="http://www.w3.org/2000/svg" width="51.724" height="50" viewBox="0 0 51.724 50">
  <g id="application" transform="translate(5.126 6.35)">
    <path id="Path_200" data-name="Path 200" d="M67.81,66.974h6.425a1.612,1.612,0,0,0,1.608-1.612V48.472a1.612,1.612,0,0,0-1.608-1.612H35.979a1.612,1.612,0,0,0-1.608,1.612v16.89a1.612,1.612,0,0,0,1.608,1.612H64.93a.722.722,0,0,0,0-1.444H35.979a.169.169,0,0,1-.168-.169V48.472a.169.169,0,0,1,.168-.169H74.235a.169.169,0,0,1,.168.169v16.89a.169.169,0,0,1-.168.169H67.81a.722.722,0,0,0,0,1.444Zm0,0" transform="translate(-34.371 -46.86)" fill="#7dc4a6"/>
    <path id="Path_201" data-name="Path 201" d="M126.387,96.273H99.14a1.154,1.154,0,0,0-1.151,1.155v8.535a1.154,1.154,0,0,0,1.151,1.155h25.841l.356,1.333a1.062,1.062,0,0,0,1.778.478l.585-.586.6.605a1.933,1.933,0,0,0,1.376.57,1.955,1.955,0,0,0,1.377-3.332l-.6-.605.584-.586a1.069,1.069,0,0,0-.477-1.784l-3.021-.812V97.428A1.154,1.154,0,0,0,126.387,96.273Zm-1.184,5.5a1.065,1.065,0,0,0-1.3,1.306l.694,2.6H99.428V97.717H126.1v4.3Zm4.983,5.8a.507.507,0,0,1-.866.359l-.6-.605.717-.719.6.605A.507.507,0,0,1,130.187,107.568Zm-.629-3.132-3,3.01s-1.069-4-1.1-4.111l4.1,1.1Zm0,0" transform="translate(-92.021 -91.639)" fill="#7dc4a6"/>
    <path id="Path_202" data-name="Path 202" d="M131.381,125.542c-.4-.178-.722-.318-.722-.541,0-.38.771-.461,1.316-.176a.724.724,0,0,0,.341.109c.392,0,.554-.457.554-.7,0-.71-1.306-.747-1.568-.747-.918,0-1.989.426-1.989,1.628,0,1.78,2.344,1.686,2.344,2.47,0,.29-.335.393-.622.393-.658,0-.853-.548-1.257-.548-.347,0-.6.428-.6.717,0,1.23,3.823,1.814,3.823-.68C133,126.257,132.066,125.844,131.381,125.542Zm0,0" transform="translate(-120.312 -116.297)" fill="#7dc4a6"/>
    <path id="Path_203" data-name="Path 203" d="M176.3,124.371v3.358c0,.427-.206.644-.613.644s-.614-.217-.614-.644v-3.358c0-.306-.338-.444-.673-.444-.409,0-.673.174-.673.444v3.358a1.964,1.964,0,0,0,3.92,0v-3.358C177.642,123.78,176.3,123.77,176.3,124.371Zm0,0" transform="translate(-160.688 -116.696)" fill="#7dc4a6"/>
    <path id="Path_204" data-name="Path 204" d="M224.923,126.52a1.323,1.323,0,0,0,.507-1.15c0-.924-.545-1.413-1.576-1.413h-1.516c-.289,0-.6.141-.6.451v4.7c0,.221.206.444.6.444h1.641a1.476,1.476,0,0,0,1.583-1.686v-.155a1.171,1.171,0,0,0-.64-1.194Zm-1.845-1.365h.68c.431,0,.437.835,0,.835h-.68Zm0,3.2v-1.286c.867,0,1.139-.12,1.139.7C224.216,128.472,223.782,128.357,223.077,128.357Zm0,0" transform="translate(-204.213 -116.725)" fill="#7dc4a6"/>
    <path id="Path_205" data-name="Path 205" d="M270.829,123.957c-.736,0-.727.188-1.656,1.81-.927-1.621-.919-1.81-1.656-1.81a.632.632,0,0,0-.673.674V129.1c0,.6,1.346.6,1.346,0v-2.47l.521.954a.526.526,0,0,0,.915,0l.53-.907V129.1c0,.6,1.346.6,1.346,0v-4.474a.626.626,0,0,0-.673-.674Zm0,0" transform="translate(-245.1 -116.725)" fill="#7dc4a6"/>
    <path id="Path_206" data-name="Path 206" d="M323.653,123.957c-.409,0-.673.174-.673.444v4.7c0,.31.348.451.673.451s.674-.141.674-.451v-4.7C324.327,124.131,324.062,123.957,323.653,123.957Zm0,0" transform="translate(-295.98 -116.725)" fill="#7dc4a6"/>
    <path id="Path_207" data-name="Path 207" d="M343.807,123.957h-3.195c-.305,0-.444.315-.444.606,0,.367.183.622.444.622h.925v3.92c0,.31.348.451.673.451s.673-.141.673-.451v-3.92h.925c.261,0,.444-.255.444-.622C344.25,124.272,344.112,123.957,343.807,123.957Zm0,0" transform="translate(-311.565 -116.725)" fill="#7dc4a6"/>
  </g>
  <g id="website">
    <g id="Group_195" data-name="Group 195" transform="translate(0 0)">
      <g id="Group_194" data-name="Group 194">
        <path id="Path_217" data-name="Path 217" d="M48.275,8.533H3.449A3.457,3.457,0,0,0,0,11.989v28.5a.863.863,0,0,0,.862.864h50a.863.863,0,0,0,.862-.864v-28.5A3.457,3.457,0,0,0,48.275,8.533ZM50,39.63H1.724V11.989a1.729,1.729,0,0,1,1.725-1.728H48.275A1.729,1.729,0,0,1,50,11.989Z" transform="translate(0 -8.533)" fill="#7dc4a6"/>
      </g>
    </g>
    <g id="Group_197" data-name="Group 197" transform="translate(0 31.021)">
      <g id="Group_196" data-name="Group 196">
        <path id="Path_218" data-name="Path 218" d="M50.862,315.733h-50A.863.863,0,0,0,0,316.6v4.318a3.457,3.457,0,0,0,3.449,3.456H48.275a3.457,3.457,0,0,0,3.449-3.456V316.6A.863.863,0,0,0,50.862,315.733ZM50,320.915a1.728,1.728,0,0,1-1.725,1.728H3.449a1.728,1.728,0,0,1-1.725-1.728v-3.454H50v3.454Z" transform="translate(0 -315.733)" fill="#7dc4a6"/>
      </g>
    </g>
    <g id="Group_199" data-name="Group 199" transform="translate(22.407 34.48)">
      <g id="Group_198" data-name="Group 198">
        <path id="Path_219" data-name="Path 219" d="M227.914,349.867h-5.183a.864.864,0,1,0,0,1.728h5.183a.864.864,0,0,0,0-1.728Z" transform="translate(-221.867 -349.867)" fill="#7dc4a6"/>
      </g>
    </g>
    <g id="Group_203" data-name="Group 203" transform="translate(12.041 44.817)">
      <g id="Group_202" data-name="Group 202">
        <path id="Path_221" data-name="Path 221" d="M144.517,452.267H122.058a2.591,2.591,0,0,0,0,5.183h22.459a2.591,2.591,0,1,0,0-5.183Zm0,3.455H122.058a.864.864,0,1,1,0-1.728h22.459a.864.864,0,1,1,0,1.728Z" transform="translate(-119.467 -452.267)" fill="#7dc4a6"/>
      </g>
    </g>
    <g id="Group_205" data-name="Group 205" transform="translate(15.496 37.907)">
      <g id="Group_204" data-name="Group 204">
        <path id="Path_222" data-name="Path 222" d="M173.469,390.911c-2.866,0-4.319-2.034-4.319-6.047a.864.864,0,0,0-.864-.864h-8.638a.864.864,0,0,0-.864.864c0,4.012-1.453,6.047-4.319,6.047a.864.864,0,1,0,0,1.728h19a.864.864,0,1,0,0-1.728Zm-14.8,0a8.276,8.276,0,0,0,1.816-5.183h6.958a8.266,8.266,0,0,0,1.816,5.183Z" transform="translate(-153.601 -384.001)" fill="#7dc4a6"/>
      </g>
    </g>
  </g>
</svg>
