<svg xmlns="http://www.w3.org/2000/svg" xmlns:xlink="http://www.w3.org/1999/xlink" width="953.897" height="485.323" viewBox="0 0 953.897 485.323">
  <defs>
    <filter id="Ellipse_25" x="114.319" y="83.575" width="40.026" height="40.026" filterUnits="userSpaceOnUse">
      <feOffset dy="3" input="SourceAlpha"/>
      <feGaussianBlur stdDeviation="3" result="blur"/>
      <feFlood flood-color="#7dc4a6" flood-opacity="0.161"/>
      <feComposite operator="in" in2="blur"/>
      <feComposite in="SourceGraphic"/>
    </filter>
    <filter id="Ellipse_26" x="213.817" y="319.029" width="40.026" height="40.026" filterUnits="userSpaceOnUse">
      <feOffset dy="3" input="SourceAlpha"/>
      <feGaussianBlur stdDeviation="3" result="blur-2"/>
      <feFlood flood-color="#7dc4a6" flood-opacity="0.161"/>
      <feComposite operator="in" in2="blur-2"/>
      <feComposite in="SourceGraphic"/>
    </filter>
    <filter id="Ellipse_27" x="633.968" y="82.056" width="40.026" height="40.026" filterUnits="userSpaceOnUse">
      <feOffset dy="3" input="SourceAlpha"/>
      <feGaussianBlur stdDeviation="3" result="blur-3"/>
      <feFlood flood-color="#7dc4a6" flood-opacity="0.161"/>
      <feComposite operator="in" in2="blur-3"/>
      <feComposite in="SourceGraphic"/>
    </filter>
    <filter id="Ellipse_28" x="826.992" y="357.005" width="40.026" height="40.026" filterUnits="userSpaceOnUse">
      <feOffset dy="3" input="SourceAlpha"/>
      <feGaussianBlur stdDeviation="3" result="blur-4"/>
      <feFlood flood-color="#7dc4a6" flood-opacity="0.161"/>
      <feComposite operator="in" in2="blur-4"/>
      <feComposite in="SourceGraphic"/>
    </filter>
    <filter id="Ellipse_29" x="468.573" y="240.038" width="40.026" height="40.026" filterUnits="userSpaceOnUse">
      <feOffset dy="3" input="SourceAlpha"/>
      <feGaussianBlur stdDeviation="3" result="blur-5"/>
      <feFlood flood-color="#7dc4a6" flood-opacity="0.161"/>
      <feComposite operator="in" in2="blur-5"/>
      <feComposite in="SourceGraphic"/>
    </filter>
  </defs>
  <g id="world_map" data-name="world map" transform="translate(0)">
    <g id="Group_245" data-name="Group 245">
      <path id="Path_275" data-name="Path 275" d="M302.15,260.237a31.491,31.491,0,0,0-2.068-7.9,3.576,3.576,0,0,0-1.822-2.238,3.764,3.764,0,0,0-1.808-.02l-9.282,1.417a3.564,3.564,0,0,0-2.118.821c-1.209,1.268-.018,3.31-.056,5.06-.042,1.967-1.794,3.564-3.695,4.092a14,14,0,0,1-5.871-.073l-12.98-2.012a21.4,21.4,0,0,0,9.819-6.535c1.708-2.018,2.617-5.786.148-6.741a6.076,6.076,0,0,0-2.254-.18c-5.881.046-10.508-4.851-16.014-6.914a17.734,17.734,0,0,0-19.927,5.925l6.914.332a3.075,3.075,0,0,1,1.842.49c1.515,1.242-.369,3.627-.155,5.571.277,2.526,3.64,3.066,6.176,3.321s5.751,2.31,4.532,4.541c-12.742,4.377-25.708-8.556-39.09-6.964-3.387.4-6.585,1.73-9.892,2.564-20.2,5.1-41.082-8.5-61.717-5.622a78.528,78.528,0,0,0-13.472,3.544c-2.808.92-5.738,1.914-7.778,4.046s-2.817,5.781-.884,8.011a45.321,45.321,0,0,1-15.842-1.5,8.848,8.848,0,0,1,4.563,7.8A94.183,94.183,0,0,0,85.34,278.4a40.455,40.455,0,0,0,4.984,6.621l-10.532,6.748a5.989,5.989,0,0,1,3.329,8.756c3.69-1.637,5.976-5.872,9.921-6.73,2.585-.562,5.215.492,7.667,1.483s5.147,1.951,7.685,1.208,4.411-4.026,2.8-6.118a131.66,131.66,0,0,1,33.36-5.2,4.194,4.194,0,0,1,2.527.478c1.471,1.018,1.084,3.216,1,5s1.315,4.128,2.913,3.324c-1.88,1.626-.273,4.688,1.531,6.4s3.978,4.07,2.874,6.294c-.288.58-.777,1.045-1.055,1.631-.819,1.729.481,3.745,2.014,4.893s3.411,1.951,4.476,3.541.581,4.374-1.323,4.6l-5.413-6.855a14.042,14.042,0,0,0-3.657,6.911c5.74,4.68,6.6,14.206,1.8,19.836-2.456,2.877-5.948,4.626-9,6.87s-5.868,5.44-5.861,9.219c.013,6.528-.522,12.593,1.931,18.646a286.88,286.88,0,0,0,15.635,32.533c1.547,2.759,3.546,5.783,6.679,6.258q-5.94-14.422-10.694-29.293c2.064.008,4.45.172,5.66,1.84,1,1.381.787,3.259,1.1,4.936a15.268,15.268,0,0,0,1.955,4.584l18.91,33.595c1.568,2.785,3.366,5.774,6.362,6.9,1.915.721,4.132.585,5.895,1.623,1.382.814,2.313,2.258,3.722,3.025,3.983,2.167,9.523-1.989,13.246.6a37.224,37.224,0,0,1,2.722,2.763c3.438,2.97,9.078.983,13.047,3.2,2.558,1.428,3.884,4.283,5.248,6.87,3.418,6.481,8.947,12.831,16.272,13.347,2.3.162,4.651-.273,6.9.237s4.463,2.468,4.1,4.74c-.619,3.895,1.311,8.16.792,12.07-.944,7.121-11.072,10.251-11.942,17.382-.191,1.561.108,3.173-.265,4.7-.457,1.873-1.867,3.4-2.368,5.26-.95,3.528,1.585,7.039,4.369,9.413s6.105,4.42,7.627,7.743c1.609,3.512.818,7.607,1.342,11.433,1.142,8.352,8.375,14.544,15.819,18.536,2.268,1.216,4.7,2.394,6.171,4.5,1.916,2.754,1.725,6.385,2.365,9.676,1.567,8.059,8.37,14.7,8.563,22.907.137,5.833-3.114,11.126-5.056,16.63a38.692,38.692,0,0,0,3.175,32.164c1.453,2.447,3.191,4.754,4.218,7.406,1.834,4.734,1.239,10.114,2.93,14.9,2.236,6.328,8.379,11.554,7.791,18.237,2.789,5.777,8.948,8.615,15.141,10.334l11.1,3.082c2.125.59,4.346,1.185,6.51.757s4.229-2.219,4.174-4.419c-5.443-1.224-11.06-2.526-15.547-5.834s-7.56-9.2-5.858-14.5c.789-2.457,2.469-5.295.872-7.325-.914-1.163-2.586-1.466-3.617-2.527-1.608-1.655-1.056-4.434.1-6.429s2.827-3.778,3.294-6.035a6.29,6.29,0,0,0-2.959-6.551,15.7,15.7,0,0,0,5.494-3.515c1.445-1.646,2.112-4.182.975-6.053,3.375.427,7.359.636,9.575-1.939,1.769-2.056,1.648-5.13.949-7.748s-1.88-5.161-1.917-7.87a144.166,144.166,0,0,0,23.33-.789,15.1,15.1,0,0,0-7.093-8.86c3.506-.592,6.7-4.779,7.809-8.149s.825-7.042.141-10.522a5.634,5.634,0,0,1-.1-2.757c.395-1.255,1.631-2.021,2.775-2.676l17.405-9.969a10.134,10.134,0,0,0,2.783-2.049c1.823-2.136,1.553-5.361.62-8.008s-2.429-5.135-2.789-7.918c-1.076-8.322,7.856-14.293,10.871-22.127a33.254,33.254,0,0,0,1.653-9.7c.246-3.528.264-7.626-2.452-9.9-2.6-2.179-6.672-1.693-9.4-3.72-2.5-1.859-3.36-5.468-6.089-6.97-2.478-1.363-5.585-.5-8.341-1.138-4.853-1.129-7.907-6.707-12.863-7.224-2.8-.291-5.961,1.072-8.253-.552-2.02-1.431-2.1-4.308-2.485-6.749a18.873,18.873,0,0,0-15.252-15.261c-2.883-.461-6.022-.286-8.474-1.866-2.484-1.6-3.622-4.6-5.573-6.812-3.144-3.571-8.1-4.84-12.735-5.928L276.5,456.026c-3.35-.785-7.668-1.2-9.465,1.725a13.5,13.5,0,0,0-1.12,3.512,10.9,10.9,0,0,1-10.255,7.7,12.124,12.124,0,0,0-7.151-5.519c-1.913-.532-3.961-.591-5.786-1.373a8.1,8.1,0,0,1-3.527-11.245,10.071,10.071,0,0,0-1.729-12.138c-3.209-2.873-7.851-3.568-12.154-3.28-1.127-2.452.757-5.219,2.788-7s4.5-3.534,4.938-6.2c.7-4.186-4.66-7.366-8.727-6.118s-6.662,5.188-8.378,9.071c-.984,2.228-1.821,4.574-3.374,6.453s-4.053,3.224-6.419,2.621c-3.348-.853-4.642-4.821-5.383-8.188-.994-4.517-1.994-9.1-1.786-13.717s1.77-9.364,5.186-12.491c5.566-5.1,14.105-4.6,21.617-3.784-1.775-1.994-1.336-5.355.563-7.233a8.261,8.261,0,0,1,7.473-1.831,10.3,10.3,0,0,1,5.789,3.452c2.135,2.6,2.742,6.1,4.355,9.047s5.242,5.46,8.211,3.879c2.565-1.365,2.972-4.913,2.334-7.742s-1.994-5.58-1.763-8.47c.441-5.516,6.174-8.835,11.233-11.107s10.851-5.327,11.653-10.8a9.823,9.823,0,0,1,.6-3.139,6.167,6.167,0,0,1,2.265-2.124c14.764-9.731,29.773-19.581,46.648-24.9.878-.277.981.031,1.876-.186,1.252-.722.422-2.718-.778-3.523s-2.805-1.421-3.11-2.831c-.224-1.037.388-2.054.548-3.1a3.882,3.882,0,0,0-5.1-3.925c-1.355-1.79,1.327-3.871,3.5-4.466a95.152,95.152,0,0,1,19.941-3.249,3.6,3.6,0,0,1,2.269.385c1.133.783.988,2.577.185,3.694a21.783,21.783,0,0,1-3.052,2.763,8.293,8.293,0,0,0-2.161,8.356c3.521,1.786,7.348,3.625,11.248,3s7.36-5,5.528-8.489c-1.707-3.25-6.834-3.983-7.715-7.545-1.032-4.17,4.887-7.879,3.553-11.963-.584-1.789-2.372-2.842-3.744-4.134a11.2,11.2,0,0,1-2.461-12.437,14.213,14.213,0,0,1-12.444-3.884c-2.976-3-5.351-7.722-9.577-7.588-3.879.123-7.219,4.636-10.846,3.259-.892-.339-1.833-1.028-2.7-.624a2.222,2.222,0,0,0-1.006,1.666c-.922,4.395.664,9.4-1.738,13.2-2.613,4.132-8.658,4.705-11.826,8.432-1.72,2.023-2.386,4.749-3.967,6.881s-4.936,3.489-6.833,1.63a9.376,9.376,0,0,0-2.559-11.422,25.157,25.157,0,0,0-5.651-2.742,33.53,33.53,0,0,1-6.313-3.509,6.208,6.208,0,0,1-2.318-2.473,5.622,5.622,0,0,1,.158-3.911A16.025,16.025,0,0,1,280.808,275.8c2.526-.343,5.466-.222,7.137-2.141.884-1.016,1.349-2.551,2.632-2.964a3.892,3.892,0,0,1,2.43.3l9.428,3.31a6.633,6.633,0,0,0,3.359.554,2.273,2.273,0,0,0,1.969-2.387c-.3-1.562-2.71-2.311-2.491-3.886a2.593,2.593,0,0,1,.789-1.323A33.753,33.753,0,0,1,332.8,256.732c1.19,1.949-.692,4.257-2.258,5.921s-2.824,4.637-.931,5.918a5.2,5.2,0,0,0,2.51.564,21.964,21.964,0,0,1,6.681,2.021q4.887,2.121,9.586,4.641c-.277-2.06-.541-4.23.242-6.157s3.008-3.437,4.952-2.687c1.873.723,2.834,3.2,4.829,3.423,2.662.3,3.712-3.62,2.6-6.051s-3.313-4.467-3.5-7.133c-.124-1.8.562-4.029-.878-5.118a3.929,3.929,0,0,0-1.7-.594l-35.966-6.6c-2.136-.392-5.221-.092-5.316,2.072-.053,1.208,1.029,2.4.55,3.513-.511,1.185-2.191,1.077-3.415,1.5-1.9.65-2.851,2.9-2.669,4.892a13.594,13.594,0,0,0,2.253,5.513C308.031,261.393,304.489,261.213,302.15,260.237Z" transform="translate(-79.792 -215.66)" fill="#f7f8fa"/>
      <path id="Path_276" data-name="Path 276" d="M289.066,229a11.646,11.646,0,0,0-12.793,3.831c-.592.78-1.09,1.855-.594,2.7.711,1.21,2.522.732,3.857.3a9.708,9.708,0,0,1,6.092-.145c1.254.43,2.375,1.191,3.635,1.605a3.66,3.66,0,0,0,3.732-.545,4.859,4.859,0,0,0,.92-3.486,2.8,2.8,0,0,0-.714-2.3,3.664,3.664,0,0,0-1.652-.489,5.691,5.691,0,0,1-3.331-1.946" transform="translate(-95.87 -214.894)" fill="#f7f8fa"/>
      <path id="Path_277" data-name="Path 277" d="M304.066,225.127A2.963,2.963,0,0,0,301.2,229.3a12.009,12.009,0,0,0,4.788.312,4.092,4.092,0,0,0,3.347-3.068,7.7,7.7,0,0,1-5.455-1.042" transform="translate(-97.957 -214.631)" fill="#f7f8fa"/>
      <path id="Path_278" data-name="Path 278" d="M350.555,218.234a55.074,55.074,0,0,0-12.277,4.171,9.225,9.225,0,0,1,5.892,9.265,4.824,4.824,0,0,0,.056,2.291c.451,1.093,1.758,1.5,2.906,1.784a19.16,19.16,0,0,0,6.374.814,6.493,6.493,0,0,0,5.276-3.224,22.975,22.975,0,0,1,1.1-2.594c2.753-4.193,10.933.877,13.889-3.176,1.041-1.428.946-3.577,2.3-4.708a5.176,5.176,0,0,1,2.368-.9,166.312,166.312,0,0,1,17.989-2.562c2.861-.249,6.59-1.276,6.614-4.148a49.828,49.828,0,0,0-31.785,4.276c-3.543,1.775-8.229,5.508-11.642,3.155-1.278-.881-1.215-3.253-2.974-4.244C354.845,217.416,352.464,217.828,350.555,218.234Z" transform="translate(-101.062 -213.768)" fill="#f7f8fa"/>
      <path id="Path_279" data-name="Path 279" d="M389.764,224.777l5.059.972a6.555,6.555,0,0,0-6.822,7.1c4.737,1.583,9.9.043,14.892.253s10.8,3.775,9.945,8.7c-.258,1.488-1.117,2.975-.67,4.418.313,1.011,1.205,1.729,1.708,2.66,1.049,1.94.211,4.395-1.114,6.159s-3.1,3.171-4.267,5.046c-2.891,4.662-1.249,10.69.474,15.9a14.017,14.017,0,0,0,2.7,5.382c2.552,2.713,6.71,2.949,10.434,3,2.71.04,5.815-.094,7.529-2.194,2.238-2.742.673-7.019,2.146-10.237,1.338-2.922,4.747-4.176,7.836-5.065,5.659-1.629,11.425-3.014,16.775-5.474,6.643-3.055,12.851-7.817,20.152-8.21,2.048-.11,4.147.131,6.121-.43s3.847-2.267,3.7-4.313c-.128-1.748-1.607-3.032-2.762-4.349s-2.063-3.344-1-4.738l19.137-3.574c-1.357-3.7-2.413-8.566.7-10.972,1.125-.868,2.631-1.215,3.588-2.265,1.632-1.789.811-4.871-1.073-6.392s-4.432-1.875-6.845-2.075c-8.391-.7-16.831-.236-25.238.224l-49.3,2.7c-3.309.181-7.128-.1-10.163,1.033-2.569.956-4.4,2.71-7.333,3.326C400.641,222.5,394.672,221.732,389.764,224.777Z" transform="translate(-105.201 -213.722)" fill="#f7f8fa"/>
      <path id="Path_280" data-name="Path 280" d="M488.224,268.869a2.035,2.035,0,0,0-1.472.334,1.859,1.859,0,0,0-.479,1.135,7.5,7.5,0,0,0,1.089,5.367,5.255,5.255,0,0,0,4.811,2.306c2.278-.29,3.957-2.234,6.051-3.182,3.228-1.46,16.935-3.737,7.453-8.859-3.268-1.765-5.379-.207-7.954.956a18.1,18.1,0,0,1-9.5,1.943Z" transform="translate(-113.185 -217.827)" fill="#f7f8fa"/>
      <path id="Path_281" data-name="Path 281" d="M578.4,222.311a5.414,5.414,0,0,0-2.634,2.293,2.314,2.314,0,0,0,.868,3.069,3.453,3.453,0,0,0,1.292.2l4.5.134c1.913.057,4.3.465,4.815,2.307.382,1.368-.473,3.127.558,4.1a2.9,2.9,0,0,0,1.531.6,10.436,10.436,0,0,0,4.536.146c3.276-.879,1.554-2.878,2.586-4.658,1.578-2.724,1.305-1.075,4.086-2.636,2.054-1.153,4.708-3.244,2.994-6.182C600.555,216.583,582.8,220.117,578.4,222.311Z" transform="translate(-120.533 -214.148)" fill="#f7f8fa"/>
      <path id="Path_282" data-name="Path 282" d="M673.468,219.759l-2.614.349a105.3,105.3,0,0,0-17.5,3.351,29.133,29.133,0,0,0,7.665,1.881,23.54,23.54,0,0,1,4.293.61c2.508.746,5.035,2.674,7.457,1.687,1.5-.612,1.992-2.176,3.237-3.005.859-.572,4.118-1.5,4.482-2.076C683.432,217.883,675.732,219.457,673.468,219.759Z" transform="translate(-126.931 -214.164)" fill="#f7f8fa"/>
      <path id="Path_283" data-name="Path 283" d="M686.643,232.5A49.017,49.017,0,0,0,677,239.567c-1.228,1.155-2.483,2.591-2.371,4.273.148,2.236,2.529,3.532,4.592,4.406l8.357,3.538c1.014-1.429.086-3.4-.962-4.805s-2.293-3.029-1.83-4.718c.528-1.928,2.879-2.585,4.851-2.918,3.212-.541,11.877-.5,10.836-5.675C699.243,227.568,689.868,230.7,686.643,232.5Z" transform="translate(-128.676 -215.027)" fill="#f7f8fa"/>
      <path id="Path_284" data-name="Path 284" d="M685.811,604.81c-.8,2.3-.871,5.016.505,7.027a7.12,7.12,0,0,0,7.308,2.525A13.167,13.167,0,0,0,700.409,610a23.372,23.372,0,0,0,3.9-5.985,46.725,46.725,0,0,0,2.893-10.585l2.595-13.623c.58-3.045.557-12.379-5.038-9.338-1.529.831-5.068,7.39-6.67,9.25-2.887,3.353-3.269,6.605-4.789,10.667C691.4,595.475,687.571,599.715,685.811,604.81Z" transform="translate(-129.547 -243.051)" fill="#f7f8fa"/>
      <path id="Path_285" data-name="Path 285" d="M1006.345,683.378a40.808,40.808,0,0,1-5.317-2.532,44.829,44.829,0,0,0-2.7,14.691l12.53-7.09c1.885-1.067,4.021-2.548,3.981-4.714a1.492,1.492,0,0,0-.693-1.356,1.69,1.69,0,0,0-.878-.1c-1.858.155-3.552,1.069-5.3,1.7s-3.8.972-5.41.028" transform="translate(-155.501 -252.224)" fill="#f7f8fa"/>
      <path id="Path_286" data-name="Path 286" d="M1077.11,687.792a27.129,27.129,0,0,0-4.018,1.442c-2.875,1.463-4.831,4.242-7.419,6.169a29.427,29.427,0,0,1-8.382,3.841c-.861.761-.466,2.293.469,2.961a5.814,5.814,0,0,0,3.309.744c3.04.067,6.242.1,8.9-1.372a28.076,28.076,0,0,0,4.192-3.328c3.113-2.6,6.852-4.311,10.553-5.968a12.107,12.107,0,0,0,3.678-2.2c2.326-2.291,2.489-5.826-.864-6.605C1084.821,682.847,1079.687,686.957,1077.11,687.792Z" transform="translate(-160.167 -252.429)" fill="#f7f8fa"/>
      <path id="Path_287" data-name="Path 287" d="M1109.639,666.7a10.452,10.452,0,0,0-3.2-8.564c-.035,3.154-.131,6.514-1.9,9.123-1.264,1.859-3.245,3.114-4.63,4.884s-2,4.576-.375,6.129a6.088,6.088,0,0,0,3.607,1.243c3.234.381,6.976.593,9.244-1.743,1.238-1.275,1.84-3.163,3.35-4.1a4.074,4.074,0,0,0,1.47-1.052c.623-.991-.367-2.3-1.482-2.654s-2.344-.189-3.464-.528-2.148-1.6-1.574-2.619" transform="translate(-163.498 -250.412)" fill="#f7f8fa"/>
      <path id="Path_288" data-name="Path 288" d="M1049.8,540.827a14.531,14.531,0,0,1-5.186.306c-2.879-.529-5.119-2.7-7.443-4.478a32.828,32.828,0,0,0-19.182-6.7c-6.315-.119-12.689,1.592-18.891.4.405,2.254,2.334,3.944,4.392,4.949s4.329,1.51,6.4,2.495a15.271,15.271,0,0,1,7.4,7.7,21.74,21.74,0,0,0,2.094,4.6c2.062,2.774,5.97,3.383,9.419,3.156,4.5-.3,9.193-1.589,13.377.086,3.2,1.282,5.491,4.083,8.163,6.261s6.436,3.795,9.5,2.223a15.713,15.713,0,0,1-10.872-15.119c3.01.277,11.678.17,11.211-4.944C1059.788,537.424,1052.389,540.359,1049.8,540.827Z" transform="translate(-155.562 -239.742)" fill="#f7f8fa"/>
      <path id="Path_289" data-name="Path 289" d="M1003.627,578.8c.534-2.931,3.457-5.519,2.547-8.355-.63-1.962-2.9-2.93-4.964-2.979s-4.083.565-6.142.623a29.9,29.9,0,0,0-4.022.057c-4.088.672-6.608,4.957-10.46,6.48-2.343.926-4.974.749-7.411,1.39-5.53,1.454-9.03,6.68-12.9,10.893a46.021,46.021,0,0,1-23.359,13.622c-3.144.728-6.525,1.194-9.024,3.236-3.31,2.7-4.125,7.341-4.861,11.551a190.766,190.766,0,0,1-9.288,34.095l13.132,1.677c2.5.319,5.084.63,7.49-.109a21.737,21.737,0,0,0,4.926-2.624,49.18,49.18,0,0,1,19.213-6.935c3.439-.472,7.044-.559,10.271.719s6,4.177,6.266,7.638a8.067,8.067,0,0,1,8.063,1.961,14.015,14.015,0,0,1,3.85,7.685c.346,1.8.692,3.949,2.359,4.7,1.36.615,2.92-.048,4.408-.166,5.049-.4,9.238,5.483,14.2,4.469,5.322-1.087,6.629-9.058,11.821-10.654,2.982-.917,7.165.2,8.593-2.576,1.259-2.445-1.252-5.266-.993-8,.319-3.371,4.3-4.8,7.36-6.24,10.568-4.959,15.583-19.182,10.462-29.672-3.034-6.215-9-11.108-10.106-17.936-.849-5.253,1.223-11.379-2.127-15.514-1.7-2.1-4.588-3.265-5.6-5.774-.638-1.58-.382-3.372-.725-5.041s-1.8-3.415-3.448-2.982c-4.784,1.256-6.311,16.035-8.872,19.625C1010.391,589.121,1002.394,585.526,1003.627,578.8Z" transform="translate(-148.752 -242.899)" fill="#f7f8fa"/>
      <path id="Path_290" data-name="Path 290" d="M914.732,547.787c-1.635-.458-3.42-.91-4.987-.255s-2.481,2.955-1.224,4.1c9.836-.383,19.732-.764,29.484.572,11.236,1.539,22.356,5.351,33.641,4.23a171.219,171.219,0,0,0-19.624-4.554l-11.048-2.111A85.461,85.461,0,0,0,932,548.38C925.7,547.859,920.93,549.524,914.732,547.787Z" transform="translate(-148.288 -241.122)" fill="#f7f8fa"/>
      <path id="Path_291" data-name="Path 291" d="M925.206,509.584c-.816-.068-1.828-.127-2.25.575-.4.671.058,1.557-.159,2.309-.3,1.028-1.642,1.29-2.7,1.15s-2.207-.475-3.146.036a2.667,2.667,0,0,0-1.031,3.029,7.8,7.8,0,0,0,1.819,2.9,29.615,29.615,0,0,0,4.719,4.733c3.38,2.5,7.96,3.7,10.089,7.32a4.856,4.856,0,0,0,1.348,1.813c1.022.647,2.355.155,3.455-.348l3.858-1.763a4.385,4.385,0,0,0,1.8-1.226c.881-1.2.34-2.9-.4-4.184s-1.686-2.622-1.528-4.1c.283-2.633,3.669-3.641,5.061-5.894,1.4-2.271.49-5.2.651-7.862.189-3.116,2.148-7.17-1-9.5-2.678-1.979-5.237-.15-7.16,2.034C934.575,505.217,932.659,510.207,925.206,509.584Z" transform="translate(-148.915 -237.097)" fill="#f7f8fa"/>
      <path id="Path_292" data-name="Path 292" d="M951.406,459.222c1.317,2.522,4.062,4.026,5.5,6.482,1.557,2.662,1.379,6.1,3.068,8.681,1.732,2.647,5.219,4.052,6.191,7.063,1.061,3.287-1.346,7.282.573,10.154a4.262,4.262,0,0,0,6.252.574,4.586,4.586,0,0,0-.189-6.4c-1.136-1.036-2.767-1.483-3.715-2.693a5.655,5.655,0,0,1-.962-2.343,15.34,15.34,0,0,1,.242-7.352,3.274,3.274,0,0,0,.185-1.923c-.427-1.241-2.108-1.329-3.287-1.9-2.679-1.308-2.614-5.088-2.146-8.032-.312,1.96-7.294-1.374-8.025-2.484-1.452-2.206-.662-6.46-.949-8.9C951.005,451.66,949.8,456.139,951.406,459.222Z" transform="translate(-151.7 -233.19)" fill="#f7f8fa"/>
      <path id="Path_293" data-name="Path 293" d="M874.481,501.968c-1.289-1.443-3.23-2.952-4.957-2.082a3.138,3.138,0,0,0-1.164,3.87,8.517,8.517,0,0,0,2.811,3.352c3.6,2.969,7.477,5.649,10.618,9.1,5.621,6.177,8.6,14.512,14.712,20.2a8.252,8.252,0,0,0,4.632,2.507c1.781.166,3.781-.974,3.986-2.751.169-1.464-.852-2.774-1.849-3.859-2.375-2.583-4.974-4.961-7.216-7.659a6.437,6.437,0,0,1-1.845-3.852c-.011-1.453,1.314-2.974,2.722-2.614-1.712-.437-2.982-3.29-5.5-3.827-2.1-.448-2.609.852-5.108-.22C881.56,512.092,877.819,505.706,874.481,501.968Z" transform="translate(-144.602 -237.258)" fill="#f7f8fa"/>
      <path id="Path_294" data-name="Path 294" d="M994.574,349.38a39.465,39.465,0,0,1-4.027-1.439c-3.54-1.063-8.223,1.539-7.751,5.2.314,2.435,2.58,4.077,3.832,6.19,1.856,3.133,1.361,7.106.386,10.615a8.3,8.3,0,0,1-1.339,3.02,10.23,10.23,0,0,1-3.173,2.281A42.422,42.422,0,0,0,970.088,385.8a3.039,3.039,0,0,0-.75,1.413c-.169,1.237,1.075,2.139,1.779,3.171,1.562,2.293.433,5.378.588,8.149a2.3,2.3,0,0,0,.971,2.021c.942.478,2.057-.334,2.568-1.259,1.694-3.069.418-7.994,3.6-9.474.6-.28,1.33-.4,1.731-.926.636-.838.022-2.078.345-3.079.484-1.5,2.54-1.571,4.118-1.5a23.372,23.372,0,0,0,8.028-1.069,5.343,5.343,0,0,0,2.657-1.539c.95-1.185.866-2.871.676-4.378a59.345,59.345,0,0,0-7.012-21.395c2.791.356,5.828.665,8.236-.789,1.349-.814,2.966-3.25,2.3-4.908C998.859,347.611,996.946,349.817,994.574,349.38Z" transform="translate(-153.186 -224.762)" fill="#f7f8fa"/>
      <path id="Path_295" data-name="Path 295" d="M597.97,392.728a10.751,10.751,0,0,1,.075,5.4c-.587,1.725-2.434,3.167-4.178,2.638-1.353-.41-2.135-1.771-3.1-2.809-5.345-5.77-17.4-2.429-20.705-9.568-1.348-2.913-.432-6.4-1.351-9.479a8.437,8.437,0,0,0-8.544-5.8,17.553,17.553,0,0,0-4.917,1.468,123.986,123.986,0,0,1-32.577,8.148,26.764,26.764,0,0,0-6.259,1.139c-4.59,1.664-7.726,5.919-9.958,10.261s-3.879,9.043-6.872,12.9c-3.145,4.054-7.551,6.893-11.662,9.964a11.9,11.9,0,0,0-3.847,4.032,12.613,12.613,0,0,0-.772,5.991l.84,24.7c.108,3.177.244,6.468,1.666,9.311,1.776,3.551,5.284,5.876,7.717,9.013a17.652,17.652,0,0,1,3.662,11.273c-.052,1.635-.214,3.57,1.059,4.6a4.658,4.658,0,0,0,2.6.749l33.415,2.735c5.878.481,12.392,1.272,16.229,5.75,1.811,2.113,3.266,5.153,6.04,5.38a22.455,22.455,0,0,0,3.538-.486c3-.238,5.64,2.041,7.305,4.551a20.193,20.193,0,0,1,3.243,12.957c-.273,2.864-1.161,5.647-1.352,8.518-.728,10.921,8.53,20.409,8.709,31.353.106,6.437-2.95,12.452-5.93,18.159,4.809,7.284.871,16.984,2.785,25.5,1.816,8.079,8.553,14.4,10.231,22.513.768,3.712.813,8.28,4.086,10.193a9.316,9.316,0,0,0,4.624.926,60.957,60.957,0,0,0,27.758-6.32c4.047-2.009,8.242-5.007,8.949-9.47.57-3.6-1.255-7.625.6-10.76,2.189-3.7,7.8-3.4,11.018-6.243,5.226-4.609,1.151-13.4,3.268-20.036,1.9-5.967,8.454-9.137,11.7-14.492a25.754,25.754,0,0,0,2.719-7.37,105.142,105.142,0,0,0,2.766-18.8,112.715,112.715,0,0,1,.85-11.513c3.5-21.752,25.005-36.317,31.987-57.213.667-2,.98-4.654-.8-5.783a5.084,5.084,0,0,0-3.381-.354l-15.4,1.942c-1.913.241-3.941.467-5.7-.328s-3.016-3.017-2.084-4.706c2.616-4.739-2.765-10.727-5.156-15.584a229.95,229.95,0,0,0-22.9-37.137,3.777,3.777,0,0,1-1-2.18l4.372.146c-1.476-5.3-3.911-11.09-9.056-13.027-2.9-1.091-6.109-.714-9.2-.545C616.236,395.422,606.738,394.084,597.97,392.728Z" transform="translate(-113.193 -227.241)" fill="#f7f8fa"/>
      <path id="Path_296" data-name="Path 296" d="M627.562,261.645c2.318,2.462,4.916,5.072,8.27,5.5,5.924.758,10.184-5.368,12.9-10.69a5.224,5.224,0,0,0,5.451,4.832,10.762,10.762,0,0,0,4.1-1.6A80.762,80.762,0,0,1,696.54,249.8a4.132,4.132,0,0,1,3.155-4.542c2.72-.539,5.169,1.812,6.481,4.255s2.13,5.274,4.214,7.1,6.12,1.749,6.943-.9c.791-2.542-1.857-4.709-4.057-6.208s-4.519-4.272-3.037-6.483c11.239-2.488,22.547-4.985,34.048-5.48a14.259,14.259,0,0,0,5.731-.987c1.754-.861,3.148-2.814,2.676-4.71a12.978,12.978,0,0,1-13.544-5.109c15.957-1.317,32.93-2.439,47.071,5.069,1.7,3.643-6.952,6.674-4.638,9.96.738,1.048,2.217,1.171,3.5,1.195,9.828.182,19.712.361,29.428-1.122,3.551-.542,7.137-1.308,10.7-.868,5.938.732,11.016,4.694,16.858,5.986,2.378.526,5.044.544,7.048-.839s2.866-4.532,1.223-6.33c5.5-5.391,14.629-4.055,21.885-1.474s14.13,6.743,21.81,7.318c5.507.412,11.091-1.069,16.533-.127,3.42.592,6.6,2.113,9.944,3.048,6.321,1.768,13.008,1.395,19.571,1.48a137.133,137.133,0,0,1,48.869,9.711,14.53,14.53,0,0,1,5.433,3.21c1.448,1.55,2.186,3.96,1.213,5.845l-16.079-2.349c1.515,2.982,5.434,3.49,8.617,4.519s6.483,4.544,4.57,7.288c-3.448-1.1-6.574,2.35-8.316,5.522s-3.865,6.972-7.479,7.165c-3.236.173-7.15-2.583-9.259-.122a63.145,63.145,0,0,1,7.44,11.9c2.084,4.342,3.568,9.812.752,13.719a3.557,3.557,0,0,1-1.9,1.474c-2.3.582-3.8-2.232-5.445-3.938-2.079-2.149-5.223-2.758-8.038-3.766s-5.781-2.991-6-5.973c-.137-1.855.843-3.58,1.564-5.3a20.4,20.4,0,0,0,1.55-9.15,10.394,10.394,0,0,0-2.672-6.894c-1.808-1.759-4.929-2.317-6.869-.706-.906.752-1.631,1.954-2.807,2-2.078.079-3.673-3.543-5.344-2.306a5.681,5.681,0,0,1-.772,3.8c-4.988,4.338-12.651,2.5-19.082,4.036a35.813,35.813,0,0,0-8.706,3.8,5.6,5.6,0,0,0-2.488,2.089c-.8,1.56.082,3.558,1.5,4.595a11.886,11.886,0,0,0,4.937,1.685c7.839,1.485,15.794,3.783,21.983,8.819s10.248,13.36,8.29,21.095l-15.46-14.773q.881,9.3,1,18.66a8.389,8.389,0,0,1-.49,3.589c-1.1,2.434-4.09,3.254-6.707,3.791a5.254,5.254,0,0,0-4.033,6.731c.93,3.032,3.249,5.395,5.372,7.75s4.213,5.032,4.491,8.19-2.105,6.719-5.268,6.5c-2.4-.167-4.177-2.313-5.2-4.489s-1.631-4.6-3.168-6.447c-4.652-5.594-15.1-3.2-19.267-9.162a9.424,9.424,0,0,0-1.949,8.968c1.939-1.214,4.592-.086,6.049,1.677s2.144,4.024,3.288,6c1.543,2.673,4,5.042,4.215,8.121a26.5,26.5,0,0,0,.059,3.492c.383,1.865,1.959,3.2,3.053,4.764,2.544,3.628,2.418,8.612.778,12.729s-4.585,7.556-7.5,10.891c-5.1,5.825-10.3,11.616-16.337,16.453-1.724,1.38-3.564,2.738-4.637,4.667s-1.129,4.638.521,6.106c-1.181.059-3.3.64-4.478.7a104.119,104.119,0,0,1-.27-14.242c-4.659-2.237-9.674,3.754-9.073,8.887s4.314,9.252,6.957,13.693c1.933,3.247,3.37,7.034,2.724,10.758s-3.969,7.159-7.734,6.83c-5.989-.522-8.493-9.119-14.423-10.1a2.424,2.424,0,0,0-1.561.155c-.88.483-1.033,1.661-1.082,2.664-.242,4.922-.453,10.04,1.469,14.579,2.811,6.639,10.073,12.215,8.55,19.262-8.206-3.815-12.473-13.017-14.41-21.857s-2.26-18.12-5.733-26.477c-2.637,3.38-8.179.586-10.589-2.96-2.284-3.361-3.69-7.25-5.906-10.657s-5.611-6.457-9.67-6.644c-4.257-.2-7.948,2.724-11.194,5.484-2.67,2.27-5.41,4.628-6.971,7.765-2.271,4.565-1.677,9.947-1.786,15.044-.118,5.511-1.286,11.325-5.042,15.359s-10.689,5.44-14.831,1.8c-2.163-1.9-3.21-4.734-4.143-7.457a365.071,365.071,0,0,1-11.216-40.039c-.7,3.092-3.411,7.078-6.006,5.257a5.377,5.377,0,0,1-1.384-1.783c-4.839-8.2-13.8-13.12-22.854-16.07s-18.58-4.325-27.533-7.567a69.743,69.743,0,0,1-14.283-7.115,11.233,11.233,0,0,0-.686,11.491,9.153,9.153,0,0,0,10.328,4.322c1.988-.635,3.667-2.015,5.64-2.7s4.62-.347,5.483,1.554c.826,1.819-.422,4.02.2,5.919.943,2.893,5.306,3.116,6.832,5.748,1.135,1.959.2,4.559-1.42,6.14s-3.783,2.447-5.762,3.547c-6.42,3.57-10.984,9.664-16.595,14.4s-13.526,8.2-20.212,5.161c1.594-8.07-8.02-14-9.789-22.029-.582-2.644-.28-5.453-1.111-8.03-1.2-3.731-4.513-6.3-7.229-9.124a35.807,35.807,0,0,1-9.821-26.051c.147-3.32.757-6.695,0-9.931s-3.436-6.369-6.756-6.222c-7.584.335-17.137.9-21.116-5.566-1.42-2.307-2.038-5.686.015-7.454,1.448-1.247,3.586-1.129,5.488-.942l17.087,1.681c4,.393,8.316.718,11.746-1.372s4.915-7.635,1.74-10.093c-2.32-1.8-6.477-1.7-7.152-4.554-.562-2.378,2.07-5.077.649-7.064-1.019-1.425-3.311-1.03-4.7.039s-2.4,2.631-3.951,3.439c-2.726,1.419-5.984.069-8.918-.849s-6.866-1-8.289,1.729c-1.591,3.047,1.411,7.04-.168,10.093-2.088,4.037-9.158,1.739-12.091,5.211-3.365,3.984,2.29,9.926,1.155,15.016a9.348,9.348,0,0,1-9.209-.517,8.945,8.945,0,0,1-3.865-8.328c.281-2.29,1.475-4.627.675-6.791-.647-1.749-2.4-2.791-4.036-3.693l-16.6-9.175c-1.542,2.86.407,6.405,2.845,8.553s5.491,3.766,7.092,6.593a8.654,8.654,0,0,1-3.256,11.409,2,2,0,0,1-1.646.287,2.3,2.3,0,0,1-1.067-1.435c-2.93-7.5-7.328-14.889-14.361-18.806s-17.137-3.111-21.749,3.486c-1.1,1.567-1.83,3.353-2.785,5.01-5.069,8.8-15.937,12.97-26.091,12.7a5.181,5.181,0,0,1-2.846-.669c-1.641-1.133-1.567-3.538-1.316-5.517l1.066-8.4c.214-1.686.524-3.55,1.859-4.6,1.881-1.484,4.595-.547,6.99-.582a8.859,8.859,0,0,0,8.041-6.206,9.984,9.984,0,0,0-2.779-9.928c-1.1-1.031-2.572-2.327-1.992-3.717a3.073,3.073,0,0,1,2.155-1.451c4.3-1.25,8.85-1.577,13.081-3.052s8.335-4.491,9.337-8.858c.307-1.338.447-2.96,1.649-3.623a4.945,4.945,0,0,1,1.906-.389,9.274,9.274,0,0,0,7.955-9.668c2.028-1.417,4.869-.375,6.831,1.132s3.694,3.5,6.081,4.148c4.448,1.211,8.747-2.728,13.358-2.746,1.939-.008,3.945.678,5.77.021,1.849-.666,2.953-2.507,4.372-3.867s3.909-2.189,5.219-.724l-1.116-8.265a16.249,16.249,0,0,0,13.224-2.391l-14.422-4.873a3.135,3.135,0,0,1-1.349-.721c-1.048-1.129-.007-2.888.846-4.172,2.04-3.07,2.382-8.128-.972-9.656-2.289-1.043-4.917.209-7.115,1.434l-10.526,5.869c-.335,2,2.112,3.135,3.629,4.482a6.084,6.084,0,0,1-3.967,10.63,7.58,7.58,0,0,1,1.354,6.427l-7.082.509a3.068,3.068,0,0,1-2.3-.448c-.758-.673-.655-1.852-.83-2.849-.424-2.408-2.782-4.1-5.188-4.529a18.248,18.248,0,0,0-7.251.67,4.329,4.329,0,0,1-3.117-.072,3.113,3.113,0,0,1-1.233-1.556c-1.045-2.533-.068-5.511,1.61-7.677s3.975-3.75,6.038-5.553a35.194,35.194,0,0,0,10.464-16.23c3.9-1.633,7.935-3.853,11.834-5.486a36.211,36.211,0,0,1,19.464-3.771l13.2.252c3.909.075,7.924.17,11.539,1.661s6.791,4.714,7.04,8.615a2.645,2.645,0,0,1-.847,2.418,3.118,3.118,0,0,1-1.669.376C632.763,260.609,631.208,261.517,627.562,261.645Z" transform="translate(-116.867 -214.684)" fill="#f7f8fa"/>
      <path id="Path_297" data-name="Path 297" d="M522.081,309.344a3.864,3.864,0,0,0,1.053-3.886,7.227,7.227,0,0,0-7.483,1.413,12.61,12.61,0,0,0-2,2.65c-1.735,2.831-3.27,6.212-2.264,9.376a2.663,2.663,0,0,0,1.219,1.667,3.2,3.2,0,0,0,1.421.223,47.617,47.617,0,0,0,5.718-.352c1.165-.143,2.518-.471,2.969-1.555.592-1.425-.841-3.037-.423-4.523a4.94,4.94,0,0,1,1.22-1.747,2.31,2.31,0,0,0,.72-1.939c-.169-.7-1.236-1.092-1.62-.487" transform="translate(-115.22 -221.222)" fill="#f7f8fa"/>
      <path id="Path_298" data-name="Path 298" d="M533.183,295.724A16,16,0,0,0,528,295.4a2.26,2.26,0,0,0-1.1.251,1.843,1.843,0,0,0-.68.985,4.895,4.895,0,0,0,2.85,6,6.126,6.126,0,0,1,1.767.71c1.466,1.137.531,3.461.809,5.295.311,2.059,2.3,3.788,1.939,5.838-.288,1.615-2.013,2.895-1.735,4.512.291,1.694,2.44,2.2,4.153,2.338a5.224,5.224,0,0,0,2.943-.337A4.558,4.558,0,0,0,540.8,318.3a17.234,17.234,0,0,0,.868-6.489,6.152,6.152,0,0,0-.732-2.864,15.978,15.978,0,0,0-1.71-1.958C535.943,303.171,539.4,297.476,533.183,295.724Z" transform="translate(-116.45 -220.433)" fill="#f7f8fa"/>
    </g>
    <g id="Group_244" data-name="Group 244" transform="translate(134.331 99.065)">
      <path id="Path_299" data-name="Path 299" d="M938.446,597.088S687.891,452.777,580.025,480.12c0,0-228.6,24.685-255.094,78.991,0,0-72.668-227.859-99.161-235.453" transform="translate(-225.77 -322.139)" fill="none" stroke="#7dc4a6" stroke-miterlimit="10" stroke-width="0.7" opacity="0.8"/>
      <path id="Path_300" data-name="Path 300" d="M324.931,558.979C366.942,446.569,745.42,322.007,745.42,322.007c-53.744,13.672-165.395,157.981-165.395,157.981S343.855,307.575,225.77,323.525c0,0,520.028,17.089,712.673,273.429" transform="translate(-225.77 -322.007)" fill="none" stroke="#7dc4a6" stroke-miterlimit="10" stroke-width="0.7" opacity="0.8"/>
    </g>
    <g id="Group_243" data-name="Group 243" transform="translate(123.319 88.056)">
      <g transform="matrix(1, 0, 0, 1, -123.32, -88.06)" filter="url(#Ellipse_25)">
        <circle id="Ellipse_25-2" data-name="Ellipse 25" cx="11.013" cy="11.013" r="11.013" transform="translate(123.32 89.58)" fill="#7dc4a6"/>
      </g>
      <g transform="matrix(1, 0, 0, 1, -123.32, -88.06)" filter="url(#Ellipse_26)">
        <circle id="Ellipse_26-2" data-name="Ellipse 26" cx="11.013" cy="11.013" r="11.013" transform="translate(222.82 325.03)" fill="#7dc4a6"/>
      </g>
      <g transform="matrix(1, 0, 0, 1, -123.32, -88.06)" filter="url(#Ellipse_27)">
        <circle id="Ellipse_27-2" data-name="Ellipse 27" cx="11.013" cy="11.013" r="11.013" transform="translate(642.97 88.06)" fill="#7dc4a6"/>
      </g>
      <g transform="matrix(1, 0, 0, 1, -123.32, -88.06)" filter="url(#Ellipse_28)">
        <circle id="Ellipse_28-2" data-name="Ellipse 28" cx="11.013" cy="11.013" r="11.013" transform="translate(835.99 363)" fill="#7dc4a6"/>
      </g>
      <g transform="matrix(1, 0, 0, 1, -123.32, -88.06)" filter="url(#Ellipse_29)">
        <circle id="Ellipse_29-2" data-name="Ellipse 29" cx="11.013" cy="11.013" r="11.013" transform="translate(477.57 246.04)" fill="#7dc4a6"/>
      </g>
    </g>
  </g>
</svg>
