<svg xmlns="http://www.w3.org/2000/svg" width="40" height="40.077" viewBox="0 0 40 40.077">
  <g id="beauty-treatment" transform="translate(0 0)">
    <path id="Path_1084" data-name="Path 1084" d="M53.1,160.326l-1.323.049a3.316,3.316,0,0,0-3.312,3.312v2.65a3.316,3.316,0,0,0,3.312,3.312h.5a15.95,15.95,0,0,0,.532,2.832l1.274-.364a14.8,14.8,0,0,1-.541-3.211C53.533,168.88,53.1,160.326,53.1,160.326Zm-3.31,6.011v-2.65a1.99,1.99,0,0,1,1.987-1.987h.067l.338,6.625h-.405A1.99,1.99,0,0,1,49.785,166.337Z" transform="translate(-44.485 -146.929)" fill="#3d4642"/>
    <path id="Path_1085" data-name="Path 1085" d="M167.922,372.59l-1.007-.86a12.649,12.649,0,0,1-1.634,1.6,13.044,13.044,0,0,1-3.114,1.942,6.076,6.076,0,0,1-4.844,0,13.047,13.047,0,0,1-3.114-1.942l-1.088.508v2.193a12.284,12.284,0,0,1-.629,3.873.663.663,0,0,0,.629.871H166.37A.662.662,0,0,0,167,379.9a12.283,12.283,0,0,1-.629-3.873v-1.9a14.024,14.024,0,0,0,1.553-1.541Zm-13.916,6.857a13.57,13.57,0,0,0,.439-3.418v-.866a14.292,14.292,0,0,0,2.343,1.32,7.3,7.3,0,0,0,5.913,0,14.307,14.307,0,0,0,2.343-1.319v.865a13.57,13.57,0,0,0,.439,3.418Z" transform="translate(-139.74 -340.695)" fill="#3d4642"/>
    <path id="Path_1086" data-name="Path 1086" d="M283.66,226.591l.348-1.278a10.78,10.78,0,0,0-5.648,0l.348,1.278A9.456,9.456,0,0,1,283.66,226.591Z" transform="translate(-255.178 -206.186)" fill="#3d4642"/>
    <path id="Path_1087" data-name="Path 1087" d="M197.983,313.49l-.492,1.231.175.07a9.2,9.2,0,0,0,3.383.64,9.347,9.347,0,0,0,2.14-.247l-.305-1.29a8.047,8.047,0,0,1-4.727-.333Z" transform="translate(-181.054 -287.357)" fill="#3d4642"/>
    <path id="Path_1088" data-name="Path 1088" d="M274.649,170.524a5.488,5.488,0,0,0-7.517-.008l.882.987a4.139,4.139,0,0,1,5.733-.008Z" transform="translate(-244.877 -154.939)" fill="#3d4642"/>
    <path id="Path_1089" data-name="Path 1089" d="M123.015,170.523l.9.97a4.14,4.14,0,0,1,5.733.008l.882-.987A5.488,5.488,0,0,0,123.015,170.523Z" transform="translate(-112.787 -154.939)" fill="#3d4642"/>
    <path id="Path_1090" data-name="Path 1090" d="M232.46,200.92h1.325v7.287H232.46Z" transform="translate(-213.122 -184.153)" fill="#3d4642"/>
    <circle id="Ellipse_31" data-name="Ellipse 31" cx="1.325" cy="1.325" r="1.325" transform="translate(12.672 18.085)" fill="#3d4642"/>
    <path id="Path_1091" data-name="Path 1091" d="M303.7,274.906h-6.527l-6.532-1.96a.662.662,0,0,0-.741.267l-.59.885a5.038,5.038,0,0,0,0,5.59l.59.885a.662.662,0,0,0,.741.267l2.431-.729h0l4.1-1.23H303.7a.663.663,0,0,0,.662-.662v-2.65A.662.662,0,0,0,303.7,274.906Zm-7.287,2.819-3.087.926-.041-.137a1.324,1.324,0,0,1,.058-.912h0a2.63,2.63,0,0,0,0-2.153.96.96,0,0,1-.077-.331l3.147.944Zm-6,1.228a3.714,3.714,0,0,1,0-4.12l.318-.477,1.227.368a2.29,2.29,0,0,0,.177,1.267,1.32,1.32,0,0,1,0,1.067,2.633,2.633,0,0,0-.118,1.836l.041.137-1.327.4Zm12.626-1.4h-5.3v-1.325h5.3Z" transform="translate(-264.362 -250.14)" fill="#3d4642"/>
    <path id="Path_1092" data-name="Path 1092" d="M1.122,325.889H7.666l1.246.311a.635.635,0,0,0,.16.02h5.167a1.459,1.459,0,0,0,1.457-1.457v-2.385a1.459,1.459,0,0,0-1.457-1.457H9.072a.672.672,0,0,0-.179.025l-1.237.348H1.122a.663.663,0,0,0-.662.662v3.271a.662.662,0,0,0,.662.662Zm13.249-3.511v2.385a.132.132,0,0,1-.132.133H12.385v-2.65h1.855A.132.132,0,0,1,14.372,322.377Zm-12.587.24H7.747a.674.674,0,0,0,.179-.025l1.237-.348h1.9v2.65H9.154l-1.246-.311a.635.635,0,0,0-.16-.02H1.785Z" transform="translate(-0.46 -294.151)" fill="#3d4642"/>
    <path id="Path_1093" data-name="Path 1093" d="M1.127,12.663l2.716,0,8.4-.6a3.2,3.2,0,0,0,1.8-.727H15.8A1.333,1.333,0,0,0,17,10.6L20.583,10a.664.664,0,0,0,.558-.653V8.026a.664.664,0,0,0-.558-.653L17,6.779a1.318,1.318,0,0,0-.144-.226,13.07,13.07,0,0,1,3.622-.514,12.829,12.829,0,0,1,5.248,1.09,11.2,11.2,0,0,1,3.06,1.962,9.023,9.023,0,0,1,2.9,5.027c.02.1-.34,8.206-.362,8.416l1.829.066a3.328,3.328,0,0,0,3.336-3.312v-2.65a3.328,3.328,0,0,0-3.336-3.312h-.031l.031-.662A12.642,12.642,0,0,0,10.307,5.175L3.8,4.714H1.127a.665.665,0,0,0-.667.662V12a.665.665,0,0,0,.667.662ZM25.835,5.741a13.787,13.787,0,0,0-1.83-.6L25.336,2.5a11.328,11.328,0,0,1,2.3,1.449Zm-3.186-.867a14.656,14.656,0,0,0-1.508-.143V1.437a11.361,11.361,0,0,1,2.953.568ZM19.807,4.73a14.731,14.731,0,0,0-1.509.143L16.854,2.005a11.362,11.362,0,0,1,2.953-.568Zm-2.865.413a13.581,13.581,0,0,0-1.829.6L13.3,3.94A11.286,11.286,0,0,1,15.614,2.5Zm-2.472,4.87V7.364H15.8v2.65ZM19.807,8.79l-2.669.441V8.146l2.669.441ZM30.18,8.6l.612-.608a11.249,11.249,0,0,1,.776,2.343A11.05,11.05,0,0,0,30.18,8.6Zm4.971,8.039v2.65a2,2,0,0,1-2,1.987H32.74l.315-6.625h.094A2,2,0,0,1,35.151,16.638Zm-5.02-9.864-.937.931a12.438,12.438,0,0,0-2.07-1.371l1.5-1.491A11.327,11.327,0,0,1,30.131,6.774ZM12.321,4.842l.607.6a3.183,3.183,0,0,0-.686-.133l-.328-.023C12.045,5.138,12.18,4.989,12.321,4.842ZM1.794,6.038H3.748l8.4.6A1.874,1.874,0,0,1,13.136,7v3.376a1.873,1.873,0,0,1-.988.368l-7.684.546V8.026H3.129v3.312H1.794v-5.3Z" transform="translate(-0.46 0)" fill="#3d4642"/>
  </g>
</svg>
