<svg id="online-order" xmlns="http://www.w3.org/2000/svg" width="50" height="50" viewBox="0 0 50 50">
  <path id="Path_876" data-name="Path 876" d="M30.542,416H0v.9a2.7,2.7,0,0,0,2.695,2.695H27.847a2.7,2.7,0,0,0,2.695-2.695Zm-12.576,2.695h-5.39a.9.9,0,1,1,0-1.8h5.39a.9.9,0,1,1,0,1.8Zm0,0" transform="translate(0 -369.593)" fill="#7dc4a6"/>
  <path id="Path_877" data-name="Path 877" d="M176.169,64a16.168,16.168,0,0,0-9.432,29.3.82.82,0,0,1,.075.071.7.7,0,0,1,.058.056.878.878,0,0,1,.171.261l.007.01c0,.011,0,.021.006.032a.865.865,0,0,1,.05.269v.137a.917.917,0,0,1-.066.241c0,.009-.01.015-.014.024a.911.911,0,0,1-.156.23c-.019.021-.038.039-.058.058a.9.9,0,0,1-.264.172l-3.68,1.477h13.3a16.169,16.169,0,1,0,0-32.339Zm10.78,11.678a.9.9,0,0,1-.9.9h-.9V90.051a.9.9,0,0,1-.9.9H168.085a.9.9,0,0,1-.9-.9V76.576h-.9a.9.9,0,0,1-.9-.9v-5.39a.9.9,0,0,1,.9-.9H174l-1.161-1.161a.9.9,0,0,1,1.27-1.27l2.06,2.06,2.06-2.06a.9.9,0,0,1,1.27,1.27l-1.161,1.161h7.713a.9.9,0,0,1,.9.9Zm0,0" transform="translate(-142.339 -56.814)" fill="#7dc4a6"/>
  <path id="Path_878" data-name="Path 878" d="M224,128h8.085v3.593H224Zm0,0" transform="translate(-199.029 -113.721)" fill="#7dc4a6"/>
  <path id="Path_879" data-name="Path 879" d="M312,128h8.085v3.593H312Zm0,0" transform="translate(-277.271 -113.721)" fill="#7dc4a6"/>
  <path id="Path_880" data-name="Path 880" d="M312,176h6.288v12.576H312Zm0,0" transform="translate(-277.209 -156.397)" fill="#7dc4a6"/>
  <path id="Path_881" data-name="Path 881" d="M240,176h6.288v12.576H240Zm0,0" transform="translate(-213.238 -156.397)" fill="#7dc4a6"/>
  <path id="Path_882" data-name="Path 882" d="M0,3.593H30.542v-.9A2.7,2.7,0,0,0,27.847,0H2.695A2.7,2.7,0,0,0,0,2.695ZM15.271.9h5.39a.9.9,0,0,1,0,1.8h-5.39a.9.9,0,1,1,0-1.8ZM9.881.9h1.8a.9.9,0,0,1,0,1.8h-1.8a.9.9,0,0,1,0-1.8Zm0,0" transform="translate(0)" fill="#7dc4a6"/>
  <path id="Path_883" data-name="Path 883" d="M30.542,83.655H16.169a.891.891,0,0,1-.334-1.719L22.4,79.327a17.767,17.767,0,0,1,8.138-30.949V48H0V87.22H30.542ZM8.085,85.437H2.695a.9.9,0,0,1-.9-.891V79.2a.9.9,0,0,1,1.8,0v4.457H8.085a.891.891,0,1,1,0,1.783Zm0-33.872H3.593v4.457a.9.9,0,0,1-1.8,0V50.674a.9.9,0,0,1,.9-.891h5.39a.891.891,0,1,1,0,1.783Zm0,0" transform="translate(0 -42.61)" fill="#7dc4a6"/>
</svg>
