<svg xmlns="http://www.w3.org/2000/svg" width="42.566" height="34.569" viewBox="0 0 42.566 34.569">
  <g id="shop" transform="translate(0 0)">
    <g id="Group_654" data-name="Group 654">
      <g id="Group_653" data-name="Group 653" transform="translate(0 0)">
        <path id="Path_1049" data-name="Path 1049" d="M40.61,81.418H39.9V62.92a5.788,5.788,0,0,0,2.666-4.87.624.624,0,0,0-.082-.309l-4.948-8.659a1.961,1.961,0,0,0-1.7-.986H6.729a1.961,1.961,0,0,0-1.7.986L.082,57.74A.624.624,0,0,0,0,58.05a5.788,5.788,0,0,0,2.666,4.87v18.5H1.956a.624.624,0,1,0,0,1.247H40.61a.624.624,0,1,0,0-1.247ZM1.29,58.673h2a.624.624,0,1,0,0-1.247H1.7L6.113,49.7a.711.711,0,0,1,.616-.357H35.838a.711.711,0,0,1,.616.357l4.415,7.726H39.277a.624.624,0,1,0,0,1.247h2a4.541,4.541,0,0,1-9,0h4.331a.624.624,0,1,0,0-1.247H5.955a.624.624,0,1,0,0,1.247h4.331a4.541,4.541,0,0,1-9,0Zm29.656,0a4.54,4.54,0,0,1-9,0Zm-10.33,0a4.54,4.54,0,0,1-9,0ZM35.321,81.418h-6.75V79.333h6.75Zm0-3.332h-6.75V66.671h6.75Zm3.332,3.332H36.569V66.047a.623.623,0,0,0-.624-.624h-8a.623.623,0,0,0-.624.624V81.418H3.913V63.525a5.783,5.783,0,0,0,7.041-2.863,5.787,5.787,0,0,0,10.33,0,5.787,5.787,0,0,0,10.33,0,5.783,5.783,0,0,0,7.041,2.863Z" transform="translate(0 -48.096)" fill="#818181"/>
      </g>
    </g>
    <g id="Group_656" data-name="Group 656" transform="translate(5.998 17.328)">
      <g id="Group_655" data-name="Group 655" transform="translate(0 0)">
        <path id="Path_1050" data-name="Path 1050" d="M90.763,256.516H72.769a.624.624,0,0,0-.624.624V269.8a.624.624,0,0,0,.624.624H90.763a.623.623,0,0,0,.624-.624V257.14A.623.623,0,0,0,90.763,256.516Zm-.624,12.662H73.392V257.763H90.139Z" transform="translate(-72.145 -256.516)" fill="#818181"/>
      </g>
    </g>
  </g>
</svg>
