<svg xmlns="http://www.w3.org/2000/svg" width="45" height="45" viewBox="0 0 45 45">
    <defs>
        <style>
            .cls-1{fill:#c9c9c9}
        </style>
    </defs>
    <g id="app-store">
        <g id="Group_265" data-name="Group 265">
            <g id="Group_264" data-name="Group 264">
                <path id="Path_310" d="M35.771 0H9.229A9.239 9.239 0 0 0 0 9.229v26.542A9.239 9.239 0 0 0 9.229 45h26.542A9.239 9.239 0 0 0 45 35.771V9.229A9.239 9.239 0 0 0 35.771 0zm6.592 35.771a6.6 6.6 0 0 1-6.592 6.592H9.229a6.6 6.6 0 0 1-6.592-6.592V9.229a6.6 6.6 0 0 1 6.592-6.592h26.542a6.6 6.6 0 0 1 6.592 6.592z" class="cls-1" data-name="Path 310"/>
            </g>
        </g>
        <g id="Group_267" data-name="Group 267" transform="translate(7.616 9.369)">
            <g id="Group_266" data-name="Group 266">
                <path id="Path_311" d="M104.505 106.606a2.158 2.158 0 0 0-3.954-.52l-.332.575-.332-.575a2.161 2.161 0 0 0-2.948-.79 2.161 2.161 0 0 0-.79 2.948l1.578 2.734-5.827 10.085h-4.242a2.158 2.158 0 1 0 0 4.317h16.391l-2.492-4.317h-4.669l7.4-12.82a2.144 2.144 0 0 0 .217-1.637z" class="cls-1" data-name="Path 311" transform="translate(-85.5 -105.006)"/>
            </g>
        </g>
        <g id="Group_269" data-name="Group 269" transform="translate(23.703 17.281)">
            <g id="Group_268" data-name="Group 268">
                <path id="Path_312" d="M279.112 202.526h-4.246l-4.827-8.36-2.492 4.317 7.494 12.98a2.144 2.144 0 0 0 1.311 1.006 2.171 2.171 0 0 0 .562.074 2.16 2.16 0 0 0 1.866-3.238l-1.421-2.462h1.753a2.158 2.158 0 1 0 0-4.317z" class="cls-1" data-name="Path 312" transform="translate(-267.548 -194.166)"/>
            </g>
        </g>
        <g id="Group_271" data-name="Group 271" transform="translate(9.782 31.784)">
            <g id="Group_270" data-name="Group 270">
                <path id="Path_313" d="M111.716 361l-.424.735a2.158 2.158 0 0 0 3.738 2.158L116.7 361z" class="cls-1" data-name="Path 313" transform="translate(-111.003 -361)"/>
            </g>
        </g>
    </g>
</svg>
