<svg id="Component_7_1" data-name="Component 7 – 1" xmlns="http://www.w3.org/2000/svg" width="51.724" height="50" viewBox="0 0 51.724 50">
  <g id="website_1_" data-name="website (1)" transform="translate(0 -8.533)">
    <g id="Group_516" data-name="Group 516" transform="translate(0 41.243)">
      <g id="Group_515" data-name="Group 515">
        <path id="Path_817" data-name="Path 817" d="M47.414,332.8H0v3.457a3.458,3.458,0,0,0,3.449,3.459h17.2c-.2,3.428-1.628,5.187-4.269,5.187H14.655a2.593,2.593,0,0,0,0,5.187H37.069a2.593,2.593,0,0,0,0-5.187H35.345c-2.641,0-4.064-1.758-4.269-5.187h17.2a3.458,3.458,0,0,0,3.449-3.459V332.8Zm-24.138,1.729h5.172a.864.864,0,0,1,0,1.729H23.276a.864.864,0,0,1,0-1.729Zm7.87,10.374H20.578a8.286,8.286,0,0,0,1.812-5.187h6.944A8.292,8.292,0,0,0,31.146,344.9Z" transform="translate(0 -332.8)" fill="#7dc4a6"/>
      </g>
    </g>
    <g id="Group_520" data-name="Group 520" transform="translate(0 8.533)">
      <g id="Group_519" data-name="Group 519" transform="translate(0 0)">
        <path id="Path_819" data-name="Path 819" d="M48.275,8.533H3.449A3.458,3.458,0,0,0,0,11.992V39.654H3.448v-26.8a.864.864,0,0,1,.862-.864h43.1a.864.864,0,0,1,.862.864v26.8h3.448V11.992A3.458,3.458,0,0,0,48.275,8.533Z" transform="translate(0 -8.533)" fill="#7dc4a6"/>
      </g>
    </g>
  </g>
  <path id="Path_869" data-name="Path 869" d="M13.927,22.61a1.816,1.816,0,0,1-1.289-.533L9.795,19.233a1.823,1.823,0,0,1,2.577-2.578l1.555,1.557,3.829-3.83a1.823,1.823,0,0,1,2.578,2.577l-5.119,5.117A1.813,1.813,0,0,1,13.927,22.61Zm21.2-18.253v22.5a1.607,1.607,0,0,1-1.607,1.607H-3.393A1.607,1.607,0,0,1-5,26.853V4.357A1.607,1.607,0,0,1-3.393,2.75H33.522A1.607,1.607,0,0,1,35.129,4.357ZM28.7,6.031a1.269,1.269,0,1,0,1.269-1.269A1.269,1.269,0,0,0,28.7,6.031Zm-3.582,0a1.269,1.269,0,1,0,1.269-1.269A1.269,1.269,0,0,0,25.123,6.031Zm-3.582,0A1.269,1.269,0,1,0,22.81,4.762,1.269,1.269,0,0,0,21.541,6.031ZM31.915,8.909V25.246h0Z" transform="translate(10.75 2.45)" fill="#7dc4a6"/>
  <path id="Path_870" data-name="Path 870" d="M16.135,25.217a1.793,1.793,0,0,1-1.273-.527l-2.808-2.808A1.8,1.8,0,1,1,14.6,19.336l1.535,1.538,3.782-3.783a1.8,1.8,0,0,1,2.546,2.546L17.408,24.69A1.791,1.791,0,0,1,16.135,25.217Z" transform="translate(8.474 -0.96)" fill="#fff"/>
</svg>
