<svg id="approved" xmlns="http://www.w3.org/2000/svg" width="41.406" height="50" viewBox="0 0 41.406 50">
  <g id="Group_177" data-name="Group 177" transform="translate(0 16.294)">
    <g id="Group_176" data-name="Group 176">
      <path id="Path_208" data-name="Path 208" d="M45.7,167.292A1,1,0,1,0,46,168,1.005,1.005,0,0,0,45.7,167.292Z" transform="translate(-44 -167)" fill="#7dc4a6"/>
    </g>
  </g>
  <g id="Group_179" data-name="Group 179">
    <g id="Group_178" data-name="Group 178">
      <path id="Path_209" data-name="Path 209" d="M82.477,0H62.717a.977.977,0,1,0,0,1.953H82.477a.978.978,0,0,1,.977.977V47.07a.978.978,0,0,1-.977.977H46.93a.978.978,0,0,1-.977-.977V20.931a.977.977,0,0,0-1.953,0V47.07A2.933,2.933,0,0,0,46.93,50H82.477a2.933,2.933,0,0,0,2.93-2.93V2.93A2.933,2.933,0,0,0,82.477,0Z" transform="translate(-44)" fill="#7dc4a6"/>
    </g>
  </g>
  <g id="Group_181" data-name="Group 181" transform="translate(7.59 3.993)">
    <g id="Group_180" data-name="Group 180">
      <path id="Path_210" data-name="Path 210" d="M137.8,40a13.438,13.438,0,0,0-2.029.154,1,1,0,0,0,.3,1.974A11.419,11.419,0,0,1,137.8,42a11.274,11.274,0,0,1,8.628,18.539,10,10,0,0,0-5.211-4.361,4.876,4.876,0,0,0,1.475-3.5v-.973a4.892,4.892,0,1,0-9.783,0v.973a4.876,4.876,0,0,0,1.475,3.5,10,10,0,0,0-5.222,4.379,11.244,11.244,0,0,1-2.486-5.4,1,1,0,0,0-1.969.33A13.278,13.278,0,1,0,137.8,40Zm-2.9,11.705a2.9,2.9,0,1,1,5.79,0v.973a2.9,2.9,0,1,1-5.79,0Zm2.9,12.853a11.267,11.267,0,0,1-7.157-2.544A7.985,7.985,0,0,1,144.952,62,11.228,11.228,0,0,1,137.8,64.558Z" transform="translate(-124.696 -40)" fill="#7dc4a6"/>
    </g>
  </g>
  <g id="Group_183" data-name="Group 183" transform="translate(14.674 38.832)">
    <g id="Group_182" data-name="Group 182">
      <path id="Path_211" data-name="Path 211" d="M211.531,398H197.355a1,1,0,0,0,0,2h14.176a1,1,0,0,0,0-2Z" transform="translate(-196.357 -398.002)" fill="#7dc4a6"/>
    </g>
  </g>
  <g id="Group_185" data-name="Group 185" transform="translate(10.695 33.368)">
    <g id="Group_184" data-name="Group 184" transform="translate(0)">
      <path id="Path_212" data-name="Path 212" d="M155.344,342.293a1,1,0,1,0,.292.706A1.006,1.006,0,0,0,155.344,342.293Z" transform="translate(-153.64 -342)" fill="#7dc4a6"/>
    </g>
  </g>
  <g id="Group_187" data-name="Group 187" transform="translate(10.695 38.832)">
    <g id="Group_186" data-name="Group 186" transform="translate(0)">
      <path id="Path_213" data-name="Path 213" d="M155.344,398.292a1,1,0,1,0,.292.706A1,1,0,0,0,155.344,398.292Z" transform="translate(-153.64 -398)" fill="#7dc4a6"/>
    </g>
  </g>
  <g id="Group_189" data-name="Group 189" transform="translate(14.674 33.368)">
    <g id="Group_188" data-name="Group 188">
      <path id="Path_214" data-name="Path 214" d="M211.531,342H197.355a1,1,0,1,0,0,2h14.176a1,1,0,1,0,0-2Z" transform="translate(-196.357 -342.002)" fill="#7dc4a6"/>
    </g>
  </g>
  <g id="Group_191" data-name="Group 191" transform="translate(4.264 5.461)">
    <g id="Group_190" data-name="Group 190" transform="translate(0)">
      <path id="Path_215" data-name="Path 215" d="M94.194,54.993a1,1,0,0,0-1.412,0l-3.251,3.251-1.111-1.111a1,1,0,1,0-1.412,1.412l1.817,1.817a1,1,0,0,0,1.412,0l3.957-3.957A1,1,0,0,0,94.194,54.993Z" transform="translate(-86.716 -54.701)" fill="#7dc4a6"/>
    </g>
  </g>
  <g id="Group_193" data-name="Group 193">
    <g id="Group_192" data-name="Group 192">
      <path id="Path_216" data-name="Path 216" d="M52.186,0a8.186,8.186,0,1,0,8.186,8.186A8.2,8.2,0,0,0,52.186,0Zm0,14.375a6.189,6.189,0,1,1,6.189-6.189A6.2,6.2,0,0,1,52.186,14.375Z" transform="translate(-44)" fill="#7dc4a6"/>
    </g>
  </g>
</svg>
