<svg id="customer_1_" data-name="customer (1)" xmlns="http://www.w3.org/2000/svg" width="49.935" height="50" viewBox="0 0 49.935 50">
  <path id="Path_844" data-name="Path 844" d="M47.2,20.369h.715a14.967,14.967,0,0,1,29.914,0h.715a12.047,12.047,0,0,1,5.2,1.176v-.521A20.963,20.963,0,0,0,77.634,6.158a20.768,20.768,0,0,0-29.52,0A20.963,20.963,0,0,0,42,21.024v.521A12.046,12.046,0,0,1,47.2,20.369Z" transform="translate(-37.906)" fill="#7dc4a6"/>
  <path id="Path_845" data-name="Path 845" d="M13.3,237.334H9.666a9.333,9.333,0,0,0,0,18.666H13.3V237.334Z" transform="translate(-0.333 -214.239)" fill="#7dc4a6"/>
  <path id="Path_846" data-name="Path 846" d="M199.343,256a9.333,9.333,0,0,0,0-18.666h-3.635l-.017,24.037H175.666v2.947h22.972V256Z" transform="translate(-158.741 -214.318)" fill="#7dc4a6"/>
  <path id="Path_847" data-name="Path 847" d="M175.319,317.334h2.947v2.947h-2.947Z" transform="translate(-158.237 -286.356)" fill="#7dc4a6"/>
  <path id="Path_848" data-name="Path 848" d="M306.681,317.334h2.947v2.947h-2.947Z" transform="translate(-276.775 -286.356)" fill="#7dc4a6"/>
  <path id="Path_849" data-name="Path 849" d="M241,317.334h2.947v2.947H241Z" transform="translate(-217.506 -286.356)" fill="#7dc4a6"/>
</svg>
