<svg id="Download_Google_Play" data-name="Download Google Play" xmlns="http://www.w3.org/2000/svg" xmlns:xlink="http://www.w3.org/1999/xlink" width="245" height="76" viewBox="0 0 245 76">
  <defs>
    <clipPath id="clip-path">
      <path id="Path_804" data-name="Path 804" d="M498.743,427.926l-11.3-6.524-21.8-12.587c-1.21-.7-2.416-.275-2.416,1.185v51.279c0,1.095.862,1.567,1.913.96l22.3-12.877,11.3-6.524,10.863-6.271c1.274-.736,1.152-1.746.076-2.325s-10.939-6.316-10.939-6.316Z" transform="translate(-463.228 -408.486)"/>
    </clipPath>
    <linearGradient id="linear-gradient" x1="1.441" y1="1.519" x2="1.441" y2="1.436" gradientUnits="objectBoundingBox">
      <stop offset="0" stop-color="#257cb0"/>
      <stop offset="0.286" stop-color="#4a93b5"/>
      <stop offset="0.767" stop-color="#78bcbb"/>
      <stop offset="1" stop-color="#89cfbd"/>
    </linearGradient>
    <linearGradient id="linear-gradient-2" x1="1.103" y1="2.982" x2="1.187" y2="2.982" gradientUnits="objectBoundingBox">
      <stop offset="0" stop-color="#52c1ad"/>
      <stop offset="1" stop-color="#dee89a"/>
    </linearGradient>
    <linearGradient id="linear-gradient-3" x1="1.145" y1="1.94" x2="1.145" y2="1.857" gradientUnits="objectBoundingBox">
      <stop offset="0" stop-color="#ec413d"/>
      <stop offset="0.167" stop-color="#da4452"/>
      <stop offset="0.575" stop-color="#b0487a"/>
      <stop offset="0.862" stop-color="#954a92"/>
      <stop offset="1" stop-color="#8a4a9d"/>
    </linearGradient>
    <linearGradient id="linear-gradient-4" x1="0.704" y1="4.18" x2="0.704" y2="4.097" gradientUnits="objectBoundingBox">
      <stop offset="0" stop-color="#f58879"/>
      <stop offset="0.119" stop-color="#f69079"/>
      <stop offset="0.713" stop-color="#fcb877"/>
      <stop offset="1" stop-color="#fec874"/>
    </linearGradient>
  </defs>
  <path id="Path_802" data-name="Path 802" d="M252.86,70a10.933,10.933,0,0,1-11.049,10.812H13.911A10.934,10.934,0,0,1,2.86,70V11.625A10.934,10.934,0,0,1,13.911.814h227.9a10.933,10.933,0,0,1,11.049,10.811V70h0Z" transform="translate(-2.86 -0.814)"/>
  <g id="Group_501" data-name="Group 501" transform="translate(18.798 14.664)" clip-path="url(#clip-path)">
    <path id="Path_803" data-name="Path 803" d="M463.24,387.346v55.519l28-27.759Z" transform="translate(-463.239 -388.209)" fill="url(#linear-gradient)"/>
  </g>
  <g id="Group_502" data-name="Group 502" transform="translate(18.798 14.664)" clip-path="url(#clip-path)">
    <path id="Path_805" data-name="Path 805" d="M498.755,402.907l-11.3-6.524L463.24,382.4v.2l28,27.76Z" transform="translate(-463.239 -383.467)" fill="url(#linear-gradient-2)"/>
  </g>
  <g id="Group_503" data-name="Group 503" transform="translate(18.798 14.664)" clip-path="url(#clip-path)">
    <path id="Path_807" data-name="Path 807" d="M463.24,1094.927v.2l24.214-13.981,11.3-6.525-7.519-7.455Z" transform="translate(-463.239 -1040.272)" fill="url(#linear-gradient-3)"/>
  </g>
  <g id="Group_504" data-name="Group 504" transform="translate(18.798 14.664)" clip-path="url(#clip-path)">
    <path id="Path_809" data-name="Path 809" d="M1156.369,884.566l-7.519,7.456,7.519,7.455,12.915-7.456Z" transform="translate(-1120.854 -865.126)" fill="url(#linear-gradient-4)"/>
  </g>
  <path id="Path_811" data-name="Path 811" d="M1984.425,762.906a6.987,6.987,0,0,1-2.88-.582,5.427,5.427,0,0,1-2.188-1.789h-.176a21.731,21.731,0,0,1,.176,2.681v6.644h-2.444V746.465h1.989l.338,2.21h.118a5.684,5.684,0,0,1,2.2-1.915,6.668,6.668,0,0,1,2.872-.589,5.968,5.968,0,0,1,4.958,2.2,11.692,11.692,0,0,1-.028,12.338,5.978,5.978,0,0,1-4.928,2.2Zm-.354-14.658a4.334,4.334,0,0,0-3.579,1.37,7.054,7.054,0,0,0-1.135,4.361v.544q0,3.4,1.135,4.87a4.313,4.313,0,0,0,3.638,1.465,3.784,3.784,0,0,0,3.279-1.693,8.039,8.039,0,0,0,1.185-4.671,7.738,7.738,0,0,0-1.185-4.633A3.9,3.9,0,0,0,1984.072,748.248Zm12.719,14.363h-2.445V739.688h2.445Zm14.059,0-.487-2.3h-.117a6.778,6.778,0,0,1-2.409,2.055,7.329,7.329,0,0,1-3,.538,5.4,5.4,0,0,1-3.764-1.237,4.51,4.51,0,0,1-1.363-3.521q0-4.89,7.822-5.127l2.741-.089v-1a4.09,4.09,0,0,0-.818-2.806,3.36,3.36,0,0,0-2.615-.907,10.656,10.656,0,0,0-4.567,1.237l-.751-1.871a11.5,11.5,0,0,1,2.616-1.016,11.32,11.32,0,0,1,2.85-.368,6.151,6.151,0,0,1,4.28,1.281,5.351,5.351,0,0,1,1.392,4.111V762.61h-1.812Zm-5.524-1.723a4.967,4.967,0,0,0,3.587-1.252,4.637,4.637,0,0,0,1.3-3.507v-1.458l-2.447.1a8.9,8.9,0,0,0-4.206.907,2.733,2.733,0,0,0-1.289,2.5,2.513,2.513,0,0,0,.8,2.017A3.33,3.33,0,0,0,2005.326,760.888Zm8.755-14.423h2.622l3.536,9.208a35.162,35.162,0,0,1,1.445,4.553h.117q.192-.753.8-2.572t4-11.188h2.624l-6.939,18.385a9.171,9.171,0,0,1-2.41,3.869,5.122,5.122,0,0,1-3.379,1.14,9.873,9.873,0,0,1-2.211-.25V767.65a8.539,8.539,0,0,0,1.813.177q2.52,0,3.595-2.829l.9-2.3Zm-74.956,1.5a5.694,5.694,0,0,1,2.4,4.56c0,2.5-1.418,3.682-2.837,4.795a2.376,2.376,0,0,0-.946,1.657,1.853,1.853,0,0,0,.879,1.451l1.216.944c1.486,1.25,2.835,2.4,2.835,4.73,0,3.174-3.073,6.381-8.881,6.381-4.9,0-7.26-2.329-7.26-4.83a4.86,4.86,0,0,1,2.6-4.12c2.092-1.283,4.931-1.45,6.45-1.554a3.536,3.536,0,0,1-1.013-2.294,3.052,3.052,0,0,1,.338-1.319c-.373.034-.744.068-1.082.068a5.339,5.339,0,0,1-5.6-5.3,6.073,6.073,0,0,1,2.16-4.525,9.209,9.209,0,0,1,6.047-1.858h6.955l-2.161,1.216h-2.093Zm-2.4,14.995a5.251,5.251,0,0,0-.776-.035,13.507,13.507,0,0,0-3.547.543c-.743.268-2.9,1.078-2.9,3.477s2.331,4.122,5.945,4.122c3.24,0,4.964-1.557,4.964-3.649C1940.409,765.693,1939.295,764.785,1936.727,762.96Zm.98-6.418a3.416,3.416,0,0,0,.843-2.466c0-2.431-1.451-6.213-4.254-6.213a3.154,3.154,0,0,0-2.364,1.115,3.9,3.9,0,0,0-.744,2.5c0,2.262,1.317,6.011,4.223,6.011A3.456,3.456,0,0,0,1937.707,756.543Zm-19.842,5.877a7.956,7.956,0,0,1-8.226-7.958c0-4.417,3.607-8.192,8.734-8.192a7.882,7.882,0,0,1,8.056,7.957A8.238,8.238,0,0,1,1917.865,762.42Zm4.214-2.731a6.1,6.1,0,0,0,1.013-3.744c0-2.968-1.416-8.631-5.6-8.631a4.693,4.693,0,0,0-3.033,1.149,5.1,5.1,0,0,0-1.552,4.114c0,3.335,1.652,8.83,5.733,8.83A4.308,4.308,0,0,0,1922.079,759.689Zm-22.489,2.731a7.957,7.957,0,0,1-8.228-7.958c0-4.417,3.608-8.192,8.734-8.192a7.882,7.882,0,0,1,8.057,7.957A8.238,8.238,0,0,1,1899.59,762.42Zm4.215-2.731a6.109,6.109,0,0,0,1.012-3.744c0-2.968-1.417-8.631-5.6-8.631a4.693,4.693,0,0,0-3.033,1.149,5.1,5.1,0,0,0-1.551,4.114c0,3.335,1.651,8.83,5.732,8.83A4.312,4.312,0,0,0,1903.805,759.689Zm-15.018,2.2-4.848,1.119a35.926,35.926,0,0,1-5.592.575c-9.357,0-12.915-6.881-12.915-12.272,0-6.575,5.05-12.675,13.7-12.675a19.534,19.534,0,0,1,5.185.711,13.224,13.224,0,0,1,4.475,2.1l-2.815,2.678-1.186.27.847-1.356a9.69,9.69,0,0,0-7.254-3.185c-5.357,0-9.391,4.07-9.391,10,0,6.371,4.611,12.371,12,12.371a10.093,10.093,0,0,0,4.306-.848v-5.456l-5.118.271,2.711-1.459h7.187l-.881.847a.791.791,0,0,0-.339.541c-.035.306-.067,1.29-.067,1.628v4.137h0Z" transform="translate(-1790.002 -709.751)" fill="#f9f9f9"/>
  <path id="Path_812" data-name="Path 812" d="M3763.421,743.186c-1.119-.1-1.354-.3-1.354-1.628V722.372c.007-.073.012-.148.019-.218.136-1.186.475-1.389,1.527-2h-4.849l-2.543,1.221h2.591v.015l0-.012V742.3c0,.677-.134.78-.915,1.8h6l1.255-.744c-.575-.07-1.153-.1-1.73-.171Zm13.793.312c-.368.2-.738.439-1.108.606a7.846,7.846,0,0,1-3.269.64,7.194,7.194,0,0,1-4.478-1.314,8.714,8.714,0,0,1-3.432-7.1,7.63,7.63,0,0,1,7.709-7.775,6.543,6.543,0,0,1,3.469.943,5.574,5.574,0,0,1,2.353,3.331l-7.909,3.2-2.593.2c.84,4.275,3.736,6.764,6.935,6.764a8.7,8.7,0,0,0,4.107-1.176l-1.784,1.683Zm-3.163-10.033c.638-.235.975-.438.975-.909a3.34,3.34,0,0,0-3.334-2.895c-1.348,0-3.871,1.044-3.871,4.679,0,.572.067,1.178.1,1.786Zm6.412-4.683V731h-.27v-2.221h-.736v-.23h1.74v.23Zm3.028,2.221v-2.242h-.012L3782.8,731h-.211l-.69-2.242h-.009V731h-.245v-2.452h.42l.624,1.982h.009l.615-1.982h.426V731Z" transform="translate(-3603.389 -691.795)" fill="#f9f9f9"/>
  <path id="Path_813" data-name="Path 813" d="M1873.521,412.308h-1.685a11.124,11.124,0,0,0-.479-1.969h-2.432a10.164,10.164,0,0,0-.495,1.969h-1.584q0-.205,1.229-3.369a26.4,26.4,0,0,0,1.229-3.484h1.99a28.972,28.972,0,0,0,1.113,3.434A30.21,30.21,0,0,1,1873.521,412.308Zm-2.432-2.974a29.6,29.6,0,0,1-.9-2.937h-.084q0,.205-.932,2.937Zm9.219,2.974h-1.3a12.851,12.851,0,0,0-1.448-2.279,12.565,12.565,0,0,1-1.727-2.974h-.084a18.527,18.527,0,0,1,.132,2.084q0,1.3.073,3.169h-1.3q.079-1.632.079-3.584,0-1.921-.079-3.269h1.563a9.885,9.885,0,0,0,1.3,2.227,13.091,13.091,0,0,1,1.589,2.806h.079a19.818,19.818,0,0,1-.127-2.106q0-1.426-.073-2.927h1.316q-.075,1.305-.073,3.269T1880.308,412.308Zm7.629-3.664a3.883,3.883,0,0,1-.958,2.611,3.347,3.347,0,0,1-2.685,1.116q-.779,0-2.148-.063.068-1.59.068-3.584,0-1.916-.068-3.269h.921q.227,0,.674-.016c.3-.01.493-.016.584-.016a3.55,3.55,0,0,1,2.756.948A3.274,3.274,0,0,1,1887.937,408.644Zm-1.437.226a2.537,2.537,0,0,0-.59-1.7,2.235,2.235,0,0,0-1.8-.692,5.482,5.482,0,0,0-.621.048q.052,1.053.052,2.2,0,1.258.052,2.495a3.494,3.494,0,0,0,.684.069,1.989,1.989,0,0,0,1.676-.7A2.712,2.712,0,0,0,1886.5,408.871Zm8.471,3.437h-1.558a10.348,10.348,0,0,0-.937-2.3,1.227,1.227,0,0,0-1.053-.437q-.306,0-.584.005,0,1.353.047,2.732h-1.463q.068-1.59.069-3.584,0-1.915-.069-3.269h.91c.105,0,.325-.005.661-.016s.645-.016.929-.016q2.415,0,2.416,1.653a1.854,1.854,0,0,1-1.379,1.827v.079a1.644,1.644,0,0,1,.932.829A18.407,18.407,0,0,1,1894.972,412.308ZM1893,407.465q0-1.047-1.348-1.048a4.623,4.623,0,0,0-.874.074q.058.816.058,2.127c.193.007.356.01.489.01Q1893,408.629,1893,407.465Zm9.519,1.29a3.779,3.779,0,0,1-.99,2.679,3.212,3.212,0,0,1-2.448,1.063,3.092,3.092,0,0,1-2.326-.977,3.437,3.437,0,0,1-.937-2.481,3.779,3.779,0,0,1,.99-2.679,3.211,3.211,0,0,1,2.448-1.063,3.1,3.1,0,0,1,2.327.974A3.435,3.435,0,0,1,1902.517,408.755Zm-1.452.152a2.719,2.719,0,0,0-.563-1.785,1.734,1.734,0,0,0-1.39-.684,1.6,1.6,0,0,0-1.305.689,2.753,2.753,0,0,0-.538,1.742,2.712,2.712,0,0,0,.566,1.782,1.733,1.733,0,0,0,1.387.687,1.6,1.6,0,0,0,1.306-.692A2.756,2.756,0,0,0,1901.065,408.907Zm4.429,3.4H1904q.068-1.632.068-3.584,0-1.921-.068-3.269h1.49q-.068,1.327-.069,3.269Q1905.425,410.707,1905.494,412.308Zm7.629-3.664a3.885,3.885,0,0,1-.958,2.611,3.348,3.348,0,0,1-2.685,1.116q-.779,0-2.148-.063.068-1.59.069-3.584,0-1.916-.069-3.269h.921q.227,0,.674-.016c.3-.01.493-.016.584-.016a3.549,3.549,0,0,1,2.756.948A3.275,3.275,0,0,1,1913.123,408.644Zm-1.437.226a2.54,2.54,0,0,0-.589-1.7,2.236,2.236,0,0,0-1.8-.692,5.494,5.494,0,0,0-.621.048q.052,1.053.052,2.2,0,1.258.052,2.495a3.485,3.485,0,0,0,.684.069,1.988,1.988,0,0,0,1.676-.7A2.713,2.713,0,0,0,1911.686,408.871Zm11.558,3.437h-1.685a11.117,11.117,0,0,0-.479-1.969h-2.432a10.2,10.2,0,0,0-.495,1.969h-1.584q0-.205,1.229-3.369a26.448,26.448,0,0,0,1.229-3.484h1.99a29.137,29.137,0,0,0,1.113,3.434A30.349,30.349,0,0,1,1923.244,412.308Zm-2.432-2.974a29.61,29.61,0,0,1-.9-2.937h-.084q0,.205-.931,2.937Zm8.571-2.084a2.051,2.051,0,0,1-.934,1.858,4.157,4.157,0,0,1-2.292.6c-.165,0-.282,0-.353-.01q0,.99.058,2.611h-1.479q.068-1.521.068-3.584,0-1.895-.068-3.269h.916q.2,0,.747-.016t.958-.016a3.012,3.012,0,0,1,1.69.453A1.531,1.531,0,0,1,1929.384,407.249Zm-1.358.29q0-1.126-1.495-1.127a4.24,4.24,0,0,0-.789.079q.058,1,.058,2.253c.088.007.19.01.305.01Q1928.026,408.755,1928.026,407.539Zm7.671-.29a2.052,2.052,0,0,1-.934,1.858,4.157,4.157,0,0,1-2.292.6c-.166,0-.282,0-.353-.01q0,.99.058,2.611H1930.7q.069-1.521.069-3.584,0-1.895-.069-3.269h.916q.194,0,.747-.016t.958-.016a3.013,3.013,0,0,1,1.69.453A1.531,1.531,0,0,1,1935.7,407.249Zm-1.358.29q0-1.126-1.495-1.127a4.242,4.242,0,0,0-.789.079q.058,1,.058,2.253c.088.007.19.01.305.01Q1934.339,408.755,1934.339,407.539Zm11.68,1.216a3.78,3.78,0,0,1-.99,2.679,3.21,3.21,0,0,1-2.448,1.063,3.092,3.092,0,0,1-2.327-.977,3.439,3.439,0,0,1-.937-2.481,3.779,3.779,0,0,1,.99-2.679,3.21,3.21,0,0,1,2.448-1.063,3.1,3.1,0,0,1,2.326.974A3.438,3.438,0,0,1,1946.019,408.755Zm-1.453.152a2.718,2.718,0,0,0-.563-1.785,1.733,1.733,0,0,0-1.389-.684,1.605,1.605,0,0,0-1.306.689,2.752,2.752,0,0,0-.537,1.742,2.712,2.712,0,0,0,.566,1.782,1.733,1.733,0,0,0,1.387.687,1.6,1.6,0,0,0,1.305-.692A2.752,2.752,0,0,0,1944.566,408.907Zm8.587,3.4h-1.3a12.837,12.837,0,0,0-1.447-2.279,12.54,12.54,0,0,1-1.726-2.974h-.084a18.527,18.527,0,0,1,.132,2.084q0,1.3.074,3.169h-1.3q.079-1.632.079-3.584,0-1.921-.079-3.269h1.563a9.916,9.916,0,0,0,1.3,2.227,13.071,13.071,0,0,1,1.59,2.806h.079a19.877,19.877,0,0,1-.126-2.106q0-1.426-.073-2.927h1.316q-.074,1.305-.073,3.269T1953.153,412.308Z" transform="translate(-1791.023 -389.218)" fill="#f9f9fa"/>
</svg>
