<svg xmlns="http://www.w3.org/2000/svg" width="42.274" height="34.644" viewBox="0 0 42.274 34.644">
  <g id="retail" transform="translate(0 0)">
    <path id="Path_1061" data-name="Path 1061" d="M100.5,194.287l1.25-4.671h.444v-1.238H92.154l-.325-1.217H88.851V188.4h2.026l2,7.471H93.1a1.742,1.742,0,1,0,3.335,0h1.206a1.742,1.742,0,1,0,1.667-1.238h-5.48l-.092-.344Zm-4.709-1.238v-1.1h1.374v1.1Zm2.612,0v-1.1h1.44l-.294,1.1Zm2.064-3.432-.294,1.1H98.4v-1.1Zm-3.3,0v1.1H95.789v-1.1Zm-2.612,0v1.1H92.779l-.293-1.1Zm.716,6.756a.5.5,0,1,1-.5-.5A.5.5,0,0,1,95.267,196.372Zm4.54,0a.5.5,0,1,1-.5-.5A.5.5,0,0,1,99.807,196.372Zm-6.4-3.324-.293-1.1h1.44v1.1Zm0,0" transform="translate(-81.515 -171.749)" fill="#818181"/>
    <path id="Path_1062" data-name="Path 1062" d="M350.974,172.075l-1.391-2.325h-1.029l-1.417,2.325h-.981v3.747H352v-3.747Zm-1.91-.781.467.781h-.943Zm1.7,3.29H347.4v-1.271h3.37Zm0,0" transform="translate(-317.576 -155.776)" fill="#818181"/>
    <path id="Path_1063" data-name="Path 1063" d="M39.858.5H2.416L0,3.1v8.045l2.41,2.41H5.668L7.459,11.76l1.791,1.791h3.258L14.3,11.76l1.791,1.791h3.258l1.791-1.791,1.791,1.791h3.258l1.791-1.791,1.791,1.791h3.258l1.791-1.791,1.791,1.791h3.258l2.41-2.41V3.1ZM5.155,12.312H2.923L1.239,10.628V5.951h5.6v4.677Zm6.839,0H9.762L8.078,10.628V5.951h5.6v4.677Zm6.839,0H16.6l-1.685-1.685V5.951h5.6v4.677Zm6.839,0H23.441l-1.685-1.685V5.951h5.6v4.677Zm6.839,0H30.28L28.6,10.628V5.951h5.6v4.677Zm8.524-1.685-1.685,1.685H37.119l-1.685-1.685V5.951h5.6ZM1.239,4.712V3.583L2.955,1.738H39.319l1.716,1.845V4.712Zm0,0" transform="translate(0 -0.5)" fill="#818181"/>
    <path id="Path_1064" data-name="Path 1064" d="M486.48,165.074h1.238v15.859H486.48Zm0,0" transform="translate(-446.313 -151.486)" fill="#818181"/>
    <path id="Path_1065" data-name="Path 1065" d="M11,165.555h1.238v15.82H11Zm0,0" transform="translate(-10.088 -151.927)" fill="#818181"/>
    <path id="Path_1066" data-name="Path 1066" d="M62.7,169.016H61.465l0,14.579h17.86l0-14.764H78.086l0,13.525H62.707Zm0,0" transform="translate(-56.39 -154.933)" fill="#818181"/>
    <path id="Path_1067" data-name="Path 1067" d="M37.161,171.066H35.922v16.4H27.088v-16.4H25.85v16.4H0v4.164H42.275v-4.164H37.161ZM41.036,188.7v1.687H1.239V188.7Zm0,0" transform="translate(-0.001 -156.983)" fill="#818181"/>
    <path id="Path_1068" data-name="Path 1068" d="M411.3,263.55h-1.238v-4.168H411.3Zm0-4.994h-1.238v-1.238H411.3Zm0-2.064h-1.238v-1.238H411.3Zm0,0" transform="translate(-376.206 -234.22)" fill="#818181"/>
    <path id="Path_1069" data-name="Path 1069" d="M151.412,171.84h-4.783V170.6h4.783Zm-5.609,0h-1.238V170.6H145.8Zm-2.064,0H142.5V170.6h1.238Zm0,0" transform="translate(-130.735 -156.557)" fill="#818181"/>
    <path id="Path_1070" data-name="Path 1070" d="M236.249,27.754H218.71V26.516h17.538Zm-18.364,0h-1.238V26.516h1.238Zm-2.064,0h-1.238V26.516h1.238Zm0,0" transform="translate(-196.865 -24.368)" fill="#818181"/>
  </g>
</svg>
