<svg xmlns="http://www.w3.org/2000/svg" width="50.632" height="38.595" viewBox="0 0 50.632 38.595">
  <g id="shout" transform="translate(0 0)">
    <path id="Path_871" data-name="Path 871" d="M220.961,27.679l16.905,8.907V0L220.961,8.907Zm0,0" transform="translate(-199.11 0.001)" fill="#7dc4a6"/>
    <path id="Path_872" data-name="Path 872" d="M451.953,169.988h5.938v2.967h-5.938Zm0,0" transform="translate(-407.259 -153.178)" fill="#7dc4a6"/>
    <path id="Path_873" data-name="Path 873" d="M436.787,73.172l1.135,2.741-5.486,2.273L431.3,75.444Zm0,0" transform="translate(-388.649 -65.936)" fill="#7dc4a6"/>
    <path id="Path_874" data-name="Path 874" d="M436.776,251.119l-5.487-2.273,1.135-2.741,5.487,2.273Zm0,0" transform="translate(-388.639 -221.768)" fill="#7dc4a6"/>
    <path id="Path_875" data-name="Path 875" d="M18.884,99.934H5.938V102.9h-.5a5.442,5.442,0,0,0,0,10.884h.5v2.969H9.26l3.266,11.89H22.15l-3.266-11.4Zm0,0" transform="translate(0 -90.051)" fill="#7dc4a6"/>
  </g>
</svg>
