<svg id="Component_6_1" data-name="Component 6 – 1" xmlns="http://www.w3.org/2000/svg" width="51.724" height="50" viewBox="0 0 51.724 50">
  <path id="Path_842" data-name="Path 842" d="M36.355,48.312H75.87c.506,0,.917.553.917,1.236V73.006c0,.683-.411,1.236-.917,1.236H36.355c-.506,0-.917-.553-.917-1.236V49.549C35.438,48.866,35.848,48.312,36.355,48.312Zm0,0" transform="translate(-30.438 -43.12)" fill="#7dc4a6"/>
  <path id="Path_843" data-name="Path 843" d="M131.3,109.719H101.5a.477.477,0,0,1-.472-.482v-9.5a.477.477,0,0,1,.472-.482h29.8a.477.477,0,0,1,.472.482v9.5A.477.477,0,0,1,131.3,109.719Zm0,0" transform="translate(-90.023 -88.063)" fill="#fff"/>
  <g id="Group_522" data-name="Group 522" transform="translate(12.444 13.218)">
    <path id="Path_834" data-name="Path 834" d="M127.7,121.668c-.449-.2-.8-.354-.8-.6,0-.421.854-.512,1.465-.2a.8.8,0,0,0,.378.121c.437,0,.618-.509.618-.782,0-.791-1.454-.831-1.745-.831-1.021,0-2.214.475-2.214,1.811,0,1.981,2.609,1.876,2.609,2.748,0,.322-.372.436-.691.436-.732,0-.95-.609-1.4-.609-.387,0-.667.477-.667.8,0,1.369,4.255,2.018,4.255-.757C129.5,122.464,128.457,122,127.7,121.668Zm0,0" transform="translate(-125.246 -119.379)" fill="#7dc4a6"/>
    <path id="Path_835" data-name="Path 835" d="M174.039,120.33v3.736c0,.475-.23.716-.683.716s-.683-.241-.683-.716V120.33c0-.658-1.5-.669-1.5,0v3.736a2.185,2.185,0,0,0,4.361,0V120.33C175.537,119.672,174.039,119.662,174.039,120.33Zm0,0" transform="translate(-166.526 -119.787)" fill="#7dc4a6"/>
    <path id="Path_836" data-name="Path 836" d="M224.222,122.719a1.469,1.469,0,0,0,.564-1.28c0-1.028-.606-1.572-1.753-1.572h-1.687c-.321,0-.667.157-.667.5V125.6c0,.246.229.494.667.494h1.827a1.643,1.643,0,0,0,1.761-1.876c0-.635-.07-1.181-.712-1.5Zm-1.3-.589h-.757v-.93h.757C223.4,121.2,223.413,122.13,222.926,122.13Zm.51,1.983c0,.779-.486.65-1.267.65v-1.432C223.147,123.332,223.436,123.206,223.436,124.114Zm0,0" transform="translate(-211.019 -119.818)" fill="#7dc4a6"/>
    <path id="Path_837" data-name="Path 837" d="M271.611,119.867c-.821,0-.811.21-1.844,2.015-1.033-1.805-1.023-2.015-1.843-2.015a.7.7,0,0,0-.749.749v4.979c0,.67,1.5.669,1.5,0v-2.748c.612,1.12.646,1.358,1.078,1.358.452,0,.509-.273,1.111-1.3v2.691c0,.67,1.5.669,1.5,0v-4.979a.7.7,0,0,0-.749-.749Zm0,0" transform="translate(-252.807 -119.818)" fill="#7dc4a6"/>
    <path id="Path_838" data-name="Path 838" d="M325.055,120.317v5.234c0,.67,1.5.669,1.5,0v-5.234C326.553,119.653,325.055,119.651,325.055,120.317Zm0,0" transform="translate(-304.827 -119.774)" fill="#7dc4a6"/>
    <path id="Path_839" data-name="Path 839" d="M346.82,119.867h-3.555c-.666,0-.653,1.366,0,1.366h1.029v4.361c0,.67,1.5.669,1.5,0v-4.361h1.029C347.473,121.233,347.485,119.867,346.82,119.867Zm0,0" transform="translate(-320.749 -119.818)" fill="#7dc4a6"/>
  </g>
  <g id="website_1_" data-name="website (1)" transform="translate(0 -8.533)">
    <g id="Group_512" data-name="Group 512" transform="translate(32.313 30.775)">
      <g id="Group_511" data-name="Group 511">
        <path id="Path_815" data-name="Path 815" d="M325.045,212.757a.962.962,0,0,1-.288-.692.975.975,0,0,1,.286-.692l.669-.669-5.72-1.716,1.094,3.649.622,2.071.624-.624a1.129,1.129,0,0,1,1.6,0l1.9,1.9,1.222-1.223Z" transform="translate(-319.992 -208.989)" fill="#7dc4a6" stroke="#fff" stroke-linecap="round" stroke-linejoin="round" stroke-width="1"/>
      </g>
    </g>
    <g id="Group_516" data-name="Group 516" transform="translate(0 41.243)">
      <g id="Group_515" data-name="Group 515">
        <path id="Path_817" data-name="Path 817" d="M47.414,332.8H0v3.457a3.458,3.458,0,0,0,3.449,3.459h17.2c-.2,3.428-1.628,5.187-4.269,5.187H14.655a2.593,2.593,0,0,0,0,5.187H37.069a2.593,2.593,0,0,0,0-5.187H35.345c-2.641,0-4.064-1.758-4.269-5.187h17.2a3.458,3.458,0,0,0,3.449-3.459V332.8Zm-24.138,1.729h5.172a.864.864,0,0,1,0,1.729H23.276a.864.864,0,0,1,0-1.729Zm7.87,10.374H20.578a8.286,8.286,0,0,0,1.812-5.187h6.944A8.292,8.292,0,0,0,31.146,344.9Z" transform="translate(0 -332.8)" fill="#7dc4a6"/>
      </g>
    </g>
    <g id="Group_520" data-name="Group 520" transform="translate(0 8.533)">
      <g id="Group_519" data-name="Group 519" transform="translate(0 0)">
        <path id="Path_819" data-name="Path 819" d="M48.275,8.533H3.449A3.458,3.458,0,0,0,0,11.992V39.654H3.448v-26.8a.864.864,0,0,1,.862-.864h43.1a.864.864,0,0,1,.862.864v26.8h3.448V11.992A3.458,3.458,0,0,0,48.275,8.533Z" transform="translate(0 -8.533)" fill="#7dc4a6"/>
      </g>
    </g>
  </g>
</svg>
