<svg xmlns="http://www.w3.org/2000/svg" xmlns:xlink="http://www.w3.org/1999/xlink" width="381" height="331" viewBox="0 0 381 331">
    <defs>
        <path id="7xxura357a" d="M288.956 282.125c-6.71 7.064-13.06 11.62-18.075 15.22-58.966 42.308-128.736 29.975-143.565 26.963-21.897-4.447-64.224-13.044-94.824-49.03-46.297-54.444-39.088-140.22-3.177-196.841 6.569-10.357 41.267-67.84 111.79-77.06 42.679-5.578 92.43 5.674 128.458 35.858 75.627 63.36 70.242 191.358 19.393 244.89"/>
        <path id="26aep91u5c" d="M7.257.062C5.98 1.95.91 44.692.117 60.478c-.054 1.068.8 1.957 1.87 1.957.921 0 1.705-.671 1.848-1.582l9.274-59.431L7.257.062"/>
        <path id="vnofmson2e" d="M5.903.062c1.276 1.888 6.346 44.63 7.14 60.416.053 1.068-.8 1.957-1.87 1.957-.921 0-1.706-.671-1.848-1.582L.051 1.422 5.903.062"/>
        <path id="bonpsq0xxg" d="M.067 6.086l-.005.466c-.03 3.353 2.859 6.103 6.476 6.166l42.867.728c3.565.061 6.537-2.515 6.71-5.816l.022-.426c.18-3.443-2.743-6.344-6.461-6.41L6.79.024C3.12-.04.098 2.683.067 6.086"/>
        <path id="q0f2oog7wi" d="M29.969 6.91c-.042-.153-.105-.303-.213-.44-1.972-2.52-5.935-6.475-11.324-6.4-7.897.112-10.65.97-16.786.05L.198 4.918c-.146.49-.15.978-.043 1.431 1.448.573 4.687 1.2 12.006 1.2 8.587 0 14.856-.402 17.808-.64"/>
        <path id="cmj0drrxjk" d="M1.864.11L.086 6.151s3.936 1.792 7.4.353l.679-5.235L1.864.11"/>
        <path id="2zfx8ff4in" d="M10.174 11.664C4.468 16.249 1.552 17.79.066 18.254c.968.755 2.394.821 3.449-.027L23.7 2.007c.68-.545.588-1.538-.045-1.994-2.153 2.033-6.789 6.273-13.482 11.651"/>
        <path id="zisjmxpnto" d="M.07 2.593c.408.371 4.354 8.332 4.354 8.332s4.395-.95 5.291-3.731L5.761.008.071 2.593"/>
        <path id="b5axj79r1r" d="M11.312.066S5.762 9.878.104 14.633l11.695 6.524s2.636-10.387 8.657-13.429L11.312.066"/>
        <path id="ak9dqc34yu" d="M.116 67.936s13.986 3.409 27.336 0c0 0 18.68-25.112 25.906-31.946 0 0 11.528 18.19 37.186 20.768l1.43-3.197S71.549 44.144 65.26 29.676C58.972 15.209 56.446 9.037 50.725 5.263c-3.563-2.352-5.696-3.957-6.799-4.835-.603-.48-1.436-.534-2.095-.133C35.76 3.996 7.19 23.562.116 67.935"/>
        <path id="dad6oh8wgw" d="M7.84 14.156c-.27 0-.536-.12-.712-.351C2.674 7.998.194 1.596.09 1.327-.087.865.144.347.606.168c.464-.178.981.054 1.16.516C1.79.749 4.26 7.12 8.55 12.714c.302.392.228.955-.166 1.258-.162.124-.354.184-.545.184"/>
        <path id="bncpho4k4y" d="M.08 2.93l2.889-.77L11.737.13c1.056-.244 2.166-.057 3.083.52l7.54 4.743-20.822-.035L.08 2.93"/>
        <path id="vdw7zngm6B" d="M15.804.113s5.393 8.965 6.329 13.921c.936 4.955 2.438 8.052-3.202 9.818-5.64 1.766-10.88-.469-14.17-5.095 0 0-5.137-7.118-4.624-10.377C.649 5.12 15.804.113 15.804.113"/>
        <path id="qdeapx9v5E" d="M13.703 25.482l.73-.096s-3.82-5.77-1.321-7.202c2.499-1.432 12.682-4.944 14.45-8.955 1.706-3.866-.844-8.234-3.92-9.146-.194-.058-.4.057-.47.248l-.18.487c-.124.333-.59.347-.733.02-.135-.308-.578-.32-.717-.014-.545 1.202-2.178 3.254-7.076 4.841C7.518 7.918 3.19 11.42 3.722 16.358c.033.312-.277.528-.565.401-.568-.25-1.43-.29-2.43.804C-1.01 19.465.352 23.624 5.1 26.57c.226.14.266.457.065.63-.71.609-1.71 1.966 1.503 3.174 3.287 1.237 5.08.819 5.743.553.179-.072.28-.256.244-.445l-.844-4.326c-.044-.224.11-.438.336-.468l1.556-.205"/>
        <path id="6fsrejbwgG" d="M5.602 4.291S3.222-1.576.722.486c-2.499 2.063 2.31 6.622 4.53 6.56l.35-2.755"/>
        <path id="c3txhksz3J" d="M1.95 4.158c.035.002.068.002.103.002l44.777-.044c1.106-.001 2.003-.898 2.002-2.003-.002-1.105-.904-2.018-2.007-1.998L2.048.16C.942.16.046 1.057.047 2.162c.001 1.07.845 1.943 1.903 1.996"/>
        <path id="aorenusm7M" d="M25.469 2.11s.493 2.74.689 5.995c.082 1.387-.945 2.592-2.328 2.726-4.815.467-15.774 1.329-22.772.32-.98-.142-1.37-1.346-.645-2.021C3.299 6.442 10.267 1.212 21.737.068l3.732 2.042"/>
        <path id="y5g5qq3pnO" d="M8.422 2.65L5.988 8.618c-.334.817-1.163 1.326-2.041 1.234-.597-.063-1.302-.177-1.989-.385C.584 9.049-.19 7.592.221 6.217L2.058.072l6.364 2.579"/>
        <path id="wec2mbwg2R" d="M6.96.022S2.086 4.1.186 9.332c-.522 1.44.582 2.955 2.113 2.955H12.33c1.468 0 2.593-1.321 2.338-2.767C14.029 5.908 12.186.037 6.96.022"/>
        <path id="f05e3toltT" d="M7.478.834s-.984 4.357-1.74 7.238c-.139.522-.696.81-1.206.628-1.518-.544-2.752-.784-3.65-.662-.415.055-.778-.29-.784-.71L.005.09l7.473.744"/>
        <path id="66hx4nf5zW" d="M1.447 9.716c.012 0 .024 0 .036-.002.157-.02.269-.163.249-.32L.58.26C.56.103.42-.006.26.012c-.158.02-.27.163-.249.32l1.15 9.132c.019.146.142.252.285.252"/>
        <path id="cn9pxsj5kZ" d="M28.915.055s24.022 2.133 20.623 19.25c0 0 13.28 24.988 19.487 54.424.202.958-.439 1.893-1.404 2.058l-40.004 6.85c-1.104.188-2.169-.5-2.448-1.584l-9.56-36.941-3.724 17.176L.05 58.204l9.964-50.469S11.404.371 28.915.055"/>
        <path id="esu1cgzmgab" d="M3.647 15.94c.02 0 .042-.003.063-.006.161-.036.263-.195.228-.356L.604.266C.568.106.412.005.248.04.088.074-.014.233.022.394l3.333 15.312c.031.139.155.234.292.234"/>
        <path id="mtyq8wthlad" d="M8.341 26.462c1.26-.692 2.735-.884 4.13-.536l2.785.692c.591.148 1.177-.26 1.245-.866L19.381.115c3.601 1.711 8.797 1.506 10.511 1.381L23.263 31.72H.065l8.276-5.258"/>
        <path id="i07i7bg8eag" d="M.103 17.534l.702-2.33c.403-1.342 1.395-2.426 2.694-2.948l12.682-5.1s.19-1.626-2.68-2.732c-2.87-1.105-2.2-4.32-2.2-4.32s3.923 1.788 9.664 4.626c3.285 1.623 5.127 4.488 6.105 6.645l28.735 35.033-3.373 2.317c-4.437 3.049-10.539 1.551-13.06-3.204L23.804 15.668C15.99 18.017 8.08 18.466.104 17.534"/>
        <path id="gdmgf8xj7aj" d="M7.693.272l7.389 20.679s-6.543 5.114-11.318 3.385L.041 12.482S2.885-2.004 7.693.272"/>
        <path id="r52gf9kjkam" d="M.042 4.126c0 .319 7.117 20.148 7.117 20.148l11.236-4.305L14.44.173S.042-1.208.042 4.126"/>
        <path id="crqsjq816ap" d="M18.11 11.956l2.897 10.258c.037.131.057.264.057.401 0 .837-.206 3.715-3.138 3.324-2.66-.355-5.094-.64-6.642.089-.695.326-1.028 1.127-.768 1.85.648 1.8 2.18 5.834 4.047 9.134.378.67 1.21.93 1.91.61 2.11-.96 6.503-3.109 9.634-5.666.424-.347.628-.892.527-1.43-.493-2.624-1.96-10.605-2.024-12.892-.062-2.147 2.348-3.786 3.409-4.402.347-.201.595-.535.689-.925.332-1.382.615-4.51-3.374-5.198-.835-.144-1.38-.943-1.21-1.774.338-1.652.23-4.085-2.908-4.98-3.19-.91-5.197 1.01-6.218 2.482-.413.595-1.185.788-1.846.493-.377-.168-.832-.176-1.321.236-.658.556-1.661.387-2.146-.326-.93-1.37-2.62-2.736-5.48-1.81C-.871 3.071-.628 8.923 1.232 12.106c1.862 3.181 7.264 1.087 9.821-1.021 1.944-1.602 4.905-.644 6.213-.093.414.175.722.53.844.963"/>
        <path id="xn4khlggiar" d="M1.747 8.54S-1.256 2.855.73 1.071C2.717-.713 6.082-.421 5.992 4.024 5.879 9.55 1.747 8.539 1.747 8.539"/>
        <path id="udaksf1zvau" d="M10.042 41.36c1.639 0 2.809-.123 2.935-.138l.213-.024L21.937.416c.035-.16-.067-.319-.228-.352-.163-.036-.319.067-.354.228L12.698 40.65c-1.3.115-8.252.576-11.922-2.023L8.353 3.196 6.772.215C6.695.07 6.515.015 6.37.09c-.147.077-.202.258-.125.403l1.48 2.79L.115 38.877l.151.114c2.652 1.992 6.923 2.368 9.777 2.368"/>
        <linearGradient id="wjthtj117l" x1="0%" x2="100.003%" y1="49.999%" y2="49.999%">
            <stop offset="0%" stop-color="#FDBAB9"/>
            <stop offset="100%" stop-color="#FF928E"/>
        </linearGradient>
        <linearGradient id="qnqaxj0b2p" x1="0%" x2="100.004%" y1="50.005%" y2="50.005%">
            <stop offset="0%" stop-color="#FDBAB9"/>
            <stop offset="100%" stop-color="#FF928E"/>
        </linearGradient>
        <linearGradient id="ljwg2cdx5s" x1="37.632%" x2="59.388%" y1="85.014%" y2="28.161%">
            <stop offset="0%" stop-color="#FDBAB9"/>
            <stop offset="100%" stop-color="#FF928E"/>
        </linearGradient>
        <linearGradient id="ge66sv2r6z" x1="0%" x2="99.996%" y1="50.01%" y2="50.01%">
            <stop offset="0%" stop-color="#FDBAB9"/>
            <stop offset="100%" stop-color="#FF928E"/>
        </linearGradient>
        <linearGradient id="a484crmn1C" x1="74.016%" x2="-8.383%" y1="33.921%" y2="121.129%">
            <stop offset="0%" stop-color="#FDBAB9"/>
            <stop offset="100%" stop-color="#FF928E"/>
        </linearGradient>
        <linearGradient id="4i7um3k1tH" x1="170.302%" x2="-72.114%" y1="-94.954%" y2="208.301%">
            <stop offset="0%" stop-color="#FDBAB9"/>
            <stop offset="100%" stop-color="#FF928E"/>
        </linearGradient>
        <linearGradient id="ukkrirlb2K" x1="-9830.665%" x2="-9668.163%" y1="-822.887%" y2="-808.531%">
            <stop offset="0%" stop-color="#08005D"/>
            <stop offset="100%" stop-color="#1A0F91"/>
        </linearGradient>
        <linearGradient id="yakujph0nP" x1="42.528%" x2="61.468%" y1="116.377%" y2="-58.036%">
            <stop offset="0%" stop-color="#FDBAB9"/>
            <stop offset="100%" stop-color="#FF928E"/>
        </linearGradient>
        <linearGradient id="2vy75xvumU" x1="38.006%" x2="59.192%" y1="112.958%" y2="-79.075%">
            <stop offset="0%" stop-color="#FDBAB9"/>
            <stop offset="100%" stop-color="#FF928E"/>
        </linearGradient>
        <linearGradient id="ohrvvczcfX" x1="66.602%" x2="62.241%" y1="236.896%" y2="187.805%">
            <stop offset="0%" stop-color="#52D7FF"/>
            <stop offset="100%" stop-color="#3840F7"/>
        </linearGradient>
        <linearGradient id="fmk5vbe5rae" x1="100%" x2="-.002%" y1="50.002%" y2="50.002%">
            <stop offset="0%" stop-color="#FDBAB9"/>
            <stop offset="100%" stop-color="#FF928E"/>
        </linearGradient>
        <linearGradient id="2m1m9r6qpah" x1="100%" x2="0%" y1="50%" y2="50%">
            <stop offset="0%" stop-color="#FDBAB9"/>
            <stop offset="100%" stop-color="#FF928E"/>
        </linearGradient>
        <linearGradient id="wolibbnucak" x1="77.046%" x2="29.112%" y1="102.893%" y2="22.25%">
            <stop offset="0%" stop-color="#FDBAB9"/>
            <stop offset="100%" stop-color="#FF928E"/>
        </linearGradient>
        <linearGradient id="imrprz71van" x1="36.179%" x2="111.535%" y1="17.534%" y2="149.32%">
            <stop offset="0%" stop-color="#FDBAB9"/>
            <stop offset="100%" stop-color="#FF928E"/>
        </linearGradient>
        <linearGradient id="qugdblvseas" x1="203.331%" x2="46.238%" y1="276.263%" y2="44.009%">
            <stop offset="0%" stop-color="#FDBAB9"/>
            <stop offset="100%" stop-color="#FF928E"/>
        </linearGradient>
    </defs>
    <g fill="none" fill-rule="evenodd">
        <g>
            <g>
                <g transform="translate(-924.000000, -3639.000000) translate(924.000000, 3639.000000)">
                    <ellipse cx="308" cy="322.5" fill="#180D62" rx="73" ry="8.5"/>
                    <ellipse cx="86" cy="321.346" fill="#180D62" rx="86" ry="9.5"/>
                    <g>
                        <g transform="translate(28.000000, 0.000000) translate(0.480000, 0.200000)">
                            <mask id="egymq02kub" fill="#fff">
                                <use xlink:href="#7xxura357a"/>
                            </mask>
                            <path fill="#011269" d="M288.956 247.363c-6.71 6.37-13.06 10.478-18.075 13.722-58.966 38.146-128.736 27.027-143.565 24.311-21.897-4.01-64.224-11.76-94.824-44.206-46.297-49.087-39.088-126.421-3.177-177.471 6.569-9.339 41.267-61.166 111.79-69.477 42.679-5.03 92.43 5.115 128.458 32.33 75.627 57.124 70.242 172.527 19.393 220.791" mask="url(#egymq02kub)"/>
                        </g>
                        <path fill="#02D8FB" d="M53.59 122.08l12-.63c3.324 4.52 7.393 8.562 12.123 11.919-.348 11.504-1.188 12.287.01 12.782l13.387 5.538c.391.161.839.063 1.116-.246l7.88-8.81c5.715.963 11.444.973 16.978.117l8.066 8.932c.284.313.734.419 1.121.263l13.277-5.345c.388-.156.629-.539.599-.954l-.85-11.837c4.53-3.195 8.565-7.134 11.89-11.737l12.008.805c.421.029.809-.21.966-.591l5.39-13.096c.157-.383.049-.827-.27-1.104l-9.08-7.919c.879-5.615.789-11.26-.176-16.728 8.556-7.795 9.675-7.723 9.174-8.893-5.775-12.826-5.321-13.85-6.635-13.782l-12.001.631c-3.323-4.52-7.392-8.563-12.123-11.92.348-11.497 1.188-12.286-.01-12.782-13.395-5.273-13.655-6.24-14.502-5.292l-7.88 8.81c-5.715-.963-11.444-.973-16.98-.117-7.962-8.462-7.99-9.676-9.186-9.194-13.045 5.519-13.966 5.02-13.875 6.298l.85 11.836c-4.532 3.196-8.565 7.136-11.89 11.738-11.479-.533-12.484-1.409-12.975-.213-5.098 13.051-6.102 13.343-5.12 14.2l9.08 7.918c-.878 5.614-.788 11.26.177 16.728-8.527 7.768-9.678 7.716-9.174 8.893 5.774 12.826 5.32 13.85 6.635 13.782" transform="translate(28.000000, 0.000000)"/>
                        <path fill="#F2F7FF" d="M109.637 80.17c-6.24-.946-12.138 3.22-13.01 9.519-.861 6.205 3.575 12.033 9.89 12.986 6.314.957 12.151-3.314 13.01-9.52.862-6.214-3.588-12.033-9.89-12.986zm-15.503 9.142c1.048-7.555 8.154-12.756 15.842-11.592 7.688 1.165 13.091 8.257 12.044 15.812-1.048 7.556-8.154 12.756-15.843 11.592-7.69-1.164-13.09-8.258-12.043-15.812z" transform="translate(28.000000, 0.000000)"/>
                        <path fill="#F2F7FF" d="M93.518 123.432c-1.896-.874-3.716-1.904-5.425-3.072-.515-.352-.689-1.006-.443-1.541.03-.064.065-.126.106-.185.39-.56 1.174-.694 1.746-.302 1.967 1.344 4.09 2.49 6.313 3.411 16.741 6.925 35.785-.4 43.13-16.339.188-.407.368-.82.54-1.238 6.952-16.898-1.463-36.243-18.603-43.338-17.117-7.081-36.728.728-43.67 17.577-4.127 10.032-1.644 17.135-2.118 18.165-.513 1.112-2.194.859-2.39-.354-1.064-6.628-.226-13.636 2.754-20.106 12.867-27.918 53.81-26.776 66.083 1.815 3.777 8.799 3.875 18.461.276 27.205-.186.453-.381.9-.584 1.343-3.73 8.097-10.337 14.369-18.745 17.753-8.866 3.569-18.672 3.497-27.612-.2-.456-.19-.91-.388-1.358-.594" transform="translate(28.000000, 0.000000)"/>
                        <path fill="#02D8FB" d="M150.106 179.355c1.479 1.743 3.246 3.263 5.261 4.476l.098 4.891c.011.543.476.333 5.867 2.177.5.16.444-.305 3.382-4.053 2.345.192 4.667-.009 6.885-.56l3.53 3.392c.393.376.572-.1 5.688-2.61.153-.078.24-.244.214-.414l-.688-4.846c1.742-1.479 3.262-3.246 4.476-5.261 4.671-.192 5.1.131 5.265-.377 1.687-5.565 2.083-5.716 1.661-6.033l-3.912-2.937c.193-2.345-.008-4.667-.56-6.886l3.392-3.53c.377-.391-.1-.57-2.609-5.687-.237-.465-.509-.1-5.26.475-1.479-1.744-3.247-3.264-5.261-4.477l-.099-4.89c-.01-.544-.475-.334-5.867-2.178-.496-.16-.43.286-3.381 4.053-2.345-.192-4.668.009-6.886.56l-3.53-3.391c-.124-.12-.31-.146-.462-.068l-5.226 2.677c-.153.078-.239.244-.215.414l.69 4.846c-1.744 1.479-3.263 3.246-4.477 5.262-4.672.191-5.101-.132-5.265.377-1.687 5.562-2.084 5.715-1.66 6.032l3.91 2.938c-.192 2.344.009 4.666.56 6.885-3.168 3.439-3.702 3.515-3.459 3.992l2.677 5.225c.24.468.533.098 5.261-.474" transform="translate(28.000000, 0.000000)"/>
                        <path fill="#F2F7FF" d="M162.16 165.185c-.153 2.367 1.648 4.416 4.012 4.57 3.8.245 6.031-4.258 3.51-7.13-2.51-2.858-7.275-1.264-7.523 2.56zm-1.823-.118c.219-3.379 3.13-5.936 6.51-5.717 3.378.218 5.937 3.13 5.717 6.509-.218 3.37-3.138 5.936-6.51 5.718-3.37-.22-5.935-3.138-5.717-6.51z" transform="translate(28.000000, 0.000000)"/>
                        <path fill="#F2F7FF" d="M159.025 178.465c-.5-.286-.603-.853-.364-1.265.252-.437.815-.585 1.247-.333.81.468 1.679.854 2.581 1.145.197.024 4.836 1.875 10.111-.818 10.46-5.36 9.225-20.801-1.975-24.411-6.443-2.078-13.34 1.058-16.104 7.06-2.785 6.044.364 9.189-1.564 9.635-.49.114-.981-.192-1.095-.683-.616-2.65-.497-5.425.343-8.026 2.545-7.9 11.054-12.28 18.98-9.724 8.529 2.75 12.881 12.392 9.057 20.692-3.084 6.694-10.842 10.423-18.315 8.013-1.01-.327-1.988-.759-2.902-1.285" transform="translate(28.000000, 0.000000)"/>
                        <g transform="translate(28.000000, 0.000000) translate(0.720000, 259.039985)">
                            <mask id="a4g8rjdecd" fill="#fff">
                                <use xlink:href="#26aep91u5c"/>
                            </mask>
                            <path fill="#7D97F4" d="M7.257.062C5.98 1.95.91 44.692.117 60.478c-.054 1.068.8 1.957 1.87 1.957.921 0 1.705-.671 1.848-1.582l9.274-59.431L7.257.062" mask="url(#a4g8rjdecd)"/>
                        </g>
                        <g transform="translate(28.000000, 0.000000) translate(42.839997, 259.039985)">
                            <mask id="832il8f8cf" fill="#fff">
                                <use xlink:href="#vnofmson2e"/>
                            </mask>
                            <path fill="#7D97F4" d="M5.903.062c1.276 1.888 6.346 44.63 7.14 60.416.053 1.068-.8 1.957-1.87 1.957-.921 0-1.706-.671-1.848-1.582L.051 1.422 5.903.062" mask="url(#832il8f8cf)"/>
                        </g>
                        <g transform="translate(28.000000, 0.000000) translate(0.240000, 249.679985)">
                            <mask id="kh4k2q4weh" fill="#fff">
                                <use xlink:href="#bonpsq0xxg"/>
                            </mask>
                            <path fill="#7D97F4" d="M.067 6.086l-.005.466c-.03 3.353 2.859 6.103 6.476 6.166l42.867.728c3.565.061 6.537-2.515 6.71-5.816l.022-.426c.18-3.443-2.743-6.344-6.461-6.41L6.79.024C3.12-.04.098 2.683.067 6.086" mask="url(#kh4k2q4weh)"/>
                        </g>
                        <g transform="translate(28.000000, 0.000000) translate(62.639996, 307.879982)">
                            <mask id="24z5jr3ujj" fill="#fff">
                                <use xlink:href="#q0f2oog7wi"/>
                            </mask>
                            <path fill="#6D7DD3" d="M29.969 6.91c-.042-.153-.105-.303-.213-.44-1.972-2.52-5.935-6.475-11.324-6.4-7.897.112-10.65.97-16.786.05L.198 4.918c-.146.49-.15.978-.043 1.431 1.448.573 4.687 1.2 12.006 1.2 8.587 0 14.856-.402 17.808-.64" mask="url(#24z5jr3ujj)"/>
                        </g>
                        <g transform="translate(28.000000, 0.000000) translate(64.199996, 302.719982)">
                            <mask id="3vdov5bk4m" fill="#fff">
                                <use xlink:href="#cmj0drrxjk"/>
                            </mask>
                            <path fill="url(#wjthtj117l)" d="M1.864.11L.086 6.151s3.936 1.792 7.4.353l.679-5.235L1.864.11" mask="url(#3vdov5bk4m)"/>
                        </g>
                        <g transform="translate(28.000000, 0.000000) translate(109.559993, 299.959982)"/>
                        <g fill="#6D7DD3">
                            <path d="M26.416.853c-.128-.091-.27-.169-.44-.209-3.108-.718-8.662-1.304-12.817 2.13C7.074 7.806 5.461 10.195.104 13.324l1.863 4.63c.19.472.493.854.859 1.14 1.486-.464 4.402-2.005 10.108-6.59C19.627 7.126 24.263 2.886 26.416.854" transform="translate(28.000000, 0.000000) translate(106.799994, 299.119982)"/>
                        </g>
                        <g fill="#353495">
                            <path d="M8.492.016s43.823 3.578 52.814 7.81c8.989 4.232-7.337 63.546-7.337 63.546s-2.447 1.179-7.894-.514c0 0 5.585-43.773 1.43-53.264L.054 9.833 8.492.016" transform="translate(28.000000, 0.000000) translate(19.559999, 233.959986)"/>
                        </g>
                        <g transform="translate(28.000000, 0.000000) translate(102.479994, 301.519982)">
                            <mask id="czze350ldq" fill="#fff">
                                <use xlink:href="#zisjmxpnto"/>
                            </mask>
                            <path fill="url(#qnqaxj0b2p)" d="M.07 2.593c.408.371 4.354 8.332 4.354 8.332s4.395-.95 5.291-3.731L5.761.008.071 2.593" mask="url(#czze350ldq)"/>
                        </g>
                        <g fill="#4443A8">
                            <path d="M1.417.01S-.01 3.445.047 8.012c.081 6.316 5.158 11.44 11.466 11.756l51.806 2.361c1.095.05 2.02.808 2.295 1.869 1.216 4.708 7.167 19.168 36.255 48.022.774.768 1.979.9 2.9.317l4.142-2.616c.434-.275.573-.845.313-1.287L79.06 16.924c-1.584-2.615-4.13-4.504-7.094-5.261L27.812.376 1.417.01" transform="translate(28.000000, 0.000000) translate(0.240000, 233.599986)"/>
                        </g>
                        <g transform="translate(28.000000, 0.000000) translate(41.399998, 153.079991)">
                            <mask id="nxxtth544t" fill="#fff">
                                <use xlink:href="#b5axj79r1r"/>
                            </mask>
                            <path fill="url(#ljwg2cdx5s)" d="M11.312.066S5.762 9.878.104 14.633l11.695 6.524s2.636-10.387 8.657-13.429L11.312.066" mask="url(#nxxtth544t)"/>
                        </g>
                        <g transform="translate(28.000000, 0.000000) translate(0.600000, 166.039990)">
                            <mask id="53rq6c72yv" fill="#fff">
                                <use xlink:href="#ak9dqc34yu"/>
                            </mask>
                            <path fill="#E36866" d="M.116 67.936s13.986 3.409 27.336 0c0 0 18.68-25.112 25.906-31.946 0 0 11.528 18.19 37.186 20.768l1.43-3.197S71.549 44.144 65.26 29.676C58.972 15.209 56.446 9.037 50.725 5.263c-3.563-2.352-5.696-3.957-6.799-4.835-.603-.48-1.436-.534-2.095-.133C35.76 3.996 7.19 23.562.116 67.935" mask="url(#53rq6c72yv)"/>
                        </g>
                        <g transform="translate(28.000000, 0.000000) translate(45.359997, 187.519989)">
                            <mask id="i58wnzvy4x" fill="#fff">
                                <use xlink:href="#dad6oh8wgw"/>
                            </mask>
                            <path fill="#DD615F" d="M7.84 14.156c-.27 0-.536-.12-.712-.351C2.674 7.998.194 1.596.09 1.327-.087.865.144.347.606.168c.464-.178.981.054 1.16.516C1.79.749 4.26 7.12 8.55 12.714c.302.392.228.955-.166 1.258-.162.124-.354.184-.545.184" mask="url(#i58wnzvy4x)"/>
                        </g>
                        <g transform="translate(28.000000, 0.000000) translate(89.519995, 214.999987)">
                            <mask id="dg8ab3g2nA" fill="#fff">
                                <use xlink:href="#bncpho4k4y"/>
                            </mask>
                            <path fill="url(#ge66sv2r6z)" d="M.08 2.93l2.889-.77L11.737.13c1.056-.244 2.166-.057 3.083.52l7.54 4.743-20.822-.035L.08 2.93" mask="url(#dg8ab3g2nA)"/>
                        </g>
                        <g transform="translate(28.000000, 0.000000) translate(45.719997, 138.319992)">
                            <mask id="7t6hy2n2aD" fill="#fff">
                                <use xlink:href="#vdw7zngm6B"/>
                            </mask>
                            <path fill="url(#a484crmn1C)" d="M15.804.113s5.393 8.965 6.329 13.921c.936 4.955 2.438 8.052-3.202 9.818-5.64 1.766-10.88-.469-14.17-5.095 0 0-5.137-7.118-4.624-10.377C.649 5.12 15.804.113 15.804.113" mask="url(#7t6hy2n2aD)"/>
                        </g>
                        <g transform="translate(28.000000, 0.000000) translate(38.279998, 127.759992)">
                            <mask id="gdnnb8rr5F" fill="#fff">
                                <use xlink:href="#qdeapx9v5E"/>
                            </mask>
                            <path fill="#00024E" d="M13.703 25.482l.73-.096s-3.82-5.77-1.321-7.202c2.499-1.432 12.682-4.944 14.45-8.955 1.706-3.866-.844-8.234-3.92-9.146-.194-.058-.4.057-.47.248l-.18.487c-.124.333-.59.347-.733.02-.135-.308-.578-.32-.717-.014-.545 1.202-2.178 3.254-7.076 4.841C7.518 7.918 3.19 11.42 3.722 16.358c.033.312-.277.528-.565.401-.568-.25-1.43-.29-2.43.804C-1.01 19.465.352 23.624 5.1 26.57c.226.14.266.457.065.63-.71.609-1.71 1.966 1.503 3.174 3.287 1.237 5.08.819 5.743.553.179-.072.28-.256.244-.445l-.844-4.326c-.044-.224.11-.438.336-.468l1.556-.205" mask="url(#gdnnb8rr5F)"/>
                        </g>
                        <g transform="translate(28.000000, 0.000000) translate(46.679997, 149.839991)">
                            <mask id="fc38vqgi0I" fill="#fff">
                                <use xlink:href="#6fsrejbwgG"/>
                            </mask>
                            <path fill="url(#4i7um3k1tH)" d="M5.602 4.291S3.222-1.576.722.486c-2.499 2.063 2.31 6.622 4.53 6.56l.35-2.755" mask="url(#fc38vqgi0I)"/>
                        </g>
                        <g transform="translate(28.000000, 0.000000) translate(88.079995, 219.079987)">
                            <mask id="oiu6p1xqeL" fill="#fff">
                                <use xlink:href="#c3txhksz3J"/>
                            </mask>
                            <path fill="url(#ukkrirlb2K)" d="M1.95 4.158c.035.002.068.002.103.002l44.777-.044c1.106-.001 2.003-.898 2.002-2.003-.002-1.105-.904-2.018-2.007-1.998L2.048.16C.942.16.046 1.057.047 2.162c.001 1.07.845 1.943 1.903 1.996" mask="url(#oiu6p1xqeL)"/>
                        </g>
                        <g transform="translate(28.000000, 0.000000) translate(240.719986, 306.919982)">
                            <mask id="mwqx7h9kqN" fill="#fff">
                                <use xlink:href="#aorenusm7M"/>
                            </mask>
                            <path fill="#6D7DD3" d="M25.469 2.11s.493 2.74.689 5.995c.082 1.387-.945 2.592-2.328 2.726-4.815.467-15.774 1.329-22.772.32-.98-.142-1.37-1.346-.645-2.021C3.299 6.442 10.267 1.212 21.737.068l3.732 2.042" mask="url(#mwqx7h9kqN)"/>
                        </g>
                        <g transform="translate(28.000000, 0.000000) translate(260.159984, 300.199982)">
                            <mask id="tray4bq6rQ" fill="#fff">
                                <use xlink:href="#y5g5qq3pnO"/>
                            </mask>
                            <path fill="url(#yakujph0nP)" d="M8.422 2.65L5.988 8.618c-.334.817-1.163 1.326-2.041 1.234-.597-.063-1.302-.177-1.989-.385C.584 9.049-.19 7.592.221 6.217L2.058.072l6.364 2.579" mask="url(#tray4bq6rQ)"/>
                        </g>
                        <g transform="translate(28.000000, 0.000000) translate(303.239982, 313.759981)">
                            <mask id="ev54j7h3jS" fill="#fff">
                                <use xlink:href="#wec2mbwg2R"/>
                            </mask>
                            <path fill="#6D7DD3" d="M6.96.022S2.086 4.1.186 9.332c-.522 1.44.582 2.955 2.113 2.955H12.33c1.468 0 2.593-1.321 2.338-2.767C14.029 5.908 12.186.037 6.96.022" mask="url(#ev54j7h3jS)"/>
                        </g>
                        <g transform="translate(28.000000, 0.000000) translate(308.759982, 307.639982)">
                            <mask id="9bakyeer5V" fill="#fff">
                                <use xlink:href="#f05e3toltT"/>
                            </mask>
                            <path fill="url(#2vy75xvumU)" d="M7.478.834s-.984 4.357-1.74 7.238c-.139.522-.696.81-1.206.628-1.518-.544-2.752-.784-3.65-.662-.415.055-.778-.29-.784-.71L.005.09l7.473.744" mask="url(#9bakyeer5V)"/>
                        </g>
                        <g fill="#4443A8">
                            <path d="M29.674 11.369L.024 101.822s5.687 3.724 8.396 3.57l35.218-72.694s6.162 44.79 3.176 76.947l10.086.77S73.303 28.239 60.88.093L29.674 11.37" transform="translate(28.000000, 0.000000) translate(260.639984, 199.039988)"/>
                        </g>
                        <g transform="translate(28.000000, 0.000000) translate(302.639982, 221.239987)">
                            <mask id="qs48iw6irY" fill="#fff">
                                <use xlink:href="#66hx4nf5zW"/>
                            </mask>
                            <path fill="url(#ohrvvczcfX)" d="M1.447 9.716c.012 0 .024 0 .036-.002.157-.02.269-.163.249-.32L.58.26C.56.103.42-.006.26.012c-.158.02-.27.163-.249.32l1.15 9.132c.019.146.142.252.285.252" mask="url(#qs48iw6irY)"/>
                        </g>
                        <g transform="translate(28.000000, 0.000000) translate(255.839985, 130.759992)">
                            <mask id="df57yytcaaa" fill="#fff">
                                <use xlink:href="#cn9pxsj5kZ"/>
                            </mask>
                            <path fill="#EB8D2D" d="M28.915.055s24.022 2.133 20.623 19.25c0 0 13.28 24.988 19.487 54.424.202.958-.439 1.893-1.404 2.058l-40.004 6.85c-1.104.188-2.169-.5-2.448-1.584l-9.56-36.941-3.724 17.176L.05 58.204l9.964-50.469S11.404.371 28.915.055" mask="url(#df57yytcaaa)"/>
                        </g>
                        <g transform="translate(28.000000, 0.000000) translate(267.599984, 157.279991)">
                            <mask id="09gh2gcivac" fill="#fff">
                                <use xlink:href="#esu1cgzmgab"/>
                            </mask>
                            <path fill="#DE8123" d="M3.647 15.94c.02 0 .042-.003.063-.006.161-.036.263-.195.228-.356L.604.266C.568.106.412.005.248.04.088.074-.014.233.022.394l3.333 15.312c.031.139.155.234.292.234" mask="url(#09gh2gcivac)"/>
                        </g>
                        <g transform="translate(28.000000, 0.000000) translate(265.319984, 192.319989)">
                            <mask id="ke995mu10af" fill="#fff">
                                <use xlink:href="#mtyq8wthlad"/>
                            </mask>
                            <path fill="url(#fmk5vbe5rae)" d="M8.341 26.462c1.26-.692 2.735-.884 4.13-.536l2.785.692c.591.148 1.177-.26 1.245-.866L19.381.115c3.601 1.711 8.797 1.506 10.511 1.381L23.263 31.72H.065l8.276-5.258" mask="url(#ke995mu10af)"/>
                        </g>
                        <g transform="translate(28.000000, 0.000000) translate(211.919987, 145.639991)">
                            <mask id="mt0ry5d6hai" fill="#fff">
                                <use xlink:href="#i07i7bg8eag"/>
                            </mask>
                            <path fill="url(#2m1m9r6qpah)" d="M.103 17.534l.702-2.33c.403-1.342 1.395-2.426 2.694-2.948l12.682-5.1s.19-1.626-2.68-2.732c-2.87-1.105-2.2-4.32-2.2-4.32s3.923 1.788 9.664 4.626c3.285 1.623 5.127 4.488 6.105 6.645l28.735 35.033-3.373 2.317c-4.437 3.049-10.539 1.551-13.06-3.204L23.804 15.668C15.99 18.017 8.08 18.466.104 17.534" mask="url(#mt0ry5d6hai)"/>
                        </g>
                        <g transform="translate(28.000000, 0.000000) translate(269.279984, 114.199993)">
                            <mask id="8n94hsebmal" fill="#fff">
                                <use xlink:href="#gdmgf8xj7aj"/>
                            </mask>
                            <path fill="url(#wolibbnucak)" d="M7.693.272l7.389 20.679s-6.543 5.114-11.318 3.385L.041 12.482S2.885-2.004 7.693.272" mask="url(#8n94hsebmal)"/>
                        </g>
                        <g transform="translate(28.000000, 0.000000) translate(254.879985, 102.919994)">
                            <mask id="hkbbim001ao" fill="#fff">
                                <use xlink:href="#r52gf9kjkam"/>
                            </mask>
                            <path fill="url(#imrprz71van)" d="M.042 4.126c0 .319 7.117 20.148 7.117 20.148l11.236-4.305L14.44.173S.042-1.208.042 4.126" mask="url(#hkbbim001ao)"/>
                        </g>
                        <g transform="translate(28.000000, 0.000000) translate(249.239985, 95.959994)">
                            <mask id="gkn7ebpa0aq" fill="#fff">
                                <use xlink:href="#crqsjq816ap"/>
                            </mask>
                            <path fill="#00024E" d="M18.11 11.956l2.897 10.258c.037.131.057.264.057.401 0 .837-.206 3.715-3.138 3.324-2.66-.355-5.094-.64-6.642.089-.695.326-1.028 1.127-.768 1.85.648 1.8 2.18 5.834 4.047 9.134.378.67 1.21.93 1.91.61 2.11-.96 6.503-3.109 9.634-5.666.424-.347.628-.892.527-1.43-.493-2.624-1.96-10.605-2.024-12.892-.062-2.147 2.348-3.786 3.409-4.402.347-.201.595-.535.689-.925.332-1.382.615-4.51-3.374-5.198-.835-.144-1.38-.943-1.21-1.774.338-1.652.23-4.085-2.908-4.98-3.19-.91-5.197 1.01-6.218 2.482-.413.595-1.185.788-1.846.493-.377-.168-.832-.176-1.321.236-.658.556-1.661.387-2.146-.326-.93-1.37-2.62-2.736-5.48-1.81C-.871 3.071-.628 8.923 1.232 12.106c1.862 3.181 7.264 1.087 9.821-1.021 1.944-1.602 4.905-.644 6.213-.093.414.175.722.53.844.963" mask="url(#gkn7ebpa0aq)"/>
                        </g>
                        <g transform="translate(28.000000, 0.000000) translate(273.119984, 108.799994)">
                            <mask id="43igombl6at" fill="#fff">
                                <use xlink:href="#xn4khlggiar"/>
                            </mask>
                            <path fill="url(#qugdblvseas)" d="M1.747 8.54S-1.256 2.855.73 1.071C2.717-.713 6.082-.421 5.992 4.024 5.879 9.55 1.747 8.539 1.747 8.539" mask="url(#43igombl6at)"/>
                        </g>
                        <g transform="translate(28.000000, 0.000000) translate(282.839983, 152.839991)">
                            <mask id="othtjjjxmav" fill="#fff">
                                <use xlink:href="#udaksf1zvau"/>
                            </mask>
                            <path fill="#DE8123" d="M10.042 41.36c1.639 0 2.809-.123 2.935-.138l.213-.024L21.937.416c.035-.16-.067-.319-.228-.352-.163-.036-.319.067-.354.228L12.698 40.65c-1.3.115-8.252.576-11.922-2.023L8.353 3.196 6.772.215C6.695.07 6.515.015 6.37.09c-.147.077-.202.258-.125.403l1.48 2.79L.115 38.877l.151.114c2.652 1.992 6.923 2.368 9.777 2.368" mask="url(#othtjjjxmav)"/>
                        </g>
                        <path fill="#7D97F4" d="M50.072 321.258c-.191 0-.386-.05-.572-.152-.736-.405-1.076-1.497-.76-2.438l30.424-90.5c.317-.94 1.169-1.374 1.906-.97.736.404 1.076 1.496.76 2.438l-30.425 90.498c-.236.702-.77 1.124-1.333 1.124" transform="translate(28.000000, 0.000000)"/>
                        <path fill="#7D97F4" d="M84.346 321.258c-.562 0-1.097-.42-1.334-1.124L52.59 229.636c-.317-.942.023-2.034.759-2.438.736-.406 1.589.029 1.906.97l30.424 90.5c.316.94-.023 2.033-.76 2.438-.186.102-.38.152-.572.152M256.552 321.258c-.192 0-.387-.05-.573-.152-.737-.405-1.076-1.497-.76-2.438l30.424-90.5c.317-.94 1.169-1.374 1.906-.97.737.404 1.076 1.496.76 2.438l-30.424 90.498c-.237.702-.772 1.124-1.333 1.124" transform="translate(28.000000, 0.000000)"/>
                        <path fill="#7D97F4" d="M290.825 321.258c-.562 0-1.097-.42-1.333-1.124l-30.424-90.498c-.317-.942.023-2.034.76-2.438.734-.406 1.588.029 1.905.97l30.424 90.5c.317.94-.023 2.033-.76 2.438-.186.102-.38.152-.572.152" transform="translate(28.000000, 0.000000)"/>
                        <path fill="#7D97F4" d="M301.493 222.934c.141-.51-.052-1.041-.528-1.443-.477-.403-1.186-.636-1.935-.636H45.471c-.984 0-1.9.35-2.431.927-.53.579-.601 1.305-.189 1.928l2.748 4.146c.63.949 1.993 1.556 3.493 1.556H297.29c1.396 0 2.595-.69 2.86-1.644l1.343-4.834" transform="translate(28.000000, 0.000000)"/>
                        <path fill="#E36866" d="M225.396 117.792s-53.759-26.561-36.178-46.118c17.582-19.556 50.357-11.74 52.018 8.843 1.66 20.584-38.233 15.755-15.84 37.275" transform="translate(28.000000, 0.000000)"/>
                        <path fill="#F2F7FF" d="M193.224 76.725c0 .3.242.543.542.543h23.724c.3 0 .543-.243.543-.543 0-.3-.243-.542-.543-.542h-23.724c-.3 0-.542.242-.542.542M224.536 77.268h7.04c.299 0 .541-.243.541-.543 0-.3-.242-.542-.541-.542h-7.04c-.3 0-.543.242-.543.542 0 .3.244.543.543.543M192.425 81.528c0 .3.242.542.542.542h8.908c.3 0 .542-.242.542-.542 0-.3-.242-.542-.542-.542h-8.908c-.3 0-.542.243-.542.542M214.405 81.528c0 .3.243.542.541.542h15.83c.3 0 .542-.242.542-.542 0-.3-.242-.542-.541-.542h-15.83c-.3 0-.542.243-.542.542M192.168 86.874h23.68c.3 0 .543-.243.543-.543 0-.299-.243-.541-.542-.541h-23.681c-.3 0-.542.242-.542.541 0 .3.242.543.542.543M221.78 86.874h8.198c.298 0 .54-.243.54-.543 0-.299-.242-.541-.54-.541h-8.199c-.3 0-.542.242-.542.541 0 .3.242.543.542.543" transform="translate(28.000000, 0.000000)"/>
                    </g>
                </g>
            </g>
        </g>
    </g>
</svg>
