<svg xmlns="http://www.w3.org/2000/svg" width="378" height="385" viewBox="0 0 378 385">
    <g fill="none" fill-rule="evenodd">
        <g>
            <g>
                <g>
                    <path fill="#011269" d="M199.535 326.068c-39.249 0-79.297-5.391-114.307-25.553-59.182-34.082-70.856-96.974-70.856-96.974s-2.191-9.403-2.191-25.349c0-21.722 4.068-55.584 23.283-94.358C60.918 32.47 112.376.417 160.814.417c14.969 0 29.66 3.065 43.193 9.568 57.325 27.544 58.031 46.827 91.357 100.739 33.327 53.911 80.818 61.884 81.688 113.576.009.555.014 1.109.014 1.662-.013 50.894-40.138 90.518-99.291 95.486-24.423 2.051-51.14 4.62-78.24 4.62" transform="translate(-785.000000, -9492.000000) translate(785.000000, 9492.000000)"/>
                    <path fill="#180D62" d="M155.562 385C69.861 385 .386 379.976.386 373.778c0-6.199 69.475-11.224 155.176-11.224s155.176 5.025 155.176 11.224c0 6.198-69.475 11.222-155.176 11.222" transform="translate(-785.000000, -9492.000000) translate(785.000000, 9492.000000)"/>
                </g>
                <path fill="#132529" d="M214.383 104.731v.511h-.512c-.283 0-.512.229-.512.512 0 .282.229.511.512.511h1.023c.135 0 .266-.054.362-.15.095-.095.149-.227.149-.361v-1.023c0-.283-.229-.512-.511-.512-.282 0-.511.229-.511.512" transform="translate(-785.000000, -9492.000000) translate(785.000000, 9492.000000)"/>
                <path fill="#02D8FB" d="M211.854 105.242h-2.017c-.282 0-.511.229-.511.512 0 .282.229.511.511.511h2.017c.282 0 .511-.229.511-.511 0-.283-.229-.512-.511-.512zm-4.034 0h-2.017c-.282 0-.511.229-.511.512 0 .282.229.511.511.511h2.017c.283 0 .512-.229.512-.511 0-.283-.229-.512-.512-.512zm-4.033 0h-2.017c-.283 0-.512.229-.512.512 0 .282.229.511.512.511h2.017c.282 0 .511-.229.511-.511 0-.283-.229-.512-.511-.512zm-4.034 0h-2.017c-.282 0-.511.229-.511.512 0 .282.229.511.511.511h2.017c.283 0 .511-.229.511-.511 0-.283-.228-.512-.511-.512zm-4.034 0h-2.016c-.283 0-.512.229-.512.512 0 .282.229.511.512.511h2.016c.283 0 .512-.229.512-.511 0-.283-.229-.512-.512-.512zm-4.033 0h-2.017c-.282 0-.511.229-.511.512 0 .282.229.511.511.511h2.017c.282 0 .511-.229.511-.511 0-.283-.229-.512-.511-.512zm-4.034 0h-2.017c-.282 0-.511.229-.511.512 0 .282.229.511.511.511h2.017c.283 0 .512-.229.512-.511 0-.283-.229-.512-.512-.512zm-4.033 0h-2.017c-.283 0-.512.229-.512.512 0 .282.229.511.512.511h2.017c.282 0 .511-.229.511-.511 0-.283-.229-.512-.511-.512zm-4.034 0h-2.017c-.282 0-.511.229-.511.512 0 .282.229.511.511.511h2.017c.282 0 .511-.229.511-.511 0-.283-.229-.512-.511-.512zm-4.034 0h-2.016c-.283 0-.512.229-.512.512 0 .282.229.511.512.511h2.016c.283 0 .512-.229.512-.511 0-.283-.229-.512-.512-.512zm-4.033 0h-2.017c-.283 0-.512.229-.512.512 0 .282.229.511.512.511h2.017c.282 0 .511-.229.511-.511 0-.283-.229-.512-.511-.512zm-4.034 0h-2.017c-.282 0-.511.229-.511.512 0 .282.229.511.511.511h2.017c.283 0 .512-.229.512-.511 0-.283-.229-.512-.512-.512zm-4.034 0h-2.016c-.283 0-.512.229-.512.512 0 .282.229.511.512.511h2.016c.283 0 .512-.229.512-.511 0-.283-.229-.512-.512-.512zm-4.033 0H157.4c-.282 0-.511.229-.511.512 0 .282.229.511.511.511h2.017c.282 0 .511-.229.511-.511 0-.283-.229-.512-.511-.512zm-4.034 0h-2.017c-.282 0-.511.229-.511.512 0 .282.229.511.511.511h2.017c.283 0 .512-.229.512-.511 0-.283-.229-.512-.512-.512zM151.35 105.242h-.512v-.511c0-.283-.229-.512-.511-.512-.283 0-.512.229-.512.512v1.023c0 .134.055.266.15.361.095.096.227.15.362.15h1.023c.282 0 .511-.229.511-.511 0-.283-.229-.512-.511-.512M150.838 102.762v-1.969c0-.283-.229-.512-.511-.512-.283 0-.512.229-.512.512v1.969c0 .283.229.512.512.512.282 0 .511-.229.511-.512zm0-3.938v-1.969c0-.283-.229-.512-.511-.512-.283 0-.512.229-.512.512v1.969c0 .282.229.511.512.511.282 0 .511-.229.511-.511zm0-3.938v-1.969c0-.283-.229-.512-.511-.512-.283 0-.512.229-.512.512v1.969c0 .282.229.511.512.511.282 0 .511-.229.511-.511zm0-3.939v-1.969c0-.282-.229-.511-.511-.511-.283 0-.512.229-.512.511v1.969c0 .283.229.512.512.512.282 0 .511-.229.511-.512zm0-3.938V85.04c0-.282-.229-.511-.511-.511-.283 0-.512.229-.512.511v1.969c0 .283.229.512.512.512.282 0 .511-.229.511-.512zm0-3.938v-1.969c0-.283-.229-.512-.511-.512-.283 0-.512.229-.512.512v1.969c0 .282.229.511.512.511.282 0 .511-.229.511-.511zm0-3.938v-1.969c0-.283-.229-.512-.511-.512-.283 0-.512.229-.512.512v1.969c0 .282.229.511.512.511.282 0 .511-.229.511-.511zm0-3.939v-1.969c0-.282-.229-.511-.511-.511-.283 0-.512.229-.512.511v1.969c0 .283.229.512.512.512.282 0 .511-.229.511-.512zm0-3.938v-1.969c0-.282-.229-.511-.511-.511-.283 0-.512.229-.512.511v1.969c0 .283.229.512.512.512.282 0 .511-.229.511-.512zm0-3.938v-1.969c0-.283-.229-.512-.511-.512-.283 0-.512.229-.512.512v1.969c0 .282.229.511.512.511.282 0 .511-.229.511-.511zm0-3.938v-1.969c0-.283-.229-.512-.511-.512-.283 0-.512.229-.512.512v1.969c0 .282.229.511.512.511.282 0 .511-.229.511-.511zm0-3.938v-1.97c0-.282-.229-.511-.511-.511-.283 0-.512.229-.512.511v1.97c0 .282.229.511.512.511.282 0 .511-.229.511-.511z" transform="translate(-785.000000, -9492.000000) translate(785.000000, 9492.000000)"/>
                <path fill="#132529" d="M150.838 55.503v-.511h.512c.282 0 .511-.229.511-.512 0-.282-.229-.511-.511-.511h-1.023c-.135 0-.267.054-.362.15-.095.095-.15.227-.15.361v1.023c0 .283.229.512.512.512.282 0 .511-.229.511-.512" transform="translate(-785.000000, -9492.000000) translate(785.000000, 9492.000000)"/>
                <path fill="#02D8FB" d="M153.367 54.992h2.016c.283 0 .512-.229.512-.512 0-.282-.229-.511-.512-.511h-2.016c-.283 0-.512.229-.512.511 0 .283.229.512.512.512zm4.033 0h2.017c.283 0 .512-.229.512-.512 0-.282-.229-.511-.512-.511H157.4c-.282 0-.511.229-.511.511 0 .283.229.512.511.512zm4.034 0h2.017c.282 0 .511-.229.511-.512 0-.282-.229-.511-.511-.511h-2.017c-.283 0-.512.229-.512.511 0 .283.229.512.512.512zm4.034 0h2.016c.283 0 .512-.229.512-.512 0-.282-.229-.511-.512-.511h-2.016c-.283 0-.512.229-.512.511 0 .283.229.512.512.512zm4.033 0h2.017c.282 0 .511-.229.511-.512 0-.282-.229-.511-.511-.511h-2.017c-.282 0-.511.229-.511.511 0 .283.229.512.511.512zm4.034 0h2.017c.282 0 .511-.229.511-.512 0-.282-.229-.511-.511-.511h-2.017c-.283 0-.512.229-.512.511 0 .283.229.512.512.512zm4.033 0h2.017c.283 0 .512-.229.512-.512 0-.282-.229-.511-.512-.511h-2.017c-.282 0-.511.229-.511.511 0 .283.229.512.511.512zm4.034 0h2.017c.282 0 .511-.229.511-.512 0-.282-.229-.511-.511-.511h-2.017c-.282 0-.511.229-.511.511 0 .283.229.512.511.512zm4.034 0h2.016c.283 0 .512-.229.512-.512 0-.282-.229-.511-.512-.511h-2.016c-.283 0-.512.229-.512.511 0 .283.229.512.512.512zm4.033 0h2.017c.283 0 .512-.229.512-.512 0-.282-.229-.511-.512-.511h-2.017c-.282 0-.511.229-.511.511 0 .283.229.512.511.512zm4.034 0h2.017c.282 0 .511-.229.511-.512 0-.282-.229-.511-.511-.511h-2.017c-.283 0-.512.229-.512.511 0 .283.229.512.512.512zm4.034 0h2.016c.283 0 .512-.229.512-.512 0-.282-.229-.511-.512-.511h-2.016c-.283 0-.512.229-.512.511 0 .283.229.512.512.512zm4.033 0h2.017c.282 0 .511-.229.511-.512 0-.282-.229-.511-.511-.511h-2.017c-.282 0-.511.229-.511.511 0 .283.229.512.511.512zm4.034 0h2.017c.282 0 .511-.229.511-.512 0-.282-.229-.511-.511-.511h-2.017c-.283 0-.512.229-.512.511 0 .283.229.512.512.512zm4.033 0h2.017c.283 0 .512-.229.512-.512 0-.282-.229-.511-.512-.511h-2.017c-.282 0-.511.229-.511.511 0 .283.229.512.511.512zM213.871 54.992h.512v.511c0 .283.229.512.511.512.282 0 .511-.229.511-.512V54.48c0-.134-.054-.266-.149-.361-.096-.096-.227-.15-.362-.15h-1.023c-.283 0-.512.229-.512.511 0 .283.229.512.512.512M214.383 57.472v1.969c0 .283.229.512.511.512.282 0 .511-.229.511-.512v-1.969c0-.282-.229-.511-.511-.511-.282 0-.511.229-.511.511zm0 3.938v1.969c0 .283.229.512.511.512.282 0 .511-.229.511-.512V61.41c0-.282-.229-.511-.511-.511-.282 0-.511.229-.511.511zm0 3.939v1.969c0 .282.229.511.511.511.282 0 .511-.229.511-.511v-1.969c0-.283-.229-.512-.511-.512-.282 0-.511.229-.511.512zm0 3.938v1.969c0 .282.229.511.511.511.282 0 .511-.229.511-.511v-1.969c0-.283-.229-.512-.511-.512-.282 0-.511.229-.511.512zm0 3.938v1.969c0 .283.229.512.511.512.282 0 .511-.229.511-.512v-1.969c0-.282-.229-.511-.511-.511-.282 0-.511.229-.511.511zm0 3.938v1.969c0 .283.229.512.511.512.282 0 .511-.229.511-.512v-1.969c0-.282-.229-.511-.511-.511-.282 0-.511.229-.511.511zm0 3.938v1.969c0 .283.229.512.511.512.282 0 .511-.229.511-.512v-1.969c0-.282-.229-.511-.511-.511-.282 0-.511.229-.511.511zm0 3.939v1.969c0 .282.229.511.511.511.282 0 .511-.229.511-.511V85.04c0-.283-.229-.512-.511-.512-.282 0-.511.229-.511.512zm0 3.938v1.969c0 .282.229.511.511.511.282 0 .511-.229.511-.511v-1.969c0-.283-.229-.512-.511-.512-.282 0-.511.229-.511.512zm0 3.938v1.969c0 .283.229.512.511.512.282 0 .511-.229.511-.512v-1.969c0-.282-.229-.511-.511-.511-.282 0-.511.229-.511.511zm0 3.938v1.97c0 .282.229.511.511.511.282 0 .511-.229.511-.511v-1.97c0-.282-.229-.511-.511-.511-.282 0-.511.229-.511.511zm0 3.939v1.969c0 .282.229.511.511.511.282 0 .511-.229.511-.511v-1.969c0-.283-.229-.512-.511-.512-.282 0-.511.229-.511.512zM160.636 97.567L204.584 97.567 204.584 62.667 160.636 62.667zM158.363 59.676l-15.08-11.633c-.224-.172-.545-.131-.718.093-.172.223-.131.544.093.717l15.08 11.633c.224.173.545.131.718-.092.172-.224.131-.545-.093-.718M207.266 99.677l12.926 11.203c.213.185.536.162.721-.052.185-.213.162-.536-.051-.721l-12.926-11.203c-.213-.185-.536-.162-.721.052-.185.213-.162.536.051.721" transform="translate(-785.000000, -9492.000000) translate(785.000000, 9492.000000)"/>
                <path fill="#02D8FB" d="M142.886 52.236l-.399-4.391h4.614c.282 0 .511-.229.511-.512 0-.282-.229-.511-.511-.511h-5.174c-.144 0-.28.06-.377.167-.098.106-.145.247-.132.391l.45 4.948c.025.282.274.489.555.463.281-.025.489-.274.463-.555M220.373 105.899l.804 4.824-5.716.204c-.283.01-.503.247-.493.53.01.282.247.503.529.492l6.298-.224c.148-.005.284-.073.378-.188.094-.114.133-.261.108-.407l-.899-5.399c-.047-.278-.31-.467-.589-.42-.278.046-.467.31-.42.588M237.674 245.052L259.012 245.052 259.012 237.357 237.674 237.357z" transform="translate(-785.000000, -9492.000000) translate(785.000000, 9492.000000)"/>
                <path fill="#02D8FB" d="M267.68 241.204L253.997 233.305 253.997 249.104 267.68 241.204" transform="translate(-785.000000, -9492.000000) translate(785.000000, 9492.000000)"/>
                <path fill="#22297D" d="M222.288 307.081h-49.089c-3.826 0-6.928-3.101-6.928-6.927v-108.98c0-3.826 3.102-6.928 6.928-6.928h49.089c3.826 0 6.927 3.102 6.927 6.928v108.98c0 3.826-3.101 6.927-6.927 6.927" transform="translate(-785.000000, -9492.000000) translate(785.000000, 9492.000000)"/>
                <path fill="#B7C7EF" d="M174.07 299.791h47.346c2.761 0 5-2.239 5-5v-97.203c0-2.761-2.239-5-5-5H174.07c-2.761 0-5 2.239-5 5v97.203c0 2.761 2.239 5 5 5z" transform="translate(-785.000000, -9492.000000) translate(785.000000, 9492.000000)"/>
                <path fill="#FED1A8" d="M215.788 324.007l4.388-17.022c.474-1.835.713-3.723.713-5.618v-20.414c.076-.26.13-.529.13-.81 0-1.782-1.63-3.227-3.64-3.227-1.053 0-1.995.403-2.66 1.037-.157-1.653-1.703-2.956-3.609-2.956-1.295 0-2.425.605-3.07 1.508-.185-1.628-1.717-2.903-3.603-2.903-1.295 0-2.426.604-3.07 1.509-.005-2.705-.047-15.653-.454-16.706-1.325-3.415-7.969-1.856-6.81 1.767v29.945c0-2.101-1.56-4.87-2.211-6.907-.61-1.908-1.036-3.985-2.24-5.701-2.061-2.934-5.687-1.32-5.484 1.745.178 2.688 2.122 4.806 3.174 7.244 1.944 4.506.776 9.214 2.61 13.733.516 1.271 3.937 6.789 5.059 8.298 1.136 1.525 2.349 5.537 2.349 5.537l-1.7 9.941" transform="translate(-785.000000, -9492.000000) translate(785.000000, 9492.000000)"/>
                <path fill="#9096BC" d="M197.284 248.099v5.597c0 .282.229.511.511.511.283 0 .512-.229.512-.511v-5.597c0-.282-.229-.511-.512-.511-.282 0-.511.229-.511.511M204.092 259.454h4.548c.283 0 .512-.229.512-.511 0-.283-.229-.512-.512-.512h-4.548c-.282 0-.511.229-.511.512 0 .282.229.511.511.511M185.203 259.454h4.547c.283 0 .512-.229.512-.511 0-.283-.229-.512-.512-.512h-4.547c-.283 0-.512.229-.512.512 0 .282.229.511.512.511M191.066 253.268l1.749 2.797c.15.24.465.313.705.163.239-.15.312-.465.162-.705l-1.749-2.798c-.15-.239-.465-.312-.705-.162-.239.149-.312.465-.162.705M202.397 256.459l2.449-3.149c.173-.223.133-.544-.09-.717-.223-.174-.545-.133-.718.089l-2.448 3.149c-.174.223-.133.544.09.718.223.173.544.133.717-.09M224.381 240.753v-.511h-52.66v-5.624h52.149v6.135h.511v-.511.511h.512v-6.646c0-.135-.055-.267-.15-.362-.095-.095-.227-.15-.362-.15H171.21c-.135 0-.267.055-.362.15-.095.095-.15.227-.15.362v6.646c0 .135.055.267.15.362.095.095.227.15.362.15h53.171c.135 0 .267-.055.362-.15.095-.095.15-.227.15-.362h-.512M198.496 228.86v-.512H173.47v-29.41h24.514v29.922h.512v-.512.512h.511v-30.434c0-.135-.055-.266-.15-.362-.095-.095-.227-.149-.361-.149h-25.537c-.135 0-.266.054-.362.149-.095.096-.15.227-.15.362v30.434c0 .134.055.266.15.361.096.096.227.15.362.15h25.537c.134 0 .266-.054.361-.15.095-.095.15-.227.15-.361h-.511" transform="translate(-785.000000, -9492.000000) translate(785.000000, 9492.000000)"/>
                <path fill="#9096BC" d="M172.567 198.755l25.537 30.433c.181.217.504.245.72.064.217-.182.245-.505.063-.721l-25.536-30.434c-.182-.216-.504-.244-.721-.063-.216.182-.244.505-.063.721M172.771 287.627v-42.864h50.749v42.515c0 .282.229.511.512.511.282 0 .511-.229.511-.511v-43.027c0-.134-.054-.266-.15-.361-.095-.096-.227-.15-.361-.15H172.26c-.135 0-.267.054-.362.15-.095.095-.15.227-.15.361v43.376c0 .283.229.512.512.512.282 0 .511-.229.511-.512" transform="translate(-785.000000, -9492.000000) translate(785.000000, 9492.000000)"/>
                <path fill="#22297D" d="M328.143 307.081h-49.088c-3.826 0-6.929-3.101-6.929-6.927v-108.98c0-3.826 3.103-6.928 6.929-6.928h49.088c3.827 0 6.929 3.102 6.929 6.928v108.98c0 3.826-3.102 6.927-6.929 6.927" transform="translate(-785.000000, -9492.000000) translate(785.000000, 9492.000000)"/>
                <path fill="#B7C7EF" d="M279.926 299.791h47.346c2.761 0 5-2.239 5-5v-97.203c0-2.761-2.239-5-5-5h-47.346c-2.761 0-5 2.239-5 5v97.203c0 2.761 2.239 5 5 5z" transform="translate(-785.000000, -9492.000000) translate(785.000000, 9492.000000)"/>
                <path fill="#9096BC" d="M329.674 254.396v-.512h-51.261v-55.647h50.75v56.159h.511v-.512.512h.512v-56.67c0-.135-.055-.266-.15-.362-.095-.095-.227-.15-.362-.15h-51.772c-.135 0-.267.055-.362.15-.095.096-.15.227-.15.362v56.67c0 .135.055.266.15.362.095.095.227.149.362.149h51.772c.135 0 .267-.054.362-.149.095-.096.15-.227.15-.362h-.512M277.902 260.154h51.772c.283 0 .512-.229.512-.511 0-.283-.229-.511-.512-.511h-51.772c-.283 0-.512.228-.512.511 0 .282.229.511.512.511M277.902 264.352h51.772c.283 0 .512-.229.512-.512 0-.282-.229-.511-.512-.511h-51.772c-.283 0-.512.229-.512.511 0 .283.229.512.512.512M277.902 268.55h51.772c.283 0 .512-.229.512-.512 0-.282-.229-.511-.512-.511h-51.772c-.283 0-.512.229-.512.511 0 .283.229.512.512.512M277.902 272.747h51.772c.283 0 .512-.229.512-.511 0-.283-.229-.512-.512-.512h-51.772c-.283 0-.512.229-.512.512 0 .282.229.511.512.511M277.902 276.944h51.772c.283 0 .512-.229.512-.511 0-.282-.229-.511-.512-.511h-51.772c-.283 0-.512.229-.512.511 0 .282.229.511.512.511M277.902 281.143h51.772c.283 0 .512-.229.512-.512 0-.282-.229-.511-.512-.511h-51.772c-.283 0-.512.229-.512.511 0 .283.229.512.512.512M277.902 285.34h51.772c.283 0 .512-.229.512-.512 0-.282-.229-.511-.512-.511h-51.772c-.283 0-.512.229-.512.511 0 .283.229.512.512.512" transform="translate(-785.000000, -9492.000000) translate(785.000000, 9492.000000)"/>
                <path fill="#9096BC" d="M278.279 254.741l51.773-56.67c.19-.209.176-.532-.033-.723-.208-.19-.532-.176-.722.033l-51.773 56.67c-.19.208-.176.532.033.722.208.191.532.176.722-.032" transform="translate(-785.000000, -9492.000000) translate(785.000000, 9492.000000)"/>
                <path fill="#22297D" d="M328.143 166.075h-49.088c-3.826 0-6.929-3.102-6.929-6.928V50.168c0-3.827 3.103-6.929 6.929-6.929h49.088c3.827 0 6.929 3.102 6.929 6.929v108.979c0 3.826-3.102 6.928-6.929 6.928" transform="translate(-785.000000, -9492.000000) translate(785.000000, 9492.000000)"/>
                <path fill="#B7C7EF" d="M279.926 158.784h47.346c2.761 0 5-2.239 5-5V56.581c0-2.761-2.239-5-5-5h-47.346c-2.761 0-5 2.239-5 5v97.203c0 2.761 2.239 5 5 5z" transform="translate(-785.000000, -9492.000000) translate(785.000000, 9492.000000)"/>
                <path fill="#02D8FB" d="M209.221 180.589v-32.161h45.456c.283 0 .512-.229.512-.512 0-.282-.229-.511-.512-.511h-45.968c-.134 0-.266.054-.361.15-.095.095-.15.227-.15.361v32.673c0 .282.229.511.511.511.283 0 .512-.229.512-.511" transform="translate(-785.000000, -9492.000000) translate(785.000000, 9492.000000)"/>
                <path fill="#02D8FB" d="M253.185 153.017L262.017 147.917 253.185 142.816 253.185 153.017M302.94 179.729v-25.075c0-.283-.229-.512-.512-.512-.282 0-.511.229-.511.512v25.075c0 .282.229.511.511.511.283 0 .512-.229.512-.511" transform="translate(-785.000000, -9492.000000) translate(785.000000, 9492.000000)"/>
                <path fill="#02D8FB" d="M307.529 156.146L302.428 147.314 297.328 156.146 307.529 156.146M278.731 318.779h23.188c.283 0 .512-.229.512-.511 0-.283-.229-.512-.512-.512h-23.188c-.283 0-.512.229-.512.512 0 .282.229.511.512.511M278.731 323.997h23.188c.283 0 .512-.229.512-.511 0-.283-.229-.512-.512-.512h-23.188c-.283 0-.512.229-.512.512 0 .282.229.511.512.511M278.731 329.214h23.188c.283 0 .512-.229.512-.511 0-.283-.229-.512-.512-.512h-23.188c-.283 0-.512.229-.512.512 0 .282.229.511.512.511M222.499 318.779h23.189c.282 0 .511-.229.511-.511 0-.283-.229-.512-.511-.512h-23.189c-.282 0-.511.229-.511.512 0 .282.229.511.511.511M222.499 323.997h23.189c.282 0 .511-.229.511-.511 0-.283-.229-.512-.511-.512h-23.189c-.282 0-.511.229-.511.512 0 .282.229.511.511.511M222.499 329.214h23.189c.282 0 .511-.229.511-.511 0-.283-.229-.512-.511-.512h-23.189c-.282 0-.511.229-.511.512 0 .282.229.511.511.511M216.122 158.779h23.189c.282 0 .511-.229.511-.511 0-.283-.229-.512-.511-.512h-23.189c-.282 0-.511.229-.511.512 0 .282.229.511.511.511M216.122 163.997h23.189c.282 0 .511-.229.511-.512 0-.282-.229-.511-.511-.511h-23.189c-.282 0-.511.229-.511.511 0 .283.229.512.511.512M216.122 169.214h23.189c.282 0 .511-.229.511-.511 0-.283-.229-.512-.511-.512h-23.189c-.282 0-.511.229-.511.512 0 .282.229.511.511.511M233.514 95.59h23.188c.282 0 .511-.229.511-.511 0-.282-.229-.511-.511-.511h-23.188c-.282 0-.511.229-.511.511 0 .282.229.511.511.511M233.514 100.808h23.188c.282 0 .511-.229.511-.511 0-.283-.229-.512-.511-.512h-23.188c-.282 0-.511.229-.511.512 0 .282.229.511.511.511M233.514 106.025h23.188c.282 0 .511-.229.511-.511 0-.282-.229-.511-.511-.511h-23.188c-.282 0-.511.229-.511.511 0 .282.229.511.511.511M150.035 113.562h23.189c.282 0 .511-.229.511-.512 0-.282-.229-.511-.511-.511h-23.189c-.282 0-.511.229-.511.511 0 .283.229.512.511.512M150.035 118.779h23.189c.282 0 .511-.229.511-.511 0-.283-.229-.512-.511-.512h-23.189c-.282 0-.511.229-.511.512 0 .282.229.511.511.511M150.035 123.997h23.189c.282 0 .511-.229.511-.512 0-.282-.229-.511-.511-.511h-23.189c-.282 0-.511.229-.511.511 0 .283.229.512.511.512" transform="translate(-785.000000, -9492.000000) translate(785.000000, 9492.000000)"/>
                <path fill="#6D7DD3" d="M56.025 362.012s-2.151 8.273-2.151 10.368c0 2.096-.524 3.492 4.015 4.365 4.539.874 7.507.349 8.205-1.746.698-2.094 1.222-12.569 1.222-12.569l-10.998-2.096-.293 1.678M162.113 362.779s3.492 1.222 8.554 2.793c5.063 1.571 15.364 3.317 16.411 3.492 1.047.175 1.047 2.269.174 3.142-.873.873-5.412 3.492-10.823 4.888-5.412 1.398-23.743 2.619-25.314 1.571-1.316-.877-.873-9.426-.349-11.347.523-1.92 11.347-4.539 11.347-4.539" transform="translate(-785.000000, -9492.000000) translate(785.000000, 9492.000000)"/>
                <path fill="#4443A8" d="M77.659 210.576s-3.042 18.252-.676 28.394c0 0-4.395 40.226-5.071 58.141 0 0-9.465 31.436-10.817 41.239-1.352 9.804-5.07 23.662-5.07 23.662s2.028 1.353 6.761 2.366c4.732 1.015 5.408-2.704 5.408-2.704s26.028-59.831 28.056-68.62c2.028-8.788 8.789-40.226 8.789-40.226l28.057 51.381s1.352 17.577 5.408 27.719c4.056 10.141 11.831 38.197 11.831 38.197s5.071.338 9.127-1.014c4.056-1.352 4.056-3.38 4.056-3.38s-6.084-22.649-6.084-30.085c0-7.437-2.367-32.788-4.057-39.887-1.69-7.099-13.183-44.282-14.873-48.339-1.69-4.056-5.408-16.901-5.408-16.901l-2.367-19.943s-29.07 8.112-53.07 0" transform="translate(-785.000000, -9492.000000) translate(785.000000, 9492.000000)"/>
                <path fill="#FED1A8" d="M99.107 124.418s-1.553-3.365-1.553-5.436c0-2.071-1.035-11.906-1.035-11.906s15.013-27.18 19.155-32.357c4.141-5.177 9.059-9.059 9.059-9.059s10.096-2.071 12.166-2.071c2.071 0 4.401-1.036 4.401-2.33s-3.365-1.035-5.436-1.035c-2.071 0-4.659-1.812-4.659-1.812s3.372-9.649 4.4-13.46c.544-2.015 2.33-6.213 1.036-6.213-1.295 0-1.554 1.036-2.33 2.589-.777 1.553-4.142 6.73-4.142 6.73l.777-11.39s-1.035-1.552-1.812.259c-.777 1.812-2.33 7.248-2.589 8.542-.258 1.294-1.295 2.465-1.295 2.465l-1.036-8.498s-1.762-1.865-2.069 1.374c-.171 1.804 0 7.766 0 8.801 0 1.035-1.04-1.47-1.04-1.47s-.611-2.811-1.29-3.189c-.783-.438-1.294.517-1.035 2.588.259 2.071-.259 10.613-.259 10.613s-1.553 2.071-3.882 4.918c-2.33 2.847-20.967 19.672-27.956 25.109-6.989 5.435-7.766 9.836-8.801 15.272-1.035 5.435-2.071 37.015-2.071 48.404 0 11.389 1.036 29.509 1.812 35.463.776 5.953-.518 13.718-1.553 17.86-1.035 4.142 0 7.766 2.847 9.836 2.848 2.071 15.014 3.365 25.108 3.365 10.096 0 20.45-1.035 23.556-2.07 3.106-1.036 5.436-1.295 5.436-5.437 0-4.141-2.071-12.424-2.071-14.754s4.141-26.402 4.141-26.402 26.403 8.024 31.321 6.212c4.918-1.812 46.075-40.639 46.075-40.639s6.472-2.588 9.837-3.107c3.364-.517 8.542-2.847 8.801-3.623.258-.777-.518-.518-2.589-.518-2.071 0-5.436 1.036-5.436 1.036s7.068-4.475 8.283-4.918c.842-.308 2.296-2.223.259-1.812-2.551.513-8.801 2.329-8.801 2.329l8.284-5.177s1.293-2.071-.259-2.071c-1.554 0-9.319 4.66-9.319 4.66l6.045-5.614c1.17-1.086.195-2.612-1.187-1.812l-6.969 3.982c-2.588 1.553-5.395 2.408-5.395 2.408l-1.295.776s.518-2.847.518-4.141-.777-4.659-2.589-4.918c-1.811-.259-.258 2.329-.258 3.624 0 1.294-2.589 8.024-2.589 9.059v3.107s-8.801 7.765-16.826 11.907c-8.024 4.141-26.143 17.861-26.143 17.861s-20.708-10.613-25.367-14.496c-4.659-3.883-9.837-8.542-15.013-12.684-5.177-4.141-8.542-5.953-8.542-5.953l-16.826-.777" transform="translate(-785.000000, -9492.000000) translate(785.000000, 9492.000000)"/>
                <path fill="#FA394B" d="M185.608 143.652c-8.79 5.618-20.753 14.676-20.753 14.676s-20.708-10.613-25.367-14.496c-4.659-3.883-9.837-8.542-15.013-12.684-5.177-4.141-8.542-5.953-8.542-5.953l-16.826-.777s-1.553-3.365-1.553-5.436c0-2.071-1.035-11.906-1.035-11.906s7.751-14.034 13.651-23.854c-.157-.16-.309-.318-.471-.48-2.892-2.892-6.905-4.451-10.41-5.299-4.876 4.329-9.729 8.498-12.606 10.737-6.989 5.435-7.766 9.836-8.801 15.272-1.035 5.435-2.071 37.015-2.071 48.404 0 11.389 1.036 29.509 1.812 35.463.776 5.953-.518 13.718-1.553 17.86-1.035 4.142 0 7.766 2.847 9.836 2.848 2.071 15.014 3.365 25.108 3.365 10.096 0 20.45-1.035 23.556-2.071 3.106-1.035 5.436-1.294 5.436-5.436 0-4.141-2.071-12.424-2.071-14.754s4.141-26.402 4.141-26.402 26.403 8.024 31.321 6.212c2.628-.968 15.6-12.503 27.114-23.037-2.353-4.045-5.346-7.105-7.914-9.24" transform="translate(-785.000000, -9492.000000) translate(785.000000, 9492.000000)"/>
                <path fill="#FED1A8" d="M133.275 83.002s1.554 8.801 1.554 11.131-2.589 3.106-1.554 6.212c1.036 3.107 3.366 3.365 2.848 5.954-.518 2.588-3.883 4.141-3.883 4.141s-1.812 7.248-3.624 10.354c-1.812 3.107-8.542.777-8.542.777l-.517 8.283s-2.33 3.365-10.872 2.329c-8.542-1.035-14.237-3.882-14.237-3.882l-1.294-1.812s6.73-3.365 6.989-5.695c.259-2.329 0-7.765 0-15.53 0-7.766-2.33-22.779 10.354-26.662 12.683-3.883 22.778 4.4 22.778 4.4" transform="translate(-785.000000, -9492.000000) translate(785.000000, 9492.000000)"/>
                <path fill="#1C2B4B" d="M117.464 104.251s-2.922-6.704-6.191-2.87c-2.124 2.491.518 9.836 1.812 10.871 1.294 1.036 4.142.518 4.142.518s-4.142 4.141-8.542 4.141c-4.401 0-8.283-4.141-11.131-11.389-2.847-7.248-4.918-19.672-1.811-27.179 3.106-7.507 19.154-7.765 22.778-7.765 3.624 0 9.06 2.07 9.06 2.07s11.648-1.035 11.907 2.848c.259 3.883-1.553 4.142-1.553 4.142s8.283 4.4 4.4 6.212c-3.882 1.811-9.836.776-13.719.776-3.883 0-5.177 2.848-5.177 2.848s3.624 2.329 2.33 3.365c-1.294 1.035-5.954 3.106-6.471 4.918-.518 1.812 1.812 4.659.259 5.953-1.554 1.295-2.093.541-2.093.541" transform="translate(-785.000000, -9492.000000) translate(785.000000, 9492.000000)"/>
                <path fill="#132529" d="M117.464 104.251l.474-.207c-.009-.019-.46-1.058-1.229-2.123-.385-.533-.85-1.075-1.4-1.5-.548-.423-1.199-.74-1.935-.741-.847-.004-1.712.439-2.494 1.365-.696.827-.919 1.967-.923 3.188.002 1.659.432 3.513.98 5.075.275.78.58 1.485.885 2.057.311.574.594 1.006.94 1.291.834.65 1.956.752 2.879.761.924-.001 1.66-.135 1.679-.138l-.093-.509-.366-.366-.041.04c-.218.211-1.288 1.214-2.791 2.152-1.503.941-3.436 1.802-5.344 1.798-2.031-.002-3.962-.947-5.776-2.819-1.809-1.87-3.467-4.661-4.873-8.242-1.818-4.621-3.326-11.44-3.324-17.647-.001-3.386.449-6.588 1.509-9.145.713-1.727 2.192-3.077 4.128-4.123 2.897-1.569 6.775-2.414 10.256-2.849 3.482-.438 6.568-.474 7.916-.474 1.718-.003 3.959.503 5.747 1.015.895.256 1.68.512 2.239.704.28.096.503.176.657.232.153.055.233.086.233.086l.23.032c.001 0 .341-.031.917-.062.576-.031 1.382-.062 2.294-.062 1.71-.001 3.804.112 5.436.522.816.202 1.512.482 1.975.82.466.346.688.694.722 1.148.017.248.025.48.025.695-.002 1.513-.371 2.224-.663 2.562-.148.171-.284.255-.375.299l-.098.038.003.012-.002-.011-.001-.001.003.012-.002-.011c-.221.032-.398.203-.436.423-.039.22.069.442.267.547 0 0 .079.041.224.122.507.283 1.792 1.03 2.927 1.909.567.439 1.095.913 1.463 1.358.374.444.556.856.547 1.102-.002.134-.032.234-.131.365-.1.128-.288.282-.606.43-1.692.793-3.889 1.025-6.149 1.022-2.584.001-5.234-.293-7.351-.294-2.07-.003-3.504.771-4.386 1.552-.886.782-1.241 1.555-1.262 1.598-.106.235-.025.51.192.65l.102.068c.237.159.846.586 1.374 1.075.264.243.507.503.669.734.167.232.231.432.226.506-.009.06.005.059-.085.143-.274.22-.802.544-1.423.908-.936.55-2.097 1.207-3.091 1.912-.498.354-.955.72-1.327 1.104-.371.385-.668.786-.805 1.256-.069.243-.096.49-.096.736.003.756.244 1.505.462 2.218.222.71.42 1.385.415 1.877-.008.403-.092.638-.356.867-.664.555-1.061.641-1.219.639-.095-.002-.126-.022-.142-.031l-.007-.005-.099.125.127-.091-.028-.034-.099.125.127-.091-.421.301.474-.207-.474.207-.421.301c.029.04.113.146.273.247.159.101.399.189.69.187.506-.002 1.112-.237 1.882-.878.536-.438.737-1.075.728-1.662-.004-.736-.245-1.47-.462-2.182-.221-.708-.419-1.392-.416-1.913 0-.169.019-.32.057-.452.073-.282.393-.71.892-1.141.742-.653 1.837-1.335 2.865-1.94 1.034-.612 1.985-1.135 2.54-1.575.302-.23.482-.604.474-.951-.009-.487-.243-.875-.515-1.238-.418-.54-.993-1.028-1.469-1.399-.477-.368-.854-.611-.863-.617l-.28.436.471.214-.016-.008.016.008-.016-.008.016.008c.018-.04.338-.688 1.073-1.31.739-.622 1.877-1.231 3.633-1.234 2.025-.001 4.695.293 7.351.294 2.327-.002 4.655-.221 6.587-1.119.419-.196.749-.433.982-.73.235-.295.355-.655.352-1.003-.013-.75-.443-1.385-.984-1.991-.823-.902-1.994-1.739-2.969-2.37-.974-.628-1.749-1.04-1.758-1.044l-.242.457.073.512c.08-.01.611-.112 1.107-.684.496-.572.917-1.566.915-3.241 0-.24-.008-.494-.026-.763-.05-.812-.518-1.469-1.148-1.918-.95-.681-2.287-1.039-3.725-1.26-1.437-.216-2.976-.278-4.293-.278-1.871 0-3.293.126-3.303.127l.046.515.184-.483c-.009-.004-1.379-.526-3.213-1.05-1.837-.522-4.125-1.052-6.031-1.055-1.828.001-6.773.064-11.688 1.079-2.459.508-4.912 1.254-6.977 2.369-2.06 1.113-3.752 2.611-4.591 4.637-1.134 2.743-1.587 6.065-1.588 9.541.003 6.373 1.529 13.267 3.396 18.025 1.441 3.667 3.148 6.57 5.092 8.583 1.939 2.011 4.15 3.136 6.52 3.135 2.365-.005 4.573-1.093 6.204-2.155 1.631-1.066 2.687-2.122 2.704-2.138.16-.16.197-.406.092-.606-.105-.201-.328-.31-.551-.269l-.109.018c-.224.034-.767.103-1.384.103-.825.009-1.773-.148-2.232-.534-.127-.093-.407-.459-.674-.97-.828-1.54-1.75-4.425-1.743-6.645-.004-1.095.226-2.001.675-2.517.671-.778 1.225-.999 1.707-1.002.425-.001.866.189 1.303.526.653.501 1.25 1.314 1.663 1.997.208.341.372.65.483.872.056.111.098.2.126.26l.041.089.053.094.421-.301" transform="translate(-785.000000, -9492.000000) translate(785.000000, 9492.000000)"/>
                <path fill="#132529" d="M131.857 101.123c0 1.319-.542 2.389-1.211 2.389-.668 0-1.211-1.07-1.211-2.389 0-1.319.543-2.388 1.211-2.388.669 0 1.211 1.069 1.211 2.388M128.098 98.276l.008-.018c.048-.108.319-.675.744-1.183.212-.254.46-.491.724-.656.266-.165.537-.258.83-.259.334.002.728.118 1.222.505.224.177.549.139.726-.085.177-.225.139-.55-.085-.727-.626-.497-1.265-.729-1.863-.728-.558 0-1.052.197-1.455.467-.607.406-1.042.97-1.34 1.431-.298.463-.454.827-.462.845-.113.263.009.567.272.68.262.112.566-.009.679-.272" transform="translate(-785.000000, -9492.000000) translate(785.000000, 9492.000000)"/>
            </g>
        </g>
    </g>
</svg>
