<svg xmlns="http://www.w3.org/2000/svg" width="370" height="331" viewBox="0 0 370 331">
    <defs>
        <linearGradient id="kphm4xr1aa" x1="35.663%" x2="46.08%" y1="45.992%" y2="51.537%">
            <stop offset="0%" stop-color="#EBA262"/>
            <stop offset="100%" stop-color="#FED1A4"/>
        </linearGradient>
        <linearGradient id="2icnnaw98b" x1="43.641%" x2="40.221%" y1="39.809%" y2="32.746%">
            <stop offset="0%" stop-color="#FAA85D"/>
            <stop offset="100%" stop-color="#FDC490"/>
        </linearGradient>
        <linearGradient id="0dklxtj5jc" x1="36.671%" x2="52.735%" y1="29.465%" y2="64.051%">
            <stop offset="0%" stop-color="#FCBC80"/>
            <stop offset="100%" stop-color="#FED7B3"/>
        </linearGradient>
        <linearGradient id="sxqf3tc06d" x1="40.922%" x2="81.12%" y1="39.226%" y2="68.215%">
            <stop offset="0%" stop-color="#EBA262"/>
            <stop offset="100%" stop-color="#FCC28C"/>
        </linearGradient>
        <linearGradient id="6cz0h0f5oe" x1="85.128%" x2="30.712%" y1="57.026%" y2="48.999%">
            <stop offset="0%" stop-color="#FAA85D"/>
            <stop offset="100%" stop-color="#FED7B3"/>
        </linearGradient>
        <linearGradient id="zlzp5aaakf" x1="59.484%" x2="40.709%" y1="46.241%" y2="56.953%">
            <stop offset="0%" stop-color="#F37121"/>
            <stop offset="56%" stop-color="#F89721"/>
            <stop offset="100%" stop-color="#F99D2A"/>
        </linearGradient>
        <linearGradient id="axllnqueog" x1="63.079%" x2="44.297%" y1="27.447%" y2="63.116%">
            <stop offset="0%" stop-color="#FBB677"/>
            <stop offset="100%" stop-color="#FFEAD2"/>
        </linearGradient>
        <linearGradient id="858nqu0ixh" x1="44.58%" x2="53.404%" y1="-2.314%" y2="82.855%">
            <stop offset="0%" stop-color="#E49955"/>
            <stop offset="100%" stop-color="#FFEAD2"/>
        </linearGradient>
        <linearGradient id="3dabkdmf4i" x1="85.128%" x2="30.711%" y1="57.026%" y2="48.998%">
            <stop offset="0%" stop-color="#FAA85D"/>
            <stop offset="100%" stop-color="#FED7B3"/>
        </linearGradient>
    </defs>
    <g fill="none" fill-rule="evenodd">
        <g>
            <g>
                <g>
                    <g>
                        <g>
                            <path fill="#011269" d="M35.466 157.79C18.57 160.298 2.843 148.62.338 131.708-2.166 114.796 9.5 99.053 26.396 96.547c16.895-2.507 32.623 9.17 35.127 26.082 2.505 16.913-9.161 32.654-26.057 35.161zm96.714 172.258c-10.023 1.488-19.353-5.44-20.838-15.472-1.486-10.032 5.435-19.371 15.457-20.859 10.023-1.487 19.353 5.44 20.839 15.472 1.486 10.034-5.435 19.373-15.458 20.86zm187.206-23.014c-6.299.934-12.163-3.42-13.097-9.727-.935-6.306 3.416-12.176 9.715-13.11 6.3-.935 12.165 3.419 13.1 9.725.934 6.307-3.417 12.176-9.718 13.112zM70.598 93.966c-7.159 1.061-13.823-3.886-14.884-11.053-1.061-7.166 3.882-13.835 11.041-14.898 7.16-1.063 13.823 3.885 14.885 11.052 1.061 7.166-3.882 13.837-11.042 14.899zM353.666 300.8c-3.15.466-6.082-1.71-6.549-4.863-.467-3.154 1.708-6.088 4.858-6.556 3.15-.467 6.083 1.71 6.55 4.863.467 3.154-1.709 6.088-4.859 6.556zm-114.162 7.9c33.4-4.957 62.492-20.811 84.224-43.418 4.762 4.542 11.49 6.919 18.5 5.878 12.076-1.791 20.414-13.044 18.624-25.133-1.087-7.34-5.657-13.298-11.783-16.448 13.262-26.208 18.834-56.637 14.202-87.91-3.795-25.621-13.984-48.705-28.696-67.89 9.706-6.719 15.313-18.578 13.466-31.053-2.59-17.494-18.857-29.573-36.333-26.98-10.955 1.625-19.782 8.632-24.208 17.944-26.9-14.5-58.533-20.752-91.078-15.922C121.288 28.918 67.93 95.179 71.193 169.515c-23.474 11.695-37.868 37.54-33.815 64.91 5.04 34.032 36.684 57.531 70.68 52.486 7.449-1.105 14.393-3.49 20.643-6.898 30.44 23.313 69.897 34.757 110.803 28.687" transform="translate(-296.000000, -9356.000000) translate(219.000000, 9125.000000) translate(77.000000, 231.000000) translate(185.000000, 165.500000) scale(-1, 1) rotate(-180.000000) translate(-185.000000, -165.500000) translate(0.000000, 0.000000)"/>
                            <path fill="#180D62" d="M245.155 17.4c-68.912 0-124.777-1.644-124.777-3.675 0-2.029 55.865-3.675 124.777-3.675s124.778 1.646 124.778 3.675c0 2.03-55.866 3.676-124.778 3.676" transform="translate(-296.000000, -9356.000000) translate(219.000000, 9125.000000) translate(77.000000, 231.000000) translate(185.000000, 165.500000) scale(-1, 1) rotate(-180.000000) translate(-185.000000, -165.500000) translate(0.000000, 0.000000)"/>
                            <path fill="#4443A8" d="M316.264 182.516c-1.376 0-2.49-1.115-2.49-2.492 0-1.375 1.114-2.491 2.49-2.491 1.374 0 2.49 1.116 2.49 2.491 0 1.377-1.116 2.492-2.49 2.492zm.835 3.09c.428-.064.839-.176 1.23-.33l.737 1.082c.042.06.122.078.185.042l1.035-.598c.064-.038.089-.115.057-.181l-.565-1.185c.332-.265.632-.567.896-.898l1.181.569c.065.03.144.007.18-.057l.598-1.035c.036-.064.018-.144-.041-.186l-1.08-.743c.153-.39.264-.8.327-1.226l1.305-.098c.073-.006.13-.066.13-.14v-1.196c0-.073-.057-.134-.129-.14l-1.306-.103c-.064-.427-.176-.837-.329-1.226l1.08-.738c.061-.041.08-.121.043-.185l-.598-1.036c-.036-.063-.115-.088-.18-.056l-1.184.563c-.265-.33-.565-.631-.897-.895l.567-1.182c.032-.065.009-.144-.055-.181l-1.035-.598c-.063-.036-.143-.018-.185.041l-.742 1.08c-.389-.152-.8-.263-1.225-.326l-.098-1.306c-.006-.073-.066-.13-.14-.13h-1.194c-.074 0-.134.057-.14.128l-.103 1.308c-.424.064-.832.174-1.22.326l-.742-1.08c-.042-.059-.122-.077-.185-.041l-1.035.598c-.064.037-.088.116-.057.18l.569 1.183c-.331.264-.632.565-.897.895l-1.184-.563c-.066-.032-.145-.007-.18.056l-.598 1.036c-.036.064-.018.144.041.185l1.08.738c-.153.39-.263.8-.326 1.226l-1.307.104c-.073.005-.128.066-.128.14v1.195c0 .074.055.134.128.14l1.305.098c.064.425.174.837.327 1.226l-1.079.743c-.06.042-.078.122-.041.186l.597 1.035c.036.064.115.087.181.057l1.181-.569c.264.331.564.633.894.898l-.563 1.185c-.031.066-.007.143.057.18l1.035.599c.063.036.143.018.185-.042l.736-1.083c.39.154.8.266 1.226.33l.103 1.307c.006.073.066.129.14.129h1.195c.073 0 .133-.057.139-.129l.098-1.306" transform="translate(-296.000000, -9356.000000) translate(219.000000, 9125.000000) translate(77.000000, 231.000000) translate(185.000000, 165.500000) scale(-1, 1) rotate(-180.000000) translate(-185.000000, -165.500000) translate(0.000000, 0.000000)"/>
                            <path fill="#360E93" d="M338.932 86.171c.687 1.192 2.21 1.6 3.401.913 1.191-.688 1.6-2.213.912-3.404-.688-1.192-2.21-1.601-3.401-.913-1.19.689-1.6 2.212-.912 3.404zm4.557-1.246c0 1.328-1.074 2.404-2.4 2.404-1.326 0-2.401-1.076-2.401-2.404 0-1.327 1.075-2.403 2.4-2.403 1.327 0 2.401 1.076 2.401 2.403" transform="translate(-296.000000, -9356.000000) translate(219.000000, 9125.000000) translate(77.000000, 231.000000) translate(185.000000, 165.500000) scale(-1, 1) rotate(-180.000000) translate(-185.000000, -165.500000) translate(0.000000, 0.000000)"/>
                            <path fill="#4443A8" d="M313.188 150.94c-4.595 0-8.319-3.728-8.319-8.327 0-4.598 3.724-8.327 8.32-8.327 4.593 0 8.318 3.73 8.318 8.327 0 4.6-3.725 8.327-8.319 8.327zm2.789 10.319c1.43-.213 2.806-.584 4.11-1.1l2.465 3.613c.138.202.405.263.616.141l3.46-1.998c.21-.123.292-.384.187-.604l-1.883-3.96c1.105-.885 2.11-1.89 2.991-2.998l3.944 1.899c.22.105.483.024.604-.188l1.997-3.461c.121-.211.062-.48-.138-.617l-3.606-2.484c.51-1.3.88-2.672 1.092-4.096l4.36-.33c.244-.018.43-.22.43-.464v-3.999c0-.243-.186-.445-.427-.464l-4.366-.347c-.212-1.424-.584-2.795-1.096-4.095l3.61-2.466c.202-.139.262-.406.14-.618l-1.997-3.462c-.122-.212-.382-.293-.603-.188l-3.956 1.885c-.883-1.106-1.888-2.112-2.994-2.994l1.896-3.948c.106-.22.024-.483-.187-.605l-3.459-1.998c-.211-.123-.477-.062-.615.14l-2.483 3.607c-1.3-.511-2.67-.881-4.092-1.093l-.329-4.364c-.019-.244-.22-.43-.463-.43h-3.995c-.244 0-.444.184-.464.427l-.347 4.37c-1.415.212-2.78.582-4.073 1.09l-2.481-3.608c-.138-.201-.406-.262-.617-.14l-3.458 2c-.211.121-.293.385-.188.604l1.898 3.948c-1.107.882-2.113 1.888-2.995 2.994l-3.957-1.885c-.22-.105-.482-.024-.603.188l-1.997 3.462c-.121.212-.06.48.141.618l3.61 2.466c-.512 1.3-.883 2.671-1.096 4.095l-4.366.347c-.242.02-.429.221-.429.464v3.999c0 .244.188.446.43.464l4.362.33c.212 1.422.581 2.795 1.092 4.096l-3.606 2.484c-.2.138-.26.406-.139.617l1.998 3.461c.121.212.385.293.604.188l3.944-1.899c.882 1.108 1.886 2.113 2.991 2.997l-1.883 3.961c-.105.22-.024.48.188.604l3.459 1.998c.21.122.479.061.615-.14l2.465-3.614c1.3.513 2.67.884 4.09 1.097l.348 4.37c.02.243.22.43.464.43h3.995c.243 0 .444-.188.463-.431l.329-4.366" transform="translate(-296.000000, -9356.000000) translate(219.000000, 9125.000000) translate(77.000000, 231.000000) translate(185.000000, 165.500000) scale(-1, 1) rotate(-180.000000) translate(-185.000000, -165.500000) translate(0.000000, 0.000000)"/>
                            <path fill="#360E93" d="M328.712 44.33c2.297 3.984 7.384 5.348 11.362 3.049 3.98-2.3 5.343-7.392 3.046-11.374-2.298-3.984-7.385-5.347-11.365-3.048-3.978 2.3-5.34 7.391-3.043 11.373zm15.226-4.162c0 4.434-3.592 8.031-8.022 8.03-4.431.001-8.024-3.596-8.024-8.03 0-4.435 3.593-8.03 8.024-8.03 4.43 0 8.022 3.595 8.022 8.03" transform="translate(-296.000000, -9356.000000) translate(219.000000, 9125.000000) translate(77.000000, 231.000000) translate(185.000000, 165.500000) scale(-1, 1) rotate(-180.000000) translate(-185.000000, -165.500000) translate(0.000000, 0.000000)"/>
                            <path fill="#4443A8" d="M342.159 173.623c-2.714 0-4.915-2.202-4.915-4.918 0-2.717 2.2-4.92 4.915-4.92 2.714 0 4.914 2.203 4.914 4.92 0 2.716-2.2 4.918-4.914 4.918zm1.647 6.096c.844-.125 1.658-.345 2.429-.649l1.456 2.134c.08.119.238.155.364.083l2.043-1.181c.125-.072.173-.226.11-.356l-1.113-2.34c.654-.522 1.248-1.116 1.768-1.77l2.33 1.12c.13.063.285.015.356-.11l1.18-2.045c.073-.124.037-.283-.081-.365l-2.13-1.467c.302-.769.52-1.578.645-2.42l2.576-.194c.144-.011.254-.13.254-.275v-2.362c0-.143-.11-.262-.252-.273l-2.58-.206c-.125-.841-.344-1.652-.646-2.42l2.131-1.455c.12-.082.155-.24.083-.367l-1.18-2.044c-.071-.125-.226-.174-.356-.111l-2.337 1.114c-.522-.655-1.115-1.248-1.769-1.77l1.12-2.332c.063-.13.014-.284-.11-.356l-2.043-1.183c-.125-.071-.283-.035-.365.083l-1.465 2.133c-.769-.303-1.577-.52-2.418-.647l-.194-2.578c-.011-.144-.13-.254-.275-.254h-2.36c-.143 0-.261.109-.272.254l-.206 2.58c-.836.126-1.642.344-2.406.645l-1.466-2.133c-.081-.118-.24-.154-.364-.081l-2.044 1.18c-.124.073-.172.227-.11.357l1.12 2.333c-.654.52-1.247 1.114-1.768 1.77l-2.338-1.115c-.13-.063-.284-.014-.356.111l-1.18 2.044c-.071.126-.036.285.083.367l2.133 1.455c-.303.77-.521 1.579-.648 2.42l-2.58.206c-.141.01-.252.13-.252.273v2.362c0 .145.11.264.254.275l2.576.195c.126.84.344 1.65.646 2.42l-2.13 1.466c-.119.082-.153.24-.082.365l1.18 2.045c.072.125.226.173.356.11l2.33-1.12c.52.654 1.114 1.248 1.768 1.77l-1.113 2.34c-.061.13-.014.284.11.356l2.044 1.18c.125.073.284.037.364-.082l1.456-2.134c.768.303 1.577.52 2.417.648l.206 2.581c.01.144.13.253.273.253h2.36c.144 0 .263-.11.274-.254l.194-2.579" transform="translate(-296.000000, -9356.000000) translate(219.000000, 9125.000000) translate(77.000000, 231.000000) translate(185.000000, 165.500000) scale(-1, 1) rotate(-180.000000) translate(-185.000000, -165.500000) translate(0.000000, 0.000000)"/>
                            <path fill="#360E93" d="M360.63 68.717c1.357 2.354 4.363 3.16 6.713 1.802 2.35-1.358 3.155-4.368 1.799-6.72-1.358-2.353-4.363-3.159-6.713-1.8-2.351 1.358-3.156 4.366-1.8 6.718zm8.995-2.458c0 2.62-2.121 4.743-4.739 4.743s-4.74-2.123-4.74-4.743c0-2.621 2.122-4.744 4.74-4.744 2.618 0 4.739 2.123 4.739 4.744" transform="translate(-296.000000, -9356.000000) translate(219.000000, 9125.000000) translate(77.000000, 231.000000) translate(185.000000, 165.500000) scale(-1, 1) rotate(-180.000000) translate(-185.000000, -165.500000) translate(0.000000, 0.000000)"/>
                            <path fill="#22297D" d="M289.18 278.388H171.05c-7.664 0-13.935-6.42-13.935-14.266V32.198c0-7.846 6.271-14.267 13.935-14.267h118.13c7.663 0 13.934 6.42 13.934 14.267v231.924c0 7.847-6.271 14.266-13.935 14.266" transform="translate(-296.000000, -9356.000000) translate(219.000000, 9125.000000) translate(77.000000, 231.000000) translate(185.000000, 165.500000) scale(-1, 1) rotate(-180.000000) translate(-185.000000, -165.500000) translate(0.000000, 0.000000)"/>
                            <path fill="#360E93" d="M171.05 272.906c-4.72 0-8.58-3.951-8.58-8.784V32.198c0-4.832 3.86-8.784 8.58-8.784h118.13c4.72 0 8.58 3.952 8.58 8.784v231.924c0 4.833-3.86 8.784-8.58 8.784H171.05" transform="translate(-296.000000, -9356.000000) translate(219.000000, 9125.000000) translate(77.000000, 231.000000) translate(185.000000, 165.500000) scale(-1, 1) rotate(-180.000000) translate(-185.000000, -165.500000) translate(0.000000, 0.000000)"/>
                            <path fill="#B7C7EF" d="M289.18 271.5c3.961 0 7.206-3.321 7.206-7.378V32.198c0-4.056-3.245-7.378-7.207-7.378H171.05c-3.962 0-7.206 3.322-7.206 7.378v231.924c0 4.057 3.244 7.378 7.207 7.378h118.13" transform="translate(-296.000000, -9356.000000) translate(219.000000, 9125.000000) translate(77.000000, 231.000000) translate(185.000000, 165.500000) scale(-1, 1) rotate(-180.000000) translate(-185.000000, -165.500000) translate(0.000000, 0.000000)"/>
                            <path fill="#9096BC" d="M243.013 43.663c1.16 2.008 3.724 2.698 5.732 1.537 2.006-1.16 2.695-3.727 1.536-5.737-1.16-2.01-3.726-2.697-5.732-1.537-2.008 1.16-2.695 3.728-1.536 5.737" transform="translate(-296.000000, -9356.000000) translate(219.000000, 9125.000000) translate(77.000000, 231.000000) translate(185.000000, 165.500000) scale(-1, 1) rotate(-180.000000) translate(-185.000000, -165.500000) translate(0.000000, 0.000000)"/>
                            <path fill="#B594F6" d="M226.48 43.663c1.16 2.008 3.726 2.698 5.733 1.537 2.007-1.16 2.694-3.727 1.536-5.737-1.159-2.01-3.725-2.697-5.733-1.537-2.006 1.16-2.694 3.728-1.536 5.737" transform="translate(-296.000000, -9356.000000) translate(219.000000, 9125.000000) translate(77.000000, 231.000000) translate(185.000000, 165.500000) scale(-1, 1) rotate(-180.000000) translate(-185.000000, -165.500000) translate(0.000000, 0.000000)"/>
                            <path fill="#9096BC" d="M175.529 260.867c-1.285 0-2.325-1.043-2.325-2.327 0-1.286 1.04-2.329 2.325-2.329 1.284 0 2.325 1.043 2.325 2.329 0 1.284-1.04 2.327-2.325 2.327zm.78 2.885c.4-.06.783-.164 1.149-.308l.688 1.01c.039.056.113.074.173.04l.967-.56c.058-.033.081-.106.052-.168l-.527-1.106c.31-.248.59-.53.836-.839l1.103.53c.062.03.135.008.17-.052l.558-.968c.034-.058.017-.133-.04-.171l-1.007-.695c.142-.363.246-.747.305-1.145l1.22-.093c.067-.005.12-.062.12-.13v-1.117c0-.067-.053-.124-.12-.13l-1.221-.096c-.06-.4-.163-.782-.307-1.145l1.01-.69c.057-.04.074-.114.039-.173l-.557-.967c-.035-.06-.108-.083-.169-.053l-1.106.527c-.247-.31-.529-.59-.838-.837l.531-1.104c.03-.06.006-.135-.052-.169l-.967-.559c-.06-.033-.134-.016-.173.039l-.694 1.01c-.363-.144-.746-.248-1.144-.306l-.092-1.22c-.004-.068-.061-.12-.13-.12h-1.116c-.068 0-.124.05-.13.118l-.097 1.222c-.396.06-.776.163-1.138.305l-.694-1.01c-.039-.054-.113-.071-.172-.038l-.968.56c-.059.033-.081.107-.052.168l.531 1.104c-.309.247-.59.527-.837.837l-1.107-.527c-.06-.03-.134-.007-.168.053l-.558.967c-.034.059-.018.134.039.172l1.008.69c-.142.364-.247.747-.306 1.146l-1.22.096c-.067.006-.12.063-.12.13v1.118c0 .067.053.124.12.13l1.22.092c.06.398.163.782.305 1.145l-1.007.695c-.057.038-.073.113-.04.171l.559.968c.034.06.107.082.168.053l1.102-.53c.247.309.529.59.838.838l-.527 1.106c-.03.062-.007.135.052.168l.968.56c.059.034.133.016.172-.04l.689-1.01c.362.144.746.247 1.143.307l.097 1.22c.006.07.062.12.13.12h1.116c.069 0 .126-.052.13-.12l.092-1.219" transform="translate(-296.000000, -9356.000000) translate(219.000000, 9125.000000) translate(77.000000, 231.000000) translate(185.000000, 165.500000) scale(-1, 1) rotate(-180.000000) translate(-185.000000, -165.500000) translate(0.000000, 0.000000)"/>
                            <path fill="#360E93" d="M173.515 259.703c.642 1.113 2.065 1.494 3.177.852s1.493-2.066.85-3.18c-.642-1.113-2.064-1.494-3.177-.852-1.112.642-1.493 2.066-.85 3.18zm4.256-1.163c0 1.239-1.003 2.244-2.242 2.244-1.24 0-2.243-1.005-2.243-2.244 0-1.24 1.004-2.246 2.243-2.246 1.239 0 2.242 1.005 2.242 2.246" transform="translate(-296.000000, -9356.000000) translate(219.000000, 9125.000000) translate(77.000000, 231.000000) translate(185.000000, 165.500000) scale(-1, 1) rotate(-180.000000) translate(-185.000000, -165.500000) translate(0.000000, 0.000000)"/>
                            <path fill="#9096BC" d="M289.439 263.437L274.853 263.437 274.853 262.059 289.439 262.059 289.439 263.437M289.439 255.019L274.853 255.019 274.853 253.641 289.439 253.641 289.439 255.019M289.439 259.229L274.853 259.229 274.853 257.85 289.439 257.85 289.439 259.229" transform="translate(-296.000000, -9356.000000) translate(219.000000, 9125.000000) translate(77.000000, 231.000000) translate(185.000000, 165.500000) scale(-1, 1) rotate(-180.000000) translate(-185.000000, -165.500000) translate(0.000000, 0.000000)"/>
                            <path fill="#C6ADF8" d="M175.35 114.554v100.007c0 4.844-3.955 8.805-8.794 8.805h-99.91c-4.84 0-8.797-3.961-8.797-8.805V114.554c0-4.844 3.957-8.805 8.796-8.805h99.91c4.84 0 8.796 3.961 8.796 8.805" transform="translate(-296.000000, -9356.000000) translate(219.000000, 9125.000000) translate(77.000000, 231.000000) translate(185.000000, 165.500000) scale(-1, 1) rotate(-180.000000) translate(-185.000000, -165.500000) translate(0.000000, 0.000000)"/>
                            <path fill="#B7C7EF" d="M174.69 114.554v100.007c0 4.479-3.661 8.142-8.134 8.142h-99.91c-4.475 0-8.136-3.663-8.136-8.142V114.554c0-4.478 3.66-8.142 8.135-8.142h99.91c4.474 0 8.135 3.664 8.135 8.142" transform="translate(-296.000000, -9356.000000) translate(219.000000, 9125.000000) translate(77.000000, 231.000000) translate(185.000000, 165.500000) scale(-1, 1) rotate(-180.000000) translate(-185.000000, -165.500000) translate(0.000000, 0.000000)"/>
                            <path fill="#9096BC" d="M138.014 174.226c-5.333 0-9.659-4.329-9.659-9.669 0-5.34 4.326-9.668 9.659-9.668 5.334 0 9.659 4.329 9.659 9.668 0 5.34-4.325 9.669-9.66 9.669M83.65 168.537c0-1.577 1.278-2.855 2.855-2.855h34.638c1.576 0 2.855 1.278 2.855 2.855 0 1.576-1.279 2.854-2.855 2.854H86.505c-1.577 0-2.855-1.278-2.855-2.854zM69.099 159.25c0-.843.683-1.527 1.526-1.527h51.846c.843 0 1.527.684 1.527 1.527 0 .844-.684 1.527-1.527 1.527H70.625c-.843 0-1.526-.683-1.526-1.527zM138.014 203.487c-5.333 0-9.659-4.329-9.659-9.668 0-5.34 4.326-9.668 9.659-9.668 5.334 0 9.659 4.328 9.659 9.668 0 5.34-4.325 9.668-9.66 9.668M96.232 197.797c0-1.576 1.278-2.854 2.854-2.854h22.057c1.577 0 2.855 1.278 2.855 2.854s-1.278 2.854-2.855 2.854H99.086c-1.576 0-2.854-1.278-2.854-2.854zM69.099 188.512c0-.844.683-1.527 1.526-1.527h51.846c.843 0 1.527.683 1.527 1.527 0 .843-.684 1.526-1.527 1.526H70.625c-.843 0-1.526-.683-1.526-1.526zM138.014 144.964c-5.333 0-9.659-4.328-9.659-9.668 0-5.34 4.326-9.668 9.659-9.668 5.334 0 9.659 4.329 9.659 9.668 0 5.34-4.325 9.668-9.66 9.668M92.318 139.275c0-1.576 1.278-2.855 2.855-2.855h25.97c1.576 0 2.855 1.279 2.855 2.855 0 1.577-1.279 2.855-2.855 2.855h-25.97c-1.577 0-2.855-1.278-2.855-2.855zM69.099 129.99c0-.843.683-1.526 1.526-1.526h51.846c.843 0 1.527.683 1.527 1.526s-.684 1.526-1.527 1.526H70.625c-.843 0-1.526-.683-1.526-1.526z" transform="translate(-296.000000, -9356.000000) translate(219.000000, 9125.000000) translate(77.000000, 231.000000) translate(185.000000, 165.500000) scale(-1, 1) rotate(-180.000000) translate(-185.000000, -165.500000) translate(0.000000, 0.000000)"/>
                            <path fill="#02D8FB" d="M316.143 97.571v133.973c0 4.843-3.956 8.804-8.795 8.804H152.88c-4.837 0-8.796-3.963-8.796-8.804V97.57c0-4.84 3.962-8.803 8.796-8.803h154.467c4.836 0 8.795 3.962 8.795 8.803" transform="translate(-296.000000, -9356.000000) translate(219.000000, 9125.000000) translate(77.000000, 231.000000) translate(185.000000, 165.500000) scale(-1, 1) rotate(-180.000000) translate(-185.000000, -165.500000) translate(0.000000, 0.000000)"/>
                            <path fill="#02BDDC" d="M171.211 152.167h25.146c3.365 0 6.118-2.757 6.118-6.125v-25.17c0-3.368-2.753-6.125-6.118-6.125h-25.146c-3.365 0-6.118 2.757-6.118 6.126v25.169c0 3.368 2.753 6.125 6.118 6.125" transform="translate(-296.000000, -9356.000000) translate(219.000000, 9125.000000) translate(77.000000, 231.000000) translate(185.000000, 165.500000) scale(-1, 1) rotate(-180.000000) translate(-185.000000, -165.500000) translate(0.000000, 0.000000)"/>
                            <path fill="#FFF" d="M300.635 108.575v112.102c0 3.696-3.02 6.72-6.713 6.72h-61.415c-3.692 0-6.713-3.024-6.713-6.72V108.575c0-3.695 3.02-6.72 6.713-6.72h61.415c3.692 0 6.713 3.025 6.713 6.72" transform="translate(-296.000000, -9356.000000) translate(219.000000, 9125.000000) translate(77.000000, 231.000000) translate(185.000000, 165.500000) scale(-1, 1) rotate(-180.000000) translate(-185.000000, -165.500000) translate(0.000000, 0.000000)"/>
                            <path fill="#217DC4" d="M242.385 167.092c0 .498.409.907.907.907h8.3c.498 0 .906-.409.906-.907v-8.308c0-.5-.408-.909-.906-.909h-8.3c-.498 0-.907.41-.907.91v8.307z" transform="translate(-296.000000, -9356.000000) translate(219.000000, 9125.000000) translate(77.000000, 231.000000) translate(185.000000, 165.500000) scale(-1, 1) rotate(-180.000000) translate(-185.000000, -165.500000) translate(0.000000, 0.000000)"/>
                            <path fill="#A7D2F6" d="M292.043 162.937c0-.69-.56-1.248-1.249-1.248h-31.578c-.69 0-1.248.559-1.248 1.248 0 .69.559 1.249 1.248 1.249h31.578c.69 0 1.249-.56 1.249-1.249z" transform="translate(-296.000000, -9356.000000) translate(219.000000, 9125.000000) translate(77.000000, 231.000000) translate(185.000000, 165.500000) scale(-1, 1) rotate(-180.000000) translate(-185.000000, -165.500000) translate(0.000000, 0.000000)"/>
                            <path fill="#217DC4" d="M242.385 147.808c0 .499.409.908.907.908h8.3c.498 0 .906-.41.906-.908V139.5c0-.5-.408-.907-.906-.907h-8.3c-.498 0-.907.407-.907.907v8.308z" transform="translate(-296.000000, -9356.000000) translate(219.000000, 9125.000000) translate(77.000000, 231.000000) translate(185.000000, 165.500000) scale(-1, 1) rotate(-180.000000) translate(-185.000000, -165.500000) translate(0.000000, 0.000000)"/>
                            <path fill="#A7D2F6" d="M292.043 143.654c0-.69-.56-1.249-1.249-1.249h-31.578c-.69 0-1.248.559-1.248 1.249 0 .69.559 1.248 1.248 1.248h31.578c.69 0 1.249-.559 1.249-1.248z" transform="translate(-296.000000, -9356.000000) translate(219.000000, 9125.000000) translate(77.000000, 231.000000) translate(185.000000, 165.500000) scale(-1, 1) rotate(-180.000000) translate(-185.000000, -165.500000) translate(0.000000, 0.000000)"/>
                            <path fill="#217DC4" d="M242.385 128.524c0 .499.409.908.907.908h8.3c.498 0 .906-.409.906-.908v-8.307c0-.499-.408-.908-.906-.908h-8.3c-.498 0-.907.41-.907.908v8.307z" transform="translate(-296.000000, -9356.000000) translate(219.000000, 9125.000000) translate(77.000000, 231.000000) translate(185.000000, 165.500000) scale(-1, 1) rotate(-180.000000) translate(-185.000000, -165.500000) translate(0.000000, 0.000000)"/>
                            <path fill="#A7D2F6" d="M292.043 124.37c0-.69-.56-1.249-1.25-1.249h-31.576c-.69 0-1.25.56-1.25 1.25s.56 1.249 1.25 1.249h31.576c.69 0 1.25-.56 1.25-1.25z" transform="translate(-296.000000, -9356.000000) translate(219.000000, 9125.000000) translate(77.000000, 231.000000) translate(185.000000, 165.500000) scale(-1, 1) rotate(-180.000000) translate(-185.000000, -165.500000) translate(0.000000, 0.000000)"/>
                            <path fill="#02D8FB" d="M287.681 203.83h-17.92c-2.398 0-4.36-1.963-4.36-4.364v-17.938c0-2.4 1.962-4.365 4.36-4.365h17.92c2.4 0 4.362 1.964 4.362 4.365v17.938c0 2.4-1.962 4.365-4.362 4.365" transform="translate(-296.000000, -9356.000000) translate(219.000000, 9125.000000) translate(77.000000, 231.000000) translate(185.000000, 165.500000) scale(-1, 1) rotate(-180.000000) translate(-185.000000, -165.500000) translate(0.000000, 0.000000)"/>
                            <path fill="#FFF" d="M290.454 181.663v17.668c0 1.6-1.308 2.91-2.907 2.91h-17.65c-1.6 0-2.908-1.31-2.908-2.91v-17.668c0-1.6 1.308-2.91 2.907-2.91h17.651c1.6 0 2.907 1.31 2.907 2.91" transform="translate(-296.000000, -9356.000000) translate(219.000000, 9125.000000) translate(77.000000, 231.000000) translate(185.000000, 165.500000) scale(-1, 1) rotate(-180.000000) translate(-185.000000, -165.500000) translate(0.000000, 0.000000)"/>
                            <path fill="#02D8FB" d="M274.665 193.928l-5.616-10.36c-.251-.464-.241-.985.03-1.438.268-.453.72-.711 1.248-.711h16.79c.527 0 .978.258 1.248.71.27.454.28.975.03 1.439l-3.064 5.65c-.26.48-.73.761-1.278.761-.547 0-1.017-.28-1.277-.761l-.99-1.826c-.105-.193-.292-.305-.512-.305-.218 0-.405.112-.51.305l-3.543 6.536c-.261.482-.73.76-1.278.762-.547 0-1.017-.28-1.278-.762M285.177 199.549c-1.387 0-2.512-1.126-2.512-2.514s1.125-2.512 2.512-2.512c1.386 0 2.51 1.124 2.51 2.512s-1.124 2.514-2.51 2.514" transform="translate(-296.000000, -9356.000000) translate(219.000000, 9125.000000) translate(77.000000, 231.000000) translate(185.000000, 165.500000) scale(-1, 1) rotate(-180.000000) translate(-185.000000, -165.500000) translate(0.000000, 0.000000)"/>
                            <path fill="#217DC4" d="M266.323 215.48h-25.75c-3.445 0-6.265-2.821-6.265-6.271v-25.774c0-3.45 2.82-6.272 6.266-6.272h25.749c3.446 0 6.265 2.822 6.265 6.272v25.774c0 3.45-2.819 6.272-6.265 6.272" transform="translate(-296.000000, -9356.000000) translate(219.000000, 9125.000000) translate(77.000000, 231.000000) translate(185.000000, 165.500000) scale(-1, 1) rotate(-180.000000) translate(-185.000000, -165.500000) translate(0.000000, 0.000000)"/>
                            <path fill="#EAF4FF" d="M270.306 183.628v25.387c0 2.3-1.88 4.181-4.177 4.181h-25.36c-2.3 0-4.179-1.88-4.179-4.18v-25.388c0-2.3 1.88-4.18 4.178-4.18h25.361c2.298 0 4.177 1.88 4.177 4.18" transform="translate(-296.000000, -9356.000000) translate(219.000000, 9125.000000) translate(77.000000, 231.000000) translate(185.000000, 165.500000) scale(-1, 1) rotate(-180.000000) translate(-185.000000, -165.500000) translate(0.000000, 0.000000)"/>
                            <path fill="#217DC4" d="M247.62 201.252l-8.069-14.886c-.361-.666-.346-1.416.042-2.066.386-.652 1.036-1.022 1.793-1.022h24.124c.757 0 1.407.37 1.795 1.022.388.65.403 1.4.041 2.066l-4.4 8.118c-.375.69-1.05 1.093-1.836 1.093-.787 0-1.462-.402-1.836-1.093l-1.422-2.624c-.15-.276-.42-.438-.734-.438-.315 0-.585.162-.734.438l-5.092 9.392c-.375.692-1.05 1.094-1.835 1.094-.787 0-1.461-.402-1.837-1.094M262.723 209.328c-1.993 0-3.607-1.616-3.607-3.61 0-1.995 1.614-3.612 3.607-3.612 1.992 0 3.607 1.617 3.607 3.611 0 1.995-1.615 3.61-3.607 3.61" transform="translate(-296.000000, -9356.000000) translate(219.000000, 9125.000000) translate(77.000000, 231.000000) translate(185.000000, 165.500000) scale(-1, 1) rotate(-180.000000) translate(-185.000000, -165.500000) translate(0.000000, 0.000000)"/>
                            <path fill="#180D62" d="M100.156 18.661c-24.81 0-44.92-3.993-44.92-8.92 0-4.925 20.11-8.922 44.92-8.922 24.809 0 44.92 3.997 44.92 8.923s-20.111 8.919-44.92 8.919" transform="translate(-296.000000, -9356.000000) translate(219.000000, 9125.000000) translate(77.000000, 231.000000) translate(185.000000, 165.500000) scale(-1, 1) rotate(-180.000000) translate(-185.000000, -165.500000) translate(0.000000, 0.000000)"/>
                            <path fill="#3D3583" d="M87.285 25.976L86.8 20.613 79.725 20.083 79.292 26.523 87.285 25.976" transform="translate(-296.000000, -9356.000000) translate(219.000000, 9125.000000) translate(77.000000, 231.000000) translate(185.000000, 165.500000) scale(-1, 1) rotate(-180.000000) translate(-185.000000, -165.500000) translate(0.000000, 0.000000)"/>
                            <path fill="#6D7DD3" d="M79.495 22.628c-1.01-.18-1.425-7.26.895-8.545 4.843-2.68 4.682-3.374 6.866-6.686 2.25-3.61 9.371-3.499 10.614.703 0 0 .103 1.31-1.865 2.972 0 0-3.25 2.93-4.834 6.98 0 0-.101 3.234-2.287 4.03 0 0-2.15.843-1.99-.222.233-1.563-6.81-1.618-7.4.768" transform="translate(-296.000000, -9356.000000) translate(219.000000, 9125.000000) translate(77.000000, 231.000000) translate(185.000000, 165.500000) scale(-1, 1) rotate(-180.000000) translate(-185.000000, -165.500000) translate(0.000000, 0.000000)"/>
                            <path fill="#3D3583" d="M107.541 27.055L107.08 21.958 100.358 21.456 99.947 27.573 107.541 27.055" transform="translate(-296.000000, -9356.000000) translate(219.000000, 9125.000000) translate(77.000000, 231.000000) translate(185.000000, 165.500000) scale(-1, 1) rotate(-180.000000) translate(-185.000000, -165.500000) translate(0.000000, 0.000000)"/>
                            <path fill="#6D7DD3" d="M100.208 23.692c-.91-.23-1.246-7.635.828-8.89 3.413-2.063 3.208 1.752 10.198-3.524 0 0 3.097-2.337 7-1.227 0 0 2.998.391 3.602 3.15 0 0 .055 1.457-1.897 2.586 0 0-4.78 1.062-7.837 4.862 0 0-.953 2.77-2.998 3.35 0 0-3.12.497-3.195-.484-.226-2.916-5.806-.815-5.701.177" transform="translate(-296.000000, -9356.000000) translate(219.000000, 9125.000000) translate(77.000000, 231.000000) translate(185.000000, 165.500000) scale(-1, 1) rotate(-180.000000) translate(-185.000000, -165.500000) translate(0.000000, 0.000000)"/>
                            <path fill="#353495" d="M108.52 25.623s-10.278-1.373-10.07.624c1.082 10.454-.809 22.462.582 28.572.92 4.045-2.704 8.493-3.162 12.994l-6.586 35.526 20.313-.728c1.125-7.984 4.22-28.993 2.344-46.849-.807-7.683-3.022-20.673-3.421-30.14" transform="translate(-296.000000, -9356.000000) translate(219.000000, 9125.000000) translate(77.000000, 231.000000) translate(185.000000, 165.500000) scale(-1, 1) rotate(-180.000000) translate(-185.000000, -165.500000) translate(0.000000, 0.000000)"/>
                            <path fill="#4443A8" d="M79.8 103.184c-1.64-4.508-2.436-12.356-.066-21.154-.261-6.882 1.953-17.438 1.93-24.121-.018-4.957-3.632-20.668-4.09-32.738 3.112-1.05 7.436-1.06 10.969-.188 1.614 12.747 3.908 19.897 6.03 31.138 1.216 6.44 2.165 15.244 3.341 21.313 1.072 5.53 2.134 7.449 5.856 11.838 2.84 3.348 6.063 9.404 5.827 13.34l-29.797.572" transform="translate(-296.000000, -9356.000000) translate(219.000000, 9125.000000) translate(77.000000, 231.000000) translate(185.000000, 165.500000) scale(-1, 1) rotate(-180.000000) translate(-185.000000, -165.500000) translate(0.000000, 0.000000)"/>
                            <path fill="#F51D2D" d="M104.819 154.152s5.53 1.037 10.047-10.355c3.796-9.575 2.52-16.657 2.52-16.657l-10.356.125-2.211 26.887" transform="translate(-296.000000, -9356.000000) translate(219.000000, 9125.000000) translate(77.000000, 231.000000) translate(185.000000, 165.500000) scale(-1, 1) rotate(-180.000000) translate(-185.000000, -165.500000) translate(0.000000, 0.000000)"/>
                            <path fill="#FA394B" d="M101.856 156.246c6.11-1.442 12.805-13.323 7.552-39.206 0 0-2.82-12.396-5.868-15.553l-10.833-1.533s-12.962.01-15.08 3.12c-.713 1.047-1.769 2.983-.29 6.741 4.613 11.722 1.346 35.826 1.713 42.817 1.44 2.46 8.696 5.43 10.114 4.85l12.692-1.236" transform="translate(-296.000000, -9356.000000) translate(219.000000, 9125.000000) translate(77.000000, 231.000000) translate(185.000000, 165.500000) scale(-1, 1) rotate(-180.000000) translate(-185.000000, -165.500000) translate(0.000000, 0.000000)"/>
                            <path fill="#F51D2D" d="M84.133 120.695s8.42-6.98 11.88-12.597l4.096-4.415-11.825 10.033-9.982 9.702-3.071 13.026 5.559 9.63 2.675 7.585c10.513-8.722-.75-22.741.668-32.964" transform="translate(-296.000000, -9356.000000) translate(219.000000, 9125.000000) translate(77.000000, 231.000000) translate(185.000000, 165.500000) scale(-1, 1) rotate(-180.000000) translate(-185.000000, -165.500000) translate(0.000000, 0.000000)"/>
                            <path fill="url(#kphm4xr1aa)" d="M95.508 100.742l4.276 4.11c.372.357-.86.578-1.274.89-6.046 4.565-10.657 11.96-16.057 14.448.508 2.45 1.225 5.63.867 8.949l-9.811.465c-.215-3.388.373-6.878.481-10.713 5.08-8.23 16.779-10.584 21.518-18.149" transform="translate(-296.000000, -9356.000000) translate(219.000000, 9125.000000) translate(77.000000, 231.000000) translate(185.000000, 165.500000) scale(-1, 1) rotate(-180.000000) translate(-185.000000, -165.500000) translate(0.000000, 0.000000)"/>
                            <path fill="#FA394B" d="M83.586 127.489c.99 5.412 3.548 11.351 3.644 14.585-.266 12.15-4.613 13.45-8.637 10.929-2.235-1.4-4.113-4.774-4.121-10.39-.006-3.96-2.244-8.565-2.813-13.17 4.374-.232 9.482-.467 11.927-1.954" transform="translate(-296.000000, -9356.000000) translate(219.000000, 9125.000000) translate(77.000000, 231.000000) translate(185.000000, 165.500000) scale(-1, 1) rotate(-180.000000) translate(-185.000000, -165.500000) translate(0.000000, 0.000000)"/>
                            <path fill="url(#2icnnaw98b)" d="M105.337 157.783s-2.32-2.916-.432-5.678c0 0 .342-4.094-5.174-3.907-2.953.145-10.152 4.816-9.999 8.657 0 0 1.261.09 1.553.913 0 0 1.055 4.352-.147 9.035l14.199-9.02" transform="translate(-296.000000, -9356.000000) translate(219.000000, 9125.000000) translate(77.000000, 231.000000) translate(185.000000, 165.500000) scale(-1, 1) rotate(-180.000000) translate(-185.000000, -165.500000) translate(0.000000, 0.000000)"/>
                            <path fill="url(#0dklxtj5jc)" d="M110.526 166.389s-1.354-6.207-2.294-9.054c0 0-.927-2.51-6.08-4.842-.241-.11-.59-.257-.8-.28-1.012-.12-1.284-.288-6.482 4.638 0 0-2.095 2.425-2.924 4.724 0 0-4.376 10.794-2.072 14.31 0 0 2.143 6.527 10.233 5.168 0 0 9.556-.047 10.287-4.884 2.315-4.79 1.177-6.336.132-9.78" transform="translate(-296.000000, -9356.000000) translate(219.000000, 9125.000000) translate(77.000000, 231.000000) translate(185.000000, 165.500000) scale(-1, 1) rotate(-180.000000) translate(-185.000000, -165.500000) translate(0.000000, 0.000000)"/>
                            <path fill="#1C2B4B" d="M106.993 160.368s.183-.982-.784-1.268c0 0-1.335-.205-2.88-.198-1.541.105-2.342.418-2.342.418-1.129.736-1.217 1.82-1.217 1.82 1.138-.92 6.02-1.607 7.223-.772zm3.156 4.921c-.175-.67-.22-3.156-1.874-2.941-.093.794-1.236 1.034-1.923.523.082.267-1.514 1.403-3.377-.069-1.52 1.753-3.382.534-3.362.316-.77.817-3.35.94-3.753-.157-2.595.827-2.253 3.636-2.28 4.489l-.508.081c-.233-1.909-.725-3.208-.725-3.208-2.06-.988-1.437-4.369-.052-4.453-.81-1.884 1.14-4.663 2.65-4.69.666-2.29 1.888-2.588 1.888-2.588 1.133-1.38 2.651-1.382 3.638-1.103.963-.35 2.477-.46 3.709.834 0 0 2.029-.168 2.861 2.068.784.08 2.743 2.47 1.768 4.664 0 0 1.491 1.106 1.501 3.56 0 0 .202.924.109 2.846l-.27-.172" transform="translate(-296.000000, -9356.000000) translate(219.000000, 9125.000000) translate(77.000000, 231.000000) translate(185.000000, 165.500000) scale(-1, 1) rotate(-180.000000) translate(-185.000000, -165.500000) translate(0.000000, 0.000000)"/>
                            <path fill="#1C2B4B" d="M109.952 172.271s-3.728-2.755-6.411 1.539c0 0-3.06-1.845-5.26 1.279.187-.865-1.516-2.997-3.38-2.79 0 0-1.009-3.245-1.29-3.953l-.413.028.066 3.584c.005.32-2.627 1.27-2.68-1.09 0 0 .12-3.24.934-4.776.17-.383 1.01-.774 1.566-.297.02.214-.915-5.98-.397-6.808 0 0-2.437 1.644-2.504 3.363-.258-.19-2.218.851-1.882 2.757-.299.04-1.657 2.724-.508 3.464 0 0-1.53 1.113-1.376 3.011 0 0-.16 3.23 1.7 3.03-.221.01-1.933 3.57 1.14 5.112-.748 1.518 1.471 4.758 4.044 2.824-.409 1.364 2.334 2.745 3.341.902.074 1.866 3.997 2.468 3.741.424.339 1.438 3.023 2.296 4.446-.004.925 1.235 5.238.184 5.03-3.59.189.717 1.944 1.444 2.385-.162.48 1.153 3.508 1.096 3.871-1.59.769-.102 2.756-3.87-.978-4.883.195-1.872-3.813-3.96-5.185-1.374" transform="translate(-296.000000, -9356.000000) translate(219.000000, 9125.000000) translate(77.000000, 231.000000) translate(185.000000, 165.500000) scale(-1, 1) rotate(-180.000000) translate(-185.000000, -165.500000) translate(0.000000, 0.000000)"/>
                            <path fill="#3D4571" d="M87.43 104.889L92.901 101.828 128.172 103.666 122.807 106.416 87.43 104.889" transform="translate(-296.000000, -9356.000000) translate(219.000000, 9125.000000) translate(77.000000, 231.000000) translate(185.000000, 165.500000) scale(-1, 1) rotate(-180.000000) translate(-185.000000, -165.500000) translate(0.000000, 0.000000)"/>
                            <path fill="#293057" d="M87.43 104.889l5.462-2.887.1-1.928-5.125 3.44c-.283.191-.44.485-.438.826l.001.549M128.163 103.84l-35.27-1.838.1-1.928 34.283 1.787c.544.03.965.495.936 1.04l-.049.94" transform="translate(-296.000000, -9356.000000) translate(219.000000, 9125.000000) translate(77.000000, 231.000000) translate(185.000000, 165.500000) scale(-1, 1) rotate(-180.000000) translate(-185.000000, -165.500000) translate(0.000000, 0.000000)"/>
                            <path fill="#293057" d="M99.745 126.355l-7.932-23.918 1.088-.609 9.32 25.934-.773-.051c-.807-.054-1.45-.59-1.703-1.356" transform="translate(-296.000000, -9356.000000) translate(219.000000, 9125.000000) translate(77.000000, 231.000000) translate(185.000000, 165.500000) scale(-1, 1) rotate(-180.000000) translate(-185.000000, -165.500000) translate(0.000000, 0.000000)"/>
                            <path fill="#3D4571" d="M133.967 128.937l-32.027-1.361c-.42-.018-.766-.282-.897-.681l-8.15-24.893 35.27 1.838 6.796 23.836c.09.315.029.627-.174.884-.203.259-.491.391-.818.377" transform="translate(-296.000000, -9356.000000) translate(219.000000, 9125.000000) translate(77.000000, 231.000000) translate(185.000000, 165.500000) scale(-1, 1) rotate(-180.000000) translate(-185.000000, -165.500000) translate(0.000000, 0.000000)"/>
                            <path fill="url(#sxqf3tc06d)" d="M109.653 104.976s.104-2.535-1.08-3.837c0 0-2.855-1.292-4.087-2.363-1.191-1.036-5.32.384-5.312.382.006-.001-1.434.698-.578 1.631.397.434 1.212.789 1.708.614 4.185-1.482 3.332 2.625 4.194 3.407 1.032.935 4.156 1.746 5.155.166" transform="translate(-296.000000, -9356.000000) translate(219.000000, 9125.000000) translate(77.000000, 231.000000) translate(185.000000, 165.500000) scale(-1, 1) rotate(-180.000000) translate(-185.000000, -165.500000) translate(0.000000, 0.000000)"/>
                            <path fill="url(#6cz0h0f5oe)" d="M197.502 141.952c-3.306.81-8.114 6.052-9.374 3.207l-.213-.48-1.037-.215c-1.978-.623-1.135-7.342 1.769-8.057 0 0 1.58-.556 1.767.728 0 0 1.948-1.506 5.158-.24 4.68-.958 16.045-7.873 22.924-5.383 1.758 1.31 10.981 3.406 14.92 7.755-.616 4.214-3.582 7.652-6.49 5.983-3.154-1.808-7.208-2.594-11.814-7.189-6.208 3.227-13.393 2.235-17.61 3.891" transform="translate(-296.000000, -9356.000000) translate(219.000000, 9125.000000) translate(77.000000, 231.000000) translate(185.000000, 165.500000) scale(-1, 1) rotate(-180.000000) translate(-185.000000, -165.500000) translate(0.000000, 0.000000)"/>
                            <path fill="url(#zlzp5aaakf)" d="M235.416 149.884c-3.746.113-7.577-1.44-10.346-4.453-2.556-1.45-8.188-4.522-9.709-6.533-6.993 1.582-10.12 1.778-16.286 2.807-.506-1.963-.404-5.11-.121-6.565 7.052-2.167 10.204-4.52 18.433-4.562 2.41.837 11.79 5.192 16.368 6.961 5.71 3.46 6.461 12.201 1.66 12.345" transform="translate(-296.000000, -9356.000000) translate(219.000000, 9125.000000) translate(77.000000, 231.000000) translate(185.000000, 165.500000) scale(-1, 1) rotate(-180.000000) translate(-185.000000, -165.500000) translate(0.000000, 0.000000)"/>
                            <path fill="#217DC4" d="M176.95 159.125h27.115c3.629 0 6.598-2.97 6.598-6.604v-27.142c0-3.632-2.97-6.604-6.598-6.604H176.95c-3.63 0-6.6 2.972-6.6 6.604v27.142c0 3.633 2.97 6.604 6.6 6.604" transform="translate(-296.000000, -9356.000000) translate(219.000000, 9125.000000) translate(77.000000, 231.000000) translate(185.000000, 165.500000) scale(-1, 1) rotate(-180.000000) translate(-185.000000, -165.500000) translate(0.000000, 0.000000)"/>
                            <path fill="#F1ECFF" d="M172.754 125.584v26.734c0 2.42 1.98 4.403 4.399 4.403h26.708c2.418 0 4.398-1.982 4.398-4.403v-26.734c0-2.421-1.98-4.403-4.398-4.403h-26.708c-2.42 0-4.4 1.982-4.4 4.403" transform="translate(-296.000000, -9356.000000) translate(219.000000, 9125.000000) translate(77.000000, 231.000000) translate(185.000000, 165.500000) scale(-1, 1) rotate(-180.000000) translate(-185.000000, -165.500000) translate(0.000000, 0.000000)"/>
                            <path fill="#217DC4" d="M196.644 144.143l8.498-15.677c.38-.701.365-1.49-.044-2.176-.407-.685-1.093-1.075-1.89-1.075h-25.403c-.797 0-1.482.39-1.89 1.075-.408.686-.424 1.475-.043 2.176l4.634 8.548c.394.73 1.105 1.152 1.933 1.152.828 0 1.538-.422 1.933-1.152l1.498-2.762c.158-.291.442-.461.773-.461s.616.17.774.461l5.36 9.89c.395.728 1.106 1.152 1.934 1.152.828 0 1.538-.424 1.933-1.151M180.74 152.646c2.099 0 3.799-1.703 3.799-3.802 0-2.1-1.7-3.802-3.799-3.802-2.097 0-3.798 1.703-3.798 3.802 0 2.1 1.7 3.802 3.798 3.802" transform="translate(-296.000000, -9356.000000) translate(219.000000, 9125.000000) translate(77.000000, 231.000000) translate(185.000000, 165.500000) scale(-1, 1) rotate(-180.000000) translate(-185.000000, -165.500000) translate(0.000000, 0.000000)"/>
                            <path fill="#180D62" d="M214.21 14.292c19.21 0 34.785-1.453 34.785-3.248 0-1.794-15.574-3.248-34.784-3.248-19.212 0-34.786 1.454-34.786 3.248 0 1.795 15.574 3.248 34.786 3.248" transform="translate(-296.000000, -9356.000000) translate(219.000000, 9125.000000) translate(77.000000, 231.000000) translate(185.000000, 165.500000) scale(-1, 1) rotate(-180.000000) translate(-185.000000, -165.500000) translate(0.000000, 0.000000)"/>
                            <path fill="url(#axllnqueog)" d="M215.854 171.072s-3.692-4.138-1.024-16.412c.442-.342 3.168-1.008 4.798-1.423.49-.672.364-3.738.189-5.252 0 0 8.766-1.178 12.12 1.2 0 0-.714 4.838-.15 5.83 0 0 7.669 11.821 2.8 18.365 0 0-2.85 6.014-7.438 4.75 0 0-11.993.602-11.295-7.058" transform="translate(-296.000000, -9356.000000) translate(219.000000, 9125.000000) translate(77.000000, 231.000000) translate(185.000000, 165.500000) scale(-1, 1) rotate(-180.000000) translate(-185.000000, -165.500000) translate(0.000000, 0.000000)"/>
                            <path fill="#1C2B4B" d="M234.518 177.108s-15.621 7.246-19.671-2.862c0 0-2.016-5.18-1.41-6.914 0 0 4.045 1.135 2.894-3.113 2.041-3.137 1.74-10.982 6.49-11.035 0 0 9.33.005 11.89 2.266 0 0 6.725 5.279-.193 21.658" transform="translate(-296.000000, -9356.000000) translate(219.000000, 9125.000000) translate(77.000000, 231.000000) translate(185.000000, 165.500000) scale(-1, 1) rotate(-180.000000) translate(-185.000000, -165.500000) translate(0.000000, 0.000000)"/>
                            <path fill="url(#858nqu0ixh)" d="M217.657 165.24c-.833.018-1.545-1.65-1.588-3.727-.042-2.074.598-3.772 1.431-3.788.835-.018 1.546 1.65 1.59 3.725.043 2.076-.598 3.772-1.433 3.79" transform="translate(-296.000000, -9356.000000) translate(219.000000, 9125.000000) translate(77.000000, 231.000000) translate(185.000000, 165.500000) scale(-1, 1) rotate(-180.000000) translate(-185.000000, -165.500000) translate(0.000000, 0.000000)"/>
                            <path fill="#F51D2D" d="M223.762 177.23c-1.464-2.112-1.07-4.923.88-6.276 1.95-1.355 4.718-.742 6.182 1.37 1.464 2.111 1.07 4.922-.88 6.277-1.95 1.354-4.718.74-6.182-1.371" transform="translate(-296.000000, -9356.000000) translate(219.000000, 9125.000000) translate(77.000000, 231.000000) translate(185.000000, 165.500000) scale(-1, 1) rotate(-180.000000) translate(-185.000000, -165.500000) translate(0.000000, 0.000000)"/>
                            <path fill="#FA394B" d="M224.308 176.777c-1.75-2.528-1.501-5.735.56-7.166 2.06-1.43 5.149-.541 6.9 1.985 1.75 2.526 1.5 5.734-.56 7.165-2.058 1.43-5.147.542-6.9-1.984" transform="translate(-296.000000, -9356.000000) translate(219.000000, 9125.000000) translate(77.000000, 231.000000) translate(185.000000, 165.500000) scale(-1, 1) rotate(-180.000000) translate(-185.000000, -165.500000) translate(0.000000, 0.000000)"/>
                            <path fill="#6D7DD3" d="M233.955 27.09s1.617-4.54 1.752-8.122c.134-3.581-.468-5.973-.468-5.973l-1.438-.307-.302 5.066s-1.483-4.588-4.472-5.627l-11.91-.352s-1.25.997 1.895 4.104c2.63 1.367 7.774 4.173 8.474 9.123 0 0 5.046 3.064 6.469 2.089" transform="translate(-296.000000, -9356.000000) translate(219.000000, 9125.000000) translate(77.000000, 231.000000) translate(185.000000, 165.500000) scale(-1, 1) rotate(-180.000000) translate(-185.000000, -165.500000) translate(0.000000, 0.000000)"/>
                            <path fill="#353495" d="M235.984 101.897c1.48-6.665.701-12.885-1.87-18.485-.17-6.818-1.94-17.116-1.444-24.929 4.455-10.777-.582-16.955 2.655-34.6-2.827-.6-5.419-.508-8.223-.305-1.076 12.384-2.23 22.087-5.35 33.927-.604 8.717-1.758 19.196-2.361 27.912l2.707 16.78c5.41-.355 8.476.056 13.886-.3" transform="translate(-296.000000, -9356.000000) translate(219.000000, 9125.000000) translate(77.000000, 231.000000) translate(185.000000, 165.500000) scale(-1, 1) rotate(-180.000000) translate(-185.000000, -165.500000) translate(0.000000, 0.000000)"/>
                            <path fill="#6D7DD3" d="M218.13 25.333s1.74-4.879 1.884-8.727c.145-3.848-.451-5.679-.451-5.679l-1.544-.329-.377 4.703s-1.593-4.218-4.804-5.334l-13.405-.387s-2.018 2.36 1.69 4.347c3.742 1.145 9.307 3.842 10.059 9.163 0 0 5.421 3.29 6.949 2.243" transform="translate(-296.000000, -9356.000000) translate(219.000000, 9125.000000) translate(77.000000, 231.000000) translate(185.000000, 165.500000) scale(-1, 1) rotate(-180.000000) translate(-185.000000, -165.500000) translate(0.000000, 0.000000)"/>
                            <path fill="#4443A8" d="M230.998 102.56s1.625-12.763-7.209-19.876c-3.408-7.02-7.398-15.866-9.137-23.889 4.693-10.447.4-22.301 4.496-35.234-3.28-.962-5.313-.91-8.368-1.096.1 13.222-7.695 29.74-7.431 37.127 2.543 11.997 3.702 28.169 7.404 42.121l20.245.847" transform="translate(-296.000000, -9356.000000) translate(219.000000, 9125.000000) translate(77.000000, 231.000000) translate(185.000000, 165.500000) scale(-1, 1) rotate(-180.000000) translate(-185.000000, -165.500000) translate(0.000000, 0.000000)"/>
                            <path fill="#EB8D2D" d="M231.892 151.02s-7.055-1.126-12.726-.423c0 0-.503-.934-.843-1.832-1.498-.226-3.662-.857-4.591-1.406 2.921-2.652 3.012-7.002.549-9.16-.026-1.178-.98-.982-.97-1.917-.683-1.004-2.317-3.458-2.259-5.54.377-2.38 2.252-4.247 3.146-6.597 2.391-14.171-7.99-16.53-3.608-23.444 3.161-4.551 24.673-5.27 27.06 1.213 1.56 4.238-2.448 6.67-2.745 13.067 3.534 7.334 9.76 25.98 2.187 32.066-1.032.83-2.341 1.283-4.138 2.398-.407.253-.617 1.317-1.062 1.576" transform="translate(-296.000000, -9356.000000) translate(219.000000, 9125.000000) translate(77.000000, 231.000000) translate(185.000000, 165.500000) scale(-1, 1) rotate(-180.000000) translate(-185.000000, -165.500000) translate(0.000000, 0.000000)"/>
                            <path fill="#1C2B4B" d="M224.575 166.602c-.834 1.389-3.651 6.624.313 9.206 3.235 6.841 25.215 9.89 18.709-18.184-1.08-4.659-4.439-11.642 5.005-8.911-1.917-9.247-27.643-16.558-24.027 17.889" transform="translate(-296.000000, -9356.000000) translate(219.000000, 9125.000000) translate(77.000000, 231.000000) translate(185.000000, 165.500000) scale(-1, 1) rotate(-180.000000) translate(-185.000000, -165.500000) translate(0.000000, 0.000000)"/>
                            <path fill="url(#3dabkdmf4i)" d="M180.652 140.234c-3.306.81-8.115 6.052-9.375 3.207l-.214-.482-1.036-.214c-1.977-.623-1.134-7.341 1.77-8.057 0 0 1.58-.555 1.767.727 0 0 1.948-1.504 5.158-.239 4.68-.958 16.044-7.874 22.924-5.382 1.758 1.309 10.98 3.404 14.92 7.755-.617 4.214-3.582 7.65-6.49 5.983-3.155-1.808-7.209-2.595-11.815-7.19-6.208 3.227-13.392 2.236-17.61 3.892" transform="translate(-296.000000, -9356.000000) translate(219.000000, 9125.000000) translate(77.000000, 231.000000) translate(185.000000, 165.500000) scale(-1, 1) rotate(-180.000000) translate(-185.000000, -165.500000) translate(0.000000, 0.000000)"/>
                            <path fill="#EB8D2D" d="M218.565 148.166c-3.746.113-7.576-1.44-10.346-4.453-2.555-1.45-8.187-4.523-9.708-6.533-6.993 1.58-10.12 1.776-16.287 2.807-.506-1.963-.403-5.11-.12-6.565 7.052-2.167 10.203-4.52 18.433-4.562 2.409.837 11.79 5.192 16.367 6.96 5.71 3.46 6.462 12.2 1.661 12.346" transform="translate(-296.000000, -9356.000000) translate(219.000000, 9125.000000) translate(77.000000, 231.000000) translate(185.000000, 165.500000) scale(-1, 1) rotate(-180.000000) translate(-185.000000, -165.500000) translate(0.000000, 0.000000)"/>
                            <path fill="#3090D7" d="M355.422 133.247c-.266.124-.521.245-.763.371-.244.122-.436.211-.58.27-.144.057-.26.088-.346.088-.143 0-.267-.05-.372-.147-.105-.096-.158-.215-.158-.361 0-.082.028-.166.078-.255.05-.088.106-.145.164-.17.53-.21 1.113-.363 1.75-.458-.115-.105-.256-.249-.427-.423-.168-.176-.256-.272-.262-.284-.063-.086-.15-.192-.26-.32-.111-.126-.188-.227-.231-.299-.044-.072-.065-.157-.065-.261 0-.13.048-.246.148-.345.099-.1.227-.148.382-.148.156 0 .332.12.526.363.195.242.448.677.757 1.305.316-.566.526-.939.633-1.12.108-.18.209-.316.308-.409.1-.092.213-.139.338-.139.153 0 .28.052.381.157.1.104.149.216.149.336 0 .112-.018.196-.06.253-.379.514-.772.958-1.183 1.334.345.055.652.115.924.18.27.067.56.164.863.29.05.026.098.082.145.17.048.09.071.17.071.243 0 .146-.052.265-.158.361-.105.097-.225.147-.36.147-.098 0-.223-.03-.37-.091-.147-.06-.336-.145-.563-.259-.23-.112-.489-.24-.781-.38.052.26.096.557.132.891.036.337.053.567.053.69 0 .153-.049.284-.145.39-.097.111-.222.165-.377.165-.148 0-.27-.054-.368-.165-.097-.106-.145-.252-.145-.433 0-.051.007-.147.02-.293.016-.148.038-.325.064-.532.028-.207.057-.445.088-.712" transform="translate(-296.000000, -9356.000000) translate(219.000000, 9125.000000) translate(77.000000, 231.000000) translate(185.000000, 165.500000) scale(-1, 1) rotate(-180.000000) translate(-185.000000, -165.500000) translate(0.000000, 0.000000)"/>
                            <path fill="#4339A4" d="M171.526 211.612h27.115c3.629 0 6.598-2.972 6.598-6.605v-27.14c0-3.633-2.97-6.605-6.598-6.605h-27.115c-3.63 0-6.599 2.972-6.599 6.604v27.141c0 3.633 2.97 6.605 6.599 6.605" transform="translate(-296.000000, -9356.000000) translate(219.000000, 9125.000000) translate(77.000000, 231.000000) translate(185.000000, 165.500000) scale(-1, 1) rotate(-180.000000) translate(-185.000000, -165.500000) translate(0.000000, 0.000000)"/>
                            <path fill="#F1ECFF" d="M167.331 178.07v26.733c0 2.423 1.979 4.403 4.399 4.403h26.708c2.419 0 4.399-1.98 4.399-4.403v-26.734c0-2.42-1.98-4.403-4.4-4.403H171.73c-2.42 0-4.399 1.982-4.399 4.403" transform="translate(-296.000000, -9356.000000) translate(219.000000, 9125.000000) translate(77.000000, 231.000000) translate(185.000000, 165.500000) scale(-1, 1) rotate(-180.000000) translate(-185.000000, -165.500000) translate(0.000000, 0.000000)"/>
                            <path fill="#4339A4" d="M191.221 196.628l8.497-15.676c.381-.702.366-1.49-.042-2.176-.409-.686-1.093-1.075-1.89-1.075H172.38c-.797 0-1.482.389-1.889 1.075-.408.685-.423 1.474-.044 2.176l4.635 8.55c.395.727 1.105 1.151 1.933 1.151.828 0 1.539-.424 1.933-1.152l1.497-2.764c.159-.291.443-.46.774-.46.332 0 .616.169.773.46l5.362 9.89c.395.73 1.105 1.153 1.932 1.153.83 0 1.54-.423 1.934-1.152M175.317 205.133c2.098 0 3.8-1.703 3.8-3.802 0-2.101-1.702-3.803-3.8-3.803s-3.798 1.702-3.798 3.803c0 2.1 1.7 3.802 3.798 3.802" transform="translate(-296.000000, -9356.000000) translate(219.000000, 9125.000000) translate(77.000000, 231.000000) translate(185.000000, 165.500000) scale(-1, 1) rotate(-180.000000) translate(-185.000000, -165.500000) translate(0.000000, 0.000000)"/>
                        </g>
                    </g>
                </g>
            </g>
        </g>
    </g>
</svg>
