<svg xmlns="http://www.w3.org/2000/svg" xmlns:xlink="http://www.w3.org/1999/xlink" width="434" height="332" viewBox="0 0 434 332">
    <defs>
        <path id="ofvkwkp4va" d="M0.564 0.233L433.675 0.233 433.675 308.548 0.564 308.548z"/>
    </defs>
    <g fill="none" fill-rule="evenodd">
        <g>
            <g>
                <g>
                    <g transform="translate(-716.000000, -9356.000000) translate(219.000000, 9125.000000) translate(497.000000, 231.000000)">
                        <mask id="5lnjk0tn3b" fill="#fff">
                            <use xlink:href="#ofvkwkp4va"/>
                        </mask>
                        <path fill="#011269" d="M252.939 1.194c-26.82 2.212-53.674 4.68-77.628 18.547-10.429 6.039-19.401 14.44-25.173 25.1-5.95 10.994-8.734 23.371-11.746 35.504-4.74 19.08-11.388 37.987-27.102 50.78-16.212 13.195-36.51 20.897-56.087 27.575-23.077 7.872-41.04 26.43-50.032 49.46-6.518 16.693-6.086 36.562 1.08 53.01 8.808 20.218 26.535 37.145 47.334 47.373.223.11.63-1.602.88-1.602h360.811c13.63 0 30.159.207 38.86-10.928 18.36-23.496 20.293-53.416 11.008-80.427-7.863-22.875-25.131-39.476-39.716-58.735-14.838-19.592-13.788-54.465-20.463-76.656C387.806 23.15 312.6-3.775 258.732.715c-1.93.161-3.861.319-5.793.479" mask="url(#5lnjk0tn3b)"/>
                    </g>
                    <path fill="#02D8FB" d="M184.618 33.404h-55.53c-5.929 0-10.734 4.805-10.734 10.734v55.53c0 5.928 4.805 10.733 10.734 10.733h55.53c5.928 0 10.733-4.805 10.733-10.733v-55.53c0-5.929-4.805-10.734-10.733-10.734" transform="translate(-716.000000, -9356.000000) translate(219.000000, 9125.000000) translate(497.000000, 231.000000)"/>
                    <path fill="#FFFFFE" d="M146.812 82.335l3.27-3.924c1.382 1.852 2.907 2.797 4.725 2.797 2.362 0 3.597-1.417 3.597-4.215V64.891h-8.94v-4.724h14.79v16.498c0 6.289-3.16 9.377-9.156 9.377-3.417 0-6.432-1.308-8.286-3.707" transform="translate(-716.000000, -9356.000000) translate(219.000000, 9125.000000) translate(497.000000, 231.000000)"/>
                    <path fill="#4443A8" d="M255.056 87.016c-5.03 0-9.108-4.078-9.108-9.108 0-5.032 4.078-9.11 9.108-9.11s9.108 4.078 9.108 9.11c0 5.03-4.078 9.108-9.108 9.108zm25.575-3.857V72.656h-5.873c-.468-1.76-1.167-3.426-2.06-4.964l4.156-4.155-7.426-7.428-4.156 4.156c-1.539-.893-3.204-1.592-4.965-2.06v-5.874h-10.502v5.875c-1.76.467-3.425 1.166-4.965 2.059l-4.156-4.156-7.425 7.428 4.155 4.155c-.893 1.538-1.593 3.204-2.06 4.964h-5.875v10.503h5.874c.468 1.76 1.168 3.425 2.06 4.964l-4.154 4.156 7.425 7.426 4.156-4.157c1.54.895 3.205 1.594 4.965 2.06v5.875h10.502V97.61c1.76-.467 3.426-1.166 4.965-2.06l4.156 4.156 7.426-7.426-4.156-4.156c.893-1.539 1.592-3.205 2.06-4.964h5.873zM290.265 58.266c-2.514 0-4.554-2.04-4.554-4.555 0-2.514 2.04-4.554 4.554-4.554 2.517 0 4.555 2.04 4.555 4.554 0 2.516-2.038 4.555-4.555 4.555zm12.789-1.929v-5.25h-2.937c-.235-.881-.584-1.713-1.03-2.483l2.079-2.079-3.715-3.713-2.079 2.078c-.768-.446-1.6-.795-2.48-1.03v-2.936h-5.252v2.937c-.88.234-1.712.583-2.482 1.029l-2.079-2.078-3.712 3.713 2.078 2.079c-.448.77-.796 1.602-1.03 2.482h-2.937v5.251h2.937c.234.88.582 1.713 1.03 2.483l-2.078 2.077 3.712 3.713 2.079-2.078c.77.447 1.602.796 2.482 1.03V66.5h5.251v-2.936c.88-.235 1.713-.584 2.481-1.031l2.079 2.078 3.715-3.713-2.079-2.077c.446-.77.795-1.602 1.03-2.483h2.937z" transform="translate(-716.000000, -9356.000000) translate(219.000000, 9125.000000) translate(497.000000, 231.000000)"/>
                    <path fill="#22297D" d="M90.793 117.906c-4.906 0-8.922 4.013-8.922 8.919v181.238c0 4.907 4.016 8.922 8.922 8.922h263.289c4.907 0 8.92-4.015 8.92-8.922V126.825c0-4.906-4.013-8.92-8.92-8.92H90.793" transform="translate(-716.000000, -9356.000000) translate(219.000000, 9125.000000) translate(497.000000, 231.000000)"/>
                    <path fill="#14075D" d="M320.515 312.843H49.88s3.743 4.142 15.114 4.142h315.261c11.371 0 15.115-4.142 15.115-4.142h-74.856" transform="translate(-716.000000, -9356.000000) translate(219.000000, 9125.000000) translate(497.000000, 231.000000)"/>
                    <path fill="#443AA5" d="M49.881 312.843L395.371 312.843 395.371 306.221 49.881 306.221z" transform="translate(-716.000000, -9356.000000) translate(219.000000, 9125.000000) translate(497.000000, 231.000000)"/>
                    <path fill="#546CA5" d="M247.099 307.036h-48.465c0 1.671 1.354 3.025 3.023 3.025h42.42c1.668 0 3.022-1.354 3.022-3.025" transform="translate(-716.000000, -9356.000000) translate(219.000000, 9125.000000) translate(497.000000, 231.000000)"/>
                    <path fill="#7487B6" d="M89.145 139.472h266.961V128.72H94.146c-2.762 0-5 2.238-5 5v5.752z" transform="translate(-716.000000, -9356.000000) translate(219.000000, 9125.000000) translate(497.000000, 231.000000)"/>
                    <path fill="#22297D" d="M97.209 134.217c0 1.259-1.02 2.277-2.277 2.277-1.257 0-2.277-1.018-2.277-2.277 0-1.255 1.02-2.275 2.277-2.275 1.257 0 2.277 1.02 2.277 2.275M104.69 134.217c0 1.259-1.02 2.277-2.277 2.277-1.257 0-2.276-1.018-2.276-2.277 0-1.255 1.019-2.275 2.276-2.275s2.277 1.02 2.277 2.275" transform="translate(-716.000000, -9356.000000) translate(219.000000, 9125.000000) translate(497.000000, 231.000000)"/>
                    <g>
                        <path fill="#22297D" d="M23.85 3.117c0 1.259-1.018 2.277-2.275 2.277-1.258 0-2.277-1.018-2.277-2.277 0-1.255 1.019-2.275 2.277-2.275 1.257 0 2.276 1.02 2.276 2.275" transform="translate(-716.000000, -9356.000000) translate(219.000000, 9125.000000) translate(497.000000, 231.000000) translate(88.320000, 131.100000)"/>
                        <path fill="#B7C7EF" d="M5.825 169.583h256.961c2.762 0 5-2.239 5-5V8.373H.826v156.21c0 2.761 2.238 5 5 5z" transform="translate(-716.000000, -9356.000000) translate(219.000000, 9125.000000) translate(497.000000, 231.000000) translate(88.320000, 131.100000)"/>
                    </g>
                    <path fill="#4339A4" d="M230.73 286.841h105.374c2.762 0 5-2.238 5-5V155.42c0-2.761-2.238-5-5-5H230.73c-2.761 0-5 2.239-5 5v126.421c0 2.762 2.239 5 5 5z" transform="translate(-716.000000, -9356.000000) translate(219.000000, 9125.000000) translate(497.000000, 231.000000)"/>
                    <path fill="#FFFFFE" d="M234.603 229.994L286.747 229.994 286.747 227.141 234.603 227.141z" transform="translate(-716.000000, -9356.000000) translate(219.000000, 9125.000000) translate(497.000000, 231.000000)"/>
                    <path fill="#3D5494" d="M293.319 229.994L329.961 229.994 329.961 227.141 293.319 227.141z" transform="translate(-716.000000, -9356.000000) translate(219.000000, 9125.000000) translate(497.000000, 231.000000)"/>
                    <path fill="#E26260" d="M283.257 252.971L319.899 252.971 319.899 250.118 283.257 250.118z" transform="translate(-716.000000, -9356.000000) translate(219.000000, 9125.000000) translate(497.000000, 231.000000)"/>
                    <path fill="#FFFFFE" d="M234.92 256.429L279.135 256.429 279.135 253.576 234.92 253.576z" transform="translate(-716.000000, -9356.000000) translate(219.000000, 9125.000000) translate(497.000000, 231.000000)"/>
                    <path fill="#E26260" d="M248.207 238.267L286.747 238.267 286.747 235.414 248.207 235.414z" transform="translate(-716.000000, -9356.000000) translate(219.000000, 9125.000000) translate(497.000000, 231.000000)"/>
                    <path fill="#FFFFFE" d="M234.92 246.54L258.989 246.54 258.989 243.687 234.92 243.687z" transform="translate(-716.000000, -9356.000000) translate(219.000000, 9125.000000) translate(497.000000, 231.000000)"/>
                    <path fill="#3D5494" d="M266.267 246.54L286.747 246.54 286.747 243.687 266.267 243.687z" transform="translate(-716.000000, -9356.000000) translate(219.000000, 9125.000000) translate(497.000000, 231.000000)"/>
                    <path fill="#917EAD" d="M234.603 274.171L264.818 274.171 264.818 271.318 234.603 271.318z" transform="translate(-716.000000, -9356.000000) translate(219.000000, 9125.000000) translate(497.000000, 231.000000)"/>
                    <path fill="#FFFFFE" d="M296.919 245.801L325.408 245.801 325.408 242.949 296.919 242.949z" transform="translate(-716.000000, -9356.000000) translate(219.000000, 9125.000000) translate(497.000000, 231.000000)"/>
                    <path fill="#E26260" d="M271.193 274.171L309.03 274.171 309.03 271.318 271.193 271.318zM234.603 265.898L296.919 265.898 296.919 263.045 234.603 263.045z" transform="translate(-716.000000, -9356.000000) translate(219.000000, 9125.000000) translate(497.000000, 231.000000)"/>
                    <path fill="#FFFFFE" d="M292.8 238.267L297.529 238.267 297.529 235.414 292.8 235.414zM303.33 238.267L308.059 238.267 308.059 235.414 303.33 235.414zM296.293 280.335L301.022 280.335 301.022 277.481 296.293 277.481zM234.603 280.335L288.064 280.335 288.064 277.481 234.603 277.481z" transform="translate(-716.000000, -9356.000000) translate(219.000000, 9125.000000) translate(497.000000, 231.000000)"/>
                    <path fill="#3D5494" d="M302.234 262.422L326.558 262.422 326.558 259.57 302.234 259.57zM306.822 280.335L326.033 280.335 326.033 277.481 306.822 277.481z" transform="translate(-716.000000, -9356.000000) translate(219.000000, 9125.000000) translate(497.000000, 231.000000)"/>
                    <path fill="#FFFFFE" d="M234.603 160.876L288.535 160.876 288.535 158.024 234.603 158.024z" transform="translate(-716.000000, -9356.000000) translate(219.000000, 9125.000000) translate(497.000000, 231.000000)"/>
                    <path fill="#3D5494" d="M259.651 169.149L288.535 169.149 288.535 166.297 259.651 166.297z" transform="translate(-716.000000, -9356.000000) translate(219.000000, 9125.000000) translate(497.000000, 231.000000)"/>
                    <path fill="#FFFFFE" d="M234.603 169.064L242.857 169.064 242.857 166.21 234.603 166.21zM246.791 169.064L255.045 169.064 255.045 166.21 246.791 166.21zM295.372 169.149L333.503 169.149 333.503 166.297 295.372 166.297z" transform="translate(-716.000000, -9356.000000) translate(219.000000, 9125.000000) translate(497.000000, 231.000000)"/>
                    <path fill="#E26260" d="M295.372 160.876L333.503 160.876 333.503 158.024 295.372 158.024z" transform="translate(-716.000000, -9356.000000) translate(219.000000, 9125.000000) translate(497.000000, 231.000000)"/>
                    <path fill="#3D5494" d="M284.904 192.126L323.032 192.126 323.032 189.273 284.904 189.273z" transform="translate(-716.000000, -9356.000000) translate(219.000000, 9125.000000) translate(497.000000, 231.000000)"/>
                    <path fill="#FFFFFE" d="M234.603 195.586L280.615 195.586 280.615 192.732 234.603 192.732z" transform="translate(-716.000000, -9356.000000) translate(219.000000, 9125.000000) translate(497.000000, 231.000000)"/>
                    <path fill="#E26260" d="M234.603 177.422L288.535 177.422 288.535 174.57 234.603 174.57zM234.603 185.696L259.651 185.696 259.651 182.843 234.603 182.843z" transform="translate(-716.000000, -9356.000000) translate(219.000000, 9125.000000) translate(497.000000, 231.000000)"/>
                    <path fill="#FFFFFE" d="M267.223 185.696L288.535 185.696 288.535 182.843 267.223 182.843z" transform="translate(-716.000000, -9356.000000) translate(219.000000, 9125.000000) translate(497.000000, 231.000000)"/>
                    <path fill="#3D5494" d="M236.068 213.326L265.715 213.326 265.715 210.475 236.068 210.475z" transform="translate(-716.000000, -9356.000000) translate(219.000000, 9125.000000) translate(497.000000, 231.000000)"/>
                    <path fill="#FFFFFE" d="M299.118 184.957L328.766 184.957 328.766 182.105 299.118 182.105zM272.35 213.326L311.723 213.326 311.723 210.475 272.35 210.475zM236.463 205.054L299.118 205.054 299.118 202.2 236.463 202.2zM294.834 177.422L299.755 177.422 299.755 174.57 294.834 174.57zM305.79 177.422L310.713 177.422 310.713 174.57 305.79 174.57z" transform="translate(-716.000000, -9356.000000) translate(219.000000, 9125.000000) translate(497.000000, 231.000000)"/>
                    <path fill="#3D5494" d="M298.469 219.489L303.39 219.489 303.39 216.635 298.469 216.635z" transform="translate(-716.000000, -9356.000000) translate(219.000000, 9125.000000) translate(497.000000, 231.000000)"/>
                    <path fill="#FFFFFE" d="M236.068 219.489L289.905 219.489 289.905 216.635 236.068 216.635z" transform="translate(-716.000000, -9356.000000) translate(219.000000, 9125.000000) translate(497.000000, 231.000000)"/>
                    <path fill="#E26260" d="M304.65 201.577L329.961 201.577 329.961 198.724 304.65 198.724zM309.425 219.489L329.416 219.489 329.416 216.635 309.425 216.635z" transform="translate(-716.000000, -9356.000000) translate(219.000000, 9125.000000) translate(497.000000, 231.000000)"/>
                    <path fill="#FFF" d="M181.248 291.045h-48.79c-6.08 0-11.007-4.927-11.007-11.006V161.7c0-6.079 4.927-11.007 11.007-11.007h48.79c6.079 0 11.007 4.928 11.007 11.007v118.34c0 6.078-4.928 11.005-11.007 11.005m-39.991-36.457c-2.922 0-5.291 2.37-5.291 5.292 0 2.923 2.37 5.291 5.29 5.291h32.093c2.923 0 5.29-2.368 5.29-5.29 0-2.924-2.367-5.293-5.29-5.293h-32.092" transform="translate(-716.000000, -9356.000000) translate(219.000000, 9125.000000) translate(497.000000, 231.000000)"/>
                    <path fill="#443AA5" d="M192.255 280.04c0 6.078-4.928 11.005-11.007 11.005h-48.79c-6.08 0-11.007-4.927-11.007-11.006V161.7c0-6.079 4.927-11.007 11.007-11.007h48.79c6.079 0 11.007 4.928 11.007 11.007v118.34m-11.68-132.693H133.13c-8.04 0-14.556 6.516-14.556 14.555v117.934c0 8.039 6.516 14.557 14.556 14.557h47.443c8.039 0 14.557-6.518 14.557-14.557V161.902c0-8.039-6.518-14.555-14.557-14.555" transform="translate(-716.000000, -9356.000000) translate(219.000000, 9125.000000) translate(497.000000, 231.000000)"/>
                    <path fill="#443AA5" d="M164.895 155.64H148.81c-3.33 0-6.031-2.702-6.031-6.033h28.148c0 3.331-2.7 6.032-6.032 6.032" transform="translate(-716.000000, -9356.000000) translate(219.000000, 9125.000000) translate(497.000000, 231.000000)"/>
                    <path fill="#FFFFFE" d="M148.707 152.34L160.359 152.34 160.359 151.394 148.707 151.394zM164.998 151.866c0 .37-.3.67-.67.67-.37 0-.67-.3-.67-.67 0-.37.3-.67.67-.67.37 0 .67.3.67.67" transform="translate(-716.000000, -9356.000000) translate(219.000000, 9125.000000) translate(497.000000, 231.000000)"/>
                    <path fill="#02D8FB" d="M177.915 189.738H135.79c-3.222 0-5.836 2.612-5.836 5.836v42.125c0 3.223 2.614 5.836 5.836 5.836h42.126c3.222 0 5.836-2.613 5.836-5.836v-42.125c0-3.224-2.614-5.836-5.836-5.836" transform="translate(-716.000000, -9356.000000) translate(219.000000, 9125.000000) translate(497.000000, 231.000000)"/>
                    <path fill="#217DC4" d="M178.257 209.754L157.44 200.783 136.623 209.754 142.197 209.754 142.197 232.49 153.548 232.49 153.548 220.03 161.333 220.03 161.333 232.49 172.684 232.49 172.684 209.754 178.257 209.754" transform="translate(-716.000000, -9356.000000) translate(219.000000, 9125.000000) translate(497.000000, 231.000000)"/>
                    <path fill="#E26260" d="M173.07 265.16h-31.713c-2.923 0-5.292-2.37-5.292-5.291 0-2.923 2.37-5.293 5.292-5.293h31.714c2.923 0 5.292 2.37 5.292 5.293 0 2.921-2.37 5.29-5.292 5.29" transform="translate(-716.000000, -9356.000000) translate(219.000000, 9125.000000) translate(497.000000, 231.000000)"/>
                    <text fill="#FFFFFE" font-family="LucidaGrande, Lucida Grande" font-size="5.52" letter-spacing=".276" transform="translate(-716.000000, -9356.000000) translate(219.000000, 9125.000000) translate(497.000000, 231.000000)">
                        <tspan x="151.725" y="262.133">A</tspan> <tspan x="155.81" y="262.133" letter-spacing=".22">P</tspan> <tspan x="159.081" y="262.133">P </tspan>
                    </text>
                    <path fill="#02D8FB" d="M395.204 182.105h-48.896c-5.22 0-9.451 4.23-9.451 9.453v48.895c0 5.22 4.23 9.453 9.451 9.453h48.896c5.22 0 9.452-4.233 9.452-9.453v-48.895c0-5.222-4.232-9.453-9.452-9.453" transform="translate(-716.000000, -9356.000000) translate(219.000000, 9125.000000) translate(497.000000, 231.000000)"/>
                    <text fill="#FFFFFE" font-family="LucidaGrande-Bold, Lucida Grande" font-size="23.943" font-weight="bold" letter-spacing="-.008" transform="translate(-716.000000, -9356.000000) translate(219.000000, 9125.000000) translate(497.000000, 231.000000)">
                        <tspan x="344.382" y="222.605">C</tspan> <tspan x="361.431" y="222.605" letter-spacing=".279">+</tspan> <tspan x="380.754" y="222.605">+</tspan>
                    </text>
                    <path fill="#E26260" d="M94.46 195.585H41.227c-5.682 0-10.289 4.605-10.289 10.289v53.23c0 5.683 4.607 10.291 10.29 10.291H94.46c5.682 0 10.289-4.608 10.289-10.29v-53.231c0-5.684-4.607-10.29-10.29-10.29" transform="translate(-716.000000, -9356.000000) translate(219.000000, 9125.000000) translate(497.000000, 231.000000)"/>
                    <text fill="#FFFFFE" font-family="LucidaGrande, Lucida Grande" font-size="21.129" letter-spacing="-.014" transform="translate(-716.000000, -9356.000000) translate(219.000000, 9125.000000) translate(497.000000, 231.000000)">
                        <tspan x="47.132" y="239.146">P</tspan> <tspan x="58.797" y="239.146" letter-spacing=".195">H</tspan> <tspan x="74.519" y="239.146">P</tspan>
                    </text>
                    <path fill="#E26260" d="M363.158 80.08h-44.105c-4.708 0-8.527 3.817-8.527 8.526v44.104c0 4.71 3.819 8.527 8.527 8.527h44.105c4.709 0 8.526-3.817 8.526-8.527V88.606c0-4.709-3.817-8.526-8.526-8.526" transform="translate(-716.000000, -9356.000000) translate(219.000000, 9125.000000) translate(497.000000, 231.000000)"/>
                    <text fill="#FFFFFE" font-family="LucidaGrande, Lucida Grande" font-size="15.828" transform="translate(-716.000000, -9356.000000) translate(219.000000, 9125.000000) translate(497.000000, 231.000000)">
                        <tspan x="319.777" y="115.664">HTML</tspan>
                    </text>
                    <path fill="#EB8D2D" d="M288.85 269.368h-45.167c-4.822 0-8.73 3.91-8.73 8.731v45.166c0 4.822 3.908 8.73 8.73 8.73h45.166c4.822 0 8.731-3.908 8.731-8.73v-45.166c0-4.822-3.91-8.731-8.73-8.731" transform="translate(-716.000000, -9356.000000) translate(219.000000, 9125.000000) translate(497.000000, 231.000000)"/>
                    <text fill="#FFFFFE" font-family="LucidaGrande, Lucida Grande" font-size="17.835" letter-spacing=".358" transform="translate(-716.000000, -9356.000000) translate(219.000000, 9125.000000) translate(497.000000, 231.000000)">
                        <tspan x="245.208" y="306.617">J</tspan> <tspan x="251.113" y="306.617" letter-spacing="-.052">AVA</tspan>
                    </text>
                </g>
            </g>
        </g>
    </g>
</svg>
