<svg xmlns="http://www.w3.org/2000/svg" width="374" height="331" viewBox="0 0 374 331">
    <g fill="none" fill-rule="evenodd">
        <g>
            <g>
                <g>
                    <path fill="#011269" d="M334.358 269.831c-7.023 6.757-13.668 11.115-18.918 14.557-61.713 40.465-134.733 28.67-150.252 25.789-22.918-4.253-67.216-12.476-99.242-46.894-48.454-52.072-40.909-134.11-3.325-188.264 6.875-9.906 43.189-64.885 116.997-73.702 44.667-5.335 96.736 5.427 134.443 34.296 79.15 60.598 73.514 183.02 20.297 234.218" transform="translate(-341.000000, -9821.000000) translate(219.000000, 9125.000000) translate(122.000000, 696.000000)"/>
                    <g>
                        <path fill="#DDDED8" d="M223.069 255.447L251.763 255.447 251.763 150.416 223.069 150.416z" transform="translate(-341.000000, -9821.000000) translate(219.000000, 9125.000000) translate(122.000000, 696.000000) translate(0.000000, 36.000000)"/>
                        <path fill="#4443A8" d="M48.366 245.968h180.611v-95.552H48.366c-2.458 0-4.45 1.992-4.45 4.45v86.652c0 2.458 1.992 4.45 4.45 4.45z" transform="translate(-341.000000, -9821.000000) translate(219.000000, 9125.000000) translate(122.000000, 696.000000) translate(0.000000, 36.000000)"/>
                        <path fill="#EAEAE5" d="M222.207 255.447L228.977 255.447 228.977 236.195 215.11 236.195 222.207 255.447" transform="translate(-341.000000, -9821.000000) translate(219.000000, 9125.000000) translate(122.000000, 696.000000) translate(0.000000, 36.000000)"/>
                        <path fill="#E9E9E4" d="M184.36 15.29l.406-4.048h.783v3.319c-.405.23-.801.473-1.19.728" transform="translate(-341.000000, -9821.000000) translate(219.000000, 9125.000000) translate(122.000000, 696.000000) translate(0.000000, 36.000000)"/>
                        <path fill="#4443A8" d="M56.965 85.31h88.472c2.457 0 4.45-1.993 4.45-4.45V27.423c0-2.457-1.993-4.45-4.45-4.45H56.965c-2.458 0-4.45 1.993-4.45 4.45V80.86c0 2.458 1.992 4.45 4.45 4.45z" transform="translate(-341.000000, -9821.000000) translate(219.000000, 9125.000000) translate(122.000000, 696.000000) translate(0.000000, 36.000000)"/>
                        <path fill="#02D8FB" d="M65.122 74.387h72.158c2.457 0 4.45-1.992 4.45-4.45v-31.59c0-2.458-1.993-4.45-4.45-4.45H65.122c-2.458 0-4.45 1.992-4.45 4.45v31.59c0 2.458 1.992 4.45 4.45 4.45z" transform="translate(-341.000000, -9821.000000) translate(219.000000, 9125.000000) translate(122.000000, 696.000000) translate(0.000000, 36.000000)"/>
                        <g fill="#180D62">
                            <path d="M338.433 10.186c0 5.456-75.738 9.877-169.168 9.877C75.836 20.063.097 15.642.097 10.186.097 4.731 75.836.308 169.265.308c93.43 0 169.168 4.423 169.168 9.878" transform="translate(-341.000000, -9821.000000) translate(219.000000, 9125.000000) translate(122.000000, 696.000000) translate(0.000000, 36.000000) translate(0.000000, 274.780128)"/>
                        </g>
                        <path fill="#22297D" d="M203.65 32.075h108.147c6.13 0 10.908 5.014 10.616 11.143l-10.96 230.605c-.29 6.13-5.544 11.143-11.673 11.143H191.632c-6.129 0-10.906-5.014-10.615-11.143l10.958-230.605c.292-6.129 5.545-11.143 11.675-11.143" transform="translate(-341.000000, -9821.000000) translate(219.000000, 9125.000000) translate(122.000000, 696.000000) translate(0.000000, 36.000000)"/>
                        <path fill="#4443A8" d="M336.426 128.298c-.597 12.52-11.227 22.664-23.737 22.664-12.522 0-22.186-10.144-21.59-22.664.596-12.507 11.227-22.664 23.75-22.664 12.51 0 22.172 10.157 21.577 22.664m12.314 2.652l.252-5.297-3.242-.943c-.115-1.806-.386-3.564-.794-5.266l2.775-2.126-1.794-4.895-3.41.387c-.796-1.575-1.728-3.065-2.776-4.463l1.8-2.99-3.568-3.746-3.067 1.657c-1.345-1.118-2.79-2.121-4.322-2.994l.546-3.384-4.799-2.027-2.247 2.666c-1.683-.491-3.428-.847-5.228-1.048l-.782-3.276h-5.299l-1.096 3.277c-1.818.202-3.597.557-5.325 1.048l-1.995-2.667-4.992 2.027.225 3.386c-1.616.873-3.156 1.875-4.607 2.992l-2.91-1.657-3.924 3.747 1.514 2.99c-1.181 1.397-2.255 2.887-3.203 4.462l-3.371-.387-2.26 4.895 2.571 2.126c-.57 1.702-1.008 3.46-1.295 5.266l-3.332.943-.252 5.297 3.242.942c.116 1.806.386 3.564.794 5.266l-2.775 2.128 1.794 4.892 3.41-.385c.796 1.574 1.727 3.063 2.777 4.46l-1.8 2.993 3.568 3.746 3.07-1.659c1.344 1.116 2.787 2.118 4.32 2.99l-.548 3.39 4.799 2.027 2.252-2.672c1.68.49 3.422.844 5.22 1.046l.786 3.283h5.298l1.098-3.282c1.817-.202 3.594-.556 5.32-1.046l1.998 2.67 4.991-2.026-.224-3.388c1.616-.872 3.155-1.875 4.606-2.99l2.911 1.657 3.925-3.746-1.516-2.991c1.182-1.399 2.255-2.888 3.203-4.462l3.372.385 2.26-4.892-2.572-2.128c.57-1.702 1.008-3.46 1.296-5.265l3.332-.943" transform="translate(-341.000000, -9821.000000) translate(219.000000, 9125.000000) translate(122.000000, 696.000000) translate(0.000000, 36.000000)"/>
                        <path fill="#B7C7EF" d="M311.665 34.861H203.518c-4.617 0-8.536 3.742-8.756 8.357L184.344 262.46c-.076 1.595 1.156 2.888 2.751 2.888h119.087c1.595 0 2.95-1.293 3.026-2.888l10.418-219.242c.22-4.615-3.345-8.357-7.961-8.357" transform="translate(-341.000000, -9821.000000) translate(219.000000, 9125.000000) translate(122.000000, 696.000000) translate(0.000000, 36.000000)"/>
                        <path fill="#3769A4" d="M185.333 241.638L183.95 241.638 184.531 229.403 185.914 229.403 185.333 241.638" transform="translate(-341.000000, -9821.000000) translate(219.000000, 9125.000000) translate(122.000000, 696.000000) translate(0.000000, 36.000000)"/>
                        <path fill="#B4CDE1" d="M193.435 241.638L192.629 241.638 193.21 229.403 194.016 229.403 193.435 241.638" transform="translate(-341.000000, -9821.000000) translate(219.000000, 9125.000000) translate(122.000000, 696.000000) translate(0.000000, 36.000000)"/>
                        <path fill="#3769A4" d="M312.232 236.398L310.447 236.398 310.949 225.825 312.735 225.825 312.232 236.398" transform="translate(-341.000000, -9821.000000) translate(219.000000, 9125.000000) translate(122.000000, 696.000000) translate(0.000000, 36.000000)"/>
                        <path fill="#B4CDE1" d="M303.169 236.398L302.363 236.398 302.866 225.825 303.672 225.825 303.169 236.398" transform="translate(-341.000000, -9821.000000) translate(219.000000, 9125.000000) translate(122.000000, 696.000000) translate(0.000000, 36.000000)"/>
                        <path fill="#7C8EBA" d="M290.531 229.327h-23.35c-2.002 0-3.561-1.637-3.466-3.637l.329-6.936h20.772c2.002 0 3.717-1.638 3.812-3.639l.78-16.41h2.578c2.001 0 3.561 1.638 3.466 3.639l-1.109 23.346c-.095 2-1.81 3.637-3.812 3.637" transform="translate(-341.000000, -9821.000000) translate(219.000000, 9125.000000) translate(122.000000, 696.000000) translate(0.000000, 36.000000)"/>
                        <path fill="#011269" d="M245.944 279.97c-3.05 0-5.404-2.47-5.259-5.519.145-3.048 2.735-5.519 5.783-5.519 3.05 0 5.404 2.471 5.259 5.52-.145 3.047-2.735 5.518-5.783 5.518" transform="translate(-341.000000, -9821.000000) translate(219.000000, 9125.000000) translate(122.000000, 696.000000) translate(0.000000, 36.000000)"/>
                        <path fill="#FFF" d="M302.731 163.397H200.254c-1.936 0-3.43-1.567-3.338-3.502l2.775-58.382c5.807 2.279 11.957 3.418 18.11 3.418 11.932 0 23.867-4.29 33.285-12.867h55.035c1.935 0 3.43 1.568 3.337 3.503l-3.056 64.328c-.093 1.935-1.735 3.502-3.67 3.502" transform="translate(-341.000000, -9821.000000) translate(219.000000, 9125.000000) translate(122.000000, 696.000000) translate(0.000000, 36.000000)"/>
                        <path fill="#7487B6" d="M308.243 76.672h-45.73c3.87-8.152 5.382-17.144 4.54-25.953h42.424c1.167 0 2.068.946 2.012 2.113l-1.032 21.727c-.056 1.166-1.047 2.113-2.214 2.113" transform="translate(-341.000000, -9821.000000) translate(219.000000, 9125.000000) translate(122.000000, 696.000000) translate(0.000000, 36.000000)"/>
                        <path fill="#4339A4" d="M211.877 113.678L206.317 113.678 204.442 153.136 210.002 153.136 211.877 113.678M222.377 128.196L216.816 128.196 215.631 153.136 221.191 153.136 222.377 128.196M233.168 136.571L227.608 136.571 226.821 153.136 232.381 153.136 233.168 136.571M243.964 144.854L238.404 144.854 238.01 153.136 243.571 153.136 243.964 144.854M256.184 123.17L250.624 123.17 249.2 153.136 254.76 153.136 256.184 123.17M268.135 107.164L262.575 107.164 260.39 153.136 265.95 153.136 268.135 107.164M279.554 102.325L273.994 102.325 271.58 153.136 277.139 153.136 279.554 102.325M289.806 122.054L284.246 122.054 282.769 153.136 288.329 153.136 289.806 122.054M300.519 132.104L294.958 132.104 293.958 153.136 299.519 153.136 300.519 132.104" transform="translate(-341.000000, -9821.000000) translate(219.000000, 9125.000000) translate(122.000000, 696.000000) translate(0.000000, 36.000000)"/>
                        <path fill="#02D8FB" d="M221.724 238.126h-45.592c-3.793 0-6.775-3.011-6.776-6.762 0-.113.003-.227.008-.341l2.166-45.583c.186-3.907 3.535-7.104 7.443-7.104h45.593c3.793 0 6.774 3.013 6.776 6.762 0 .113-.003.228-.008.342l-.01.19-2.157 45.393c-.185 3.907-3.535 7.103-7.443 7.103" transform="translate(-341.000000, -9821.000000) translate(219.000000, 9125.000000) translate(122.000000, 696.000000) translate(0.000000, 36.000000)"/>
                        <path fill="#FFFFFE" d="M199.95 216.583c-4.61 0-8.18-3.74-7.96-8.349.22-4.616 4.145-8.355 8.756-8.355 4.617 0 8.178 3.74 7.958 8.355-.22 4.61-4.137 8.349-8.754 8.349zm21.549-4.87l.332-6.963-3.243-2.144c-.314-1.185-.745-2.32-1.28-3.392l.882-3.308-4.691-4.924-3.343.724c-1.044-.586-2.156-1.07-3.325-1.441l-1.985-3.345h-6.965l-2.303 3.344c-1.203.371-2.361.856-3.461 1.442l-3.275-.724-5.159 4.924.565 3.306c-.638 1.073-1.178 2.209-1.606 3.397l-3.444 2.141-.331 6.963 3.239 2.141c.315 1.188.746 2.325 1.283 3.399l-.88 3.305 4.69 4.923 3.345-.724c1.044.585 2.155 1.07 3.321 1.44l1.986 3.346h6.965l2.306-3.346c1.202-.37 2.358-.855 3.457-1.44l3.276.724 5.16-4.923-.566-3.308c.638-1.072 1.177-2.208 1.604-3.393l3.446-2.144z" transform="translate(-341.000000, -9821.000000) translate(219.000000, 9125.000000) translate(122.000000, 696.000000) translate(0.000000, 36.000000)"/>
                        <path fill="#217DC4" d="M284.816 218.754h-23.35c-1.943 0-3.47-1.542-3.47-3.463 0-.059.001-.116.004-.176l1.109-23.345c.095-2 1.81-3.638 3.812-3.638h23.35c1.943 0 3.47 1.542 3.47 3.463 0 .058-.001.117-.004.175l-1.109 23.345c-.095 2.001-1.81 3.639-3.812 3.639" transform="translate(-341.000000, -9821.000000) translate(219.000000, 9125.000000) translate(122.000000, 696.000000) translate(0.000000, 36.000000)"/>
                        <path fill="#FFFFFE" d="M271.019 212.357L262.727 203.653 264.656 201.816 271.108 208.589 283.427 196.832 285.267 198.758 271.019 212.357" transform="translate(-341.000000, -9821.000000) translate(219.000000, 9125.000000) translate(122.000000, 696.000000) translate(0.000000, 36.000000)"/>
                        <path fill="#EFA573" d="M99.324 64.783c-.046 4.984-.912 13.959-4.923 16.468 0 0 2.159 6.56 10.013 10.158 8.273-2.526 4.886-7.097 4.886-7.097-5.083-2.374-4.13-6.311-2.434-9.844l-7.542-9.685M94.278 91.015c1.141 4.124 2.386 8.346 3.676 12.455.655 2.058 1.35 4.095 2.089 6.083.721 1.994 1.506 3.946 2.37 5.733.427.883.882 1.732 1.33 2.411.11.16.223.346.323.46l.15.2c.048.066.17.204.252.302l1.086 1.29c1.415 1.733 2.825 3.45 4.187 5.211 2.746 3.5 5.398 7.071 7.92 10.76l-3.128 2.768c-3.352-2.938-6.587-5.984-9.754-9.078l-4.718-4.645-1.16-1.157c-.104-.106-.176-.168-.307-.313l-.388-.432c-.272-.296-.472-.57-.693-.852-.845-1.12-1.493-2.197-2.1-3.27-2.32-4.283-3.917-8.524-5.415-12.82-1.5-4.297-2.77-8.57-3.887-13.009l8.167-2.097" transform="translate(-341.000000, -9821.000000) translate(219.000000, 9125.000000) translate(122.000000, 696.000000) translate(0.000000, 36.000000)"/>
                        <path fill="#132529" d="M83.341 84.611c-3.469 5.097.962 17.67.962 17.67l15.644-.004s.144-10.4-2.032-14.408c-2.816-5.187-12.322-6.566-14.574-3.258" transform="translate(-341.000000, -9821.000000) translate(219.000000, 9125.000000) translate(122.000000, 696.000000) translate(0.000000, 36.000000)"/>
                        <path fill="#EFA573" d="M122.39 137.034l-6.04-1.772-3.166 1.255c.032 3.427 4.724 5.884 4.724 5.884l3.66 3.364c.775.715 1.927.837 2.835.303l2.272-1.334c1.214-.713 1.555-2.315.734-3.46l-.987-1.38c-.987-1.376-2.406-2.383-4.031-2.86" transform="translate(-341.000000, -9821.000000) translate(219.000000, 9125.000000) translate(122.000000, 696.000000) translate(0.000000, 36.000000)"/>
                        <path fill="#132529" d="M179.418 101.893l-8.049-8.047c-1.75-1.752-1.75-4.617 0-6.368 1.752-1.751 4.618-1.751 6.369 0l8.049 8.047c1.75 1.752 1.75 4.616 0 6.368-1.751 1.75-4.618 1.75-6.369 0" transform="translate(-341.000000, -9821.000000) translate(219.000000, 9125.000000) translate(122.000000, 696.000000) translate(0.000000, 36.000000)"/>
                        <path fill="#02D8FB" d="M168.925 105.011l-.675-.675c-1.425-1.423-1.425-3.754 0-5.179l5.194-5.193c1.425-1.423 3.756-1.423 5.18 0l.675.676c1.425 1.423 1.425 3.754 0 5.178l-5.194 5.193c-1.424 1.425-3.755 1.425-5.18 0" transform="translate(-341.000000, -9821.000000) translate(219.000000, 9125.000000) translate(122.000000, 696.000000) translate(0.000000, 36.000000)"/>
                        <path fill="#02D8FB" d="M98.719 182.04l-7.512-7.512c-.893-.892-.88-2.343.029-3.22l76.478-73.775c.885-.855 2.293-.842 3.163.028l4.825 4.825c.871.87.883 2.276.03 3.163l-73.793 76.461c-.876.908-2.327.921-3.22.03" transform="translate(-341.000000, -9821.000000) translate(219.000000, 9125.000000) translate(122.000000, 696.000000) translate(0.000000, 36.000000)"/>
                        <path fill="#3769A4" d="M177.255 83.82c-1.844-2.627-3.39-5.384-4.657-8.233l2.068-43.584c.01-.298.037-.587.065-.876.922-10.235 9.483-18.57 19.692-19.26.456-.036.922-.055 1.388-.055h45.288c2.655 1.425 5.216 3.102 7.638 5.048 1.397 1.118 2.748 2.328 4.052 3.632 7.136 7.134 11.634 15.898 13.488 25.099 3.195 15.71-1.304 32.669-13.497 44.85-.755.755-1.518 1.472-2.31 2.16-19.422 17.127-49.08 16.41-67.654-2.16-2.077-2.077-3.93-4.293-5.56-6.62" transform="translate(-341.000000, -9821.000000) translate(219.000000, 9125.000000) translate(122.000000, 696.000000) translate(0.000000, 36.000000)"/>
                        <path fill="#FFFFFE" d="M182.816 90.441c-2.077-2.077-3.93-4.293-5.56-6.62l2.459-51.818c.39-8.363 7.498-15.143 15.853-15.143h53.169c1.397 1.118 2.748 2.328 4.052 3.632 7.136 7.134 11.634 15.898 13.488 25.099 3.195 15.71-1.304 32.669-13.497 44.85-.755.755-1.518 1.472-2.31 2.16-19.422 17.127-49.08 16.41-67.654-2.16" transform="translate(-341.000000, -9821.000000) translate(219.000000, 9125.000000) translate(122.000000, 696.000000) translate(0.000000, 36.000000)"/>
                        <path fill="#FFFFFE" d="M189.466 96.026c-2.336-1.635-4.56-3.495-6.647-5.58-3.938-3.938-7.073-8.373-9.405-13.104v-.012c1.098 2.232 2.376 4.402 3.841 6.49 1.63 2.328 3.484 4.544 5.56 6.621 2.089 2.087 4.314 3.947 6.651 5.583v.002m-16.27-19.132c-6.49-13.504-6.488-29.344 0-42.847v28.946l-.598 12.594c.193.434.392.865.598 1.294v.013m.218-18.498V33.6c.414-.842.853-1.671 1.319-2.493 0 .007 0 .015-.002.02-.028.29-.056.58-.065.877l-1.252 26.393" transform="translate(-341.000000, -9821.000000) translate(219.000000, 9125.000000) translate(122.000000, 696.000000) translate(0.000000, 36.000000)"/>
                        <path fill="#F1F0EC" d="M173.418 77.342c-.075-.149-.15-.298-.222-.448v-.013l.222.45v.011m-.222-14.35V34.048c.073-.149.147-.299.222-.448v24.797l-.222 4.597" transform="translate(-341.000000, -9821.000000) translate(219.000000, 9125.000000) translate(122.000000, 696.000000) translate(0.000000, 36.000000)"/>
                        <path fill="#86ABCF" d="M192.169 97.79c-.916-.556-1.817-1.143-2.703-1.764v-.002c.886.62 1.787 1.208 2.703 1.764v.001m70.629-62.928h-.003c-.43-.94-.891-1.87-1.384-2.786h.003c.492.917.954 1.847 1.384 2.786" transform="translate(-341.000000, -9821.000000) translate(219.000000, 9125.000000) translate(122.000000, 696.000000) translate(0.000000, 36.000000)"/>
                        <path fill="#FFFFFE" d="M199.69 101.513c-2.585-1.015-5.102-2.257-7.521-3.724v-.001c2.42 1.467 4.936 2.707 7.522 3.723v.002m51.395-9.45h-.01c.578-.522 1.144-1.062 1.704-1.622 4.124-4.12 7.369-8.789 9.733-13.77-2.363 4.982-5.607 9.652-9.73 13.774-.555.555-1.122 1.095-1.697 1.619m15.966-41.345h-.009c-.165-1.718-.421-3.432-.766-5.128-.74-3.673-1.9-7.274-3.482-10.73h.003c2.315 5.056 3.733 10.422 4.254 15.858" transform="translate(-341.000000, -9821.000000) translate(219.000000, 9125.000000) translate(122.000000, 696.000000) translate(0.000000, 36.000000)"/>
                        <path fill="#E2ECF2" d="M217.8 104.931c-6.152 0-12.302-1.14-18.11-3.418v-.002c5.807 2.278 11.957 3.418 18.106 3.418 11.677 0 23.355-4.11 32.673-12.328.205-.177.406-.356.607-.537h.01c-9.418 8.577-21.353 12.867-33.286 12.867" transform="translate(-341.000000, -9821.000000) translate(219.000000, 9125.000000) translate(122.000000, 696.000000) translate(0.000000, 36.000000)"/>
                        <path fill="#B1CBE0" d="M262.513 76.672c3.17-6.68 4.756-13.924 4.759-21.17 0-1.596-.076-3.192-.229-4.783h.01c.842 8.809-.67 17.8-4.54 25.953" transform="translate(-341.000000, -9821.000000) translate(219.000000, 9125.000000) translate(122.000000, 696.000000) translate(0.000000, 36.000000)"/>
                        <path fill="#86ABCF" d="M177.255 83.82c-1.465-2.088-2.743-4.258-3.841-6.49-.074-.15-.147-.3-.218-.45-.206-.428-.405-.86-.598-1.293l2.068-43.584c.01-.298.037-.587.065-.876l.002-.021c2.152-3.798 4.848-7.373 8.085-10.61 3.517-3.515 7.43-6.39 11.596-8.627l.009-.001c.456-.037.922-.056 1.388-.056h45.288c2.356 1.265 4.639 2.728 6.816 4.402.275.212.55.427.822.646 1.005.804 1.986 1.656 2.943 2.556.373.35.743.71 1.11 1.076 1.25 1.25 2.42 2.551 3.51 3.896.843 1.042 1.638 2.111 2.385 3.203.995 1.455 1.905 2.952 2.726 4.484.493.917.954 1.847 1.384 2.786 1.582 3.456 2.743 7.057 3.482 10.73.345 1.696.6 3.41.766 5.128.153 1.591.23 3.187.23 4.783 0-3.322-.332-6.643-.996-9.911-1.854-9.201-6.352-17.965-13.488-25.1-1.304-1.303-2.655-2.513-4.052-3.63h-53.169c-8.355 0-15.462 6.779-15.853 15.142l-2.46 51.817" transform="translate(-341.000000, -9821.000000) translate(219.000000, 9125.000000) translate(122.000000, 696.000000) translate(0.000000, 36.000000)"/>
                        <path fill="#FFFFFE" d="M217.796 104.93c-6.15 0-12.299-1.14-18.105-3.42-2.586-1.015-5.103-2.255-7.522-3.722-.916-.556-1.817-1.144-2.703-1.764-2.337-1.636-4.562-3.496-6.65-5.583-2.077-2.077-3.93-4.293-5.56-6.62l2.459-51.818c.39-8.363 7.498-15.143 15.853-15.143h53.169c1.397 1.118 2.748 2.328 4.052 3.632 7.136 7.134 11.634 15.898 13.488 25.099.664 3.268.995 6.59.995 9.911 0-3.322-.33-6.643-.995-9.911h-69.442c-2.114 0-3.903 1.712-4.006 3.827l-1.871 39.355c-.103 2.115 1.536 3.828 3.651 3.828h55.86c-9.318 8.217-20.996 12.328-32.673 12.328" transform="translate(-341.000000, -9821.000000) translate(219.000000, 9125.000000) translate(122.000000, 696.000000) translate(0.000000, 36.000000)"/>
                        <path fill="#7487B6" d="M250.47 92.6h-55.86c-2.116 0-3.755-1.712-3.652-3.827l1.871-39.355c.103-2.115 1.892-3.827 4.006-3.827h69.442c.664 3.268.996 6.59.995 9.911-.003 7.246-1.589 14.49-4.76 21.17-2.363 4.98-5.608 9.648-9.732 13.769-.755.755-1.518 1.472-2.31 2.16" transform="translate(-341.000000, -9821.000000) translate(219.000000, 9125.000000) translate(122.000000, 696.000000) translate(0.000000, 36.000000)"/>
                        <path fill="#E26260" d="M236.977 62.432c-7.174 7.172-15.336 6.59-20.73 1.196-5.393-5.392-5.975-13.553 1.197-20.726 7.174-7.17 17.361-8.614 22.755-3.22 5.394 5.392 3.952 15.578-3.222 22.75" transform="translate(-341.000000, -9821.000000) translate(219.000000, 9125.000000) translate(122.000000, 696.000000) translate(0.000000, 36.000000)"/>
                        <path fill="#E26260" d="M234.987 44.893c-2.844-2.845-3.417-6.885-1.277-9.023 2.139-2.14 6.18-1.568 9.025 1.278 2.844 2.844 3.416 6.884 1.277 9.023-2.14 2.138-6.18 1.566-9.025-1.278M232.717 48.267c-.344 0-.683-.16-.898-.46l-9.03-12.59c-.161-.224-.232-.5-.2-.774l.924-7.76c.072-.607.622-1.04 1.226-.966.605.071 1.038.62.966 1.226l-.872 7.336 8.78 12.24c.356.495.241 1.185-.254 1.541-.195.14-.42.207-.642.207" transform="translate(-341.000000, -9821.000000) translate(219.000000, 9125.000000) translate(122.000000, 696.000000) translate(0.000000, 36.000000)"/>
                        <path fill="#E26260" d="M245.308 57.296c-.23 0-.455-.072-.643-.207l-12.592-9.029c-.496-.356-.61-1.046-.254-1.54.355-.496 1.045-.61 1.54-.254l12.245 8.779 7.336-.872c.61-.08 1.155.36 1.227.965.073.605-.36 1.154-.966 1.226l-7.762.924-.131.008M225.508 55.473c-.222 0-.448-.067-.642-.207l-12.245-8.78-7.337.873c-.607.083-1.155-.36-1.226-.965-.073-.605.36-1.155.966-1.226l7.762-.923c.273-.039.55.038.774.198l12.592 9.03c.496.354.609 1.044.254 1.539-.216.3-.554.461-.898.461" transform="translate(-341.000000, -9821.000000) translate(219.000000, 9125.000000) translate(122.000000, 696.000000) translate(0.000000, 36.000000)"/>
                        <path fill="#E26260" d="M233.617 75.824l-.132-.01c-.604-.07-1.037-.62-.965-1.225l.873-7.336-8.781-12.241c-.356-.495-.242-1.185.254-1.54.495-.356 1.185-.243 1.54.254l9.031 12.588c.16.225.231.501.2.774l-.925 7.762c-.066.561-.543.974-1.095.974M245.957 68.71c-.282 0-.565-.107-.78-.323l-33.69-33.682c-.431-.43-.431-1.13 0-1.56.431-.431 1.13-.431 1.56 0l33.69 33.682c.432.43.432 1.13 0 1.56-.215.216-.497.324-.78.324M241.425 39.56c-.146 0-.294-.03-.437-.091-.558-.24-.816-.888-.578-1.446.095-.225 2.233-5.466-2.731-9.24-.486-.368-.58-1.06-.212-1.546.37-.485 1.061-.582 1.547-.21 5.091 3.869 4.467 9.453 3.425 11.867-.18.416-.587.666-1.014.666" transform="translate(-341.000000, -9821.000000) translate(219.000000, 9125.000000) translate(122.000000, 696.000000) translate(0.000000, 36.000000)"/>
                        <path fill="#E26260" d="M251.978 42.638c-.333 0-.662-.15-.88-.436-3.773-4.964-9.017-2.824-9.238-2.731-.56.237-1.209-.021-1.448-.582-.238-.56.018-1.206.576-1.446 2.412-1.041 8-1.666 11.869 3.423.368.485.274 1.177-.212 1.546-.2.153-.434.226-.667.226" transform="translate(-341.000000, -9821.000000) translate(219.000000, 9125.000000) translate(122.000000, 696.000000) translate(0.000000, 36.000000)"/>
                        <path fill="#02D8FB" d="M184.723 88.541c-18.27-18.268-18.264-47.88 0-66.14 18.271-18.269 47.89-18.276 66.162-.008 18.272 18.267 18.265 47.88-.006 66.148-18.265 18.26-47.885 18.267-66.156 0zm72.308-72.291c-21.664-21.66-56.79-21.666-78.46 0-21.663 21.657-21.656 56.777.007 78.435 21.663 21.659 56.79 21.666 78.453.007 21.67-21.665 21.663-56.785 0-78.442z" transform="translate(-341.000000, -9821.000000) translate(219.000000, 9125.000000) translate(122.000000, 696.000000) translate(0.000000, 36.000000)"/>
                        <path fill="#FA394B" d="M122.634 93.146c-.715 5.165-3.697 16.998-13.98 43.996l-32.811-6.74c2.92-11.733 4.592-19.531 4.41-41.146-.041-5.05 4.278-9.063 9.307-8.596 1.558.145 3.2.336 4.841.591 5.576.869 10.136 1.62 14.899 3.061 3.74 1.13 7.718 2.643 10.324 3.681 2.069.825 3.316 2.948 3.01 5.153" transform="translate(-341.000000, -9821.000000) translate(219.000000, 9125.000000) translate(122.000000, 696.000000) translate(0.000000, 36.000000)"/>
                        <path fill="#EFA573" d="M123.87 95.24c.267 1.936.598 4.082.995 6.11.41 2.046.826 4.087 1.346 6.081.516 1.993 1.116 3.95 1.816 5.809.679 1.871 1.496 3.636 2.43 5.18.47.756.971 1.453 1.493 2.05l.398.411c.142.156.2.183.299.293.215.176.476.36.791.539 1.278.741 3.163 1.249 5.09 1.61 3.904.681 8.241.874 12.42.889l.61 4.132c-4.478 1.126-8.929 1.75-13.727 1.583-2.402-.12-4.88-.416-7.575-1.522-.673-.287-1.356-.657-2.036-1.107-.322-.24-.722-.514-.967-.746l-.79-.716c-.991-.981-1.829-2.017-2.58-3.071-2.88-4.252-4.468-8.693-5.759-13.124-.628-2.22-1.188-4.44-1.603-6.682-.427-2.264-.798-4.43-1.036-6.833l8.386-.885" transform="translate(-341.000000, -9821.000000) translate(219.000000, 9125.000000) translate(122.000000, 696.000000) translate(0.000000, 36.000000)"/>
                        <path fill="#FA394B" d="M120.28 88.396c6.917 4.628 6.933 16.046 6.933 16.046l-14.161 8.807s-3.928-10.64-2.83-18.697c.64-4.706 5.804-9.002 10.058-6.156" transform="translate(-341.000000, -9821.000000) translate(219.000000, 9125.000000) translate(122.000000, 696.000000) translate(0.000000, 36.000000)"/>
                        <path fill="#EFA573" d="M149.074 124.226l8.923-.363-4.482 6.814s-4.642-.618-5.676-3.804l1.235-2.647M161.122 128.997l-.852 1.226c-.587.844-1.604 1.277-2.618 1.114l-4.137-.66 4.482-6.814 2.255 1.288c1.363.778 1.766 2.557.87 3.846" transform="translate(-341.000000, -9821.000000) translate(219.000000, 9125.000000) translate(122.000000, 696.000000) translate(0.000000, 36.000000)"/>
                        <path fill="#132529" d="M118.225 59.297c.035.664.415 1.184.85 1.162.434-.024.758-.58.723-1.244-.035-.665-.416-1.185-.85-1.161-.434.021-.757.579-.723 1.243" transform="translate(-341.000000, -9821.000000) translate(219.000000, 9125.000000) translate(122.000000, 696.000000) translate(0.000000, 36.000000)"/>
                        <path fill="#132529" d="M118.759 58.1l1.571-.544s-.753 1.29-1.571.544" transform="translate(-341.000000, -9821.000000) translate(219.000000, 9125.000000) translate(122.000000, 696.000000) translate(0.000000, 36.000000)"/>
                        <path fill="#E8824C" d="M118.869 60.745s1.277 2.8 2.59 4.114c-.834.865-2.344.57-2.344.57l-.246-4.684" transform="translate(-341.000000, -9821.000000) translate(219.000000, 9125.000000) translate(122.000000, 696.000000) translate(0.000000, 36.000000)"/>
                        <path fill="#3769A4" d="M118.738 51.924c-1.743 0-3.16 2.699-3.16 6.015 0 3.317 1.417 6.015 3.16 6.015 1.742 0 3.159-2.698 3.159-6.015 0-3.316-1.417-6.015-3.16-6.015zm0 12.496c-2.033 0-3.626-2.847-3.626-6.48 0-3.635 1.593-6.481 3.626-6.481s3.626 2.846 3.626 6.48c0 3.634-1.593 6.48-3.626 6.48z" transform="translate(-341.000000, -9821.000000) translate(219.000000, 9125.000000) translate(122.000000, 696.000000) translate(0.000000, 36.000000)"/>
                        <path fill="#132529" d="M115.696 57.685c.164.016.327-.073.397-.232.73-1.653 3.008-2.128 3.03-2.133.212-.043.35-.249.307-.46-.042-.212-.247-.349-.46-.306-.11.022-2.7.564-3.591 2.585-.088.196.001.427.2.514l.117.032" transform="translate(-341.000000, -9821.000000) translate(219.000000, 9125.000000) translate(122.000000, 696.000000) translate(0.000000, 36.000000)"/>
                        <path fill="#EFA573" d="M95.619 58.043c.928 8.131 1.147 11.592 5.488 15.564 6.528 5.972 16.314 3.054 17.834-5.19 1.368-7.42-.38-19.471-8.537-22.298-8.035-2.787-15.714 3.794-14.785 11.924" transform="translate(-341.000000, -9821.000000) translate(219.000000, 9125.000000) translate(122.000000, 696.000000) translate(0.000000, 36.000000)"/>
                        <path fill="#132529" d="M115.344 61.117c3.78-5.797 5.69-12.982 2.047-17.225-3.644-4.243-9.13 0-9.13 0s-14.696-5.329-19.457.828c-6.9 8.923 2.128 14.577-.09 17.06-2.219 2.485-5.259 5.964-2.506 11.137 3.006 5.647 25.883 1.294 29.136 7.785 9.585-.521 4.6-16.122 0-19.585" transform="translate(-341.000000, -9821.000000) translate(219.000000, 9125.000000) translate(122.000000, 696.000000) translate(0.000000, 36.000000)"/>
                        <path fill="#132529" d="M87.67 64.186l-.155-.058c-.096-.087-.104-.233-.018-.33.684-.765.098-1.954-.714-3.598-1.49-3.02-3.742-7.584.794-13.449.078-.104.224-.122.327-.042.1.079.12.225.04.326-4.357 5.636-2.268 9.868-.743 12.959.859 1.74 1.537 3.115.643 4.114l-.173.078M118.715 79.773c-.407 0-.863-.05-1.373-.16-.126-.029-.206-.153-.178-.278.027-.127.152-.205.276-.178 2.041.444 3.365-.096 3.941-1.6 1.567-4.096-2.89-14.04-6.454-16.062-.112-.064-.151-.206-.088-.318.062-.111.204-.15.317-.088 3.779 2.145 8.325 12.283 6.66 16.635-.379.99-1.223 2.049-3.101 2.049" transform="translate(-341.000000, -9821.000000) translate(219.000000, 9125.000000) translate(122.000000, 696.000000) translate(0.000000, 36.000000)"/>
                        <path fill="#3769A4" d="M113.398 60.577c-.105 0-.199-.07-.226-.175-.127-.497-.034-.958.273-1.365.944-1.254 4.001-1.97 9.086-2.131.119-.022.236.096.24.225.004.129-.097.236-.226.24-6.148.195-8.14 1.165-8.727 1.946-.222.294-.286.611-.194.97.031.125-.045.252-.17.283l-.056.007" transform="translate(-341.000000, -9821.000000) translate(219.000000, 9125.000000) translate(122.000000, 696.000000) translate(0.000000, 36.000000)"/>
                        <path fill="#EFA573" d="M114.352 62.358c.799 1.54 2.695 2.309 3.663 2.46 1.456.229 1.059-1.99.357-4.056-.632-1.86-2.152-4.22-3.47-3.486-1.3.723-1.462 3.32-.55 5.082" transform="translate(-341.000000, -9821.000000) translate(219.000000, 9125.000000) translate(122.000000, 696.000000) translate(0.000000, 36.000000)"/>
                        <path fill="#3769A4" d="M37.994 274.444c.15.015.271.05.355.107.076.052.11.121.107.224-.001.264-.096.46-.285.6-.543.397-1.901.34-3.69-.145 1.18-.428 2.735-.864 3.513-.786zm-1.633 1.55c.816.082 1.58.033 2.04-.304.293-.214.443-.52.447-.912.002-.233-.094-.423-.278-.55-.95-.65-4.39.69-4.778.845-.077.03-.127.108-.123.19.003.082.06.154.139.18.682.207 1.649.46 2.553.551z" transform="translate(-341.000000, -9821.000000) translate(219.000000, 9125.000000) translate(122.000000, 696.000000) translate(0.000000, 36.000000)"/>
                        <path fill="#3769A4" d="M36.135 272.32l.116.018c.351.071.36.215.363.263.034.567-1.42 1.827-2.477 2.33.161-.633.568-1.93 1.301-2.426.221-.148.45-.21.697-.185zm-2.29 3.13l.081-.01c1.023-.343 3.136-1.919 3.078-2.862-.013-.225-.143-.514-.675-.622-.393-.082-.768-.005-1.11.225-1.118.757-1.53 2.945-1.547 3.039l.064.183.108.046z" transform="translate(-341.000000, -9821.000000) translate(219.000000, 9125.000000) translate(122.000000, 696.000000) translate(0.000000, 36.000000)"/>
                        <path fill="#EFA573" d="M24.311 277.013L32.397 278.586 41.336 258.659 33.251 257.087 24.311 277.013" transform="translate(-341.000000, -9821.000000) translate(219.000000, 9125.000000) translate(122.000000, 696.000000) translate(0.000000, 36.000000)"/>
                        <path fill="#6D7DD3" d="M34.476 275.06l-8.735-3.093c-.317-.113-.609.032-.701.35l-2.598 6.82c-.212.732.3 1.677 1.035 1.922 3.053 1.022 6.233 1.518 10.192 2.484 2.435.594 6.253 1.423 9.715 1.423 3.385 0 2.959-3.423 1.456-3.733-6.743-1.39-7.35-2.628-9.138-5.201-.322-.464-.761-.807-1.226-.972" transform="translate(-341.000000, -9821.000000) translate(219.000000, 9125.000000) translate(122.000000, 696.000000) translate(0.000000, 36.000000)"/>
                        <path fill="#BEBFBB" d="M36.726 268.936l.224-.5-.224.5m-8.086-1.572l-.003-.001 1.924-4.292h.004l-1.925 4.293" transform="translate(-341.000000, -9821.000000) translate(219.000000, 9125.000000) translate(122.000000, 696.000000) translate(0.000000, 36.000000)"/>
                        <path fill="#ACAEAB" d="M30.565 263.071L30.561 263.071 30.572 263.049 30.575 263.05 30.565 263.071" transform="translate(-341.000000, -9821.000000) translate(219.000000, 9125.000000) translate(122.000000, 696.000000) translate(0.000000, 36.000000)"/>
                        <path fill="#D0885A" d="M36.726 268.936L28.64 267.364 30.565 263.071 30.575 263.05 38.4 265.204 36.726 268.936" transform="translate(-341.000000, -9821.000000) translate(219.000000, 9125.000000) translate(122.000000, 696.000000) translate(0.000000, 36.000000)"/>
                        <path fill="#EB8D2D" d="M75.486 130.09c-11.456 10.653-12.253 45.89-20.547 69.767-13.345 24.024-25.616 62.849-25.616 62.849l11.138 3.065s17.072-33.836 27.984-57.56c12.045-26.184 28.027-73.752 28.027-73.752l-20.986-4.37" transform="translate(-341.000000, -9821.000000) translate(219.000000, 9125.000000) translate(122.000000, 696.000000) translate(0.000000, 36.000000)"/>
                        <path fill="#275E9C" d="M84.752 167.58c-.988-6.501-1.5-13.086-1.22-19.335l6.958 3.465c-1.686 4.741-3.633 10.17-5.738 15.87" transform="translate(-341.000000, -9821.000000) translate(219.000000, 9125.000000) translate(122.000000, 696.000000) translate(0.000000, 36.000000)"/>
                        <path fill="#3769A4" d="M113.119 274.458c.152 0 .275.022.364.07.08.045.12.11.13.212.023.264-.05.468-.225.626-.5.45-1.857.528-3.685.225 1.132-.543 2.635-1.133 3.416-1.133zm-1.47 1.706c.82 0 1.576-.127 2-.507.269-.243.388-.563.353-.952-.021-.233-.136-.412-.332-.519-1.01-.554-4.298 1.124-4.669 1.318-.074.039-.115.12-.103.2.012.083.074.15.155.166.7.138 1.687.294 2.596.294z" transform="translate(-341.000000, -9821.000000) translate(219.000000, 9125.000000) translate(122.000000, 696.000000) translate(0.000000, 36.000000)"/>
                        <path fill="#3769A4" d="M111.056 272.53l.118.007c.356.036.38.178.387.225.092.56-1.228 1.96-2.23 2.567.096-.647.37-1.979 1.05-2.544.206-.17.427-.255.675-.255zm-1.965 3.343l.08-.017c.984-.444 2.929-2.223 2.776-3.157-.036-.22-.193-.497-.734-.552-.4-.04-.764.073-1.082.338-1.036.863-1.226 3.083-1.234 3.177l.082.175.112.036z" transform="translate(-341.000000, -9821.000000) translate(219.000000, 9125.000000) translate(122.000000, 696.000000) translate(0.000000, 36.000000)"/>
                        <path fill="#EFA573" d="M100.402 277.681L108.556 278.912 112.496 260.195 104.341 258.964 100.402 277.681" transform="translate(-341.000000, -9821.000000) translate(219.000000, 9125.000000) translate(122.000000, 696.000000) translate(0.000000, 36.000000)"/>
                        <path fill="#6D7DD3" d="M109.926 275.592h-9.266c-.336 0-.61.233-.658.563l-1.055 7.33c-.11.76.544 1.48 1.322 1.465 3.23-.054 4.787-.245 8.862-.245 2.506 0 8.239.261 11.7.261 3.386 0 3.646-3.423 2.205-3.733-6.464-1.39-9.554-3.306-11.731-5.134-.393-.33-.886-.507-1.379-.507" transform="translate(-341.000000, -9821.000000) translate(219.000000, 9125.000000) translate(122.000000, 696.000000) translate(0.000000, 36.000000)"/>
                        <path fill="#BEBFBB" d="M102.31 268.617h-.004l.392-1.863h.004l-.393 1.863m.438-2.081h-.004l1.592-7.568.005.001-1.593 7.567" transform="translate(-341.000000, -9821.000000) translate(219.000000, 9125.000000) translate(122.000000, 696.000000) translate(0.000000, 36.000000)"/>
                        <path fill="#ACAEAB" d="M102.702 266.754L102.698 266.754 102.743 266.536 102.747 266.536 102.702 266.754" transform="translate(-341.000000, -9821.000000) translate(219.000000, 9125.000000) translate(122.000000, 696.000000) translate(0.000000, 36.000000)"/>
                        <path fill="#D0885A" d="M110.465 269.849L102.309 268.617 102.702 266.754 102.747 266.536 104.34 258.969 112.493 260.2 110.465 269.849" transform="translate(-341.000000, -9821.000000) translate(219.000000, 9125.000000) translate(122.000000, 696.000000) translate(0.000000, 36.000000)"/>
                        <path fill="#EB8D2D" d="M108.654 137.142s21.348 41.296 18.985 66.337c-2.458 26.045-15.683 64.027-15.683 64.027l-9.936-1.798s7.572-48.054 12.26-65.851c-11.474-26.431-44.904-36.45-29.653-67.65 4.467.78 24.027 4.935 24.027 4.935" transform="translate(-341.000000, -9821.000000) translate(219.000000, 9125.000000) translate(122.000000, 696.000000) translate(0.000000, 36.000000)"/>
                        <path fill="#132529" d="M100.442 266.812L113.381 268.765 114.79 263.774 100.529 262.651 100.442 266.812M27.849 265.022L40.41 268.691 43.203 263.807 28.835 261.023 27.849 265.022" transform="translate(-341.000000, -9821.000000) translate(219.000000, 9125.000000) translate(122.000000, 696.000000) translate(0.000000, 36.000000)"/>
                        <path fill="#FFFFFE" d="M75.747 128.377l-1.442 2.765c-.162.203.06.49.44.57l33.769 6.934c.295.062.57-.033.627-.215l.9-2.876c.062-.2-.16-.424-.483-.49l-33.226-6.824c-.244-.05-.48.005-.585.136" transform="translate(-341.000000, -9821.000000) translate(219.000000, 9125.000000) translate(122.000000, 696.000000) translate(0.000000, 36.000000)"/>
                        <path fill="#3769A4" d="M79.446 133.008l-.89-.182c-.177-.037-.293-.156-.258-.265l1.202-3.73c.034-.11.208-.168.385-.132l.89.183c.177.036.294.156.258.265l-1.2 3.729c-.036.109-.21.168-.387.132M105.948 138.452l-.89-.184c-.177-.036-.293-.155-.259-.265l1.202-3.728c.035-.109.208-.17.386-.133l.89.183c.177.036.294.155.258.265l-1.2 3.728c-.037.11-.21.17-.387.134M92.697 135.73l-.89-.183c-.177-.036-.293-.155-.258-.264l1.201-3.73c.035-.109.209-.169.386-.132l.89.182c.177.037.294.156.258.265l-1.2 3.73c-.036.108-.21.169-.387.132" transform="translate(-341.000000, -9821.000000) translate(219.000000, 9125.000000) translate(122.000000, 696.000000) translate(0.000000, 36.000000)"/>
                    </g>
                </g>
            </g>
        </g>
    </g>
</svg>
