<?xml version="1.0" encoding="UTF-8"?>
<svg width="87px" height="81px" viewBox="0 0 87 81" version="1.1" xmlns="http://www.w3.org/2000/svg" xmlns:xlink="http://www.w3.org/1999/xlink">
    <!-- Generator: Sketch 60 (88103) - https://sketch.com -->
    <title>Icon/Service/Desktop/Custom App</title>
    <desc>Created with Sketch.</desc>
    <defs>
        <linearGradient x1="50%" y1="0%" x2="50%" y2="100%" id="linearGradient-1">
            <stop stop-color="#0DB0D4" offset="0%"></stop>
            <stop stop-color="#9D32FF" offset="100%"></stop>
        </linearGradient>
    </defs>
    <g id="Icon/Service/Desktop/Custom-App" stroke="none" stroke-width="1" fill="none" fill-rule="evenodd">
        <g id="Ui/Bg-shape/Oval1" fill="#F7F8FB">
            <path d="M40.3384103,81 C61.7089332,81 81.8326505,67.2229636 85.7228185,47.944222 C89.7359764,28.0559715 83.9418513,11.8180744 73.2382769,4.51404656 C64.9429318,-1.14662612 53.3375503,-0.16971646 43.3532926,0.571916907 C23.0000773,2.40163047 1.11107234,16.898773 0.0112135966,35.1754913 C-0.535162749,61.6662884 18.9678874,81 40.3384103,81 Z" id="Oval"></path>
        </g>
        <path d="M60,26.234375 L60,65.7265625 C60,68.6343359 57.6343362,71 54.7265627,71 L54.7265627,71 L5.27343752,71 C2.36566407,71 -1.84741111e-13,68.6343359 -1.84741111e-13,65.7265625 L-1.84741111e-13,65.7265625 L-1.84741111e-13,26.234375 L60,26.234375 Z M42.6562502,53.7734375 C40.693008,53.7734375 39.0089064,54.9871484 38.3119923,56.703125 L38.3119923,56.703125 L30.9375001,56.703125 L30.9375001,60.21875 L38.3119923,60.21875 C39.0089064,61.9347266 40.693008,63.1484375 42.6562502,63.1484375 C44.6194924,63.1484375 46.3035939,61.9347266 47.000508,60.21875 L47.000508,60.21875 L53.3203127,60.21875 L53.3203127,56.703125 L47.000508,56.703125 C46.3035939,54.9871484 44.6194924,53.7734375 42.6562502,53.7734375 Z M42.6562502,57.2890625 C43.3024221,57.2890625 43.8281252,57.8147656 43.8281252,58.4609375 C43.8281252,59.1071094 43.3024221,59.6328125 42.6562502,59.6328125 C42.0100783,59.6328125 41.4843752,59.1071094 41.4843752,58.4609375 C41.4843752,57.8147656 42.0100783,57.2890625 42.6562502,57.2890625 Z M17.2265626,33.7490234 L6.56250003,39.2459375 L6.56250003,51.7637891 L17.2265626,57.0646484 L27.8906251,51.7637891 L27.8906251,39.2459375 L17.2265626,33.7490234 Z M10.078125,44.6570703 L15.4687501,47.3366797 L15.4687501,52.2647656 L10.078125,49.5852734 L10.078125,44.6570703 Z M24.3750001,44.6570703 L24.3750001,49.5852734 L18.9843751,52.2647656 L18.9843751,47.3366797 L24.3750001,44.6570703 Z M48.6328127,42.0546875 C46.6695705,42.0546875 44.9854689,43.2683984 44.2885549,44.984375 L44.2885549,44.984375 L30.9375001,44.984375 L30.9375001,48.5 L44.2885549,48.5 C44.9854689,50.2159766 46.6696877,51.4296875 48.6328127,51.4296875 C51.2175002,51.4296875 53.3203127,49.326875 53.3203127,46.7421875 C53.3203127,44.1575 51.2175002,42.0546875 48.6328127,42.0546875 Z M48.6328127,45.5703125 C49.2789846,45.5703125 49.8046877,46.0960156 49.8046877,46.7421875 C49.8046877,47.3883594 49.2789846,47.9140625 48.6328127,47.9140625 C47.9866408,47.9140625 47.4609377,47.3883594 47.4609377,46.7421875 C47.4609377,46.0960156 47.9866408,45.5703125 48.6328127,45.5703125 Z M17.2265626,37.7041016 L23.7251954,41.0540234 L17.2265626,44.2844141 L10.7279297,41.0540234 L17.2265626,37.7041016 Z M35.6250001,30.3359375 C33.0403126,30.3359375 30.9375001,32.43875 30.9375001,35.0234375 C30.9375001,37.608125 33.0403126,39.7109375 35.6250001,39.7109375 C37.5882423,39.7109375 39.2723439,38.4972266 39.969258,36.78125 L39.969258,36.78125 L53.3203127,36.78125 L53.3203127,33.265625 L39.969258,33.265625 C39.2723439,31.5496484 37.5881252,30.3359375 35.6250001,30.3359375 Z M35.6250001,33.8515625 C36.271172,33.8515625 36.7968752,34.3772656 36.7968752,35.0234375 C36.7968752,35.6696094 36.271172,36.1953125 35.6250001,36.1953125 C34.9788283,36.1953125 34.4531251,35.6696094 34.4531251,35.0234375 C34.4531251,34.3772656 34.9788283,33.8515625 35.6250001,33.8515625 Z M54.7265627,11 C57.6343362,11 60,13.3656641 60,16.2734375 L60,16.2734375 L60,22.71875 L-1.84741111e-13,22.71875 L-1.84741111e-13,16.2734375 C-1.84741111e-13,13.3656641 2.36566407,11 5.27343752,11 L5.27343752,11 Z M8.78906254,16.859375 C7.81828128,16.859375 7.03125003,17.6464062 7.03125003,18.6171875 C7.03125003,19.5879687 7.81828128,20.375 8.78906254,20.375 C9.75984379,20.375 10.546875,19.5879687 10.546875,18.6171875 C10.546875,17.6464062 9.75984379,16.859375 8.78906254,16.859375 Z M14.6484376,16.859375 C13.6776563,16.859375 12.8906251,17.6464062 12.8906251,18.6171875 C12.8906251,19.5879687 13.6776563,20.375 14.6484376,20.375 C15.6192188,20.375 16.4062501,19.5879687 16.4062501,18.6171875 C16.4062501,17.6464062 15.6192188,16.859375 14.6484376,16.859375 Z M20.5078126,16.859375 C19.5370313,16.859375 18.7500001,17.6464062 18.7500001,18.6171875 C18.7500001,19.5879687 19.5370313,20.375 20.5078126,20.375 C21.4785938,20.375 22.2656251,19.5879687 22.2656251,18.6171875 C22.2656251,17.6464062 21.4785938,16.859375 20.5078126,16.859375 Z" id="Custom-Software" fill="url(#linearGradient-1)"></path>
    </g>
</svg>