<?xml version="1.0" encoding="UTF-8"?>
<svg width="87px" height="81px" viewBox="0 0 87 81" version="1.1" xmlns="http://www.w3.org/2000/svg" xmlns:xlink="http://www.w3.org/1999/xlink">
    <!-- Generator: Sketch 60 (88103) - https://sketch.com -->
    <title>Icon/Service/Desktop/Ecommerce</title>
    <desc>Created with Sketch.</desc>
    <defs>
        <linearGradient x1="50%" y1="0%" x2="50%" y2="100%" id="linearGradient-1">
            <stop stop-color="#0DB0D4" offset="0%"></stop>
            <stop stop-color="#9D32FF" offset="100%"></stop>
        </linearGradient>
    </defs>
    <g id="Icon/Service/Desktop/Ecommerce" stroke="none" stroke-width="1" fill="none" fill-rule="evenodd">
        <g id="Ui/Bg-shape/Oval1" fill="#F7F8FB">
            <path d="M40.3384103,81 C61.7089332,81 81.8326505,67.2229636 85.7228185,47.944222 C89.7359764,28.0559715 83.9418513,11.8180744 73.2382769,4.51404656 C64.9429318,-1.14662612 53.3375503,-0.16971646 43.3532926,0.571916907 C23.0000773,2.40163047 1.11107234,16.898773 0.0112135966,35.1754913 C-0.535162749,61.6662884 18.9678874,81 40.3384103,81 Z" id="Oval"></path>
        </g>
        <path d="M60,54.7450199 C60,59.5236255 56.5162502,62.3944223 52.8468752,62.3944223 L52.8468752,62.3944223 L41.2958205,62.3944223 L41.2958205,67.4143426 L46.8750002,67.4143426 C47.8457814,67.4143426 48.6328127,68.2170518 48.6328127,69.2071713 C48.6328127,70.1972908 47.8457814,71 46.8750002,71 L46.8750002,71 L13.1250001,71 C12.1542188,71 11.3671875,70.1972908 11.3671875,69.2071713 C11.3671875,68.2170518 12.1542188,67.4143426 13.1250001,67.4143426 L13.1250001,67.4143426 L18.7041798,67.4143426 L18.7041798,62.3944223 L7.15312503,62.3944223 C3.4548047,62.3944223 -1.84741111e-13,59.4868127 -1.84741111e-13,54.7450199 L-1.84741111e-13,54.7450199 Z M52.8468752,11 C56.7914065,11 60,14.27251 60,18.2956175 L60,18.2956175 L60,51.1593625 L-1.84741111e-13,51.1593625 L-1.84741111e-13,18.2956175 C-1.84741111e-13,14.27251 3.20859376,11 7.15312503,11 L7.15312503,11 Z M24.3750001,43.5099602 L21.5625001,43.5099602 C20.5921876,43.5099602 19.8046876,44.3131474 19.8046876,45.3027888 C19.8046876,46.2924303 20.5921876,47.0956175 21.5625001,47.0956175 L21.5625001,47.0956175 L24.3750001,47.0956175 C25.3453126,47.0956175 26.1328126,46.2924303 26.1328126,45.3027888 C26.1328126,44.3131474 25.3453126,43.5099602 24.3750001,43.5099602 L24.3750001,43.5099602 Z M36.5625002,43.5099602 L33.7500001,43.5099602 C32.7796876,43.5099602 31.9921876,44.3131474 31.9921876,45.3027888 C31.9921876,46.2924303 32.7796876,47.0956175 33.7500001,47.0956175 L33.7500001,47.0956175 L36.5625002,47.0956175 C37.5328127,47.0956175 38.3203127,46.2924303 38.3203127,45.3027888 C38.3203127,44.3131474 37.5328127,43.5099602 36.5625002,43.5099602 L36.5625002,43.5099602 Z M20.6250001,18.6494024 L15.0679688,18.6494024 C14.0964844,18.6494024 13.3101563,19.4525896 13.3101563,20.4422311 C13.3101563,21.4318725 14.0964844,22.2350598 15.0679688,22.2350598 L15.0679688,22.2350598 L18.8671876,22.2350598 L18.8671876,37.252988 C18.8671876,38.725498 20.0425782,39.9243028 21.4863282,39.9243028 L21.4863282,39.9243028 L36.694922,39.9243028 C37.8843752,39.9243028 38.926172,39.1043825 39.2285158,37.9318725 L39.2285158,37.9318725 L41.729297,28.2135458 C42.1652346,26.5211155 40.913672,24.8645418 39.1957033,24.8645418 L39.1957033,24.8645418 L22.3828126,24.8645418 L22.3828126,20.4422311 C22.3828126,19.4525896 21.5953126,18.6494024 20.6250001,18.6494024 L20.6250001,18.6494024 Z M38.0332033,28.4501992 L36.0035158,36.3386454 L22.3828126,36.3386454 L22.3828126,28.4501992 L38.0332033,28.4501992 Z" id="Ecommerce" fill="url(#linearGradient-1)"></path>
    </g>
</svg>