<?xml version="1.0" encoding="UTF-8"?>
<svg width="87px" height="81px" viewBox="0 0 87 81" version="1.1" xmlns="http://www.w3.org/2000/svg" xmlns:xlink="http://www.w3.org/1999/xlink">
    <!-- Generator: Sketch 60 (88103) - https://sketch.com -->
    <title>Icon/Service/Desktop/Enterprise Security</title>
    <desc>Created with Sketch.</desc>
    <defs>
        <linearGradient x1="50%" y1="0%" x2="50%" y2="100%" id="linearGradient-1">
            <stop stop-color="#0DB0D4" offset="0%"></stop>
            <stop stop-color="#9D32FF" offset="100%"></stop>
        </linearGradient>
    </defs>
    <g id="Icon/Service/Desktop/Enterprise-Security" stroke="none" stroke-width="1" fill="none" fill-rule="evenodd">
        <g id="Ui/Bg-shape/Oval1" fill="#F7F8FB">
            <path d="M40.3384103,81 C61.7089332,81 81.8326505,67.2229636 85.7228185,47.944222 C89.7359764,28.0559715 83.9418513,11.8180744 73.2382769,4.51404656 C64.9429318,-1.14662612 53.3375503,-0.16971646 43.3532926,0.571916907 C23.0000773,2.40163047 1.11107234,16.898773 0.0112135966,35.1754913 C-0.535162749,61.6662884 18.9678874,81 40.3384103,81 Z" id="Oval"></path>
        </g>
        <path d="M23.0450928,11.3789474 C23.4907162,10.8736842 24.4456233,10.8736842 24.9549072,11.3789474 C30.4933687,17.3157895 38.3872679,20.7263158 46.535809,20.7263158 L46.535809,20.7263158 L46.66313,20.7263158 C47.3633952,20.7263158 47.9363395,21.2947368 48,21.9894737 L48,21.9894737 L48,36.3894737 C48,48.2 42.0795756,59.1894737 32.2122016,65.7578947 L32.2122016,65.7578947 L24.7639257,70.7473684 C24.5092838,70.9368421 24.3183024,71 24,71 C23.6816976,71 23.4270557,70.8736842 23.2360743,70.7473684 L23.2360743,70.7473684 L15.7877984,65.7578947 C5.9204244,59.1894737 -1.49213975e-13,48.2 -1.49213975e-13,36.3894737 L-1.49213975e-13,36.3894737 L-1.49213975e-13,22.0526316 C-1.49213975e-13,21.2947368 0.636604775,20.7263158 1.33687003,20.7263158 L1.33687003,20.7263158 L1.46419098,20.7263158 C9.6127321,20.7263158 17.5066313,17.3157895 23.0450928,11.3789474 Z M24,26.7894737 C16.4244032,26.7894737 10.2493369,32.9157895 10.2493369,40.4315789 C10.2493369,47.9473684 16.4244032,54.0736842 24,54.0736842 C31.5755968,54.0736842 37.7506631,47.9473684 37.7506631,40.4315789 C37.7506631,32.9157895 31.5755968,26.7894737 24,26.7894737 Z M28.0106101,34.6210526 C28.9655172,33.6736842 30.4297082,33.6105263 31.5119363,34.4947368 C32.4668435,35.3789474 32.530504,36.8947368 31.6392573,37.8421053 L31.6392573,37.8421053 L23.9363395,46.1789474 C23.4907162,46.6842105 22.8541114,46.9368421 22.1538462,46.9368421 C21.4535809,46.9368421 20.8169761,46.6842105 20.3713528,46.1789474 L20.3713528,46.1789474 L16.4880637,42.0105263 C15.596817,41.0631579 15.6604775,39.5473684 16.6153846,38.6631579 C17.5702918,37.7789474 19.0981432,37.8421053 19.9893899,38.7894737 L19.9893899,38.7894737 L22.0901857,41.0631579 Z" id="Enterprise-Security" fill="url(#linearGradient-1)"></path>
    </g>
</svg>