<?xml version="1.0" encoding="UTF-8"?>
<svg width="87px" height="81px" viewBox="0 0 87 81" version="1.1" xmlns="http://www.w3.org/2000/svg" xmlns:xlink="http://www.w3.org/1999/xlink">
    <!-- Generator: Sketch 60 (88103) - https://sketch.com -->
    <title>Icon/Service/Desktop/Mobile App</title>
    <desc>Created with Sketch.</desc>
    <defs>
        <linearGradient x1="50%" y1="0%" x2="50%" y2="100%" id="linearGradient-1">
            <stop stop-color="#0DB0D4" offset="0%"></stop>
            <stop stop-color="#9D32FF" offset="100%"></stop>
        </linearGradient>
    </defs>
    <g id="Icon/Service/Desktop/Mobile-App" stroke="none" stroke-width="1" fill="none" fill-rule="evenodd">
        <g id="Ui/Bg-shape/Oval1" fill="#F7F8FB">
            <path d="M40.3384103,81 C61.7089332,81 81.8326505,67.2229636 85.7228185,47.944222 C89.7359764,28.0559715 83.9418513,11.8180744 73.2382769,4.51404656 C64.9429318,-1.14662612 53.3375503,-0.16971646 43.3532926,0.571916907 C23.0000773,2.40163047 1.11107234,16.898773 0.0112135966,35.1754913 C-0.535162749,61.6662884 18.9678874,81 40.3384103,81 Z" id="Oval"></path>
        </g>
        <path d="M34.9999707,11 C37.7575044,11 40,13.2423828 40,16.0000391 L40,16.0000391 L40,65.9999612 C40,68.7576174 37.7575044,71 34.9999707,71 L34.9999707,71 L5.0000293,71 C2.24249562,71 2.7000624e-13,68.7576174 2.7000624e-13,66.0000784 L2.7000624e-13,66.0000784 L2.7000624e-13,16.0000391 C2.7000624e-13,13.2423828 2.24249562,11 5.0000293,11 L5.0000293,11 Z M23.7499927,63.5000002 L16.2500073,63.5000002 C15.5590712,63.5000002 14.9999707,64.0589846 14.9999707,64.7499221 C14.9999707,65.4408596 15.5590712,65.9999612 16.2500073,65.9999612 L16.2500073,65.9999612 L23.7499927,65.9999612 C24.4409288,65.9999612 25.0000293,65.4409768 25.0000293,64.7500393 C25.0000293,64.0591018 24.4409288,63.5000002 23.7499927,63.5000002 L23.7499927,63.5000002 Z M34.9999707,16.0000391 L5.0000293,16.0000391 L5.0000293,58.4999611 L34.9999707,58.4999611 L34.9999707,16.0000391 Z M31.249978,41.0000001 C31.9409142,41.0000001 32.5000146,41.5591017 32.5000146,42.2500392 L32.5000146,42.2500392 L32.5000146,49.7500392 C32.5000146,50.4409767 31.9409142,51.0000783 31.249978,51.0000783 L31.249978,51.0000783 L23.7499927,51.0000783 C23.0590565,51.0000783 22.4999561,50.4409767 22.4999561,49.7500392 L22.4999561,49.7500392 L22.4999561,42.2500392 C22.4999561,41.5591017 23.0590565,41.0000001 23.7499927,41.0000001 L23.7499927,41.0000001 Z M16.2500073,40.9998829 C16.9409435,40.9998829 17.5000439,41.5589845 17.5000439,42.249922 L17.5000439,42.249922 L17.5000439,49.749922 C17.5000439,50.4408595 16.9409435,50.9999611 16.2500073,50.9999611 L16.2500073,50.9999611 L8.75002197,50.9999611 C8.05908582,50.9999611 7.49998535,50.4409767 7.49998535,49.749922 L7.49998535,49.749922 L7.49998535,42.249922 C7.49998535,41.5589845 8.05908582,40.9998829 8.75002197,40.9998829 L8.75002197,40.9998829 Z M31.249978,26.0000001 C31.9409142,26.0000001 32.5000146,26.5591016 32.5000146,27.2500391 L32.5000146,27.2500391 L32.5000146,34.7500392 C32.5000146,35.4409767 31.9409142,36.0000782 31.249978,36.0000782 L31.249978,36.0000782 L23.7499927,36.0000782 C23.0590565,36.0000782 22.4999561,35.4409767 22.4999561,34.7500392 L22.4999561,34.7500392 L22.4999561,27.2500391 C22.4999561,26.5591016 23.0590565,26.0000001 23.7499927,26.0000001 L23.7499927,26.0000001 Z M16.2500073,25.9998829 C16.9409435,25.9998829 17.5000439,26.5589844 17.5000439,27.2499219 L17.5000439,27.2499219 L17.5000439,34.749922 C17.5000439,35.4408595 16.9409435,35.999961 16.2500073,35.999961 L16.2500073,35.999961 L8.75002197,35.999961 C8.05908582,35.999961 7.49998535,35.4409767 7.49998535,34.749922 L7.49998535,34.749922 L7.49998535,27.2499219 C7.49998535,26.5589844 8.05908582,25.9998829 8.75002197,25.9998829 L8.75002197,25.9998829 Z M31.249978,18.5 C31.9403542,18.5 32.5000146,19.0596616 32.5000146,19.7500391 C32.5000146,20.4404166 31.9403542,21.0000782 31.249978,21.0000782 C30.5596019,21.0000782 29.9999414,20.4404166 29.9999414,19.7500391 C29.9999414,19.0596616 30.5596019,18.5 31.249978,18.5 Z M21.2499194,18.4998828 C21.9408556,18.4998828 22.4999561,19.0589844 22.4999561,19.7499219 C22.4999561,20.4408594 21.9408556,20.999961 21.2499194,20.999961 L21.2499194,20.999961 L18.7499634,20.999961 C18.0591444,20.999961 17.5000439,20.4409766 17.4999268,19.7499219 C17.4999268,19.0589844 18.0590272,18.4998828 18.7499634,18.4998828 L18.7499634,18.4998828 Z" id="Mobile-App" fill="url(#linearGradient-1)"></path>
    </g>
</svg>