<svg xmlns="http://www.w3.org/2000/svg" width="157" height="81" viewBox="0 0 157 81">
    <g fill="none" fill-rule="evenodd">
        <g>
            <g>
                <g>
                    <g>
                        <g fill="#F7F8FB">
                            <path d="M40.338 81c21.37 0 41.495-13.777 45.385-33.056 4.013-19.888-1.781-36.126-12.485-43.43-8.295-5.66-19.9-4.684-29.885-3.942C23 2.402 1.111 16.899.011 35.175-.535 61.666 18.968 81 40.338 81z" transform="translate(-1075 -3146) translate(0 2442) translate(1075 704)"/>
                        </g>
                        <g fill-rule="nonzero">
                            <path fill="#A24689" d="M19.204 12.216c2.552 0 4.962.507 7.228 1.52 2.266 1.012 4.259 2.376 5.978 4.09 1.72 1.714 3.087 3.714 4.103 5.999 1.016 2.286 1.523 4.727 1.523 7.323 0 2.598-.495 5.025-1.484 7.285-.99 2.259-2.332 4.246-4.025 5.96-1.693 1.714-3.686 3.065-5.978 4.051-2.293.987-4.766 1.48-7.423 1.48-2.606 0-5.054-.467-7.345-1.402-2.293-.935-4.298-2.246-6.017-3.934-1.72-1.688-3.075-3.674-4.064-5.96-.99-2.286-1.485-4.779-1.485-7.48 0-2.596.482-5.025 1.446-7.284.963-2.26 2.305-4.233 4.025-5.921 1.718-1.688 3.737-3.039 6.055-4.052 2.318-1.012 4.806-1.57 7.463-1.675zm-.078 7.713c-1.512 0-2.957.286-4.337.857-1.38.572-2.578 1.364-3.594 2.377-1.016 1.012-1.824 2.194-2.423 3.544-.6 1.352-.898 2.832-.898 4.441 0 1.507.3 2.948.898 4.324.599 1.377 1.407 2.585 2.423 3.623 1.015 1.04 2.213 1.858 3.594 2.454 1.38.598 2.825.896 4.337.896 1.51 0 2.956-.299 4.337-.896 1.38-.596 2.579-1.415 3.595-2.454 1.016-1.038 1.822-2.246 2.422-3.623.598-1.376.898-2.817.898-4.324-.156-3.064-1.25-5.648-3.281-7.752-2.032-2.104-4.663-3.259-7.893-3.467h-.078z" transform="translate(-1075 -3146) translate(0 2442) translate(1075 704) translate(0 27)"/>
                            <path fill="#8F8F8F" d="M73.59.218c.886-.05 1.72.3 2.501 1.052.782.754 1.172 1.572 1.172 2.454V31.07c0 2.546-.521 4.96-1.563 7.246-1.042 2.286-2.449 4.285-4.22 5.999-1.77 1.714-3.79 3.077-6.055 4.09-2.266 1.013-4.65 1.52-7.15 1.52-2.553 0-4.975-.494-7.267-1.481-2.293-.986-4.298-2.337-6.017-4.051-1.72-1.714-3.087-3.713-4.103-6-1.016-2.284-1.523-4.725-1.523-7.323 0-2.804.455-5.27 1.367-7.401.91-2.13 2.278-4.13 4.102-6v.079c1.927-1.817 4.05-3.194 6.369-4.13 2.317-.934 4.7-1.402 7.15-1.402 1.458 0 3.19.234 5.196.702 2.005.467 3.998 1.376 5.978 2.726V4.114c0-.519.104-1.013.313-1.48.207-.468.48-.897.82-1.286.339-.39.742-.688 1.211-.896.47-.207.938-.285 1.407-.234h.313zM69.528 31.07c0-1.402-.3-2.778-.898-4.129-.6-1.35-1.42-2.558-2.462-3.623-1.043-1.064-2.24-1.909-3.595-2.532s-2.787-.935-4.297-.935c-1.512 0-2.957.3-4.337.896-1.381.598-2.579 1.402-3.595 2.415-1.016 1.013-1.824 2.208-2.422 3.584-.6 1.377-.899 2.818-.899 4.324 0 1.558.3 3.013.899 4.363.598 1.351 1.406 2.532 2.422 3.545 1.016 1.012 2.214 1.818 3.595 2.415 1.38.597 2.825.896 4.337.896 1.51 0 2.942-.299 4.297-.896 1.354-.597 2.552-1.403 3.595-2.415 1.042-1.013 1.862-2.194 2.462-3.545.598-1.35.898-2.805.898-4.363zM98.44 12.216c2.551 0 4.961.507 7.228 1.52 2.266 1.012 4.258 2.376 5.978 4.09 1.719 1.714 3.086 3.714 4.102 5.999 1.016 2.286 1.524 4.727 1.524 7.323 0 2.598-.496 5.025-1.485 7.285-.99 2.259-2.332 4.246-4.024 5.96-1.694 1.714-3.687 3.065-5.978 4.051-2.293.987-4.767 1.48-7.424 1.48-2.605 0-5.053-.467-7.345-1.402-2.293-.935-4.298-2.246-6.017-3.934-1.719-1.688-3.074-3.674-4.063-5.96-.99-2.286-1.485-4.779-1.485-7.48 0-2.596.48-5.025 1.445-7.284.964-2.26 2.305-4.233 4.025-5.921 1.719-1.688 3.737-3.039 6.056-4.052 2.317-1.012 4.806-1.57 7.463-1.675zm-.079 7.713c-1.511 0-2.957.286-4.336.857-1.381.572-2.579 1.364-3.595 2.377-1.016 1.012-1.824 2.194-2.422 3.544-.6 1.352-.899 2.832-.899 4.441 0 1.507.3 2.948.899 4.324.598 1.377 1.406 2.585 2.422 3.623 1.016 1.04 2.214 1.858 3.595 2.454 1.38.598 2.825.896 4.336.896 1.51 0 2.956-.299 4.337-.896 1.38-.596 2.579-1.415 3.595-2.454 1.016-1.038 1.823-2.246 2.422-3.623.599-1.376.899-2.817.899-4.324-.157-3.064-1.25-5.648-3.282-7.752s-4.663-3.259-7.892-3.467h-.079zM138.135 12.216c2.552 0 4.962.507 7.229 1.52 2.266 1.012 4.258 2.376 5.977 4.09 1.72 1.714 3.087 3.714 4.103 5.999 1.016 2.286 1.523 4.727 1.523 7.323 0 2.598-.495 5.025-1.484 7.285-.99 2.259-2.332 4.246-4.025 5.96-1.693 1.714-3.686 3.065-5.977 4.051-2.293.987-4.767 1.48-7.424 1.48-2.606 0-5.054-.467-7.345-1.402-2.293-.935-4.298-2.246-6.017-3.934-1.72-1.688-3.074-3.674-4.064-5.96-.99-2.286-1.484-4.779-1.484-7.48 0-2.596.48-5.025 1.445-7.284.964-2.26 2.305-4.233 4.025-5.921 1.719-1.688 3.737-3.039 6.056-4.052 2.317-1.012 4.805-1.57 7.462-1.675zm-.078 7.713c-1.512 0-2.957.286-4.337.857-1.38.572-2.578 1.364-3.594 2.377-1.016 1.012-1.824 2.194-2.423 3.544-.6 1.352-.898 2.832-.898 4.441 0 1.507.299 2.948.898 4.324.599 1.377 1.407 2.585 2.423 3.623 1.015 1.04 2.213 1.858 3.594 2.454 1.38.598 2.825.896 4.337.896 1.51 0 2.956-.299 4.337-.896 1.38-.596 2.578-1.415 3.595-2.454 1.015-1.038 1.822-2.246 2.422-3.623.598-1.376.898-2.817.898-4.324-.156-3.064-1.25-5.648-3.282-7.752-2.031-2.104-4.662-3.259-7.892-3.467h-.078z" transform="translate(-1075 -3146) translate(0 2442) translate(1075 704) translate(0 27)"/>
                        </g>
                    </g>
                </g>
            </g>
        </g>
    </g>
</svg>
