<?xml version="1.0" encoding="UTF-8"?>
<svg width="87px" height="81px" viewBox="0 0 87 81" version="1.1" xmlns="http://www.w3.org/2000/svg" xmlns:xlink="http://www.w3.org/1999/xlink">
    <!-- Generator: Sketch 60 (88103) - https://sketch.com -->
    <title>Ui/Bg-shape/Oval1</title>
    <desc>Created with Sketch.</desc>
    <defs>
        <polygon id="path-1" points="3.81165919e-05 0.168535032 84.9840291 0.168535032 84.9840291 59.8088408 3.81165919e-05 59.8088408"></polygon>
    </defs>
    <g id="Design" stroke="none" stroke-width="1" fill="none" fill-rule="evenodd">
        <g id="1.-Home" transform="translate(-475.000000, -3146.000000)">
            <g id="Group-32" transform="translate(0.000000, 2442.000000)">
                <g id="Icon/Service/Desktop/Salesforce" transform="translate(475.000000, 704.000000)">
                    <g id="Ui/Bg-shape/Oval1" fill="#F7F8FB">
                        <path d="M40.3384103,81 C61.7089332,81 81.8326505,67.2229636 85.7228185,47.944222 C89.7359764,28.0559715 83.9418513,11.8180744 73.2382769,4.51404656 C64.9429318,-1.14662612 53.3375503,-0.16971646 43.3532926,0.571916907 C23.0000773,2.40163047 1.11107234,16.898773 0.0112135966,35.1754913 C-0.535162749,61.6662884 18.9678874,81 40.3384103,81 Z" id="Oval"></path>
                    </g>
                    <g id="Group-24" stroke-width="1" transform="translate(0.000000, 11.000000)">
                        <g id="Group-3" transform="translate(0.000000, 0.022548)">
                            <mask id="mask-2" fill="white">
                                <use xlink:href="#path-1"></use>
                            </mask>
                            <g id="Clip-2"></g>
                            <path d="M35.3646121,6.6729172 C38.1048139,3.81030573 41.9206659,2.03457325 46.1411256,2.03457325 C51.7516973,2.03457325 56.645296,5.17024204 59.2518991,9.82616561 C61.5177399,8.81189809 64.0244776,8.24705732 66.6623363,8.24705732 C76.7805762,8.24705732 84.9840291,16.5434904 84.9840291,26.777121 C84.9840291,37.0122803 76.7805762,45.3085223 66.6623363,45.3085223 C65.4271682,45.3085223 64.2205874,45.1833631 63.0526951,44.947949 C60.7582668,49.0516433 56.3843879,51.8255924 51.3632892,51.8255924 C49.2623027,51.8255924 47.2752848,51.3396688 45.5041973,50.4731083 C43.1785135,55.9606242 37.7564283,59.8088408 31.4389843,59.8088408 C24.8591076,59.8088408 19.2510135,55.6350191 17.0989507,49.7806242 C16.1586143,49.9797325 15.1830202,50.084828 14.1837937,50.084828 C6.35007175,50.084828 3.81165919e-05,43.6518344 3.81165919e-05,35.7161656 C3.81165919e-05,30.3964204 2.85154036,25.7529172 7.09182063,23.2682675 C6.21876009,21.2532994 5.73429821,19.0317707 5.73429821,16.6950191 C5.73429821,7.56833121 13.1247242,0.168458599 22.239926,0.168458599 C27.5918767,0.168458599 32.3482556,2.7196051 35.3646121,6.6729172" id="Fill-1" fill="#129CD7" mask="url(#mask-2)"></path>
                        </g>
                        <path d="M12.3084574,31.1187898 C12.254713,31.2590446 12.3271345,31.2878981 12.3446682,31.3117834 C12.5045673,31.4281529 12.6656099,31.5120382 12.8293206,31.606051 C13.6960919,32.0667516 14.5154081,32.2008917 15.370935,32.2008917 C17.1145785,32.2008917 18.1974709,31.2716561 18.1974709,29.7750955 L18.1974709,29.7464331 C18.1974709,28.3626115 16.9746906,27.8591083 15.8294776,27.496051 L15.6794888,27.4484713 C14.8151951,27.1666242 14.0696345,26.9235669 14.0696345,26.3526115 L14.0696345,26.323758 C14.0696345,25.8353503 14.5054978,25.4759236 15.1811143,25.4759236 C15.9318206,25.4759236 16.8224148,25.7264331 17.3956883,26.044586 C17.3956883,26.044586 17.5654978,26.1535032 17.6266749,25.9895541 C17.6604081,25.9005096 17.9502848,25.1178344 17.9815404,25.0326115 C18.0139395,24.9412739 17.9563834,24.8724841 17.8965404,24.8361783 C17.2407444,24.4366242 16.3352848,24.163758 15.3983789,24.163758 L15.2249484,24.1649045 C13.6286256,24.1649045 12.5144776,25.1315924 12.5144776,26.5167516 L12.5144776,26.545414 C12.5144776,28.0043312 13.7435471,28.4789809 14.8950493,28.8084076 L15.0799148,28.8659236 C15.9192422,29.1240764 16.6425045,29.346879 16.6425045,29.9378981 L16.6425045,29.9680892 C16.6425045,30.5090446 16.1717646,30.9122293 15.4147691,30.9122293 C15.1199372,30.9122293 14.1820785,30.9072611 13.1689395,30.2648408 C13.0465852,30.1920382 12.9766413,30.140828 12.8817309,30.0833121 C12.8317982,30.0519745 12.7067758,29.9980892 12.6518879,30.1620382 L12.3084574,31.1187898 Z" id="Fill-4" fill="#FEFEFE"></path>
                        <path d="M37.8290785,31.1187898 C37.7753341,31.2590446 37.8477556,31.2878981 37.8652892,31.3117834 C38.0251883,31.4281529 38.1862309,31.5120382 38.3499417,31.606051 C39.216713,32.0667516 40.0360291,32.2008917 40.8915561,32.2008917 C42.6351996,32.2008917 43.7180919,31.2716561 43.7180919,29.7750955 L43.7180919,29.7464331 C43.7180919,28.3626115 42.4953117,27.8591083 41.3500987,27.496051 L41.2001099,27.4484713 C40.3358161,27.1666242 39.590065,26.9235669 39.590065,26.3526115 L39.590065,26.323758 C39.590065,25.8353503 40.0261188,25.4759236 40.7017354,25.4759236 C41.4524417,25.4759236 42.3430359,25.7264331 42.9163094,26.044586 C42.9163094,26.044586 43.0861188,26.1535032 43.147296,25.9895541 C43.1810291,25.9005096 43.4709058,25.1178344 43.5021614,25.0326115 C43.5345605,24.9412739 43.4770045,24.8724841 43.4171614,24.8361783 C42.7613655,24.4366242 41.8570493,24.163758 40.919,24.163758 L40.7455695,24.1649045 C39.1492466,24.1649045 38.0350987,25.1315924 38.0350987,26.5167516 L38.0350987,26.545414 C38.0350987,28.0043312 39.2655022,28.4789809 40.4156704,28.8084076 L40.6005359,28.8659236 C41.4398632,29.1240764 42.1644596,29.346879 42.1644596,29.9378981 L42.1644596,29.9680892 C42.1644596,30.5090446 41.6935291,30.9122293 40.9353901,30.9122293 C40.6405583,30.9122293 39.703843,30.9072611 38.6895605,30.2648408 C38.5672063,30.1920382 38.4947848,30.1433121 38.402352,30.0833121 C38.3710964,30.0632484 38.2237758,30.0055414 38.173843,30.1620382 L37.8290785,31.1187898 Z" id="Fill-6" fill="#FEFEFE"></path>
                        <path d="M55.251315,28.1870637 C55.251315,29.032414 55.0938935,29.6998662 54.7841962,30.1706943 C54.4769765,30.6365541 54.0134787,30.8645159 53.3677836,30.8645159 C52.7207545,30.8645159 52.2599249,30.6365541 51.9576603,30.1706943 C51.6515841,29.6998662 51.4968307,29.032414 51.4968307,28.1870637 C51.4968307,27.343051 51.6515841,26.6767452 51.9563262,26.2110764 C52.2599249,25.7501847 52.7207545,25.5258535 53.3677836,25.5258535 C54.0134787,25.5258535 54.4769765,25.7501847 54.7841962,26.2110764 C55.0938935,26.6767452 55.251315,27.343051 55.251315,28.1870637 M56.7064159,26.6192293 C56.5640504,26.1346433 56.3404966,25.7075732 56.0445213,25.3519682 C55.7483554,24.9950255 55.3725258,24.7082102 54.9265617,24.5003121 C54.4819316,24.292414 53.9572567,24.186172 53.3677836,24.186172 C52.7769765,24.186172 52.2511581,24.292414 51.806528,24.5003121 C51.361898,24.7082102 50.9858778,24.9950255 50.6899025,25.3531146 C50.392593,25.7089108 50.1703733,26.1359809 50.0278173,26.6192293 C49.8854518,27.1013312 49.8130303,27.6285287 49.8130303,28.1870637 C49.8130303,28.7455987 49.8854518,29.2741338 50.0278173,29.7548981 C50.1703733,30.2383376 50.392593,30.6654076 50.6899025,31.0223503 C50.9858778,31.3791019 51.3630415,31.6647707 51.8078621,31.8675096 C52.2524922,32.0704395 52.7769765,32.173051 53.3677836,32.173051 C53.9572567,32.173051 54.4805975,32.0704395 54.9265617,31.8675096 C55.3711917,31.6647707 55.7472119,31.3791019 56.0445213,31.0223503 C56.3404966,30.6667452 56.5640504,30.2396752 56.7064159,29.7548981 C56.8487814,29.2727962 56.9212029,28.7455987 56.9212029,28.1870637 C56.9212029,27.6285287 56.8487814,27.1013312 56.7064159,26.6192293" id="Fill-8" fill="#FEFEFE"></path>
                        <path d="M68.6559675,30.6376433 C68.6085123,30.496051 68.4697679,30.5501274 68.4697679,30.5501274 C68.2587926,30.6313376 68.0339047,30.7052866 67.7930078,30.7429299 C67.5505863,30.7817197 67.2831984,30.8004459 66.9959899,30.8004459 C66.2929294,30.8004459 65.7320437,30.5900637 65.3310572,30.1756051 C64.9302612,29.7598089 64.7040392,29.088535 64.7065168,28.1807006 C64.709185,27.355414 64.9077724,26.7342038 65.2649249,26.2595541 C65.6195998,25.7889172 66.1604742,25.5470064 66.8799249,25.5470064 C67.4794989,25.5470064 67.9376603,25.6173248 68.4173576,25.7675159 C68.4173576,25.7675159 68.5324697,25.8175796 68.5860235,25.6671975 C68.714667,25.3115924 68.8084339,25.0599363 68.9445101,24.6705096 C68.9831984,24.5589172 68.8882881,24.5126752 68.8532209,24.4989172 C68.6647343,24.4249682 68.2201043,24.3036306 67.8827724,24.2522293 C67.569454,24.2046497 67.2008666,24.1796178 66.7911132,24.1796178 C66.1804854,24.1796178 65.6357993,24.2847134 65.1700146,24.4926115 C64.7040392,24.6993631 64.310676,24.9859873 63.997167,25.3429299 C63.6849922,25.6998726 63.4475258,26.1269427 63.2902948,26.6103822 C63.1315392,27.092293 63.0530191,27.620828 63.0530191,28.1818471 C63.0530191,29.3915924 63.3775818,30.3695541 64.0207993,31.0847771 C64.6653509,31.8047771 65.6321783,32.169172 66.8936469,32.169172 C67.6392074,32.169172 68.4036357,32.0176433 68.9544204,31.8009554 C68.9544204,31.8009554 69.0594316,31.7495541 69.01312,31.626879 L68.6559675,30.6376433 Z" id="Fill-10" fill="#FEFEFE"></path>
                        <path d="M71.2020224,27.3766433 C71.2719664,26.9069618 71.4006099,26.5163885 71.6005314,26.2119936 C71.9014619,25.7499554 72.361148,25.4944777 73.0081771,25.4944777 C73.6552063,25.4944777 74.0809686,25.7499554 74.3883789,26.2119936 C74.5919215,26.517535 74.6805426,26.9232038 74.7156099,27.3779809 L71.2020224,27.3766433 Z M76.1007668,26.3447962 C75.9770785,25.8762611 75.6710022,25.4042866 75.4710807,25.1889363 C75.1539507,24.8457516 74.8429193,24.6065159 74.5356996,24.4739045 C74.1349036,24.3009745 73.6525381,24.1870892 73.1242422,24.1870892 C72.5098027,24.1870892 71.9515852,24.2910382 71.4981883,24.5039045 C71.0447915,24.7167707 70.6638161,25.0085541 70.3640291,25.3718025 C70.0653857,25.7337134 69.8404978,26.164414 69.6971794,26.6541592 C69.5534798,27.1400828 69.4810583,27.6697643 69.4810583,28.2294459 C69.4810583,28.7992548 69.5557668,29.3302739 69.7046121,29.8060701 C69.8544103,30.288172 70.0943543,30.7102739 70.4177735,31.0622484 C70.7425269,31.4153694 71.1583789,31.6907197 71.6567534,31.8848599 C72.1524596,32.0765159 72.7545112,32.1766433 73.4453744,32.1742044 C74.8678857,32.1703376 75.6172578,31.8523758 75.9258117,31.6807834 C75.9806996,31.6494459 76.0319664,31.5968981 75.9683117,31.4442229 L75.6448924,30.5400191 C75.5961031,30.4060701 75.4600269,30.4547962 75.4600269,30.4547962 C75.1064955,30.5862611 74.606787,30.8216752 73.4377511,30.8191911 C72.6735135,30.8180446 72.1076726,30.5925669 71.7529978,30.2381083 C71.3893655,29.877535 71.2096457,29.3465159 71.1795336,28.5965159 L76.1045785,28.6001465 C76.1045785,28.6001465 76.2343655,28.5988089 76.2480874,28.4711656 C76.2530426,28.4186178 76.4165628,27.456707 76.1007668,26.3447962 L76.1007668,26.3447962 Z" id="Fill-12" fill="#FEFEFE"></path>
                        <path d="M31.7523789,27.3766433 C31.8223229,26.9069618 31.9509664,26.5163885 32.1495538,26.2119936 C32.4529619,25.7499554 32.9115045,25.4944777 33.5585336,25.4944777 C34.2053722,25.4944777 34.6324686,25.7499554 34.9398789,26.2119936 C35.1420874,26.517535 35.2307085,26.9232038 35.2657758,27.3779809 L31.7523789,27.3766433 Z M36.6509327,26.3447962 C36.5272444,25.8762611 36.2213587,25.4042866 36.0214372,25.1889363 C35.7041166,24.8457516 35.3944193,24.6065159 35.0860561,24.4739045 C34.6837354,24.3009745 34.2028946,24.1870892 33.6757422,24.1870892 C33.0599686,24.1870892 32.5017511,24.2910382 32.0483543,24.5039045 C31.5949574,24.7167707 31.2139821,25.0085541 30.9141951,25.3718025 C30.6157422,25.7337134 30.3908543,26.164414 30.2473453,26.6541592 C30.1036457,27.1400828 30.0312242,27.6697643 30.0312242,28.2294459 C30.0312242,28.7992548 30.1061233,29.3302739 30.254778,29.8060701 C30.4045762,30.288172 30.6445202,30.7102739 30.9679395,31.0622484 C31.2926928,31.4153694 31.7087354,31.6907197 32.2069193,31.8848599 C32.7028161,32.0765159 33.3048677,32.1766433 33.9955404,32.1742044 C35.4182422,32.1703376 36.1676143,31.8523758 36.4761682,31.6807834 C36.5310561,31.6494459 36.5823229,31.5968981 36.5184776,31.4442229 L36.1950583,30.5400191 C36.1464596,30.4060701 36.0101928,30.4547962 36.0101928,30.4547962 C35.6566614,30.5862611 35.1571435,30.8216752 33.9881076,30.8191911 C33.2250135,30.8180446 32.6578386,30.5925669 32.3031637,30.2381083 C31.939722,29.877535 31.7598117,29.3465159 31.7298901,28.5965159 L36.6547444,28.6001465 C36.6547444,28.6001465 36.7845314,28.5988089 36.7984439,28.4711656 C36.8033991,28.4186178 36.9669193,27.456707 36.6509327,26.3447962 L36.6509327,26.3447962 Z" id="Fill-14" fill="#FEFEFE"></path>
                        <path d="M21.1052332,30.610586 C20.9116009,30.4565732 20.885491,30.4177834 20.8216457,30.3176561 C20.7231143,30.1661274 20.672991,29.950586 20.672991,29.6752357 C20.672991,29.2418599 20.8166906,28.9288662 21.1128565,28.7196306 C21.1101883,28.7196306 21.5374753,28.349121 22.541657,28.3626879 C23.2473857,28.3714777 23.8793587,28.4767643 23.8793587,28.4767643 L23.8793587,30.7221783 C23.8793587,30.7221783 23.2534843,30.8561274 22.5490897,30.8987389 C21.5473857,30.9600764 21.1014215,30.6094395 21.1052332,30.610586 M23.0649978,27.1405223 C22.8650762,27.1256178 22.6064552,27.1181656 22.2967578,27.1181656 C21.8746166,27.1181656 21.4661973,27.1707134 21.0827444,27.2746624 C20.6979574,27.3784204 20.3520493,27.5387389 20.0547399,27.7517962 C19.7551435,27.9671465 19.5151996,28.2413503 19.340435,28.5669554 C19.1654798,28.8925605 19.0768587,29.2756815 19.0768587,29.7038981 C19.0768587,30.142242 19.1517578,30.5217325 19.3028901,30.832242 C19.4528789,31.1440892 19.6688094,31.404535 19.9449641,31.6049809 C20.2184507,31.8052357 20.556926,31.9519873 20.9478117,32.0408408 C21.3350762,32.1296943 21.773417,32.1747898 22.2531143,32.1747898 C22.7589215,32.1747898 23.2611076,32.1321783 23.7493812,32.0496306 C24.2326996,31.9668917 24.8248408,31.8467006 24.9896951,31.8079108 C25.1532152,31.7702675 25.3342691,31.7202038 25.3342691,31.7202038 C25.4568139,31.6888662 25.446713,31.5585478 25.446713,31.5585478 L25.444426,27.042879 C25.444426,26.0509682 25.1808498,25.3172102 24.6624641,24.8614777 C24.1454126,24.4082293 23.3834619,24.1789299 22.3992915,24.1789299 C22.0295605,24.1789299 21.4362758,24.2289936 21.0789327,24.3004586 C21.0789327,24.3004586 20.0036637,24.5095032 19.5615112,24.8576561 C19.5615112,24.8576561 19.4641233,24.9178471 19.5165336,25.0542803 L19.8649193,25.9934522 C19.9087534,26.1149809 20.027296,26.0735159 20.027296,26.0735159 C20.027296,26.0735159 20.0648408,26.0586115 20.1084843,26.0324331 C21.0553004,25.5163185 22.2542578,25.531414 22.2542578,25.531414 C22.7863655,25.531414 23.1961188,25.6403312 23.472083,25.8507134 C23.7406143,26.0586115 23.8766906,26.369121 23.8766906,27.0277834 L23.8766906,27.2370191 C23.4547399,27.1754904 23.0649978,27.1405223 23.0649978,27.1405223" id="Fill-16" fill="#FEFEFE"></path>
                        <path d="M62.7947029,24.5956624 C62.8322478,24.4842611 62.753537,24.4303758 62.7209473,24.4177643 C62.6372814,24.3866178 62.2176177,24.2975732 61.8955325,24.2763631 C61.2759473,24.2387197 60.9325168,24.3426688 60.6251065,24.4817771 C60.3192209,24.6195478 59.9807455,24.8436879 59.7932119,25.097828 L59.7920684,24.495535 C59.7920684,24.4127962 59.7333688,24.3464904 59.6508464,24.3464904 L58.3882343,24.3464904 C58.3057119,24.3464904 58.2470123,24.4127962 58.2470123,24.495535 L58.2470123,31.8627325 C58.2470123,31.9452803 58.3131446,32.0117771 58.3970011,32.0117771 L59.6908688,32.0117771 C59.7733913,32.0117771 59.8395235,31.9452803 59.8395235,31.8627325 L59.8395235,28.1822866 C59.8395235,27.6875732 59.894602,27.1953439 60.0032343,26.886172 C60.109389,26.579293 60.2542321,26.3350892 60.4341424,26.1598662 C60.6140527,25.9844522 60.8187388,25.8617771 61.0436267,25.7929873 C61.2721357,25.7226688 61.5258016,25.6989745 61.7030437,25.6989745 C61.9616648,25.6989745 62.2439182,25.7666178 62.2439182,25.7666178 C62.3401626,25.7765541 62.3925729,25.7178917 62.424972,25.6324777 C62.5088285,25.4071911 62.7497253,24.7298025 62.7947029,24.5956624" id="Fill-18" fill="#FEFEFE"></path>
                        <path d="M50.6474596,21.1815669 C50.4900381,21.1328408 50.3476726,21.1001656 50.1603296,21.0663439 C49.970509,21.0311847 49.7456211,21.0137962 49.4908117,21.0137962 C48.6002175,21.0137962 47.8983004,21.2667898 47.4050717,21.7651338 C46.9152735,22.2598471 46.5817534,23.0136688 46.4146121,24.004242 L46.3545785,24.3386369 L45.2366188,24.3386369 C45.2366188,24.3386369 45.0993991,24.3336688 45.0717646,24.4825223 L44.8882332,25.5094013 C44.8745112,25.6072357 44.9170112,25.6683822 45.0481323,25.6683822 L46.1371233,25.6683822 L45.0319327,31.8499108 C44.9457892,32.3469172 44.8468767,32.7565987 44.7371009,33.0671083 C44.6296121,33.3737962 44.5234574,33.6029045 44.3936704,33.7695287 C44.2675045,33.9298471 44.1487713,34.0500382 43.9427511,34.1190191 C43.7729417,34.1753885 43.5766413,34.2015669 43.3631883,34.2015669 C43.2444552,34.2015669 43.0858901,34.1816943 42.968491,34.1578089 C42.8510919,34.1352611 42.7899148,34.1088917 42.7024372,34.072586 C42.7024372,34.072586 42.5751278,34.0238599 42.523861,34.1515032 C42.4838386,34.2567898 42.1941525,35.0568535 42.1590852,35.1558344 C42.1242085,35.2536688 42.1728072,35.3299108 42.2353184,35.3524586 C42.3801614,35.4038599 42.4876502,35.4376815 42.6849036,35.4839236 C42.9597242,35.5490828 43.1909013,35.5527134 43.4068318,35.5527134 C43.8602287,35.5527134 44.2737937,35.4888917 44.6158901,35.3650701 C44.9606547,35.2397197 45.2604417,35.0218854 45.5264955,34.7287643 C45.8125605,34.4108025 45.9936143,34.0777452 46.1659013,33.6231592 C46.3370448,33.1735414 46.4820785,32.6148153 46.599287,31.9637962 L47.7084798,25.6683822 L49.3309126,25.6683822 C49.3309126,25.6683822 49.4683229,25.6735414 49.4959574,25.5244968 L49.6794888,24.4976178 C49.6918767,24.3999745 49.6507108,24.3386369 49.5195897,24.3386369 L47.9446121,24.3386369 C47.9520448,24.3034777 48.0231323,23.7474268 48.2043767,23.2251975 C48.2817534,23.0010573 48.426787,22.8220127 48.5502848,22.6981911 C48.6701614,22.5766624 48.8100493,22.490293 48.9625157,22.4400382 C49.1186031,22.3899745 49.2960359,22.3649427 49.4908117,22.3649427 C49.6394664,22.3649427 49.7843094,22.3825223 49.8956099,22.4050701 C50.0478857,22.4375541 50.1077287,22.4551338 50.1477511,22.4664076 C50.3076502,22.5164713 50.3289955,22.4688917 50.3613946,22.3913121 L50.7374148,21.3543057 C50.7761031,21.2429045 50.6825269,21.1953248 50.6474596,21.1815669" id="Fill-20" fill="#FEFEFE"></path>
                        <path d="M28.6414552,31.8626943 C28.6414552,31.9454331 28.5827556,32.0130764 28.5002332,32.0130764 L27.193787,32.0130764 C27.1114552,32.0130764 27.0527556,31.9454331 27.0527556,31.8626943 L27.0527556,21.3221847 C27.0527556,21.2394459 27.1114552,21.1731401 27.193787,21.1731401 L28.5002332,21.1731401 C28.5827556,21.1731401 28.6414552,21.2394459 28.6414552,21.3221847 L28.6414552,31.8626943 Z" id="Fill-22" fill="#FEFEFE"></path>
                    </g>
                </g>
            </g>
        </g>
    </g>
</svg>