<?xml version="1.0" encoding="UTF-8"?>
<svg width="87px" height="81px" viewBox="0 0 87 81" version="1.1" xmlns="http://www.w3.org/2000/svg" xmlns:xlink="http://www.w3.org/1999/xlink">
    <!-- Generator: Sketch 60 (88103) - https://sketch.com -->
    <title>Icon/Service/Desktop/Shopify</title>
    <desc>Created with Sketch.</desc>
    <g id="Icon/Service/Desktop/Shopify" stroke="none" stroke-width="1" fill="none" fill-rule="evenodd">
        <g id="Ui/Bg-shape/Oval1" fill="#F7F8FB">
            <path d="M40.3384103,81 C61.7089332,81 81.8326505,67.2229636 85.7228185,47.944222 C89.7359764,28.0559715 83.9418513,11.8180744 73.2382769,4.51404656 C64.9429318,-1.14662612 53.3375503,-0.16971646 43.3532926,0.571916907 C23.0000773,2.40163047 1.11107234,16.898773 0.0112135966,35.1754913 C-0.535162749,61.6662884 18.9678874,81 40.3384103,81 Z" id="Oval"></path>
        </g>
        <g id="shopify-seeklogo.com" transform="translate(0.000000, 11.000000)" fill-rule="nonzero">
            <path d="M46.3281335,11.7822345 C46.2865836,11.4820563 46.0218233,11.3161431 45.8029613,11.2979214 C45.5845822,11.2796997 40.9619059,10.9397215 40.9619059,10.9397215 C40.9619059,10.9397215 37.7514454,7.7763419 37.3992368,7.42629382 C37.0465452,7.07624575 36.3580716,7.18269871 36.0908957,7.26086014 C36.0512782,7.27236857 35.3893776,7.47520465 34.2941007,7.8113467 C33.2215316,4.74866583 31.3290751,1.93389572 27.9992793,1.93389572 C27.9074829,1.93389572 27.8127874,1.93773186 27.7180922,1.94300656 C26.7711393,0.700096145 25.5980771,0.160158981 24.584934,0.160158981 C16.8286163,0.160158981 13.1229382,9.78360384 11.9609882,14.674207 C8.94716548,15.6011151 6.80589225,16.2599727 6.53243542,16.3453269 C4.85014451,16.8689604 4.79699917,16.9217074 4.57620453,18.4950057 C4.40952149,19.6861281 0.00763963964,53.4729598 0.00763963964,53.4729598 L34.3081118,59.851507 L52.8935131,55.860959 C52.8935131,55.860959 46.3692004,12.0824127 46.3281335,11.7822345 L46.3281335,11.7822345 Z M32.3982623,8.39348143 C31.536825,8.65817532 30.5575017,8.95883305 29.4960447,9.28490523 C29.4970111,9.08206915 29.4979773,8.88211019 29.4979773,8.66392954 C29.4979773,6.76024344 29.2317676,5.22770423 28.8046725,4.01260584 C30.5202999,4.22647083 31.6629244,6.16372317 32.3982623,8.39348143 L32.3982623,8.39348143 Z M26.676444,4.38998642 C27.1533024,5.57631374 27.4634779,7.2786023 27.4634779,9.57597259 C27.4634779,9.69345448 27.4625115,9.8008665 27.4615453,9.90971706 C25.5739202,10.4899337 23.5229939,11.1200203 21.4672364,11.7520248 C22.6214561,7.33086976 24.7849537,5.19557653 26.676444,4.38998642 L26.676444,4.38998642 Z M24.3718697,2.22496309 C24.7066852,2.22496309 25.0439163,2.33764979 25.3666534,2.55822803 C22.8809018,3.71914089 20.2163888,6.64324108 19.0911575,12.4823306 C17.4465514,12.9877425 15.8391471,13.4816459 14.3530107,13.9386265 C15.6710146,9.48486419 18.8007908,2.22496309 24.3718697,2.22496309 L24.3718697,2.22496309 Z" id="Shape" fill="#95BF46"></path>
            <path d="M45.8029613,11.2979214 C45.5845822,11.2796997 40.9619059,10.9397215 40.9619059,10.9397215 C40.9619059,10.9397215 37.7514454,7.7763419 37.3992368,7.42629382 C37.2673398,7.29586494 37.0895445,7.22921197 36.903536,7.20044088 L34.3100444,59.8510276 L52.8935131,55.860959 C52.8935131,55.860959 46.3692004,12.0824127 46.3281335,11.7822345 C46.2865836,11.4820563 46.0218233,11.3161431 45.8029613,11.2979214" id="Path" fill="#5E8E3E"></path>
            <path d="M27.9992793,21.4900745 L25.7077498,28.2555927 C25.7077498,28.2555927 23.6998231,27.192022 21.2387115,27.192022 C17.6306275,27.192022 17.4489671,29.4395223 17.4489671,30.0058329 C17.4489671,33.0958463 25.5647405,34.2797762 25.5647405,41.5176193 C25.5647405,47.2118945 21.9257356,50.8787679 17.0189732,50.8787679 C11.130955,50.8787679 8.12003106,47.2416247 8.12003106,47.2416247 L9.69651447,42.0719421 C9.69651447,42.0719421 12.7915046,44.7092905 15.4033555,44.7092905 C17.1098034,44.7092905 17.8040745,43.3757513 17.8040745,42.4013708 C17.8040745,38.3705433 11.1459323,38.1907241 11.1459323,31.5676229 C11.1459323,25.9932271 15.1772463,20.5986508 23.3147609,20.5986508 C26.4503349,20.5986508 27.9992793,21.4900745 27.9992793,21.4900745" id="Path" fill="#FFFFFF"></path>
        </g>
    </g>
</svg>