<?xml version="1.0" encoding="UTF-8"?>
<svg width="87px" height="81px" viewBox="0 0 87 81" version="1.1" xmlns="http://www.w3.org/2000/svg" xmlns:xlink="http://www.w3.org/1999/xlink">
    <!-- Generator: Sketch 60 (88103) - https://sketch.com -->
    <title>Icon/Service/Desktop/Website</title>
    <desc>Created with Sketch.</desc>
    <defs>
        <linearGradient x1="50%" y1="0%" x2="50%" y2="100%" id="linearGradient-1">
            <stop stop-color="#0DB0D4" offset="0%"></stop>
            <stop stop-color="#9D32FF" offset="100%"></stop>
        </linearGradient>
    </defs>
    <g id="Icon/Service/Desktop/Website" stroke="none" stroke-width="1" fill="none" fill-rule="evenodd">
        <g fill="#F7F8FB" id="Ui/Bg-shape/Oval1">
            <g>
                <path d="M40.3384103,81 C61.7089332,81 81.8326505,67.2229636 85.7228185,47.944222 C89.7359764,28.0559715 83.9418513,11.8180744 73.2382769,4.51404656 C64.9429318,-1.14662612 53.3375503,-0.16971646 43.3532926,0.571916907 C23.0000773,2.40163047 1.11107234,16.898773 0.0112135966,35.1754913 C-0.535162749,61.6662884 18.9678874,81 40.3384103,81 Z" id="Oval"></path>
            </g>
        </g>
        <path d="M57.9815693,39.0349345 C59.0538606,39.0349345 59.936924,39.9519651 60,41.0655022 L60,41.0655022 L60,68.9694323 C60,70.0829694 59.1169366,71 58.0446453,71 L58.0446453,71 L38.3649462,71 C37.2926549,71 36.4095915,70.0829694 36.4095915,68.9694323 C36.4095915,67.8558952 37.2926549,66.9388646 38.3649462,66.9388646 L38.3649462,66.9388646 L42.2756557,66.9388646 L42.2756557,43.0960699 L25.4974507,43.0960699 C24.4251594,43.0960699 23.542096,42.1790393 23.542096,41.0655022 C23.542096,39.9519651 24.4251594,39.0349345 25.4974507,39.0349345 L25.4974507,39.0349345 Z M12.945335,26 L13.207228,26.0069169 C14.2538812,26.0620139 15.2839974,26.4433994 16.0991329,27.0480349 L16.0991329,27.0480349 L20.8929057,30.3231441 C22.3436528,31.2401747 23.9205517,31.7641921 25.6236026,31.7641921 L25.6236026,31.7641921 L30.6696793,31.7641921 C31.9942744,31.7641921 33.0665657,32.8777293 33.0665657,34.2532751 C33.0665657,35.628821 31.9942744,36.7423581 30.6696793,36.7423581 L30.6696793,36.7423581 L25.6236026,36.7423581 C23.1636402,36.7423581 20.8298298,36.0218341 18.7483231,34.7117904 L18.7483231,34.7117904 L19.5052346,45.3231441 L26.9481978,45.3231441 L26.9481978,45.3231441 L27.1282983,45.328749 C28.5562815,45.4179913 29.6680331,46.5624454 29.8496918,48.0087336 L29.8496918,48.0087336 L31.8681225,67.2008734 C31.9942744,68.9039301 30.8589072,70.3449782 29.2820082,70.5414847 L29.2820082,70.5414847 L28.9666284,70.5414847 C27.4528054,70.5414847 26.2543622,69.4279476 26.0651343,67.8558952 L26.0651343,67.8558952 L24.3620835,51.349345 L11.5576639,51.349345 L11.5576639,51.349345 L11.3918094,51.3440503 C10.0707869,51.259738 8.90090451,50.1781659 8.71924575,48.7947598 L8.71924575,48.7947598 L6.32235932,32.9432314 C6.07005549,31.1746725 6.57466316,29.4061135 7.64695445,28.0960699 C8.78232171,26.7860262 10.3592207,26 12.0622715,26 L12.0622715,26 L12.945335,26 L12.945335,26 Z M1.6547384,31.371179 C2.72702969,31.2401747 3.67316907,31.9606987 3.86239694,33.0742358 L3.86239694,33.0742358 L6.38543528,49.9737991 C6.70081508,52.2008734 8.53001787,53.8384279 10.7376764,53.8384279 L10.7376764,53.8384279 L20.51445,53.8384279 C21.5867413,53.8384279 22.4698047,54.6899563 22.4698047,55.8034934 C22.4698047,56.9170306 21.5867413,57.8340611 20.51445,57.8340611 L20.51445,57.8340611 L10.7376764,57.8340611 C6.63773912,57.8340611 3.1685614,54.7554585 2.53780182,50.5633188 L2.53780182,50.5633188 L0.0147634757,33.6637555 C-0.111388441,32.5502183 0.582447102,31.5676856 1.6547384,31.371179 Z M58.8015568,13.0960699 C59.4323164,13.0960699 59.936924,13.6200873 59.8738481,14.2751092 L59.8738481,14.2751092 L59.8738481,31.1746725 C59.8738481,31.8296943 59.3692404,32.3537118 58.7384808,32.3537118 L58.7384808,32.3537118 L49.5924668,32.3537118 L49.5924668,34.4497817 L51.6108975,34.4497817 C51.9262773,34.4497817 52.1785811,34.7117904 52.1785811,35.0393013 L52.1785811,35.0393013 L52.1785811,36.1528384 C52.1785811,36.4803493 51.9262773,36.7423581 51.6108975,36.7423581 L51.6108975,36.7423581 L43.0956431,36.7423581 C42.7802633,36.7423581 42.5279595,36.4803493 42.5279595,36.1528384 L42.5279595,36.1528384 L42.5279595,35.0393013 C42.5279595,34.7117904 42.7802633,34.4497817 43.0956431,34.4497817 L43.0956431,34.4497817 L45.1140738,34.4497817 L45.1140738,32.3537118 L35.9680598,32.3537118 C35.3373002,32.3537118 34.8326926,31.8296943 34.8326926,31.1746725 L34.8326926,31.1746725 L34.8326926,14.2751092 C34.8326926,13.6200873 35.3373002,13.0960699 35.9680598,13.0960699 L35.9680598,13.0960699 Z M47.3848083,29.5371179 C47.0063526,29.5371179 46.6278968,29.8646288 46.6278968,30.3231441 C46.6278968,30.7161572 46.9432766,31.1091703 47.3848083,31.1091703 C47.82634,31.1091703 48.2047958,30.7161572 48.1417198,30.3231441 C48.1417198,29.930131 47.82634,29.5371179 47.3848083,29.5371179 Z M57.9184934,15.1921397 L36.9141992,15.1921397 L36.9141992,28.2270742 L57.9184934,28.2270742 L57.9184934,15.1921397 Z M54.0708599,22.5283843 L54.0708599,26.6550218 L47.889416,26.6550218 L47.889416,22.5283843 L54.0708599,22.5283843 Z M46.8802006,25.3449782 L46.8802006,26.6550218 L40.6987567,26.6550218 L40.6987567,25.3449782 L46.8802006,25.3449782 Z M12.5038033,11 C15.9873923,11 18.8113991,13.9326326 18.8113991,17.5502183 C18.8113991,21.167804 15.9873923,24.1004367 12.5038033,24.1004367 C9.02021426,24.1004367 6.19620741,21.167804 6.19620741,17.5502183 C6.19620741,13.9326326 9.02021426,11 12.5038033,11 Z M46.8802006,22.5283843 L46.8802006,23.8384279 L40.6987567,23.8384279 L40.6987567,22.5283843 L46.8802006,22.5283843 Z M46.8802006,16.8296943 L46.8802006,20.9563319 L40.6987567,20.9563319 L40.6987567,16.8296943 L46.8802006,16.8296943 Z M54.0708599,19.6462882 L54.0708599,20.9563319 L47.889416,20.9563319 L47.889416,19.6462882 L54.0708599,19.6462882 Z M54.0708599,16.8296943 L54.0708599,18.139738 L47.889416,18.139738 L47.889416,16.8296943 L54.0708599,16.8296943 Z" id="Website-Icon" fill="url(#linearGradient-1)"></path>
    </g>
</svg>