<svg xmlns="http://www.w3.org/2000/svg" width="40" height="40" viewBox="0 0 40 40">
  <g id="salon" transform="translate(0 0)">
    <g id="Group_648" data-name="Group 648">
      <g id="Group_647" data-name="Group 647">
        <path id="Path_1046" data-name="Path 1046" d="M39.478.521,39.472.516A1.791,1.791,0,0,0,38.22,0h0a1.778,1.778,0,0,0-1.109.389c-4.254,3.4-8.523,6.9-12.69,10.423Q22.9,12.1,21.378,13.4L9.809,1.829a2.933,2.933,0,0,0-4.143,0L.172,7.323A.586.586,0,0,0,1,8.152L4.838,4.315l.839.839L1.839,8.99a.586.586,0,0,0,.829.829L6.5,5.982l.839.839L3.506,10.658a.586.586,0,0,0,.829.829L8.172,7.649l.839.839L5.173,12.325A.586.586,0,0,0,6,13.153L9.839,9.316l.839.839L6.84,13.992a.586.586,0,0,0,.829.829l3.837-3.837.839.839L8.508,15.659a.586.586,0,0,0,.829.829l3.837-3.837.839.839-3.837,3.837a.586.586,0,0,0,.829.829l3.837-3.837.839.839-3.837,3.837a.586.586,0,0,0,.829.829l3.837-3.837.868.868q-2.7,2.35-5.359,4.721h0c-.526.468-1.1,1.006-1.665,1.516a.59.59,0,0,0-.109.863h0a3.915,3.915,0,0,1-.266,5.232L8.21,30.955a4.1,4.1,0,1,1,.253-5.44.587.587,0,0,0,.848.066l.009-.008.005,0a.586.586,0,0,0-.052-.911,5.265,5.265,0,0,0-4-1.834H5.268A5.271,5.271,0,1,0,6.884,33.111,5.273,5.273,0,0,0,11.9,40h.006a5.271,5.271,0,0,0,3.769-8.956l1.2-1.36q3.166-3.523,6.262-7.074l.883.883-3.837,3.837a.586.586,0,0,0,.829.829l3.837-3.837.839.839L21.845,29a.586.586,0,0,0,.829.829l3.837-3.837.838.838-3.837,3.837a.586.586,0,0,0,.829.829l3.837-3.837.838.838L25.18,32.331a.586.586,0,0,0,.829.829l3.837-3.837.839.839L26.847,34a.586.586,0,0,0,.829.829l3.837-3.837.838.838-3.837,3.837a.586.586,0,0,0,.829.829l3.837-3.837.838.838-3.837,3.837a.586.586,0,0,0,.829.829l3.837-3.837.838.838L31.849,39a.586.586,0,0,0,.829.829l4.251-4.251h0l1.242-1.242a2.93,2.93,0,0,0,0-4.143L26.59,18.61c4.493-5.241,8.848-10.5,13.021-15.72A1.777,1.777,0,0,0,39.478.521ZM5.666,3.486l.829-.829a1.76,1.76,0,0,1,2.486,0L20.486,14.163q-1.113.956-2.224,1.919ZM37.343,31.02a1.757,1.757,0,0,1,0,2.486l-.829.829L23.9,21.723q.964-1.11,1.921-2.222ZM16.325,28.536a2.24,2.24,0,0,1-1.167-1.663.586.586,0,0,0-1.164.138h0a3.194,3.194,0,0,0,1.423,2.316c.041.027.083.055.126.087-.406.464-.742.854-1.127,1.279a.587.587,0,0,0,.066.848A4.1,4.1,0,1,1,7.8,34.73a4.189,4.189,0,0,1,1.266-2.975l1.738-1.738a5.088,5.088,0,0,0,1.486-3.6,5.01,5.01,0,0,0-.816-2.757c.459-.42.858-.792,1.321-1.2l0,0C25.5,11.119,37.691,1.382,37.92,1.251,37.763,1.408,14.9,24.259,14.8,24.378a.586.586,0,1,0,.877.778c.07-.08,22.909-22.91,23.076-23.077C38.7,2.163,29.264,14.116,16.325,28.536Z" transform="translate(0)" fill="#818181"/>
      </g>
    </g>
    <g id="Group_650" data-name="Group 650" transform="translate(2.346 25.159)">
      <g id="Group_649" data-name="Group 649">
        <path id="Path_1047" data-name="Path 1047" d="M35.01,322.923a2.929,2.929,0,1,0,0,4.145A2.935,2.935,0,0,0,35.01,322.923Zm-.829,3.316a1.758,1.758,0,1,1-1.244-3A1.761,1.761,0,0,1,34.181,326.239Z" transform="translate(-30.006 -322.063)" fill="#818181"/>
      </g>
    </g>
    <g id="Group_652" data-name="Group 652" transform="translate(8.969 31.796)">
      <g id="Group_651" data-name="Group 651">
        <path id="Path_1048" data-name="Path 1048" d="M117.753,407.051a2.933,2.933,0,0,0-.024,5.866,2.979,2.979,0,0,0,1.142-.231,2.885,2.885,0,0,0,1.814-2.7A2.934,2.934,0,0,0,117.753,407.051Zm.669,4.552a1.755,1.755,0,1,1-.669-3.379,1.76,1.76,0,0,1,1.759,1.758A1.735,1.735,0,0,1,118.421,411.6Z" transform="translate(-114.818 -407.051)" fill="#818181"/>
      </g>
    </g>
  </g>
</svg>
