<svg xmlns="http://www.w3.org/2000/svg" width="50.24" height="50.303" viewBox="0 0 50.24 50.303">
  <g id="shipping" transform="translate(0 0)">
    <path id="Path_850" data-name="Path 850" d="M28.081,6.262a4.305,4.305,0,0,1,2.374-2.12,5.187,5.187,0,0,0-8.367,3.192h5.457Z" transform="translate(-5.534 -2.998)" fill="#7dc4a6"/>
    <path id="Path_851" data-name="Path 851" d="M30.764,7.437l-.148.3h7.269a.867.867,0,0,0,0-1.735H33.092A2.589,2.589,0,0,0,30.764,7.437Z" transform="translate(-6.666 -3.396)" fill="#7dc4a6"/>
    <path id="Path_852" data-name="Path 852" d="M47,48.664h3.11L53.173,45.6a8.475,8.475,0,0,0,2.219-3.891c-2.739-.172-4.923-2.818-4.923-6.054a6.745,6.745,0,0,1,.938-3.472,8.473,8.473,0,0,0-1.271-.606l-1.4-.525V21.779a2.587,2.587,0,0,0-.461-1.447A3.047,3.047,0,0,1,47,21.474Z" transform="translate(-8.84 -5.299)" fill="#7dc4a6"/>
    <path id="Path_853" data-name="Path 853" d="M27.214,14.334A5.208,5.208,0,0,0,32.339,10H22.088a5.208,5.208,0,0,0,5.126,4.336Z" transform="translate(-5.534 -3.927)" fill="#7dc4a6"/>
    <path id="Path_854" data-name="Path 854" d="M9,23h3.469v3.469H9Z" transform="translate(-3.796 -5.653)" fill="#7dc4a6"/>
    <path id="Path_855" data-name="Path 855" d="M17.743,35.142h.962A6.05,6.05,0,0,1,16.875,30.8V23.867A7.749,7.749,0,0,1,16.926,23H13.407v5.2H6.469V23h-2.6A.868.868,0,0,0,3,23.867V34.274a.868.868,0,0,0,.867.867H17.743Z" transform="translate(-3 -5.653)" fill="#7dc4a6"/>
    <path id="Path_856" data-name="Path 856" d="M52.735,27.469h1.735V24H52.735a1.735,1.735,0,0,0,0,3.469Z" transform="translate(-9.371 -5.786)" fill="#7dc4a6"/>
    <path id="Path_857" data-name="Path 857" d="M57,24h1.735v3.469H57Z" transform="translate(-10.168 -5.786)" fill="#7dc4a6"/>
    <path id="Path_858" data-name="Path 858" d="M57.08,48.024A10.317,10.317,0,0,1,55.251,50.5L53.414,52.34h6.517a6.071,6.071,0,0,0-2.852-4.316Z" transform="translate(-9.692 -8.975)" fill="#7dc4a6"/>
    <path id="Path_859" data-name="Path 859" d="M53.612,35.178A5.042,5.042,0,0,0,53,37.625c0,2.382,1.545,4.32,3.448,4.334.007-.14.021-.28.021-.421A8.569,8.569,0,0,0,53.612,35.178Z" transform="translate(-9.637 -7.27)" fill="#7dc4a6"/>
    <path id="Path_860" data-name="Path 860" d="M51.626,56.735A2.6,2.6,0,0,0,54.069,55H49.185A2.6,2.6,0,0,0,51.626,56.735Z" transform="translate(-9.13 -9.901)" fill="#7dc4a6"/>
    <path id="Path_861" data-name="Path 861" d="M21.743,39H11.336A4.341,4.341,0,0,0,7,43.336v.955a4.332,4.332,0,0,1,.867-.088H20.009a4.341,4.341,0,0,1,4.336,4.336v2.6H26.08V43.336A4.341,4.341,0,0,0,21.743,39Z" transform="translate(-3.531 -7.777)" fill="#7dc4a6"/>
    <path id="Path_862" data-name="Path 862" d="M19.743,47H7.6a2.6,2.6,0,0,0,0,5.2H22.345V49.6A2.6,2.6,0,0,0,19.743,47ZM8.469,50.469H6.735V48.735H8.469Zm3.469,0H10.2V48.735h1.735Zm3.469,0H13.673V48.735h1.735Z" transform="translate(-3.266 -8.839)" fill="#7dc4a6"/>
    <path id="Path_863" data-name="Path 863" d="M14.081,58.469A4.344,4.344,0,0,1,9.833,55H8.08a6.063,6.063,0,0,0,12,0H18.33A4.344,4.344,0,0,1,14.081,58.469Z" transform="translate(-3.674 -9.901)" fill="#7dc4a6"/>
    <path id="Path_864" data-name="Path 864" d="M17.069,55H12.185a2.586,2.586,0,0,0,4.884,0Z" transform="translate(-4.219 -9.901)" fill="#7dc4a6"/>
    <path id="Path_865" data-name="Path 865" d="M51.081,58.469A4.344,4.344,0,0,1,46.833,55H45.08a6.063,6.063,0,0,0,12,0H55.33A4.344,4.344,0,0,1,51.081,58.469Z" transform="translate(-8.585 -9.901)" fill="#7dc4a6"/>
    <path id="Path_866" data-name="Path 866" d="M35.824,35.008a5.189,5.189,0,0,0-4.21-3.941l-1.942-.324,0-9.407H26.2V19.6H42.248a1.3,1.3,0,0,0,0-2.6L27.071,17A6.079,6.079,0,0,0,21,23.071v6.937a4.341,4.341,0,0,0,4.335,4.336h2.5a4.33,4.33,0,0,1,4.207,3.284L34.3,46.665a2.054,2.054,0,0,0,4.047-.5v-.209a2.085,2.085,0,0,0-.055-.472Z" transform="translate(-5.389 -4.856)" fill="#7dc4a6"/>
  </g>
</svg>
