<svg id="website_1_" data-name="website (1)" xmlns="http://www.w3.org/2000/svg" width="51.724" height="50" viewBox="0 0 51.724 50">
  <rect id="Rectangle_1299" data-name="Rectangle 1299" width="22.476" height="2.593" transform="translate(12.903 8.619)" fill="#7dc4a6"/>
  <rect id="Rectangle_1300" data-name="Rectangle 1300" width="5.187" height="1.729" transform="translate(16.374 18.102)" fill="#7dc4a6"/>
  <path id="Path_815" data-name="Path 815" d="M325.045,212.757a.962.962,0,0,1-.288-.692.975.975,0,0,1,.286-.692l.669-.669-5.72-1.716,1.094,3.649.622,2.071.624-.624a1.129,1.129,0,0,1,1.6,0l1.9,1.9,1.222-1.223Z" transform="translate(-287.68 -188.747)" fill="#7dc4a6"/>
  <path id="Path_816" data-name="Path 816" d="M128.009,136.533v10.374h18.553l-.8-2.675q-.15-.5-.3-1c-.127-.424-.271-.86.072-1.234l.026-.027c.434-.437,1.028-.167,1.531-.016l1.674.5,1.723.517v-6.444H128.009Zm10.373,7.78a.865.865,0,0,1-.864.864H130.6a.865.865,0,0,1-.864-.864v-3.458a.865.865,0,0,1,.864-.864h6.916a.865.865,0,0,1,.864.864Z" transform="translate(-115.105 -123.611)" fill="#7dc4a6"/>
  <path id="Path_817" data-name="Path 817" d="M47.414,332.8H0v3.457a3.458,3.458,0,0,0,3.449,3.459h17.2c-.2,3.428-1.628,5.187-4.269,5.187H14.655a2.593,2.593,0,0,0,0,5.187H37.069a2.593,2.593,0,0,0,0-5.187H35.345c-2.641,0-4.064-1.758-4.269-5.187h17.2a3.458,3.458,0,0,0,3.449-3.459V332.8Zm-24.138,1.729h5.172a.864.864,0,0,1,0,1.729H23.276a.864.864,0,0,1,0-1.729Zm7.87,10.374H20.578a8.286,8.286,0,0,0,1.812-5.187h6.944A8.292,8.292,0,0,0,31.146,344.9Z" transform="translate(0 -300.09)" fill="#7dc4a6"/>
  <path id="Path_818" data-name="Path 818" d="M51.2,59.733V85.667H92.55V59.733Zm36,21.507-2.436,2.446a.859.859,0,0,1-1.218,0L81.462,81.6l-1.218,1.223a.86.86,0,0,1-1.434-.363l-.85-2.842H58.093a.863.863,0,0,1-.861-.864V62.326a.863.863,0,0,1,.861-.864H82.214a.863.863,0,0,1,.861.864V74.476l2.838.854a.865.865,0,0,1,.361,1.439L85.117,77.93l2.08,2.087A.867.867,0,0,1,87.2,81.24Z" transform="translate(-46.013 -54.546)" fill="#7dc4a6"/>
  <path id="Path_819" data-name="Path 819" d="M48.275,8.533H3.449A3.458,3.458,0,0,0,0,11.992V39.654H3.448v-26.8a.864.864,0,0,1,.862-.864h43.1a.864.864,0,0,1,.862.864v26.8h3.448V11.992A3.458,3.458,0,0,0,48.275,8.533Z" transform="translate(0 -8.533)" fill="#7dc4a6"/>
</svg>
