<svg xmlns="http://www.w3.org/2000/svg" width="215" height="200" viewBox="0 0 215 200">
    <g fill="none" fill-rule="evenodd">
        <g>
            <g>
                <g>
                    <g>
                        <g>
                            <path fill="#F2F7FF" fill-rule="nonzero" d="M188.742 135.116c-19.113 45.263-70.026 70.62-114.178 63.779-7.185-1.113-26.88-4.428-44.319-20.069-33.57-30.11-40.749-89.73-13.669-131.746C36.286 16.499 71.616-.836 105.188.03c7.232.187 34.945 1.338 59.3 21.536 3.577 2.967 11.468 10.016 18.579 21.2 16.697 26.262 18.132 62.85 5.675 92.35z" transform="translate(-565.000000, -2961.000000) translate(135.000000, 2743.000000) translate(0.000000, 188.000000) translate(400.000000, 0.000000) translate(30.000000, 30.000000)"/>
                            <g>
                                <path fill="#F5F5FE" fill-rule="nonzero" d="M138.65 155.264l-.177-.305c5.048-2.943 10.927-3.172 16.612-3.392 2.329-.09 4.736-.184 7.023-.467 10.697-1.325 18.583-8.213 21.093-18.427 2.29-9.318-.268-19.29-6.676-26.023-.325-.34-.657-.687-.98-1.02-2.226-2.317-4.528-4.712-6.17-7.53-1.037-1.781-1.72-3.721-2.029-5.765-.286-1.892-.255-3.89.091-5.938.625-3.69 2.265-7.507 4.741-11.04.655-.933 1.347-1.87 2.016-2.776 2.144-2.904 4.362-5.908 5.768-9.345 1.681-4.114 2.074-9.379 1.106-14.827-1.58-8.887-6.592-16.887-13.407-21.401-8.842-5.856-18.192-4.583-28.09-3.234-4.127.562-8.366 1.14-12.556 1.14-1.089 0-2.174-.04-3.254-.128-1.916-.157-3.832-.497-5.695-1.01-1.876-.518-3.707-1.213-5.443-2.068-3.617-1.781-6.753-4.196-9.32-7.176C95.939 5.982 85.86 1.29 76.179 1.29c-4.209 0-8.34.885-12.143 2.726C56.38 7.72 50.09 14.751 46.782 23.306c-1.883 4.867-2.262 10.15-2.629 15.259-.343 4.785-.699 9.734-2.273 14.412-.887 2.634-2.202 5.233-3.803 7.517-1.71 2.438-3.677 4.455-5.848 5.995-5.886 4.175-9.889 8.183-12.596 12.613-3.91 6.4-4.784 13.974-2.28 19.77 1.792 4.148 5.273 6.8 8.64 9.363 1.748 1.332 3.556 2.709 5.09 4.273 1.725 1.759 2.917 3.578 3.645 5.562.603 1.642.891 3.545.882 5.817-.012 2.646-.501 5.357-.975 7.978-.803 4.449-1.634 9.049-.14 13.453.977 2.879 3.432 4.97 7.298 6.217 2.714.875 6.039 1.329 10.164 1.387 1.22.018 2.47.007 3.678-.003 4.764-.04 9.691-.081 14.22 1.542l-.119.332c-4.47-1.601-9.364-1.56-14.098-1.521-1.21.01-2.463.02-3.686.003-4.16-.059-7.519-.518-10.267-1.404-3.978-1.283-6.51-3.45-7.523-6.44-1.523-4.49-.685-9.136.127-13.629.47-2.606.957-5.301.968-7.917.01-2.23-.272-4.092-.86-5.694-1.584-4.317-5-6.92-8.618-9.675-3.402-2.592-6.92-5.272-8.75-9.505-.676-1.565-1.123-3.255-1.328-5.021-.194-1.678-.171-3.43.068-5.206.457-3.388 1.69-6.799 3.563-9.866 2.734-4.472 6.767-8.513 12.693-12.716 4.2-2.98 7.67-7.841 9.52-13.338 1.56-4.635 1.915-9.561 2.257-14.325.368-5.135.75-10.444 2.651-15.36 3.341-8.637 9.694-15.738 17.429-19.48C67.205 2.09 70.779 1.169 74.503.96c3.52-.197 7.124.24 10.713 1.3 6.906 2.042 13.424 6.318 18.354 12.042 4.993 5.796 12.362 9.49 20.22 10.133 5.196.425 10.553-.304 15.734-1.01 4.766-.65 9.694-1.32 14.439-1.076 2.558.132 4.864.512 7.048 1.162 2.453.73 4.691 1.777 6.845 3.203 3.414 2.261 6.47 5.477 8.84 9.3 2.318 3.74 3.95 8.005 4.719 12.334.462 2.6.623 5.16.476 7.606-.162 2.716-.702 5.21-1.603 7.416-1.422 3.478-3.653 6.499-5.81 9.421-.668.904-1.359 1.84-2.01 2.77-5.409 7.711-6.45 16.07-2.788 22.361 1.62 2.782 3.907 5.161 6.12 7.462.322.335.654.681.98 1.023 3.206 3.37 5.525 7.626 6.705 12.312 1.161 4.613 1.181 9.467.058 14.038-.634 2.58-1.621 4.99-2.933 7.158-1.285 2.124-2.88 4.018-4.74 5.627-3.715 3.213-8.459 5.256-13.72 5.907-2.301.285-4.716.379-7.051.47-5.642.22-11.477.446-16.449 3.345z" transform="translate(-565.000000, -2961.000000) translate(135.000000, 2743.000000) translate(0.000000, 188.000000) translate(400.000000, 0.000000) translate(30.000000, 30.000000) translate(15.000000, 2.000000)"/>
                                <path fill="#E4EDFB" fill-rule="nonzero" d="M63.095 34.11c.115-.696-.807-2.1-1.812-2.077-.4.009-.791.113-1.19.093-1.064-.052-1.615-.88-2.025-1.566-.41-.686-1.227-1.468-2.264-1.294-1.492.25-2.245 2.22-3.941.742-1.11-.968-1.194-2.322-2.452-3.26-.863-.645-2.267-1.026-3.424-.67-1.51.464-2.073 1.962-3.68 2.222-1.782.29-3.063-1.066-3.632-2.044-.69-1.185-.946-2.467-1.537-3.674-.547-1.117-1.647-2.614-3.618-2.581-1.667.027-2.401 1.082-3.22 1.92-1.064 1.09-3.275 5.001-5.755 4.53-.967-.185-1.45-.952-2.322-1.296-1.403-.553-3.19.207-4.036 1.163-.845.955-1.18 2.11-2.135 3.014-.248.234-.548.455-.935.561-1.335.365-2.576-.758-4.004-.841-.986-.058-1.9.405-2.467.97-.566.565-.876 1.232-1.31 1.852-.12.172-.257.347-.475.464-.627.336-1.508.052-2.276-.08-1.896-.326-4.05.545-4.585 1.853h63.095z" transform="translate(-565.000000, -2961.000000) translate(135.000000, 2743.000000) translate(0.000000, 188.000000) translate(400.000000, 0.000000) translate(30.000000, 30.000000) translate(15.000000, 2.000000)"/>
                                <path fill="#F5F5FE" fill-rule="nonzero" d="M38.253 40.958c.059-.358-.415-1.08-.932-1.069-.205.005-.406.058-.612.048-.547-.026-.83-.452-1.04-.805-.211-.352-.631-.754-1.164-.665-.767.13-1.154 1.142-2.026.381-.571-.497-.614-1.193-1.26-1.676-.445-.33-1.166-.527-1.761-.344-.777.239-1.066 1.009-1.892 1.143-.916.148-1.574-.549-1.867-1.051-.354-.61-.486-1.27-.79-1.89-.281-.574-.847-1.343-1.86-1.327-.857.014-1.235.557-1.655.987-.547.56-1.684 2.572-2.958 2.33-.498-.095-.746-.49-1.194-.667-.721-.284-1.64.106-2.075.598-.434.491-.607 1.084-1.098 1.55-.127.12-.281.233-.48.287-.686.188-1.325-.39-2.059-.432-.507-.03-.977.208-1.268.499-.291.29-.45.633-.673.952-.062.088-.132.178-.245.238-.322.173-.775.027-1.17-.04-.975-.168-2.082.279-2.357.952h32.436z" transform="translate(-565.000000, -2961.000000) translate(135.000000, 2743.000000) translate(0.000000, 188.000000) translate(400.000000, 0.000000) translate(30.000000, 30.000000) translate(15.000000, 2.000000)"/>
                                <g>
                                    <g fill-rule="nonzero">
                                        <g>
                                            <g fill="#E4EDFB">
                                                <path d="M22.029 9.639H36.612V75.283H22.029z" transform="translate(-565.000000, -2961.000000) translate(135.000000, 2743.000000) translate(0.000000, 188.000000) translate(400.000000, 0.000000) translate(30.000000, 30.000000) translate(15.000000, 2.000000) translate(0.000000, 40.308938) translate(0.000000, 21.595681) translate(85.502899, 0.000000) translate(64.747051, 21.875625) translate(29.320584, 42.461040) rotate(-180.000000) translate(-29.320584, -42.461040)"/>
                                                <path d="M.022 29.786H22.028V75.28399999999999H.022zM27.735 43.33H49.741V75.283H27.735z" transform="translate(-565.000000, -2961.000000) translate(135.000000, 2743.000000) translate(0.000000, 188.000000) translate(400.000000, 0.000000) translate(30.000000, 30.000000) translate(15.000000, 2.000000) translate(0.000000, 40.308938) translate(0.000000, 21.595681) translate(85.502899, 0.000000) translate(64.747051, 21.875625)"/>
                                                <path d="M22.029 6.431H33.872V9.64H22.029z" transform="translate(-565.000000, -2961.000000) translate(135.000000, 2743.000000) translate(0.000000, 188.000000) translate(400.000000, 0.000000) translate(30.000000, 30.000000) translate(15.000000, 2.000000) translate(0.000000, 40.308938) translate(0.000000, 21.595681) translate(85.502899, 0.000000) translate(64.747051, 21.875625) translate(27.950282, 8.035329) rotate(-180.000000) translate(-27.950282, -8.035329)"/>
                                                <path d="M22.029 3.222H31.719V6.431H22.029z" transform="translate(-565.000000, -2961.000000) translate(135.000000, 2743.000000) translate(0.000000, 188.000000) translate(400.000000, 0.000000) translate(30.000000, 30.000000) translate(15.000000, 2.000000) translate(0.000000, 40.308938) translate(0.000000, 21.595681) translate(85.502899, 0.000000) translate(64.747051, 21.875625) translate(26.873625, 4.826595) rotate(-180.000000) translate(-26.873625, -4.826595)"/>
                                                <path d="M22.029 0.014H29.663V3.223H22.029z" transform="translate(-565.000000, -2961.000000) translate(135.000000, 2743.000000) translate(0.000000, 188.000000) translate(400.000000, 0.000000) translate(30.000000, 30.000000) translate(15.000000, 2.000000) translate(0.000000, 40.308938) translate(0.000000, 21.595681) translate(85.502899, 0.000000) translate(64.747051, 21.875625) translate(25.846047, 1.617864) rotate(-180.000000) translate(-25.846047, -1.617864)"/>
                                            </g>
                                            <path fill="#E4EDFB" d="M29.206 31.515H43.789V97.159H29.206z" transform="translate(-565.000000, -2961.000000) translate(135.000000, 2743.000000) translate(0.000000, 188.000000) translate(400.000000, 0.000000) translate(30.000000, 30.000000) translate(15.000000, 2.000000) translate(0.000000, 40.308938) translate(0.000000, 21.595681) translate(85.502899, 0.000000) translate(36.497876, 64.336665) rotate(-180.000000) translate(-36.497876, -64.336665)"/>
                                            <path fill="#E4EDFB" d="M69.098 10.262H83.681V97.158H69.098z" transform="translate(-565.000000, -2961.000000) translate(135.000000, 2743.000000) translate(0.000000, 188.000000) translate(400.000000, 0.000000) translate(30.000000, 30.000000) translate(15.000000, 2.000000) translate(0.000000, 40.308938) translate(0.000000, 21.595681) translate(85.502899, 0.000000) translate(76.389958, 53.710538) rotate(-180.000000) translate(-76.389958, -53.710538)"/>
                                            <path fill="#DBCDFE" d="M0.039 71.757H29.206000000000003V97.159H0.039z" transform="translate(-565.000000, -2961.000000) translate(135.000000, 2743.000000) translate(0.000000, 188.000000) translate(400.000000, 0.000000) translate(30.000000, 30.000000) translate(15.000000, 2.000000) translate(0.000000, 40.308938) translate(0.000000, 21.595681) translate(85.502899, 0.000000) translate(14.622711, 84.457884) rotate(-180.000000) translate(-14.622711, -84.457884)"/>
                                            <path fill="#E4EDFB" d="M36.498 0.012H65.79599999999999V97.159H36.498z" transform="translate(-565.000000, -2961.000000) translate(135.000000, 2743.000000) translate(0.000000, 188.000000) translate(400.000000, 0.000000) translate(30.000000, 30.000000) translate(15.000000, 2.000000) translate(0.000000, 40.308938) translate(0.000000, 21.595681) translate(85.502899, 0.000000) translate(51.146691, 48.585379) rotate(-180.000000) translate(-51.146691, -48.585379)"/>
                                            <path fill="#E4EDFB" d="M29.206 28.307H41.049V31.516H29.206z" transform="translate(-565.000000, -2961.000000) translate(135.000000, 2743.000000) translate(0.000000, 188.000000) translate(400.000000, 0.000000) translate(30.000000, 30.000000) translate(15.000000, 2.000000) translate(0.000000, 40.308938) translate(0.000000, 21.595681) translate(85.502899, 0.000000) translate(35.127534, 29.910954) rotate(-180.000000) translate(-35.127534, -29.910954)"/>
                                            <path fill="#E4EDFB" d="M29.206 25.098H38.896V28.307H29.206z" transform="translate(-565.000000, -2961.000000) translate(135.000000, 2743.000000) translate(0.000000, 188.000000) translate(400.000000, 0.000000) translate(30.000000, 30.000000) translate(15.000000, 2.000000) translate(0.000000, 40.308938) translate(0.000000, 21.595681) translate(85.502899, 0.000000) translate(34.050898, 26.702220) rotate(-180.000000) translate(-34.050898, -26.702220)"/>
                                            <path fill="#DBCDFE" d="M29.206 21.889H36.84V25.098H29.206z" transform="translate(-565.000000, -2961.000000) translate(135.000000, 2743.000000) translate(0.000000, 188.000000) translate(400.000000, 0.000000) translate(30.000000, 30.000000) translate(15.000000, 2.000000) translate(0.000000, 40.308938) translate(0.000000, 21.595681) translate(85.502899, 0.000000) translate(33.023343, 23.493489) rotate(-180.000000) translate(-33.023343, -23.493489)"/>
                                        </g>
                                        <g>
                                            <g>
                                                <path fill="#E4EDFB" d="M22.021 14.758H36.604V80.402H22.021z" transform="translate(-565.000000, -2961.000000) translate(135.000000, 2743.000000) translate(0.000000, 188.000000) translate(400.000000, 0.000000) translate(30.000000, 30.000000) translate(15.000000, 2.000000) translate(0.000000, 40.308938) translate(0.000000, 21.595681) translate(0.000000, 16.756649) translate(64.747051, 0.000000) translate(29.312705, 47.580016) rotate(-180.000000) translate(-29.312705, -47.580016)"/>
                                                <path fill="#DBCDFE" d="M36.604 25.855H51.187V80.402H36.604z" transform="translate(-565.000000, -2961.000000) translate(135.000000, 2743.000000) translate(0.000000, 188.000000) translate(400.000000, 0.000000) translate(30.000000, 30.000000) translate(15.000000, 2.000000) translate(0.000000, 40.308938) translate(0.000000, 21.595681) translate(0.000000, 16.756649) translate(64.747051, 0.000000)"/>
                                                <path fill="#E4EDFB" d="M0.015 0.038H22.021V80.40299999999999H0.015z" transform="translate(-565.000000, -2961.000000) translate(135.000000, 2743.000000) translate(0.000000, 188.000000) translate(400.000000, 0.000000) translate(30.000000, 30.000000) translate(15.000000, 2.000000) translate(0.000000, 40.308938) translate(0.000000, 21.595681) translate(0.000000, 16.756649) translate(64.747051, 0.000000)"/>
                                                <path fill="#E4EDFB" d="M22.021 11.55H33.864000000000004V14.759H22.021z" transform="translate(-565.000000, -2961.000000) translate(135.000000, 2743.000000) translate(0.000000, 188.000000) translate(400.000000, 0.000000) translate(30.000000, 30.000000) translate(15.000000, 2.000000) translate(0.000000, 40.308938) translate(0.000000, 21.595681) translate(0.000000, 16.756649) translate(64.747051, 0.000000) translate(27.942384, 13.154305) rotate(-180.000000) translate(-27.942384, -13.154305)"/>
                                                <path fill="#E4EDFB" d="M22.021 8.341H31.711V11.549999999999999H22.021z" transform="translate(-565.000000, -2961.000000) translate(135.000000, 2743.000000) translate(0.000000, 188.000000) translate(400.000000, 0.000000) translate(30.000000, 30.000000) translate(15.000000, 2.000000) translate(0.000000, 40.308938) translate(0.000000, 21.595681) translate(0.000000, 16.756649) translate(64.747051, 0.000000) translate(26.865747, 9.945571) rotate(-180.000000) translate(-26.865747, -9.945571)"/>
                                                <path fill="#DBCDFE" d="M22.021 5.133H29.655V8.342H22.021z" transform="translate(-565.000000, -2961.000000) translate(135.000000, 2743.000000) translate(0.000000, 188.000000) translate(400.000000, 0.000000) translate(30.000000, 30.000000) translate(15.000000, 2.000000) translate(0.000000, 40.308938) translate(0.000000, 21.595681) translate(0.000000, 16.756649) translate(64.747051, 0.000000) translate(25.838172, 6.736841) rotate(-180.000000) translate(-25.838172, -6.736841)"/>
                                            </g>
                                            <g>
                                                <path fill="#E4EDFB" d="M29.198 9.639H43.781V75.283H29.198z" transform="translate(-565.000000, -2961.000000) translate(135.000000, 2743.000000) translate(0.000000, 188.000000) translate(400.000000, 0.000000) translate(30.000000, 30.000000) translate(15.000000, 2.000000) translate(0.000000, 40.308938) translate(0.000000, 21.595681) translate(0.000000, 16.756649) translate(0.000000, 5.118976) translate(36.489998, 42.461040) rotate(-180.000000) translate(-36.489998, -42.461040)"/>
                                                <path fill="#E4EDFB" d="M14.615 20.736H29.198V75.283H14.615z" transform="translate(-565.000000, -2961.000000) translate(135.000000, 2743.000000) translate(0.000000, 188.000000) translate(400.000000, 0.000000) translate(30.000000, 30.000000) translate(15.000000, 2.000000) translate(0.000000, 40.308938) translate(0.000000, 21.595681) translate(0.000000, 16.756649) translate(0.000000, 5.118976) translate(21.906691, 48.009338) rotate(-180.000000) translate(-21.906691, -48.009338)"/>
                                                <path fill="#E4EDFB" d="M47.215 11.633H61.798V75.283H47.215z" transform="translate(-565.000000, -2961.000000) translate(135.000000, 2743.000000) translate(0.000000, 188.000000) translate(400.000000, 0.000000) translate(30.000000, 30.000000) translate(15.000000, 2.000000) translate(0.000000, 40.308938) translate(0.000000, 21.595681) translate(0.000000, 16.756649) translate(0.000000, 5.118976) translate(54.506415, 43.458184) rotate(-180.000000) translate(-54.506415, -43.458184)"/>
                                                <path fill="#E4EDFB" d="M0.032 43.596H14.615V75.28399999999999H0.032z" transform="translate(-565.000000, -2961.000000) translate(135.000000, 2743.000000) translate(0.000000, 188.000000) translate(400.000000, 0.000000) translate(30.000000, 30.000000) translate(15.000000, 2.000000) translate(0.000000, 40.308938) translate(0.000000, 21.595681) translate(0.000000, 16.756649) translate(0.000000, 5.118976) translate(7.323375, 59.439416) rotate(-180.000000) translate(-7.323375, -59.439416)"/>
                                                <path fill="#E4EDFB" d="M29.198 6.431H41.041V9.64H29.198z" transform="translate(-565.000000, -2961.000000) translate(135.000000, 2743.000000) translate(0.000000, 188.000000) translate(400.000000, 0.000000) translate(30.000000, 30.000000) translate(15.000000, 2.000000) translate(0.000000, 40.308938) translate(0.000000, 21.595681) translate(0.000000, 16.756649) translate(0.000000, 5.118976) translate(35.119668, 8.035329) rotate(-180.000000) translate(-35.119668, -8.035329)"/>
                                                <path fill="#DBCDFE" d="M13.44 61.379H25.283V64.588H13.44z" transform="translate(-565.000000, -2961.000000) translate(135.000000, 2743.000000) translate(0.000000, 188.000000) translate(400.000000, 0.000000) translate(30.000000, 30.000000) translate(15.000000, 2.000000) translate(0.000000, 40.308938) translate(0.000000, 21.595681) translate(0.000000, 16.756649) translate(0.000000, 5.118976) translate(19.361916, 62.983243) rotate(-180.000000) translate(-19.361916, -62.983243)"/>
                                                <path fill="#E4EDFB" d="M29.198 3.222H38.888V6.431H29.198z" transform="translate(-565.000000, -2961.000000) translate(135.000000, 2743.000000) translate(0.000000, 188.000000) translate(400.000000, 0.000000) translate(30.000000, 30.000000) translate(15.000000, 2.000000) translate(0.000000, 40.308938) translate(0.000000, 21.595681) translate(0.000000, 16.756649) translate(0.000000, 5.118976) translate(34.043031, 4.826595) rotate(-180.000000) translate(-34.043031, -4.826595)"/>
                                                <path fill="#E4EDFB" d="M29.198 0.014H36.832V3.223H29.198z" transform="translate(-565.000000, -2961.000000) translate(135.000000, 2743.000000) translate(0.000000, 188.000000) translate(400.000000, 0.000000) translate(30.000000, 30.000000) translate(15.000000, 2.000000) translate(0.000000, 40.308938) translate(0.000000, 21.595681) translate(0.000000, 16.756649) translate(0.000000, 5.118976) translate(33.015465, 1.617864) rotate(-180.000000) translate(-33.015465, -1.617864)"/>
                                            </g>
                                            <path fill="#DBCDFE" d="M92.16 32.005H111.332V35.214000000000006H92.16z" transform="translate(-565.000000, -2961.000000) translate(135.000000, 2743.000000) translate(0.000000, 188.000000) translate(400.000000, 0.000000) translate(30.000000, 30.000000) translate(15.000000, 2.000000) translate(0.000000, 40.308938) translate(0.000000, 21.595681) translate(0.000000, 16.756649) translate(101.745595, 33.609470) rotate(-180.000000) translate(-101.745595, -33.609470)"/>
                                            <path fill="#DBCDFE" d="M92.16 43.503H111.332V46.712H92.16z" transform="translate(-565.000000, -2961.000000) translate(135.000000, 2743.000000) translate(0.000000, 188.000000) translate(400.000000, 0.000000) translate(30.000000, 30.000000) translate(15.000000, 2.000000) translate(0.000000, 40.308938) translate(0.000000, 21.595681) translate(0.000000, 16.756649) translate(101.745595, 45.107055) rotate(-180.000000) translate(-101.745595, -45.107055)"/>
                                            <path fill="#DBCDFE" d="M92.16 55H111.332V58.209H92.16z" transform="translate(-565.000000, -2961.000000) translate(135.000000, 2743.000000) translate(0.000000, 188.000000) translate(400.000000, 0.000000) translate(30.000000, 30.000000) translate(15.000000, 2.000000) translate(0.000000, 40.308938) translate(0.000000, 21.595681) translate(0.000000, 16.756649) translate(101.745595, 56.604635) rotate(-180.000000) translate(-101.745595, -56.604635)"/>
                                            <path fill="#DBCDFE" d="M18.678 55H37.85V58.209H18.678z" transform="translate(-565.000000, -2961.000000) translate(135.000000, 2743.000000) translate(0.000000, 188.000000) translate(400.000000, 0.000000) translate(30.000000, 30.000000) translate(15.000000, 2.000000) translate(0.000000, 40.308938) translate(0.000000, 21.595681) translate(0.000000, 16.756649) translate(28.263839, 56.604635) rotate(-180.000000) translate(-28.263839, -56.604635)"/>
                                            <path fill="#DBCDFE" d="M18.678 66.498H37.85V69.70700000000001H18.678z" transform="translate(-565.000000, -2961.000000) translate(135.000000, 2743.000000) translate(0.000000, 188.000000) translate(400.000000, 0.000000) translate(30.000000, 30.000000) translate(15.000000, 2.000000) translate(0.000000, 40.308938) translate(0.000000, 21.595681) translate(0.000000, 16.756649) translate(28.263839, 68.102220) rotate(-180.000000) translate(-28.263839, -68.102220)"/>
                                        </g>
                                    </g>
                                    <path fill="#3D4571" fill-rule="nonzero" d="M84.72 36.588c-3.799 3.909-.353 13.46 5.706 12.078 6.51-1.485 5.53-11.631-.356-13.297-2.296-.65-4.127-.04-5.35 1.219z" transform="translate(-565.000000, -2961.000000) translate(135.000000, 2743.000000) translate(0.000000, 188.000000) translate(400.000000, 0.000000) translate(30.000000, 30.000000) translate(15.000000, 2.000000) translate(0.000000, 40.308938)"/>
                                    <path fill="#0B2D4E" fill-rule="nonzero" d="M114.91 49.187c-1.447 1.4-3.125 2.483-5.117 2.939-3.793.867-7.357-.803-10.52-2.726-3.382-2.056-6.754-4.139-9.944-6.485-2.28-1.678-4.615-3.46-6.036-5.967-1.647-2.907-1.744-6.401-1.407-9.646.23-2.216-.805-4.204-1.26-6.317-.886-4.113.021-8.968 3.857-11.327 1.958-1.204 4.007-1.026 6.067-.14 1.578.678 3.05 1.622 4.704 2.091 3.52 1 7.337-.376 10.784-1.086 2.495-.513 5.225-.782 7.687.042 2.74.917 4.043 2.921 5.54 5.241 1.278 1.984 3.219 3.48 4.764 5.244 2.07 2.364 2.7 5.353 2.003 8.4-1.023 4.47-3.594 8.312-5.827 12.234-1.428 2.508-3.095 5.372-5.296 7.503z" transform="translate(-565.000000, -2961.000000) translate(135.000000, 2743.000000) translate(0.000000, 188.000000) translate(400.000000, 0.000000) translate(30.000000, 30.000000) translate(15.000000, 2.000000) translate(0.000000, 40.308938)"/>
                                    <path fill="#EFB126" fill-rule="nonzero" d="M86.675 91.632c4.556-7.02 7.391-15.636 3.433-23.563-.402-.803-.884-1.68-1.736-1.963-1.833-.61-4.319.046-5.912.981-5.528 3.243-8.91 9.346-12.016 14.776-3.226 5.641-6.028 11.514-9.27 17.146-1.314 2.282-2.64 4.593-3.344 7.13-.617 2.221-.685 4.765.157 6.939 3.64 9.398 13.647-2.114 16.693-5.592 4.347-4.963 8.406-10.32 11.995-15.854z" transform="translate(-565.000000, -2961.000000) translate(135.000000, 2743.000000) translate(0.000000, 188.000000) translate(400.000000, 0.000000) translate(30.000000, 30.000000) translate(15.000000, 2.000000) translate(0.000000, 40.308938)"/>
                                    <path fill="#061F33" fill-rule="nonzero" d="M109.379 49.069c-.488.52-1.057.959-1.7 1.278-1.66.823-3.65.783-5.421.239-1.771-.544-3.362-1.552-4.875-2.621-4.093-2.892-9.156-6.719-11.592-11.164-1.502-2.74-2.616-5.976-1.18-8.967 1.235-2.57 3.744-4.468 6.615-4.739.235-.022.482-.032.695.07.24.116.396.352.535.58 1.035 1.7 1.86 3.552 3.126 5.102 1.377 1.686 3.08 2.948 4.936 4.074 3 1.82 6.295 3.164 9.118 5.25 2.038 1.507 2.092 4.898 1.595 7.251-.284 1.347-.918 2.649-1.852 3.647z" transform="translate(-565.000000, -2961.000000) translate(135.000000, 2743.000000) translate(0.000000, 188.000000) translate(400.000000, 0.000000) translate(30.000000, 30.000000) translate(15.000000, 2.000000) translate(0.000000, 40.308938)"/>
                                    <g fill-rule="nonzero">
                                        <g fill="#FFC73C">
                                            <path d="M53.853 22.896c1.442-5.267 2.19-10.655-1.079-14.243-1.476-1.62-4.106-2.748-6.258-3.55-4.198-1.565-8.49-3.668-12.983-4.35C28.795.034 23.526-.409 18.804.619c-2.999.653-5.805 1.862-8.486 3.166-3.6 1.75-6.164 2.927-7.32 6.527C1.719 14.306.94 18.409.507 22.533c-1.27 12.072.41 24.175.37 36.253-.004 1.187.014 2.421.617 3.489 1.188 2.105 4.419 2.134 6.745 2.13l23.007-.034c3.19-.005 5.628.332 8.623.863 2.521.447 4.685-.65 5.895-2.673 1.145-1.915 1.232-4.151 1.355-6.303.477-8.372 1.855-16.706 4.108-24.86.638-2.308 1.758-5.328 2.627-8.502z" transform="translate(-565.000000, -2961.000000) translate(135.000000, 2743.000000) translate(0.000000, 188.000000) translate(400.000000, 0.000000) translate(30.000000, 30.000000) translate(15.000000, 2.000000) translate(0.000000, 40.308938) translate(78.424315, 57.588482) translate(0.000000, 2.159568)"/>
                                        </g>
                                        <path fill="#EFB126" d="M35.3 9.735c1.623-2.619 1.991-5.891-.135-8.414C34.193.167 32.473.038 31.003.01c-2.895-.051-5.796.243-8.615.876-2.686.603-5.426 1.623-6.59 4.225-.864 1.933-.562 4.169.577 5.937 1.034 1.606 2.75 2.794 4.666 3.231 3.092.706 6.711.611 9.661-.576 1.848-.744 3.506-2.209 4.597-3.97zM5.179 66.126c3.086 1.456 6.46 2.19 9.826 2.753 9.42 1.576 19.02 1.904 28.56 1.449 2.04-.097 4.251-.3 5.756-1.68 1.119-1.028 1.646-2.54 2.022-4.013 1.278-5.015 1.259-10.258 1.233-15.434l-.061-12.115c-.008-1.406.906-9.963-1.282-9.866-.236.01-.452.132-.644.27-1.088.778-1.647 2.08-2.155 3.318-1.595 3.88-2.933 10.09-6.25 12.805-3.485 2.853-7.5 4.181-11.722 5.548-7.323 2.372-15.493 3.402-21.696 8.285-1.033.814-2.018 1.715-2.974 2.618-.862.812-2.043 1.653-2.558 2.789-.803 1.77.457 2.572 1.945 3.273z" transform="translate(-565.000000, -2961.000000) translate(135.000000, 2743.000000) translate(0.000000, 188.000000) translate(400.000000, 0.000000) translate(30.000000, 30.000000) translate(15.000000, 2.000000) translate(0.000000, 40.308938) translate(78.424315, 57.588482)"/>
                                    </g>
                                    <path fill="#F2F7FF" fill-rule="nonzero" d="M34.032 118.28H130.03199999999998V138.28H34.032z" transform="translate(-565.000000, -2961.000000) translate(135.000000, 2743.000000) translate(0.000000, 188.000000) translate(400.000000, 0.000000) translate(30.000000, 30.000000) translate(15.000000, 2.000000) translate(0.000000, 40.308938) translate(82.031754, 128.280396) rotate(-180.000000) translate(-82.031754, -128.280396)"/>
                                    <path fill="#FFC73C" fill-rule="nonzero" d="M148.793 95.194c1.165 2.1 2.322 4.205 3.459 6.322 2.306 4.298 6.589 13.847-.268 16.206-3.454 1.189-5.43.026-7.714-2.49-8.638-9.521-16.004-20.193-21.841-31.644-2.173-4.262-7.942-15.369-.935-17.907 2.212-.801 4.763-.614 6.835.5.948.51 1.788 1.196 2.59 1.913 5.057 4.51 8.658 10.328 11.862 16.23 1.98 3.646 4.007 7.253 6.012 10.87z" transform="translate(-565.000000, -2961.000000) translate(135.000000, 2743.000000) translate(0.000000, 188.000000) translate(400.000000, 0.000000) translate(30.000000, 30.000000) translate(15.000000, 2.000000) translate(0.000000, 40.308938)"/>
                                    <path fill="#FFC73C" fill-rule="nonzero" d="M113.861 110.608c.604-.101 1.208-.2 1.813-.294 2.944-.456 5.875-.997 8.791-1.621 5.774-1.237 11.581-2.3 17.457-2.855.623-.058 1.246-.111 1.87-.158 2.634-.2 5.394-.267 7.803.96 2.409 1.227 4.321 4.137 3.728 6.947-.418 1.974-1.963 3.462-3.68 4.213-1.715.751-3.603.885-5.455 1.01l-17.998 1.215c-2.97.199-5.94.405-8.91.612-2.836.197-5.716.594-8.56.596-1.203 0-2.546-.218-3.555-1-1.403-1.09-2.245-3.41-2.378-5.225-.069-.943.121-2.087.86-2.672.397-.312.9-.409 1.383-.497 2.28-.414 4.55-.846 6.831-1.23z" transform="translate(-565.000000, -2961.000000) translate(135.000000, 2743.000000) translate(0.000000, 188.000000) translate(400.000000, 0.000000) translate(30.000000, 30.000000) translate(15.000000, 2.000000) translate(0.000000, 40.308938)"/>
                                    <g fill-rule="nonzero">
                                        <path fill="#3D4571" d="M56.306 35.672H84.753V41.241H56.306z" transform="translate(-565.000000, -2961.000000) translate(135.000000, 2743.000000) translate(0.000000, 188.000000) translate(400.000000, 0.000000) translate(30.000000, 30.000000) translate(15.000000, 2.000000) translate(0.000000, 40.308938) translate(5.878824, 77.064987)"/>
                                        <g>
                                            <path fill="#00024E" d="M9.259 41.242h47.727c1.296 0 2.27-1.184 2.02-2.455l-7.18-36.55c-.19-.966-1.036-1.662-2.02-1.662H2.08C.783.575-.19 1.758.06 3.03l7.18 36.55c.19.965 1.036 1.662 2.02 1.662z" transform="translate(-565.000000, -2961.000000) translate(135.000000, 2743.000000) translate(0.000000, 188.000000) translate(400.000000, 0.000000) translate(30.000000, 30.000000) translate(15.000000, 2.000000) translate(0.000000, 40.308938) translate(5.878824, 77.064987)"/>
                                            <path fill="#7883BC" d="M24.271 20.003c.44 2.465 2.796 4.464 5.261 4.464 2.466 0 4.08-1.999 3.604-4.464-.476-2.466-2.831-4.465-5.262-4.465-2.43 0-4.043 2-3.603 4.465z" transform="translate(-565.000000, -2961.000000) translate(135.000000, 2743.000000) translate(0.000000, 188.000000) translate(400.000000, 0.000000) translate(30.000000, 30.000000) translate(15.000000, 2.000000) translate(0.000000, 40.308938) translate(5.878824, 77.064987)"/>
                                        </g>
                                    </g>
                                    <path fill="#F8A17A" fill-rule="nonzero" d="M107.072 119.56c-1.418.293-2.527 1.538-3.938 1.955-1.007.298-2.085.14-3.053-.224-.89-.334-1.795-.512-2.708-.805-.712-.228-1.673-.708-2.438-.549-2.005.417-4.004 1.844-5.821 2.77-.409.208-.856.423-1.307.337-.45-.085-.826-.631-.57-1.012-.522.489-1.215 1.466-2.058 1.087-.345-.155-.553-.612-.362-.938-.29.318-.594.646-.995.804-.4.158-.925.09-1.16-.27-.112-.17-.145-.378-.155-.58-.034-.696.176-1.384.466-2.017 1.43-3.123 4.667-5.44 7.42-7.301.488-.33.984-.663 1.547-.835.503-.154 1.036-.17 1.562-.173 3.415-.016 6.832.537 10.069 1.627.7.236 1.471.035 2.17-.096.517-.097 1.056-.193 1.561-.045.565.165 1.003.613 1.347 1.09.633.878 1.117 2.04 1.041 3.143-.057.837-.12 1.74-1.106 1.916-.4.071-.81.027-1.214.07-.101.01-.2.026-.298.046zM107.677 69.054c2.087-.67 3.805-1.967 4.449-4.028.584-1.871-.337-3.976-.501-5.864-.157-1.81-.178-3.63-.059-5.441.11-1.675.27-3.42.012-5.09-.146-.954-.67-.79-1.635-1.17-.965-.378-2.048-.382-3.097-.38-2.148.006-7.746-.15-9.074 1.734-.609.865-.657 1.954-.686 2.984-.035 1.244-.255 2.854-.459 4.59-.09.772-.035 1.541-.153 2.308-.132.86-.459 1.683-.744 2.506-1.08 3.112-.07 6.071 3.296 7.496 2.415 1.023 5.862 1.25 8.651.355z" transform="translate(-565.000000, -2961.000000) translate(135.000000, 2743.000000) translate(0.000000, 188.000000) translate(400.000000, 0.000000) translate(30.000000, 30.000000) translate(15.000000, 2.000000) translate(0.000000, 40.308938)"/>
                                    <path fill="#E5785C" fill-rule="nonzero" d="M111.567 48.632c-.146-.954-.67-.791-1.635-1.17-.965-.379-2.048-.383-3.097-.38-2.148.005-7.746-.151-9.074 1.734-.61.865-.657 1.954-.686 2.984-.035 1.243-.255 2.854-.46 4.589-.09.772-.034 1.542-.152 2.309-.101.654-.314 1.287-.537 1.915 2.082.774 4.434.946 6.605.411 3.913-.963 6.876-3.398 8.99-6.564.01-.246.017-.493.033-.739.111-1.675.271-3.42.013-5.09z" transform="translate(-565.000000, -2961.000000) translate(135.000000, 2743.000000) translate(0.000000, 188.000000) translate(400.000000, 0.000000) translate(30.000000, 30.000000) translate(15.000000, 2.000000) translate(0.000000, 40.308938)"/>
                                    <path fill="#F8A17A" fill-rule="nonzero" d="M114.685 36.37c-.017-2.867-.412-5.587-1.15-7.847-3.184-9.746-15.342-12.154-22.664-5.158-8.165 7.802-5.04 26.457 3.56 33.01 2.3 1.752 5.424 2.368 8.216 1.619 8.45-2.266 12.092-12.664 12.038-21.623z" transform="translate(-565.000000, -2961.000000) translate(135.000000, 2743.000000) translate(0.000000, 188.000000) translate(400.000000, 0.000000) translate(30.000000, 30.000000) translate(15.000000, 2.000000) translate(0.000000, 40.308938)"/>
                                    <path fill="#E5785C" fill-rule="nonzero" d="M113.535 28.523c-3.184-9.746-15.342-12.154-22.664-5.158-.925.884-1.698 1.913-2.342 3.043.431.367.885.682 1.284.922 3.085 1.855 6.44 3.26 9.925 4.155 1.499.386 3.077.703 4.305 1.644.705.54 1.236 1.24 1.666 2.015.516.932.884 1.975 1.23 2.984.76 2.214 1.093 4.54 1.4 6.85.032.24.074.5.25.666.167.157.416.19.646.184 1.348-.035 1.998-1.327 3.049-2.012.631-.413 1.262-.833 1.862-1.29.375-2.052.552-4.14.54-6.154-.017-2.87-.413-5.59-1.151-7.849z" transform="translate(-565.000000, -2961.000000) translate(135.000000, 2743.000000) translate(0.000000, 188.000000) translate(400.000000, 0.000000) translate(30.000000, 30.000000) translate(15.000000, 2.000000) translate(0.000000, 40.308938)"/>
                                    <path fill="#0B2D4E" fill-rule="nonzero" d="M107.084 34.766c.391.991.622 2.073.834 3.119.466 2.293.495 4.644.5 6.974 0 .242.008.504.161.691.146.178.389.242.618.266 1.34.14 2.153-1.057 3.283-1.6 1.172-.563 2.354-1.133 3.378-1.934 2.915-2.285 2.248-6.054 2.156-9.405-.05-1.842-.106-3.71-.645-5.47-.589-1.921-1.736-3.635-3.102-5.11-3.943-4.254-9.894-6.466-15.656-6.103-2.852.18-6.071 1.387-8.104 3.441-1.752 1.772.383 4.178 1.827 5.325 2.819 2.238 5.963 4.065 9.303 5.406 1.437.576 2.96 1.095 4.056 2.187.63.627 1.066 1.389 1.391 2.213z" transform="translate(-565.000000, -2961.000000) translate(135.000000, 2743.000000) translate(0.000000, 188.000000) translate(400.000000, 0.000000) translate(30.000000, 30.000000) translate(15.000000, 2.000000) translate(0.000000, 40.308938)"/>
                                    <path fill="#F8A17A" fill-rule="nonzero" d="M113.088 36.611c3.74-2.045 4.892 3.134 4.248 5.712-.265 1.064-.686 2.103-1.347 2.978-.89 1.18-3.435 3.137-4.901 1.846-.666-.585-.734-1.58-.754-2.466-.056-2.376.218-6.683 2.754-8.07z" transform="translate(-565.000000, -2961.000000) translate(135.000000, 2743.000000) translate(0.000000, 188.000000) translate(400.000000, 0.000000) translate(30.000000, 30.000000) translate(15.000000, 2.000000) translate(0.000000, 40.308938)"/>
                                    <g fill-rule="nonzero">
                                        <path fill="#FFF" d="M6.601 26.22c.526-1.088.432-2.23.1-3.267-.318-1.06-.887-1.973-1.503-2.971-.623-.984-1.258-2.056-1.648-3.348-.395-1.305-.282-2.77.08-4.008.785-2.526 2.39-4.387 3.497-6.291.554-.964 1.007-1.942 1.187-3.026.201-1.072.132-2.215-.395-3.292.914.8 1.356 2.095 1.416 3.35.057 1.268-.263 2.554-.75 3.685-.96 2.293-2.398 4.155-2.958 6.169-.318.996-.396 1.962-.17 2.928.188.99.706 1.991 1.172 3.076.495 1.059.968 2.282 1.073 3.54.107 1.24-.177 2.642-1.1 3.455z" transform="translate(-565.000000, -2961.000000) translate(135.000000, 2743.000000) translate(0.000000, 188.000000) translate(400.000000, 0.000000) translate(30.000000, 30.000000) translate(15.000000, 2.000000) translate(0.000000, 40.308938) translate(160.607878, 70.265947)"/>
                                        <g>
                                            <path fill="#02D8FB" d="M10.442 20.33H3.741C1.675 20.33 0 18.655 0 16.59V.013h14.184v16.575c0 2.066-1.675 3.74-3.742 3.74z" transform="translate(-565.000000, -2961.000000) translate(135.000000, 2743.000000) translate(0.000000, 188.000000) translate(400.000000, 0.000000) translate(30.000000, 30.000000) translate(15.000000, 2.000000) translate(0.000000, 40.308938) translate(160.607878, 70.265947) translate(0.000000, 27.594481)"/>
                                            <path fill="#02D8FB" d="M15.174 4.609c-3.402 0-6.159 2.798-6.159 6.248 0 3.451 2.757 6.25 6.159 6.25 3.4 0 6.158-2.799 6.158-6.25 0-3.45-2.757-6.248-6.158-6.248zm0 10.269c-2.189 0-3.963-1.8-3.963-4.02 0-2.22 1.774-4.021 3.963-4.021 2.188 0 3.962 1.8 3.962 4.02 0 2.22-1.774 4.02-3.962 4.02z" transform="translate(-565.000000, -2961.000000) translate(135.000000, 2743.000000) translate(0.000000, 188.000000) translate(400.000000, 0.000000) translate(30.000000, 30.000000) translate(15.000000, 2.000000) translate(0.000000, 40.308938) translate(160.607878, 70.265947) translate(0.000000, 27.594481)"/>
                                            <path fill="#FFF" d="M2.12 12.618c-.421 0-.766-.345-.766-.766V1.964c0-.421.345-.766.767-.766.421 0 .766.345.766.766v9.888c0 .421-.345.766-.766.766z" opacity=".2" transform="translate(-565.000000, -2961.000000) translate(135.000000, 2743.000000) translate(0.000000, 188.000000) translate(400.000000, 0.000000) translate(30.000000, 30.000000) translate(15.000000, 2.000000) translate(0.000000, 40.308938) translate(160.607878, 70.265947) translate(0.000000, 27.594481)"/>
                                            <path fill="#07CFF0" d="M10.908.014v16.724c0 1.983-1.608 3.592-3.592 3.592h3.275c1.984 0 3.593-1.608 3.593-3.592V.014h-3.276z" transform="translate(-565.000000, -2961.000000) translate(135.000000, 2743.000000) translate(0.000000, 188.000000) translate(400.000000, 0.000000) translate(30.000000, 30.000000) translate(15.000000, 2.000000) translate(0.000000, 40.308938) translate(160.607878, 70.265947) translate(0.000000, 27.594481)"/>
                                        </g>
                                    </g>
                                    <path stroke="#0B2D4E" stroke-width="15" d="M83.116 26.222c-1.606-4.5-4.827-8.124-2.974-13.17 1.093-2.976 3.877-4.913 7.035-4.96 1.484-.023 2.971.348 4.26 1.086 1.541.882 2.54 2.322 4.331 2.805 4.199 1.13 8.547-2.07 12.56-2.816 3.975-.74 8.202.565 10.146 4.358.767 1.497 1.092 3.225 2.1 4.571 1.685 2.248 4.96 3.016 6.293 5.488 2.176 4.036-2.295 9.866-4.57 12.967" transform="translate(-565.000000, -2961.000000) translate(135.000000, 2743.000000) translate(0.000000, 188.000000) translate(400.000000, 0.000000) translate(30.000000, 30.000000) translate(15.000000, 2.000000) translate(0.000000, 40.308938)"/>
                                    <path fill="#3D4571" fill-rule="nonzero" d="M100.903 53.672c-.917 0-1.84-.068-2.764-.204l.165-1.122c3.357.495 6.705.028 9.682-1.352.809-.375 1.495-.768 2.096-1.204 1.093-.791 2.031-1.826 2.713-2.991l.979.573c-.761 1.3-1.808 2.454-3.027 3.337-.661.479-1.408.909-2.284 1.314-2.356 1.092-4.929 1.65-7.56 1.65z" transform="translate(-565.000000, -2961.000000) translate(135.000000, 2743.000000) translate(0.000000, 188.000000) translate(400.000000, 0.000000) translate(30.000000, 30.000000) translate(15.000000, 2.000000) translate(0.000000, 40.308938)"/>
                                    <path fill="#3D4571" fill-rule="nonzero" d="M94.86 51.452c1.368-1.174 4.41-1.073 5.412.145.744.904.517 2.05-.302 2.814-.968.903-2.165.85-3.373.578-1.512-.34-3.386-2.122-1.737-3.537z" transform="translate(-565.000000, -2961.000000) translate(135.000000, 2743.000000) translate(0.000000, 188.000000) translate(400.000000, 0.000000) translate(30.000000, 30.000000) translate(15.000000, 2.000000) translate(0.000000, 40.308938)"/>
                                    <path fill="#777C9B" fill-rule="nonzero" d="M114.66 35.138c-5.281 1.354-7.321 11.301-1.431 13.281 6.33 2.128 10.785-7.04 6.63-11.531-1.62-1.751-3.5-2.185-5.2-1.75z" transform="translate(-565.000000, -2961.000000) translate(135.000000, 2743.000000) translate(0.000000, 188.000000) translate(400.000000, 0.000000) translate(30.000000, 30.000000) translate(15.000000, 2.000000) translate(0.000000, 40.308938)"/>
                                    <path fill="#3D4571" fill-rule="nonzero" d="M116.39 36.415c-3.645.586-5.89 8.33-2.134 10.46 4.036 2.29 7.824-4.605 5.45-8.577-.926-1.549-2.143-2.072-3.316-1.883zM117.125 35.834l-1.408-.162c.956-8.255.549-18.803-6.815-22.173-3.487-1.595-6.668-2.739-12.338-1.623-.828-.111-1.466-.419-1.466-.419 5.127-2.504 10.63-.97 14.394.753 8.138 3.723 8.643 14.902 7.633 23.624z" transform="translate(-565.000000, -2961.000000) translate(135.000000, 2743.000000) translate(0.000000, 188.000000) translate(400.000000, 0.000000) translate(30.000000, 30.000000) translate(15.000000, 2.000000) translate(0.000000, 40.308938)"/>
                                    <g fill-rule="nonzero">
                                        <path fill="#02D8FB" d="M5.012 35.32h48.134c2.744 0 4.988-2.245 4.988-4.988V5.022c0-2.744-2.245-4.988-4.988-4.988H5.012C2.27.034.024 2.278.024 5.02v25.31c0 2.744 2.245 4.988 4.988 4.988z" transform="translate(-565.000000, -2961.000000) translate(135.000000, 2743.000000) translate(0.000000, 188.000000) translate(400.000000, 0.000000) translate(30.000000, 30.000000) translate(15.000000, 2.000000) translate(0.000000, 40.308938) translate(132.813437, 0.000000)"/>
                                        <path fill="#02D8FB" d="M7.673 44.607L7.673 28.392 20.372 35.319z" transform="translate(-565.000000, -2961.000000) translate(135.000000, 2743.000000) translate(0.000000, 188.000000) translate(400.000000, 0.000000) translate(30.000000, 30.000000) translate(15.000000, 2.000000) translate(0.000000, 40.308938) translate(132.813437, 0.000000)"/>
                                        <path fill="#E1F4FD" d="M36.102 19.265H10.415c-.847 0-1.54-.692-1.54-1.539s.693-1.54 1.54-1.54h25.687c.847 0 1.54.693 1.54 1.54 0 .847-.693 1.54-1.54 1.54zM47.744 19.265h-6.35c-.847 0-1.54-.692-1.54-1.539s.693-1.54 1.54-1.54h6.35c.846 0 1.539.693 1.539 1.54 0 .847-.693 1.54-1.54 1.54zM22.056 9.195h25.688c.846 0 1.539.693 1.539 1.54 0 .846-.693 1.539-1.54 1.539H22.057c-.847 0-1.54-.693-1.54-1.54 0-.846.693-1.539 1.54-1.539zM10.415 9.195h6.35c.846 0 1.539.693 1.539 1.54 0 .846-.693 1.539-1.54 1.539h-6.35c-.846 0-1.539-.693-1.539-1.54 0-.846.693-1.539 1.54-1.539zM27.54 25.656H10.415c-.847 0-1.54-.692-1.54-1.539 0-.846.693-1.54 1.54-1.54H27.54c.847 0 1.54.694 1.54 1.54 0 .847-.693 1.54-1.54 1.54z" transform="translate(-565.000000, -2961.000000) translate(135.000000, 2743.000000) translate(0.000000, 188.000000) translate(400.000000, 0.000000) translate(30.000000, 30.000000) translate(15.000000, 2.000000) translate(0.000000, 40.308938) translate(132.813437, 0.000000)"/>
                                    </g>
                                </g>
                            </g>
                        </g>
                    </g>
                </g>
            </g>
        </g>
    </g>
</svg>
