<svg xmlns="http://www.w3.org/2000/svg" width="224" height="200" viewBox="0 0 224 200">
    <defs>
        <linearGradient id="dgaedc0hfa" x1="57.594%" x2="16.146%" y1="48.789%" y2="56.01%">
            <stop offset="0%" stop-color="#FFC444"/>
            <stop offset="99.64%" stop-color="#F36F56"/>
        </linearGradient>
        <linearGradient id="09wgl01q2b" x1="26.495%" x2="92.114%" y1="31.603%" y2="79.476%">
            <stop offset="0%" stop-color="#FFC444"/>
            <stop offset="99.64%" stop-color="#F36F56"/>
        </linearGradient>
        <linearGradient id="l4ykvgmedc" x1="-44.916%" x2="105.933%" y1="-249.492%" y2="264.674%">
            <stop offset="0%" stop-color="#FFC444"/>
            <stop offset="99.64%" stop-color="#F36F56"/>
        </linearGradient>
        <linearGradient id="oq2mot6ckd" x1="0%" x2="99.64%" y1="50%" y2="50%">
            <stop offset="0%" stop-color="#FFC444"/>
            <stop offset="100%" stop-color="#F36F56"/>
        </linearGradient>
    </defs>
    <g fill="none" fill-rule="evenodd">
        <g>
            <g>
                <g>
                    <g>
                        <g>
                            <path fill="#F2F7FF" fill-rule="nonzero" d="M188.694 134.981c-19.108 45.218-70.009 70.548-114.149 63.715-7.183-1.112-26.874-4.424-44.308-20.049-33.56-30.08-40.738-89.64-13.665-131.615C36.276 16.482 71.598-.835 105.162.031c7.229.186 34.935 1.336 59.284 21.514 3.576 2.964 11.464 10.007 18.573 21.18 16.693 26.235 18.128 62.787 5.675 92.256z" transform="translate(-965.000000, -2961.000000) translate(135.000000, 2743.000000) translate(0.000000, 188.000000) translate(830.000000, 30.000000)"/>
                            <g fill-rule="nonzero">
                                <path fill="#CAD1DC" d="M50.428 46.168l1.061-2.337c.398-.876.162-1.928-.528-2.352l-2.747-1.688c.743-2.109 1.265-4.34 1.527-6.646l3.067-.215c.79-.055 1.43-.882 1.43-1.846V28.52c0-.965-.64-1.71-1.43-1.664l-2.986.17c-.206-2.325-.68-4.542-1.386-6.61l2.525-1.873c.08-.06.154-.13.222-.204l.323.84 4.148-5.1-5.415-.463c-.238-.307-.558-.493-.896-.533-.302-.036-.618.043-.902.25l-2.494 1.813c-1.162-1.864-2.547-3.526-4.117-4.934l.188-.393 3.813.779.484-6.312-5.791-.956c-.666-.256-1.419.069-1.785.824l-1.44 2.968c-1.849-.92-.316-1.887-2.418-2.168l2.198-3.237c0-1.01-6.439-1.682-7.31-1.682h-2.328c-.881 0-1.598.83-1.598 1.852v3.466c-2.175.332-4.272 1.024-6.243 2.027l3.977-2.922s-7.005-1.328-7.802-.8l-2.132 1.407c-.806.533-1.084 1.699-.617 2.601l1.612 3.12c-1.765 1.571-2.516 2.478-3.851 4.553l-3.746-.845c-.827-.509-1.89-.164-2.37.773l-1.283 2.5c-.484.943-.197 2.117.64 2.619l3.02 1.81c-.837 2.325-1.403 4.8-1.649 7.37l-3.623.207c-.975.056-1.768.973-1.768 2.049v2.861c0 .975.653 1.735 1.501 1.818l4.117.66c.34 2.14.913 4.172 1.684 6.061l-3.282 2.385c-.838.609-1.125 1.82-.64 2.7l1.283 2.337c.48.876 8.112 1.409 8.112 1.409l-2.424-3.398c1.326 1.78 2.868 3.323 4.58 4.582l-1.914 3.945c-.466.962-.19 2.093.617 2.523l2.132 1.137c.135.072.276.118.419.142l-.008.04 6.65.82.65-5.02c.774.118 1.56.19 2.357.212v4.294c0 .763.4 1.368.969 1.578l-.03.126 6.59.822.132-8.14c1.206-.46 2.368-1.027 3.478-1.693l1.757 3.4c.218.421.573.672.965.735l6.368.862-2.18-6.002-.881.27-1.451-2.845c1.526-1.515 2.883-3.245 4.04-5.138l2.841 1.703c.699.42 1.588.041 1.988-.84zm-21.819-2.2c-6.234.556-11.405-4.914-11.405-12.23 0-7.315 5.17-13.435 11.405-13.663 6.08-.222 10.9 5.27 10.9 12.262 0 6.992-4.82 13.09-10.9 13.632zm26.626-14.046l4.314-2.042-4.314-.524v2.566zm-5.296 17.427l4.935.666.72-1.683-4.088-2.485-1.567 3.502z" transform="translate(-965.000000, -2961.000000) translate(135.000000, 2743.000000) translate(0.000000, 188.000000) translate(830.000000, 30.000000) translate(50.749395, 0.406844)"/>
                                <path fill="#DAE0E9" d="M59.167 27.804l-2.97.172c-.204-2.319-.675-4.53-1.377-6.592l2.51-1.869c.687-.51.922-1.59.526-2.412l-1.055-2.196c-.398-.828-1.281-1.092-1.975-.586l-2.48 1.809c-1.155-1.858-2.533-3.514-4.094-4.918l1.427-2.99c.409-.857.166-1.943-.545-2.427l-1.9-1.296c-.718-.49-1.64-.19-2.056.674l-1.431 2.96c-1.839-.916-3.826-1.54-5.923-1.818V2.896c0-1.009-.699-1.826-1.563-1.825l-2.316.001c-.876 0-1.588.828-1.588 1.847v3.457C30.194 6.71 28.109 7.4 26.149 8.4l-1.546-3.042c-.454-.893-1.464-1.194-2.257-.669l-2.12 1.406c-.8.531-1.076 1.694-.612 2.594l1.603 3.11c-1.755 1.568-3.323 3.416-4.653 5.486l-2.9-1.786c-.823-.507-1.879-.163-2.357.772l-1.275 2.493c-.481.94-.196 2.11.637 2.611l3.002 1.804c-.832 2.32-1.395 4.787-1.64 7.348l-3.601.209c-.97.056-1.758.97-1.758 2.044v2.853c0 1.073.789 1.887 1.758 1.818l3.698-.261c.312 2.47.928 4.804 1.804 6.954l-3.263 2.38c-.832.607-1.118 1.814-.637 2.693l1.276 2.329c.478.872 1.534 1.081 2.356.47l3.3-2.456c1.318 1.774 2.85 3.312 4.551 4.568l-1.901 3.934c-.464.958-.188 2.086.613 2.515l2.12 1.133c.792.423 1.802-.007 2.256-.96l1.885-3.949c1.861.674 3.83 1.056 5.869 1.11v4.282c0 1.02.712 1.755 1.588 1.642l2.316-.296c.864-.11 1.563-1.018 1.563-2.026v-4.235c1.978-.513 3.857-1.322 5.608-2.377l1.746 3.39c.418.809 1.338.99 2.057.409l1.9-1.54c.71-.576.953-1.693.544-2.498l-1.696-3.332C49.5 49.82 50.851 48.093 52 46.205l2.826 1.697c.693.417 1.577.04 1.975-.84l1.055-2.331c.395-.874.16-1.923-.526-2.345l-2.732-1.682c.74-2.103 1.258-4.327 1.52-6.628l3.049-.216c.786-.055 1.42-.88 1.42-1.84v-2.557c.002-.962-.633-1.704-1.419-1.659zM35.105 44.878c-6.198.556-11.339-4.896-11.339-12.19 0-7.296 5.141-13.4 11.34-13.63 6.045-.224 10.838 5.25 10.838 12.223 0 6.973-4.793 13.055-10.839 13.597z" transform="translate(-965.000000, -2961.000000) translate(135.000000, 2743.000000) translate(0.000000, 188.000000) translate(830.000000, 30.000000) translate(50.749395, 0.406844)"/>
                            </g>
                            <g fill-rule="nonzero">
                                <g>
                                    <path fill="#B2DDEC" d="M16.234 54.107c.33 3.536-2.087 6.099-4.1 7.688-.307-.107-.515-.085-.852-.12-3.039-.311-4.228-1.123-7.144-1.925-.628-.173-2.285-1.274-2.93-1.77l-1.19-.949s.215-8.24 4.717-8.94c4.502-.701 5.662-8.567 6.767-12.689 2.998-11.184 14.405-6.027 19.406-20.091 1.33-3.741 2.617-11.32 6.829-13.181 4.798-2.121 6.24 2.14 9.559.12C52.48-.907 58.907-.42 60.782 5.385c1.85 5.73-5.522 13.219-18.495 16.737-9.021 3.578-9.768 5.342-10.783 9.924-.71 3.209-.617 12.257-5.924 13.975-5.308 1.72-9.722 4.044-9.346 8.086z" transform="translate(-965.000000, -2961.000000) translate(135.000000, 2743.000000) translate(0.000000, 188.000000) translate(830.000000, 30.000000) translate(123.269271, 30.368821) translate(24.680263, 0.000000)"/>
                                    <g fill="#FCFDFE" opacity=".5">
                                        <path d="M2.26 60.39l-.2-.1c.594-1.182 1.207-2.368 1.821-3.523 4.555-8.55 9.744-16.367 15.421-23.232 4.811-5.817 10.04-11.033 15.542-15.505 4.425-3.595 9.048-6.73 13.744-9.319 3.3-1.82 6.602-3.351 9.812-4.553.56-.21 1.144-.393 1.709-.57.752-.236 1.53-.48 2.256-.788l.087.204c-.736.314-1.52.56-2.276.796-.562.176-1.143.358-1.697.566-3.2 1.198-6.492 2.726-9.783 4.54-4.684 2.581-9.296 5.71-13.71 9.297-5.49 4.461-10.709 9.668-15.51 15.473C13.806 40.529 8.626 48.333 4.078 56.87c-.616 1.154-1.228 2.337-1.82 3.518z" transform="translate(-965.000000, -2961.000000) translate(135.000000, 2743.000000) translate(0.000000, 188.000000) translate(830.000000, 30.000000) translate(123.269271, 30.368821) translate(24.680263, 0.000000) translate(3.318355, 40.000000)"/>
                                        <path d="M28.517 23.918l-.158-.156C35.056 16.984 37.033.776 37.052.613l.22.026c-.019.164-2.004 16.448-8.755 23.28zM11.443 44.52l-.174-.136c4.012-5.139 16.52-5.769 16.645-5.775l.01.222c-.124.006-12.53.631-16.48 5.69zM9.419 47.633l-.197-.104c1.985-3.765 2.68-9.959 1.958-17.442-.037-.376-.037-.376-.017-.414l.198.1-.1-.05.11.01c0 .026.014.167.03.332.727 7.526.022 13.765-1.982 17.568zM3.372 58.247l-.159-.156c3.281-3.347 10.201-2.674 10.271-2.667l-.023.22c-.069-.006-6.883-.669-10.09 2.603zM1.937 60.293c.443-3.754-.176-7.758-1.895-12.24l.208-.08c1.731 4.517 2.356 8.556 1.908 12.346l-.22-.026zM45.955 10.475l-.149-.165c3.934-3.56 7.241-8.213 8.328-9.742.264-.37.356-.5.396-.54l.156.159c-.03.03-.18.242-.371.51-1.09 1.534-4.408 6.201-8.36 9.778zM38.702 15.318l-.094-.2c4.51-2.105 13.85 1.325 14.245 1.472l-.077.208c-.096-.035-9.65-3.545-14.074-1.48z" transform="translate(-965.000000, -2961.000000) translate(135.000000, 2743.000000) translate(0.000000, 188.000000) translate(830.000000, 30.000000) translate(123.269271, 30.368821) translate(24.680263, 0.000000) translate(3.318355, 40.000000)"/>
                                    </g>
                                </g>
                                <g>
                                    <path fill="#B2DDEC" d="M.068 49.682l10.214 12.807s8.493-2.828 10.626-9.664c4.354-13.948 16.266-9.162 21.555-7.903 7.977 1.897 14.855.05 13.325-8.66-1.73-9.857 13.07-11.755 25.51-6.834 12.174 4.815 27.76-14.046 2.367-26.889-15.164-7.67-26.462 4.436-33.621 9.193-7.16 4.757-15.654-4.758-21.115 5.172-4.664 8.481-5.348 18.074-13.517 17.684-8.168-.39-13.9 3.467-15.344 15.094z" transform="translate(-965.000000, -2961.000000) translate(135.000000, 2743.000000) translate(0.000000, 188.000000) translate(830.000000, 30.000000) translate(123.269271, 30.368821) translate(2.834428, 21.500173)"/>
                                    <path fill="#BEB8F2" d="M.868 21.733l.266.221C7.96 13.724 6.513.355 6.497.221l-.344.04C6.17.392 7.6 13.618.868 21.732z" opacity=".5" transform="translate(-965.000000, -2961.000000) translate(135.000000, 2743.000000) translate(0.000000, 188.000000) translate(830.000000, 30.000000) translate(123.269271, 30.368821) translate(2.834428, 21.500173) translate(29.249222, 50.590045)"/>
                                </g>
                                <g>
                                    <path fill="#5CBFDB" d="M16.478 41.256l-.22-.045c-4.335-.904-8.914-2.659-13.589-5.679L.06 33.574c.733-2.637 1.901-5.013 5.188-3.939 5.103 1.668 10.363-5.693 11.03-9.126.824-4.25 2.946-14.104 10.877-11.65 6.601 2.045 10.443 4.713 15.659-1.994C48.029.16 54.85-1.55 60.884 3.251c6.35 5.052 17.948-.017 21.342 6.726 5.914 11.75-13.346 21.14-27.982 17.575-14.636-3.563-10.9 5.194-14.545 11.115-4.979 8.082-14.35-.887-19.254.242-1.662.382-2.957 1.27-3.967 2.347z" transform="translate(-965.000000, -2961.000000) translate(135.000000, 2743.000000) translate(0.000000, 188.000000) translate(830.000000, 30.000000) translate(123.269271, 30.368821) translate(0.000000, 46.212582)"/>
                                    <g fill="#FCFDFE" opacity=".5">
                                        <path d="M9.25 30.129l-.313-.22C15.23 20.907 12.43 8.503 12.4 8.38l.373-.088c.028.126 2.87 12.693-3.523 21.838zM1.141 36.255l-.171-.341c9.948-5.004 27.326 5.452 27.5 5.559l-.199.326c-.172-.105-17.37-10.452-27.13-5.544zM34.01 18.407l-.2-.325C41.334 13.454 44.143.202 44.17.068l.375.077c-.028.136-2.872 13.549-10.536 18.262zM51.395 14.822l.022-.382c10.048.594 19.266 10.59 19.358 10.692l-.283.257c-.09-.1-9.206-9.983-19.097-10.567z" transform="translate(-965.000000, -2961.000000) translate(135.000000, 2743.000000) translate(0.000000, 188.000000) translate(830.000000, 30.000000) translate(123.269271, 30.368821) translate(0.000000, 46.212582) translate(11.295887, 39.000000)"/>
                                    </g>
                                </g>
                            </g>
                            <g fill-rule="nonzero">
                                <g>
                                    <path fill="#6DCFEA" d="M159.119 10.23v84.028c0 2.253-1.657 2.43-3.772 2.534l-52.676 3.245-96.336 5.932-1.292.08c-2.781.14-5.044-1.852-5.042-4.449l.065-89.518-.002-7.32C.066 2.167 2.314.15 5.094.258l.18.007 35.98 1.376 114.095 4.366c2.116.08 3.77 1.972 3.77 4.223z" transform="translate(-965.000000, -2961.000000) translate(135.000000, 2743.000000) translate(0.000000, 188.000000) translate(830.000000, 30.000000) translate(35.471137, 26.124093)"/>
                                    <g>
                                        <path fill="#FFF" d="M159.19 16.957v77.211c0 2.259-1.654 4.173-3.771 4.279l-54.4 2.728-95.916 4.808c-.243.012-.477.007-.71-.013-2.442-.203-4.344-2.072-4.342-4.446l.05-88.983v-.69l42.986 1.378 114.03 3.661 2.073.067z" transform="translate(-965.000000, -2961.000000) translate(135.000000, 2743.000000) translate(0.000000, 188.000000) translate(830.000000, 30.000000) translate(35.471137, 26.124093) translate(1.935707, 0.000000)"/>
                                        <path fill="url(#dgaedc0hfa)" d="M159.19 9.996v6.96l-2.063-.057-114.03-3.164L.1 12.541v-.69l.029-7.333c0-1.987 1.332-3.635 3.2-4.253.574-.19 1.205-.283 1.86-.258l33.925 1.3L155.42 5.766c2.116.08 3.77 1.974 3.77 4.23z" transform="translate(-965.000000, -2961.000000) translate(135.000000, 2743.000000) translate(0.000000, 188.000000) translate(830.000000, 30.000000) translate(35.471137, 26.124093) translate(1.935707, 0.000000)"/>
                                        <path fill="#FFF" d="M11.82 6.303c0 1.145-.99 2.041-2.213 2.003-1.224-.04-2.218-1.001-2.217-2.15 0-1.15.996-2.045 2.22-2.003 1.222.043 2.21 1.006 2.21 2.15z" transform="translate(-965.000000, -2961.000000) translate(135.000000, 2743.000000) translate(0.000000, 188.000000) translate(830.000000, 30.000000) translate(35.471137, 26.124093) translate(1.935707, 0.000000)"/>
                                        <g>
                                            <path fill="#02D8FB" d="M90.304 33.965l-9.981.093c-.863 10.613-9.391 19.25-20.18 20.293v.158L.096 56.168.064 67.076l60.364-2.22c8.721-.977 16.377-4.727 21.784-10.951l-.083.001c.02 0 .028-.095.047-.118 4.728-5.359 7.716-12.315 8.128-19.823z" transform="translate(-965.000000, -2961.000000) translate(135.000000, 2743.000000) translate(0.000000, 188.000000) translate(830.000000, 30.000000) translate(35.471137, 26.124093) translate(1.935707, 0.000000) translate(20.255790, 22.329761)"/>
                                            <path fill="url(#09wgl01q2b)" d="M25.005 34.585l11.101-.105c.923 11.004 9.984 19.488 20.774 19.965v.159l55.072-1.514-.034 9.875-55.039 2.02c-8.914-.34-17.041-3.636-22.867-9.753l.055-.002c-.021 0-.048-.097-.07-.119-5.192-5.366-8.536-12.586-8.992-20.526z" transform="translate(-965.000000, -2961.000000) translate(135.000000, 2743.000000) translate(0.000000, 188.000000) translate(830.000000, 30.000000) translate(35.471137, 26.124093) translate(1.935707, 0.000000) translate(20.255790, 22.329761)"/>
                                            <path fill="#02D8FB" d="M25.007 31.18l11.059-.072c.8-11.242 9.743-19.814 20.475-20.584L56.544 0c-16.609.58-30.68 14.157-31.537 31.18z" transform="translate(-965.000000, -2961.000000) translate(135.000000, 2743.000000) translate(0.000000, 188.000000) translate(830.000000, 30.000000) translate(35.471137, 26.124093) translate(1.935707, 0.000000) translate(20.255790, 22.329761)"/>
                                            <path fill="url(#l4ykvgmedc)" d="M109.375 46.324L123.359 57.343 109.372 69.251z" transform="translate(-965.000000, -2961.000000) translate(135.000000, 2743.000000) translate(0.000000, 188.000000) translate(830.000000, 30.000000) translate(35.471137, 26.124093) translate(1.935707, 0.000000) translate(20.255790, 22.329761)"/>
                                            <path fill="url(#oq2mot6ckd)" d="M60.066.05l-.004 10.488c10.84.894 19.492 9.463 20.235 20.278l10.078-.067C89.619 14.46 76.467 1.186 60.066.05z" transform="translate(-965.000000, -2961.000000) translate(135.000000, 2743.000000) translate(0.000000, 188.000000) translate(830.000000, 30.000000) translate(35.471137, 26.124093) translate(1.935707, 0.000000) translate(20.255790, 22.329761)"/>
                                        </g>
                                        <g fill="#90DEFF">
                                            <path d="M35.09 3.919L.019 3.224.04.032 35.09.83zM35.09 10.302L.017 9.82.039 6.841 35.09 7.419z" transform="translate(-965.000000, -2961.000000) translate(135.000000, 2743.000000) translate(0.000000, 188.000000) translate(830.000000, 30.000000) translate(35.471137, 26.124093) translate(1.935707, 0.000000) translate(118.078120, 21.085378)"/>
                                        </g>
                                    </g>
                                </g>
                            </g>
                            <g transform="translate(-965.000000, -2961.000000) translate(135.000000, 2743.000000) translate(0.000000, 188.000000) translate(830.000000, 30.000000) translate(42.000000, 48.000000)">
                                <ellipse cx="22.5" cy="127.5" fill="#DDE8F9" rx="22.5" ry="9.5"/>
                                <path fill="#EB8D2D" d="M11.251 42.22s6.832-9.248 7.914-11.45c1.083-2.201 1.2-4.073-.496-5.216-1.698-1.143-4.826-2.04-7.592 1.584-2.765 3.624-7.876 14.757-8.085 18.24-.209 3.483 16.723 14.028 18.227 14.709 1.66-.403 2.363-2.707 2.363-2.707s-10.933-12.911-12.33-15.16"/>
                                <path fill="#EC9474" d="M15.45 118.528s.34 1.84-.768 4.614c-1.107 2.774-1.17 3.65 0 4.264 1.169.613 2 .788 5.26 0 3.261-.789 6.891-2.512 6.891-2.512s-3.538-2.131-4.399-3.037c-.861-.905-2.676-4.146-2.646-4.614.031-.467-4.337 1.285-4.337 1.285"/>
                                <path fill="#142239" d="M23.465 123.906c-1.312.872-2.566 1.826-4.246 1.586-1.349-.336-1.855-1.681-2.698-2.69-.581-.463-1.483-.607-2.264-.376-.111.413-.251.855-.429 1.322-1.107 2.913-1.169 3.833 0 4.477 1.17.644 2 .828 5.261 0s6.89-2.637 6.89-2.637-1.298-.822-2.514-1.682"/>
                                <path fill="#F0AD93" d="M55.011 23.82l3.96 1.805c1.313-1.723 2.3-3.022 2.944-3.163 1.676.238 2.395-.513 2.844-1.12.448-.606-.112-.953-.04-1.186.464-.722-.322-1.005-.196-1.175.487-.602.396-.928.103-1.092-.294-.165-.788-.318-.697-.62.09-.303 1.295-1.109 2.343-1.634 1.048-.526 2.199-1.369 1.562-1.812-.638-.443-6.588 2.584-7.701 3.876-1.114 1.292-.827 2.667-2.223 4.089-.507.516-1.63 1.28-2.899 2.032"/>
                                <path fill="#EFA380" d="M19.814 118.24s.277 4.045-.952 7.339c-1.229 3.294-.872 4.753 1.348 5.42 2.22.668 3.449-.917 6.343-.833 2.894.083 6.739-.25 7.73-3.044.99-2.794-3.635-1.545-6.436-2.42-2.8-.874-1.555-6.045-1.555-6.045l-6.478-.416"/>
                                <path fill="#1C2B4B" d="M28.05 124.656c-.26.832 2.097 1.71 1.401 2.154-2.523 1.77-5.55-1.288-8.41-2.254-.582-.279-1.276-.288-1.954-.155-.11.383-.24.763-.391 1.134-1.268 3.093-.9 4.463 1.39 5.09 2.292.627 3.56-.862 6.546-.783 2.987.078 8.636-.463 9.659-3.086 1.012-2.597-5.344-1.326-8.242-2.1"/>
                                <path fill="#142239" d="M36.128 125.78c-.016.062-.034.125-.06.193-1.024 2.678-6.677 3.23-9.666 3.15-2.99-.08-4.26 1.439-6.552.799-.787-.22-1.342-.531-1.687-.97.098 1.063.777 1.686 2.098 2.054 2.293.64 3.563-.879 6.552-.798 2.989.08 8.643-.473 9.667-3.15.234-.613.07-1.013-.352-1.279"/>
                                <path fill="#223D6A" d="M24.91 69.526c-1.557-.707-2.604-1.756-3.283-2.917-1.345-2.302-1.237-5.046-.75-6.447.733-2.107 3.666-7.412 3.666-7.412l-7.21-1.278s-3.239 5.354-4.888 9.568c-1.65 4.214-.306 8.661.488 11.997.795 3.336 2.811 12.874 1.956 16.444-.856 3.57-2.444 9.013-2.017 13.168.428 4.155 2.567 14.044 2.506 16.268.721.31 1.427.414 2.08.4 1.946-.045 3.42-1.16 3.42-1.16s.488-17.03 2.321-24.52c1.834-7.491 3.666-21.42 1.711-24.111"/>
                                <path fill="#223D6A" d="M36.066 52.438s2.137 7.72 1.48 15.986c-.658 8.266-6.492 22.147-7.15 25.188-.657 3.041-1.56 11.786-2.382 15.72-.822 3.931-1.233 7.596-.781 8.61-1.931 1.95-7.066 1.715-8.217 0 .411-8.032.206-14.933 1.808-20.353 1.602-5.42.616-6.823 1.274-10.216.657-3.392 1.314-13.88 1.643-15.128.328-1.247-2.958-1.871-4.15-3.899-1.19-2.027-3.656-6.901 3.164-16.843 7.272-.235 13.311.935 13.311.935"/>
                                <path fill="#1A4879" d="M36.08 53.509s-5.986-1.162-13.193-.93c-.135.198-.26.39-.389.585 5.945.071 10.497.955 10.497.955s2.117 7.67 1.466 15.882c-.652 8.213-5.269 21.774-5.92 24.796-.652 3.02-.91 11.316-1.724 15.223-.702 3.369-.831 7.56-.566 9.298.412-.197.783-.435 1.074-.73-.447-1.007-.04-4.648.774-8.555.815-3.907 1.71-12.596 2.362-15.618.651-3.02 6.434-16.812 7.085-25.024.652-8.212-1.466-15.882-1.466-15.882"/>
                                <path fill="#EFA380" d="M33.115 7.32s.612 7.225-.203 9.457c-.816 2.233-1.63 3.856-2.08 4.303-.448.446-2.606-.366-3.036 0-.43.365-.388 4.545-.388 4.545l-5.994-.243s.693-7.55 1.224-9.62c.53-2.069 9.866-8.604 10.477-8.441"/>
                                <path fill="#ED9F2D" d="M18.318 24.615s4.747-2.224 8.619-.468c3.872 1.756 9.93 9.13 10.867 10.535.937 1.405 1.56 4.566 0 7.434-1.562 2.868-1 11.296-.188 12.76-6.557 1.814-16.737.643-21.422-1.288 2.624-3.57 3.998-4.917 2.124-8.838-1.874-3.922-4.122-15.043 0-20.135"/>
                                <path fill="#EB8D2D" d="M34.567 42.876c1.537-2.82.923-5.928 0-7.309-.923-1.381-6.888-8.633-10.7-10.36-1.318-.596-2.734-.72-4.029-.634-.948.282-1.555.563-1.555.563-4.06 5.007-1.846 15.943 0 19.798 1.844 3.856.492 5.18-2.092 8.691 3.882 1.598 11.595 2.666 17.79 1.902.135-.034.27-.068.401-.104-.799-1.439-1.352-9.726.185-12.547"/>
                                <path fill="#F3B329" d="M41.832 33.915S32.328 27.34 30.06 26.29c-2.267-1.05-4.204-1.182-5.405.414-1.201 1.596-2.162 4.551 1.562 7.211 3.723 2.66 15.195 7.626 18.798 7.862 3.604.236 14.695-15.695 15.415-17.114-.4-1.576-2.777-2.268-2.777-2.268s-13.479 10.22-15.821 11.52"/>
                                <path fill="#FCD21F" d="M24.438 27.433c1.222-1.668 3.194-1.53 5.502-.432 2.308 1.096 11.614 7.24 11.614 7.24 2.384-1.36 16.709-12.923 16.709-12.923s-13.72 10.678-16.105 12.036c0 0-9.674-6.87-11.982-7.967-2.308-1.096-4.279-1.235-5.502.433-.572.78-1.09 1.87-1.092 3.096.172-.504.49-.985.856-1.483"/>
                                <path fill="#1C2B4B" d="M32.737 4.782c-2.765-2.627-7.889-3.631-7.889-3.631-4.347-1.403-7.725 2.472-8.701 5.95-.976 3.476-.496 7.522-1.993 12.09-.756 2.228-11.584 18.163 2.611 29.704 3.609 1.694 6.372 2.44 10.272-.42-4.11-9.283-2.81-18.192-1.982-20.863.801-2.583 2.448-2.679 3.959-2.145l.207.077c-.14-.262-.323-.562-.538-.892-.761-2.155-.045-6.625 1.513-8.203 1.83-1.854 2.683-4.867 2.988-7.07.427 2.608-.549 4.23-1.22 5.158 2.623-1.913 3.538-7.128.773-9.755"/>
                                <path fill="#1C2B4B" d="M14.331 39.33c-1.628-10.66 2.93-21.626 7.161-31.677 1.266-3.081 4.897-4.502 8.593-4.264C27.318 1.793 24 1.151 24 1.151c-4.415-1.403-7.844 2.472-8.835 5.95-.99 3.476-.504 7.522-2.023 12.09-.768 2.228-11.762 18.163 2.651 29.705 2.962 1.369 5.362 2.117 8.266.844-1.238-.206-2.687-.963-2.995-1.196-3.255-2.133-6.082-5.559-6.733-9.214"/>
                            </g>
                        </g>
                    </g>
                </g>
            </g>
        </g>
    </g>
</svg>
