<svg xmlns="http://www.w3.org/2000/svg" width="199" height="200" viewBox="0 0 199 200">
    <defs>
        <linearGradient id="j3ulh9i0da" x1="62.548%" x2="-56.128%" y1="38.531%" y2="175.691%">
            <stop offset="0%" stop-color="#53D8FF"/>
            <stop offset="20.57%" stop-color="#4DB9FD"/>
            <stop offset="100%" stop-color="#3840F7"/>
        </linearGradient>
        <linearGradient id="itoiapfh7b" x1="-17.738%" x2="48.661%" y1="129.416%" y2="51.573%">
            <stop offset="0%" stop-color="#FDF53F"/>
            <stop offset="100%" stop-color="#D93C65"/>
        </linearGradient>
        <linearGradient id="unv54b4vhc" x1="87.425%" x2="-115.673%" y1="-7.102%" y2="302.798%">
            <stop offset="0%" stop-color="#FDF53F"/>
            <stop offset="100%" stop-color="#D93C65"/>
        </linearGradient>
        <linearGradient id="x43rvhjcjd" x1="77.628%" x2="-21.812%" y1="-30.216%" y2="255.923%">
            <stop offset="0%" stop-color="#FDF53F"/>
            <stop offset="100%" stop-color="#D93C65"/>
        </linearGradient>
        <linearGradient id="7fqvrzhbde" x1="-17.744%" x2="48.658%" y1="129.42%" y2="51.574%">
            <stop offset="0%" stop-color="#FDF53F"/>
            <stop offset="100%" stop-color="#D93C65"/>
        </linearGradient>
        <linearGradient id="kd9931krof" x1="87.423%" x2="-115.678%" y1="-7.102%" y2="302.802%">
            <stop offset="0%" stop-color="#FDF53F"/>
            <stop offset="100%" stop-color="#D93C65"/>
        </linearGradient>
        <linearGradient id="ywciwt6igg" x1="77.618%" x2="-21.77%" y1="-30.208%" y2="255.895%">
            <stop offset="0%" stop-color="#FDF53F"/>
            <stop offset="100%" stop-color="#D93C65"/>
        </linearGradient>
        <linearGradient id="jl276opt0h" x1="-17.741%" x2="48.659%" y1="129.417%" y2="51.573%">
            <stop offset="0%" stop-color="#FDF53F"/>
            <stop offset="100%" stop-color="#D93C65"/>
        </linearGradient>
        <linearGradient id="sex7zaajki" x1="87.424%" x2="-115.677%" y1="-7.102%" y2="302.801%">
            <stop offset="0%" stop-color="#FDF53F"/>
            <stop offset="100%" stop-color="#D93C65"/>
        </linearGradient>
        <linearGradient id="yxotcevwcj" x1="77.613%" x2="-21.767%" y1="-30.203%" y2="255.883%">
            <stop offset="0%" stop-color="#FDF53F"/>
            <stop offset="100%" stop-color="#D93C65"/>
        </linearGradient>
        <linearGradient id="b0piksi3ak" x1="-17.739%" x2="48.659%" y1="129.415%" y2="51.573%">
            <stop offset="0%" stop-color="#FDF53F"/>
            <stop offset="100%" stop-color="#D93C65"/>
        </linearGradient>
        <linearGradient id="3t3xr2ipfl" x1="87.424%" x2="-115.675%" y1="-7.102%" y2="302.799%">
            <stop offset="0%" stop-color="#FDF53F"/>
            <stop offset="100%" stop-color="#D93C65"/>
        </linearGradient>
        <linearGradient id="kxrncsmzvm" x1="77.618%" x2="-21.791%" y1="-30.21%" y2="255.91%">
            <stop offset="0%" stop-color="#FDF53F"/>
            <stop offset="100%" stop-color="#D93C65"/>
        </linearGradient>
        <linearGradient id="ahhfxmiopn" x1="94.034%" x2="-189.48%" y1="27.426%" y2="176.46%">
            <stop offset="0%" stop-color="#2B3582"/>
            <stop offset="100%" stop-color="#150E42"/>
        </linearGradient>
        <linearGradient id="zx0k2a21do" x1=".006%" x2="99.998%" y1="49.999%" y2="49.999%">
            <stop offset="0%" stop-color="#F9B776"/>
            <stop offset="100%" stop-color="#F47960"/>
        </linearGradient>
        <linearGradient id="zdkf2jglgp" x1="301.704%" x2="-383.044%" y1="-222.295%" y2="538.388%">
            <stop offset="0%" stop-color="#2B3582"/>
            <stop offset="100%" stop-color="#150E42"/>
        </linearGradient>
        <linearGradient id="baithpodsq" x1=".007%" x2="100.008%" y1="49.994%" y2="49.994%">
            <stop offset="0%" stop-color="#F9B776"/>
            <stop offset="100%" stop-color="#F47960"/>
        </linearGradient>
        <linearGradient id="fhaccuxstr" x1="28.282%" x2="88.759%" y1="116.447%" y2="-33.946%">
            <stop offset="0%" stop-color="#F9B776"/>
            <stop offset="100%" stop-color="#F47960"/>
        </linearGradient>
        <linearGradient id="5iezumu93s" x1="83.406%" x2="8.829%" y1="102.648%" y2="-23.938%">
            <stop offset="0%" stop-color="#F9B776"/>
            <stop offset="100%" stop-color="#F47960"/>
        </linearGradient>
        <linearGradient id="jtjby9luut" x1="-9.761%" x2="83.264%" y1="-6.584%" y2="67.606%">
            <stop offset="0%" stop-color="#2B3582"/>
            <stop offset="100%" stop-color="#150E42"/>
        </linearGradient>
        <linearGradient id="qpsyppw4du" x1="159.322%" x2="-85.953%" y1="183.116%" y2="-96.745%">
            <stop offset="0%" stop-color="#F9B776"/>
            <stop offset="100%" stop-color="#F47960"/>
        </linearGradient>
    </defs>
    <g fill="none" fill-rule="evenodd">
        <g>
            <g>
                <g>
                    <g>
                        <g>
                            <path fill="#F2F7FF" fill-rule="nonzero" d="M188.694 134.981c-19.108 45.218-70.009 70.548-114.149 63.715-7.183-1.112-26.874-4.424-44.308-20.049-33.56-30.08-40.738-89.64-13.665-131.615C36.276 16.482 71.598-.835 105.162.031c7.229.186 34.935 1.336 59.284 21.514 3.576 2.964 11.464 10.007 18.573 21.18 16.693 26.235 18.128 62.787 5.675 92.256z" transform="translate(-166.000000, -2961.000000) translate(135.000000, 2743.000000) translate(0.000000, 188.000000) translate(30.000000, 30.000000) translate(1.000000, 0.000000)"/>
                            <g fill-rule="nonzero">
                                <path fill="#6AC5D6" d="M.09 1.29C-.201.39.845-.352 1.6.215c7.673 5.75 26.545 23.44 26.266 58.153-.35 43.553 10.328 58.21 22.493 66.506 0 0-15.73-2.758-27.105-17.57C-4.676 70.94 5.254 17.313.09 1.29z" transform="translate(-166.000000, -2961.000000) translate(135.000000, 2743.000000) translate(0.000000, 188.000000) translate(30.000000, 30.000000) translate(1.000000, 0.000000) translate(21.091701, 20.416708)"/>
                                <path fill="#FFF" d="M6.882 14.105c1.408 4.683 2.724 9.392 3.867 14.142 1.167 4.743 2.19 9.52 3.064 14.322.855 4.805 1.621 9.625 2.182 14.471.582 4.843.956 9.706 1.316 14.59.386 4.878.747 9.795 1.61 14.69.858 4.885 2.309 9.746 4.601 14.196.573 1.11 1.167 2.212 1.821 3.269.635 1.07 1.317 2.11 2.016 3.139 1.41 2.05 2.959 4.01 4.644 5.846 3.382 3.664 7.316 6.807 11.548 9.364.445.269 1.023.124 1.29-.324.264-.44.13-1.008-.297-1.283l-.003-.002c-1.011-.65-2.014-1.313-2.984-2.018-.491-.345-.966-.71-1.447-1.067-.467-.375-.949-.731-1.404-1.12-1.846-1.523-3.584-3.174-5.191-4.947-3.228-3.525-5.95-7.553-8.147-11.802-1.075-2.136-1.99-4.35-2.735-6.625-.742-2.277-1.31-4.615-1.748-6.987-.874-4.747-1.272-9.61-1.692-14.486-.428-4.876-.89-9.773-1.553-14.644-.325-2.436-.693-4.865-1.105-7.287-.199-1.213-.42-2.42-.64-3.628-.232-1.206-.47-2.411-.717-3.613-1-4.808-2.145-9.583-3.439-14.315-1.316-4.726-2.757-9.415-4.374-14.04-.046-.132-.19-.202-.322-.155-.13.046-.199.185-.16.314z" transform="translate(-166.000000, -2961.000000) translate(135.000000, 2743.000000) translate(0.000000, 188.000000) translate(30.000000, 30.000000) translate(1.000000, 0.000000) translate(21.091701, 20.416708)"/>
                            </g>
                            <g fill-rule="nonzero">
                                <path fill="#9CD4E9" d="M32.945 109.999c-.537 1.66-2.586 2.23-3.91 1.1-7.306-6.232-26.376-25.729-25.67-58.967C3.962 24.064 1.63 8.787.095 1.926-.23.476 1.476-.549 2.594.424c12.343 10.74 49.794 49.425 30.35 109.575z" transform="translate(-166.000000, -2961.000000) translate(135.000000, 2743.000000) translate(0.000000, 188.000000) translate(30.000000, 30.000000) translate(1.000000, 0.000000) translate(14.840764, 54.397655)"/>
                                <path fill="#FFF" d="M30.595 110.092c-.035.025-.073.047-.114.066-.34.155-.743.004-.898-.339-.175-.388-17.566-39.29-18.49-78.355-.009-.376.287-.688.662-.698.374-.008.684.29.694.666.917 38.78 18.195 77.438 18.369 77.824.137.301.036.65-.223.836z" transform="translate(-166.000000, -2961.000000) translate(135.000000, 2743.000000) translate(0.000000, 188.000000) translate(30.000000, 30.000000) translate(1.000000, 0.000000) translate(14.840764, 54.397655)"/>
                            </g>
                            <g fill-rule="nonzero">
                                <path fill="#E4EDFB" d="M111.48.66L6.107.012C2.645-.009-.125 2.898.047 6.374L5.46 118.758c1.027 21.318 18.61 38.075 39.954 38.075h79.141l6.511-134.427L111.48.66z" transform="translate(-166.000000, -2961.000000) translate(135.000000, 2743.000000) translate(0.000000, 188.000000) translate(30.000000, 30.000000) translate(1.000000, 0.000000) translate(35.241549, 12.278415)"/>
                                <path fill="url(#j3ulh9i0da)" d="M115.862 21.761c-3.433-.121-6.071-3.094-5.8-6.535L111.19.859l19.896 21.458-15.225-.556z" transform="translate(-166.000000, -2961.000000) translate(135.000000, 2743.000000) translate(0.000000, 188.000000) translate(30.000000, 30.000000) translate(1.000000, 0.000000) translate(35.241549, 12.278415)"/>
                                <g fill="#FFF">
                                    <path d="M56.462 40.058H5.955c-.373 0-.676-.304-.676-.68v-6.607c0-.376.303-.68.676-.68h50.507c.374 0 .677.304.677.68v6.608c-.001.375-.304.68-.677.68z" opacity=".82" transform="translate(-166.000000, -2961.000000) translate(135.000000, 2743.000000) translate(0.000000, 188.000000) translate(30.000000, 30.000000) translate(1.000000, 0.000000) translate(35.241549, 12.278415) translate(14.419775, 38.407036)"/>
                                    <path d="M94.768 40.328H77.327c-.374 0-.676-.304-.676-.68v-6.607c0-.376.302-.68.676-.68h17.441c.374 0 .677.304.677.68v6.607c0 .376-.303.68-.677.68zM94.493 56.351H77.05c-.373 0-.676-.304-.676-.68v-6.607c0-.376.303-.68.676-.68h17.442c.373 0 .676.304.676.68v6.608c0 .375-.303.68-.676.68zM94.43 71.536H76.988c-.374 0-.676-.305-.676-.68v-6.608c0-.375.302-.68.676-.68H94.43c.373 0 .676.305.676.68v6.608c0 .375-.303.68-.676.68zM94.153 87.559H76.712c-.374 0-.676-.304-.676-.68v-6.608c0-.375.302-.68.676-.68h17.441c.374 0 .677.305.677.68v6.608c0 .376-.303.68-.677.68z" opacity=".43" transform="translate(-166.000000, -2961.000000) translate(135.000000, 2743.000000) translate(0.000000, 188.000000) translate(30.000000, 30.000000) translate(1.000000, 0.000000) translate(35.241549, 12.278415) translate(14.419775, 38.407036)"/>
                                    <path d="M50.196 56.614H6.563c-.344 0-.624-.281-.624-.628v-6.71c0-.347.28-.628.624-.628h43.633c.344 0 .624.281.624.627v6.711c0 .347-.28.628-.624.628zM59.223 71.969H6.93c-.304 0-.55-.249-.55-.554v-6.858c0-.307.246-.554.55-.554h52.294c.305 0 .552.248.552.554v6.858c0 .305-.247.554-.552.554zM65.666 87.307H8.177c-.265 0-.48-.217-.48-.484v-7c0-.266.215-.482.48-.482h57.49c.265 0 .48.216.48.483v7c0 .266-.215.483-.48.483z" opacity=".82" transform="translate(-166.000000, -2961.000000) translate(135.000000, 2743.000000) translate(0.000000, 188.000000) translate(30.000000, 30.000000) translate(1.000000, 0.000000) translate(35.241549, 12.278415) translate(14.419775, 38.407036)"/>
                                    <path d="M92.684 9.977H9.076c-.571 0-1.035-.466-1.035-1.04V1.053c0-.574.463-1.04 1.035-1.04h83.608c.571 0 1.035.465 1.035 1.04v7.882c0 .575-.463 1.04-1.035 1.04z" opacity=".7" transform="translate(-166.000000, -2961.000000) translate(135.000000, 2743.000000) translate(0.000000, 188.000000) translate(30.000000, 30.000000) translate(1.000000, 0.000000) translate(35.241549, 12.278415) translate(14.419775, 38.407036)"/>
                                    <path d="M.965 28.957h99.71l.199-5.341c.098-2.666-2.11-4.808-4.868-4.808H5.539C2.75 18.808.53 21 .676 23.695l.289 5.262z" opacity=".43" transform="translate(-166.000000, -2961.000000) translate(135.000000, 2743.000000) translate(0.000000, 188.000000) translate(30.000000, 30.000000) translate(1.000000, 0.000000) translate(35.241549, 12.278415) translate(14.419775, 38.407036)"/>
                                    <path d="M93.46 98.063H9.29c-2.911 0-5.311-2.212-5.464-5.036L.076 23.776c-.077-1.435.429-2.808 1.428-3.867 1.034-1.097 2.505-1.727 4.037-1.727h90.466c1.513 0 2.972.617 4.004 1.693.996 1.038 1.516 2.392 1.464 3.811L98.93 92.937c-.107 2.874-2.509 5.126-5.47 5.126zM5.54 19.39c-1.203 0-2.356.492-3.165 1.35-.768.815-1.159 1.87-1.1 2.97l3.75 69.251c.118 2.184 1.991 3.893 4.264 3.893H93.46c2.31 0 4.185-1.74 4.267-3.962l2.545-69.251c.04-1.088-.36-2.128-1.128-2.928-.806-.841-1.95-1.323-3.139-1.323H5.54z" opacity=".77" transform="translate(-166.000000, -2961.000000) translate(135.000000, 2743.000000) translate(0.000000, 188.000000) translate(30.000000, 30.000000) translate(1.000000, 0.000000) translate(35.241549, 12.278415) translate(14.419775, 38.407036)"/>
                                </g>
                            </g>
                            <g>
                                <g>
                                    <path fill="#223D6A" fill-rule="nonzero" d="M.03 7.81c.023 22.574.216 100.433 1.79 127.986.167 2.918 2.562 5.203 5.478 5.224 14.422.1 55.905.225 79.45-1.376 4.903-.333 8.704-4.42 8.68-9.35-.12-23.69-.753-90.316-4.107-120.757-.402-3.647-3.338-6.485-6.988-6.755C68.6 1.613 26.821-1.156 6.493.695 2.826 1.03.027 4.12.03 7.811z" transform="translate(-166.000000, -2961.000000) translate(135.000000, 2743.000000) translate(0.000000, 188.000000) translate(30.000000, 30.000000) translate(1.000000, 0.000000) translate(103.192787, 30.092712) translate(0.072454, 0.197746)"/>
                                    <path fill="#FFFFFE" fill-rule="nonzero" d="M6.066 14.668c-.311 18.496-1.212 80.023.16 102.73.201 3.319 2.882 5.937 6.196 6.045 13.647.447 48.642 1.306 68.586-.815 3.592-.383 6.34-3.374 6.441-6.994.529-18.874 1.964-76.18.63-98.634-.212-3.581-3.057-6.438-6.629-6.667-14.775-.945-52.717-3.123-69.676-1.755-3.184.258-5.654 2.889-5.708 6.09z" transform="translate(-166.000000, -2961.000000) translate(135.000000, 2743.000000) translate(0.000000, 188.000000) translate(30.000000, 30.000000) translate(1.000000, 0.000000) translate(103.192787, 30.092712) translate(0.072454, 0.197746)"/>
                                    <g transform="translate(-166.000000, -2961.000000) translate(135.000000, 2743.000000) translate(0.000000, 188.000000) translate(30.000000, 30.000000) translate(1.000000, 0.000000) translate(103.192787, 30.092712) translate(0.072454, 0.197746) translate(9.013683, 21.135382)">
                                        <rect width="64.677" height="18" fill="#D1FCEC" rx="9"/>
                                        <rect width="69.652" height="18" x="6.129" y="25.574" fill="#FFF3E0" rx="9"/>
                                        <path fill="#26D796" fill-rule="nonzero" d="M9.13 13.072V7.898l1.932 5.174h1.687l1.92-5.161v5.16h2.09V4.467h-2.457l-2.384 5.958-2.409-5.958h-2.47v8.606H9.13zm12.239.098c.668 0 1.273-.143 1.815-.43.542-.285.97-.696 1.284-1.231.314-.536.47-1.155.47-1.858 0-.702-.154-1.322-.464-1.857-.31-.535-.733-.946-1.271-1.232-.538-.286-1.142-.429-1.81-.429-.668 0-1.271.143-1.81.43-.537.285-.961.696-1.271 1.231-.31.535-.465 1.155-.465 1.857 0 .711.153 1.333.459 1.864.306.531.725.94 1.26 1.226.533.286 1.134.429 1.803.429zm0-1.815c-.4 0-.732-.147-.997-.44-.265-.295-.397-.716-.397-1.264 0-.555.134-.978.403-1.268.27-.29.608-.436 1.015-.436.4 0 .736.148 1.009.442.273.294.41.715.41 1.262 0 .548-.141.969-.422 1.263-.282.294-.622.441-1.021.441zm6.773 1.717V9.357c0-.457.118-.813.355-1.066.236-.254.554-.38.953-.38.4 0 .718.126.954.38.236.253.354.609.354 1.066v3.715h2.079V9.075c0-.907-.238-1.62-.715-2.139-.477-.519-1.115-.778-1.914-.778-.448 0-.851.087-1.21.263-.359.176-.644.415-.856.717v-.907h-2.09v6.84h2.09zm9.952 0v-1.778h-.746c-.228 0-.39-.045-.489-.135-.097-.09-.146-.237-.146-.441V7.972h1.37v-1.74h-1.37V4.563h-2.091V6.23h-.831v1.74h.831v2.722c0 .842.212 1.449.636 1.82.424.373 1.015.559 1.773.559h1.063zm3.253 0V9.357c0-.457.118-.813.354-1.066.236-.254.554-.38.954-.38.4 0 .717.126.953.38.237.253.355.609.355 1.066v3.715h2.078V9.075c0-.907-.236-1.62-.709-2.139-.472-.519-1.1-.778-1.883-.778-.456 0-.868.09-1.234.27-.367.18-.657.42-.868.723V4h-2.091v9.072h2.09zm8.24 0V4h-2.09v9.072h2.09zm4.206 3.248l4.28-10.089H55.81l-1.565 4.279-1.577-4.279h-2.335l2.775 6.608-1.565 3.481h2.25z"/>
                                        <path fill="#FFB337" fill-rule="nonzero" d="M16.124 38.612c.807 0 1.545-.188 2.213-.564.668-.376 1.198-.901 1.59-1.576.39-.674.586-1.432.586-2.274 0-.841-.193-1.597-.58-2.268-.388-.67-.917-1.193-1.59-1.569-.672-.376-1.412-.564-2.219-.564-.807 0-1.547.188-2.219.564-.672.376-1.206.9-1.602 1.57-.395.67-.593 1.426-.593 2.267 0 .842.198 1.6.593 2.274.396.675.93 1.2 1.602 1.576.672.376 1.412.564 2.22.564zm0-1.913c-.693 0-1.245-.227-1.657-.68-.411-.454-.617-1.06-.617-1.82 0-.769.206-1.378.617-1.827.412-.45.964-.674 1.657-.674.685 0 1.233.226 1.645.68.411.453.617 1.06.617 1.82 0 .752-.206 1.357-.617 1.815-.412.457-.96.686-1.645.686zm7.642 1.827V34.81c0-.457.118-.813.354-1.066.237-.254.554-.38.954-.38.4 0 .717.126.953.38.237.253.355.609.355 1.066v3.715h2.079v-3.997c0-.907-.239-1.62-.716-2.139-.477-.519-1.114-.778-1.913-.778-.448 0-.852.088-1.21.263-.36.176-.644.415-.856.717v-.907h-2.091v6.84h2.09zm9.182.098c.554 0 1.055-.102 1.503-.307.449-.204.822-.486 1.12-.845.297-.36.502-.765.617-1.214h-2.226c-.203.441-.566.662-1.088.662-.35 0-.646-.113-.886-.337-.24-.225-.377-.55-.41-.975h4.732c.024-.212.037-.417.037-.613 0-.686-.145-1.287-.435-1.802-.289-.515-.69-.911-1.204-1.189-.513-.278-1.1-.417-1.76-.417-.677 0-1.276.143-1.798.43-.521.285-.927.694-1.216 1.225-.29.531-.434 1.153-.434 1.864 0 .71.146 1.332.44 1.863.293.531.7.94 1.223 1.226.521.286 1.116.429 1.785.429zm1.259-4.18H31.59c.058-.376.206-.667.447-.87.24-.205.536-.307.886-.307.367 0 .673.106.917.318.245.213.367.499.367.859zm9.732 4.082v-6.927h2.274V29.92h-6.639v1.68h2.274v6.926h2.091zm4.377-7.552c.359 0 .654-.108.887-.325.232-.216.348-.484.348-.803 0-.326-.116-.598-.348-.815-.233-.216-.528-.325-.887-.325-.367 0-.666.109-.899.325-.232.217-.348.489-.348.815 0 .32.116.587.348.803.233.217.532.325.9.325zm1.04 7.552v-6.84h-2.091v6.84h2.09zm3.606 0V34.81c0-.441.116-.782.349-1.023.232-.241.552-.362.96-.362.407 0 .727.12.96.362.231.24.348.582.348 1.023v3.715h2.078V34.81c0-.441.116-.782.349-1.023.232-.241.552-.362.96-.362.407 0 .727.12.96.362.231.24.348.582.348 1.023v3.715h2.078v-3.997c0-.915-.25-1.63-.752-2.145-.501-.515-1.176-.772-2.023-.772-.481 0-.926.118-1.333.355-.408.237-.73.544-.966.92-.228-.409-.544-.724-.947-.944-.404-.22-.862-.331-1.376-.331-.432 0-.82.083-1.161.251-.343.168-.62.394-.832.68v-.858h-2.09v6.84h2.09zm13.89.098c.554 0 1.055-.102 1.503-.307.448-.204.821-.486 1.119-.845.297-.36.503-.765.617-1.214h-2.225c-.204.441-.566.662-1.088.662-.35 0-.646-.113-.886-.337-.24-.225-.377-.55-.41-.975h4.732c.024-.212.036-.417.036-.613 0-.686-.144-1.287-.434-1.802-.29-.515-.69-.911-1.204-1.189s-1.1-.417-1.76-.417c-.677 0-1.276.143-1.798.43-.522.285-.927.694-1.216 1.225-.29.531-.435 1.153-.435 1.864 0 .71.147 1.332.44 1.863.294.531.702.94 1.223 1.226.522.286 1.117.429 1.785.429zm1.259-4.18h-2.617c.057-.376.206-.667.446-.87.24-.205.536-.307.887-.307.367 0 .672.106.917.318.244.213.367.499.367.859z"/>
                                    </g>
                                    <path fill="#21253E" fill-rule="nonzero" d="M35.565 3.887c.018.692.571 1.25 1.261 1.268 3.408.09 13.009.348 17.3.487.846.027 1.49-.751 1.308-1.58l-.032-.142c-.123-.565-.605-.981-1.181-1.019-2.903-.19-11.662-.703-17.447-.345-.694.042-1.227.633-1.209 1.331z" opacity=".47" transform="translate(-166.000000, -2961.000000) translate(135.000000, 2743.000000) translate(0.000000, 188.000000) translate(30.000000, 30.000000) translate(1.000000, 0.000000) translate(103.192787, 30.092712) translate(0.072454, 0.197746)"/>
                                </g>
                                <g fill-rule="nonzero">
                                    <path fill="#011269" d="M53.082 11.469c.003 6.182-4.45 11.197-9.947 11.2l-33.105.02c-5.496.003-9.955-5.007-9.959-11.19v-.135C.068 5.18 4.521.166 10.018.164l33.105-.02c5.497-.003 9.955 5.007 9.959 11.19v.135z" transform="translate(-166.000000, -2961.000000) translate(135.000000, 2743.000000) translate(0.000000, 188.000000) translate(30.000000, 30.000000) translate(1.000000, 0.000000) translate(103.192787, 30.092712) translate(21.030852, 80.237867)"/>
                                    <g fill="#FFF">
                                        <path d="M5.609 3.308c0 1.092-.272 1.93-.82 2.513-.547.584-1.337.876-2.371.877h-.475l.001 3.724-1.9.001L.038.15 2.63.147c1.984 0 2.977 1.053 2.979 3.16zm-3.667 1.73h.363c.466 0 .813-.129 1.041-.386.228-.257.342-.68.342-1.265 0-.54-.105-.939-.315-1.198-.21-.26-.533-.39-.972-.39h-.46v3.24zM11.447 10.417l-.589-2.593-2.662.002-.585 2.594h-1.9L8.234.103 10.81.101l2.543 10.315-1.907.001zm-.945-4.287l-.547-2.389c-.033-.145-.106-.51-.22-1.093-.115-.584-.184-.973-.208-1.17-.06.403-.137.847-.23 1.332-.092.485-.334 1.592-.724 3.32h1.929zM16.467 4.194L17.827.138 19.819.137 17.397 6.295 17.4 10.414 15.528 10.414 15.525 6.373 13.104.141 15.109.14z" transform="translate(-166.000000, -2961.000000) translate(135.000000, 2743.000000) translate(0.000000, 188.000000) translate(30.000000, 30.000000) translate(1.000000, 0.000000) translate(103.192787, 30.092712) translate(21.030852, 80.237867) translate(16.529923, 5.513038)"/>
                                    </g>
                                </g>
                            </g>
                            <g fill-rule="nonzero">
                                <g transform="translate(-166.000000, -2961.000000) translate(135.000000, 2743.000000) translate(0.000000, 188.000000) translate(30.000000, 30.000000) translate(1.000000, 0.000000) translate(27.498911, 10.422312) translate(0.000000, 14.991594)">
                                    <ellipse cx="8.41" cy="8.48" fill="url(#itoiapfh7b)" rx="7.368" ry="7.404"/>
                                    <ellipse cx="8.41" cy="8.48" fill="url(#unv54b4vhc)" rx="7.123" ry="7.158"/>
                                    <path fill="#FFF" d="M2.537 5.784c-.042 0-.085-.01-.125-.03-.136-.07-.19-.236-.122-.373 1.173-2.336 3.518-3.788 6.12-3.788.416 0 .831.038 1.236.112.15.028.25.172.223.323-.027.151-.172.25-.322.224-.372-.068-.754-.103-1.137-.103-2.391 0-4.547 1.334-5.625 3.481-.05.098-.148.154-.248.154z"/>
                                    <circle cx="8.564" cy="8.636" r="6.044" fill="#FFF" opacity=".78" transform="translate(8.564416, 8.635734) rotate(-45.000000) translate(-8.564416, -8.635734)"/>
                                    <path fill="url(#x43rvhjcjd)" d="M7.973 13.14v-.66c-.684-.027-1.36-.189-1.84-.4-.171-.076-.26-.27-.21-.45l.167-.615c.061-.225.305-.342.52-.251.476.2 1.064.36 1.699.36.658 0 1.15-.224 1.15-.685 0-.415-.38-.662-1.296-.909C6.858 9.171 5.92 8.6 5.92 7.444c0-1.043.76-1.84 2.076-2.053v-.659c0-.212.171-.384.382-.384h.386c.211 0 .382.172.382.384v.592c.633.026 1.093.134 1.459.264.187.066.29.269.238.46l-.154.568c-.059.22-.292.34-.503.259-.337-.128-.812-.262-1.43-.262-.782 0-1.005.326-1.005.617 0 .36.469.606 1.485.92 1.451.438 2.053 1.043 2.053 2.131 0 .998-.736 1.896-2.165 2.12v.738c0 .212-.171.384-.382.384h-.386c-.211 0-.383-.171-.383-.383z"/>
                                </g>
                                <g transform="translate(-166.000000, -2961.000000) translate(135.000000, 2743.000000) translate(0.000000, 188.000000) translate(30.000000, 30.000000) translate(1.000000, 0.000000) translate(27.498911, 10.422312) translate(14.774942, 0.000000)">
                                    <ellipse cx="14.607" cy="14.69" fill="url(#7fqvrzhbde)" rx="12.825" ry="12.889"/>
                                    <ellipse cx="14.607" cy="14.69" fill="url(#kd9931krof)" rx="12.399" ry="12.461"/>
                                    <path fill="#FFF" d="M4.382 9.792c-.042 0-.084-.009-.124-.03-.137-.069-.191-.236-.122-.373 2.007-3.996 6.019-6.48 10.47-6.48.71 0 1.422.065 2.115.192.15.028.25.172.223.324-.027.15-.172.25-.322.223-.66-.12-1.338-.182-2.015-.182-4.242 0-8.065 2.366-9.978 6.174-.048.097-.145.152-.247.152z"/>
                                    <circle cx="14.876" cy="14.963" r="10.521" fill="#FFF" opacity=".78" transform="translate(14.875663, 14.962584) rotate(-45.000000) translate(-14.875663, -14.962584)"/>
                                    <path fill="url(#ywciwt6igg)" d="M13.847 22.803v-1.147c-1.191-.048-2.368-.33-3.204-.698-.298-.132-.451-.469-.365-.784l.29-1.069c.106-.392.53-.595.903-.438.83.35 1.853.626 2.958.626 1.146 0 2.001-.39 2.001-1.191 0-.722-.66-1.152-2.254-1.581-2.273-.625-3.905-1.62-3.905-3.633 0-1.816 1.32-3.202 3.614-3.573V8.167c0-.37.298-.67.665-.67h.671c.367 0 .666.3.666.67v1.03c1.1.044 1.903.233 2.54.458.325.115.503.469.412.803l-.267.99c-.103.38-.508.589-.875.45-.586-.223-1.415-.455-2.49-.455-1.361 0-1.75.566-1.75 1.074 0 .624.816 1.054 2.584 1.6 2.526.763 3.576 1.817 3.576 3.71 0 1.738-1.283 3.301-3.77 3.692v1.284c0 .369-.298.669-.666.669h-.67c-.366 0-.664-.3-.664-.67z"/>
                                </g>
                                <g transform="translate(-166.000000, -2961.000000) translate(135.000000, 2743.000000) translate(0.000000, 188.000000) translate(30.000000, 30.000000) translate(1.000000, 0.000000) translate(27.498911, 10.422312) translate(23.227914, 28.341252)">
                                    <ellipse cx="14.999" cy="15.139" fill="url(#jl276opt0h)" rx="13.197" ry="13.263"/>
                                    <ellipse cx="14.999" cy="15.139" fill="url(#sex7zaajki)" rx="12.758" ry="12.822"/>
                                    <path fill="#FFF" d="M4.478 10.09c-.042 0-.085-.009-.124-.03-.137-.068-.191-.236-.123-.373C6.296 5.577 10.421 3.025 15 3.025c.73 0 1.462.066 2.174.196.15.028.25.172.222.323-.027.151-.17.251-.321.224-.68-.124-1.378-.188-2.075-.188-4.367 0-8.304 2.436-10.274 6.357-.048.098-.145.154-.247.154z"/>
                                    <circle cx="15.275" cy="15.419" r="10.825" fill="#FFF" opacity=".78" transform="translate(15.275414, 15.418693) rotate(-45.000000) translate(-15.275414, -15.418693)"/>
                                    <path fill="url(#yxotcevwcj)" d="M14.217 23.486v-1.18c-1.224-.05-2.435-.34-3.296-.719-.307-.135-.464-.482-.376-.807l.298-1.1c.11-.403.546-.611.93-.45.854.36 1.907.644 3.044.644 1.18 0 2.06-.402 2.06-1.226 0-.743-.68-1.186-2.32-1.628-2.34-.643-4.018-1.667-4.018-3.737 0-1.869 1.36-3.295 3.718-3.677v-1.18c0-.38.306-.689.685-.689h.69c.378 0 .685.308.685.688v1.06c1.133.046 1.958.241 2.613.472.335.119.518.482.425.827l-.274 1.017c-.106.392-.523.607-.901.464-.604-.23-1.455-.468-2.563-.468-1.4 0-1.8.582-1.8 1.105 0 .643.84 1.085 2.66 1.648 2.598.784 3.678 1.869 3.678 3.818 0 1.788-1.32 3.396-3.878 3.797v1.322c0 .38-.307.688-.685.688h-.69c-.379 0-.685-.31-.685-.689z"/>
                                </g>
                                <g transform="translate(-166.000000, -2961.000000) translate(135.000000, 2743.000000) translate(0.000000, 188.000000) translate(30.000000, 30.000000) translate(1.000000, 0.000000) translate(27.498911, 10.422312) translate(45.461361, 15.634091)">
                                    <ellipse cx="9.695" cy="9.779" fill="url(#b0piksi3ak)" rx="9.67" ry="9.718"/>
                                    <ellipse cx="9.695" cy="9.779" fill="url(#3t3xr2ipfl)" rx="9.348" ry="9.395"/>
                                    <path fill="#FFF" d="M1.987 6.154c-.042 0-.085-.009-.125-.03-.136-.069-.19-.236-.122-.373C3.265 2.715 6.313.83 9.695.83c.54 0 1.08.048 1.607.145.15.028.25.172.222.323-.027.151-.17.251-.321.224-.493-.091-1-.137-1.508-.137-3.171 0-6.03 1.77-7.461 4.617-.048.098-.146.153-.247.153z"/>
                                    <ellipse cx="9.904" cy="9.988" fill="#FFF" opacity=".78" rx="7.913" ry="7.95" transform="translate(9.903747, 9.987552) rotate(-10.899809) translate(-9.903747, -9.987552)"/>
                                    <path fill="url(#kxrncsmzvm)" d="M9.123 15.895v-.866c-.897-.036-1.785-.249-2.415-.526-.225-.099-.34-.352-.275-.59l.219-.807c.08-.295.4-.448.68-.33.626.264 1.398.472 2.23.472.865 0 1.51-.295 1.51-.898 0-.544-.499-.869-1.7-1.192-1.714-.471-2.944-1.222-2.944-2.738 0-1.37.996-2.415 2.725-2.695V4.86c0-.278.224-.504.501-.504h.506c.277 0 .501.226.501.504v.777c.83.033 1.435.176 1.915.345.246.087.38.353.312.606l-.201.745c-.078.288-.383.445-.661.34-.442-.168-1.066-.343-1.877-.343-1.026 0-1.319.427-1.319.81 0 .47.615.795 1.949 1.207 1.904.574 2.695 1.37 2.695 2.797 0 1.31-.966 2.488-2.842 2.783v.968c0 .278-.224.504-.501.504h-.506c-.278 0-.502-.226-.502-.504z"/>
                                </g>
                            </g>
                            <g>
                                <path fill="#F8A17A" fill-rule="nonzero" d="M1.963 10.505c.1.32-1.066.806-1.753-.5-.025-.627-.406-3.311-.03-3.821C2.176 3.466 6.05.058 6.05.058c.655.645.115 1.279.115 1.279L4.286 3.29C4.68 4 5.16 4.597 5.384 5.455c.17.65.066 1.343-.263 1.934-.33.593-.78 1.363-1.205 1.966-.805 1.141-1.953 1.15-1.953 1.15z" transform="translate(-166.000000, -2961.000000) translate(135.000000, 2743.000000) translate(0.000000, 188.000000) translate(30.000000, 30.000000) translate(1.000000, 0.000000) translate(68.461728, 57.578168) translate(58.356760, 0.997144)"/>
                                <g transform="translate(-166.000000, -2961.000000) translate(135.000000, 2743.000000) translate(0.000000, 188.000000) translate(30.000000, 30.000000) translate(1.000000, 0.000000) translate(68.461728, 57.578168) translate(0.072454, 4.607977)">
                                    <ellipse cx="23.819" cy="120.95" fill="#E7EEF9" rx="23.638" ry="7.499"/>
                                    <path fill="url(#ahhfxmiopn)" fill-rule="nonzero" d="M26.847 113.925s-.43 2.45-.64 4.877c-.082.948.643 1.77 1.585 1.811 3.202.135 10.052.397 12.51.285.37-.016.612-.398.475-.744-.115-.29-.336-.526-.618-.656l-11.314-5.247-1.998-.326z"/>
                                    <path fill="url(#zx0k2a21do)" fill-rule="nonzero" d="M26.495 112.486l.345 2.93s1.982.932 3.335-.116l-.82-3.267-2.86.453z"/>
                                    <path fill="#223D6A" fill-rule="nonzero" d="M26.754 57.374c-.149.766-.8 38.202 3.167 54.978.065.274-.073.555-.33.662-.609.251-1.802.614-3.231.663-.443.014-.84-.276-.965-.704-1.133-3.893-6.566-23.394-7.275-42.023-.792-20.817 0-.709 0-.709l.465-12.867h8.17z"/>
                                    <path fill="url(#zdkf2jglgp)" fill-rule="nonzero" d="M13.832 115.204s-.684 1.237-1.345 4.525c-.12.594.292 1.162.89 1.221 1.057.105 2.685.24 3.99.231.6-.004 1.07-.532.997-1.134-.145-1.2-.594-3.169-1.985-4.703l-2.547-.14z"/>
                                    <path fill="url(#baithpodsq)" fill-rule="nonzero" d="M13.231 111.433l.806 4.434s.796.597 2.372.164l-.384-4.77-2.794.172z"/>
                                    <path fill="#223D6A" fill-rule="nonzero" d="M11.056 58.523c-3.245 19.751.703 48.817 2.035 54.506.081.348.36.615.71.674.594.1 1.572.18 2.538-.103.332-.097.565-.4.579-.749.179-4.6-.143-32.834 2.88-43.992.154-.565.495-1.059.969-1.398l5.867-4.208.45-6.802-16.028 2.072z"/>
                                    <g fill-rule="nonzero">
                                        <path fill="#FFC73C" d="M21.943 15.236C12.22 15.074 1.495 17.81 1.495 17.81-1.402 34.87.99 54.545.99 54.545c7.526 1.992 16.016-1.217 16.016-1.217 1.25-7.13 7.087-27.196 7.087-27.196 4.75-.595 8.663-1.977 11.884-3.805-2.457-2.874-3.616-6.531-4.12-8.693-3.437 1.076-6.915 1.651-9.913 1.602z" transform="translate(9.783276, 5.862187)"/>
                                        <path fill="#F8A17A" d="M50.658.79c-.955-1.164-2.164-.614-2.164-.614-1.43 6.097-8.932 11.04-16.638 13.456.503 2.162 1.662 5.82 4.12 8.693C48.766 15.071 50.658.79 50.658.79z" transform="translate(9.783276, 5.862187)"/>
                                    </g>
                                    <path fill="#FFC73C" fill-rule="nonzero" d="M15.007 33.17l-3.73-9.496S2.198 29.898.705 37.79c1.716.128 4.838.578 7.894 2.135.672-3.727 6.409-6.755 6.409-6.755z"/>
                                    <path fill="url(#fhaccuxstr)" fill-rule="nonzero" d="M21.879 13.136l-3.094 9.025c-.051.15.01.315.147.392.843.47 3.88 1.83 7.541-.512.382-.244.641-.641.7-1.094l1-7.81H21.88v-.001z"/>
                                    <g fill-rule="nonzero">
                                        <path fill="url(#5iezumu93s)" d="M12.669 4.778s3.397 6.451 2.961 9.057c-.435 2.605-4.645 2.418-8.32.302L4.74 7.172l7.929-2.394z" transform="translate(15.940643, 0.000000)"/>
                                        <path fill="url(#jtjby9luut)" d="M7.471 10.716c.15-.066.205-.25.116-.389-.273-.419-.783-1.275-.946-2.025 0 0-.61-.394 1.554-.917 2.165-.523 5.394-1.334 6.072-3.193.662-1.813-1.076-6.37-3.85-2.739-.106.139-.312.141-.417.003C9.546.859 8.35-.38 6.69.37c-1.553.703-1.727 1.85-1.706 2.43.006.17-.145.302-.31.27-.785-.151-2.67-.28-3.55 1.67C.402 6.346.873 7.255 1.3 7.7c.139.144.078.38-.113.44C.671 8.3.005 8.74.072 9.96c.092 1.686 1.96 1.538 2.492 1.46.088-.012.176.018.235.084.456.509 2.511 2.672 4.736 2.933.192.022.341-.17.278-.355L6.85 11.26c-.045-.131.018-.275.143-.331l.478-.213z" transform="translate(15.940643, 0.000000)"/>
                                        <path fill="url(#qpsyppw4du)" d="M7.858 11.117s-2.419-1.674-2.595-.264c-.177 1.41 2.178 2.042 3.344 1.516l-.749-1.252z" transform="translate(15.940643, 0.000000)"/>
                                    </g>
                                    <path fill="#F8A17A" fill-rule="nonzero" d="M8.598 39.924s-3.174 14.446-.3 22.567c-3.524 1.648-2.873 1.338-2.873 1.338S-1.547 43.275.705 37.79c4.438-.475 6.639.728 7.893 2.134z"/>
                                    <path fill="#F8A17A" fill-rule="nonzero" d="M8.3 62.49s1.815 2.372 1.67 3.317c-.144.945-.179 1.329-.179 1.329s-.912-.63-.855-1.434c.127 2.554.974 5.458.204 5.318-.77-.14-4.759-3.848-3.857-7.802 2.045-1.435 2.618-1.278 3.016-.727z"/>
                                </g>
                            </g>
                        </g>
                    </g>
                </g>
            </g>
        </g>
    </g>
</svg>
