<svg id="Component_100_1" data-name="Component 100 – 1" xmlns="http://www.w3.org/2000/svg" width="629.697" height="616.683" viewBox="0 0 629.697 616.683">
  <path id="Path_1486" data-name="Path 1486" d="M335.046,356.359c34.663,165.989-192.85,144.322-278.44,42.773S-16.049,145.877,85.5,60.284,353.744-23.307,424.348,89.179C517.693,237.9,307.9,226.354,335.046,356.359Z" transform="matrix(0.454, -0.891, 0.891, 0.454, 0, 399.571)" fill="#e8ecd6"/>
  <g id="Group_1136" data-name="Group 1136" transform="translate(159.301 210.041)">
    <g id="Group_1010" data-name="Group 1010" transform="translate(48.315 37.923)">
      <g id="Group_980" data-name="Group 980" transform="translate(0 64.579)">
        <g id="Group_977" data-name="Group 977" transform="translate(21.538 78.21)">
          <rect id="Rectangle_1398" data-name="Rectangle 1398" width="5.018" height="17.731" transform="translate(27.284 11.59)" fill="#fff"/>
          <path id="Path_1236" data-name="Path 1236" d="M512.377,171.876H486.5a4.817,4.817,0,0,1-4.817-4.817h0a4.816,4.816,0,0,1,4.817-4.815h25.872a4.816,4.816,0,0,1,4.815,4.815h0A4.816,4.816,0,0,1,512.377,171.876Z" transform="translate(-469.451 -162.244)" fill="#1c2e34"/>
          <rect id="Rectangle_1399" data-name="Rectangle 1399" width="9.18" height="6.297" transform="translate(25.353 7.38)" fill="#1c2e34"/>
          <rect id="Rectangle_1400" data-name="Rectangle 1400" width="9.18" height="27.57" transform="translate(25.353 26.443)" fill="#1c2e34"/>
          <rect id="Rectangle_1401" data-name="Rectangle 1401" width="51.843" height="3.836" transform="translate(3.492 50.615)" fill="#1c2e34"/>
          <rect id="Rectangle_1402" data-name="Rectangle 1402" width="3.041" height="11.925" transform="translate(3.492 50.615)" fill="#1c2e34"/>
          <path id="Path_1237" data-name="Path 1237" d="M482.053,210.275a4.765,4.765,0,1,1-4.765-4.764A4.764,4.764,0,0,1,482.053,210.275Z" transform="translate(-472.524 -147.735)" fill="#1c2e34"/>
          <rect id="Rectangle_1403" data-name="Rectangle 1403" width="3.041" height="11.925" transform="translate(52.293 50.615)" fill="#1c2e34"/>
          <path id="Path_1238" data-name="Path 1238" d="M518.6,210.275a4.764,4.764,0,1,1-4.765-4.764A4.763,4.763,0,0,1,518.6,210.275Z" transform="translate(-460.268 -147.735)" fill="#1c2e34"/>
        </g>
        <g id="Group_979" data-name="Group 979">
          <g id="Group_978" data-name="Group 978" transform="translate(4.495)">
            <path id="Path_1239" data-name="Path 1239" d="M527.925,187.365a35.633,35.633,0,0,1-35.592-35.592v-43.6a4.495,4.495,0,1,1,8.99,0v43.6a26.632,26.632,0,0,0,26.6,26.6,4.495,4.495,0,0,1,0,8.99Z" transform="translate(-448.839 -103.675)" fill="#1a1d1c"/>
            <path id="Path_1240" data-name="Path 1240" d="M507.751,103.675h-47.99l2.918,35.211-1.4,26.484,23.935,15.239,5.643,6.756h47.99L525.8,179.1l-9.728-11.025-3.891-2.378-3.243-21.4-.216-25.725Z" transform="translate(-459.761 -103.675)" fill="#1c2e34"/>
          </g>
          <path id="Path_1241" data-name="Path 1241" d="M491.987,187.365A35.633,35.633,0,0,1,456.4,151.773v-43.6a4.495,4.495,0,0,1,8.99,0v43.6a26.632,26.632,0,0,0,26.6,26.6,4.495,4.495,0,0,1,0,8.99Z" transform="translate(-456.395 -103.675)" fill="#1a1d1c"/>
        </g>
      </g>
      <g id="Group_1009" data-name="Group 1009" transform="translate(21.379 0)">
        <g id="Group_993" data-name="Group 993" transform="translate(14.792 113.864)">
          <g id="Group_986" data-name="Group 986" transform="translate(28.9)">
            <g id="Group_982" data-name="Group 982" transform="translate(29.443 59.184)">
              <path id="Path_1242" data-name="Path 1242" d="M544.26,211.363l-.38-25.765L530.8,184.9l.36,27.674,12.613.08Z" transform="translate(-525.957 -184.904)" fill="#ffb0a0"/>
              <g id="Group_981" data-name="Group 981" transform="translate(0 19.696)">
                <path id="Path_1243" data-name="Path 1243" d="M530.545,202.218s10.815,4.448,15.895-2.564L568.7,213.18l-41.512-.267Z" transform="translate(-527.167 -199.654)" fill="#4bcc96"/>
                <rect id="Rectangle_1404" data-name="Rectangle 1404" width="3.823" height="41.512" transform="matrix(0.006, -1, 1, 0.006, 0, 17.082)" fill="#fff"/>
                <path id="Path_1244" data-name="Path 1244" d="M541.66,205.3a.722.722,0,0,0,.3-.231,15.209,15.209,0,0,1,3.422-3.337.675.675,0,0,0,.2-.967.764.764,0,0,0-1.015-.195,16.271,16.271,0,0,0-3.8,3.679.676.676,0,0,0,.163.975A.767.767,0,0,0,541.66,205.3Z" transform="translate(-522.659 -199.384)" fill="#fff"/>
                <path id="Path_1245" data-name="Path 1245" d="M544.336,206.639a.746.746,0,0,0,.3-.23,15.147,15.147,0,0,1,3.421-3.337.678.678,0,0,0,.2-.968.761.761,0,0,0-1.015-.194,16.2,16.2,0,0,0-3.8,3.678.679.679,0,0,0,.163.976A.765.765,0,0,0,544.336,206.639Z" transform="translate(-521.762 -198.936)" fill="#fff"/>
                <path id="Path_1246" data-name="Path 1246" d="M547.011,207.977a.738.738,0,0,0,.3-.231,15.122,15.122,0,0,1,3.422-3.334.677.677,0,0,0,.2-.968.761.761,0,0,0-1.015-.195,16.3,16.3,0,0,0-3.8,3.678.677.677,0,0,0,.163.975A.765.765,0,0,0,547.011,207.977Z" transform="translate(-520.865 -198.487)" fill="#fff"/>
              </g>
            </g>
            <g id="Group_985" data-name="Group 985">
              <g id="Group_984" data-name="Group 984">
                <g id="Group_983" data-name="Group 983">
                  <path id="Path_1247" data-name="Path 1247" d="M505.125,140.583l6.132,5.136c-1.789,10.966-7.7,20.923,3.41,20.923h19.7v45.3l22.105.3,1.234-55.5a15.8,15.8,0,0,0-15.76-16.092Z" transform="translate(-505.125 -140.583)" fill="#3d4642"/>
                  <rect id="Rectangle_1405" data-name="Rectangle 1405" width="25.431" height="8.573" transform="translate(53.275 71.655) rotate(180)" fill="#1a1d1c"/>
                </g>
              </g>
            </g>
          </g>
          <g id="Group_992" data-name="Group 992">
            <g id="Group_988" data-name="Group 988" transform="translate(22.929 59.184)">
              <path id="Path_1248" data-name="Path 1248" d="M517.74,211.363l-.38-25.765-13.078-.694.36,27.674,12.613.08Z" transform="translate(-499.437 -184.904)" fill="#ffb0a0"/>
              <g id="Group_987" data-name="Group 987" transform="translate(0 19.696)">
                <path id="Path_1249" data-name="Path 1249" d="M504.025,202.218s10.815,4.448,15.895-2.564l22.266,13.526-41.512-.267Z" transform="translate(-500.647 -199.654)" fill="#4bcc96"/>
                <rect id="Rectangle_1406" data-name="Rectangle 1406" width="3.823" height="41.512" transform="translate(0 17.082) rotate(-89.631)" fill="#fff"/>
                <path id="Path_1250" data-name="Path 1250" d="M515.14,205.3a.722.722,0,0,0,.3-.231,15.176,15.176,0,0,1,3.422-3.337.675.675,0,0,0,.2-.967.764.764,0,0,0-1.015-.195,16.268,16.268,0,0,0-3.8,3.679.677.677,0,0,0,.161.975A.77.77,0,0,0,515.14,205.3Z" transform="translate(-496.139 -199.384)" fill="#fff"/>
                <path id="Path_1251" data-name="Path 1251" d="M517.815,206.639a.743.743,0,0,0,.3-.23,15.144,15.144,0,0,1,3.421-3.337.678.678,0,0,0,.2-.968.761.761,0,0,0-1.015-.194,16.173,16.173,0,0,0-3.8,3.678.677.677,0,0,0,.163.976A.762.762,0,0,0,517.815,206.639Z" transform="translate(-495.242 -198.936)" fill="#fff"/>
                <path id="Path_1252" data-name="Path 1252" d="M520.49,207.977a.733.733,0,0,0,.3-.231,15.121,15.121,0,0,1,3.422-3.334.678.678,0,0,0,.2-.968.761.761,0,0,0-1.015-.195,16.272,16.272,0,0,0-3.8,3.678.677.677,0,0,0,.163.975A.763.763,0,0,0,520.49,207.977Z" transform="translate(-494.345 -198.487)" fill="#fff"/>
              </g>
            </g>
            <g id="Group_991" data-name="Group 991">
              <g id="Group_990" data-name="Group 990">
                <g id="Group_989" data-name="Group 989">
                  <path id="Path_1253" data-name="Path 1253" d="M484.559,140.583l-.837,5.136a18.022,18.022,0,0,0,17.787,20.923h5.325v45.3l22.107.3,1.232-55.5a15.8,15.8,0,0,0-15.758-16.092Z" transform="translate(-483.483 -140.583)" fill="#3d4642"/>
                  <rect id="Rectangle_1407" data-name="Rectangle 1407" width="25.431" height="8.573" transform="translate(47.383 71.655) rotate(180)" fill="#1a1d1c"/>
                </g>
              </g>
            </g>
          </g>
        </g>
        <g id="Group_1003" data-name="Group 1003" transform="translate(0 48.647)">
          <g id="Group_996" data-name="Group 996" transform="translate(58.085 3.097)">
            <g id="Group_994" data-name="Group 994" transform="translate(2.036 39.229)">
              <path id="Path_1254" data-name="Path 1254" d="M528.165,126.84l29.786,6.27,1.605,5.976-39,.553-3.125-16.2Z" transform="translate(-517.428 -123.44)" fill="#ffc9bd"/>
              <path id="Path_1255" data-name="Path 1255" d="M545.513,131.055s6.09-3.7,12.126-2.154c3.979,1.018,7.923,4.843,7.617,8.939h0l-24.23-.31Z" transform="translate(-509.514 -121.735)" fill="#f9a498"/>
            </g>
            <g id="Group_995" data-name="Group 995">
              <path id="Path_1256" data-name="Path 1256" d="M530.379,109.862l3.438,25.5s-14.889,7.834-14.575,6.893-3.34-32.393-3.34-32.393Z" transform="translate(-515.903 -88.765)" fill="#ffc9bd"/>
              <path id="Path_1257" data-name="Path 1257" d="M516.785,94.063s10.927,1.719,13.42,11.045c3.248,12.153,4.484,13.9,4.484,13.9l-16.524,2.4Z" transform="translate(-515.607 -94.063)" fill="#0b181b"/>
            </g>
          </g>
          <g id="Group_998" data-name="Group 998" transform="translate(13.458)">
            <g id="Group_997" data-name="Group 997">
              <path id="Path_1258" data-name="Path 1258" d="M507.284,91.744l21,3.1a4.372,4.372,0,0,1,3.735,4.282l.5,49.826-46.86.14-3.179-43.467,1.743-5.892a7.458,7.458,0,0,1,5.976-5.252Z" transform="translate(-482.483 -91.744)" fill="#0b181b"/>
            </g>
          </g>
          <g id="Group_1002" data-name="Group 1002" transform="translate(0 1.758)">
            <g id="Group_999" data-name="Group 999" transform="translate(1.517)">
              <path id="Path_1259" data-name="Path 1259" d="M496.358,113.979l-8.774,22.683L474.05,124.883l5.253-16.321Z" transform="translate(-473.37 -87.863)" fill="#ffc9bd"/>
              <path id="Path_1260" data-name="Path 1260" d="M505.07,93.061s-16.31-.144-20.363,4.671C479.6,103.8,473.541,119.3,473.541,119.3l26.525,5.845Z" transform="translate(-473.541 -93.061)" fill="#0b181b"/>
            </g>
            <g id="Group_1001" data-name="Group 1001" transform="translate(0 37.02)">
              <g id="Group_1000" data-name="Group 1000">
                <path id="Path_1261" data-name="Path 1261" d="M489.65,128.777l30.609,6.817L519,142.372l-36.168.242s-16.176-3.264-8.228-21.83Z" transform="translate(-472.405 -120.784)" fill="#ffc9bd"/>
                <path id="Path_1262" data-name="Path 1262" d="M509.355,132.368s7.192-2.815,13.148-1.7a8.172,8.172,0,0,1,6.454,8.717v.005l-24.039-.22Z" transform="translate(-461.502 -117.558)" fill="#ffc9bd"/>
              </g>
              <line id="Line_30" data-name="Line 30" x1="7.558" y1="1.046" transform="translate(9.687 6.946)" fill="none" stroke="#ffb0a0" stroke-miterlimit="10" stroke-width="0.5"/>
            </g>
          </g>
        </g>
        <g id="Group_1008" data-name="Group 1008" transform="translate(19.394)">
          <path id="Path_1263" data-name="Path 1263" d="M511.559,63.963s8.329,7.826.127,10.663Z" transform="translate(-478.669 -52.413)" fill="#1a1d1c"/>
          <path id="Path_1264" data-name="Path 1264" d="M507.843,75.8a5.7,5.7,0,0,0,5.416,5.928,5.637,5.637,0,0,0,5.729-5.576,5.7,5.7,0,0,0-5.416-5.929A5.639,5.639,0,0,0,507.843,75.8Z" transform="translate(-479.916 -50.314)" fill="#7dc4a6"/>
          <path id="Path_1265" data-name="Path 1265" d="M509.741,84.84l.437,11.1c.162,3.9-2.079,6.066-5.8,6.175h0c-3.173.092-6.717-1.309-6.713-4.748l.125-17.493Z" transform="translate(-483.327 -47.079)" fill="#ffc9bd"/>
          <path id="Path_1266" data-name="Path 1266" d="M510.027,91.693s-9.01,1.118-12.217-8.949c-1.009-3.171,11.879.433,11.879.433Z" transform="translate(-483.299 -46.553)" fill="#1a1d1c" opacity="0.56"/>
          <path id="Path_1267" data-name="Path 1267" d="M507.83,94.786h0c6.338-.235,11.364-5.6,11.338-10.95l-.114-11.193a12.292,12.292,0,0,0-11.7-12.4h0c-6.647-.21-13.352,5.148-13.538,12.01l.195,8.721A13.951,13.951,0,0,0,507.83,94.786Z" transform="translate(-484.62 -53.661)" fill="#ffc9bd"/>
          <g id="Group_1004" data-name="Group 1004" transform="translate(18.166 20.235)">
            <path id="Path_1268" data-name="Path 1268" d="M508.13,75.641l.3,2.154-1.565.122" transform="translate(-498.408 -68.732)" fill="none" stroke="#0b181b" stroke-linecap="round" stroke-linejoin="round" stroke-width="0.527"/>
            <path id="Path_1269" data-name="Path 1269" d="M503.217,70.755s2.587-.324,2.657.765c0,0,.028.738-2.231.976s-2.855.091-3.089-.6S502,70.811,503.217,70.755Z" transform="translate(-500.532 -70.386)" fill="#0b181b"/>
            <path id="Path_1270" data-name="Path 1270" d="M510.959,70.474s-2.151-.142-2.285.889c0,0-.073.7,1.808.78s2.482-.19,2.637-.757C513.294,70.743,511.979,70.45,510.959,70.474Z" transform="translate(-497.802 -70.467)" fill="#0b181b"/>
            <path id="Path_1271" data-name="Path 1271" d="M509.377,74.205a1.091,1.091,0,1,0,1.082-1.132A1.111,1.111,0,0,0,509.377,74.205Z" transform="translate(-497.566 -69.593)" fill="#0b181b"/>
            <path id="Path_1272" data-name="Path 1272" d="M502.218,74.247a1.092,1.092,0,1,0,1.082-1.132A1.111,1.111,0,0,0,502.218,74.247Z" transform="translate(-499.967 -69.579)" fill="#0b181b"/>
            <line id="Line_31" data-name="Line 31" y1="0.409" x2="2.904" transform="translate(7.285 12.558)" fill="none" stroke="#0b181b" stroke-linecap="round" stroke-linejoin="round" stroke-width="0.527"/>
          </g>
          <path id="Path_1273" data-name="Path 1273" d="M527.083,62.708l-4.809-.681c1.4-.893,2.812-1.781,2.812-1.781a25.742,25.742,0,0,0-7.649-1.126,22.7,22.7,0,0,0-10.309-2.635c-5.583-.068-10.35,2.959-12.073,6.291l0-.005s-4.634-.284-5.269,4.961c-.825,6.8,7.356,18.027,7.356,18.027l.917-8.881c5.073-.363,5.308-4.837,4.91-7.754,2.282.194,10.154.713,16.307-.658a7.107,7.107,0,0,0,2.35-.652C524.528,66.814,526.7,65.218,527.083,62.708Z" transform="translate(-485.991 -54.921)" fill="#1a1d1c"/>
          <g id="Group_1005" data-name="Group 1005" transform="translate(3.553 22.861)">
            <path id="Path_1274" data-name="Path 1274" d="M489.591,76.9a4.558,4.558,0,0,0,4.332,4.743,4.508,4.508,0,0,0,4.582-4.461,4.557,4.557,0,0,0-4.332-4.742A4.51,4.51,0,0,0,489.591,76.9Z" transform="translate(-489.59 -72.433)" fill="#ffba99"/>
            <path id="Path_1275" data-name="Path 1275" d="M494.8,77.484s.089-3.336-3.014-2.908" transform="translate(-488.852 -71.728)" fill="none" stroke="#312220" stroke-linecap="round" stroke-linejoin="round" stroke-width="0.558"/>
          </g>
          <g id="Group_1007" data-name="Group 1007">
            <path id="Path_1276" data-name="Path 1276" d="M510.273,56.493l.14.642s-8.052.847-11.723,5.742c-4.091,5.455-4.156,12.814-4.156,12.814l-1.741.147.116-11.667,3.488-3.636,5.563-3.328,3.893-1.245Z" transform="translate(-484.962 -55.096)" fill="#4faf86"/>
            <g id="Group_1006" data-name="Group 1006" transform="translate(0 19.118)">
              <path id="Path_1277" data-name="Path 1277" d="M500.9,75.353c.832,3.834-1.642,7.625-6.5,8.678-3.439.746-5.117-2.145-5.948-5.978s1.282-7.546,4.72-8.291S500.067,71.519,500.9,75.353Z" transform="translate(-486.48 -69.63)" fill="#4faf86"/>
              <path id="Path_1278" data-name="Path 1278" d="M499.563,75.643c.832,3.834-1.282,7.546-4.72,8.291s-6.9-1.757-7.733-5.591,1.282-7.546,4.72-8.291S498.731,71.809,499.563,75.643Z" transform="translate(-486.929 -69.533)" fill="#7dc4a6"/>
            </g>
            <path id="Path_1279" data-name="Path 1279" d="M490.974,75.765a27.152,27.152,0,0,1,.35-8.921A14.577,14.577,0,0,1,503.26,55.661c.454-.083.931-.159,1.434-.227a9.04,9.04,0,0,1,5.154.59,6.214,6.214,0,0,1,1.106.686s-7.821.323-11.585,4.507a21.593,21.593,0,0,0-5.093,15.263Z" transform="translate(-485.644 -55.314)" fill="#7dc4a6"/>
          </g>
          <path id="Path_1280" data-name="Path 1280" d="M494.448,93.157l8.824-1.413,11.735,1.729s.722,6.848-9.2,7.136S494.448,93.157,494.448,93.157Z" transform="translate(-484.407 -43.097)" fill="#ffc9bd"/>
        </g>
      </g>
    </g>
    <line id="Line_32" data-name="Line 32" y2="98.302" transform="translate(130.574 149.714)" fill="none" stroke="#3d4642" stroke-miterlimit="10" stroke-width="1.161"/>
    <line id="Line_33" data-name="Line 33" y2="98.302" transform="translate(68.268 149.714)" fill="none" stroke="#3d4642" stroke-miterlimit="10" stroke-width="1.161"/>
    <line id="Line_34" data-name="Line 34" y2="98.302" transform="translate(281.778 149.714)" fill="none" stroke="#3d4642" stroke-miterlimit="10" stroke-width="1.161"/>
    <line id="Line_35" data-name="Line 35" y2="98.302" transform="translate(219.472 149.714)" fill="none" stroke="#3d4642" stroke-miterlimit="10" stroke-width="1.161"/>
    <rect id="Rectangle_1408" data-name="Rectangle 1408" width="240.552" height="7.905" transform="translate(53.781 144.287)" fill="#818181"/>
    <rect id="Rectangle_1409" data-name="Rectangle 1409" width="185.187" height="7.905" transform="translate(112.613 144.287)" fill="#fff"/>
    <line id="Line_36" data-name="Line 36" x1="327.819" transform="translate(0 248.015)" fill="none" stroke="#3d4642" stroke-miterlimit="10" stroke-width="1.161"/>
    <path id="Path_1483" data-name="Path 1483" d="M314.327,244.207v-1.05c3.374,0,5.828-.841,7.3-2.5a6.252,6.252,0,0,0,1.467-4.491l1.042-.128a7.26,7.26,0,0,1-1.722,5.315C320.734,243.246,318.015,244.207,314.327,244.207Z" transform="translate(-198.415 -168.538)" fill="#7dc4a6"/>
    <path id="Path_1484" data-name="Path 1484" d="M311.852,253.322a1.75,1.75,0,1,1-1.72-1.426A1.594,1.594,0,0,1,311.852,253.322Z" transform="translate(-194.785 -178.268)" fill="#4faf86"/>
    <g id="Group_1130" data-name="Group 1130" transform="translate(114.962 99.477)">
      <path id="Path_1233" data-name="Path 1233" d="M189.839,370.063h36.9V365.9h-36.9a2.082,2.082,0,0,0-2.082,2.082h0A2.082,2.082,0,0,0,189.839,370.063Z" transform="translate(-187.757 -325.186)" fill="#7dc4a6"/>
      <g id="Group_970" data-name="Group 970" transform="translate(34.129 0)">
        <path id="Path_1234" data-name="Path 1234" d="M139.3,380.287h52.984a6.272,6.272,0,0,0,6.044-4.591l10.45-37.544a2.161,2.161,0,0,0-2.082-2.741H153.089a2.579,2.579,0,0,0-2.493,1.923Z" transform="translate(-139.304 -335.41)" fill="#7dc4a6"/>
        <path id="Path_1235" data-name="Path 1235" d="M159.851,354.023a4.626,4.626,0,1,0,4.626-4.627A4.626,4.626,0,0,0,159.851,354.023Z" transform="translate(-126.982 -330.72)" fill="#fff"/>
      </g>
    </g>
    <g id="Group_1131" data-name="Group 1131" transform="translate(11.04 10.05)">
      <g id="Group_900" data-name="Group 900" transform="translate(0 0)">
        <g id="Group_898" data-name="Group 898">
          <g id="Group_897" data-name="Group 897">
            <rect id="Rectangle_1377" data-name="Rectangle 1377" width="61.076" height="43.415" rx="3.242" transform="translate(61.076 43.415) rotate(180)" fill="#fff"/>
            <path id="Path_1143" data-name="Path 1143" d="M471.357,298.293l-4.687,9.1a1.625,1.625,0,0,1-2.831.1l-5.618-9.206Z" transform="translate(-418.508 -258.43)" fill="#fff"/>
          </g>
        </g>
        <g id="Group_899" data-name="Group 899" transform="translate(15.548 12.282)">
          <rect id="Rectangle_1378" data-name="Rectangle 1378" width="29.204" height="18.288" fill="#7dc4a6"/>
          <path id="Path_1144" data-name="Path 1144" d="M440.124,277.639l14.177,9.242,15.027-9.242" transform="translate(-440.124 -277.639)" fill="none" stroke="#fff" stroke-linecap="round" stroke-linejoin="round" stroke-width="1.146"/>
        </g>
      </g>
      <g id="Group_903" data-name="Group 903" transform="translate(140.982 28.599)">
        <g id="Group_902" data-name="Group 902">
          <path id="Rectangle_1379" data-name="Rectangle 1379" d="M1.5,0H26.8a1.5,1.5,0,0,1,1.5,1.5v12.31a1.5,1.5,0,0,1-1.5,1.5H0a0,0,0,0,1,0,0V1.5A1.5,1.5,0,0,1,1.5,0Z" transform="translate(0.02)" fill="#7dc4a6"/>
          <path id="Path_1145" data-name="Path 1145" d="M534.08,298.945l-.021,6.761,5.773-6.743Z" transform="translate(-534.059 -286.81)" fill="#7dc4a6"/>
          <g id="Group_901" data-name="Group 901" transform="translate(8.01 6.172)">
            <path id="Path_1146" data-name="Path 1146" d="M548.24,295.776a1.274,1.274,0,1,0,1.278-1.27A1.274,1.274,0,0,0,548.24,295.776Z" transform="translate(-537.313 -294.471)" fill="#fff"/>
            <path id="Path_1147" data-name="Path 1147" d="M544.148,295.763a1.274,1.274,0,1,0,1.278-1.27A1.274,1.274,0,0,0,544.148,295.763Z" transform="translate(-538.685 -294.476)" fill="#fff"/>
            <path id="Path_1148" data-name="Path 1148" d="M540.057,295.75a1.274,1.274,0,1,0,1.278-1.27A1.274,1.274,0,0,0,540.057,295.75Z" transform="translate(-540.057 -294.48)" fill="#fff"/>
          </g>
        </g>
      </g>
    </g>
    <g id="Group_1132" data-name="Group 1132" transform="translate(131.203 2.794)">
      <circle id="Ellipse_46" data-name="Ellipse 46" cx="12.092" cy="12.092" r="12.092" transform="translate(0 0)" fill="#7dc4a6"/>
      <g id="Group_1111" data-name="Group 1111" transform="translate(3.75 4.243)">
        <path id="Path_1435" data-name="Path 1435" d="M408.1,227.508c.141.016.281.031.421.048a9.146,9.146,0,0,1,8.025,7.641c.015.085.031.169.047.253v.217c-.007.014-.016.028-.021.043a.478.478,0,0,1-.515.323.492.492,0,0,1-.414-.428c-.06-.339-.112-.681-.2-1.012a8.045,8.045,0,0,0-4.2-5.236,8.26,8.26,0,0,0-3.247-.894.476.476,0,0,1-.093-.941.189.189,0,0,0,.03-.014Z" transform="translate(-399.904 -227.508)" fill="#fff"/>
        <path id="Path_1436" data-name="Path 1436" d="M407.977,234.747a6.544,6.544,0,0,1,1.22.232,6.7,6.7,0,0,1,4.749,5.145,1.37,1.37,0,0,1,.041.362.46.46,0,0,1-.45.422.473.473,0,0,1-.486-.394,5.786,5.786,0,0,0-4.734-4.762c-.131-.024-.264-.037-.4-.056a.475.475,0,0,1-.066-.933A1.035,1.035,0,0,1,407.977,234.747Z" transform="translate(-399.887 -232.417)" fill="#fff"/>
        <path id="Path_1437" data-name="Path 1437" d="M407.887,242.215a3.667,3.667,0,0,1,.9.212,4.136,4.136,0,0,1,2.68,3.012.476.476,0,0,1-.867.377.626.626,0,0,1-.059-.163,3.234,3.234,0,0,0-2.689-2.485.48.48,0,0,1-.443-.462.475.475,0,0,1,.373-.479A.974.974,0,0,1,407.887,242.215Z" transform="translate(-399.824 -237.481)" fill="#fff"/>
        <g id="Group_1110" data-name="Group 1110" transform="translate(0 2.309)">
          <path id="Path_1438" data-name="Path 1438" d="M395.308,248.591c-.025,0-.05,0-.082,0,.162-.027.317-.046.468-.081a3.416,3.416,0,0,0,2.5-2.087,1.478,1.478,0,0,0,.094-.824,1.3,1.3,0,0,0-1.051-1.177c-.867-.193-1.74-.361-2.614-.527a4.168,4.168,0,0,0-1.112-.072.672.672,0,0,0-.584.327c-.108.191-.221.378-.333.567l-.251.422a10.215,10.215,0,0,1-4.8-4.47c.094-.056.18-.113.27-.161a4.838,4.838,0,0,0,.758-.483.576.576,0,0,0,.219-.379,2.773,2.773,0,0,0-.025-.88,30.814,30.814,0,0,0-.714-3.083,1.179,1.179,0,0,0-.239-.491,1.673,1.673,0,0,0-1.688-.433,3.1,3.1,0,0,0-1.058.636,3.689,3.689,0,0,0-1.15,2.194c-.029.169-.045.341-.067.511v.6c.015.132.029.265.045.4a7.513,7.513,0,0,0,.763,2.445,11.517,11.517,0,0,0,2.826,3.573,17.333,17.333,0,0,0,4.127,2.7,8.671,8.671,0,0,0,2.29.716c.126.02.253.033.379.06" transform="translate(-383.854 -234.682)" fill="#fff"/>
        </g>
      </g>
    </g>
    <g id="Group_1133" data-name="Group 1133" transform="translate(82.817 0)">
      <path id="Path_1441" data-name="Path 1441" d="M163.873,179.234a12.533,12.533,0,1,1,17.415,11.546l3.754,4.736-11.725-4.134A12.537,12.537,0,0,1,163.873,179.234Z" transform="translate(-163.873 -166.7)" fill="#7dc4a6"/>
      <g id="Group_1115" data-name="Group 1115" transform="translate(10.675 3.457)">
        <path id="Path_1442" data-name="Path 1442" d="M181.887,185.272c1.51,0,1.859.534,1.859,1.742s-.349,1.719-1.859,1.719-1.835-.511-1.835-1.719S180.377,185.272,181.887,185.272Zm1.765-8.92-.882,7.735h-1.743l-.905-7.735v-4.413h3.53Z" transform="translate(-180.052 -171.939)" fill="#fff"/>
      </g>
    </g>
  </g>
</svg>
