<svg xmlns="http://www.w3.org/2000/svg" xmlns:xlink="http://www.w3.org/1999/xlink" width="80" height="38" viewBox="0 0 80 38">
    <defs>
        <path id="62prjg4boa" d="M0.005 0.018L19.46 0.018 19.46 37.429 0.005 37.429z"/>
    </defs>
    <g fill="none" fill-rule="evenodd">
        <g>
            <g>
                <g>
                    <g>
                        <g>
                            <g>
                                <g>
                                    <g>
                                        <g transform="translate(-135.000000, -1292.000000) translate(0.000000, 1272.000000) translate(135.000000, 20.000000) translate(0.000000, 0.000000)">
                                            <mask id="x1s5w1h6mb" fill="#fff">
                                                <use xlink:href="#62prjg4boa"/>
                                            </mask>
                                            <path fill="#F2F7FF" d="M14.433 28.222c-.68 2.484-3.246 3.946-5.73 3.266-2.484-.68-3.947-3.246-3.266-5.73.68-2.485 3.246-3.947 5.73-3.267 1.862.51 3.217 2.114 3.409 4.034h4.871c-.512-4.935-4.677-8.68-9.639-8.668h-.751l3.692-8.498c.906-2.001.906-4.296 0-6.297C12.19 1.755 11.13.725 9.81.2L9.25.018 1.193 23.105C-1.376 27.79.34 33.673 5.028 36.24c4.686 2.57 10.568.852 13.137-3.834.09-.182.194-.363.272-.557.572-1.128.92-2.355 1.023-3.615l-5.027-.013" mask="url(#x1s5w1h6mb)"/>
                                        </g>
                                        <path fill="#3AA4D0" d="M4.574 1.922L3.85 5.81l2.034.972 1.023-3.55c-.67-.604-1.467-1.05-2.332-1.309M1.944 6.21l-.466 15.418L4.496 7.195c-.76-.526-1.635-.864-2.552-.985" transform="translate(-135.000000, -1292.000000) translate(0.000000, 1272.000000) translate(135.000000, 20.000000) translate(0.000000, 0.000000)"/>
                                        <path fill="#F2F7FF" d="M42.132 11.91c.016.48-.054.959-.207 1.413-.268.71-.877 1.237-1.62 1.4-.423.103-.86.147-1.295.129h-2.034l.596-4.871h2.28c.602-.05 1.203.1 1.71.427.43.396.642.975.57 1.555v-.052zm-.635 8.837c-.08.347-.24.67-.466.945-.23.284-.528.503-.868.635-.41.166-.855.228-1.295.182h-2.799l.596-4.885H39.4c.35-.004.7.044 1.036.143.262.054.505.18.7.363.168.165.293.37.362.596.089.254.133.52.13.79-.01.402-.067.802-.168 1.192l.038.039zm3.511-12.645c-.551-.414-1.175-.722-1.84-.907-.926-.232-1.881-.336-2.836-.31h-6.543l-2.345 18.888h7.074c1.057.037 2.112-.126 3.109-.479.837-.29 1.614-.728 2.293-1.296 1.31-1.134 2.01-2.818 1.892-4.547.01-.749-.243-1.477-.713-2.06-.617-.66-1.422-1.112-2.306-1.295.587-.188 1.141-.463 1.645-.817.435-.307.816-.683 1.128-1.114.295-.393.527-.83.686-1.295.117-.493.182-.997.195-1.503-.013-.612-.131-1.217-.35-1.788-.231-.577-.606-1.086-1.089-1.477zM76.93 16.134c-.309-.34-.677-.62-1.087-.829-.415-.22-.817-.427-1.296-.609l-1.295-.479c-.385-.12-.755-.286-1.102-.492-.297-.149-.565-.35-.79-.596-.184-.247-.284-.547-.285-.855.01-.31.066-.615.168-.907.103-.261.257-.5.454-.7.214-.21.47-.373.751-.48.34-.101.694-.154 1.05-.155.39-.009.778.062 1.14.208.294.113.576.257.842.427l.674.415c.165.12.364.189.57.194.202.027.407-.014.583-.116.177-.115.324-.27.427-.454l1.296-1.762c-.249-.335-.54-.635-.868-.894-.374-.29-.783-.529-1.218-.712-.448-.199-.912-.359-1.386-.48-1.474-.311-3.006-.18-4.405.376-.808.334-1.543.823-2.164 1.438-.556.6-.996 1.298-1.295 2.06-.296.773-.442 1.595-.428 2.423-.023.613.074 1.224.285 1.8.333.898.995 1.635 1.853 2.06.413.228.846.414 1.295.557l1.296.428c.363.128.715.288 1.05.48.29.16.544.375.75.634.203.279.312.615.312.959.056.695-.184 1.382-.661 1.892-.49.464-1.154.7-1.827.647-.444.01-.886-.074-1.295-.246-.346-.152-.676-.339-.985-.557l-.739-.557c-.362-.31-.879-.362-1.295-.13-.177.096-.335.224-.466.376l-1.503 2.06c.308.403.68.754 1.1 1.036.434.318.904.583 1.4.79.505.22 1.03.389 1.568.506 1.544.335 3.152.209 4.625-.363.848-.35 1.616-.87 2.254-1.529.58-.64 1.037-1.382 1.348-2.189.325-.87.492-1.792.492-2.72 0-.58-.105-1.156-.311-1.698-.204-.475-.504-.903-.881-1.257M60.879 18.233c-.211.832-.557 1.625-1.023 2.345-.95 1.323-2.493 2.09-4.12 2.047-.608.023-1.213-.102-1.762-.363-.507-.246-.95-.605-1.296-1.049-.37-.476-.639-1.023-.79-1.607-.183-.67-.27-1.364-.26-2.06-.022-1.022.1-2.043.363-3.031.197-.825.544-1.607 1.024-2.306.454-.64 1.054-1.164 1.749-1.529.715-.372 1.513-.56 2.32-.544.61-.01 1.216.114 1.774.363.503.245.946.6 1.296 1.036.371.487.644 1.041.803 1.633.193.669.285 1.363.272 2.06.013 1.015-.118 2.027-.389 3.005h.039zm4.729-3.11c.024-1.126-.165-2.246-.557-3.303-.357-.956-.894-1.836-1.58-2.59-.705-.782-1.56-1.412-2.514-1.854-1.037-.438-2.152-.663-3.278-.66-4.815.07-8.986 3.356-10.183 8.02-.244.965-.366 1.957-.363 2.953-.002 1.13.186 2.25.557 3.317.417.968 1.015 1.847 1.762 2.59.731.77 1.613 1.378 2.591 1.789 1.065.45 2.212.676 3.369.66 1.882 0 3.73-.506 5.35-1.464.758-.462 1.447-1.029 2.047-1.684.61-.643 1.128-1.367 1.542-2.15.885-1.722 1.33-3.636 1.296-5.571l-.04-.052z" transform="translate(-135.000000, -1292.000000) translate(0.000000, 1272.000000) translate(135.000000, 20.000000) translate(0.000000, 0.000000)"/>
                                        <path fill="#3AA4D0" d="M23.308 25.773L27.298 25.773 28.905 12.287 24.94 12.287 23.308 25.773M28.905 6.91c-.219-.218-.479-.39-.765-.505-.554-.26-1.195-.26-1.749 0-.28.133-.537.308-.764.518-.212.223-.384.482-.505.764-.373.866-.172 1.871.505 2.527.636.682 1.632.89 2.487.518.292-.125.56-.3.79-.518.232-.202.414-.455.532-.739.273-.573.273-1.24 0-1.814-.127-.282-.307-.537-.531-.75" transform="translate(-135.000000, -1292.000000) translate(0.000000, 1272.000000) translate(135.000000, 20.000000) translate(0.000000, 0.000000)"/>
                                        <path fill="#FFF" fill-rule="nonzero" d="M24.004 33l.535-1.346h2.059L27.127 33h.745l-1.898-4.86h-.683L23.364 33h.64zm2.394-1.859H24.74l.83-2.094.828 2.094zM29.24 33v-2.308c.35-.52.723-.779 1.12-.779.179 0 .308.057.385.17.078.112.117.301.117.566v2.35h.647v-2.56c0-.33-.092-.594-.276-.79-.184-.196-.43-.294-.739-.294-.495 0-.913.25-1.254.749v-.67h-.647V33h.647zm5.703 0l.535-1.346h2.058L38.066 33h.745l-1.897-4.86h-.683L34.304 33h.64zm2.393-1.859H35.68l.83-2.094.828 2.094zM40.161 33v-2.463L42.285 33h.873l-2.242-2.542 1.904-2.317h-.693l-1.966 2.39v-2.39h-.647V33h.647zm4.429 0v-4.86h-.69V33h.69zm.61.971c1 0 1.5-.528 1.5-1.585V28.14h-.689v4.268c0 .374-.052.636-.156.786-.104.15-.287.225-.55.225-.201 0-.433-.043-.696-.128v.61c.241.046.438.07.591.07zm6.94-.85c.568 0 1.09-.124 1.57-.37v-.592c-.525.282-1.018.424-1.477.424-.534 0-.956-.18-1.264-.537-.309-.358-.463-.847-.463-1.466 0-.65.144-1.154.433-1.51.29-.357.697-.535 1.225-.535.361 0 .874.114 1.54.344v-.647c-.585-.142-1.095-.213-1.53-.213-.762 0-1.352.223-1.772.67-.419.446-.628 1.075-.628 1.884 0 .812.205 1.44.617 1.883.411.443.995.665 1.75.665zm3.914-.04c.536 0 .958-.166 1.264-.498.306-.333.46-.79.46-1.373 0-.569-.153-1.02-.458-1.354-.306-.334-.72-.5-1.243-.5-.523 0-.937.166-1.243.5-.305.334-.458.787-.458 1.36 0 .568.152 1.02.457 1.358.304.339.711.508 1.221.508zm.01-.485c-.666 0-.998-.46-.998-1.38 0-.916.337-1.375 1.011-1.375.676 0 1.014.457 1.014 1.37 0 .923-.342 1.385-1.027 1.385zm3.372.404v-2.39c.372-.478.72-.716 1.047-.716.328 0 .492.204.492.614V33h.65v-2.39c.368-.475.72-.713 1.054-.713.322 0 .483.204.483.61V33h.65v-2.594c0-.333-.086-.592-.26-.777-.172-.184-.416-.277-.731-.277-.49 0-.89.25-1.195.752-.173-.5-.498-.749-.976-.749-.494 0-.9.25-1.214.749v-.67h-.647V33h.647zm6.277 1.296v-1.7c.28.324.632.486 1.054.486.455 0 .822-.181 1.101-.544.28-.362.419-.839.419-1.43 0-.542-.123-.97-.37-1.283-.246-.313-.583-.47-1.012-.47-.53 0-.927.25-1.192.749v-.67h-.647v4.862h.647zm.952-1.7c-.302 0-.62-.149-.952-.447v-1.641c.344-.392.696-.588 1.057-.588.552 0 .828.418.828 1.254 0 .948-.311 1.422-.933 1.422zm5.05.486c.177 0 .339-.035.486-.105l-.046-.358c-.055.009-.097.013-.125.013-.228 0-.342-.185-.342-.555v-1.615c0-.379-.094-.658-.284-.837-.189-.18-.483-.27-.881-.27-.381 0-.79.089-1.225.266v.535c.396-.21.765-.315 1.107-.315.424 0 .637.207.637.62v.43h-.155c-.61 0-1.08.105-1.407.314-.327.21-.49.509-.49.898 0 .283.097.516.292.701.195.185.44.278.735.278.36 0 .732-.179 1.12-.535.083.356.276.535.578.535zm-1.514-.529c-.157 0-.291-.054-.4-.16-.11-.108-.165-.24-.165-.395 0-.219.11-.395.329-.53.219-.135.505-.202.86-.202l.217.007v.922c-.292.239-.572.358-.84.358zm3.457.447v-2.308c.35-.52.724-.779 1.12-.779.18 0 .308.057.386.17.077.112.116.301.116.566v2.35h.647v-2.56c0-.33-.092-.594-.276-.79-.184-.196-.43-.294-.739-.294-.494 0-.912.25-1.254.749v-.67h-.647V33h.647zm4.32 1.296l1.947-4.862h-.61l-1.09 2.686-1.022-2.686h-.699L77.883 33l-.578 1.296h.673z" transform="translate(-135.000000, -1292.000000) translate(0.000000, 1272.000000) translate(135.000000, 20.000000) translate(0.000000, 0.000000)"/>
                                    </g>
                                </g>
                            </g>
                        </g>
                    </g>
                </g>
            </g>
        </g>
    </g>
</svg>
