<?xml version="1.0" encoding="UTF-8"?>
<svg width="10px" height="16px" viewBox="0 0 10 16" version="1.1" xmlns="http://www.w3.org/2000/svg" xmlns:xlink="http://www.w3.org/1999/xlink">
    <!-- Generator: Sketch 60 (88103) - https://sketch.com -->
    <title>Footer/Facebook-icon</title>
    <desc>Created with Sketch.</desc>
    <g id="Symbols" stroke="none" stroke-width="1" fill="none" fill-rule="evenodd">
        <g id="Content/Icons/Social-icons-1" transform="translate(-13.000000, -10.000000)" fill="#B0B7E0" fill-rule="nonzero">
            <g id="Stacked-Group-5">
                <g id="Group-45">
                    <g id="Footer/Facebook-icon" transform="translate(13.000000, 10.000000)">
                        <path d="M10,0.449639594 C10,0.204261683 9.79649307,0.00534358265 9.54545455,0.00534358265 L7.27272727,0.00534358265 C4.89028769,-0.110658169 2.85934096,1.67597807 2.72727273,4.00400769 L2.72727273,6.40320615 L0.454545455,6.40320615 C0.203506932,6.40320615 0,6.60212425 0,6.84750216 L0,9.15784142 C0,9.40321933 0.203506932,9.60213743 0.454545455,9.60213743 L2.72727273,9.60213743 L2.72727273,15.555704 C2.72727273,15.8010819 2.93077966,16 3.18181818,16 L5.90909091,16 C6.16012943,16 6.36363636,15.8010819 6.36363636,15.555704 L6.36363636,9.60213743 L8.74545455,9.60213743 C8.95340406,9.60505729 9.13685809,9.46965438 9.19090909,9.27335838 L9.84545455,6.96301912 C9.88210763,6.82997208 9.85353414,6.68783218 9.76810333,6.5782326 C9.68267253,6.46863302 9.55005357,6.40397836 9.40909091,6.40320615 L6.36363636,6.40320615 L6.36363636,4.00400769 C6.41049271,3.54824769 6.80411085,3.20197941 7.27272727,3.20427487 L9.54545455,3.20427487 C9.79649307,3.20427487 10,3.00535677 10,2.75997885 L10,0.449639594 Z"></path>
                    </g>
                </g>
            </g>
        </g>
    </g>
</svg>