<?xml version="1.0" encoding="UTF-8"?>
<svg width="16px" height="16px" viewBox="0 0 16 16" version="1.1" xmlns="http://www.w3.org/2000/svg" xmlns:xlink="http://www.w3.org/1999/xlink">
    <!-- Generator: Sketch 60 (88103) - https://sketch.com -->
    <title>Footer/Instagram-icon</title>
    <desc>Created with Sketch.</desc>
    <g id="Symbols" stroke="none" stroke-width="1" fill="none" fill-rule="evenodd">
        <g id="Content/Icons/Social-icons-1" transform="translate(-148.000000, -10.000000)" fill="#B0B7E0" fill-rule="nonzero">
            <g id="Stacked-Group-5">
                <g id="Group-42" transform="translate(138.000000, 0.000000)">
                    <g id="Footer/Instagram-icon" transform="translate(10.000000, 10.000000)">
                        <path d="M11.2335137,2.64677169e-13 C13.8617363,2.64677169e-13 16,2.13823466 16,4.76648628 L16,4.76648628 L16,11.2335137 C16,13.8617653 13.8617653,16 11.2335137,16 L11.2335137,16 L4.76648628,16 C2.13823466,16 -1.90070182e-13,13.8617653 -1.90070182e-13,11.2335137 L-1.90070182e-13,11.2335137 L-1.90070182e-13,4.76648628 C-1.90070182e-13,2.13823466 2.13823466,2.64677169e-13 4.76648628,2.64677169e-13 L4.76648628,2.64677169e-13 Z M11.2335137,1.60959941 L4.76648628,1.60959941 C3.0230004,1.60959941 1.60959941,3.02297136 1.60959941,4.76648628 L1.60959941,4.76648628 L1.60959941,11.2335137 C1.60959941,12.9769996 3.0230004,14.3904006 4.76648628,14.3904006 L4.76648628,14.3904006 L11.2335137,14.3904006 C12.9769996,14.3904006 14.3904006,12.9769996 14.3904006,11.2335137 L14.3904006,11.2335137 L14.3904006,4.76648628 C14.3904006,3.02297136 12.9769996,1.60959941 11.2335137,1.60959941 L11.2335137,1.60959941 Z M8,3.86183067 C10.2817902,3.86183067 12.1381693,5.71818073 12.1381693,7.99997096 C12.1381693,10.2817612 10.2817902,12.1381403 8,12.1381403 C5.71820977,12.1381403 3.86183067,10.2817322 3.86183067,7.99997096 C3.86183067,5.71820977 5.71820977,3.86183067 8,3.86183067 Z M8,5.47143008 C6.60352719,5.47143008 5.47143008,6.60349815 5.47143008,8 C5.47143008,9.39650185 6.60349815,10.5285699 8,10.5285699 C9.39647281,10.5285699 10.5285699,9.39647281 10.5285699,8 C10.5285699,6.60349815 9.39650185,5.47143008 8,5.47143008 Z M12.1461834,2.90130918 C12.6938236,2.90130918 13.1377737,3.3452593 13.1377737,3.89289953 C13.1377737,4.44053976 12.6938236,4.88448989 12.1461834,4.88448989 C11.5985431,4.88448989 11.154593,4.44053976 11.154593,3.89289953 C11.154593,3.3452593 11.5985431,2.90130918 12.1461834,2.90130918 Z" id="Combined-Shape"></path>
                    </g>
                </g>
            </g>
        </g>
    </g>
</svg>