<?xml version="1.0" encoding="UTF-8"?>
<svg width="16px" height="16px" viewBox="0 0 16 16" version="1.1" xmlns="http://www.w3.org/2000/svg" xmlns:xlink="http://www.w3.org/1999/xlink">
    <!-- Generator: Sketch 60 (88103) - https://sketch.com -->
    <title>Footer/Linked-icon</title>
    <desc>Created with Sketch.</desc>
    <g id="Symbols" stroke="none" stroke-width="1" fill="none" fill-rule="evenodd">
        <g id="Content/Icons/Social-icons-1" transform="translate(-102.000000, -10.000000)" fill="#B0B7E0" fill-rule="nonzero">
            <g id="Stacked-Group-5">
                <g id="Group-44" transform="translate(92.000000, 0.000000)">
                    <g id="Footer/Linked-icon" transform="translate(10.000000, 10.000000)">
                        <path d="M12.026,5.04933333 C15.382,5.04933333 16,7.26066667 16,10.1313333 L16,10.1313333 L16,15.9993333 L12.686,16 L12.6850977,10.5385616 C12.6745438,9.34834086 12.5434713,7.97066667 10.9613333,7.97066667 C9.23666667,7.97066667 8.97266667,9.31733333 8.97266667,10.71 L8.97266667,10.71 L8.97266667,15.9993333 L5.65933333,15.9993333 L5.65933333,5.31733333 L8.84133333,5.31733333 L8.84133333,6.774 L8.888,6.774 C9.33,5.93466667 10.4126667,5.04933333 12.026,5.04933333 Z M3.58133333,5.318 L3.58133333,16 L0.264,16 L0.264,5.318 L3.58133333,5.318 Z M1.92133333,-3.50386387e-13 C2.98133333,-3.50386387e-13 3.842,0.860666667 3.84266667,1.92133333 C3.84266667,2.982 2.982,3.86066667 1.92133333,3.86066667 C0.860666667,3.86066667 6.17284002e-14,2.982 6.17284002e-14,1.92133333 C6.17284002e-14,0.860666667 0.860666667,-3.50386387e-13 1.92133333,-3.50386387e-13 Z" id="Combined-Shape"></path>
                    </g>
                </g>
            </g>
        </g>
    </g>
</svg>