<?xml version="1.0" encoding="UTF-8"?>
<svg width="16px" height="14px" viewBox="0 0 16 14" version="1.1" xmlns="http://www.w3.org/2000/svg" xmlns:xlink="http://www.w3.org/1999/xlink">
    <!-- Generator: Sketch 60 (88103) - https://sketch.com -->
    <title>Footer/Twiter-icon</title>
    <desc>Created with Sketch.</desc>
    <g id="Symbols" stroke="none" stroke-width="1" fill="none" fill-rule="evenodd">
        <g id="Content/Icons/Social-icons-1" transform="translate(-56.000000, -11.000000)" fill="#02D8FB" fill-rule="nonzero">
            <g id="Stacked-Group-5">
                <g id="Group-43" transform="translate(46.000000, 0.000000)">
                    <g id="Footer/Twiter-icon" transform="translate(10.000000, 11.000000)">
                        <path d="M4.50936603,13.9945772 C7.16307825,14.0820215 9.73991555,13.1088704 11.6538695,11.2964317 C13.5678235,9.48399297 14.6562099,6.9863222 14.6715148,4.37142421 C15.2734709,3.63780048 15.7204552,2.79307803 15.9861984,1.88690109 C16.0267191,1.74065301 15.9763062,1.58460118 15.8574287,1.48829739 C15.7385512,1.39199361 15.5733492,1.37337379 15.4354525,1.44073672 C14.7897023,1.7468662 14.0176165,1.61309563 13.5167252,1.10830053 C12.8867061,0.428846726 12.0041654,0.0295997907 11.0703049,0.00158019298 C10.1364445,-0.0264394047 9.23086207,0.319156592 8.56001274,0.959579077 C7.6352612,1.8415802 7.24757786,3.13639926 7.53846806,4.37142421 C4.56266401,4.54639063 2.51957466,3.15540761 0.885103183,1.24827366 C0.784769547,1.13637255 0.626741015,1.09348995 0.482370344,1.13898814 C0.337999673,1.18448633 0.234607941,1.30975512 0.218878396,1.45823337 C-0.418817456,4.94195731 1.21098973,8.44874632 4.30505709,10.2502958 C3.29207294,11.3944235 1.8695246,12.1090178 0.334357359,12.244913 C0.165740226,12.272452 0.0335580155,12.4025251 0.00545893215,12.5685635 C-0.0226401512,12.7346019 0.0595617689,12.899864 0.209995398,12.9797719 C1.54557207,13.6370918 3.01633898,13.9842454 4.50936603,13.9945772" id="Path"></path>
                    </g>
                </g>
            </g>
        </g>
    </g>
</svg>