<?xml version="1.0" encoding="UTF-8"?>
<svg width="36px" height="36px" viewBox="0 0 36 36" version="1.1" xmlns="http://www.w3.org/2000/svg" xmlns:xlink="http://www.w3.org/1999/xlink">
    <!-- Generator: Sketch 60 (88103) - https://sketch.com -->
    <title>Icon/Industries/Automotive</title>
    <desc>Created with Sketch.</desc>
    <g id="Design" stroke="none" stroke-width="1" fill="none" fill-rule="evenodd">
        <g id="1.-Home" transform="translate(-648.000000, -4935.000000)" fill="#EC3D59" fill-rule="nonzero">
            <g id="Group-34" transform="translate(0.000000, 4357.000000)">
                <g id="Stacked-Group-3" transform="translate(135.000000, 150.000000)">
                    <g id="Group-33" transform="translate(0.000000, 144.000000)">
                        <g id="Icon/Industries/Automotive" transform="translate(513.000000, 284.000000)">
                            <path d="M24.2745666,1.25055521e-12 C27.4064941,1.25055521e-12 30.3511047,1.20349832 32.5659485,3.38980385 C34.8519287,5.64551591 35.9945068,8.60912026 35.9945068,11.5727247 L35.9945068,11.5727247 L36,11.5727247 L36,30.4334056 C35.9283142,33.2159023 33.6486511,35.4653787 30.829834,35.5326163 L30.829834,35.5326163 L30.829834,35.5361408 L8.76104733,35.5361408 L8.76104733,35.5307184 L8.61108398,35.532074 C6.40475466,35.532074 4.19842533,34.7032625 2.51916504,33.0459106 C0.839630109,31.3882875 0,29.2112001 0,27.0330281 C0,25.1585097 0.622375453,23.2837202 1.86740114,21.7402384 L1.86740114,21.7402384 L15.9840088,3.38980385 C18.1983032,1.20349832 21.1429138,1.25055521e-12 24.2745666,1.25055521e-12 Z M12.5606689,11.2403325 L6.83239746,18.715361 C9.58639528,18.1457395 12.5697326,18.9132781 14.7038269,21.0198745 C18.0626221,24.3353917 18.0626221,29.7295801 14.7038269,33.0459106 C14.5596313,33.1874348 14.411316,33.3227233 14.2599793,33.4525895 L14.2599793,33.4525895 L26.4690857,33.4525895 C25.7983703,32.5760609 25.3990174,31.4856194 25.3990174,30.3043529 C25.3990174,27.4196442 27.777008,25.0731072 30.6999207,25.0731072 C31.8957825,25.0731072 33.0012817,25.4667723 33.8892517,26.1293877 L33.8892517,26.1293877 L33.8892517,18.1983366 C33.501709,18.7459975 33.0603332,19.2673597 32.5659485,19.7559167 C30.3511047,21.9414088 27.4064941,23.1457205 24.2745666,23.1457205 C21.1429138,23.1457205 18.1983032,21.9414088 15.9840088,19.7559167 C13.6126098,17.4156154 12.4719543,14.3137402 12.5606689,11.2403325 L12.5606689,11.2403325 Z M30.6999207,28.915409 C30.1168213,28.915409 29.6444092,29.3817341 29.6444092,29.9573202 L29.6444092,29.9573202 L29.6444092,30.6519277 C29.6444092,31.2275139 30.1168213,31.6938389 30.6999207,31.6938389 C31.2819214,31.6938389 31.7546082,31.2275139 31.7546082,30.6519277 L31.7546082,30.6519277 L31.7546082,29.9573202 C31.7546082,29.3817341 31.2819214,28.915409 30.6999207,28.915409 Z M8.61108398,23.7280846 C6.76538086,23.7280846 5.2635498,25.2105646 5.2635498,27.0324859 C5.2635498,28.8544072 6.76538086,30.3368872 8.61108398,30.3368872 C10.4576111,30.3368872 11.9594422,28.8544072 11.9594422,27.0324859 C11.9594422,25.2105646 10.4576111,23.7280846 8.61108398,23.7280846 Z M8.39960043,26.0598366 C9.06133869,26.0598366 9.6,26.5910903 9.6,27.2441116 C9.6,27.8971329 9.06133869,28.4289126 8.39960043,28.4289126 C7.73812854,28.4289126 7.2,27.8971329 7.2,27.2441116 C7.2,26.5910903 7.73812854,26.0598366 8.39960043,26.0598366 Z M28.4026795,16.5423403 C28.1109924,16.0440231 27.4655457,15.8745736 26.9607239,16.1627734 C26.1499328,16.6263873 25.2218628,16.871208 24.2781372,16.8720213 C23.6953125,16.8728346 23.2229004,17.3391597 23.2229004,17.9144748 C23.2234497,18.4892476 23.6961365,18.9555727 24.2781372,18.9555727 L24.2781372,18.9555727 L24.6071256,18.9483411 C25.8081455,18.8958831 26.981163,18.5589026 28.0187073,17.9651741 C28.5229797,17.6772454 28.6951904,17.0401153 28.4026795,16.5423403 Z M19.6257019,14.2261687 C19.3337402,13.7286648 18.6877441,13.5592153 18.1834717,13.8479573 C17.6794739,14.1361571 17.5078125,14.7738295 17.7994995,15.2716045 C18.4570313,16.3897002 19.4040527,17.3231637 20.5383911,17.9692409 C20.704834,18.0644037 20.886383,18.1096806 21.0649109,18.1096806 C21.4299316,18.1096806 21.78479,17.9228795 21.9803467,17.5883183 C22.2714844,17.0905434 22.0984497,16.4534132 21.5944519,16.1654846 C20.778717,15.7005151 20.098114,15.0300372 19.6257019,14.2261687 Z M30.6999207,10.5164441 C30.1168213,10.5164441 29.6444092,10.9827692 29.6444092,11.5583554 L29.6444092,11.5583554 L29.6444092,11.5727247 C29.6444092,12.5042904 29.3961182,13.4204023 28.9264527,14.2212886 C28.6347656,14.7190634 28.8078003,15.3561937 29.3117981,15.6441223 C29.4785156,15.7392851 29.65979,15.784562 29.8391418,15.784562 C30.2041626,15.784562 30.5584717,15.5977609 30.7540283,15.2645554 C31.4085388,14.1464596 31.7551575,12.8700303 31.7551575,11.5727247 L31.7551575,11.5727247 L31.7546082,11.5583554 C31.7546082,10.9827692 31.2819214,10.5164441 30.6999207,10.5164441 Z M24.2745666,8.26832339 C22.4288635,8.26832339 20.9270325,9.75080339 20.9270325,11.5727247 C20.9270325,13.3946459 22.4288635,14.877397 24.2745666,14.877397 C26.1210938,14.877397 27.6229248,13.3946459 27.6229248,11.5727247 C27.6229248,9.75080339 26.1210938,8.26832339 24.2745666,8.26832339 Z M23.9996004,10.6608422 C24.6618715,10.6608422 25.2,11.1926219 25.2,11.8456432 C25.2,12.4989275 24.6618715,13.0299183 23.9996004,13.0299183 C23.3381285,13.0299183 22.8,12.4989275 22.8,11.8456432 C22.8,11.1926219 23.3381285,10.6608422 23.9996004,10.6608422 Z M19.2332153,7.50702057 C18.7278442,7.21909197 18.0829468,7.39043933 17.7912598,7.88875646 C17.1394959,9.00414104 16.7947998,10.2784015 16.7947998,11.5727247 L16.7947998,11.5727247 C16.7947998,12.1550888 17.2672119,12.621685 17.8503113,12.621685 C18.433136,12.621685 18.9055481,12.1550888 18.9055481,11.5797738 L18.9055481,11.5797738 C18.9055481,10.6427857 19.1524658,9.72884274 19.619934,8.92904103 C19.9110718,8.43153721 19.7380371,7.79440696 19.2332153,7.50702057 Z M28.0041504,5.17159949 C27.4985047,4.88421309 26.8538818,5.05556045 26.5627441,5.55387758 C26.2716064,6.05300815 26.4451904,6.68932495 26.9500122,6.97671134 C27.7657471,7.44032527 28.4477234,8.11026086 28.9209594,8.91385835 C29.1165161,9.2462505 29.4700012,9.43223833 29.834198,9.43223833 C30.0143738,9.43223833 30.1964722,9.38641913 30.363739,9.29071406 C30.8671875,9.00142981 31.0380249,8.36429964 30.7455139,7.86652471 C30.0866089,6.74897118 29.1390381,5.81686327 28.0041504,5.17159949 Z M24.2633057,4.19014784 C22.9471436,4.1920457 21.6548767,4.53582482 20.5235596,5.18407094 C20.0192871,5.47281291 19.8484497,6.11048536 20.1409607,6.60826035 C20.3365174,6.9406525 20.6908264,7.12664033 21.0544739,7.12664033 C21.234375,7.12664033 21.4164734,7.0816345 21.5837402,6.98565833 C22.3945313,6.52150219 23.322052,6.27505475 24.2655029,6.2728858 C24.8483277,6.27234359 25.3201904,5.80520513 25.3188201,5.22989007 C25.3179932,4.65511729 24.8455811,4.19014784 24.2633057,4.19014784 L24.2633057,4.19014784 Z" id="Combined-Shape"></path>
                        </g>
                    </g>
                </g>
            </g>
        </g>
    </g>
</svg>