<?xml version="1.0" encoding="UTF-8"?>
<svg width="36px" height="36px" viewBox="0 0 36 36" version="1.1" xmlns="http://www.w3.org/2000/svg" xmlns:xlink="http://www.w3.org/1999/xlink">
    <!-- Generator: Sketch 60 (88103) - https://sketch.com -->
    <title>Icon/Industries/Ecomerce</title>
    <desc>Created with Sketch.</desc>
    <g id="Design" stroke="none" stroke-width="1" fill="none" fill-rule="evenodd">
        <g id="1.-Home" transform="translate(-165.000000, -4935.000000)" fill="#4DBFFF">
            <g id="Group-34" transform="translate(0.000000, 4357.000000)">
                <g id="Stacked-Group-3" transform="translate(135.000000, 150.000000)">
                    <g id="Group-33" transform="translate(0.000000, 144.000000)">
                        <g id="Icon/Industries/Ecomerce" transform="translate(30.000000, 284.000000)">
                            <g id="Icon/Industries/SME-Copy-6" transform="translate(0.000000, 0.000000)">
                                <path d="M23.3069022,30.0650842 L23.8090067,32.9773001 L25.4024379,32.9773001 L25.4024379,35.3819041 L10.599109,35.3819041 L10.599109,32.9773001 L12.1926808,32.9773001 L12.694715,30.0650842 L23.3069022,30.0650842 Z M36,24.7746348 L36,27.6604802 L-8.52651283e-14,27.6604802 L-8.52651283e-14,24.7746348 L36,24.7746348 Z M36,-2.48689958e-14 L36,22.370111 L-8.52651283e-14,22.370111 L-8.52651283e-14,-2.48689958e-14 L36,-2.48689958e-14 Z M9.68412706,16.7905481 L7.5747397,16.7905481 L7.5747397,19.1953124 L9.68412706,19.1953124 L9.68412706,16.7905481 Z M14.2027863,16.7905481 L12.093399,16.7905481 L12.093399,19.1953124 L14.2027863,19.1953124 L14.2027863,16.7905481 Z M31.9241714,15.011061 L21.1648896,15.011061 L21.1648896,17.415665 L31.9241714,17.415665 L31.9241714,15.011061 Z M7.02390834,3.99821519 L4.05536751,3.99821519 L4.05536751,6.40281918 L5.27522622,6.40281918 L6.74617234,15.294163 L15.0313537,15.294163 L16.3189237,7.5134256 L7.60560706,7.5134256 L7.02390834,3.99821519 Z M13.7744401,9.91810974 L13.2827419,12.8896392 L8.49485446,12.8896392 L8.00315627,9.91810974 L13.7744401,9.91810974 Z M31.9241714,10.2016125 L21.1648896,10.2016125 L21.1648896,12.6062165 L31.9241714,12.6062165 L31.9241714,10.2016125 Z M31.9241714,5.39208397 L21.1648896,5.39208397 L21.1648896,7.79668795 L31.9241714,7.79668795 L31.9241714,5.39208397 Z" id="Combined-Shape" fill-rule="nonzero"></path>
                            </g>
                        </g>
                    </g>
                </g>
            </g>
        </g>
    </g>
</svg>