<?xml version="1.0" encoding="UTF-8"?>
<svg width="36px" height="36px" viewBox="0 0 36 36" version="1.1" xmlns="http://www.w3.org/2000/svg" xmlns:xlink="http://www.w3.org/1999/xlink">
    <!-- Generator: Sketch 60 (88103) - https://sketch.com -->
    <title>Icon/Industries/Education</title>
    <desc>Created with Sketch.</desc>
    <g id="Design" stroke="none" stroke-width="1" fill="none" fill-rule="evenodd">
        <g id="1.-Home" transform="translate(-1131.000000, -4935.000000)" fill="#44D4A9" fill-rule="nonzero">
            <g id="Group-34" transform="translate(0.000000, 4357.000000)">
                <g id="Stacked-Group-3" transform="translate(135.000000, 150.000000)">
                    <g id="Group-33" transform="translate(0.000000, 144.000000)">
                        <g id="Icon/Industries/Education" transform="translate(996.000000, 284.000000)">
                            <path d="M34.9453125,23.6907605 C35.5278625,23.6907605 36,24.2210264 36,24.8752986 C36,25.5295707 35.5278625,26.0598366 34.9453125,26.0598366 L34.9453125,26.0598366 L5.2734375,26.0598366 C3.52880859,26.0598366 2.109375,27.6540273 2.109375,29.6134507 C2.109375,31.572874 3.52880859,33.1670647 5.2734375,33.1670647 L5.2734375,33.1670647 L34.9453125,33.1670647 C35.5278625,33.1670647 36,33.6973306 36,34.3516028 C36,35.0058749 35.5278625,35.5361408 34.9453125,35.5361408 L34.9453125,35.5361408 L5.2734375,35.5361408 C2.36563109,35.5361408 0,32.879259 0,29.6134507 C0,26.3476423 2.36563109,23.6907605 5.2734375,23.6907605 L5.2734375,23.6907605 Z M33.6,28.4289126 L33.6,30.7979887 L4.66635071,30.7979887 C4.07846936,30.7979887 3.6,30.2667975 3.6,29.6134507 C3.6,28.9604124 4.07846936,28.4289126 4.66635071,28.4289126 L4.66635071,28.4289126 L33.6,28.4289126 Z M31.2,10.6608422 L31.2,21.3216845 L6,21.3216845 L6,10.6608422 L17.83875,13.7902872 C18.0875782,13.8559013 18.3435157,13.889289 18.6,13.889289 C18.8564843,13.889289 19.1124218,13.8559013 19.3609766,13.7902872 L19.3609766,13.7902872 L31.2,10.6608422 Z M17.7451172,0.0351659726 C17.9126587,-0.0117219909 18.0873413,-0.0117219909 18.2548828,0.0351659726 L18.2548828,0.0351659726 L35.2001953,4.77331806 C35.6701355,4.90472779 36,5.37885145 36,5.92269016 L36,5.92269016 L36,13.0299183 C36,13.6841904 35.5278625,14.2144563 34.9453125,14.2144563 C34.3627625,14.2144563 33.890625,13.6841904 33.890625,13.0299183 L33.890625,13.0299183 L33.890625,7.43822016 L18.2548828,11.8105228 C18.1711121,11.8336582 18.0856934,11.8453803 18,11.8453803 C17.9143066,11.8453803 17.8288879,11.8336582 17.7451172,11.8105228 L17.7451172,11.8105228 L0.799804688,7.0723707 C0.329864484,6.94096097 0,6.46683731 0,5.92269016 C0,5.37885145 0.329864484,4.90472779 0.799804688,4.77331806 L0.799804688,4.77331806 Z" id="Combined-Shape"></path>
                        </g>
                    </g>
                </g>
            </g>
        </g>
    </g>
</svg>