<?xml version="1.0" encoding="UTF-8"?>
<svg width="36px" height="36px" viewBox="0 0 36 36" version="1.1" xmlns="http://www.w3.org/2000/svg" xmlns:xlink="http://www.w3.org/1999/xlink">
    <!-- Generator: Sketch 60 (88103) - https://sketch.com -->
    <title>Icon/Industries/Fintech</title>
    <desc>Created with Sketch.</desc>
    <g id="Design" stroke="none" stroke-width="1" fill="none" fill-rule="evenodd">
        <g id="1.-Home" transform="translate(-406.000000, -4691.000000)" fill="#4D5FFF">
            <g id="Group-34" transform="translate(0.000000, 4357.000000)">
                <g id="Stacked-Group-3" transform="translate(135.000000, 150.000000)">
                    <g id="Group-33" transform="translate(0.000000, 144.000000)">
                        <g id="Icon/Industries/Fintech" transform="translate(271.000000, 40.000000)">
                            <g id="Icon/Industries/SME-Copy" transform="translate(0.000000, 0.000000)">
                                <path d="M24,11.8453803 C17.372583,11.8453803 12,17.1487377 12,23.6907605 C12,30.2327834 17.372583,35.5361408 24,35.5361408 C30.627417,35.5361408 36,30.2327834 36,23.6907605 C35.9925602,17.151782 30.6243329,11.8527242 24,11.8453803 Z M28.5,20.7294155 L23.25,20.7294155 C22.8357864,20.7294155 22.5,21.0608753 22.5,21.4697517 C22.5,21.8786282 22.8357864,22.210088 23.25,22.210088 L24.75,22.210088 C26.6765741,22.2081767 28.2911649,23.6476303 28.4847832,25.5397533 C28.6784015,27.4318763 27.3880446,29.160978 25.5,29.539417 L25.5,31.0941232 L22.5,31.0941232 L22.5,29.6134507 L19.5,29.6134507 L19.5,26.6521056 L24.75,26.6521056 C25.1642136,26.6521056 25.5,26.3206458 25.5,25.9117693 C25.5,25.5028929 25.1642136,25.1714331 24.75,25.1714331 L23.25,25.1714331 C21.3234259,25.1733443 19.7088351,23.7338908 19.5152168,21.8417678 C19.3215985,19.9496448 20.6119554,18.220543 22.5,17.842104 L22.5,16.2873979 L25.5,16.2873979 L25.5,17.7680704 L28.5,17.7680704 L28.5,20.7294155 Z" id="Shape" fill-rule="nonzero"></path>
                                <path d="M19.3412753,10.6608422 C21.6297709,10.0864888 24.0543616,9.98788876 26.4,10.3737875 C26.3238202,10.0700726 26.2317192,9.77118921 26.1283323,9.47630421 L19.2,9.47630421 C19.2582433,9.86298674 19.3031854,10.2593322 19.3412753,10.6608422 Z" id="Path" fill-rule="nonzero"></path>
                                <path d="M19.2,11.2502684 C19.1587574,10.6377437 19.0979925,10.0464224 19.0177052,9.47630421 L8.64241336,9.47630421 C8.31919555,11.8361261 8.31919555,14.2237105 8.64241336,16.5835324 L12.6664751,16.5835324 C14.1713583,14.2155455 16.4595802,12.3476883 19.2,11.2502684 Z" id="Path" fill-rule="nonzero"></path>
                                <path d="M19.2566072,8.29176618 L25.2,8.29176618 C23.4932077,3.98895303 19.892802,0.879190275 15.6,0 C17.2837012,1.48401234 18.6059873,4.48133313 19.2566072,8.29176618 Z" id="Path" fill-rule="nonzero"></path>
                                <path d="M10.8,18.9526084 L8.4,18.9526084 C8.73952736,20.9108298 9.27593396,22.5225453 9.90961476,23.6907605 C9.91910474,22.0619506 10.2217512,20.4514285 10.8,18.9526084 L10.8,18.9526084 Z" id="Path" fill-rule="nonzero"></path>
                                <path d="M10.8,26.0598366 C10.7905804,26.0105504 10.7839314,25.9602902 10.7750659,25.911004 C9.15638071,24.3655999 7.88880466,21.4442738 7.25252323,17.7680704 L1.2,17.7680704 C2.91342552,22.0281927 6.50241387,25.128094 10.8,26.0598366 Z" id="Path" fill-rule="nonzero"></path>
                                <path d="M6.96418504,13.0299183 C6.96286392,11.8420453 7.04161958,10.6552368 7.2,9.47630421 L0.550946551,9.47630421 C-0.183253914,11.7973404 -0.183656471,14.262294 0.549785854,16.5835324 L7.2,16.5835324 C7.04161958,15.4045998 6.96286392,14.2177912 6.96418504,13.0299183 L6.96418504,13.0299183 Z" id="Path" fill-rule="nonzero"></path>
                                <path d="M18,8.29176618 C17.1096182,3.90003223 15.1047051,1.18453803 13.2,1.18453803 C11.2952949,1.18453803 9.29038182,3.90003223 8.4,8.29176618 L18,8.29176618 Z" id="Path" fill-rule="nonzero"></path>
                                <path d="M10.8,0 C6.50780771,0.878699803 2.90748034,3.98839489 1.2,8.29176618 L7.14601009,8.29176618 C7.79633794,4.48218788 9.11749211,1.4851359 10.8,0 Z" id="Path" fill-rule="nonzero"></path>
                                <path d="M34.5281556,2.36907605 L28.640778,2.36907605 L28.640778,5.2748355 L30.9747552,5.2748355 L27.6,8.60610709 L29.6815559,10.6608422 L33.0563112,7.32957064 L33.0563112,9.4518647 L36,9.4518647 L36,3.82195578 C36,3.01955246 35.3410328,2.36907605 34.5281556,2.36907605 Z" id="Path" fill-rule="nonzero"></path>
                                <path d="M9.91844405,27.2443746 L6.54368881,30.5758278 L6.54368881,28.2717422 L3.6,28.2717422 L3.6,34.0832611 C3.6,34.8856644 4.25896719,35.5361408 5.07184441,35.5361408 L10.959222,35.5361408 L10.959222,32.6303813 L8.62506078,32.6303813 L12,29.2991098 L9.91844405,27.2443746 Z" id="Path" fill-rule="nonzero"></path>
                            </g>
                        </g>
                    </g>
                </g>
            </g>
        </g>
    </g>
</svg>