<?xml version="1.0" encoding="UTF-8"?>
<svg width="36px" height="36px" viewBox="0 0 36 36" version="1.1" xmlns="http://www.w3.org/2000/svg" xmlns:xlink="http://www.w3.org/1999/xlink">
    <!-- Generator: Sketch 60 (88103) - https://sketch.com -->
    <title>Icon/Industries/Fmcg</title>
    <desc>Created with Sketch.</desc>
    <g id="Design" stroke="none" stroke-width="1" fill="none" fill-rule="evenodd">
        <g id="1.-Home" transform="translate(-889.000000, -4691.000000)" fill="#FFB62A">
            <g id="Group-34" transform="translate(0.000000, 4357.000000)">
                <g id="Stacked-Group-3" transform="translate(135.000000, 150.000000)">
                    <g id="Group-33" transform="translate(0.000000, 144.000000)">
                        <g id="Icon/Industries/Fmcg" transform="translate(754.000000, 40.000000)">
                            <g id="001-box" transform="translate(0.000000, -0.000000)">
                                <path d="M8.76768058,9.79411765 L25.4117647,2.84460836 L18.5200643,0.0873181909 C18.2289751,-0.0291060636 17.9026205,-0.0291060636 17.6115314,0.0873181909 L1.05882353,6.70989361 L8.76768058,9.79411765 Z" id="Path" fill-rule="nonzero"></path>
                                <polygon id="Path" fill-rule="nonzero" points="28.3547149 3.91764706 11.6470588 10.4116053 17.8743788 12.7323529 34.9411765 6.3721807"></polygon>
                                <path d="M16.9411765,15.1875549 L10.1833122,12.6454308 L10.1833122,17.4586692 C10.1833122,18.0652149 9.64626336,18.5569865 8.98387317,18.5569865 C8.32148297,18.5569865 7.78443416,18.0652149 7.78443416,17.4586692 L7.78443416,11.7430258 L0,8.81470588 L0,28.1497587 C0,28.5951264 0.293712628,28.9964241 0.743652188,29.1657022 L16.9411765,35.2588235 L16.9411765,15.1875549 Z" id="Path" fill-rule="nonzero"></path>
                                <path d="M19.0588235,15.1875549 L19.0588235,35.2588235 L35.2563478,29.1657022 C35.7062874,28.9964927 36,28.5951264 36,28.1497587 C36,27.4107284 36,9.62368524 36,8.81470588 L19.0588235,15.1875549 Z" id="Path" fill-rule="nonzero"></path>
                            </g>
                        </g>
                    </g>
                </g>
            </g>
        </g>
    </g>
</svg>