<?xml version="1.0" encoding="UTF-8"?>
<svg width="36px" height="36px" viewBox="0 0 36 36" version="1.1" xmlns="http://www.w3.org/2000/svg" xmlns:xlink="http://www.w3.org/1999/xlink">
    <!-- Generator: Sketch 60 (88103) - https://sketch.com -->
    <title>Icon/Industries/Healthcare</title>
    <desc>Created with Sketch.</desc>
    <g id="Design" stroke="none" stroke-width="1" fill="none" fill-rule="evenodd">
        <g id="1.-Home" transform="translate(-648.000000, -4691.000000)" fill="#44D4A9">
            <g id="Group-34" transform="translate(0.000000, 4357.000000)">
                <g id="Stacked-Group-3" transform="translate(135.000000, 150.000000)">
                    <g id="Group-33" transform="translate(0.000000, 144.000000)">
                        <g id="Icon/Industries/Healthcare" transform="translate(513.000000, 40.000000)">
                            <g id="Icon/Industries/SME-Copy-2" transform="translate(0.000000, 0.000000)">
                                <path d="M36,8.39840289 L36,15.6860307 C36,25.8470661 32.5335937,28.3248595 30.0655547,30.1363556 C28.4625703,31.3023761 27.4921875,32.0796536 27.4921875,34.4950511 L27.4921875,34.4950511 L27.4921875,35.5361408 L19.0546875,35.5361408 L19.0546875,26.7424032 C19.0546875,25.2848776 19.8351562,23.9939264 20.9741484,22.9736585 C22.5983672,21.370311 25.171875,20.100251 27.1335937,19.7254587 C27.8085937,19.6005279 29.1796172,19.4338842 29.4327422,20.058538 C29.5803984,20.4333303 29.4115781,21.2453802 27.3444609,22.9736585 C26.5217344,23.5150252 25.7835234,23.8689957 25.0030547,24.1605008 C25.0874297,24.3894711 25.678125,25.9511056 25.7624297,26.1177494 C26.9859375,25.6387787 28.0195312,25.0974121 28.8421875,24.4727583 C32.4491484,21.7659251 32.7233672,17.8722497 32.765625,14.8530896 L32.765625,14.8530896 L32.765625,13.7911781 C32.8100625,11.4372743 32.7687187,8.39840289 35.3190937,8.39840289 L35.3190937,8.39840289 L36,8.39840289 Z M0.68090625,8.39840289 C3.23128125,8.39840289 3.1899375,11.4372743 3.234375,13.7911781 L3.234375,13.7911781 L3.234375,14.8530896 C3.27663281,17.8723191 3.55085156,21.7659251 7.1578125,24.4727583 C7.98053906,25.0973427 9.0140625,25.6387787 10.2375703,26.1177494 C10.3219453,25.9511751 10.9126406,24.3895405 10.9969453,24.1605008 C10.2164766,23.8689957 9.47819531,23.5150252 8.65553906,22.9736585 C6.58835156,21.2453802 6.41960156,20.4333303 6.56725781,20.058538 C6.82038281,19.4339536 8.19140625,19.6005279 8.86640625,19.7254587 C10.8280547,20.100251 13.4015625,21.370311 15.0258516,22.9736585 C16.1648438,23.9939264 16.9453125,25.2848776 16.9453125,26.7424032 L16.9453125,26.7424032 L16.9453125,35.5361408 L8.5078125,35.5361408 L8.5078125,34.4950511 C8.5078125,32.0796536 7.53742969,31.3023761 5.93444531,30.1363556 C3.46640625,28.3248595 9.59232693e-14,25.8470661 9.59232693e-14,15.6860307 L9.59232693e-14,15.6860307 L9.59232693e-14,8.39840289 Z M12.7265625,0.000137900722 C14.1518672,-0.0106867533 16.0953047,0.613203595 18,2.77485282 C19.9088438,0.610704979 21.8515078,-0.00839635594 23.2734375,0.00652592961 C26.9729297,0.045393278 29.6015625,3.66942649 29.6015625,7.41936214 C29.6015625,11.1109274 25.8926484,14.2230221 21.1970391,18.1616726 C20.3885156,18.8408795 18,20.878292 18,20.878292 C18,20.878292 15.6114844,18.8408101 14.8029609,18.1616726 C10.1073516,14.2230221 6.3984375,11.1109274 6.3984375,7.41936214 C6.3984375,3.68844373 8.98396875,0.0290828729 12.7265625,0.000137900722 Z M19.0546875,8.39840289 L16.9453125,8.39840289 L16.9453125,10.4805823 L14.8359375,10.4805823 L14.8359375,12.5627616 L16.9453125,12.5627616 L16.9453125,14.644941 L19.0546875,14.644941 L19.0546875,12.5627616 L21.1640625,12.5627616 L21.1640625,10.4805823 L19.0546875,10.4805823 L19.0546875,8.39840289 Z" id="Combined-Shape" fill-rule="nonzero"></path>
                            </g>
                        </g>
                    </g>
                </g>
            </g>
        </g>
    </g>
</svg>