<?xml version="1.0" encoding="UTF-8"?>
<svg width="36px" height="36px" viewBox="0 0 36 36" version="1.1" xmlns="http://www.w3.org/2000/svg" xmlns:xlink="http://www.w3.org/1999/xlink">
    <!-- Generator: Sketch 60 (88103) - https://sketch.com -->
    <title>Icon/Industries/Manufacturing</title>
    <desc>Created with Sketch.</desc>
    <g id="Design" stroke="none" stroke-width="1" fill="none" fill-rule="evenodd">
        <g id="1.-Home" transform="translate(-649.000000, -5181.000000)" fill="#4E60FF" fill-rule="nonzero">
            <g id="Group-34" transform="translate(0.000000, 4357.000000)">
                <g id="Stacked-Group-3" transform="translate(135.000000, 150.000000)">
                    <g id="Group-33" transform="translate(0.000000, 144.000000)">
                        <g id="Icon/Industries/Manufacturing" transform="translate(514.000000, 530.000000)">
                            <path d="M28.5468554,23.6907605 C28.7613788,23.6907605 28.9606443,23.7565203 29.1272146,23.868872 L29.1272146,23.868872 C29.1357224,23.8741844 29.1366364,23.8748306 29.1376208,23.8754767 L29.1376208,23.8754767 L35.5257199,28.1759958 C36.0120713,28.5033591 36.1463681,29.1712949 35.8256729,29.6677958 C35.5050481,30.1642967 34.8508608,30.301416 34.3645797,29.9740528 L34.3645797,29.9740528 L29.6015425,26.7675442 L29.6015425,34.459288 C29.6015425,35.0539979 29.129324,35.5361408 28.5468554,35.5361408 L28.5468554,35.5361408 L7.45311357,35.5361408 C6.87064504,35.5361408 6.39842647,35.0539979 6.39842647,34.459288 L6.39842647,34.459288 L6.39842647,26.7675442 L1.63538925,29.9740528 C1.14910819,30.301416 0.494920938,30.1642967 0.174296062,29.6677958 C-0.146328815,29.1712949 -0.012102304,28.5033591 0.474249071,28.1759958 L0.474249071,28.1759958 L6.86241848,23.8754767 C6.86340286,23.8748306 6.86431692,23.8741844 6.86530129,23.8735383 L6.86530129,23.8735383 L6.8726841,23.8685848 L6.9765165,23.8072054 C7.11964119,23.7328468 7.28149488,23.6907605 7.45311357,23.6907605 L7.45311357,23.6907605 Z M14.4843609,29.0750243 L11.6718619,29.0750243 C11.0893934,29.0750243 10.6171748,29.5571672 10.6171748,30.151877 C10.6171748,30.7465869 11.0893934,31.2287298 11.6718619,31.2287298 L11.6718619,31.2287298 L14.4843609,31.2287298 C15.0668294,31.2287298 15.5390479,30.7465869 15.5390479,30.151877 C15.5390479,29.5571672 15.0668294,29.0750243 14.4843609,29.0750243 L14.4843609,29.0750243 Z M20.55,16.5835324 C21.12988,16.5835324 21.6,17.0078181 21.6,17.5311628 L21.6,17.5311628 L21.6,21.3216845 L13.2,21.3216845 L13.2,17.5311628 C13.2,17.0078181 13.67012,16.5835324 14.25,16.5835324 L14.25,16.5835324 Z M12.5605822,11.8453803 C12.6515841,12.5752845 12.8733932,13.258587 13.2,13.8632001 L13.2,13.8632001 L10.2985089,15.3459182 L10.2985089,18.0027155 L11.5641815,18.0027155 L11.5641815,20.1371464 L9.34925444,20.1371464 C8.82501285,20.1371464 8.4,19.6593185 8.4,19.069931 L8.4,19.069931 L8.4,14.6587737 C8.4,14.2402829 8.6176324,13.8603542 8.95645295,13.6871807 L8.95645295,13.6871807 Z M23.4394178,11.8453803 L27.043547,13.6871965 C27.3824309,13.8603004 27.6,14.2402323 27.6,14.6587267 L27.6,14.6587267 L27.6,19.0699218 C27.6,19.6593144 27.1749871,20.1371464 26.6507456,20.1371464 L26.6507456,20.1371464 L24.4358185,20.1371464 L24.4358185,18.0026972 L25.7014911,18.0026972 L25.7014911,15.345877 L22.8,13.8632174 C23.1266068,13.2585991 23.3484159,12.5752196 23.4394178,11.8453803 L23.4394178,11.8453803 Z M34.9453125,3.41060513e-13 C35.5277812,3.41060513e-13 36,0.454591851 36,1.01531831 C36,1.57604477 35.5277812,2.03063662 34.9453125,2.03063662 L34.9453125,2.03063662 L31.5780469,2.03063662 C31.1096953,3.78226376 29.4579844,5.07659154 27.4921875,5.07659154 L27.4921875,5.07659154 L19.0546875,5.07659154 L19.0546875,8.29657202 C20.2834688,8.71474779 21.1640625,9.84236031 21.1640625,11.1685014 C21.1640625,12.8507485 19.7474766,14.2144563 18,14.2144563 C16.2525234,14.2144563 14.8359375,12.8507485 14.8359375,11.1685014 C14.8359375,9.84242799 15.7165312,8.71481548 16.9453125,8.29657202 L16.9453125,8.29657202 L16.9453125,5.07659154 L8.5078125,5.07659154 C6.54208594,5.07659154 4.89030469,3.78226376 4.42195312,2.03063662 L4.42195312,2.03063662 L1.0546875,2.03063662 C0.47221875,2.03063662 0,1.57604477 0,1.01531831 C0,0.454591851 0.47221875,3.41060513e-13 1.0546875,3.41060513e-13 L1.0546875,3.41060513e-13 Z" id="Combined-Shape"></path>
                        </g>
                    </g>
                </g>
            </g>
        </g>
    </g>
</svg>