<?xml version="1.0" encoding="UTF-8"?>
<svg width="36px" height="36px" viewBox="0 0 36 36" version="1.1" xmlns="http://www.w3.org/2000/svg" xmlns:xlink="http://www.w3.org/1999/xlink">
    <!-- Generator: Sketch 60 (88103) - https://sketch.com -->
    <title>Icon/Industries/Miscellaneous</title>
    <desc>Created with Sketch.</desc>
    <g id="Design" stroke="none" stroke-width="1" fill="none" fill-rule="evenodd">
        <g id="1.-Home" transform="translate(-890.000000, -5181.000000)" fill="#FFB62A">
            <g id="Group-34" transform="translate(0.000000, 4357.000000)">
                <g id="Stacked-Group-3" transform="translate(135.000000, 150.000000)">
                    <g id="Group-33" transform="translate(0.000000, 144.000000)">
                        <g id="Icon/Industries/Miscellaneous" transform="translate(755.000000, 530.000000)">
                            <g id="Icon/Industries/SME-Copy-13" transform="translate(0.000000, 0.000000)">
                                <path d="M1.29277173,8.8824344 L1.43414576,8.88348923 L34.4555776,8.88348923 C35.2190789,8.92386873 35.8394238,9.44880218 35.7917049,10.0948741 L35.7917049,10.0948741 L35.7917049,34.403331 C35.7439861,35.049403 35.1236413,35.5743364 34.36014,35.5339569 L34.36014,35.5339569 L1.3387081,35.5339569 C0.575206781,35.4935774 -0.0451380367,34.968644 0.00258079544,34.322572 L0.00258079544,34.322572 L0.00258079544,10.0141151 C0.0502996276,9.36804319 0.670644446,8.84310974 1.43414576,8.88348923 Z M25.100904,14.4144254 L24.95953,14.4154803 L10.739318,14.4154803 C9.97581672,14.4558598 9.3554719,14.9807932 9.40319073,15.6268652 L9.40319073,15.6268652 L9.40319073,18.7764659 C9.45090956,19.4225378 10.0712544,19.9474713 10.8347557,19.9070918 L10.8347557,19.9070918 L25.0549677,19.9070918 C25.818469,19.8667123 26.4388138,19.3417788 26.391095,18.6957069 L26.391095,18.6957069 L26.391095,15.5461062 C26.3433762,14.9000342 25.7230313,14.3751008 24.95953,14.4154803 Z M33.4057633,4.44174462 L33.4057633,6.86451441 L2.3885224,6.86451441 L2.3885224,4.44174462 L33.4057633,4.44174462 Z M31.0198217,-5.2846616e-14 L31.0198217,2.42276979 L4.77446401,2.42276979 L4.77446401,-5.2846616e-14 L31.0198217,-5.2846616e-14 Z" id="Combined-Shape" fill-rule="nonzero"></path>
                            </g>
                        </g>
                    </g>
                </g>
            </g>
        </g>
    </g>
</svg>