<svg xmlns="http://www.w3.org/2000/svg" width="36" height="36" viewBox="0 0 36 36">
    <g fill="none" fill-rule="evenodd">
        <g fill="#44D4A9" fill-rule="nonzero">
            <g>
                <g>
                    <g>
                        <g>
                            <g>
                                <path d="M23.365 21.481c2.375 0 4.166 1.725 4.166 4.012 0 2.924-3.956 6.28-7.524 8.892l-1.231.904c-.448.33-1.106.33-1.553 0-.422-.312-.834-.613-1.234-.906-4.69-3.434-7.52-6.167-7.52-8.89 0-2.287 1.79-4.012 4.166-4.012 3.098 0 4.166 3.14 4.21 3.275.147.447.618.758 1.154.758.53-.002.984-.303 1.139-.738l.01-.012.009-.012c.01-.032 1.08-3.27 4.208-3.27zm.755-8.814C30.84 13.25 36 18.15 36 24.084v1.458c0 3.373-1.512 6.538-4.248 8.911 0 .021 0 .021-.024.021-.744.646-1.776 1.02-2.832 1.041-1.766-.038-3.19-1.207-3.411-2.706 4.933-4.485 4.333-7.052 4.446-7.316 0-3.388-2.919-6.094-6.555-6.094h-.011c-2.296 0-4.132 1.063-5.364 2.655-1.22-1.577-3.107-2.655-5.366-2.655h-.011c-3.423 0-6.555 2.538-6.555 6.094 0 2.795 2.206 5.35 4.443 7.344-.234 1.485-1.653 2.64-3.408 2.678-1.056-.02-2.088-.395-2.832-1.04-.024 0-.024 0-.024-.022C1.512 32.08 0 28.915 0 25.542v-1.458C0 18.15 5.16 13.25 11.88 12.667c1.656 1.228 3.768 1.978 6.12 1.978 2.352 0 4.464-.75 6.12-1.978zM18 0c3.976 0 7.2 2.866 7.2 6.316 0 3.45-3.224 6.247-7.2 6.247s-7.2-2.797-7.2-6.247C10.8 2.866 14.024 0 18 0z" transform="translate(-165.000000, -5181.000000) translate(0.000000, 4357.000000) translate(135.000000, 150.000000) translate(0.000000, 144.000000) translate(30.000000, 530.000000) translate(0.000000, 0.000000)"/>
                            </g>
                        </g>
                    </g>
                </g>
            </g>
        </g>
    </g>
</svg>
