<?xml version="1.0" encoding="UTF-8"?>
<svg width="36px" height="36px" viewBox="0 0 36 36" version="1.1" xmlns="http://www.w3.org/2000/svg" xmlns:xlink="http://www.w3.org/1999/xlink">
    <!-- Generator: Sketch 60 (88103) - https://sketch.com -->
    <title>Icon/Industries/Real-Estate</title>
    <desc>Created with Sketch.</desc>
    <g id="Design" stroke="none" stroke-width="1" fill="none" fill-rule="evenodd">
        <g id="1.-Home" transform="translate(-406.000000, -4935.000000)" fill="#4D82FF" fill-rule="nonzero">
            <g id="Group-34" transform="translate(0.000000, 4357.000000)">
                <g id="Stacked-Group-3" transform="translate(135.000000, 150.000000)">
                    <g id="Group-33" transform="translate(0.000000, 144.000000)">
                        <g id="Icon/Industries/Real-Estate" transform="translate(271.000000, 284.000000)">
                            <path d="M19.2,23.6907605 L19.2,35.5361408 L16.8,35.5361408 L16.8,23.6907605 L19.2,23.6907605 Z M17.1805156,0.481650839 C17.60704,-0.160952011 18.3935289,-0.160148423 18.8194133,0.481650839 C25.3974044,10.3928422 26.8315022,12.5542271 27.3525333,13.3392437 C27.5125333,13.5794273 27.6,13.8830052 27.6,14.1964046 L27.6,14.1964046 L27.6,35.5361408 L21.3422222,35.5361408 L21.3422222,24.1073281 L21.9822222,24.1073281 C22.5713067,24.1073281 23.0488889,23.5076726 23.0488889,22.7680141 C23.0488889,22.0283557 22.5713067,21.4287001 21.9822222,21.4287001 L21.9822222,21.4287001 L14.0177778,21.4287001 C13.4286933,21.4287001 12.9511111,22.0283557 12.9511111,22.7680141 C12.9511111,23.5076726 13.4286933,24.1073281 14.0177778,24.1073281 L14.0177778,24.1073281 L14.6577778,24.1073281 L14.6577778,35.5361408 L8.4,35.5361408 L8.4,14.1964046 C8.4,13.8830052 8.48746667,13.5794273 8.64746667,13.3392437 C11.30048,9.34192715 6.31296,16.8560143 17.1805156,0.481650839 Z M6,29.6134507 L6,35.5361408 L0.989010989,35.5361408 C0.442813187,35.5361408 0,34.9146285 0,34.1480103 L0,34.1480103 L0,29.6134507 L6,29.6134507 Z M36,29.6134507 L36,34.1480103 C36,34.9146285 35.5571868,35.5361408 35.010989,35.5361408 L35.010989,35.5361408 L30,35.5361408 L30,29.6134507 L36,29.6134507 Z M36,15.3989943 L36,27.2443746 L30,27.2443746 L30,15.3989943 L36,15.3989943 Z M6,15.3989943 L6,27.2443746 L0,27.2443746 L0,15.3989943 L6,15.3989943 Z M33.2967033,19.9549098 L32.7692308,19.9549098 C32.223033,19.9549098 31.7802198,20.5668604 31.7802198,21.3216845 C31.7802198,22.0765086 32.223033,22.6884591 32.7692308,22.6884591 L32.7692308,22.6884591 L33.2967033,22.6884591 C33.8429011,22.6884591 34.2857143,22.0765086 34.2857143,21.3216845 C34.2857143,20.5668604 33.8429011,19.9549098 33.2967033,19.9549098 L33.2967033,19.9549098 Z M3.23076923,19.9549098 L2.7032967,19.9549098 C2.1570989,19.9549098 1.71428571,20.5668604 1.71428571,21.3216845 C1.71428571,22.0765086 2.1570989,22.6884591 2.7032967,22.6884591 L2.7032967,22.6884591 L3.23076923,22.6884591 C3.77696703,22.6884591 4.21978022,22.0765086 4.21978022,21.3216845 C4.21978022,20.5668604 3.77696703,19.9549098 3.23076923,19.9549098 L3.23076923,19.9549098 Z M18,9.99988747 C16.1570844,9.99988747 14.6577778,11.8824272 14.6577778,14.1964046 L14.6577778,14.1964046 L14.6577778,17.0536078 C14.6577778,17.7932663 15.13536,18.3929218 15.7244444,18.3929218 L15.7244444,18.3929218 L20.2755556,18.3929218 C20.86464,18.3929218 21.3422222,17.7932663 21.3422222,17.0536078 L21.3422222,17.0536078 L21.3422222,14.1964046 C21.3422222,11.8824272 19.8429156,9.99988747 18,9.99988747 Z M18,11.8453803 C18.6616941,11.8453803 19.2,12.642435 19.2,13.6221873 L19.2,13.6221873 L19.2,15.3989943 L16.8,15.3989943 L16.8,13.6221873 C16.8,12.642435 17.3383059,11.8453803 18,11.8453803 Z M30.6307946,4.73815211 C30.997136,4.73815211 31.3394864,4.95140597 31.544882,5.30734731 L31.544882,5.30734731 L36,13.0299183 L29.7439363,13.0299183 L24,4.73815211 Z M8.90168036,1.25055521e-12 C9.51132099,1.25055521e-12 10.0055685,0.607700911 10.0055685,1.35728316 L10.0055685,1.35728316 L10.0055685,4.3433061 L12,4.3433061 L6.25610205,13.0299183 L0,13.0299183 L4.45514535,4.93960583 C4.66054213,4.5667149 5.00296823,4.3433061 5.36923832,4.3433061 L5.36923832,4.3433061 L7.79779222,4.3433061 L7.79779222,1.35728316 C7.79779222,0.607700911 8.29203974,1.25055521e-12 8.90168036,1.25055521e-12 Z" id="Combined-Shape"></path>
                        </g>
                    </g>
                </g>
            </g>
        </g>
    </g>
</svg>