<?xml version="1.0" encoding="UTF-8"?>
<svg width="36px" height="36px" viewBox="0 0 36 36" version="1.1" xmlns="http://www.w3.org/2000/svg" xmlns:xlink="http://www.w3.org/1999/xlink">
    <!-- Generator: Sketch 60 (88103) - https://sketch.com -->
    <title>Icon/Industries/Retail</title>
    <desc>Created with Sketch.</desc>
    <g id="Design" stroke="none" stroke-width="1" fill="none" fill-rule="evenodd">
        <g id="1.-Home" transform="translate(-408.000000, -5181.000000)" fill="#EC3D59">
            <g id="Group-34" transform="translate(0.000000, 4357.000000)">
                <g id="Stacked-Group-3" transform="translate(135.000000, 150.000000)">
                    <g id="Group-33" transform="translate(0.000000, 144.000000)">
                        <g id="Icon/Industries/Retail" transform="translate(273.000000, 530.000000)">
                            <g transform="translate(0.000000, 0.000000)" id="Combined-Shape">
                                <path d="M27.4921875,22.8246571 L27.4921875,29.0307572 L25.3828125,29.0307572 L25.3828125,31.0994572 L27.4921875,31.0994572 L27.4921875,35.305814 L21.1640625,35.305814 L21.1640625,22.8246571 L27.4921875,22.8246571 Z M26.4375,16.9851996 L30.65625,19.0538996 L33.8203125,17.5023746 L33.8203125,33.2371139 L36,33.2371139 L36,35.305814 L36,35.305814 L29.6015625,35.305814 L29.6015625,35.305814 L29.6015625,20.755957 L29.6015625,20.755957 L6.3984375,20.755957 L6.3984375,31.0994572 L19.0546875,31.0994572 L19.0546875,35.305814 L19.0546875,35.305814 L8.8817842e-14,35.305814 L8.8817842e-14,33.2371139 L2.1796875,33.2371139 L2.1796875,17.5023746 L5.34375,19.0538996 L9.5625,16.9851996 L13.78125,19.0538996 L18,16.9851996 L22.21875,19.0538996 L26.4375,16.9851996 Z M19.0546875,22.8246571 L19.0546875,29.0307572 L8.5078125,29.0307572 L8.5078125,22.8246571 L19.0546875,22.8246571 Z M25.3828125,12.4811569 L25.3828125,15.1892231 L22.21875,16.7407482 L19.0546875,15.1892231 L19.0546875,12.4811569 L25.3828125,12.4811569 Z M36,12.4811569 L36,14.1548731 L30.65625,16.7407482 L27.4921875,15.1892231 L27.4921875,12.4811569 L36,12.4811569 Z M8.5078125,12.4811569 L8.5078125,15.1892231 L5.34375,16.7407482 L2.33590924e-13,14.1548731 L2.33590924e-13,12.4811569 L8.5078125,12.4811569 Z M16.9453125,12.4811569 L16.9453125,15.1892231 L13.78125,16.7407482 L10.6171875,15.1892231 L10.6171875,12.4811569 L16.9453125,12.4811569 Z M32.6269688,6.27505678 L35.5097109,10.4124568 L27.1972266,10.4124568 L25.7910469,6.27505678 L32.6269688,6.27505678 Z M23.5683984,6.27505678 L24.9745781,10.4124568 L19.0546875,10.4124568 L19.0546875,6.27505678 L23.5683984,6.27505678 Z M16.9453125,6.27505678 L16.9453125,10.4124568 L11.0254219,10.4124568 L12.4316016,6.27505678 L16.9453125,6.27505678 Z M10.2089531,6.27505678 L8.80277344,10.4124568 L0.490289062,10.4124568 L3.37303125,6.27505678 L10.2089531,6.27505678 Z M31.7109375,1.3500312e-13 L31.7109375,4.20635674 L4.2890625,4.20635674 L4.2890625,1.3500312e-13 L31.7109375,1.3500312e-13 Z" fill-rule="nonzero"></path>
                            </g>
                        </g>
                    </g>
                </g>
            </g>
        </g>
    </g>
</svg>