<?xml version="1.0" encoding="UTF-8"?>
<svg width="36px" height="36px" viewBox="0 0 36 36" version="1.1" xmlns="http://www.w3.org/2000/svg" xmlns:xlink="http://www.w3.org/1999/xlink">
    <!-- Generator: Sketch 60 (88103) - https://sketch.com -->
    <title>Icon/Industries/RMG</title>
    <desc>Created with Sketch.</desc>
    <g id="Design" stroke="none" stroke-width="1" fill="none" fill-rule="evenodd">
        <g id="1.-Home" transform="translate(-1131.000000, -4691.000000)" fill="#7E40FF" fill-rule="nonzero">
            <g id="Group-34" transform="translate(0.000000, 4357.000000)">
                <g id="Stacked-Group-3" transform="translate(135.000000, 150.000000)">
                    <g id="Group-33" transform="translate(0.000000, 144.000000)">
                        <g id="Icon/Industries/RMG" transform="translate(996.000000, 40.000000)">
                            <path d="M2.37931034,9.47630421 L2.37931034,31.0223867 C2.37931034,32.4468882 3.79964838,33.6016748 5.55172414,33.6016748 L5.55172414,33.6016748 L28.5517241,33.6016748 L28.5517241,34.2464968 C28.5517241,34.9587475 27.8415551,35.5361408 26.9655172,35.5361408 L26.9655172,35.5361408 L1.5862069,35.5361408 C0.710169017,35.5361408 0,34.9587475 0,34.2464968 L0,34.2464968 L0,10.4100065 C0,10.4048479 0.253,9.96572411 2.37931034,9.47630421 L2.37931034,9.47630421 Z M6.10708283,5.92269013 L6.10708283,27.4687727 C6.10708283,28.8932741 7.52722362,30.0480607 9.27905607,30.0480607 L9.27905607,30.0480607 L32.2758621,30.0480607 L32.2758621,30.6928827 C32.2758621,31.4051334 31.5657917,31.9825267 30.6898754,31.9825267 L30.6898754,31.9825267 L5.31408952,31.9825267 C4.43817329,31.9825267 3.7281029,31.4051334 3.7281029,30.6928827 L3.7281029,30.6928827 L3.72413793,6.8563924 C3.7281029,6.85123382 3.98106776,6.41211004 6.10708283,5.92269013 L6.10708283,5.92269013 Z M13.0720945,3.55361408 L12.147265,10.4294988 C12.0909448,10.8516418 12.2942211,11.2690397 12.6887218,11.541301 C13.0764126,11.8117797 13.602726,11.903067 14.0893306,11.7842317 C14.6878176,11.6232683 15.2691825,11.4217177 15.8274907,11.1816374 C16.3101433,10.9891859 16.8118881,10.7891624 17.3793103,10.6105926 L17.3793103,10.6105926 L17.3793103,29.6134507 L8.97871212,29.6134507 C8.13516261,29.6134507 7.45133063,29.0484441 7.45133063,28.3514731 L7.45133063,28.3514731 L7.44827586,5.02444892 C7.57352114,4.73482507 9.11999491,4.02811764 13.0720945,3.55361408 L13.0720945,3.55361408 Z M30.3440394,3.55361408 C34.3208867,4.02874863 35.8793498,4.73419409 36,5.00488827 L36,5.00488827 L36,28.3514731 C36,29.0484441 35.3118859,29.6134507 34.4630542,29.6134507 L34.4630542,29.6134507 L19.862069,29.6134507 L19.862069,10.2420951 C22.4867192,9.80187036 25.2163588,10.1352044 27.5713892,11.1835304 C28.1329936,11.4234956 28.717732,11.6250426 29.319665,11.7861247 C29.8096241,11.9036656 30.3387072,11.8125188 30.7298128,11.543194 C31.1267839,11.2709327 31.331333,10.8535347 31.2746601,10.4313918 L31.2746601,10.4313918 Z M23.7044335,23.9345516 C22.4311859,23.9345516 21.3990148,24.7820616 21.3990148,25.827518 C21.3990148,26.8729744 22.4311859,27.7204843 23.7044335,27.7204843 C24.9776811,27.7204843 26.0098522,26.8729744 26.0098522,25.827518 C26.0098522,24.7820616 24.9776811,23.9345516 23.7044335,23.9345516 Z M22.9655172,24.8752986 C23.3083147,24.8752986 23.5862069,25.1404664 23.5862069,25.4675676 C23.5862069,25.7946687 23.3083147,26.0598366 22.9655172,26.0598366 C22.6227198,26.0598366 22.3448276,25.7946687 22.3448276,25.4675676 C22.3448276,25.1404664 22.6227198,24.8752986 22.9655172,24.8752986 Z M23.7044335,18.2556526 C22.4311859,18.2556526 21.3990148,19.1031626 21.3990148,20.148619 C21.3990148,21.1940754 22.4311859,22.0415853 23.7044335,22.0415853 C24.9776811,22.0415853 26.0098522,21.1940754 26.0098522,20.148619 C26.0098522,19.1031626 24.9776811,18.2556526 23.7044335,18.2556526 Z M22.9655172,18.9526084 C23.3083147,18.9526084 23.5862069,19.2177763 23.5862069,19.5448774 C23.5862069,19.8719786 23.3083147,20.1371464 22.9655172,20.1371464 C22.6227198,20.1371464 22.3448276,19.8719786 22.3448276,19.5448774 C22.3448276,19.2177763 22.6227198,18.9526084 22.9655172,18.9526084 Z M23.7044335,12.5767536 C22.4311859,12.5767536 21.3990148,13.4242636 21.3990148,14.46972 C21.3990148,15.5151764 22.4311859,16.3626863 23.7044335,16.3626863 C24.9776811,16.3626863 26.0098522,15.5151764 26.0098522,14.46972 C26.0098522,13.4242636 24.9776811,12.5767536 23.7044335,12.5767536 Z M22.9655172,13.0299183 C23.3083147,13.0299183 23.5862069,13.2950862 23.5862069,13.6221873 C23.5862069,13.9492884 23.3083147,14.2144563 22.9655172,14.2144563 C22.6227198,14.2144563 22.3448276,13.9492884 22.3448276,13.6221873 C22.3448276,13.2950862 22.6227198,13.0299183 22.9655172,13.0299183 Z M28.2242529,3.55361408 L29.0448129,9.47087608 L29.7931034,9.4045323 L29.052341,9.47630421 C28.542501,9.33992366 28.047082,9.17111426 27.5708162,8.97148836 C26.6936785,8.61116733 25.7749619,8.31989975 24.8275862,8.10178173 C26.5296836,7.05958126 27.5836139,5.24839608 28.2242529,3.55361408 L28.2242529,3.55361408 Z M14.6212575,3.55361408 C15.5677898,5.70021836 16.9160428,7.2285764 18.6206897,8.10538401 C17.5070333,8.32387194 16.4269209,8.61506853 15.3953698,8.97492527 C14.8368774,9.17487543 14.2547751,9.34258851 13.6551724,9.47630421 L13.6551724,9.47630421 Z M28.5517241,1.2470025e-12 C28.2766908,1.91858713 27.0102943,8.29176618 22.3487122,8.29176618 C18.7569632,8.29176618 17.1844562,4.3748634 16.5652427,2.03467186 C16.3788446,1.36316699 16.2362048,0.683978391 16.137931,1.2470025e-12 L16.137931,1.2470025e-12 Z" id="Combined-Shape"></path>
                        </g>
                    </g>
                </g>
            </g>
        </g>
    </g>
</svg>