<svg xmlns="http://www.w3.org/2000/svg" width="36" height="36" viewBox="0 0 36 36">
    <g fill="none" fill-rule="evenodd">
        <g fill="#EC3D59" fill-rule="nonzero">
            <g>
                <g>
                    <g>
                        <g>
                            <g>
                                <path d="M31.203 0H4.345C1.935 0 0 1.792 0 4.013v20.141c0 2.22 1.935 4.013 4.345 4.013h2.843v5.96c0 .351.237.702.593.857.158.078.276.078.434.078.237 0 .474-.078.672-.194l8.966-6.701h13.35c2.41 0 4.344-1.792 4.344-4.013V4.013c0-2.22-1.935-4.013-4.344-4.013zM12.086 17.025c-.553.467-1.343.701-2.33.701-1.027 0-1.817-.234-2.41-.701-.592-.468-.868-1.091-.868-1.87h1.54c.04.35.158.623.316.779.276.312.75.467 1.382.467.395 0 .711-.039.948-.116.474-.156.711-.468.711-.897 0-.272-.118-.467-.355-.584-.237-.117-.593-.273-1.067-.35l-.869-.195c-.83-.195-1.382-.39-1.698-.585-.513-.35-.79-.896-.79-1.675 0-.701.237-1.247.79-1.714.513-.468 1.264-.701 2.251-.701.83 0 1.54.233 2.133.662.593.429.909 1.052.909 1.87h-1.58c-.04-.468-.237-.78-.632-.974-.277-.117-.593-.195-.988-.195-.434 0-.79.078-1.027.234-.237.156-.395.39-.395.701 0 .273.119.468.395.624.158.077.514.194 1.027.311l1.383.312c.592.156 1.066.312 1.343.545.474.35.71.896.71 1.559 0 .74-.276 1.324-.829 1.792zm9.48.506h-1.501V12.35v-.624-.623l-1.462 6.428h-1.58l-1.461-6.467v6.467H14.06V9.856h2.37l1.422 6.039 1.422-6.039h2.33v7.675h-.04zm7.464 0h-5.924V9.856h5.727v1.364h-4.108v1.636h3.792v1.325h-3.792v1.987h4.305v1.363z" transform="translate(-165.000000, -4691.000000) translate(0.000000, 4357.000000) translate(135.000000, 150.000000) translate(0.000000, 144.000000) translate(30.000000, 40.000000) translate(0.000000, 0.418605)"/>
                            </g>
                        </g>
                    </g>
                </g>
            </g>
        </g>
    </g>
</svg>
