<?xml version="1.0" encoding="UTF-8"?>
<svg width="36px" height="36px" viewBox="0 0 36 36" version="1.1" xmlns="http://www.w3.org/2000/svg" xmlns:xlink="http://www.w3.org/1999/xlink">
    <!-- Generator: Sketch 60 (88103) - https://sketch.com -->
    <title>Icon/Industries/Startup</title>
    <desc>Created with Sketch.</desc>
    <g id="Design" stroke="none" stroke-width="1" fill="none" fill-rule="evenodd">
        <g id="1.-Home" transform="translate(-889.000000, -4935.000000)" fill="#4DBFFF" fill-rule="nonzero">
            <g id="Group-34" transform="translate(0.000000, 4357.000000)">
                <g id="Stacked-Group-3" transform="translate(135.000000, 150.000000)">
                    <g id="Group-33" transform="translate(0.000000, 144.000000)">
                        <g id="Icon/Industries/Startup" transform="translate(754.000000, 284.000000)">
                            <path d="M26.4,26.0598366 L26.1483129,29.2873637 C26.0783957,30.1853057 25.6032967,30.9852388 24.8450039,31.4819773 L24.8450039,31.4819773 L19.1624709,35.2041329 C18.8266188,35.4241618 18.4413399,35.5361408 18.0533437,35.5361408 C17.7771268,35.5361408 17.4995145,35.4793873 17.2372516,35.3644251 C16.6068954,35.0881521 16.1675629,34.5202534 16.0620262,33.8453962 L16.0620262,33.8453962 L15.6,30.8902131 C19.3030397,30.1989847 22.9968257,28.5441113 26.4,26.0598366 L26.4,26.0598366 Z M6.66753843,27.5377983 C7.06387566,27.1465667 7.70648595,27.1465667 8.10275553,27.5377983 C8.49909277,27.9290299 8.49909277,28.5632953 8.10268787,28.954527 L8.10268787,28.954527 L1.73247003,35.2426837 C1.53436907,35.4383663 1.27463219,35.5361408 1.01489531,35.5361408 C0.755158426,35.5361408 0.495421545,35.4383663 0.297252927,35.2427505 C-0.099084309,34.8515188 -0.099084309,34.2172534 0.297252927,33.8260218 L0.297252927,33.8260218 Z M10.054513,29.9429452 C10.4995821,29.5036191 11.221205,29.5036191 11.6661981,29.9429452 C12.1112673,30.3822713 12.1112673,31.0945075 11.6661981,31.5338336 L11.6661981,31.5338336 L7.94541103,35.2066087 C7.72295244,35.4263468 7.43120346,35.5361408 7.13960644,35.5361408 C6.84800942,35.5361408 6.55633642,35.4262718 6.33380185,35.2066087 C5.88873272,34.7672826 5.88873272,34.0550464 6.33380185,33.6157203 L6.33380185,33.6157203 Z M7.26040822,16.5835324 L19.2,28.3692852 C17.8108503,28.9191411 16.3546107,29.3392287 14.8437262,29.5885984 C14.742519,29.6052607 14.6410972,29.6134507 14.5402476,29.6134507 C14.0473005,29.6134507 13.5688728,29.4180923 13.2143972,29.0682546 L13.2143972,29.0682546 L6.55231525,22.4920121 C6.12538526,22.0705124 5.92561721,21.4715874 6.02517938,20.8836765 C6.27780406,19.3921889 6.70337508,17.9547125 7.26040822,16.5835324 L7.26040822,16.5835324 Z M4.05453763,24.0202551 C4.49960113,23.580929 5.22121485,23.580929 5.66620237,24.0202551 C6.11126588,24.4595812 6.11126588,25.1718174 5.66620237,25.6111435 L5.66620237,25.6111435 L1.94546237,29.2839186 C1.7230066,29.5036566 1.43133729,29.6134507 1.13966799,29.6134507 C0.847998683,29.6134507 0.556329378,29.5035816 0.333797627,29.2839186 C-0.111265876,28.8445925 -0.111265876,28.1323563 0.333797627,27.6930302 L0.333797627,27.6930302 Z M32.604169,1.25055521e-12 C33.2080355,1.25055521e-12 33.7438046,0.0175751637 34.195871,0.041942323 C35.1472461,0.0931273615 35.905679,0.841787324 35.9575322,1.78083322 C36.1089777,4.52143843 36.0016536,10.3650753 33.1040453,15.89488 C31.1762551,19.573901 26.9314566,24.3981084 21.3530162,27.2443746 C21.3264157,27.2107647 21.2982547,27.1779951 21.2669016,27.147046 L21.2669016,27.147046 L8.49867006,14.5433429 C8.46731695,14.5123939 8.43404862,14.4845257 8.4,14.458268 C11.2833504,8.95171008 16.1705329,4.761609 19.8975797,2.8586599 C24.5873511,0.464166376 29.4996445,1.25055521e-12 32.604169,1.25055521e-12 Z M9.6,9.47630421 C7.08337616,12.8355791 5.40690459,16.481868 4.70658114,20.1371464 L4.70658114,20.1371464 L1.71282925,19.6811428 C1.02916438,19.5769652 0.453853939,19.1432906 0.173901466,18.5209798 C-0.105977296,17.898669 -0.0453135559,17.1882748 0.336285694,16.6206265 L0.336285694,16.6206265 L4.10709366,11.0114197 C4.61024152,10.2628923 5.42054103,9.79391181 6.33034971,9.72475005 L6.33034971,9.72475005 Z M28.3219879,7.57902678 C26.2476468,5.53134515 22.8725067,5.53155521 20.7983075,7.57902678 C19.7934477,8.57086819 19.2400158,9.88970567 19.2400158,11.2924278 C19.2400158,12.6951499 19.7934477,14.0139874 20.7983075,15.0058288 C21.8355844,16.0297397 23.1976001,16.54152 24.5601832,16.54152 C25.9223407,16.54138 27.2849947,16.0294596 28.3219879,15.0058288 C29.3268477,14.0139874 29.8802087,12.6951499 29.8802087,11.2924278 C29.8802087,9.88970567 29.3268477,8.57086819 28.3219879,7.57902678 Z M24.6,8.29176618 C25.3682667,8.29176618 26.1365333,8.58053618 26.7213333,9.15814202 C27.2879333,9.71770796 27.6,10.461689 27.6,11.2530742 C27.6,12.0444594 27.2879333,12.7884405 26.7213333,13.3480722 C25.5516667,14.5032839 23.6483333,14.5032181 22.4786667,13.3480722 C21.9120667,12.7885063 21.6,12.0444594 21.6,11.2530742 C21.6,10.461689 21.9121333,9.71770796 22.4787333,9.15814202 C23.0635333,8.58053618 23.8318,8.29176618 24.6,8.29176618 Z" id="Combined-Shape"></path>
                        </g>
                    </g>
                </g>
            </g>
        </g>
    </g>
</svg>