<svg xmlns="http://www.w3.org/2000/svg" width="72.805" height="22.305" viewBox="0 0 72.805 22.305">
    <defs>
        <style>
            .cls-1{fill:#c9c9c9}
        </style>
    </defs>
    <g id="air-company-logo" transform="translate(0 -212.251)">
        <path id="Path_314" d="M22.505 219.628H2.085A2.088 2.088 0 0 1 0 217.543v-.13a2.088 2.088 0 0 1 2.085-2.085h22.4a14.345 14.345 0 0 0-1.98 4.3zM22 223.4a14.424 14.424 0 0 1 .161-2.15H7.592a2.087 2.087 0 0 0-2.085 2.085v.129a2.088 2.088 0 0 0 2.085 2.085h14.569A14.464 14.464 0 0 1 22 223.4zm38.505 3.775H50.3a14.342 14.342 0 0 1-1.978 4.3h12.184a2.088 2.088 0 0 0 2.085-2.085v-.129a2.088 2.088 0 0 0-2.085-2.083zm10.214-11.85h-22.4a14.348 14.348 0 0 1 1.978 4.3h20.42a2.088 2.088 0 0 0 2.085-2.085v-.129a2.087 2.087 0 0 0-2.082-2.083zm-48.214 11.85H12.3a2.088 2.088 0 0 0-2.085 2.085v.129a2.087 2.087 0 0 0 2.085 2.085h12.183a14.335 14.335 0 0 1-1.977-4.296zm42.707-5.925H50.644a14.417 14.417 0 0 1 0 4.3h14.569a2.088 2.088 0 0 0 2.085-2.085v-.129a2.088 2.088 0 0 0-2.085-2.082zm-17.657 2.15A11.152 11.152 0 1 1 36.4 212.251 11.165 11.165 0 0 1 47.555 223.4zm-3.377-3.471a1.047 1.047 0 0 0-.941-.554 1.123 1.123 0 0 0-.415.079l-3.483 1.383-3.875-.713a3.257 3.257 0 0 0-1.791.176l-.3.121a.325.325 0 0 0-.063.571l2.122 1.449-4 1.977-1.5-.793a1.474 1.474 0 0 0-1.212-.062.325.325 0 0 0-.128.512l1.532 1.814-.331 1.229a.325.325 0 0 0 .434.387l.294-.117a1.3 1.3 0 0 0 .528-.39l.717-.894 4.317-1.714.178 4.244a.325.325 0 0 0 .445.289 3.269 3.269 0 0 0 1.826-1.83l1.723-4.359 3.386-1.345a1.051 1.051 0 0 0 .544-1.461z" class="cls-1" data-name="Path 314"/>
    </g>
</svg>
