<svg xmlns="http://www.w3.org/2000/svg" width="55" height="50" viewBox="0 0 55 50">
    <defs>
        <linearGradient id="qodvn16k3a" x1="50%" x2="50%" y1="0%" y2="100%">
            <stop offset="0%" stop-color="#0DB0D4"/>
            <stop offset="100%" stop-color="#9D32FF"/>
        </linearGradient>
    </defs>
    <g fill="none" fill-rule="evenodd">
        <g>
            <g>
                <g>
                    <g>
                        <g fill="#F7F8FB">
                            <path d="M25.501 50c13.51 0 26.232-8.504 28.692-20.405C56.73 17.32 53.067 7.295 46.3 2.786 41.056-.708 33.72-.104 27.407.353 14.54 1.483.702 10.431.007 21.713-.338 38.066 11.991 50 25.501 50z" transform="translate(-932.000000, -461.000000) translate(932.000000, 461.000000)"/>
                        </g>
                        <path fill="url(#qodvn16k3a)" fill-rule="nonzero" d="M17.417 28.372c.248 0 .468.096.66.287l3.265 3.265c.19.192.286.41.286.66 0 .248-.095.467-.286.658l-9.51 9.51 4.124 4.125c.363.363.544.793.544 1.29 0 .496-.181.926-.544 1.289-.363.362-.792.544-1.289.544H1.834c-.497 0-.927-.182-1.29-.544-.363-.363-.544-.793-.544-1.29V35.334c0-.496.181-.926.544-1.29.363-.362.793-.543 1.29-.543s.926.181 1.289.543l4.125 4.126 9.51-9.51c.191-.191.41-.287.66-.287zM42.167 6c.497 0 .927.181 1.29.544.363.363.543.792.543 1.289v12.833c0 .497-.181.927-.544 1.29-.363.362-.792.544-1.289.544-.497 0-.926-.182-1.29-.545l-4.124-4.124-9.511 9.51c-.191.191-.41.286-.659.286-.248 0-.467-.095-.658-.286l-3.266-3.266c-.191-.19-.287-.41-.287-.658 0-.249.096-.468.287-.66l9.51-9.51-4.124-4.125c-.363-.362-.544-.792-.544-1.289 0-.496.181-.926.544-1.289.363-.363.792-.544 1.289-.544z" transform="translate(-932.000000, -461.000000) translate(932.000000, 461.000000)"/>
                    </g>
                </g>
            </g>
        </g>
    </g>
</svg>
