<svg xmlns="http://www.w3.org/2000/svg" width="56" height="50" viewBox="0 0 56 50">
    <defs>
        <linearGradient id="ilpja5nfoa" x1="50%" x2="50%" y1="0%" y2="100%">
            <stop offset="0%" stop-color="#0DB0D4"/>
            <stop offset="100%" stop-color="#9D32FF"/>
        </linearGradient>
    </defs>
    <g fill="none" fill-rule="evenodd">
        <g>
            <g>
                <g>
                    <g>
                        <g fill="#F7F8FB">
                            <path d="M25.501 50c13.51 0 26.232-8.504 28.692-20.405C56.73 17.32 53.067 7.295 46.3 2.786 41.056-.708 33.72-.104 27.407.353 14.54 1.483.702 10.431.007 21.713-.338 38.066 11.991 50 25.501 50z" transform="translate(-552.000000, -461.000000) translate(552.000000, 461.000000) translate(0.882067, 0.000000)"/>
                        </g>
                        <path fill="url(#ilpja5nfoa)" fill-rule="nonzero" d="M12.051 33.748c5.83.774 9.925 6.095 9.147 11.887l-.047.354C20.842 48.286 18.871 50 16.54 50H4.751C2.418 50 .446 48.285.137 45.99l-.047-.355c-.116-.892-.124-1.864 0-2.8.774-5.79 6.13-9.858 11.961-9.087zm22.536-2.914c.786.79.974 2.259.18 3.039l-3.673 3.607 1.54 1.547c.305.306.393.763.225 1.159-.167.396-.56.652-.992.65l-6.253-.035c-.31-.001-.607-.125-.825-.344-.218-.22-.339-.514-.337-.823l.037-6.214c.003-.429.266-.815.667-.977.4-.16.86-.067 1.163.238l1.542 1.547 3.67-3.607c.795-.778 2.271-.576 3.056.213zM10.645 17.2c4.157 0 7.527 3.348 7.527 7.479 0 4.13-3.37 7.478-7.527 7.478-4.158 0-7.528-3.348-7.528-7.478s3.37-7.479 7.528-7.479zM27.298 6c4.126 0 7.8 2.437 9.438 6.093C40.82 12.573 44 16.034 44 20.22c0 4.512-3.695 8.181-8.234 8.181l-8.873-.01c-2.113-.001-4.288-.004-6.146-.007.43-1.155.667-2.403.667-3.705 0-.197-.005-.394-.016-.589 1.705.001 3.626.005 5.5.007l8.868.007c2.156 0 3.912-1.743 3.912-3.886 0-2.145-1.756-3.888-3.912-3.888-.127 0-.251.009-.376.02-1.047.097-2.012-.582-2.28-1.595-.691-2.626-3.081-4.462-5.81-4.462-2.458 0-4.645 1.463-5.573 3.727-.242.593-.737 1.046-1.352 1.24-.615.192-1.283.102-1.824-.245-.782-.503-1.688-.769-2.615-.769-.618 0-1.208.117-1.75.328-1.111-.385-2.301-.595-3.543-.595-.859 0-1.695.1-2.498.29 1.617-2.589 4.504-4.317 7.791-4.317.98 0 1.95.155 2.87.46C20.709 7.677 23.847 6 27.298 6z" transform="translate(-552.000000, -461.000000) translate(552.000000, 461.000000) translate(0.882067, 0.000000)"/>
                    </g>
                </g>
            </g>
        </g>
    </g>
</svg>
