<svg xmlns="http://www.w3.org/2000/svg" width="40" height="46" viewBox="0 0 40 46">
    <defs>
        <linearGradient id="4kde5b9oua" x1="50%" x2="50%" y1="0%" y2="100%">
            <stop offset="0%" stop-color="#0DB0D4"/>
            <stop offset="100%" stop-color="#9D32FF"/>
        </linearGradient>
    </defs>
    <g fill="none" fill-rule="evenodd">
        <g fill="url(#4kde5b9oua)" fill-rule="nonzero" transform="translate(-735.000000, -1653.000000)">
            <path d="M774.487 1689.792c.207-.19.513-.024.513.28v2.828c0 1.746-1.307 3.333-3.678 4.469-7.208 3.449-20.055 1.18-20.055-4.469v-2.829c0-.303.306-.468.512-.28 4.923 4.505 17.883 4.416 22.708 0zM735 1682.917c3.125 3.309 10.172 3.965 14.469 3.52.184-.02.344.146.344.358v5.036c0 .184-.121.34-.281.358-3.43.393-7.662.045-10.854-1.482-2.372-1.136-3.678-2.722-3.678-4.469v-3.32zm16.267.376c0-.304.306-.469.512-.28 4.924 4.505 17.883 4.415 22.708 0 .207-.189.513-.024.513.28v2.997c-.09 1.206-1.134 2.483-2.833 3.448-4.594 2.61-13.483 2.604-18.067 0-1.7-.965-2.744-2.242-2.833-3.448zm-15.767-6.776c3.32 2.85 9.703 3.486 13.969 3.044.184-.02.344.146.344.358v4.703c0 .185-.122.34-.282.358-5.942.652-13.861-1.072-14.53-4.692v-3.48c0-.296.293-.468.5-.291zm15.767.056c0-.304.306-.469.513-.28 4.863 4.453 17.836 4.46 22.707 0 .207-.189.513-.024.513.28v2.938c-.09 1.206-1.134 2.484-2.833 3.449-4.594 2.608-13.483 2.603-18.067 0-1.7-.965-2.744-2.243-2.833-3.45zm-15.767-6.841c3.344 2.869 9.76 3.48 13.969 3.044.185-.02.344.146.344.358v4.612c0 .185-.122.34-.282.358-5.872.644-13.857-1.048-14.53-4.692v-3.39c0-.295.293-.467.5-.29zm16.877.219c3.246-3.59 12.952-4.685 18.945-1.818 2.33 1.116 3.631 2.668 3.675 4.379.08 1.629-1.535 2.992-2.83 3.728-4.594 2.608-13.483 2.603-18.067 0-3.334-1.893-3.474-4.353-1.723-6.29zm6.356-6.96v1.67c0 .178-.113.327-.266.356-3.24.602-8.219 2.398-8.627 5.98-.019.169-.133.303-.28.319-4.414.489-11.562-.302-13.976-3.447-.312-.406-.506-.818-.584-1.243v-3.389c0-.295.294-.467.5-.29 4.823 4.139 17.566 4.405 22.723-.237.207-.186.51-.02.51.282zm0-3.892v.542c-.697 2.539-5.282 5.033-11.829 5.033-5.123 0-9.672-1.442-11.32-3.59-.312-.407-.505-.818-.584-1.243v-.742c0-1.747 1.306-3.333 3.678-4.47 7.217-3.453 20.055-1.163 20.055 4.47z"/>
        </g>
    </g>
</svg>
