<svg xmlns="http://www.w3.org/2000/svg" width="39" height="39" viewBox="0 0 39 39">
    <defs>
        <linearGradient id="djwbnz272a" x1="50%" x2="50%" y1="0%" y2="100%">
            <stop offset="0%" stop-color="#0DB0D4"/>
            <stop offset="100%" stop-color="#9D32FF"/>
        </linearGradient>
    </defs>
    <g fill="none" fill-rule="evenodd">
        <g fill="url(#djwbnz272a)" fill-rule="nonzero" transform="translate(-735.000000, -1765.000000)">
            <path d="M745.446 1802.607c0 .385.312.697.697.697h4.178c.385 0 .697-.312.697-.697h10.223l-.16.92c-.098.281-.363.47-.661.473h-24.375c-.299-.002-.564-.192-.662-.474l-.16-.919zm9.054-15.322v.696c0 .32.219.599.53.676l.466.118-.25.41c-.165.275-.122.625.104.85l1.97 1.972c.226.225.576.268.85.104l.411-.25.118.466c.077.31.356.53.676.53h.696v8.357h-9.75c-.384 0-.696.312-.696.697h-2.786c0-.385-.312-.697-.696-.697h-9.75v-13.233c.002-.109.028-.216.076-.313.117-.236.357-.385.62-.383H754.5zm17.41-1.393v8.357c-.002 1.923-1.56 3.48-3.481 3.483h-5.572v-1.393h5.572c1.153 0 2.089-.936 2.089-2.09v-8.357h1.393zm-25.767 7.66h-1.393v1.394h1.393v-1.393zm2.786 0h-1.393v1.394h1.393v-1.393zm2.785 0h-1.393v1.394h1.393v-1.393zm9.903-11.84l.21.85c.054.214.206.39.41.474.205.086.438.067.627-.049l.752-.445 1.198 1.197-.453.753c-.11.19-.126.422-.041.626.084.204.26.357.473.411l.85.21v1.699l-.85.209c-.213.055-.389.207-.473.41-.085.205-.07.436.041.627l.453.753-1.198 1.198-.752-.453c-.19-.11-.423-.126-.627-.042-.204.085-.356.26-.41.474l-.21.85h-1.699l-.209-.85c-.055-.214-.207-.39-.41-.474-.205-.084-.436-.069-.627.042l-.753.453-1.197-1.198.452-.753c.111-.19.126-.422.042-.626-.084-.204-.26-.356-.474-.411l-.85-.21v-1.699l.85-.209c.214-.054.39-.207.474-.41.084-.205.069-.436-.042-.627l-.452-.753 1.197-1.197.753.445c.189.116.422.135.626.049.204-.084.356-.26.411-.474l.21-.85h1.698zm-.85 2.09c-1.538 0-2.785 1.247-2.785 2.786s1.247 2.786 2.786 2.786c1.538 0 2.786-1.247 2.786-2.786s-1.248-2.786-2.786-2.786zm0 1.393c.77 0 1.394.624 1.394 1.393 0 .77-.624 1.393-1.393 1.393-.77 0-1.393-.624-1.393-1.393 0-.77.624-1.393 1.393-1.393zm-5.564-14.267c2.507-.883 5.298-.089 6.965 1.981.126.153.31.247.508.258.195.009.384-.065.522-.202 1-.986 2.494-1.274 3.789-.733 1.295.542 2.138 1.809 2.138 3.212-.003.397-.071.79-.202 1.164-.075.212-.044.447.084.633.133.182.345.29.57.293h1.637c1.539 0 2.786 1.247 2.786 2.786 0 1.538-1.247 2.786-2.786 2.786h-5.063l-1.936-1.937c-.226-.225-.576-.268-.85-.104l-.41.25-.119-.466c-.077-.31-.355-.529-.675-.53h-2.786c-.32.001-.599.22-.676.53l-.118.467-.41-.251c-.275-.164-.625-.12-.85.104l-1.937 1.937h-6.455c-1.539 0-2.786-1.248-2.786-2.786 0-1.539 1.247-2.786 2.786-2.786h1.392c.385 0 .697-.312.697-.697.001-2.658 1.678-5.026 4.185-5.909zm-11.143-5.572c2.507-.883 5.298-.089 6.965 1.981.126.153.31.247.508.258.195.009.384-.064.523-.202.912-.901 2.248-1.227 3.473-.847 1.225.38 2.141 1.405 2.384 2.665-.21-.021-.418-.035-.627-.035-3.96.005-7.267 3.022-7.633 6.965h-.724c-1.187.002-2.316.509-3.106 1.393h-8.037c-1.539 0-2.786-1.247-2.786-2.786s1.247-2.786 2.786-2.786h1.393c.384 0 .696-.312.696-.696.001-2.658 1.679-5.026 4.185-5.91z"/>
        </g>
    </g>
</svg>
