<svg xmlns="http://www.w3.org/2000/svg" width="15" height="25" viewBox="0 0 15 25">
    <g fill="none" fill-rule="evenodd">
        <g fill="#C1CCDF" fill-rule="nonzero">
            <g>
                <g>
                    <g>
                        <path d="M15 .703c0-.384-.305-.695-.682-.695H10.91c-3.574-.18-6.62 2.61-6.818 6.248v3.749H.68c-.376 0-.681.31-.681.694v3.61c0 .384.305.694.682.694H4.09v9.303c0 .383.305.694.682.694h4.09c.377 0 .682-.31.682-.694v-9.303h3.573c.312.005.587-.207.668-.513l.982-3.61c.055-.208.012-.43-.116-.602-.128-.17-.327-.272-.538-.273H9.545V6.256c.07-.712.661-1.253 1.364-1.25h3.41c.376 0 .681-.31.681-.694V.702z" transform="translate(-1135.000000, -392.000000) translate(1135.000000, 392.000000)"/>
                    </g>
                </g>
            </g>
        </g>
    </g>
</svg>
