<svg xmlns="http://www.w3.org/2000/svg" width="55" height="50" viewBox="0 0 55 50">
    <defs>
        <linearGradient id="6u7w63rpta" x1="50%" x2="50%" y1="0%" y2="100%">
            <stop offset="0%" stop-color="#0DB0D4"/>
            <stop offset="100%" stop-color="#9D32FF"/>
        </linearGradient>
    </defs>
    <g fill="none" fill-rule="evenodd">
        <g>
            <g>
                <g>
                    <g fill="#F7F8FB">
                        <path d="M25.501 50c13.51 0 26.232-8.504 28.692-20.405C56.73 17.32 53.067 7.295 46.3 2.786 41.056-.708 33.72-.104 27.407.353 14.54 1.483.702 10.431.007 21.713-.338 38.066 11.991 50 25.501 50z" transform="translate(-175.000000, -461.000000) translate(175.000000, 461.000000)"/>
                    </g>
                    <path fill="url(#6u7w63rpta)" fill-rule="nonzero" d="M42.678 30.567l-3.14-1.885.64-.641c3.983-3.858 4.945-9.66 2.452-14.783-2.475-5.083-7.6-7.892-13.021-7.136-6.227.67-10.106 5.554-11.086 9.816-2.07 7.746 1.054 16.486-.584 22.117-.582 2.314-2.226 3.906-4.441 4.16-2.646.37-4.406-1.255-5.192-2.884-.793-1.632-.956-4.031.97-5.886l.654-.656 1.889 3.144c.281.468.845.706 1.359.6.536-.108.944-.54 1.022-1.081l1.823-12.763c.124-.857-.623-1.585-1.458-1.46L1.803 23.052c-.541.079-.974.486-1.083 1.022-.108.535.134 1.08.602 1.36l3.14 1.886-.64.64C-.16 31.818-1.123 37.62 1.37 42.743c2.477 5.091 7.615 7.886 13.021 7.137 6.237-.673 10.046-5.573 11.003-9.79 2.085-7.751-1.048-16.528.591-22.164.582-2.314 2.302-3.886 4.517-4.139 2.636-.37 4.404 1.254 5.192 2.883.793 1.632.956 4.032-.97 5.886l-.654.656-1.888-3.143c-.282-.469-.844-.703-1.36-.601-.536.108-.944.541-1.022 1.082l-1.823 12.763c-.125.865.633 1.584 1.458 1.46l12.762-1.824c.541-.078.974-.486 1.083-1.021.108-.535-.134-1.08-.602-1.361z" transform="translate(-175.000000, -461.000000) translate(175.000000, 461.000000)"/>
                </g>
            </g>
        </g>
    </g>
</svg>
