<svg xmlns="http://www.w3.org/2000/svg" width="33" height="18" viewBox="0 0 33 18">
    <g fill="none" fill-rule="evenodd">
        <g fill="#26D796" fill-rule="nonzero">
            <g>
                <g>
                    <g>
                        <g>
                            <path d="M22.177.43c.445-.045.893.062 1.244.299.364.225.606.565.672.944.067.379-.049.764-.32 1.07L10.622 17.029c-.335.36-.854.563-1.395.542-.508.002-.99-.192-1.31-.528l-7.005-7.4C.514 9.247.401 8.698.618 8.21c.216-.487.727-.836 1.334-.91.606-.073 1.212.14 1.58.557l5.762 5.972L21.052.97c.275-.3.68-.495 1.125-.54zm8.399 0c.445-.045.893.062 1.244.299.359.225.598.562.664.937.066.376-.046.758-.311 1.063L19.02 17.014c-.317.341-.8.541-1.31.543-.509.002-.99-.193-1.31-.528L14.55 15.07l2.117-2.314 1.025 1.072L29.45.97c.275-.3.68-.495 1.125-.54zM10.665 7.266l.17.012c.454.054.862.263 1.13.58l.335.342-2.166 2.314-.824-.928c-.281-.295-.413-.674-.366-1.052.047-.378.27-.724.618-.963.36-.24.82-.347 1.273-.293z" transform="translate(-765.000000, -868.000000) translate(137.000000, 852.000000) translate(628.000000, 8.000000) translate(0.000000, 8.000000)"/>
                        </g>
                    </g>
                </g>
            </g>
        </g>
    </g>
</svg>
