<svg xmlns="http://www.w3.org/2000/svg" width="25" height="25" viewBox="0 0 25 25">
    <g fill="none" fill-rule="evenodd">
        <g fill="#C1CCDF" fill-rule="nonzero">
            <g>
                <g>
                    <g>
                        <path d="M196.552 0C200.66 0 204 3.341 204 7.448v10.104c0 4.107-3.341 7.448-7.448 7.448h-10.104C182.34 25 179 21.659 179 17.552V7.448C179 3.34 182.341 0 186.448 0zm0 2.515h-10.104c-2.725 0-4.933 2.208-4.933 4.933v10.104c0 2.725 2.208 4.933 4.933 4.933h10.104c2.725 0 4.933-2.208 4.933-4.933V7.448c0-2.725-2.208-4.933-4.933-4.933zm-5.052 3.52c3.565 0 6.466 2.9 6.466 6.465s-2.9 6.466-6.466 6.466c-3.565 0-6.466-2.9-6.466-6.466 0-3.565 2.9-6.466 6.466-6.466zm0 2.514c-2.182 0-3.95 1.769-3.95 3.951 0 2.182 1.768 3.95 3.95 3.95 2.182 0 3.95-1.768 3.95-3.95 0-2.182-1.768-3.95-3.95-3.95zm6.478-4.016c.856 0 1.55.694 1.55 1.55 0 .855-.694 1.549-1.55 1.549-.855 0-1.549-.694-1.549-1.55 0-.855.694-1.549 1.55-1.549z" transform="translate(-1314.000000, -392.000000) translate(1135.000000, 392.000000)"/>
                    </g>
                </g>
            </g>
        </g>
    </g>
</svg>
