<svg xmlns="http://www.w3.org/2000/svg" width="25" height="25" viewBox="0 0 25 25">
    <g fill="none" fill-rule="evenodd">
        <g fill="#C1CCDF" fill-rule="nonzero">
            <g>
                <g>
                    <g>
                        <path d="M134.79 7.89c5.244 0 6.21 3.455 6.21 7.94V25h-.006V25h-5.172v-8.444c-.012-1.88-.183-4.102-2.695-4.102-2.695 0-3.107 2.104-3.107 4.28V25h-5.177V8.309h4.972v2.275h.072c.691-1.311 2.383-2.694 4.904-2.694zm-13.194.42V25h-5.184V8.31h5.184zM119.002 0c1.656 0 3.001 1.345 3.002 3.002 0 1.657-1.345 3.03-3.002 3.03-1.657 0-3.002-1.373-3.002-3.03C116 1.345 117.345 0 119.002 0z" transform="translate(-1251.000000, -392.000000) translate(1135.000000, 392.000000)"/>
                    </g>
                </g>
            </g>
        </g>
    </g>
</svg>
