<svg xmlns="http://www.w3.org/2000/svg" width="40" height="40" viewBox="0 0 40 40">
    <g fill="none" fill-rule="evenodd">
        <g fill-rule="nonzero">
            <g>
                <path fill="#02D8FB" d="M39.57 33.583V6.529c0-.469.008-.938.008-1.406 0-1.884-1.04-3.69-2.744-4.542-.726-.362-1.51-.547-2.322-.547-.142 0-.284.009-.43.009H5.428c-.12 0-.237-.009-.357-.009C3.819.07 2.628.568 1.725 1.428.662 2.438.172 3.819.172 5.26v28.637c0 .155-.009.314-.009.469 0 .744.155 1.453.452 2.133.796 1.806 2.667 2.942 4.62 2.946.447 0 .894-.008 1.341-.008H34.59c1.243-.018 2.43-.478 3.355-1.308.933-.839 1.467-2.004 1.609-3.234.047-.43.017-.878.017-1.312z" transform="translate(-1100.000000, -5879.000000) translate(1100.000000, 5879.000000)"/>
                <path fill="#FFF" d="M30.108 20.766c0 .963-.788 1.677-1.72 1.72-.93.043-1.721-.821-1.721-1.72v-5.377l-3.407 3.402c-1.638 1.64-3.282 3.278-4.92 4.917l-4.065 4.064-.955.955-.318.318c-.142.142-.284.28-.421.422-.68.688-1.747.632-2.435 0-.008-.009-.021-.018-.03-.03-.026-.026-.051-.052-.073-.078-.013-.013-.021-.026-.034-.039l-.005-.004c-.008-.008-.017-.021-.021-.03l-.005-.004c0-.009-.012-.022-.021-.03h-.004-.005-.004s-.004-.005-.004-.009v-.004-.009-.008-.005c-.005-.004-.005-.008 0-.013V29.2v-.004c-.009-.005-.017-.005-.022-.009-.004 0-.004-.004-.008-.009 0 0-.005 0-.005-.004-.004-.004-.008-.008-.008-.013 0-.004.004-.008 0-.008l-.03-.043-.022-.035c-.004-.013-.013-.026-.017-.038 0-.005-.004-.009-.009-.013-.004-.005-.004-.009-.008-.013h-.005v-.005c0-.008-.008-.012-.012-.021 0 0 0-.004-.005-.004v-.005c0-.004-.004-.008-.004-.013-.004-.004-.004-.008-.009-.012l-.008-.022c-.005-.009-.005-.017-.005-.026v-.013c0-.021-.008-.038-.017-.056-.004-.008-.008-.021-.013-.03l-.013-.03c-.025-.09-.047-.19-.055-.284-.005-.025-.005-.056-.01-.081-.033-.5.139-1.015.491-1.368l.026-.03c.68-.697 1.376-1.377 2.065-2.065l4.249-4.25c1.639-1.638 3.277-3.28 4.916-4.92.938-.937 1.88-1.875 2.817-2.821h-5.376c-.963 0-1.677-.787-1.72-1.72-.043-.93.821-1.721 1.72-1.721h9.527c.374 0 .722.133 1.01.344l.014.013s.004.004.008.004.004.005.009.005l.017.012c.056.04.112.086.163.134.082.077.155.159.22.25l.026.038.03.043c.025.039.047.082.068.125.065.133.108.27.125.417.009.047.013.095.017.142.013.064.026.133.026.198v9.527h.005z" transform="translate(-1100.000000, -5879.000000) translate(1100.000000, 5879.000000)"/>
            </g>
        </g>
    </g>
</svg>
