<svg xmlns="http://www.w3.org/2000/svg" width="40" height="43" viewBox="0 0 40 43">
    <defs>
        <linearGradient id="xhoonwwt9a" x1="50%" x2="50%" y1="0%" y2="100%">
            <stop offset="0%" stop-color="#0DB0D4"/>
            <stop offset="100%" stop-color="#9D32FF"/>
        </linearGradient>
    </defs>
    <g fill="none" fill-rule="evenodd">
        <g fill="url(#xhoonwwt9a)" transform="translate(-735.000000, -1879.000000)">
            <path d="M754.09 1905.99V1922H740v-9.1h10.5l3.59-6.91zm1.82 0l3.59 6.91H770v9.1h-14.09v-16.01zm-2.728-4.118l-4.418 8.692H735l4.418-8.692h13.764zm17.4 0l4.418 8.692h-13.764l-4.418-8.692h13.764zm-20.222-9.495c.558 2.096 2.464 3.64 4.73 3.64 2.19 0 4.043-1.443 4.669-3.432l.06-.208h3.323c.107 1.461.01 3.939-.451 6.35l-.08.4h-15.323c-.423-1.323-.465-4.458-.47-6.223v-.528h3.542zm4.73-3.641c1.304 0 2.362 1.061 2.362 2.37 0 1.31-1.058 2.37-2.363 2.37s-2.363-1.06-2.363-2.37c0-1.309 1.058-2.37 2.363-2.37zm-.19-9.736c1.12 0 6.36 3.749 7.88 10.836h-2.96c-.559-2.096-2.465-3.64-4.73-3.64-2.191 0-4.045 1.443-4.67 3.433l-.06.208h-3.34c1.14-7.034 6.762-10.837 7.88-10.837z"/>
        </g>
    </g>
</svg>
