<svg xmlns="http://www.w3.org/2000/svg" width="11" height="10" viewBox="0 0 11 10">
    <g fill="none" fill-rule="evenodd">
        <g fill="#C1CCDF" fill-rule="nonzero">
            <g>
                <g>
                    <path d="M748.43 24.52l-7.407-4.95c-.143-.095-.318-.093-.46.005-.143.099-.23.28-.23.475v9.9c0 .196.087.376.23.475.072.05.153.075.233.075.078 0 .157-.023.227-.07l7.408-4.95c.145-.098.236-.28.236-.48 0-.2-.091-.382-.236-.48z" transform="translate(-1274.000000, -5994.000000) translate(0.000000, 5666.000000) translate(135.000000, 0.000000) translate(0.000000, 308.000000) translate(400.000000, 0.000000) translate(744.500000, 25.000000) rotate(-270.000000) translate(-744.500000, -25.000000)"/>
                </g>
            </g>
        </g>
    </g>
</svg>
