<svg xmlns="http://www.w3.org/2000/svg" width="25" height="22" viewBox="0 0 25 22">
    <g fill="none" fill-rule="evenodd">
        <g fill="#02D8FB" fill-rule="nonzero">
            <g>
                <g>
                    <g>
                        <g>
                            <g>
                                <path d="M7.046 21.991c4.146.138 8.173-1.391 11.163-4.24C21.2 14.904 22.9 10.98 22.924 6.87c.94-1.152 1.64-2.48 2.054-3.904.064-.23-.015-.475-.2-.626-.187-.152-.445-.18-.66-.075-1.01.481-2.215.27-2.998-.522C20.135.674 18.757.047 17.297.002c-1.459-.044-2.874.5-3.922 1.506-1.445 1.386-2.05 3.42-1.596 5.361-4.65.275-7.842-1.91-10.396-4.907-.157-.176-.404-.244-.63-.172-.225.071-.386.268-.411.502-.996 5.474 1.55 10.985 6.385 13.816-1.583 1.798-3.806 2.92-6.205 3.134-.263.043-.47.248-.513.509-.044.26.084.52.32.646 2.086 1.033 4.384 1.578 6.717 1.594" transform="translate(-1188.000000, -394.000000) translate(1135.000000, 392.000000) translate(53.000000, 2.000000)"/>
                            </g>
                        </g>
                    </g>
                </g>
            </g>
        </g>
    </g>
</svg>
