<svg xmlns="http://www.w3.org/2000/svg" width="45" height="45" viewBox="0 0 45 45">
    <defs>
        <style>
            .cls-1{fill:#c9c9c9}
        </style>
    </defs>
    <g id="apple_2_" data-name="apple (2)">
        <g id="Group_258" data-name="Group 258">
            <g id="Group_257" data-name="Group 257">
                <path id="Path_304" d="M35.771 0H9.229A9.239 9.239 0 0 0 0 9.229v26.542A9.239 9.239 0 0 0 9.229 45h26.542A9.239 9.239 0 0 0 45 35.771V9.229A9.239 9.239 0 0 0 35.771 0zm6.592 35.771a6.6 6.6 0 0 1-6.592 6.592H9.229a6.6 6.6 0 0 1-6.592-6.592V9.229a6.6 6.6 0 0 1 6.592-6.592h26.542a6.6 6.6 0 0 1 6.592 6.592z" class="cls-1" data-name="Path 304"/>
            </g>
        </g>
        <g id="Group_260" data-name="Group 260" transform="translate(11.491 6.837)">
            <g id="Group_259" data-name="Group 259">
                <path id="Path_305" d="M149.828 81.259a11.008 11.008 0 1 0-15.179 15.935 11.015 11.015 0 0 1 3.368 5.512l.319 1.274h7.347l.319-1.274a10.554 10.554 0 0 1 3.263-5.418 11.008 11.008 0 0 0 .564-16.028zM147.522 95.3a13.119 13.119 0 0 0-3.882 6.037h-.311v-8.454h3.082v-2.642h-8.807v2.642h3.082v8.455h-.312a13.713 13.713 0 0 0-3.96-6.108 8.366 8.366 0 1 1 11.107.071z" class="cls-1" data-name="Path 305" transform="translate(-131 -77.999)"/>
            </g>
        </g>
        <g id="Group_262" data-name="Group 262" transform="translate(18.5 34.454)">
            <g id="Group_261" data-name="Group 261">
                <path id="Rectangle_1228" d="M0 0h8v4H0z" class="cls-1" data-name="Rectangle 1228"/>
            </g>
        </g>
    </g>
</svg>
