<svg width="52" height="60" viewBox="0 0 52 60" fill="none" xmlns="http://www.w3.org/2000/svg">
<path d="M24.7696 0.149486L1.2652 12.9705L27.3522 28.143C27.5884 28.2797 27.8568 28.5556 27.8568 28.8539V51.205C27.8568 51.5182 27.5809 51.7319 27.5486 51.7493L25.9926 52.6168C25.7515 52.7511 25.396 52.7635 25.0455 52.5696L23.6585 51.8015C23.4572 51.6897 23.2832 51.4187 23.2832 51.1279V31.352C23.2832 31.004 22.9054 30.8375 22.6518 30.6908L0 17.5069V43.9518C0 44.5359 0.56176 45.2046 1.03652 45.4855L24.5683 59.3654C25.3214 59.8103 25.7738 59.7358 26.8153 59.2138L50.0687 45.488C50.6106 45.1673 51.14 44.5707 51.14 43.9096V17.5019L35.54 26.6193C35.3436 26.7336 34.9882 26.7759 34.7843 26.6591L33.3725 25.8438C33.0916 25.6822 32.8381 25.3566 32.8306 25.0185L32.8008 23.3656C32.7958 23.117 32.9624 22.7939 33.1786 22.6671L49.8673 12.9531L26.3679 0.154457C26.0025 -0.0468811 25.1499 -0.0543381 24.7696 0.149486Z" fill="#3878DF"/>
</svg>
