<svg width="35" height="35" viewBox="0 0 35 35" fill="none" xmlns="http://www.w3.org/2000/svg">
<path opacity="0.3" d="M21.8749 24.7917H13.1249V23.3333H7.29159V27.7083H27.7083V23.3333H21.8749V24.7917ZM5.83325 20.4167H13.1249V16.0417H21.8749V20.4167H29.1666V13.125H5.83325V20.4167Z" fill="#3878DF"/>
<path d="M29.1668 10.2083H23.3334V7.29167L20.4167 4.375H14.5834L11.6667 7.29167V10.2083H5.83342C4.22925 10.2083 2.91675 11.5208 2.91675 13.125V20.4167C2.91675 21.5104 3.50008 22.4292 4.37508 22.9396V27.7083C4.37508 29.3271 5.673 30.625 7.29175 30.625H27.7084C29.3272 30.625 30.6251 29.3271 30.6251 27.7083V22.925C31.4855 22.4146 32.0834 21.4813 32.0834 20.4167V13.125C32.0834 11.5208 30.7709 10.2083 29.1668 10.2083ZM14.5834 7.29167H20.4167V10.2083H14.5834V7.29167ZM27.7084 27.7083H7.29175V23.3333H13.1251V24.7917H21.8751V23.3333H27.7084V27.7083ZM16.0417 21.875V18.9583H18.9584V21.875H16.0417ZM29.1668 20.4167H21.8751V16.0417H13.1251V20.4167H5.83342V13.125H29.1668V20.4167Z" fill="#3878DF"/>
</svg>
