<svg width="35" height="35" viewBox="0 0 35 35" fill="none" xmlns="http://www.w3.org/2000/svg">
<path opacity="0.3" d="M23.2022 13.5333L21.3063 11.6375L7.29175 25.6521V27.7083H9.348L23.3626 13.6938L23.2022 13.5333Z" fill="#3878DF"/>
<path opacity="0.3" d="M15.7938 13.0229L14.0438 11.2729L12.3084 13.0083L10.2376 10.9375L11.973 9.21664L10.1209 7.34998L7.3501 10.1208L13.023 15.7937L15.7938 13.0229Z" fill="#3878DF"/>
<path opacity="0.3" d="M23.7271 20.9708L21.9771 19.2062L19.2063 21.9771L24.8792 27.65L27.65 24.8792L25.798 23.0271L24.0625 24.7625L21.9917 22.7062L23.7271 20.9708Z" fill="#3878DF"/>
<path opacity="0.3" d="M25.4259 7.50147L23.3635 9.56384L25.4259 11.6262L27.4883 9.56384L25.4259 7.50147Z" fill="#3878DF"/>
<path d="M30.5812 8.54583L26.4542 4.41875C25.8854 3.85 24.9667 3.85 24.3979 4.41875L17.85 10.9667L12.1771 5.29375C11.0396 4.15625 9.1875 4.15625 8.05 5.29375L5.27917 8.06458C4.14167 9.20208 4.14167 11.0542 5.27917 12.1917L10.9521 17.8646L4.375 24.4417V30.625H10.5583L17.15 24.0333L22.8229 29.7063C24.2083 31.0917 26.075 30.5813 26.95 29.7063L29.7208 26.9354C30.8583 25.7979 30.8583 23.9458 29.7208 22.8083L24.0479 17.1354L30.5958 10.5875C31.15 10.0333 31.15 9.11458 30.5812 8.54583ZM7.35 10.1208L10.1062 7.35L11.9583 9.20208L10.2375 10.9375L12.2938 12.9937L14.0292 11.2583L15.7792 13.0083L13.0083 15.7792L7.35 10.1208ZM9.34792 27.7083H7.29167V25.6521L21.3062 11.6375L23.2021 13.5333L23.3625 13.6937L9.34792 27.7083ZM24.0625 24.7625L25.7979 23.0271L27.65 24.8792L24.8792 27.65L19.2063 21.9771L21.9771 19.2062L23.7271 20.9562L21.9917 22.6917L24.0625 24.7625ZM25.4333 11.6375L23.3771 9.58125L25.4333 7.525L27.4896 9.58125L25.4333 11.6375Z" fill="#3878DF"/>
</svg>
