<svg width="35" height="35" viewBox="0 0 35 35" fill="none" xmlns="http://www.w3.org/2000/svg">
<path opacity="0.3" d="M10.2083 5.83331H23.3333V26.25H10.2083V5.83331Z" fill="#3878DF"/>
<path d="M22.6042 1.45831H10.9376C8.92508 1.45831 7.29175 3.09165 7.29175 5.10415V29.8958C7.29175 31.9083 8.92508 33.5416 10.9376 33.5416H22.6042C24.6167 33.5416 26.2501 31.9083 26.2501 29.8958V5.10415C26.2501 3.09165 24.6167 1.45831 22.6042 1.45831ZM16.7709 32.0833C15.5605 32.0833 14.5834 31.1062 14.5834 29.8958C14.5834 28.6854 15.5605 27.7083 16.7709 27.7083C17.9813 27.7083 18.9584 28.6854 18.9584 29.8958C18.9584 31.1062 17.9813 32.0833 16.7709 32.0833ZM23.3334 26.25H10.2084V5.83331H23.3334V26.25Z" fill="#3878DF"/>
</svg>
