<svg width="35" height="35" viewBox="0 0 35 35" fill="none" xmlns="http://www.w3.org/2000/svg">
<path opacity="0.3" d="M22.6771 16.0417L26.7021 8.75H8.9834L12.4396 16.0417H22.6771Z" fill="#3878DF"/>
<path d="M22.677 18.9584C23.7708 18.9584 24.7333 18.3604 25.2291 17.4563L30.4499 7.99169C30.9895 7.02919 30.2895 5.83335 29.1812 5.83335H7.59784L6.227 2.91669H1.45825V5.83335H4.37492L9.62492 16.9021L7.65617 20.4604C6.59159 22.4146 7.99159 24.7917 10.2083 24.7917H27.7083V21.875H10.2083L11.8124 18.9584H22.677ZM8.98325 8.75002H26.702L22.677 16.0417H12.4395L8.98325 8.75002ZM10.2083 26.25C8.60409 26.25 7.30617 27.5625 7.30617 29.1667C7.30617 30.7709 8.60409 32.0834 10.2083 32.0834C11.8124 32.0834 13.1249 30.7709 13.1249 29.1667C13.1249 27.5625 11.8124 26.25 10.2083 26.25ZM24.7916 26.25C23.1874 26.25 21.8895 27.5625 21.8895 29.1667C21.8895 30.7709 23.1874 32.0834 24.7916 32.0834C26.3958 32.0834 27.7083 30.7709 27.7083 29.1667C27.7083 27.5625 26.3958 26.25 24.7916 26.25Z" fill="#3878DF"/>
</svg>
