<svg width="56" height="59" viewBox="0 0 56 59" fill="none" xmlns="http://www.w3.org/2000/svg">
<path d="M49.0457 29.3186L55.1153 22.5778C56.572 20.9596 56.0217 19.2661 53.8922 18.8138L45.0196 16.9273L45.9676 7.90619C46.1955 5.74177 44.7546 4.69473 42.7663 5.5803L34.4788 9.26943L29.9436 1.41406C28.8554 -0.471353 27.0748 -0.471353 25.986 1.41406L21.4508 9.26943L13.1638 5.5803C11.1755 4.69473 9.73459 5.74177 9.96189 7.90619L10.9105 16.9279L2.03788 18.8139C-0.0916528 19.2662 -0.641902 20.9603 0.814678 22.5778L6.88422 29.3186L0.814623 36.0594C-0.641957 37.6776 -0.0917112 39.371 2.03782 39.8239L10.9104 41.7099L9.9624 50.731C9.73448 52.8954 11.1754 53.9425 13.1642 53.0569L21.4512 49.3678L25.9859 57.2231C27.0746 59.1086 28.8553 59.1086 29.944 57.2231L34.4794 49.3678L42.7662 53.0569C44.7546 53.9425 46.1954 52.8954 45.9681 50.731L45.0196 41.7099L53.8921 39.8234C56.0217 39.3711 56.5719 37.6776 55.1153 36.0594L49.0457 29.3186ZM19.5246 28.4925C18.7433 27.627 18.3471 26.4683 18.3471 25.0486C18.3471 23.5087 18.7638 22.2686 19.5857 21.3627C20.4191 20.4442 21.5499 19.9785 22.9468 19.9785C24.3053 19.9785 25.3824 20.4148 26.148 21.2754C26.8999 22.1209 27.2812 23.3052 27.2812 24.7953C27.2812 26.2879 26.858 27.5081 26.0235 28.4221C25.1783 29.3478 24.062 29.8172 22.7056 29.8172C21.388 29.8172 20.3178 29.3715 19.5246 28.4925ZM23.435 38.5628H20.6432L32.3017 20.2439H35.1064L23.435 38.5628ZM36.3252 37.3124C35.4799 38.2382 34.3636 38.7076 33.0072 38.7076C31.6891 38.7076 30.6186 38.2595 29.8254 37.376C29.0447 36.5067 28.6487 35.3503 28.6487 33.939C28.6487 32.3987 29.0695 31.1544 29.8995 30.2407C30.7407 29.3144 31.8675 28.8447 33.2484 28.8447C34.5994 28.8447 35.6746 29.2853 36.4443 30.1544C37.1997 31.0077 37.5827 32.1998 37.5827 33.6977C37.5827 35.1823 37.1596 36.3984 36.3252 37.3124Z" fill="#3878DF"/>
</svg>
