<svg xmlns="http://www.w3.org/2000/svg" width="13" height="13" viewBox="0 0 13 13">
    <g fill="none" fill-rule="evenodd">
        <g fill="#3D4571" fill-rule="nonzero">
            <g>
                <g>
                    <path d="M6.5 7c3.584 0 6.5 2.916 6.5 6.5S10.084 20 6.5 20 0 17.084 0 13.5 2.916 7 6.5 7zm0 .949c-3.06 0-5.551 2.49-5.551 5.551 0 3.06 2.49 5.551 5.551 5.551 3.06 0 5.551-2.49 5.551-5.551 0-3.06-2.49-5.551-5.551-5.551zm-.316 2.23c.262 0 .474.212.474.474V13.5h2.056c.262 0 .475.212.475.474 0 .263-.213.475-.475.475h-2.53c-.262 0-.475-.212-.475-.475v-3.32c0-.263.213-.475.475-.475z" transform="translate(-368.000000, -105.000000) translate(368.000000, 98.000000)"/>
                </g>
            </g>
        </g>
    </g>
</svg>
