<svg width="64" height="64" viewBox="0 0 64 64" fill="none" xmlns="http://www.w3.org/2000/svg">
<path d="M50 58H62V47.124C62.0003 46.2316 61.7022 45.3648 61.1532 44.6614C60.6042 43.958 59.8357 43.4584 58.97 43.242L47.304 40.326C46.9184 40.2294 46.5703 40.0201 46.3042 39.7247C46.0381 39.4294 45.8661 39.0615 45.81 38.668L44.986 32.906C47.0769 31.9509 48.8495 30.4153 50.0929 28.4819C51.3363 26.5485 51.9983 24.2987 52 22V16.504C52.0495 13.3218 50.8669 10.2437 48.6994 7.91332C46.5319 5.58294 43.5474 4.18076 40.37 3.99997C38.1389 3.9281 35.9323 4.48235 34 5.59997" stroke="#3878DF" stroke-width="4" stroke-miterlimit="10" stroke-linecap="square"/>
<path d="M39.098 47.172L29.248 44.356C28.8764 44.2502 28.5434 44.039 28.2893 43.7479C28.0352 43.4569 27.8708 43.0985 27.816 42.716L26.986 36.906C26.986 36.906 34.438 37.468 38 34C35.1168 30.1215 33.6998 25.3475 34 20.524C34.0443 17.3603 32.8745 14.2999 30.7314 11.9722C28.5882 9.64455 25.6346 8.22661 22.478 8.01001C20.8632 7.94564 19.2521 8.20809 17.7412 8.78163C16.2303 9.35517 14.8509 10.228 13.6856 11.3477C12.5203 12.4674 11.5932 13.811 10.9599 15.2978C10.3266 16.7845 10.0001 18.3839 10 20C10.3875 24.9952 8.968 29.9635 6 34C9.562 37.468 17.014 36.906 17.014 36.906L16.184 42.716C16.1292 43.0985 15.9648 43.4569 15.7107 43.7479C15.4566 44.039 15.1236 44.2502 14.752 44.356L4.902 47.172C4.06606 47.4106 3.33061 47.9151 2.80699 48.6091C2.28337 49.303 2.00008 50.1487 2 51.018V58H42V51.018C41.9999 50.1487 41.7166 49.303 41.193 48.6091C40.6694 47.9151 39.9339 47.4106 39.098 47.172Z" stroke="#3878DF" stroke-width="4" stroke-miterlimit="10" stroke-linecap="square"/>
</svg>
