<svg id="Confirmed_ready_for_delivery" data-name="Confirmed &amp;  ready for delivery" xmlns="http://www.w3.org/2000/svg" xmlns:xlink="http://www.w3.org/1999/xlink" width="299.687" height="230" viewBox="0 0 299.687 230">
  <defs>
    <linearGradient id="linear-gradient" x1="0.5" y1="1" x2="0.5" gradientUnits="objectBoundingBox">
      <stop offset="0" stop-color="gray" stop-opacity="0.251"/>
      <stop offset="0.54" stop-color="gray" stop-opacity="0.122"/>
      <stop offset="1" stop-color="gray" stop-opacity="0.102"/>
    </linearGradient>
    <linearGradient id="linear-gradient-2" x1="0.073" y1="1" x2="0.073" y2="0" xlink:href="#linear-gradient"/>
  </defs>
  <path id="Path_2161" data-name="Path 2161" d="M357.427,165.182c-10.175,12.929-6.222,31.814.243,46.942,2.166,5.066,4.612,10.422,3.71,15.853-1.116,6.64-7.047,11.5-13.275,14.07a39.535,39.535,0,0,1-35.369-2.912c-9.014-5.6-15.47-14.717-24.637-20.065-15.344-8.95-34.873-5.57-51.532.6-11.788,4.361-24.674,10.034-36.385,5.476-8.24-3.209-13.937-11.015-17.042-19.292-1.5-3.993-2.586-8.32-5.449-11.489a20.456,20.456,0,0,0-6.2-4.347c-20.77-10.291-47-4.78-67.173-16.192-13.623-7.7-22.346-22.247-26.207-37.41s-3.425-31.061-2.432-46.674c.7-11.1,1.947-22.943,9.042-31.509,7.507-9.059,20.387-12.43,32.03-10.707s22.2,7.861,31.482,15.088c11.6,9.036,22.365,20.285,36.611,23.959,9.7,2.493,19.908,1.141,29.915.656,16.728-.79,33.463.967,50.1,2.886,15.926,1.84,31.967,3.865,47.14,9.042,10.735,3.651,19.337,10.3,29.475,14.937,6.607,3.029,13.814,3.865,20.074,7.724,7.706,4.752,14.773,13.018,12.8,22.689C372.468,153.708,362.827,158.32,357.427,165.182Z" transform="translate(-74.995 -47.088)" fill="#7dc4a6" opacity="0.1"/>
  <path id="Path_2162" data-name="Path 2162" d="M166.194,457.372s.946-28.022,16.106-43.855A42.475,42.475,0,0,0,193.949,389.3a71.447,71.447,0,0,0,.355-13.062" transform="translate(79.094 -282.51)" fill="none" stroke="#535461" stroke-miterlimit="10" stroke-width="0.5"/>
  <path id="Path_2163" data-name="Path 2163" d="M144.087,321.718c-1.038,3.13-9.711,10.319-9.711,10.319s-2.657-10.952-1.619-14.08a5.969,5.969,0,0,1,11.331,3.758Z" transform="translate(138.808 -237.75)" fill="#7dc4a6"/>
  <path id="Path_2314" data-name="Path 2314" d="M144.087,321.718c-1.038,3.13-9.711,10.319-9.711,10.319s-2.657-10.952-1.619-14.08a5.969,5.969,0,0,1,11.331,3.758Z" transform="translate(138.808 -237.75)" opacity="0.25"/>
  <path id="Path_2164" data-name="Path 2164" d="M127.607,386.494c-2.58,2.064-13.759,3.388-13.759,3.388s3.726-10.637,6.306-12.7a5.968,5.968,0,0,1,7.453,9.31Z" transform="translate(158.893 -282.166)" fill="#7dc4a6"/>
  <path id="Path_2313" data-name="Path 2313" d="M127.607,386.494c-2.58,2.064-13.759,3.388-13.759,3.388s3.726-10.637,6.306-12.7a5.968,5.968,0,0,1,7.453,9.31Z" transform="translate(158.893 -282.166)" opacity="0.25"/>
  <path id="Path_2165" data-name="Path 2165" d="M152.458,485.876c-3.262.482-13.589-4.013-13.589-4.013s8.582-7.3,11.844-7.785a5.969,5.969,0,0,1,1.746,11.809Z" transform="translate(123.824 -352.189)" fill="#7dc4a6"/>
  <path id="Path_2311" data-name="Path 2311" d="M152.458,485.876c-3.262.482-13.589-4.013-13.589-4.013s8.582-7.3,11.844-7.785a5.969,5.969,0,0,1,1.746,11.809Z" transform="translate(123.824 -352.189)" opacity="0.25"/>
  <path id="Path_2166" data-name="Path 2166" d="M200.873,558.166C197.74,559.192,186.8,556.5,186.8,556.5s7.226-8.648,10.359-9.674a5.969,5.969,0,1,1,3.726,11.342Z" transform="translate(62.648 -404.008)" fill="#7dc4a6"/>
  <path id="Path_2312" data-name="Path 2312" d="M200.873,558.166C197.74,559.192,186.8,556.5,186.8,556.5s7.226-8.648,10.359-9.674a5.969,5.969,0,1,1,3.726,11.342Z" transform="translate(62.648 -404.008)" opacity="0.25"/>
  <path id="Path_2167" data-name="Path 2167" d="M171.787,391.009c1.522,2.924,11.228,8.651,11.228,8.651s.883-11.233-.639-14.16a5.968,5.968,0,1,0-10.588,5.509Z" transform="translate(88.868 -286.647)" fill="#7dc4a6"/>
  <path id="Path_2315" data-name="Path 2315" d="M171.787,391.009c1.522,2.924,11.228,8.651,11.228,8.651s.883-11.233-.639-14.16a5.968,5.968,0,1,0-10.588,5.509Z" transform="translate(88.868 -286.647)" opacity="0.25"/>
  <path id="Path_2168" data-name="Path 2168" d="M217.52,471.937c2.327,2.336,13.3,4.893,13.3,4.893s-2.52-10.984-4.844-13.32a5.968,5.968,0,0,0-8.456,8.424Z" transform="translate(28.513 -343.436)" fill="#7dc4a6"/>
  <path id="Path_2316" data-name="Path 2316" d="M217.52,471.937c2.327,2.336,13.3,4.893,13.3,4.893s-2.52-10.984-4.844-13.32a5.968,5.968,0,0,0-8.456,8.424Z" transform="translate(28.513 -343.436)" opacity="0.25"/>
  <path id="Path_2169" data-name="Path 2169" d="M258.827,562.464c1.9,2.694,12.282,7.071,12.282,7.071s-.625-11.25-2.525-13.948a5.968,5.968,0,1,0-9.746,6.879Z" transform="translate(-23.539 -408.578)" fill="#7dc4a6"/>
  <path id="Path_2178" data-name="Path 2178" d="M233.631,359.171s-.929-15.152,6.429-24.461a23,23,0,0,0,5.036-13.65,38.7,38.7,0,0,0-.482-7.06" transform="translate(9.121 -237.897)" fill="none" stroke="#535461" stroke-miterlimit="10" stroke-width="0.5"/>
  <path id="Path_2179" data-name="Path 2179" d="M225.312,283.586c-.4,1.74-4.7,6.062-4.7,6.062s-2.006-5.767-1.6-7.5a3.233,3.233,0,0,1,6.306,1.433Z" transform="translate(33.023 -213.269)" fill="#7dc4a6"/>
  <path id="Path_2180" data-name="Path 2180" d="M212.626,317.418c-1.281,1.244-7.243,2.534-7.243,2.534s1.459-5.925,2.74-7.166a3.231,3.231,0,0,1,4.5,4.635Z" transform="translate(48.708 -236.31)" fill="#7dc4a6"/>
  <path id="Path_2181" data-name="Path 2181" d="M221.7,372.639c-1.72.427-7.53-1.47-7.53-1.47s4.251-4.377,5.982-4.8a3.231,3.231,0,0,1,1.548,6.274Z" transform="translate(35.631 -275.18)" fill="#7dc4a6"/>
  <path id="Path_2182" data-name="Path 2182" d="M243.978,414.049c-1.637.714-7.67-.178-7.67-.178s3.44-5.033,5.085-5.733a3.23,3.23,0,1,1,2.58,5.923Z" transform="translate(7.536 -304.907)" fill="#7dc4a6"/>
  <path id="Path_2183" data-name="Path 2183" d="M235.27,323.535c.969,1.5,6.5,4.085,6.5,4.085s-.1-6.1-1.072-7.6a3.231,3.231,0,1,0-5.423,3.514Z" transform="translate(12.131 -241.08)" fill="#7dc4a6"/>
  <path id="Path_2184" data-name="Path 2184" d="M255.839,369.905c1.373,1.147,7.421,1.955,7.421,1.955s-1.92-5.79-3.3-6.931a3.232,3.232,0,1,0-4.125,4.976Z" transform="translate(-15.019 -273.693)" fill="#7dc4a6"/>
  <path id="Path_2185" data-name="Path 2185" d="M273.051,420.8c1.161,1.356,6.982,3.182,6.982,3.182s-.914-6.019-2.078-7.387a3.232,3.232,0,0,0-4.907,4.208Z" transform="translate(-36.646 -310.339)" fill="#7dc4a6"/>
  <path id="Path_2186" data-name="Path 2186" d="M225.312,283.586c-.4,1.74-4.7,6.062-4.7,6.062s-2.006-5.767-1.6-7.5a3.233,3.233,0,0,1,6.306,1.433Z" transform="translate(33.023 -213.269)" fill="#fff" opacity="0"/>
  <path id="Path_2187" data-name="Path 2187" d="M212.626,317.418c-1.281,1.244-7.243,2.534-7.243,2.534s1.459-5.925,2.74-7.166a3.231,3.231,0,0,1,4.5,4.635Z" transform="translate(48.708 -236.31)" fill="#fff" opacity="0"/>
  <path id="Path_2188" data-name="Path 2188" d="M221.7,372.639c-1.72.427-7.53-1.47-7.53-1.47s4.251-4.377,5.982-4.8a3.231,3.231,0,0,1,1.548,6.274Z" transform="translate(35.631 -275.18)" fill="#fff" opacity="0"/>
  <path id="Path_2189" data-name="Path 2189" d="M243.978,414.049c-1.637.714-7.67-.178-7.67-.178s3.44-5.033,5.085-5.733a3.23,3.23,0,1,1,2.58,5.923Z" transform="translate(7.536 -304.907)" fill="#fff" opacity="0"/>
  <path id="Path_2190" data-name="Path 2190" d="M235.27,323.535c.969,1.5,6.5,4.085,6.5,4.085s-.1-6.1-1.072-7.6a3.231,3.231,0,1,0-5.423,3.514Z" transform="translate(12.131 -241.08)" fill="#fff" opacity="0"/>
  <path id="Path_2191" data-name="Path 2191" d="M255.839,369.905c1.373,1.147,7.421,1.955,7.421,1.955s-1.92-5.79-3.3-6.931a3.232,3.232,0,1,0-4.125,4.976Z" transform="translate(-15.019 -273.693)" fill="#fff" opacity="0"/>
  <path id="Path_2192" data-name="Path 2192" d="M273.051,420.8c1.161,1.356,6.982,3.182,6.982,3.182s-.914-6.019-2.078-7.387a3.232,3.232,0,0,0-4.907,4.208Z" transform="translate(-36.646 -310.339)" fill="#fff" opacity="0.5"/>
  <path id="Path_2193" data-name="Path 2193" d="M649.228,20.39v98.591H504.5V20.39Z" transform="translate(-492.873 -14.548)" fill="url(#linear-gradient)"/>
  <rect id="Rectangle_1773" data-name="Rectangle 1773" width="141.048" height="92.334" transform="translate(13.16 10.314)" fill="#fff"/>
  <rect id="Rectangle_1774" data-name="Rectangle 1774" width="141.048" height="6.793" transform="translate(13.161 5.922)" fill="#eee"/>
  <ellipse id="Ellipse_151" data-name="Ellipse 151" cx="1.648" cy="1.648" rx="1.648" ry="1.648" transform="translate(17.356 7.568)" fill="#fff"/>
  <ellipse id="Ellipse_152" data-name="Ellipse 152" cx="1.648" cy="1.648" rx="1.648" ry="1.648" transform="translate(21.873 7.568)" fill="#fff"/>
  <ellipse id="Ellipse_153" data-name="Ellipse 153" cx="1.648" cy="1.648" rx="1.648" ry="1.648" transform="translate(26.387 7.568)" fill="#fff"/>
  <path id="Path_2254" data-name="Path 2254" d="M921.433,289.38H921.2l-.2.02h.072Z" transform="translate(-862.964 -220.225)" fill="#f0e4e4"/>
  <path id="Path_2255" data-name="Path 2255" d="M921.433,289.54H921.2l-.2.02h.072Z" transform="translate(-862.964 -220.34)" fill="#f0e4e4"/>
  <path id="Path_2256" data-name="Path 2256" d="M921.433,289.71H921.2l-.2.02h.072Z" transform="translate(-862.964 -220.461)" fill="#f0e4e4"/>
  <path id="Path_2257" data-name="Path 2257" d="M921.433,289.88H921.2l-.2.02h.072Z" transform="translate(-862.964 -220.583)" fill="#f0e4e4"/>
  <path id="Path_2258" data-name="Path 2258" d="M387.84,709.794h22.8V696.95h-22.8Zm21.836-.963H388.809V697.913h20.867Z" transform="translate(-200.213 -511.657)" fill="#7dc4a6" opacity="0.2"/>
  <path id="Path_2259" data-name="Path 2259" d="M289.888,349.821a5.371,5.371,0,0,1-4.506.654,7.019,7.019,0,0,1-1.172-.515c-14.618.307-28.156.165-28.681-1.4-.86-2.589,4.586-15.34,7.335-21.5a6.93,6.93,0,0,1-2.006-2.08c-3.818,4.333-10.921,9.923-15.143,10.2,0,0-6.163,14.529-13.1,12.233s-7.7-14.529-4.236-16.057l23.111-14.529V292.723a8.972,8.972,0,0,1-.966-4.466c0-.285-.014-.569,0-.854l.771-6.882s.04-.228.146-.64c1.72-6.632,5.552-11.1,10.955-11.758a3.9,3.9,0,0,1-.47-1.545c-.112-1.286.427-2.6.123-3.852-.355-1.462-1.72-2.407-2.841-3.414-2.393-2.174-3.9-5.121-5.357-8-1.387-2.74-2.795-5.55-3.153-8.594s.573-6.424,3.081-8.216c1.949-1.4,4.692-1.764,6.094-3.7a15.471,15.471,0,0,0,1.321-2.922,11.591,11.591,0,0,1,6.853-5.863c10.239-3.659,22.8.541,29.331,8.979a50.741,50.741,0,0,1,5.194,9.033l5.5,11.291c.949,1.943,1.866,4.37.6,6.125-.619.853-1.68,1.383-2.11,2.347-.573,1.28.143,2.956-.7,4.082a5.33,5.33,0,0,1-1.961,1.235,7.658,7.658,0,0,0-2.37,2.085l12.085,9.294a8.062,8.062,0,0,1,3.113,5.579l1.2,11.823a14.283,14.283,0,0,1,.539,4.128,6.989,6.989,0,0,1-.731,3.7l-.264-.063c-.287,8.293-.785,20.224-1.278,22.429-.287,1.309-2.1,3.616-4.532,5.994l.86,2.418h-.287l.287.76h-.573c2.431,8.717,9.043,15.286,9.043,15.286S305.7,349.371,289.888,349.821Zm14.372-40.278v-9.294c-1.41.216-2.451.7-2.783,1.582Zm-4.082-40.449-.046.068h.017Z" transform="translate(-64.699 -170.933)" fill="url(#linear-gradient-2)"/>
  <path id="Path_2260" data-name="Path 2260" d="M456.975,458.658s-.731,25.975-1.465,29.268-11.345,13.182-16.828,13.549c0,0-5.853,13.9-12.44,11.706s-7.318-13.9-4.013-15.366l21.936-13.9v-27.8Z" transform="translate(-255.79 -339.531)" fill="#fdb797"/>
  <path id="Path_2261" data-name="Path 2261" d="M243.094,576.09s-9.513,20.489-8.416,23.791,62.2,0,62.2,0-11.342-11.342-9.147-23.791Z" transform="translate(-42.692 -425.182)" fill="#565171"/>
  <path id="Path_2262" data-name="Path 2262" d="M296.106,358.753s1.465,14.269-1.1,17.562,10.244,5.119,11.331,5.119,12.8-4.013,15-5.122,4.013-9.147,4.013-9.147-10.975,2.2-14.269-10.605Z" transform="translate(-88.333 -268.276)" fill="#fdb797"/>
  <path id="Path_2263" data-name="Path 2263" d="M289.961,233.357a11.025,11.025,0,0,0-6.509,5.609,14.99,14.99,0,0,1-1.255,2.8c-1.33,1.857-3.936,2.207-5.787,3.546-2.376,1.72-3.256,4.95-2.927,7.862s1.668,5.6,2.984,8.224c1.384,2.755,2.815,5.572,5.088,7.653,1.061.972,2.362,1.875,2.7,3.273.287,1.2-.224,2.454-.115,3.686.264,3.041,3.9,4.457,6.934,4.8,1.319.146,2.829.155,3.758-.794a6.536,6.536,0,0,0,1.018-1.76,8.436,8.436,0,0,1,15.046-.155c.711,1.37,1.126,3.03,2.422,3.867,1.984,1.281,4.635-.224,6.094-2.075s2.522-4.179,4.606-5.288a4.812,4.812,0,0,0,1.86-1.181c.8-1.078.12-2.68.662-3.907.41-.923,1.416-1.433,2.006-2.247,1.2-1.68.333-4.013-.573-5.862l-5.228-10.806a47.662,47.662,0,0,0-4.933-8.645C311.616,233.873,299.686,229.854,289.961,233.357Z" transform="translate(-86.025 -179.346)" fill="#3d4642"/>
  <path id="Path_2264" data-name="Path 2264" d="M272.959,401.631s14.269,0,17.926-13.171l12.01,9.307a7.739,7.739,0,0,1,2.955,5.34L307,414.438s1.281,4.208-.183,6.767c0,0-15.192-3.841-15.55.547l10.6,29.635s-16.464.367-20.853-2.56c0,0-17.926,3.657-22.317-.367s-8.78-3.658-5.122-12.8c0,0-7.318-7.318-4.013-17.562s.183.183.183.183-7.134-3.477-6.767-10.061l.731-6.593s.04-.218.14-.611c2.23-8.679,8.224-13.472,16.648-10.416a7.725,7.725,0,0,0,4.979-.129S262.717,402.373,272.959,401.631Z" transform="translate(-55.713 -291.181)" opacity="0.1"/>
  <path id="Path_2265" data-name="Path 2265" d="M272.953,399.081s14.269,0,17.926-13.171l12.01,9.307a7.739,7.739,0,0,1,2.955,5.337l1.147,11.331s1.281,4.208-.183,6.767c0,0-15.192-3.841-15.55.547l10.606,29.635s-16.464.367-20.853-2.56c0,0-17.926,3.657-22.317-.367s-8.78-3.658-5.122-12.8c0,0-7.318-7.318-4.013-17.562s.183.183.183.183-7.134-3.477-6.767-10.061l.731-6.593s.04-.218.14-.611c2.23-8.679,8.224-13.472,16.648-10.416a7.725,7.725,0,0,0,4.979-.129S262.712,399.812,272.953,399.081Z" transform="translate(-55.707 -289.358)" fill="#0b181b"/>
  <path id="Path_2266" data-name="Path 2266" d="M282.115,468.88s-.731,25.975-1.465,29.268-11.342,13.171-16.828,13.538c0,0-5.853,13.9-12.44,11.706s-7.318-13.9-4.013-15.367l21.951-13.9v-27.8Z" transform="translate(-31.051 -346.831)" fill="#fdb797"/>
  <path id="Path_2267" data-name="Path 2267" d="M245.043,465.277s8.407,5.71,15.731,5.234c0,0,.731-9.806-1.465-10.353S247.6,460.158,245.043,465.277Z" transform="translate(-9.726 -342.162)" opacity="0.1"/>
  <path id="Path_2268" data-name="Path 2268" d="M245.043,464s8.407,5.71,15.731,5.231c0,0,.731-9.806-1.465-10.353S247.6,458.878,245.043,464Z" transform="translate(-9.726 -341.248)" fill="#0b181b"/>
  <path id="Path_2269" data-name="Path 2269" d="M346.15,359.1l-15,2.2s.338,3.3.4,7.094a16.837,16.837,0,0,0,17.654-2.866A16.589,16.589,0,0,1,346.15,359.1Z" transform="translate(-122.613 -270.064)" opacity="0.1"/>
  <circle id="Ellipse_158" data-name="Ellipse 158" cx="16.828" cy="16.828" r="16.828" transform="translate(197.925 65.328)" fill="#fdb797"/>
  <path id="Path_2270" data-name="Path 2270" d="M320.329,275.653a5.224,5.224,0,0,1-2.25.321q-4.466-.029-8.923-.33c-2.253-.152-4.655-.416-6.392-1.857-2.339-1.94-2.709-5.578-1.5-8.367s3.669-4.844,6.269-6.415a18.715,18.715,0,0,1,4.735-2.147c4.824-1.31,10.158.287,13.991,3.511a24.757,24.757,0,0,1,7.567,12.678c.447,1.671,1.02,3.66,2.674,4.168-1.1,1.832-3.786,2.121-5.718,1.2-2.843-1.353-4.3-6.53-6.853-7.344C321.086,270.179,322.743,274.547,320.329,275.653Z" transform="translate(-101.163 -196.686)" opacity="0.1"/>
  <path id="Path_2271" data-name="Path 2271" d="M320.359,274.409a5.224,5.224,0,0,1-2.25.321q-4.466-.029-8.923-.33c-2.253-.152-4.655-.416-6.392-1.857-2.339-1.941-2.709-5.578-1.5-8.367s3.669-4.844,6.269-6.415a18.715,18.715,0,0,1,4.727-2.133c4.824-1.31,10.158.287,13.991,3.511a24.757,24.757,0,0,1,7.567,12.678c.447,1.671,1.02,3.66,2.674,4.168-1.1,1.832-3.786,2.121-5.718,1.2-2.843-1.353-4.3-6.53-6.853-7.344C321.116,268.937,322.773,273.3,320.359,274.409Z" transform="translate(-101.193 -195.807)" fill="#3d4642"/>
  <path id="Path_2272" data-name="Path 2272" d="M373.09,544.456a64.808,64.808,0,0,1,16.828-2.2" transform="translate(-175.292 -400.934)" opacity="0.1"/>
  <path id="Path_2273" data-name="Path 2273" d="M304.595,481s-5.489,4.013-4.013,6.22" transform="translate(-69.219 -357.168)" opacity="0.1"/>
  <g id="Group_1497" data-name="Group 1497" transform="translate(83.396 164.876)" opacity="0.7">
    <path id="Path_2274" data-name="Path 2274" d="M127.88,578.64H307.514v15.7H297.058v49.419H137.964V594.345H127.88Z" transform="translate(-127.88 -578.64)" fill="url(#linear-gradient)"/>
  </g>
  <rect id="Rectangle_1784" data-name="Rectangle 1784" width="155.852" height="55.977" transform="translate(95.534 174.023)" fill="#e0e0e0"/>
  <rect id="Rectangle_1785" data-name="Rectangle 1785" width="155.852" height="8.78" transform="translate(95.534 177.145)" opacity="0.1"/>
  <rect id="Rectangle_1786" data-name="Rectangle 1786" width="175.977" height="15" transform="translate(85.225 168.017)" fill="#e0e0e0"/>
  <rect id="Rectangle_1787" data-name="Rectangle 1787" width="33.66" height="4.755" rx="2.378" transform="translate(194.635 164.376)" fill="#7dc4a6"/>
  <g id="Group_1498" data-name="Group 1498" transform="translate(124.354 111.429)" opacity="0.7">
    <rect id="Rectangle_1788" data-name="Rectangle 1788" width="83.655" height="57.843" rx="5" transform="translate(0 0)" fill="url(#linear-gradient)"/>
  </g>
  <rect id="Rectangle_1789" data-name="Rectangle 1789" width="79.246" height="56.774" rx="5" transform="translate(127.267 112.496)" fill="#4bcc96"/>
  <rect id="Rectangle_1790" data-name="Rectangle 1790" width="79.246" height="56.774" rx="5" transform="translate(126.175 112.496)" fill="#7dc4a6"/>
  <circle id="Ellipse_159" data-name="Ellipse 159" cx="2.56" cy="2.56" r="2.56" transform="translate(159.576 137.968)" fill="#fff"/>
  <g id="Group_1502" data-name="Group 1502" transform="translate(65.944 35.07)">
    <rect id="Rectangle_1708" data-name="Rectangle 1708" width="30.234" height="39.696" transform="translate(0 5.145)" fill="#7dc4a6" opacity="0.1"/>
    <ellipse id="Ellipse_112" data-name="Ellipse 112" cx="3.651" cy="3.658" rx="3.651" ry="3.658" transform="translate(26.615 0.623)" fill="#fff"/>
    <path id="Path_1921" data-name="Path 1921" d="M1007.258,409.74a4.364,4.364,0,1,0,4.364,4.364A4.364,4.364,0,0,0,1007.258,409.74Zm-.9,6.69-2.236-2.236.627-.627,1.611,1.611,3.4-3.4.627.627Z" transform="translate(-976.991 -409.74)" fill="#57b894"/>
    <g id="grooming_1_" data-name="grooming (1)" transform="translate(7.019 14.286)">
      <path id="Path_2128" data-name="Path 2128" d="M33.8,5.549V4.415a25.635,25.635,0,0,0,3.423-.366c1.392-.261,2.815-.682,2.815-1.821S38.614.668,37.222.407A29.7,29.7,0,0,0,32.016,0a29.7,29.7,0,0,0-5.205.407C25.419.668,24,1.088,24,2.228s1.423,1.56,2.815,1.821a25.635,25.635,0,0,0,3.423.366V5.549a8.02,8.02,0,1,0,3.565,0ZM32.016,19.606a6.238,6.238,0,1,1,6.238-6.238,6.238,6.238,0,0,1-6.238,6.238Z" transform="translate(-23.995 0)" fill="#7dc4a6"/>
      <path id="Path_2129" data-name="Path 2129" d="M48.18,77.061h4.881V72.18A5.354,5.354,0,0,0,48.18,77.061Z" transform="translate(-45.486 -64.139)" fill="#7dc4a6"/>
      <path id="Path_2130" data-name="Path 2130" d="M100,128.881A5.354,5.354,0,0,0,104.881,124H100Z" transform="translate(-91.534 -110.187)" fill="#7dc4a6"/>
      <path id="Path_2131" data-name="Path 2131" d="M100,72.18v4.881h4.881A5.354,5.354,0,0,0,100,72.18Z" transform="translate(-91.534 -64.139)" fill="#7dc4a6"/>
      <path id="Path_2132" data-name="Path 2132" d="M53.061,128.881V124H48.18A5.354,5.354,0,0,0,53.061,128.881Z" transform="translate(-45.486 -110.187)" fill="#7dc4a6"/>
    </g>
  </g>
  <g id="Group_1503" data-name="Group 1503" transform="translate(22.983 35.071)">
    <rect id="Rectangle_1715" data-name="Rectangle 1715" width="30.699" height="40.305" transform="translate(0 4.389)" fill="#7dc4a6" opacity="0.1"/>
    <ellipse id="Ellipse_111" data-name="Ellipse 111" cx="3.707" cy="3.714" rx="3.707" ry="3.714" transform="translate(26.398 0.633)" fill="#fff"/>
    <path id="Path_1920" data-name="Path 1920" d="M961.32,88.74a4.43,4.43,0,1,0,4.431,4.43A4.43,4.43,0,0,0,961.32,88.74Zm-.91,6.793-2.271-2.271.637-.637,1.636,1.636,3.453-3.453.637.637-4.092,4.088Z" transform="translate(-931.216 -88.74)" fill="#57b894"/>
    <g id="grooming" transform="translate(8.064 13.718)">
      <path id="Path_2125" data-name="Path 2125" d="M43.6,0H41.8V.9H40V2.7h1.8v.9H40V5.4h1.8v.9H40v1.8h1.8v4.5h-.9a.9.9,0,0,0-.894,1.012l.9,7.206a.9.9,0,0,0,.894.789h1.8a.9.9,0,0,0,.894-.789l.9-7.206a.9.9,0,0,0-.894-1.012h-.9v-4.5h1.8v-1.8H43.6V5.4h1.8V3.6H43.6V2.7h1.8V.9H43.6Z" transform="translate(-40)" fill="#7dc4a6"/>
      <path id="Path_2126" data-name="Path 2126" d="M111.2,91.641,110.308,80H104.9L104,91.641a.9.9,0,0,0,.9.97h5.4a.9.9,0,0,0,.9-.97Z" transform="translate(-96.793 -70.992)" fill="#7dc4a6"/>
      <path id="Path_2127" data-name="Path 2127" d="M117.4,48.9a.9.9,0,0,0-.9-.9h-3.6a.9.9,0,0,0-.9.9v1.8h5.4Z" transform="translate(-103.893 -42.595)" fill="#7dc4a6"/>
    </g>
  </g>
  <g id="Group_1504" data-name="Group 1504" transform="translate(109.217 35.356)">
    <rect id="Rectangle_1703" data-name="Rectangle 1703" width="30.061" height="39.468" transform="translate(0 4.586)" fill="#7dc4a6" opacity="0.1"/>
    <ellipse id="Ellipse_113" data-name="Ellipse 113" cx="3.63" cy="3.637" rx="3.63" ry="3.637" transform="translate(26.464 0.62)" fill="#fff"/>
    <path id="Path_1922" data-name="Path 1922" d="M695.228,242.74a4.339,4.339,0,1,0,4.339,4.339A4.339,4.339,0,0,0,695.228,242.74Zm-.891,6.652-2.223-2.223.624-.624,1.6,1.6,3.381-3.381.624.624-4.007,4Z" transform="translate(-665.134 -242.74)" fill="#57b894"/>
    <g id="beauty-salon" transform="translate(4.946 13.091)">
      <path id="Path_2120" data-name="Path 2120" d="M31.706,252.231h8.048a.67.67,0,0,0,.671-.671v-9.478a.67.67,0,0,0-.671-.671h-.671V240.07H32.376v1.341h-.671a.67.67,0,0,0-.671.671v9.478A.67.67,0,0,0,31.706,252.231Z" transform="translate(-31.035 -229.337)" fill="#7dc4a6"/>
      <path id="Path_2121" data-name="Path 2121" d="M63.037,4.609c1.177,1.022,3.353,2.278,4.357,1.122.907-1.044-.255-2.888-1.717-4.159C64.234.318,62.259-.572,61.333.437A1.329,1.329,0,0,0,61,1.445,5.334,5.334,0,0,0,63.037,4.609Z" transform="translate(-59.66 0)" fill="#7dc4a6"/>
      <path id="Path_2122" data-name="Path 2122" d="M280.424,212.082a2.014,2.014,0,0,0-2.012-2.012h-5.365a2.014,2.014,0,0,0-2.012,2.012v7.466h9.389Z" transform="translate(-260.305 -200.678)" fill="#7dc4a6"/>
      <path id="Path_2123" data-name="Path 2123" d="M271.706,454.753h8.048a.67.67,0,0,0,.671-.671V452.07h-9.389v2.012A.67.67,0,0,0,271.706,454.753Z" transform="translate(-260.305 -431.858)" fill="#7dc4a6"/>
      <path id="Path_2124" data-name="Path 2124" d="M67.741,101.923a2.8,2.8,0,0,1-1.4.368,7.342,7.342,0,0,1-4.148-1.912,9.916,9.916,0,0,1-1.156-1.186v4.957h6.706Z" transform="translate(-59.694 -94.758)" fill="#7dc4a6"/>
    </g>
  </g>
</svg>
