<svg id="Component_175_1" data-name="Component 175 – 1" xmlns="http://www.w3.org/2000/svg" xmlns:xlink="http://www.w3.org/1999/xlink" width="300" height="230" viewBox="0 0 300 230">
  <defs>
    <linearGradient id="linear-gradient" x1="0.5" y1="1" x2="0.5" gradientUnits="objectBoundingBox">
      <stop offset="0" stop-color="gray" stop-opacity="0.251"/>
      <stop offset="0.54" stop-color="gray" stop-opacity="0.122"/>
      <stop offset="1" stop-color="gray" stop-opacity="0.102"/>
    </linearGradient>
    <linearGradient id="linear-gradient-2" x1="0.073" y1="1" x2="0.073" y2="0" xlink:href="#linear-gradient"/>
  </defs>
  <path id="Path_2317" data-name="Path 2317" d="M36.569,76.072A57.2,57.2,0,0,0,21.131,100.7c-7.776,24.289-6.8,53.957,10.78,74.844,10.923,12.977,27.063,21.907,44.832,25.54,18.48,3.778,23.11,18.23,35.021,29.6,10.047,9.589,23.973,17.193,37.7,21.841,36.9,12.492,92.27,5.293,113.651-27.482,5.6-8.588,7.463-19.146,14.036-27.24,7.031-8.659,18.558-12.956,25.66-21.448a59.458,59.458,0,0,0,12.895-29.518c2.024-13.668-.112-27.589-3.872-40.968-8.9-31.667-32.459-46.965-65.68-49.545-34.087-2.648-78.2,8-106.739,6.889-16.7-.651-34.173-8.056-50.841-6.889C69.281,57.676,50.1,63.371,36.569,76.072Z" transform="translate(-16.488 -55.901)" fill="#7dc4a6" opacity="0.1"/>
  <path id="Path_2324" data-name="Path 2324" d="M166.194,457.372s.946-28.022,16.106-43.855A42.475,42.475,0,0,0,193.949,389.3a71.447,71.447,0,0,0,.355-13.062" transform="translate(79.107 -282.358)" fill="none" stroke="#535461" stroke-miterlimit="10" stroke-width="0.5"/>
  <path id="Path_2325" data-name="Path 2325" d="M144.087,321.718c-1.038,3.13-9.711,10.319-9.711,10.319s-2.657-10.952-1.619-14.08a5.969,5.969,0,0,1,11.331,3.758Z" transform="translate(138.82 -237.487)" fill="#7dc4a6"/>
  <path id="Path_2326" data-name="Path 2326" d="M144.087,321.718c-1.038,3.13-9.711,10.319-9.711,10.319s-2.657-10.952-1.619-14.08a5.969,5.969,0,0,1,11.331,3.758Z" transform="translate(138.82 -237.487)" opacity="0.25"/>
  <path id="Path_2327" data-name="Path 2327" d="M127.607,386.494c-2.58,2.064-13.759,3.388-13.759,3.388s3.726-10.637,6.306-12.7a5.968,5.968,0,0,1,7.453,9.31Z" transform="translate(158.906 -281.933)" fill="#7dc4a6"/>
  <path id="Path_2328" data-name="Path 2328" d="M127.607,386.494c-2.58,2.064-13.759,3.388-13.759,3.388s3.726-10.637,6.306-12.7a5.968,5.968,0,0,1,7.453,9.31Z" transform="translate(158.906 -281.933)" opacity="0.25"/>
  <path id="Path_2329" data-name="Path 2329" d="M152.458,485.876c-3.262.482-13.589-4.013-13.589-4.013s8.582-7.3,11.844-7.785a5.969,5.969,0,0,1,1.746,11.809Z" transform="translate(123.836 -352.008)" fill="#7dc4a6"/>
  <path id="Path_2330" data-name="Path 2330" d="M152.458,485.876c-3.262.482-13.589-4.013-13.589-4.013s8.582-7.3,11.844-7.785a5.969,5.969,0,0,1,1.746,11.809Z" transform="translate(123.836 -352.008)" opacity="0.25"/>
  <path id="Path_2331" data-name="Path 2331" d="M200.873,558.166C197.74,559.192,186.8,556.5,186.8,556.5s7.226-8.648,10.359-9.674a5.969,5.969,0,1,1,3.726,11.342Z" transform="translate(62.661 -403.866)" fill="#7dc4a6"/>
  <path id="Path_2332" data-name="Path 2332" d="M200.873,558.166C197.74,559.192,186.8,556.5,186.8,556.5s7.226-8.648,10.359-9.674a5.969,5.969,0,1,1,3.726,11.342Z" transform="translate(62.661 -403.866)" opacity="0.25"/>
  <path id="Path_2333" data-name="Path 2333" d="M171.787,391.009c1.522,2.924,11.228,8.651,11.228,8.651s.883-11.233-.639-14.16a5.968,5.968,0,1,0-10.588,5.509Z" transform="translate(88.88 -286.421)" fill="#7dc4a6"/>
  <path id="Path_2334" data-name="Path 2334" d="M171.787,391.009c1.522,2.924,11.228,8.651,11.228,8.651s.883-11.233-.639-14.16a5.968,5.968,0,1,0-10.588,5.509Z" transform="translate(88.88 -286.421)" opacity="0.25"/>
  <path id="Path_2335" data-name="Path 2335" d="M217.52,471.937c2.327,2.336,13.3,4.893,13.3,4.893s-2.52-10.984-4.844-13.32a5.968,5.968,0,0,0-8.456,8.424Z" transform="translate(28.526 -343.251)" fill="#7dc4a6"/>
  <path id="Path_2336" data-name="Path 2336" d="M217.52,471.937c2.327,2.336,13.3,4.893,13.3,4.893s-2.52-10.984-4.844-13.32a5.968,5.968,0,0,0-8.456,8.424Z" transform="translate(28.526 -343.251)" opacity="0.25"/>
  <path id="Path_2337" data-name="Path 2337" d="M258.827,562.464c1.9,2.694,12.282,7.071,12.282,7.071s-.625-11.25-2.525-13.948a5.968,5.968,0,1,0-9.746,6.879Z" transform="translate(-23.441 -408.445)" fill="#7dc4a6"/>
  <path id="Path_2338" data-name="Path 2338" d="M233.631,359.171s-.929-15.152,6.429-24.461a23,23,0,0,0,5.036-13.65,38.7,38.7,0,0,0-.482-7.06" transform="translate(9.133 -237.656)" fill="none" stroke="#535461" stroke-miterlimit="10" stroke-width="0.5"/>
  <path id="Path_2339" data-name="Path 2339" d="M225.312,283.586c-.4,1.74-4.7,6.062-4.7,6.062s-2.006-5.767-1.6-7.5a3.233,3.233,0,0,1,6.306,1.433Z" transform="translate(33.036 -212.982)" fill="#7dc4a6"/>
  <path id="Path_2340" data-name="Path 2340" d="M212.626,317.418c-1.281,1.244-7.243,2.534-7.243,2.534s1.459-5.925,2.74-7.166a3.231,3.231,0,0,1,4.5,4.635Z" transform="translate(48.721 -236.039)" fill="#7dc4a6"/>
  <path id="Path_2341" data-name="Path 2341" d="M221.7,372.639c-1.72.427-7.53-1.47-7.53-1.47s4.251-4.377,5.982-4.8a3.231,3.231,0,0,1,1.548,6.274Z" transform="translate(35.643 -274.937)" fill="#7dc4a6"/>
  <path id="Path_2342" data-name="Path 2342" d="M243.978,414.049c-1.637.714-7.67-.178-7.67-.178s3.44-5.033,5.085-5.733a3.23,3.23,0,1,1,2.58,5.923Z" transform="translate(7.549 -304.686)" fill="#7dc4a6"/>
  <path id="Path_2343" data-name="Path 2343" d="M235.27,323.535c.969,1.5,6.5,4.085,6.5,4.085s-.1-6.1-1.072-7.6a3.231,3.231,0,1,0-5.423,3.514Z" transform="translate(12.143 -240.814)" fill="#7dc4a6"/>
  <path id="Path_2344" data-name="Path 2344" d="M255.839,369.905c1.373,1.147,7.421,1.955,7.421,1.955s-1.92-5.79-3.3-6.931a3.232,3.232,0,1,0-4.125,4.976Z" transform="translate(-14.924 -273.449)" fill="#7dc4a6"/>
  <path id="Path_2345" data-name="Path 2345" d="M273.051,420.8c1.161,1.356,6.982,3.182,6.982,3.182s-.914-6.019-2.078-7.387a3.232,3.232,0,0,0-4.907,4.208Z" transform="translate(-36.543 -310.124)" fill="#7dc4a6"/>
  <path id="Path_2346" data-name="Path 2346" d="M225.312,283.586c-.4,1.74-4.7,6.062-4.7,6.062s-2.006-5.767-1.6-7.5a3.233,3.233,0,0,1,6.306,1.433Z" transform="translate(33.036 -212.982)" fill="#fff" opacity="0"/>
  <path id="Path_2347" data-name="Path 2347" d="M212.626,317.418c-1.281,1.244-7.243,2.534-7.243,2.534s1.459-5.925,2.74-7.166a3.231,3.231,0,0,1,4.5,4.635Z" transform="translate(48.721 -236.039)" fill="#fff" opacity="0"/>
  <path id="Path_2348" data-name="Path 2348" d="M221.7,372.639c-1.72.427-7.53-1.47-7.53-1.47s4.251-4.377,5.982-4.8a3.231,3.231,0,0,1,1.548,6.274Z" transform="translate(35.643 -274.937)" fill="#fff" opacity="0"/>
  <path id="Path_2349" data-name="Path 2349" d="M243.978,414.049c-1.637.714-7.67-.178-7.67-.178s3.44-5.033,5.085-5.733a3.23,3.23,0,1,1,2.58,5.923Z" transform="translate(7.549 -304.686)" fill="#fff" opacity="0"/>
  <path id="Path_2350" data-name="Path 2350" d="M235.27,323.535c.969,1.5,6.5,4.085,6.5,4.085s-.1-6.1-1.072-7.6a3.231,3.231,0,1,0-5.423,3.514Z" transform="translate(12.143 -240.814)" fill="#fff" opacity="0"/>
  <path id="Path_2351" data-name="Path 2351" d="M255.839,369.905c1.373,1.147,7.421,1.955,7.421,1.955s-1.92-5.79-3.3-6.931a3.232,3.232,0,1,0-4.125,4.976Z" transform="translate(-14.924 -273.449)" fill="#fff" opacity="0"/>
  <path id="Path_2352" data-name="Path 2352" d="M273.051,420.8c1.161,1.356,6.982,3.182,6.982,3.182s-.914-6.019-2.078-7.387a3.232,3.232,0,0,0-4.907,4.208Z" transform="translate(-36.543 -310.124)" fill="#fff" opacity="0.5"/>
  <path id="Path_2319" data-name="Path 2319" d="M649.228,20.39v98.591H504.5V20.39Z" transform="translate(-492.391 -14.136)" fill="url(#linear-gradient)"/>
  <rect id="Rectangle_1799" data-name="Rectangle 1799" width="141.048" height="92.334" transform="translate(13.641 10.725)" fill="#fff"/>
  <rect id="Rectangle_1798" data-name="Rectangle 1798" width="141.048" height="6.793" transform="translate(13.643 6.334)" fill="#eee"/>
  <ellipse id="Ellipse_171" data-name="Ellipse 171" cx="1.648" cy="1.648" rx="1.648" ry="1.648" transform="translate(17.838 7.979)" fill="#fff"/>
  <ellipse id="Ellipse_172" data-name="Ellipse 172" cx="1.648" cy="1.648" rx="1.648" ry="1.648" transform="translate(22.355 7.979)" fill="#fff"/>
  <ellipse id="Ellipse_173" data-name="Ellipse 173" cx="1.648" cy="1.648" rx="1.648" ry="1.648" transform="translate(26.869 7.979)" fill="#fff"/>
  <path id="Path_2320" data-name="Path 2320" d="M921.433,289.38H921.2l-.2.02h.072Z" transform="translate(-862.482 -219.938)" fill="#f0e4e4"/>
  <path id="Path_2321" data-name="Path 2321" d="M921.433,289.54H921.2l-.2.02h.072Z" transform="translate(-862.482 -220.052)" fill="#f0e4e4"/>
  <path id="Path_2322" data-name="Path 2322" d="M921.433,289.71H921.2l-.2.02h.072Z" transform="translate(-862.482 -220.174)" fill="#f0e4e4"/>
  <path id="Path_2323" data-name="Path 2323" d="M921.433,289.88H921.2l-.2.02h.072Z" transform="translate(-862.482 -220.296)" fill="#f0e4e4"/>
  <path id="Path_2353" data-name="Path 2353" d="M387.84,709.794h22.8V696.95h-22.8Zm21.836-.963H388.809V697.913h20.867Z" transform="translate(-200.049 -511.657)" fill="#7dc4a6" opacity="0.2"/>
  <path id="Path_2354" data-name="Path 2354" d="M289.888,349.412a5.385,5.385,0,0,1-4.506.652,7.03,7.03,0,0,1-1.172-.513c-14.618.306-28.156.164-28.681-1.392-.86-2.581,4.586-15.291,7.335-21.434a6.917,6.917,0,0,1-2.006-2.073c-3.818,4.319-10.921,9.892-15.143,10.17,0,0-6.163,14.483-13.1,12.194s-7.7-14.483-4.236-16.006l23.111-14.483V292.5a8.92,8.92,0,0,1-.966-4.452c0-.284-.014-.567,0-.851l.771-6.86s.04-.227.146-.638c1.72-6.611,5.552-11.06,10.955-11.721a3.875,3.875,0,0,1-.47-1.54c-.112-1.282.427-2.589.123-3.84-.355-1.458-1.72-2.4-2.841-3.4-2.393-2.167-3.9-5.1-5.357-7.972-1.387-2.731-2.795-5.533-3.153-8.567s.573-6.4,3.081-8.19c1.949-1.392,4.692-1.758,6.094-3.687a15.4,15.4,0,0,0,1.321-2.912,11.58,11.58,0,0,1,6.853-5.845c10.239-3.647,22.8.539,29.331,8.95a50.54,50.54,0,0,1,5.194,9l5.5,11.256c.949,1.937,1.866,4.356.6,6.106-.619.851-1.68,1.378-2.11,2.34-.573,1.276.143,2.947-.7,4.07a5.332,5.332,0,0,1-1.961,1.231,7.651,7.651,0,0,0-2.37,2.079l12.085,9.265a8.03,8.03,0,0,1,3.113,5.561l1.2,11.786a14.2,14.2,0,0,1,.539,4.115,6.948,6.948,0,0,1-.731,3.687l-.264-.062c-.287,8.267-.785,20.16-1.278,22.358-.287,1.3-2.1,3.6-4.532,5.975l.86,2.41h-.287l.287.757h-.573c2.431,8.689,9.043,15.237,9.043,15.237S305.7,348.964,289.888,349.412Zm14.372-40.151V300c-1.41.216-2.451.7-2.783,1.577Zm-4.082-40.321-.046.068h.017Z" transform="translate(-64.687 -170.521)" fill="url(#linear-gradient-2)"/>
  <path id="Path_2355" data-name="Path 2355" d="M456.975,458.658s-.731,25.975-1.465,29.268-11.345,13.182-16.828,13.549c0,0-5.853,13.9-12.44,11.706s-7.318-13.9-4.013-15.366l21.936-13.9v-27.8Z" transform="translate(-255.601 -339.398)" fill="#fdb797"/>
  <path id="Path_2356" data-name="Path 2356" d="M243.094,576.09s-9.513,20.489-8.416,23.791,62.2,0,62.2,0-11.342-11.342-9.147-23.791Z" transform="translate(-42.589 -425.074)" fill="#565171"/>
  <path id="Path_2357" data-name="Path 2357" d="M296.106,358.753s1.465,14.269-1.1,17.562,10.244,5.119,11.331,5.119,12.8-4.013,15-5.122,4.013-9.147,4.013-9.147-10.975,2.2-14.269-10.605Z" transform="translate(-88.211 -268.042)" fill="#fdb797"/>
  <path id="Path_2358" data-name="Path 2358" d="M289.961,233.357a11.025,11.025,0,0,0-6.509,5.609,14.99,14.99,0,0,1-1.255,2.8c-1.33,1.857-3.936,2.207-5.787,3.546-2.376,1.72-3.256,4.95-2.927,7.862s1.668,5.6,2.984,8.224c1.384,2.755,2.815,5.572,5.088,7.653,1.061.972,2.362,1.875,2.7,3.273.287,1.2-.224,2.454-.115,3.686.264,3.041,3.9,4.457,6.934,4.8,1.319.146,2.829.155,3.758-.794a6.536,6.536,0,0,0,1.018-1.76,8.436,8.436,0,0,1,15.046-.155c.711,1.37,1.126,3.03,2.422,3.867,1.984,1.281,4.635-.224,6.094-2.075s2.522-4.179,4.606-5.288a4.812,4.812,0,0,0,1.86-1.181c.8-1.078.12-2.68.662-3.907.41-.923,1.416-1.433,2.006-2.247,1.2-1.68.333-4.013-.573-5.862l-5.228-10.806a47.662,47.662,0,0,0-4.933-8.645C311.616,233.873,299.686,229.854,289.961,233.357Z" transform="translate(-85.903 -179.057)" fill="#3d4642"/>
  <path id="Path_2359" data-name="Path 2359" d="M272.959,401.631s14.269,0,17.926-13.171l12.01,9.307a7.739,7.739,0,0,1,2.955,5.34L307,414.438s1.281,4.208-.183,6.767c0,0-15.192-3.841-15.55.547l10.6,29.635s-16.464.367-20.853-2.56c0,0-17.926,3.657-22.317-.367s-8.78-3.658-5.122-12.8c0,0-7.318-7.318-4.013-17.562s.183.183.183.183-7.134-3.477-6.767-10.061l.731-6.593s.04-.218.14-.611c2.23-8.679,8.224-13.472,16.648-10.416a7.725,7.725,0,0,0,4.979-.129S262.717,402.373,272.959,401.631Z" transform="translate(-55.605 -291.01)" opacity="0.1"/>
  <path id="Path_2360" data-name="Path 2360" d="M272.953,399.081s14.269,0,17.926-13.171l12.01,9.307a7.739,7.739,0,0,1,2.955,5.337l1.147,11.331s1.281,4.208-.183,6.767c0,0-15.192-3.841-15.55.547l10.606,29.635s-16.464.367-20.853-2.56c0,0-17.926,3.657-22.317-.367s-8.78-3.658-5.122-12.8c0,0-7.318-7.318-4.013-17.562s.183.183.183.183-7.134-3.477-6.767-10.061l.731-6.593s.04-.218.14-.611c2.23-8.679,8.224-13.472,16.648-10.416a7.725,7.725,0,0,0,4.979-.129S262.712,399.812,272.953,399.081Z" transform="translate(-55.599 -289.185)" fill="#0b181b"/>
  <path id="Path_2361" data-name="Path 2361" d="M282.115,468.88s-.731,25.975-1.465,29.268-11.342,13.171-16.828,13.538c0,0-5.853,13.9-12.44,11.706s-7.318-13.9-4.013-15.367l21.951-13.9v-27.8Z" transform="translate(-30.951 -346.705)" fill="#fdb797"/>
  <path id="Path_2362" data-name="Path 2362" d="M245.043,465.277s8.407,5.71,15.731,5.234c0,0,.731-9.806-1.465-10.353S247.6,460.158,245.043,465.277Z" transform="translate(-9.633 -341.972)" opacity="0.1"/>
  <path id="Path_2363" data-name="Path 2363" d="M245.043,464s8.407,5.71,15.731,5.231c0,0,.731-9.806-1.465-10.353S247.6,458.878,245.043,464Z" transform="translate(-9.633 -341.057)" fill="#0b181b"/>
  <path id="Path_2364" data-name="Path 2364" d="M346.15,359.1l-15,2.2s.338,3.3.4,7.094a16.837,16.837,0,0,0,17.654-2.866A16.589,16.589,0,0,1,346.15,359.1Z" transform="translate(-122.478 -269.82)" opacity="0.1"/>
  <circle id="Ellipse_174" data-name="Ellipse 174" cx="16.828" cy="16.828" r="16.828" transform="translate(198.057 65.602)" fill="#fdb797"/>
  <path id="Path_2365" data-name="Path 2365" d="M320.329,275.653a5.224,5.224,0,0,1-2.25.321q-4.466-.029-8.923-.33c-2.253-.152-4.655-.416-6.392-1.857-2.339-1.94-2.709-5.578-1.5-8.367s3.669-4.844,6.269-6.415a18.715,18.715,0,0,1,4.735-2.147c4.824-1.31,10.158.287,13.991,3.511a24.757,24.757,0,0,1,7.567,12.678c.447,1.671,1.02,3.66,2.674,4.168-1.1,1.832-3.786,2.121-5.718,1.2-2.843-1.353-4.3-6.53-6.853-7.344C321.086,270.179,322.743,274.547,320.329,275.653Z" transform="translate(-101.036 -196.393)" opacity="0.1"/>
  <path id="Path_2366" data-name="Path 2366" d="M320.359,274.409a5.224,5.224,0,0,1-2.25.321q-4.466-.029-8.923-.33c-2.253-.152-4.655-.416-6.392-1.857-2.339-1.941-2.709-5.578-1.5-8.367s3.669-4.844,6.269-6.415a18.715,18.715,0,0,1,4.727-2.133c4.824-1.31,10.158.287,13.991,3.511a24.757,24.757,0,0,1,7.567,12.678c.447,1.671,1.02,3.66,2.674,4.168-1.1,1.832-3.786,2.121-5.718,1.2-2.843-1.353-4.3-6.53-6.853-7.344C321.116,268.937,322.773,273.3,320.359,274.409Z" transform="translate(-101.066 -195.514)" fill="#3d4642"/>
  <path id="Path_2367" data-name="Path 2367" d="M373.09,544.456a64.808,64.808,0,0,1,16.828-2.2" transform="translate(-175.138 -400.778)" opacity="0.1"/>
  <path id="Path_2368" data-name="Path 2368" d="M304.595,481s-5.489,4.013-4.013,6.22" transform="translate(-69.104 -356.984)" opacity="0.1"/>
  <g id="Group_1546" data-name="Group 1546" transform="translate(83.409 164.876)" opacity="0.7">
    <path id="Path_2274" data-name="Path 2274" d="M127.88,578.64H307.514v15.7H297.058v49.419H137.964V594.345H127.88Z" transform="translate(-127.88 -578.64)" fill="url(#linear-gradient)"/>
  </g>
  <rect id="Rectangle_1800" data-name="Rectangle 1800" width="155.852" height="55.977" transform="translate(95.704 174.023)" fill="#e0e0e0"/>
  <rect id="Rectangle_1801" data-name="Rectangle 1801" width="155.852" height="8.78" transform="translate(95.704 177.226)" opacity="0.1"/>
  <rect id="Rectangle_1802" data-name="Rectangle 1802" width="175.977" height="15" transform="translate(85.237 168.107)" fill="#e0e0e0"/>
  <rect id="Rectangle_1803" data-name="Rectangle 1803" width="33.66" height="4.755" rx="2.378" transform="translate(194.774 164.487)" fill="#7dc4a6"/>
  <g id="Group_1547" data-name="Group 1547" transform="translate(124.565 111.574)" opacity="0.7">
    <rect id="Rectangle_1788" data-name="Rectangle 1788" width="83.655" height="57.843" rx="5" transform="translate(0 0)" fill="url(#linear-gradient)"/>
  </g>
  <rect id="Rectangle_1804" data-name="Rectangle 1804" width="79.246" height="56.774" rx="5" transform="translate(127.477 112.64)" fill="#4bcc96"/>
  <rect id="Rectangle_1805" data-name="Rectangle 1805" width="79.246" height="56.774" rx="5" transform="translate(126.388 112.64)" fill="#7dc4a6"/>
  <circle id="Ellipse_175" data-name="Ellipse 175" cx="2.56" cy="2.56" r="2.56" transform="translate(159.803 138.126)" fill="#fff"/>
  <g id="Group_1543" data-name="Group 1543" transform="translate(66.309 35.403)">
    <rect id="Rectangle_1708" data-name="Rectangle 1708" width="30.234" height="39.696" transform="translate(0 5.145)" fill="#7dc4a6" opacity="0.1"/>
    <ellipse id="Ellipse_112" data-name="Ellipse 112" cx="3.651" cy="3.658" rx="3.651" ry="3.658" transform="translate(26.615 0.623)" fill="#fff"/>
    <path id="Path_1921" data-name="Path 1921" d="M1007.258,409.74a4.364,4.364,0,1,0,4.364,4.364A4.364,4.364,0,0,0,1007.258,409.74Zm-.9,6.69-2.236-2.236.627-.627,1.611,1.611,3.4-3.4.627.627Z" transform="translate(-976.991 -409.74)" fill="#57b894"/>
    <g id="grooming_1_" data-name="grooming (1)" transform="translate(7.019 14.286)">
      <path id="Path_2128" data-name="Path 2128" d="M33.8,5.549V4.415a25.635,25.635,0,0,0,3.423-.366c1.392-.261,2.815-.682,2.815-1.821S38.614.668,37.222.407A29.7,29.7,0,0,0,32.016,0a29.7,29.7,0,0,0-5.205.407C25.419.668,24,1.088,24,2.228s1.423,1.56,2.815,1.821a25.635,25.635,0,0,0,3.423.366V5.549a8.02,8.02,0,1,0,3.565,0ZM32.016,19.606a6.238,6.238,0,1,1,6.238-6.238,6.238,6.238,0,0,1-6.238,6.238Z" transform="translate(-23.995 0)" fill="#7dc4a6"/>
      <path id="Path_2129" data-name="Path 2129" d="M48.18,77.061h4.881V72.18A5.354,5.354,0,0,0,48.18,77.061Z" transform="translate(-45.486 -64.139)" fill="#7dc4a6"/>
      <path id="Path_2130" data-name="Path 2130" d="M100,128.881A5.354,5.354,0,0,0,104.881,124H100Z" transform="translate(-91.534 -110.187)" fill="#7dc4a6"/>
      <path id="Path_2131" data-name="Path 2131" d="M100,72.18v4.881h4.881A5.354,5.354,0,0,0,100,72.18Z" transform="translate(-91.534 -64.139)" fill="#7dc4a6"/>
      <path id="Path_2132" data-name="Path 2132" d="M53.061,128.881V124H48.18A5.354,5.354,0,0,0,53.061,128.881Z" transform="translate(-45.486 -110.187)" fill="#7dc4a6"/>
    </g>
  </g>
  <g id="Group_1544" data-name="Group 1544" transform="translate(23.465 35.403)">
    <rect id="Rectangle_1715" data-name="Rectangle 1715" width="30.699" height="40.305" transform="translate(0 4.389)" fill="#7dc4a6" opacity="0.1"/>
    <ellipse id="Ellipse_111" data-name="Ellipse 111" cx="3.707" cy="3.714" rx="3.707" ry="3.714" transform="translate(26.398 0.633)" fill="#fff"/>
    <path id="Path_1920" data-name="Path 1920" d="M961.32,88.74a4.43,4.43,0,1,0,4.431,4.43A4.43,4.43,0,0,0,961.32,88.74Zm-.91,6.793-2.271-2.271.637-.637,1.636,1.636,3.453-3.453.637.637-4.092,4.088Z" transform="translate(-931.216 -88.74)" fill="#57b894"/>
    <g id="grooming" transform="translate(8.064 13.718)">
      <path id="Path_2125" data-name="Path 2125" d="M43.6,0H41.8V.9H40V2.7h1.8v.9H40V5.4h1.8v.9H40v1.8h1.8v4.5h-.9a.9.9,0,0,0-.894,1.012l.9,7.206a.9.9,0,0,0,.894.789h1.8a.9.9,0,0,0,.894-.789l.9-7.206a.9.9,0,0,0-.894-1.012h-.9v-4.5h1.8v-1.8H43.6V5.4h1.8V3.6H43.6V2.7h1.8V.9H43.6Z" transform="translate(-40)" fill="#7dc4a6"/>
      <path id="Path_2126" data-name="Path 2126" d="M111.2,91.641,110.308,80H104.9L104,91.641a.9.9,0,0,0,.9.97h5.4a.9.9,0,0,0,.9-.97Z" transform="translate(-96.793 -70.992)" fill="#7dc4a6"/>
      <path id="Path_2127" data-name="Path 2127" d="M117.4,48.9a.9.9,0,0,0-.9-.9h-3.6a.9.9,0,0,0-.9.9v1.8h5.4Z" transform="translate(-103.893 -42.595)" fill="#7dc4a6"/>
    </g>
  </g>
  <g id="Group_1545" data-name="Group 1545" transform="translate(109.505 35.689)">
    <rect id="Rectangle_1703" data-name="Rectangle 1703" width="30.061" height="39.468" transform="translate(0 4.586)" fill="#7dc4a6" opacity="0.1"/>
    <ellipse id="Ellipse_113" data-name="Ellipse 113" cx="3.63" cy="3.637" rx="3.63" ry="3.637" transform="translate(26.464 0.62)" fill="#fff"/>
    <path id="Path_1922" data-name="Path 1922" d="M695.228,242.74a4.339,4.339,0,1,0,4.339,4.339A4.339,4.339,0,0,0,695.228,242.74Zm-.891,6.652-2.223-2.223.624-.624,1.6,1.6,3.381-3.381.624.624-4.007,4Z" transform="translate(-665.134 -242.74)" fill="#57b894"/>
    <g id="beauty-salon" transform="translate(4.946 13.091)">
      <path id="Path_2120" data-name="Path 2120" d="M31.706,252.231h8.048a.67.67,0,0,0,.671-.671v-9.478a.67.67,0,0,0-.671-.671h-.671V240.07H32.376v1.341h-.671a.67.67,0,0,0-.671.671v9.478A.67.67,0,0,0,31.706,252.231Z" transform="translate(-31.035 -229.337)" fill="#7dc4a6"/>
      <path id="Path_2121" data-name="Path 2121" d="M63.037,4.609c1.177,1.022,3.353,2.278,4.357,1.122.907-1.044-.255-2.888-1.717-4.159C64.234.318,62.259-.572,61.333.437A1.329,1.329,0,0,0,61,1.445,5.334,5.334,0,0,0,63.037,4.609Z" transform="translate(-59.66 0)" fill="#7dc4a6"/>
      <path id="Path_2122" data-name="Path 2122" d="M280.424,212.082a2.014,2.014,0,0,0-2.012-2.012h-5.365a2.014,2.014,0,0,0-2.012,2.012v7.466h9.389Z" transform="translate(-260.305 -200.678)" fill="#7dc4a6"/>
      <path id="Path_2123" data-name="Path 2123" d="M271.706,454.753h8.048a.67.67,0,0,0,.671-.671V452.07h-9.389v2.012A.67.67,0,0,0,271.706,454.753Z" transform="translate(-260.305 -431.858)" fill="#7dc4a6"/>
      <path id="Path_2124" data-name="Path 2124" d="M67.741,101.923a2.8,2.8,0,0,1-1.4.368,7.342,7.342,0,0,1-4.148-1.912,9.916,9.916,0,0,1-1.156-1.186v4.957h6.706Z" transform="translate(-59.694 -94.758)" fill="#7dc4a6"/>
    </g>
  </g>
</svg>
