<svg id="Order_Completed" data-name="Order Completed" xmlns="http://www.w3.org/2000/svg" xmlns:xlink="http://www.w3.org/1999/xlink" width="301.731" height="230" viewBox="0 0 301.731 230">
  <defs>
    <linearGradient id="linear-gradient" x1="0.5" y1="1" x2="0.5" gradientUnits="objectBoundingBox">
      <stop offset="0" stop-color="gray" stop-opacity="0.251"/>
      <stop offset="0.54" stop-color="gray" stop-opacity="0.122"/>
      <stop offset="1" stop-color="gray" stop-opacity="0.102"/>
    </linearGradient>
  </defs>
  <path id="Path_2310" data-name="Path 2310" d="M328.6,196.47q-1.356,1.2-2.78,2.326c-.158.129-.322.269-.483.385a97.633,97.633,0,0,1-10.614,7.187c-4.235,2.509-8.656,4.791-13.136,6.944a217.512,217.512,0,0,1-20.664,8.734l-.317.116q-4.641,1.658-9.387,3.06l-.056.016q-3.312.969-6.669,1.79l-.306.075q-4.942,1.2-9.983,2.032l-.774.124q-3.685.581-7.421.947c-14,1.346-28.165.253-42.077-1.637-28.1-3.819-55.817-10.979-81.109-22.2a224.579,224.579,0,0,1-27.91-14.753q-1.9-1.187-3.779-2.422c-.2-.132-.395-.269-.591-.4-12.338-8.266-23.481-18.332-28.665-31.037C56.1,143.577,59.8,125.6,74.126,117.208c4.947-2.88,10.654-4.449,16.429-5.744l.591-.132c.978-.215,1.955-.423,2.93-.63,3.408-.724,6.835-1.443,10.23-2.247h0a100.283,100.283,0,0,0,18.284-5.873q.639-.285,1.273-.589a48.141,48.141,0,0,0,13.16-9.049c3.207-3.249,5.514-6.974,5.9-10.971h0a12.139,12.139,0,0,0-.15-3.4c-.4-2.126-.782-4.2-1.074-6.234a31.792,31.792,0,0,1,.024-10.971h0a20.663,20.663,0,0,1,5.664-10.373q.733-.759,1.574-1.51a33.212,33.212,0,0,1,8.739-5.539q.594-.269,1.192-.5c8.863-3.6,19.517-4.347,29.47-3.852a160.514,160.514,0,0,1,27.617,3.846c.72.161,1.44.331,2.149.5a191.267,191.267,0,0,1,22.759,7.049c21.854,8.236,42.306,20.1,61.218,32.985l.9.616q.663.455,1.327.915,1.359.937,2.7,1.884,1,.7,1.993,1.4h0l1.426,1.015.889.641c4.834,3.5,9.591,7.125,14,11.014l.483.431a84.965,84.965,0,0,1,14.13,15.762C356.471,142.213,351.572,176.237,328.6,196.47Z" transform="translate(-59.271 -39.451)" fill="#7dc4a6" opacity="0.1"/>
  <g id="undraw_successful_purchase_uyin" transform="translate(14.78 22.562)">
    <rect id="Rectangle_1754" data-name="Rectangle 1754" width="21.588" height="8.095" rx="4.048" transform="translate(88.099 20.799)" fill="#7dc4a6" opacity="0.1"/>
    <rect id="Rectangle_1755" data-name="Rectangle 1755" width="21.588" height="8.095" rx="4.048" transform="translate(151.636 13.514)" fill="#7dc4a6" opacity="0.1"/>
    <rect id="Rectangle_1756" data-name="Rectangle 1756" width="21.588" height="8.095" rx="4.048" transform="translate(139.89 94.831)" fill="#7dc4a6" opacity="0.1"/>
    <rect id="Rectangle_1757" data-name="Rectangle 1757" width="21.588" height="8.095" rx="4.048" transform="translate(149.501 103.644)" fill="#7dc4a6" opacity="0.1"/>
    <rect id="Rectangle_1758" data-name="Rectangle 1758" width="21.588" height="8.095" rx="4.048" transform="translate(206.631 99.638)" fill="#7dc4a6" opacity="0.1"/>
    <rect id="Rectangle_1759" data-name="Rectangle 1759" width="21.588" height="8.095" rx="4.048" transform="translate(33.191 106.047)" fill="#7dc4a6" opacity="0.1"/>
    <rect id="Rectangle_1760" data-name="Rectangle 1760" width="21.588" height="8.095" rx="4.048" transform="translate(133.216 112.457)" fill="#7dc4a6" opacity="0.1"/>
    <path id="Path_2053" data-name="Path 2053" d="M527,129.1l-9.892-28.417-3.557.534-3.184.4c.081-1.068.221-4.9-1.754-6.913a5.251,5.251,0,0,0-1.668-2.353c-4.733-4.294-5.718,4.489-5.718,4.489s-1.079,1.853-2.566,4.443l-.78-.147-.221,1.912c-3.292,5.76-7.666,13.554-7.666,14.286a9.568,9.568,0,0,1-.591,2.732s-3.351,5.463-4.536,8.2a13.1,13.1,0,0,1-2.968,4.294s-.286.216-.756.534a6.611,6.611,0,0,1,.27-1.525c.432-1.4,1.436-2.593,1.7-4.029a4.655,4.655,0,0,0,.07-1.044c.062-1.685-.766-3.343-1.112-5.028-.4-1.952-.186-4.1-1.239-5.8A6.049,6.049,0,0,0,477.1,113.2a29,29,0,0,0-4.1-.363c-1.268-.134-2.48-.689-3.748-.895a4.888,4.888,0,0,0-2.056,0c-2.145.585-2.817,3.26-4.474,4.732-.6.534-1.328.9-1.867,1.487a4.439,4.439,0,0,0-1.017,3.2,6.758,6.758,0,0,0,.07,1.167c.205,1.4.75,2.718,1.079,4.088a14.014,14.014,0,0,1,.4,3.095c0,.235,0,.47-.022.7a2.445,2.445,0,0,1-.364,1.335,3.811,3.811,0,0,1-1.233.868,9.468,9.468,0,0,1-3.109-4.363s-.073.091-.2.267v-.267s-2.7-3.92-3.109-7.122l.939.1,2.159-30.054-5.513-.8a12.355,12.355,0,0,0-1.681-5.445c.926-1.805,1.392-4.248-2.666-4.491-4.749-.286-4.458,3.375-3.953,5.378a13.333,13.333,0,0,0-.27,3.324l-4.857-.7-.027.39h-1.155l-3.535,30.66,3.011-.15,11.037,1.138c.882,7.939,2.269,17.749,3.915,20.062a1.981,1.981,0,0,0,.181.222v14.048s-.2,18.158-3.551,21.076a17.708,17.708,0,0,1,6.417-1q-.057.18-.113.385a33.748,33.748,0,0,0-1.023,5.469q-.07.611-.127,1.276a68.142,68.142,0,0,0,.17,12.211,249.446,249.446,0,0,0,3.551,24.785l.6,8.4s-.591,14.246.985,18.93a7.152,7.152,0,0,0,2.018,1.3c.014.133.03.267.043.409s.035.36.054.547c-.707.318-2.027,1.578-2.313,6.529,0,0,.394,3.709-.591,5.463s-.394,6.831,2.564,7.415a15.969,15.969,0,0,0,5.718,0s1.382,0,.394-4.879l-.173-1.25c-.022-2.417.081-5,.567-5.776a2.76,2.76,0,0,0-.394-3.122s-.1.053-.256.126a22.849,22.849,0,0,1-.467-5.21,3.694,3.694,0,0,1,.04-.414,8.309,8.309,0,0,0,1.67-1.14V227.8s-.2-28.492,1.973-29.079c0,0,.985,10.342.591,15.418a47.938,47.938,0,0,0,.591,10.54l.394,20.687s.378.179.988.39l-.04.376c-.24,2.3-.626,5.77-.977,7.9a1.575,1.575,0,0,0-.958,1.095c-.591,1.952-.2,6.83-1.382,8.2-.7.8-1.535,2.433-1.125,3.586-.256,1.012-.143,2.593,2.9,2.855,4.536.39,6.509-1.952,6.509-1.952a3.4,3.4,0,0,0,0-2.732c-.591-1.757.2-4.879.2-4.879s.424-2.649-.27-3c-.059-.315-.113-.515-.113-.515a2.335,2.335,0,0,0-.623-1.624,33.416,33.416,0,0,1,.793-8.31c.043-.142.086-.267.132-.414a5.365,5.365,0,0,0,1.668-.579,20.243,20.243,0,0,1,1.185-7.61c1.382-3.122.591-15.613.591-15.613a14.564,14.564,0,0,1,.243-5.941,57.777,57.777,0,0,0,2.143-9.026l1.163-8.062a32.66,32.66,0,0,0-.971-19.885q-.247-.625-.54-1.25c-.335-.724-.707-1.45-1.123-2.171-.065-.112-.135-.227-.2-.339.424-.1.664-.166.664-.166s-5.324-12.283-1.973-18.54a8.115,8.115,0,0,0,2.159-3.923c.335-2.716.7-5.429,1.3-8.1l.105-.47s.016-.091.043-.254c.076-.048.148-.1.221-.152,5.683-4.107,10.583-21.255,10.583-21.255l1.579-2.937.75-1.57-1.538,13.279,12.03,2.937,7.691-.585-.022-1.637,5.861-.451ZM450.74,90.378l-2.137-.31c-.375-1.909-.629-3.162-.629-3.162a11.591,11.591,0,0,0,1.185-1.754,12.065,12.065,0,0,1,1.581,5.215Zm-7.982-4.1c.148.5.283.825.283.825l.27,2.2-.729-.1a14.317,14.317,0,0,1,.178-2.935Zm67.407,15.383-2.893.369a10.629,10.629,0,0,0,.618-4.889,2.44,2.44,0,0,0,.793-2.043c1.719,2.032,1.557,5.621,1.481,6.555Zm-4.8-3.047a7.188,7.188,0,0,0,2.356-1.311,10.746,10.746,0,0,1-.664,4.753l-2.7.342-.745-.142Z" transform="translate(-334.464 -80.421)" fill="url(#linear-gradient)"/>
    <path id="Path_2054" data-name="Path 2054" d="M675.819,107.244l-7.04,2.939L660.6,81.663l1.919-2.277,3.516-.545Z" transform="translate(-484.199 -57.544)" fill="#7dc4a6"/>
    <path id="Path_2055" data-name="Path 2055" d="M675.819,107.244l-7.04,2.939L660.6,81.663l1.919-2.277,3.516-.545Z" transform="translate(-484.199 -57.544)" fill="#fff" opacity="0.2"/>
    <path id="Path_2056" data-name="Path 2056" d="M634.649,80.86,622.43,82.428l6.263,30.179,12.216-.95Z" transform="translate(-456.242 -59.019)" fill="#7dc4a6"/>
    <path id="Path_2057" data-name="Path 2057" d="M634.649,80.86,622.43,82.428l6.263,30.179,12.216-.95Z" transform="translate(-456.242 -59.019)" fill="#fff" opacity="0.07"/>
    <path id="Path_2058" data-name="Path 2058" d="M708.506,141.391l-.194-.024c0-.073.81-7.2-3.662-8.1l.038-.192C709.351,134.016,708.522,141.318,708.506,141.391Z" transform="translate(-533.238 -118.87)" fill="#535461"/>
    <rect id="Rectangle_1761" data-name="Rectangle 1761" width="13.46" height="19.701" transform="translate(130.438 42.841)" fill="#774e55"/>
    <rect id="Rectangle_1762" data-name="Rectangle 1762" width="13.46" height="19.701" transform="translate(130.438 42.841)" opacity="0.2"/>
    <path id="Path_2059" data-name="Path 2059" d="M648.927,119.862l-7.607.586L642.491,90.8l2.534-1.56,3.511.586Z" transform="translate(-470.018 -65.138)" fill="#7dc4a6"/>
    <path id="Path_2060" data-name="Path 2060" d="M648.927,119.862l-7.607.586L642.491,90.8l2.534-1.56,3.511.586Z" transform="translate(-470.018 -65.138)" opacity="0.2"/>
    <path id="Path_2061" data-name="Path 2061" d="M612.832,82.9,600.741,80.56l-3.511,30.625,11.9,2.925Z" transform="translate(-437.753 -58.8)" fill="#7dc4a6"/>
    <path id="Path_2062" data-name="Path 2062" d="M376.967,35.03h-1.757L371.7,65.652l7.8-.389Z" transform="translate(-272.417 -25.556)" fill="#7dc4a6"/>
    <path id="Path_2063" data-name="Path 2063" d="M376.967,35.03h-1.757L371.7,65.652l7.8-.389Z" transform="translate(-272.417 -25.556)" opacity="0.2"/>
    <path id="Path_2064" data-name="Path 2064" d="M383.245,33.58,381.1,64.4l18.725,1.951,2.145-30.039Z" transform="translate(-279.357 -24.497)" fill="#7dc4a6"/>
    <path id="Path_2065" data-name="Path 2065" d="M525.745,706.808s-2.34-.194-2.731,6.633c0,0,.391,3.7-.586,5.462s-.391,6.827,2.537,7.413a15.633,15.633,0,0,0,5.667,0s1.365,0,.391-4.876l-1.951-14.24Z" transform="translate(-399.399 -539.779)" fill="#4faf86"/>
    <path id="Path_2066" data-name="Path 2066" d="M525.745,706.808s-2.34-.194-2.731,6.633c0,0,.391,3.7-.586,5.462s-.391,6.827,2.537,7.413a15.633,15.633,0,0,0,5.667,0s1.365,0,.391-4.876l-1.951-14.24Z" transform="translate(-399.399 -539.779)" opacity="0.05"/>
    <path id="Path_2067" data-name="Path 2067" d="M552.928,259.734a13.055,13.055,0,0,0,.413,4.587l-5.07,1.365s-8.387,1.171-5.07-2.159c1.147-1.147,1.711-3.114,1.956-5.192a28.769,28.769,0,0,0,.143-4.274,38.089,38.089,0,0,0-.345-3.994s12.289-4.291,9.558,2.731a24.975,24.975,0,0,0-1.174,3.913A20.644,20.644,0,0,0,552.928,259.734Z" transform="translate(-414.389 -203.832)" fill="#f8bdc5"/>
    <path id="Path_2068" data-name="Path 2068" d="M561.358,252.809a24.963,24.963,0,0,0-1.174,3.913,8.4,8.4,0,0,1-8.039-2.65,38.09,38.09,0,0,0-.345-3.994S564.089,245.788,561.358,252.809Z" transform="translate(-421.249 -203.817)" opacity="0.1"/>
    <circle id="Ellipse_147" data-name="Ellipse 147" cx="8.387" cy="8.387" r="8.387" transform="translate(128.782 35.999)" fill="#f8bdc5"/>
    <path id="Path_2069" data-name="Path 2069" d="M483.757,132.174v2.537l-4.29,11.118-1.171-1.171a1.966,1.966,0,0,1-.178-.221c-2.833-4.026-4.895-30.792-4.895-30.792l-2.728-22.632S467.57,84,474,84.379s1.365,6.436,1.365,6.436,4.291,21.455,3.7,22.235,0,3.122,0,3.122,1.757,4.488,1.56,7.8S483.757,132.174,483.757,132.174Z" transform="translate(-361.189 -83.3)" fill="#f8bdc5"/>
    <path id="Path_2070" data-name="Path 2070" d="M634.723,131.556,624.58,153.012l-1.56,2.92s-4.857,17.141-10.467,21.245a5.126,5.126,0,0,1-1.042.6l-1.171-9.364,1.079-2.72.081-.208a13.1,13.1,0,0,0,2.925-4.291c1.171-2.731,4.487-8.192,4.487-8.192a9.644,9.644,0,0,0,.586-2.731c0-1.171,11.118-20.481,11.118-20.481s.974-8.778,5.667-4.488S634.723,131.556,634.723,131.556Z" transform="translate(-464.256 -112.33)" fill="#f8bdc5"/>
    <path id="Path_2071" data-name="Path 2071" d="M539.04,705.293s-6.633,2.731-5.853.194c.475-1.538.3-4.444.089-6.476-.135-1.325-.286-2.291-.286-2.291l5.667.586a4.583,4.583,0,0,0-.327,1.552A27.314,27.314,0,0,0,539.04,705.293Z" transform="translate(-407.445 -532.312)" fill="#f8bdc5"/>
    <path id="Path_2072" data-name="Path 2072" d="M576.7,692.411c-1.023,3.551-.756,9.736-.756,9.736s-6.047.78-5.462-.78c.407-1.079,1-6.428,1.328-9.571.143-1.373.232-2.326.232-2.326l5.462,1.171A5.454,5.454,0,0,0,576.7,692.411Z" transform="translate(-434.898 -527.02)" fill="#f8bdc5"/>
    <path id="Path_2073" data-name="Path 2073" d="M533,696.69l5.667.586a4.588,4.588,0,0,0-.326,1.552,5.783,5.783,0,0,1-5.046.154C533.151,697.653,533,696.69,533,696.69Z" transform="translate(-407.451 -532.273)" opacity="0.1"/>
    <path id="Path_2074" data-name="Path 2074" d="M581.206,690.638a5.456,5.456,0,0,0-.81,1.773,10.49,10.49,0,0,1-4.887-.615c.143-1.373.232-2.326.232-2.326Z" transform="translate(-438.605 -526.996)" opacity="0.1"/>
    <path id="Path_2075" data-name="Path 2075" d="M536.966,455.195l-1.15,8.058a58.259,58.259,0,0,1-2.121,9.021,14.677,14.677,0,0,0-.24,5.937s.78,12.483-.586,15.605a20.458,20.458,0,0,0-1.171,7.607c-3.122,1.757-7.607-.391-7.607-.391l-.391-20.675a48.4,48.4,0,0,1-.586-10.524c.389-5.062-.586-15.408-.586-15.408-2.159.586-1.951,29.062-1.951,29.062v18.53a6.285,6.285,0,0,1-8.778,0c-1.56-4.682-.974-18.922-.974-18.922l-.586-8.387a246.321,246.321,0,0,1-3.508-24.772,68.81,68.81,0,0,1-.167-12.205q.057-.664.124-1.276a34.046,34.046,0,0,1,1.009-5.464,12.3,12.3,0,0,1,.594-1.73l20.959.974,1.236.057,2.968.138c.324.488.629.985.912,1.481.41.72.78,1.446,1.109,2.159.189.416.367.834.54,1.249A32.969,32.969,0,0,1,536.966,455.195Z" transform="translate(-388.057 -336.6)" fill="#8eb44a"/>
    <path id="Path_2076" data-name="Path 2076" d="M514.466,436.463s-.917,9.175-7.386,6.519q.057-.664.124-1.276c1.522.413,5.734.982,5.893-5.246Z" transform="translate(-388.462 -341.368)" opacity="0.1"/>
    <path id="Path_2077" data-name="Path 2077" d="M597.936,437.942c-4.479,1.6-6.169-2.661-6.746-5.092l1.236.057c.672,3.824,3.354,4.048,4.987,3.778Q597.688,437.324,597.936,437.942Z" transform="translate(-450.102 -338.714)" opacity="0.1"/>
    <path id="Path_2078" data-name="Path 2078" d="M530.454,717.532c-1-.157-2.518-.7-2.04-2.617,0,0-1.843-.637-1.649,6.97a23.422,23.422,0,0,1-.586,4.488c-.391.782,0,5.462,4.1,5.07,0,0,2.925.974,3.7-.586,0,0-.586-8.972.391-10.524a2.784,2.784,0,0,0-.391-3.122,4.219,4.219,0,0,1-2.375.54A10.406,10.406,0,0,0,530.454,717.532Z" transform="translate(-402.379 -545.689)" fill="#4ba67f"/>
    <path id="Path_2079" data-name="Path 2079" d="M559.328,747.816s-1.951,3.316,2.537,3.7,6.436-1.951,6.436-1.951a3.431,3.431,0,0,0,0-2.731c-.586-1.757.194-4.876.194-4.876s.586-3.7-.78-2.925S559.328,747.816,559.328,747.816Z" transform="translate(-426.456 -563.234)" fill="#50a983"/>
    <path id="Path_2080" data-name="Path 2080" d="M559.328,747.816s-1.951,3.316,2.537,3.7,6.436-1.951,6.436-1.951a3.431,3.431,0,0,0,0-2.731c-.586-1.757.194-4.876.194-4.876s.586-3.7-.78-2.925S559.328,747.816,559.328,747.816Z" transform="translate(-426.456 -563.234)" opacity="0.05"/>
    <path id="Path_2081" data-name="Path 2081" d="M564.354,727.111s-2.34-.974-2.925.974-.194,6.827-1.365,8.192-2.731,5.07,1.951,4.876,5.667-1.757,5.667-1.757-.194-4.876.391-6.242a6.537,6.537,0,0,0,0-3.508S568.254,726.9,564.354,727.111Z" transform="translate(-426.408 -554.426)" fill="#50a983"/>
    <circle id="Ellipse_148" data-name="Ellipse 148" cx="0.391" cy="0.391" r="0.391" transform="translate(108.576 11.422)" opacity="0.2"/>
    <circle id="Ellipse_149" data-name="Ellipse 149" cx="0.391" cy="0.391" r="0.391" transform="translate(116.688 12.396)" opacity="0.2"/>
    <path id="Path_2082" data-name="Path 2082" d="M478.417,102.621h-.194c0-.084.138-8.311-4.587-9.069a2.485,2.485,0,0,0-2.261.626c-1.951,1.935-1.144,7.4-1.136,7.453l-.192.03c-.035-.229-.828-5.618,1.193-7.62a2.664,2.664,0,0,1,2.429-.683C478.557,94.14,478.42,102.538,478.417,102.621Z" transform="translate(-361.191 -89.831)" fill="#535461"/>
    <path id="Path_2083" data-name="Path 2083" d="M703.082,143.829l-.175-.084c.03-.065,3.036-6.576-.936-8.846l.1-.17C706.193,137.088,703.114,143.762,703.082,143.829Z" transform="translate(-531.263 -120.075)" fill="#535461"/>
    <path id="Path_2084" data-name="Path 2084" d="M553.341,290.165l-5.07,1.365s-8.387,1.171-5.07-2.159c1.147-1.147,1.711-3.114,1.956-5.192,1.325,2.078,2.92,1.487,2.92,1.487l4.836-.094h.019A12.987,12.987,0,0,0,553.341,290.165Z" transform="translate(-414.382 -229.761)" opacity="0.1"/>
    <path id="Path_2085" data-name="Path 2085" d="M612.563,289.12a5.128,5.128,0,0,1-1.042.6l-1.171-9.364,1.079-2.72.27-.208C614.136,278.124,612.878,287.093,612.563,289.12Z" transform="translate(-464.123 -224.827)" opacity="0.1"/>
    <path id="Path_2086" data-name="Path 2086" d="M506.18,261.54v2.537l-4.291,11.118-1.171-1.171a1.967,1.967,0,0,1-.178-.221C501.047,268.005,506.18,261.54,506.18,261.54Z" transform="translate(-383.661 -213.184)" opacity="0.1"/>
    <path id="Path_2087" data-name="Path 2087" d="M537.956,431.89c-2.728.683-16.971,4.029-21.2.861a9.63,9.63,0,0,0-5.47-1.781,12.3,12.3,0,0,1,.594-1.73l20.959.974,1.236.057,2.968.138Q537.532,431.145,537.956,431.89Z" transform="translate(-391.637 -336.065)" opacity="0.1"/>
    <path id="Path_2088" data-name="Path 2088" d="M474.1,90.59s2.925,4.876,4.876,0" transform="translate(-364.281 -87.846)" fill="#f8bdc5"/>
    <path id="Path_2089" data-name="Path 2089" d="M696.737,127.81s-1.171,5.853,3.508,3.122" transform="translate(-527.342 -115.022)" fill="#f8bdc5"/>
    <g id="Group_1491" data-name="Group 1491" transform="translate(120.099 92.662)" opacity="0.1">
      <path id="Path_2090" data-name="Path 2090" d="M546.688,524.419c-.094-1.187-.165-1.929-.165-1.929-2.159.586-1.951,29.062-1.951,29.062v18.53a6.783,6.783,0,0,1-3.872,1.8,6.441,6.441,0,0,0,4.857-1.8v-18.53S545.406,530.917,546.688,524.419Z" transform="translate(-533.231 -497.335)"/>
      <path id="Path_2091" data-name="Path 2091" d="M540.763,435.328c-.165-.416-.34-.834-.54-1.249-.329-.723-.7-1.449-1.109-2.159-.27-.5-.588-.99-.912-1.481l-2.968-.138L534,430.244l-20.959-.974-.019.043,20,.931,1.236.057,2.968.138c.324.488.629.985.912,1.481.41.72.78,1.446,1.109,2.159.189.416.367.834.54,1.249a32.983,32.983,0,0,1,.961,19.874l-1.15,8.058a58.265,58.265,0,0,1-2.121,9.021,14.676,14.676,0,0,0-.24,5.937s.78,12.483-.586,15.605a20.457,20.457,0,0,0-1.171,7.607,5.667,5.667,0,0,1-2.445.675,6.207,6.207,0,0,0,3.419-.675,20.45,20.45,0,0,1,1.171-7.607c1.365-3.119.586-15.605.586-15.605a14.68,14.68,0,0,1,.24-5.937,58.265,58.265,0,0,0,2.121-9.021l1.149-8.058A32.986,32.986,0,0,0,540.763,435.328Z" transform="translate(-513.02 -429.27)"/>
    </g>
    <path id="Path_2092" data-name="Path 2092" d="M513.32,269.478c2.7,1.271,9.013-3.611,9.013-3.611,2.731.78.78,12.094.78,12.094l-.105.47c-.594,2.669-.953,5.381-1.284,8.1a8.043,8.043,0,0,1-2.121,3.921c-3.316,6.242,1.951,18.53,1.951,18.53s-16.971,4.488-21.65.974-11.7-.78-11.7-.78c3.316-2.925,3.508-21.067,3.508-21.067V274.073c.391-5.853,5.667-12.483,5.667-12.483a9.8,9.8,0,0,0,8.157,6.447c1.33,2.159,2.968,1.552,2.968,1.552Z" transform="translate(-374.754 -213.343)" fill="#4bcc96"/>
    <path id="Path_2093" data-name="Path 2093" d="M533.655,202.265a4.785,4.785,0,0,0-2.032,0c-2.121.586-2.787,3.26-4.425,4.728-.588.54-1.314.9-1.848,1.487a4.86,4.86,0,0,0-.939,3.98c.2,1.4.742,2.717,1.079,4.085a14.133,14.133,0,0,1,.375,4.188,2.464,2.464,0,0,1-.362,1.325c-.391.54-1.112.71-1.619,1.141-1.549,1.333-.27,4.1-1.406,5.8-.488.737-1.4,1.222-1.589,2.086a2.855,2.855,0,0,0,.424,1.794,12.994,12.994,0,0,0,2.7,4.115,12.654,12.654,0,0,0,4.245,2.226c.456.17,1.028.318,1.376-.019.429-.421.105-1.133-.192-1.654a3.516,3.516,0,0,1-.561-2.7c.275-.912,1.158-1.517,1.751-2.278,1.53-1.97,1.028-4.8.27-7.172a5.573,5.573,0,0,1-.41-3.084c.116-.437.345-.834.491-1.263.648-1.91-.44-4.007-.121-6a8.618,8.618,0,0,1,.809-2.232l1.714-3.683a3.639,3.639,0,0,1,.758-1.193,2.7,2.7,0,0,1,1.889-.588,5.127,5.127,0,0,1,3.678,1.676c1.835,2.04,1.719,5.127,1.5,7.847l-.159,1.964a7.188,7.188,0,0,1-1.16,4.023c-.693.853-1.813,1.433-2.1,2.5-.248.915.219,1.908-.027,2.823-.367,1.368-2.056,1.862-2.949,2.968a3.036,3.036,0,0,0-.221,3.414c.34.54.882,1.079.81,1.714-.062.51-.521.923-.518,1.436a1.141,1.141,0,0,0,.828.99,3.346,3.346,0,0,0,1.368.065l4.838-.437a1.7,1.7,0,0,0,.861-.238,1.515,1.515,0,0,0,.494-1.1c.194-1.722-.27-3.6.591-5.108.27-.483.667-.885.966-1.349,1.651-2.591-.014-6.1.885-9.042.426-1.4,1.419-2.593,1.684-4.026.351-1.911-.645-3.778-1.031-5.667-.4-1.951-.183-4.1-1.225-5.8a5.962,5.962,0,0,0-3.694-2.472,28.487,28.487,0,0,0-4.048-.364C536.108,203.023,534.91,202.467,533.655,202.265Z" transform="translate(-398.649 -169.704)" opacity="0.1"/>
    <path id="Path_2094" data-name="Path 2094" d="M533.655,200.815a4.784,4.784,0,0,0-2.032,0c-2.121.586-2.787,3.26-4.425,4.728-.588.54-1.314.9-1.848,1.487a4.86,4.86,0,0,0-.939,3.98c.2,1.4.742,2.717,1.079,4.085a14.133,14.133,0,0,1,.375,4.188,2.464,2.464,0,0,1-.362,1.325c-.391.54-1.112.71-1.619,1.141-1.549,1.333-.27,4.1-1.406,5.8-.488.737-1.4,1.222-1.589,2.086a2.856,2.856,0,0,0,.424,1.794,12.994,12.994,0,0,0,2.7,4.115,12.654,12.654,0,0,0,4.245,2.226c.456.17,1.028.318,1.376-.019.429-.421.105-1.133-.192-1.654a3.516,3.516,0,0,1-.561-2.7c.275-.912,1.158-1.517,1.751-2.277,1.53-1.97,1.028-4.8.27-7.172a5.573,5.573,0,0,1-.41-3.084c.116-.437.345-.834.491-1.263.648-1.911-.44-4.007-.121-6a8.616,8.616,0,0,1,.809-2.232l1.714-3.683a3.64,3.64,0,0,1,.758-1.193,2.7,2.7,0,0,1,1.889-.588,5.127,5.127,0,0,1,3.678,1.676c1.835,2.04,1.719,5.127,1.5,7.847l-.159,1.964a7.188,7.188,0,0,1-1.16,4.023c-.693.853-1.813,1.433-2.1,2.5-.248.915.219,1.908-.027,2.823-.367,1.368-2.056,1.862-2.949,2.968a3.036,3.036,0,0,0-.221,3.414c.34.54.882,1.079.81,1.714-.062.51-.521.923-.518,1.436a1.141,1.141,0,0,0,.828.99,3.346,3.346,0,0,0,1.368.065l4.838-.437a1.7,1.7,0,0,0,.861-.237,1.515,1.515,0,0,0,.494-1.1c.194-1.722-.27-3.6.591-5.108.27-.483.667-.885.966-1.349,1.651-2.59-.014-6.1.885-9.042.426-1.4,1.419-2.593,1.684-4.026.351-1.911-.645-3.778-1.031-5.667-.4-1.951-.183-4.1-1.225-5.8a5.962,5.962,0,0,0-3.694-2.472,28.489,28.489,0,0,0-4.048-.364C536.108,201.576,534.91,201.02,533.655,200.815Z" transform="translate(-398.649 -168.64)" fill="#464353"/>
    <path id="Path_2095" data-name="Path 2095" d="M529.75,363.015s3.9,1.171,9.558-1.365h2.922s.194,2.731,7.8,1.56" transform="translate(-405.137 -286.518)" opacity="0.1"/>
    <ellipse id="Ellipse_150" data-name="Ellipse 150" cx="143.475" cy="13.222" rx="143.475" ry="13.222" transform="translate(0 180.993)" fill="#7dc4a6" opacity="0.1"/>
    <rect id="Rectangle_1763" data-name="Rectangle 1763" width="21.588" height="8.095" rx="4.048" transform="translate(67.275 68.925)" fill="#7dc4a6" opacity="0.1"/>
    <rect id="Rectangle_1764" data-name="Rectangle 1764" width="21.588" height="8.095" rx="4.048" transform="translate(76.886 77.738)" fill="#7dc4a6" opacity="0.1"/>
    <rect id="Rectangle_1765" data-name="Rectangle 1765" width="21.588" height="8.095" rx="4.048" transform="translate(160.98 69.459)" fill="#7dc4a6" opacity="0.1"/>
    <rect id="Rectangle_1766" data-name="Rectangle 1766" width="21.588" height="8.095" rx="4.048" transform="translate(170.591 78.272)" fill="#7dc4a6" opacity="0.1"/>
    <rect id="Rectangle_1767" data-name="Rectangle 1767" width="21.588" height="8.095" rx="4.048" transform="translate(60.601 86.551)" fill="#7dc4a6" opacity="0.1"/>
    <rect id="Rectangle_1768" data-name="Rectangle 1768" width="21.588" height="8.095" rx="4.048" transform="translate(81.958 117.798)" fill="#7dc4a6" opacity="0.1"/>
    <rect id="Rectangle_1769" data-name="Rectangle 1769" width="21.588" height="8.095" rx="4.048" transform="translate(91.569 126.612)" fill="#7dc4a6" opacity="0.1"/>
    <rect id="Rectangle_1770" data-name="Rectangle 1770" width="21.588" height="8.095" rx="4.048" transform="translate(75.284 135.425)" fill="#7dc4a6" opacity="0.1"/>
    <rect id="Rectangle_1771" data-name="Rectangle 1771" width="21.588" height="8.095" rx="4.048" transform="translate(167.921 140.232)" fill="#7dc4a6" opacity="0.1"/>
    <rect id="Rectangle_1772" data-name="Rectangle 1772" width="21.588" height="8.095" rx="4.048" transform="translate(151.636 149.045)" fill="#7dc4a6" opacity="0.1"/>
    <g id="Group_1492" data-name="Group 1492" transform="translate(240.072 102.313)" opacity="0.1">
      <path id="Path_2096" data-name="Path 2096" d="M1005.694,577.619s-3.907-19.8,4.139-33.364a30.573,30.573,0,0,0,4.218-18.873,51.42,51.42,0,0,0-1.889-9.213" transform="translate(-993.554 -502.897)" fill="none" stroke="#535461" stroke-miterlimit="10" stroke-width="0.5"/>
      <path id="Path_2097" data-name="Path 2097" d="M1027.671,471.676c-.216,2.361-5.127,8.819-5.127,8.819s-3.648-7.243-3.43-9.606a4.3,4.3,0,1,1,8.555.785Z" transform="translate(-1004.039 -466.984)" fill="#7dc4a6"/>
      <path id="Path_2098" data-name="Path 2098" d="M1047.994,516.072c-1.465,1.865-9.094,4.62-9.094,4.62s.874-8.063,2.34-9.928a4.3,4.3,0,1,1,6.746,5.308Z" transform="translate(-1018.492 -497.645)" fill="#7dc4a6"/>
      <path id="Path_2099" data-name="Path 2099" d="M1036.291,595.56c-2.207.869-10.181-.6-10.181-.6s4.825-6.519,7.032-7.388a4.3,4.3,0,1,1,3.149,7.993Z" transform="translate(-1009.154 -554.809)" fill="#7dc4a6"/>
      <path id="Path_2100" data-name="Path 2100" d="M1015.678,657.587c-2.029,1.23-10.138,1.125-10.138,1.125s3.654-7.24,5.683-8.47a4.3,4.3,0,1,1,4.456,7.346Z" transform="translate(-994.134 -600.335)" fill="#7dc4a6"/>
      <path id="Path_2101" data-name="Path 2101" d="M1002.663,531.815c1.543,1.8,9.28,4.231,9.28,4.231s-1.214-8.02-2.755-9.82a4.3,4.3,0,1,0-6.525,5.589Z" transform="translate(-991.279 -509.144)" fill="#7dc4a6"/>
      <path id="Path_2102" data-name="Path 2102" d="M976.653,601.337c2.01,1.258,10.122,1.26,10.122,1.26s-3.557-7.286-5.57-8.546a4.3,4.3,0,1,0-4.553,7.286Z" transform="translate(-971.567 -559.286)" fill="#7dc4a6"/>
      <path id="Path_2103" data-name="Path 2103" d="M964.818,675.157c1.77,1.579,9.763,2.955,9.763,2.955s-2.275-7.785-4.048-9.364a4.3,4.3,0,1,0-5.715,6.409Z" transform="translate(-963.273 -613.436)" fill="#7dc4a6"/>
    </g>
    <g id="Group_1493" data-name="Group 1493" transform="translate(212.483 132.825)" opacity="0.1">
      <path id="Path_2104" data-name="Path 2104" d="M881.253,638.507s-2.1-10.629,2.221-17.915a16.418,16.418,0,0,0,2.264-10.135,27.607,27.607,0,0,0-1.009-4.946" transform="translate(-874.809 -598.516)" fill="none" stroke="#535461" stroke-miterlimit="10" stroke-width="0.5"/>
      <path id="Path_2105" data-name="Path 2105" d="M893.052,581.976c-.116,1.268-2.752,4.736-2.752,4.736s-1.959-3.888-1.843-5.157a2.307,2.307,0,0,1,4.587.421Z" transform="translate(-880.437 -579.591)" fill="#7dc4a6"/>
      <path id="Path_2106" data-name="Path 2106" d="M903.954,605.809c-.788,1-4.884,2.48-4.884,2.48s.47-4.318,1.257-5.329a2.307,2.307,0,0,1,3.627,2.85Z" transform="translate(-888.19 -596.049)" fill="#7dc4a6"/>
      <path id="Path_2107" data-name="Path 2107" d="M897.677,648.223c-1.185.467-5.467-.324-5.467-.324s2.591-3.508,3.778-3.967a2.307,2.307,0,0,1,1.692,4.291Z" transform="translate(-883.181 -626.471)" fill="#7dc4a6"/>
      <path id="Path_2108" data-name="Path 2108" d="M886.613,681.343c-1.079.661-5.443.6-5.443.6s1.962-3.888,3.052-4.55a2.307,2.307,0,1,1,2.391,3.945Z" transform="translate(-875.12 -650.74)" fill="#7dc4a6"/>
      <path id="Path_2109" data-name="Path 2109" d="M879.613,613.915c.828.969,4.984,2.272,4.984,2.272s-.65-4.317-1.479-5.273a2.308,2.308,0,0,0-3.508,3Z" transform="translate(-873.577 -601.872)" fill="#7dc4a6"/>
      <path id="Path_2110" data-name="Path 2110" d="M865.654,651.24c1.079.675,5.435.677,5.435.677s-1.911-3.913-2.99-4.587a2.307,2.307,0,1,0-2.445,3.913Z" transform="translate(-862.999 -628.795)" fill="#7dc4a6"/>
      <path id="Path_2111" data-name="Path 2111" d="M859.508,691.016c.95.847,5.243,1.587,5.243,1.587s-1.22-4.18-2.159-5.027a2.307,2.307,0,1,0-3.071,3.443Z" transform="translate(-858.75 -658.009)" fill="#7dc4a6"/>
    </g>
    <g id="Group_1494" data-name="Group 1494" transform="translate(43.458 134.438)" opacity="0.1">
      <path id="Path_2112" data-name="Path 2112" d="M248.253,644.507s-2.1-10.629,2.221-17.915a16.417,16.417,0,0,0,2.264-10.135,27.61,27.61,0,0,0-1.009-4.946" transform="translate(-241.809 -604.516)" fill="none" stroke="#535461" stroke-miterlimit="10" stroke-width="0.5"/>
      <path id="Path_2113" data-name="Path 2113" d="M260.052,587.977c-.116,1.268-2.752,4.736-2.752,4.736s-1.959-3.888-1.843-5.157a2.307,2.307,0,0,1,4.587.421Z" transform="translate(-247.437 -585.592)" fill="#7dc4a6"/>
      <path id="Path_2114" data-name="Path 2114" d="M270.954,611.809c-.788,1-4.884,2.48-4.884,2.48s.47-4.318,1.257-5.329a2.307,2.307,0,0,1,3.627,2.85Z" transform="translate(-255.19 -602.049)" fill="#7dc4a6"/>
      <path id="Path_2115" data-name="Path 2115" d="M264.677,654.223c-1.185.467-5.467-.324-5.467-.324s2.59-3.508,3.778-3.967a2.307,2.307,0,0,1,1.692,4.291Z" transform="translate(-250.181 -632.471)" fill="#7dc4a6"/>
      <path id="Path_2116" data-name="Path 2116" d="M253.613,687.342c-1.079.661-5.443.6-5.443.6s1.962-3.888,3.052-4.55a2.307,2.307,0,1,1,2.391,3.945Z" transform="translate(-242.12 -656.74)" fill="#7dc4a6"/>
      <path id="Path_2117" data-name="Path 2117" d="M246.613,619.915c.828.969,4.984,2.272,4.984,2.272s-.65-4.317-1.479-5.273a2.308,2.308,0,1,0-3.508,3Z" transform="translate(-240.577 -607.872)" fill="#7dc4a6"/>
      <path id="Path_2118" data-name="Path 2118" d="M232.654,657.24c1.079.675,5.435.677,5.435.677s-1.91-3.913-2.99-4.587a2.307,2.307,0,1,0-2.445,3.913Z" transform="translate(-229.999 -634.795)" fill="#7dc4a6"/>
      <path id="Path_2119" data-name="Path 2119" d="M226.508,697.016c.95.847,5.243,1.587,5.243,1.587s-1.22-4.18-2.159-5.027a2.307,2.307,0,1,0-3.071,3.443Z" transform="translate(-225.75 -664.009)" fill="#7dc4a6"/>
    </g>
  </g>
</svg>
