<svg id="Order_Enroute_" data-name="Order Enroute " xmlns="http://www.w3.org/2000/svg" width="300" height="230" viewBox="0 0 300 230">
  <path id="Path_1814" data-name="Path 1814" d="M425.991,107.563a72.977,72.977,0,0,0-11.9-18.942L248.976,87,384.921,67.924a77.3,77.3,0,0,0-27.584-5.465,77.378,77.378,0,0,0-92.349-3.121,77.047,77.047,0,0,0-35.344-8.512c-36.687,0-67.257,25.382-74.113,59.038Z" transform="translate(-131.79 -45.556)" fill="#7dc4a6" opacity="0.1"/>
  <path id="Path_1815" data-name="Path 1815" d="M371.86,296.332a71.24,71.24,0,0,0-5.143-26.642l-286.134,30a71.74,71.74,0,0,0-6.694,16.913L162.5,329.8,71.86,339.422c2.727,38.1,35.422,68.189,75.364,68.189a76.511,76.511,0,0,0,51.912-20.057,76.509,76.509,0,0,0,52.347,20.46c30.154,0,56.178-17.151,68.3-41.949,24.315-7.709,43.2-27.065,49.666-51.281L257.39,297.422H371.849C371.854,297.059,371.86,296.7,371.86,296.332Z" transform="translate(-71.86 -205.604)" fill="#7dc4a6" opacity="0.1"/>
  <ellipse id="Ellipse_86" data-name="Ellipse 86" cx="7.326" cy="1.007" rx="7.326" ry="1.007" transform="translate(0.65 209.103)" fill="#7dc4a6" opacity="0.1"/>
  <ellipse id="Ellipse_87" data-name="Ellipse 87" cx="7.326" cy="1.007" rx="7.326" ry="1.007" transform="translate(28.713 211.949)" fill="#7dc4a6" opacity="0.1"/>
  <ellipse id="Ellipse_88" data-name="Ellipse 88" cx="7.326" cy="1.007" rx="7.326" ry="1.007" transform="translate(61.836 208.096)" fill="#7dc4a6" opacity="0.1"/>
  <ellipse id="Ellipse_89" data-name="Ellipse 89" cx="5.209" cy="0.715" rx="5.209" ry="0.715" transform="translate(19.597 220.345)" fill="#7dc4a6" opacity="0.1"/>
  <ellipse id="Ellipse_90" data-name="Ellipse 90" cx="5.209" cy="0.715" rx="5.209" ry="0.715" transform="translate(48.728 219.63)" fill="#7dc4a6" opacity="0.1"/>
  <path id="Path_1816" data-name="Path 1816" d="M189.023,653.138s-10.277-33.684,1.606-47.176c8.892-10.1,18.982-8.886,23.5-7.638a8.353,8.353,0,0,1,5.391,4.48c1.58,3.4,1.294,8.94-9.86,15.4-18.675,10.813-19.836,25.644-19.836,25.644Z" transform="translate(-152.825 -440.409)" fill="#7dc4a6"/>
  <path id="Path_1817" data-name="Path 1817" d="M220.433,617.23s-30.291,9.471-23.5,50.036" transform="translate(-160.736 -454.536)" fill="none" stroke="#565987" stroke-miterlimit="10" stroke-width="0.5"/>
  <path id="Path_1818" data-name="Path 1818" d="M219.91,629.2s4.171,2.809,2.837,7.034" transform="translate(-177.904 -463.236)" fill="none" stroke="#565987" stroke-miterlimit="10" stroke-width="0.5"/>
  <path id="Path_1819" data-name="Path 1819" d="M257.282,633.977s-2.554-2.593-5.652-1.163" transform="translate(-200.624 -465.523)" fill="none" stroke="#565987" stroke-miterlimit="10" stroke-width="0.5"/>
  <path id="Path_1820" data-name="Path 1820" d="M215.125,681.83s-4.477-2.27-5.635.567" transform="translate(-170.44 -500.295)" fill="none" stroke="#565987" stroke-miterlimit="10" stroke-width="0.5"/>
  <path id="Path_1821" data-name="Path 1821" d="M190.3,700.638s3.362-.267,3.425,1.342" transform="translate(-156.695 -514.267)" fill="none" stroke="#565987" stroke-miterlimit="10" stroke-width="0.5"/>
  <path id="Path_1822" data-name="Path 1822" d="M198,734.055s12.036-24.483,15.341-23.947c1.569.255,2.293,1.8,2.622,3.351a9.874,9.874,0,0,1-.655,5.975C213.605,723.336,209,730.783,198,734.055Z" transform="translate(-162.21 -521.056)" fill="#7dc4a6"/>
  <path id="Path_1823" data-name="Path 1823" d="M213.672,726.51S201.04,744.828,198.6,745.631" transform="translate(-162.64 -532.81)" fill="none" stroke="#565987" stroke-miterlimit="10" stroke-width="0.5"/>
  <line id="Line_107" data-name="Line 107" x1="2.948" transform="translate(49.247 196.557)" fill="none" stroke="#565987" stroke-miterlimit="10" stroke-width="0.5"/>
  <line id="Line_108" data-name="Line 108" x1="4.619" y2="0.199" transform="translate(44.043 203.258)" fill="none" stroke="#565987" stroke-miterlimit="10" stroke-width="0.5"/>
  <line id="Line_109" data-name="Line 109" x2="0.502" y2="2.406" transform="translate(45.851 197.899)" fill="none" stroke="#565987" stroke-miterlimit="10" stroke-width="0.5"/>
  <line id="Line_110" data-name="Line 110" x2="0.091" y2="2.188" transform="translate(40.937 205.225)" fill="none" stroke="#565987" stroke-miterlimit="10" stroke-width="0.5"/>
  <path id="Path_1824" data-name="Path 1824" d="M153.392,734.055s-12.036-24.483-15.341-23.947c-1.569.255-2.293,1.8-2.622,3.351a9.854,9.854,0,0,0,.658,5.958C137.792,723.336,142.38,730.783,153.392,734.055Z" transform="translate(-117.253 -521.056)" fill="#7dc4a6"/>
  <path id="Path_1825" data-name="Path 1825" d="M145.48,726.51s12.632,18.318,15.072,19.121" transform="translate(-124.592 -532.81)" fill="none" stroke="#565987" stroke-miterlimit="10" stroke-width="0.5"/>
  <line id="Line_111" data-name="Line 111" x2="2.948" transform="translate(19.728 196.557)" fill="none" stroke="#565987" stroke-miterlimit="10" stroke-width="0.5"/>
  <line id="Line_112" data-name="Line 112" x2="4.622" y2="0.199" transform="translate(23.257 203.258)" fill="none" stroke="#565987" stroke-miterlimit="10" stroke-width="0.5"/>
  <line id="Line_113" data-name="Line 113" x1="0.502" y2="2.406" transform="translate(25.57 197.899)" fill="none" stroke="#565987" stroke-miterlimit="10" stroke-width="0.5"/>
  <line id="Line_114" data-name="Line 114" x1="0.091" y2="2.188" transform="translate(30.895 205.225)" fill="none" stroke="#565987" stroke-miterlimit="10" stroke-width="0.5"/>
  <path id="Path_1826" data-name="Path 1826" d="M255.244,806.325a2.089,2.089,0,0,0,.687-1.033.919.919,0,0,0-.48-1.053c-.44-.17-.911.136-1.265.443a1.7,1.7,0,0,1-1.231.6,1.875,1.875,0,0,0,.567-1.753.732.732,0,0,0-.159-.358c-.244-.261-.687-.148-.979.057a3.643,3.643,0,0,0-1.195,3.053,5.811,5.811,0,0,1-.017-1.257,1.284,1.284,0,0,0-.474-1.112,1.385,1.385,0,0,0-.718-.17,1.547,1.547,0,0,0-1.169.332,1.162,1.162,0,0,0,.045,1.436,4.575,4.575,0,0,0,1.209.967,2.7,2.7,0,0,1,.851.823.852.852,0,0,1,.062.148H253.6A7.261,7.261,0,0,0,255.244,806.325Z" transform="translate(-198.442 -587.609)" fill="#7dc4a6"/>
  <path id="Path_1827" data-name="Path 1827" d="M93.61,771.573a2.083,2.083,0,0,0,.687-1.033.925.925,0,0,0-.48-1.055c-.44-.167-.908.139-1.265.445a1.7,1.7,0,0,1-1.231.593,1.867,1.867,0,0,0,.567-1.753.74.74,0,0,0-.162-.355c-.244-.261-.687-.15-.979.057a3.643,3.643,0,0,0-1.195,3.053,5.836,5.836,0,0,1-.017-1.26,1.276,1.276,0,0,0-.471-1.109,1.4,1.4,0,0,0-.721-.17,1.484,1.484,0,0,0-1.169.332,1.141,1.141,0,0,0,.045,1.419,4.5,4.5,0,0,0,1.212.97,2.659,2.659,0,0,1,.851.823,1.011,1.011,0,0,1,.065.148h2.619a7.309,7.309,0,0,0,1.643-1.1Z" transform="translate(-82.666 -562.716)" fill="#7dc4a6"/>
  <path id="Path_1828" data-name="Path 1828" d="M147.484,806.325a2.089,2.089,0,0,0,.687-1.033.919.919,0,0,0-.479-1.053c-.44-.17-.911.136-1.265.443a1.7,1.7,0,0,1-1.231.6,1.875,1.875,0,0,0,.567-1.753.732.732,0,0,0-.159-.358c-.244-.261-.687-.148-.979.057a3.644,3.644,0,0,0-1.195,3.053,5.811,5.811,0,0,1-.017-1.257,1.282,1.282,0,0,0-.471-1.112,1.4,1.4,0,0,0-.721-.17,1.551,1.551,0,0,0-1.169.332,1.162,1.162,0,0,0,.045,1.436,4.572,4.572,0,0,0,1.209.968,2.7,2.7,0,0,1,.851.823.852.852,0,0,1,.062.147h2.619A7.261,7.261,0,0,0,147.484,806.325Z" transform="translate(-121.256 -587.609)" fill="#7dc4a6"/>
  <path id="Path_1829" data-name="Path 1829" d="M310.252,744.43s.982,1.285-.454,3.223-2.616,3.575-2.139,4.784c0,0,2.165-3.6,3.927-3.652S312.19,746.595,310.252,744.43Z" transform="translate(-240.61 -545.646)" fill="#7dc4a6"/>
  <path id="Path_1830" data-name="Path 1830" d="M310.394,744.43a1.628,1.628,0,0,1,.2.4c1.719,2.02,2.633,3.9.982,3.952-1.541.045-3.385,2.8-3.828,3.493.014.054.031.1.051.159,0,0,2.165-3.6,3.927-3.652S312.332,746.595,310.394,744.43Z" transform="translate(-240.752 -545.646)" opacity="0.1"/>
  <path id="Path_1831" data-name="Path 1831" d="M322.927,749.472c0,.451-.051.817-.113.817s-.113-.366-.113-.817.065-.238.128-.238S322.927,749.021,322.927,749.472Z" transform="translate(-251.457 -549.051)" fill="#ffd037"/>
  <path id="Path_1832" data-name="Path 1832" d="M323.757,751.307c-.4.216-.743.346-.772.284s.267-.284.664-.491.238-.06.27,0S324.154,751.092,323.757,751.307Z" transform="translate(-251.66 -550.347)" fill="#ffd037"/>
  <path id="Path_1833" data-name="Path 1833" d="M293.237,744.43s-.982,1.285.454,3.223,2.619,3.575,2.139,4.784c0,0-2.165-3.6-3.927-3.652S291.31,746.595,293.237,744.43Z" transform="translate(-228.786 -545.646)" fill="#7dc4a6"/>
  <path id="Path_1834" data-name="Path 1834" d="M293.237,744.43a1.576,1.576,0,0,0-.2.4c-1.719,2.02-2.636,3.9-.985,3.952,1.541.045,3.388,2.8,3.83,3.493-.017.054-.034.1-.054.159,0,0-2.165-3.6-3.927-3.652S291.31,746.595,293.237,744.43Z" transform="translate(-228.786 -545.646)" opacity="0.1"/>
  <path id="Path_1835" data-name="Path 1835" d="M292.36,749.472c0,.451.051.817.113.817s.113-.366.113-.817-.062-.238-.125-.238S292.36,749.021,292.36,749.472Z" transform="translate(-229.734 -549.051)" fill="#ffd037"/>
  <path id="Path_1836" data-name="Path 1836" d="M289.518,751.307c.4.216.743.346.775.284s-.27-.284-.664-.491-.241-.06-.284,0S289.124,751.092,289.518,751.307Z" transform="translate(-227.52 -550.347)" fill="#ffd037"/>
  <path id="Path_1837" data-name="Path 1837" d="M293.46,768.306s2.746-.082,3.572-.672,4.222-1.294,4.429-.349,4.123,4.7,1.024,4.724-7.2-.482-8.024-.984S293.46,768.306,293.46,768.306Z" transform="translate(-230.52 -561.685)" fill="#a8a8a8"/>
  <path id="Path_1838" data-name="Path 1838" d="M302.542,775.416c-3.1.026-7.2-.482-8.027-.984-.63-.383-.88-1.756-.962-2.392h-.094s.176,2.216,1,2.718,4.926,1.01,8.024.984c.9,0,1.2-.326,1.186-.8C303.544,775.235,303.206,775.411,302.542,775.416Z" transform="translate(-230.52 -565.422)" opacity="0.2"/>
  <ellipse id="Ellipse_91" data-name="Ellipse 91" cx="93.466" cy="4.239" rx="93.466" ry="4.239" transform="translate(80.589 221.522)" fill="#7dc4a6" opacity="0.1"/>
  <path id="Path_1839" data-name="Path 1839" d="M624.87,389.975s5.958,11.273,6.421,12.881a2.173,2.173,0,0,0,2.009,1.606s5.936,1.419,7.354,1.609S654.37,407.3,654.37,407.3s3.121.1,3.5-1.038c.346-1.038,6.375-6.495,9.865-1.734a3.47,3.47,0,0,1,.505,3.1c-.641,2.043-1.958,5.286-3.371,3.269-1.986-2.837-4.3-2.04-4.3-.528s-3.178.951-4.216,1.163c-.568.116-2.52.635-4.208,1.089a30.646,30.646,0,0,1-5.992,1c-3.351.218-8.291.4-10.041-.261a27.258,27.258,0,0,0-7.377-1.03,2.426,2.426,0,0,1-1.439-.516,22.441,22.441,0,0,1-5.462-6.211c-2.46-4.256-7.519-13.069-7.178-15.622S624.87,389.975,624.87,389.975Z" transform="translate(-460.45 -291.205)" fill="#efb7b9"/>
  <path id="Path_1840" data-name="Path 1840" d="M624.87,389.975s5.958,11.273,6.421,12.881a2.173,2.173,0,0,0,2.009,1.606s5.936,1.419,7.354,1.609S654.37,407.3,654.37,407.3s3.121.1,3.5-1.038c.346-1.038,6.375-6.495,9.865-1.734a3.47,3.47,0,0,1,.505,3.1c-.641,2.043-1.958,5.286-3.371,3.269-1.986-2.837-4.3-2.04-4.3-.528s-3.178.951-4.216,1.163c-.568.116-2.52.635-4.208,1.089a30.646,30.646,0,0,1-5.992,1c-3.351.218-8.291.4-10.041-.261a27.258,27.258,0,0,0-7.377-1.03,2.426,2.426,0,0,1-1.439-.516,22.441,22.441,0,0,1-5.462-6.211c-2.46-4.256-7.519-13.069-7.178-15.622S624.87,389.975,624.87,389.975Z" transform="translate(-460.45 -291.205)" opacity="0.05"/>
  <path id="Path_1841" data-name="Path 1841" d="M839.183,564.071c-2.7,2.934-4.684,4.089-4.591.993.284-9.363-16.173-51.7-16.173-51.7l4.866-.369C833.906,531.3,837.855,550.115,839.183,564.071Z" transform="translate(-606.369 -380)" fill="none"/>
  <path id="Path_1842" data-name="Path 1842" d="M855.225,705.857a23.408,23.408,0,0,1-46.727,1.986c-.034-.38-.06-.76-.071-1.135v-.02q-.017-.423-.017-.851a23.408,23.408,0,1,1,46.815,0Z" transform="translate(-599.127 -501.237)" fill="#65617d"/>
  <circle id="Ellipse_92" data-name="Ellipse 92" cx="12.768" cy="12.768" r="12.768" transform="translate(219.863 191.838)" fill="#dce0ed"/>
  <circle id="Ellipse_93" data-name="Ellipse 93" cx="7.661" cy="7.661" r="7.661" transform="translate(224.967 196.945)" fill="#65617d"/>
  <path id="Path_1843" data-name="Path 1843" d="M531.956,564.882l-56.366,1.135v-8.308c.505-6.687,7.377-9.034,13.619-9.769a39.091,39.091,0,0,1,14.564,1.092c11.959,3.166,19.577,3.779,23.331,3.839a3.578,3.578,0,0,1,3.461,2.911c.179.95.355,1.986.519,3.008.125.8.244,1.589.352,2.324C531.749,563.23,531.956,564.882,531.956,564.882Z" transform="translate(-360.898 -404.888)" fill="#65617d"/>
  <path id="Path_1844" data-name="Path 1844" d="M525.611,585.984H408.518a4.611,4.611,0,0,1-4.27-2.761c-.882-2.108.352-3.453,1.668-4.242a13.264,13.264,0,0,0,5.765-7.053c1.248-3.688,2.468-9.46,2.948-18.477.494-9.326,3.87-13.937,7.519-16.173h0a14.887,14.887,0,0,1,9.879-1.8l47.477.38a9.125,9.125,0,0,1,2.318,1.512c4.23,3.938-1.938,9.079-1.938,9.079-13.242,14-3.217,28.183-3.217,28.183H500.96a22.356,22.356,0,0,0,12.725-3.9c3.283-2.27,4.54-4.463,5.045-5.791.375-1.016.755-2.029,1.209-3.01,6.373-13.821-1.314-36.3-4.63-44.71-.823-2.091-1.376-3.311-1.376-3.311l7.618-.568,4.823-.366h.048c10.617,18.312,14.564,37.129,15.889,51.071.125,1.314.227,2.588.309,3.81a17.024,17.024,0,0,1-17.01,18.122Z" transform="translate(-309.55 -379.865)" fill="#8eb44a"/>
  <path id="Path_1845" data-name="Path 1845" d="M531.439,589.134H475.59V586.81h55.5C531.212,587.6,531.332,588.385,531.439,589.134Z" transform="translate(-360.898 -432.907)" opacity="0.1"/>
  <path id="Path_1846" data-name="Path 1846" d="M527.774,593.721H468.548a1.135,1.135,0,0,1-.448-.091,14.887,14.887,0,0,1,9.879-1.8l47.477.38A9.125,9.125,0,0,1,527.774,593.721Z" transform="translate(-355.534 -436.357)" opacity="0.1"/>
  <rect id="Rectangle_1695" data-name="Rectangle 1695" width="82.764" height="2.324" rx="1.162" transform="translate(91.116 154.457)" fill="#dce0ed"/>
  <path id="Path_1847" data-name="Path 1847" d="M839.183,564.071c-2.7,2.934-4.684,4.089-4.591.993.284-9.363-16.173-51.7-16.173-51.7l4.866-.369C833.906,531.3,837.855,550.115,839.183,564.071Z" transform="translate(-606.369 -380)" opacity="0.1"/>
  <path id="Path_1848" data-name="Path 1848" d="M855.134,703.349c-2.795.67-6.242,1.351-10.5,1.986q-2.375.349-5.107.67c-4.35.516-9.38.968-15.191,1.314q-2.468.148-5.127.27-4.98.227-10.66.346l-.071-1.135v-.02c5.292-2.136,13.619-7.837,14.958-22.684a23.419,23.419,0,0,1,31.7,19.277Z" transform="translate(-599.177 -501.308)" opacity="0.1"/>
  <path id="Path_1849" data-name="Path 1849" d="M792.92,659.566s26.869-2.917,17.614-43.856c0,0,13.276,12.172,21.535,18.936s22.982,16.09,22.982,16.09S846.261,658.95,792.92,659.566Z" transform="translate(-588.032 -453.448)" fill="#8eb44a"/>
  <path id="Path_1850" data-name="Path 1850" d="M792.92,659.566s26.869-2.917,17.614-43.856c0,0,13.276,12.172,21.535,18.936s22.982,16.09,22.982,16.09S846.261,658.95,792.92,659.566Z" transform="translate(-588.032 -453.448)" fill="#fff" opacity="0.1"/>
  <circle id="Ellipse_94" data-name="Ellipse 94" cx="23.408" cy="23.408" r="23.408" transform="translate(109.525 181.198)" fill="#65617d"/>
  <circle id="Ellipse_95" data-name="Ellipse 95" cx="12.768" cy="12.768" r="12.768" transform="translate(120.167 191.838)" fill="#dce0ed"/>
  <circle id="Ellipse_96" data-name="Ellipse 96" cx="7.661" cy="7.661" r="7.661" transform="translate(125.275 196.945)" fill="#65617d"/>
  <path id="Path_1851" data-name="Path 1851" d="M497.045,671.078c0-15.114-12-27.369-26.812-27.369s-26.812,12.254-26.812,27.369q0,.959.065,1.9H496.98Q497.045,672.038,497.045,671.078Z" transform="translate(-337.868 -473.503)" opacity="0.1"/>
  <path id="Path_1852" data-name="Path 1852" d="M498.559,671.976c0-14.555-11.559-26.356-25.819-26.356s-25.819,11.8-25.819,26.356c0,.616.023,1.223.062,1.827H498.5C498.536,673.2,498.559,672.591,498.559,671.976Z" transform="translate(-340.375 -474.871)" fill="#8eb44a"/>
  <path id="Path_1853" data-name="Path 1853" d="M498.559,671.976c0,.423,0,.851-.031,1.26,0,.19-.02.377-.031.567H446.982c0-.19-.023-.377-.031-.567-.02-.417-.031-.851-.031-1.26,0-14.555,11.559-26.356,25.819-26.356S498.559,657.42,498.559,671.976Z" transform="translate(-340.375 -474.871)" fill="#fff" opacity="0.1"/>
  <path id="Path_1854" data-name="Path 1854" d="M498.606,743c0,.19-.02.377-.031.568H447.061c0-.19-.023-.377-.031-.568Z" transform="translate(-340.454 -544.622)" opacity="0.1"/>
  <rect id="Rectangle_1696" data-name="Rectangle 1696" width="69.366" height="6.052" rx="3.026" transform="translate(95.245 199.499)" opacity="0.1"/>
  <rect id="Rectangle_1697" data-name="Rectangle 1697" width="69.366" height="6.052" rx="3.026" transform="translate(95.245 198.932)" fill="#dce0ed"/>
  <ellipse id="Ellipse_97" data-name="Ellipse 97" cx="3.399" cy="8.557" rx="3.399" ry="8.557" transform="translate(218.047 145.103) rotate(-24.33)" opacity="0.1"/>
  <ellipse id="Ellipse_98" data-name="Ellipse 98" cx="3.399" cy="8.557" rx="3.399" ry="8.557" transform="translate(218.331 144.818) rotate(-24.33)" fill="#dce0ed"/>
  <path id="Path_1855" data-name="Path 1855" d="M804.026,513v4.446h-8.654a14.908,14.908,0,0,1-2.406-.193c-.823-2.091-1.376-3.311-1.376-3.311l7.618-.567Z" transform="translate(-587.167 -380.082)" opacity="0.1"/>
  <path id="Path_1856" data-name="Path 1856" d="M778.835,459.53h-8.654c-7.6,0-13.761-5.675-13.761-12.7V445.65c0-7.014,6.16-12.7,13.761-12.7l8.654.786Z" transform="translate(-561.978 -322.768)" fill="#9abc5c"/>
  <path id="Path_1857" data-name="Path 1857" d="M761.712,458.734s5.178,2.766,2.2,7.448c0,0-3.655,5.992-9.4,5.425l-2.091-12.873S759.3,458.1,761.712,458.734Z" transform="translate(-559.122 -341.033)" fill="#9abc5c"/>
  <path id="Path_1858" data-name="Path 1858" d="M759.738,458.475a5.5,5.5,0,0,1,4.211,2.219,4.535,4.535,0,0,1-.017,5.479s-3.654,5.992-9.4,5.425l-2.091-12.873A61.044,61.044,0,0,1,759.738,458.475Z" transform="translate(-559.136 -341.024)" opacity="0.1"/>
  <path id="Path_1859" data-name="Path 1859" d="M762.56,390.17h1.668a5.283,5.283,0,0,1,5.283,5.283v15.231a5.283,5.283,0,0,1-5.283,5.283H762.56Z" transform="translate(-545.976 -279.201)" opacity="0.1"/>
  <path id="Path_1860" data-name="Path 1860" d="M763.56,390.17h1.668a5.283,5.283,0,0,1,5.283,5.283v15.231a5.283,5.283,0,0,1-5.283,5.283H763.56Z" transform="translate(-546.692 -279.201)" fill="#dce0ed"/>
  <path id="Path_1861" data-name="Path 1861" d="M618.88,519.8s1.336.488,3.121,1.169a70.668,70.668,0,0,1,8.228,3.561c1.39.874,6.574,2.31,10.455,3.32a34.047,34.047,0,0,0,8.813,1.087c3.019-.028,6.676-.057,7.686-.057a3.17,3.17,0,0,1,.528.04c1.061.176,1.019.888.993,1.058v.037c-6.242,3.782-13.809,20.712-14.28,23.55-.355,2.128-3.473,8.027-5.011,10.847-.516.945-.851,1.544-.851,1.544l1.893,2.173,5.484,2.46,5.2,2.27s5.487.284,5.581,0,.094-3.215.094-3.215a15.493,15.493,0,0,1-1.9-1.441,31.352,31.352,0,0,1-3.5-3.572c-3.025-3.595,3.027-10.5,3.027-10.5L666.084,539s.945-1.7,5.484-8.512,0-10.5,0-10.5l-7.99-3.317c-13.857-5.187-30.572-9.343-30.572-9.343l-.238-.031-3.544-.443Z" transform="translate(-463.483 -375.482)" fill="#efb7b9"/>
  <path id="Path_1862" data-name="Path 1862" d="M699.9,716.81s.993,1.172.25,1.277a12.359,12.359,0,0,1-2.7-.318l-12.379-6.526s-1.348-.959-1.665.922-.533,1.7-.533,1.7-1.631,3.51,0,4.236,11.431,3.6,11.431,3.6,14.223,3.229,15.571-.5-2.412-3.084-2.412-3.084-4.682-1.135-6.279-3.4C701.18,714.719,698.876,715.357,699.9,716.81Z" transform="translate(-508.803 -521.7)" fill="#444053"/>
  <path id="Path_1863" data-name="Path 1863" d="M671.557,519.994l-7.99-3.317C649.71,511.491,633,507.334,633,507.334l-.238-.031-3.544-.443L618.88,519.8s1.336.488,3.121,1.169a70.659,70.659,0,0,1,8.228,3.561c1.39.874,6.574,2.31,10.455,3.32a34.05,34.05,0,0,0,8.813,1.087c3.019-.028,6.676-.057,7.686-.057a3.183,3.183,0,0,1,.528.04c1.061.176,1.019.888.993,1.058v.037c-6.242,3.782-13.809,20.712-14.28,23.55-.355,2.128-3.473,8.027-5.011,10.847l-.207.38c-.411-.068-.925.079-1.107,1.152-.321,1.878-.533,1.7-.533,1.7s-1.631,3.51,0,4.236,11.423,3.6,11.423,3.6,14.223,3.229,15.571-.5-2.412-3.084-2.412-3.084-4.682-1.135-6.279-3.4a3.125,3.125,0,0,0-.414.153c-.167-.136-.346-.284-.536-.448a31.352,31.352,0,0,1-3.5-3.572c-3.025-3.595,3.027-10.5,3.027-10.5L666.084,539s.945-1.7,5.484-8.512S671.557,519.994,671.557,519.994Z" transform="translate(-463.483 -375.482)" opacity="0.05"/>
  <path id="Path_1864" data-name="Path 1864" d="M585.3,291.088l.431.545.241.3,1.5,1.892s3.589,1.152,6.736,1.9c3.277.775,6.072,1.112,3.85-.741-1.379-1.149-1.47-3.073-.967-5.136a21.249,21.249,0,0,1,1.8-4.568q.167-.323.332-.63a37.854,37.854,0,0,1,2.338-3.776,67.143,67.143,0,0,0-6.268-3.85c-2.6-1.345-4.733-1.932-3.379.729a6.227,6.227,0,0,1-.227,5.445c-.062.145-.131.284-.2.434a19.515,19.515,0,0,1-2.678,3.941A31.108,31.108,0,0,1,585.3,291.088Z" transform="translate(-439.467 -210.382)" fill="#efb7b9"/>
  <path id="Path_1865" data-name="Path 1865" d="M569.854,436.24,571.777,438l1.858,7.15h-3.1l-3.425-4.455Z" transform="translate(-406.038 -312.191)" fill="#444053"/>
  <path id="Path_1866" data-name="Path 1866" d="M567.11,440.692l2.071,2.693,1.353,1.762h3.1l-.318-1.223-1.353-5.209-.187-.718-1.924-1.756-2.627,4.262Z" transform="translate(-406.038 -312.191)" opacity="0.1"/>
  <path id="Path_1867" data-name="Path 1867" d="M567.11,440.692l2.071,2.693,1.353,1.762h3.1l-.318-1.223-1.353-5.209-.187-.718-1.924-1.756-2.627,4.262Z" transform="translate(-406.038 -312.191)" opacity="0.1"/>
  <path id="Path_1868" data-name="Path 1868" d="M602.64,525.111s1.336.488,3.121,1.169a70.668,70.668,0,0,1,8.228,3.561c1.39.874,6.574,2.31,10.455,3.32a34.048,34.048,0,0,0,8.813,1.09c3.019-.028,6.676-.057,7.686-.057a3.177,3.177,0,0,1,.528.04c1.061.176,1.019.888.993,1.058v.037c-6.242,3.782-13.809,20.712-14.28,23.55-.355,2.128-3.473,8.027-5.011,10.847-.516.945-.851,1.544-.851,1.544l1.892,2.173L629.7,575.9l5.2,2.27s5.487.284,5.581,0,.094-3.215.094-3.215a15.5,15.5,0,0,1-1.9-1.441,31.351,31.351,0,0,1-3.5-3.572c-3.025-3.595,3.027-10.5,3.027-10.5l11.633-15.131s.945-1.7,5.484-8.512,0-10.5,0-10.5l-7.281-4.162c-11.349-6.9-27.335-10.875-27.335-10.875l-.238-.031-3.544-.443Z" transform="translate(-451.856 -377.58)" fill="#efb7b9"/>
  <path id="Path_1869" data-name="Path 1869" d="M672,722.549l1.892,2.173,5.485,2.46,5.2,2.27s5.487.284,5.581,0,.094-3.215.094-3.215a15.5,15.5,0,0,1-1.9-1.441c-.587.315-1.254.905-.61,1.819,0,0,.993,1.169.25,1.277a12.179,12.179,0,0,1-2.7-.318l-12.379-6.526-.071-.048Z" transform="translate(-501.54 -528.864)" opacity="0.1"/>
  <path id="Path_1870" data-name="Path 1870" d="M683.663,728.115s.993,1.169.247,1.277a12.113,12.113,0,0,1-2.7-.321l-12.376-6.526s-1.348-.956-1.668.922-.531,1.7-.531,1.7-1.631,3.513,0,4.239S678.06,733,678.06,733s14.221,3.226,15.568-.5-2.412-3.087-2.412-3.087-4.682-1.135-6.276-3.4C684.949,726.021,682.633,726.66,683.663,728.115Z" transform="translate(-497.176 -529.797)" fill="#444053"/>
  <path id="Path_1871" data-name="Path 1871" d="M605.3,282.471c1.64,1.135,4.142,2.931,6.279,2.931a10.468,10.468,0,0,0,1.646-.13,38.344,38.344,0,0,1,2.67-4.406s-12.484-8.7-9.647-3.121C607.184,279.6,606.262,280.51,605.3,282.471Z" transform="translate(-453.789 -210.381)" opacity="0.1"/>
  <path id="Path_1872" data-name="Path 1872" d="M591.43,245.652a10.2,10.2,0,0,0,4.656,8.569,9.38,9.38,0,0,0,1,.567,10.214,10.214,0,1,0-5.655-9.142Z" transform="translate(-443.853 -181.432)" fill="#efb7b9"/>
  <path id="Path_1873" data-name="Path 1873" d="M602.64,525.111s1.336.488,3.121,1.169a15.047,15.047,0,0,1,2.749-2.114c1.041-.38,4.446-2.366,4.352-2.934s1.419-2.741,2.741-3.121.567-2.364.567-2.364,2.554-.945,3.189-2.27,2.582-3.027,1.918-2.931a2.06,2.06,0,0,1-.806-.315l-3.544-.443Z" transform="translate(-451.88 -377.768)" opacity="0.1"/>
  <path id="Path_1874" data-name="Path 1874" d="M566.126,510.666s4.352,3.595,4.554,5.2,3.107,1.515,3.107,1.515,4.352-4.162,5.391-4.54,4.446-2.366,4.352-2.934,1.419-2.741,2.741-3.121.568-2.363.568-2.363,2.554-.945,3.189-2.27,2.582-3.027,1.918-2.931a4.808,4.808,0,0,1-1.546-.735c-.933-.567-2.117-1.336-3.081-1.986-1.021-.692-1.8-1.243-1.8-1.243s-.445-.079-1.209-.19c-4.117-.6-17.526-2.117-20.638,2.837a7.509,7.509,0,0,0-.922,2.119C561.354,505.3,566.126,510.666,566.126,510.666Z" transform="translate(-423.129 -366.728)" fill="#444053"/>
  <path id="Path_1875" data-name="Path 1875" d="M575.354,511.37s-4.443,2.508-6.1,2.508S575.354,511.37,575.354,511.37Z" transform="translate(-427.817 -378.918)" opacity="0.1"/>
  <path id="Path_1876" data-name="Path 1876" d="M585.063,517.981s-6.617,2.224-6.617,3.972S577.828,517.272,585.063,517.981Z" transform="translate(-434.556 -383.608)" opacity="0.1"/>
  <path id="Path_1877" data-name="Path 1877" d="M657.394,482.81l-.094.128A.283.283,0,0,0,657.394,482.81Z" transform="translate(-491.026 -358.482)" opacity="0.1"/>
  <path id="Path_1878" data-name="Path 1878" d="M585.3,320.585l.431.545.241.3,1.5,1.892s3.589,1.152,6.736,1.9c3.277.775,6.072,1.112,3.85-.741-1.379-1.149-1.47-3.073-.967-5.136l-.1-.128s.1,1.912-1.033,1.949c-1.526.048-1.546-.465-2.954-1.058-1.813-.766-3.671-2.046-4.193-3.042A31.108,31.108,0,0,1,585.3,320.585Z" transform="translate(-439.468 -239.861)" opacity="0.1"/>
  <path id="Path_1879" data-name="Path 1879" d="M563.39,491a3.277,3.277,0,0,0,2.434.057c2.931-.948,7.567-3.229,9.74-2.23,1.742.8,8.759.777,11.349.1.644-.167,1.013-.375.956-.619a1.7,1.7,0,0,1,.1-.831,15.325,15.325,0,0,1,1.728-3.22l-.187-.718-1.924-1.756-2.627,4.256c-4.117-.6-17.526-2.117-20.638,2.837A7.508,7.508,0,0,0,563.39,491Z" transform="translate(-423.774 -357.74)" opacity="0.1"/>
  <path id="Path_1880" data-name="Path 1880" d="M555.7,371.212a3.218,3.218,0,0,0,4.066,1.7c2.931-.945,7.567-3.229,9.74-2.23s12.581.715,12.3-.514,2.554-5.107,2.554-5.107-1.549-.284-2.508-5.343c-.142-.738-.27-1.578-.377-2.531a32.2,32.2,0,0,1-.165-5.885c.383-5.476,2.3-7.712,2.3-7.712a6.366,6.366,0,0,0,.377-7.187c-1.189-2.182-5.987-8.228-6.052-10.924-.06-2.446-2.4-5.289-2.4-5.289s.1,1.912-1.033,1.949c-1.527.048-1.546-.465-2.954-1.058-2.068-.874-4.193-2.415-4.333-3.444,0,0-8.671-.434-10.563,8.362s-1.229,13.619-.945,14.66,2.741,14.47.755,20.145A19.551,19.551,0,0,0,555.7,371.212Z" transform="translate(-418 -240.221)" fill="#a36468"/>
  <path id="Path_1881" data-name="Path 1881" d="M592.648,418.815a22.25,22.25,0,0,0,6.146,6.716,42.592,42.592,0,0,1,4.965.332c-.142-.738-.284-1.578-.377-2.531a32.215,32.215,0,0,1-.165-5.885,2.142,2.142,0,0,1-1.112-1.373c-.474-1.609-4.693-9.269-4.693-9.269s-9.871-2.554-10.214,0S590.189,414.559,592.648,418.815Z" transform="translate(-440.808 -303.254)" opacity="0.1"/>
  <path id="Path_1882" data-name="Path 1882" d="M592.173,389.975s5.958,11.273,6.421,12.881a2.173,2.173,0,0,0,2.009,1.606s5.936,1.419,7.354,1.609,13.724,1.229,13.724,1.229,3.121.1,3.5-1.038c.346-1.038,6.375-6.495,9.865-1.734a3.47,3.47,0,0,1,.505,3.1c-.641,2.043-1.958,5.286-3.371,3.269-1.986-2.837-4.3-2.04-4.3-.528s-3.178.951-4.216,1.163c-.568.116-2.52.635-4.208,1.089a30.644,30.644,0,0,1-6.007,1c-3.351.218-8.291.4-10.041-.261a27.226,27.226,0,0,0-7.377-1.03,2.426,2.426,0,0,1-1.439-.516,22.439,22.439,0,0,1-5.459-6.211c-2.46-4.256-7.519-13.069-7.178-15.622S592.173,389.975,592.173,389.975Z" transform="translate(-437.039 -291.205)" fill="#efb7b9"/>
  <path id="Path_1883" data-name="Path 1883" d="M588.1,334.284a76.364,76.364,0,0,1,4.67,9.079c1.478,3.782,3.274,10.4,3.274,10.4l-8.892-1.041-.755-1.229s-6.35,3.972-5.592,5.675-1.7-2.554-1.512-7.377-.684-13.432,0-15.511S586,332.675,588.1,334.284Z" transform="translate(-434.972 -251.172)" opacity="0.1"/>
  <path id="Path_1884" data-name="Path 1884" d="M579.305,347.8c-.19,4.823,2.27,9.079,1.512,7.377s5.592-5.675,5.592-5.675l.746,1.229,8.889,1.041s-1.8-6.622-3.274-10.4a57.862,57.862,0,0,0-3.042-6.242c-.911-1.654-1.629-2.837-1.629-2.837a10.018,10.018,0,0,0-5.89-1.368,7.622,7.622,0,0,0-.962.116,2.675,2.675,0,0,0-1.841,1,1.326,1.326,0,0,0-.114.25C578.613,334.369,579.487,342.978,579.305,347.8Z" transform="translate(-434.977 -249.747)" fill="#a36468"/>
  <path id="Path_1885" data-name="Path 1885" d="M566,437s3.759,5.178,4.894,5.32C570.886,442.331,566.062,441.256,566,437Z" transform="translate(-425.654 -325.692)" opacity="0.1"/>
  <path id="Path_1886" data-name="Path 1886" d="M566,463s7.093,7.164,9.363,7.235S566,463,566,463Z" transform="translate(-425.652 -344.296)" opacity="0.1"/>
  <path id="Path_1887" data-name="Path 1887" d="M566,473.54s4.54,5.32,4.823,5.32S565.918,477.016,566,473.54Z" transform="translate(-425.652 -351.841)" opacity="0.1"/>
  <path id="Path_1888" data-name="Path 1888" d="M580.33,263.594a6.292,6.292,0,0,0,2.083-.7c.244-.128.485-.27.721-.42a17.045,17.045,0,0,0,2.588-2.128,11.015,11.015,0,0,0,3.147-4.392,7.912,7.912,0,0,0,.267-1.226c.323-2.182.051-4.591,1.612-6.075a3.71,3.71,0,0,1,1-.672c2.213-1.053,5.422-.372,7.073-2.27,1.05-1.2,1.024-2.874,1.83-4.182a8.787,8.787,0,0,1,1.572-1.58,10.214,10.214,0,1,0-14.082,14.187c-.062.145-.131.284-.2.434a27.056,27.056,0,0,1-6.194,7.456l.431.545A2.778,2.778,0,0,0,580.33,263.594Z" transform="translate(-435.905 -181.363)" opacity="0.1"/>
  <path id="Path_1889" data-name="Path 1889" d="M466.934,223.65c-1.921,2.2-5.958.919-8.072,2.937-1.856,1.768-1.118,4.852-1.875,7.3a11.034,11.034,0,0,1-3.147,4.392c-1.9,1.85-4.333,3.728-6.932,3.2-1.541-.315-3.05-1.467-4.54-.936a5.308,5.308,0,0,0-1.824,1.473,12.572,12.572,0,0,1-6.971,3.606,2.982,2.982,0,0,1-1.58-.074c-.794-.323-1.223-1.192-1.946-1.654-1.419-.908-3.24.023-4.713.834a32.978,32.978,0,0,1-27.091,1.949l2.3-1.135c-.488-1-1.807-1.214-2.647-1.944-1.731-1.5-.712-4.5,1.118-5.879s4.2-1.856,6.095-3.141a1.581,1.581,0,0,0,.814-1.07,1.7,1.7,0,0,0-.309-.948c-1.01-1.779-2.128-3.688-1.9-5.723.346-3.121,3.754-5.039,6.883-5.258s6.228.724,9.363.777a6.137,6.137,0,0,0,3.3-.678c1.359-.817,2.043-2.375,2.868-3.728a15.228,15.228,0,0,1,6.1-5.624c2.837-1.433,6.049-1.935,9-3.121,3.013-1.209,5.754-3.121,8.906-3.89,4.577-1.135,9.479.349,13.432,2.914,1.9,1.234,7.984,5.2,7.944,7.729-.031,1.5-1.986,2.318-2.727,3.5C467.959,220.775,467.984,222.447,466.934,223.65Z" transform="translate(-304.625 -159.59)" fill="#1a1d1c"/>
  <g id="Group_1487" data-name="Group 1487" transform="translate(92.379 55.26)" opacity="0.1">
    <path id="Path_1890" data-name="Path 1890" d="M422.241,288.776a1.728,1.728,0,0,1,.309.948.96.96,0,0,1-.1.343,11.965,11.965,0,0,1-1.841-4.667A18.045,18.045,0,0,0,422.241,288.776Z" transform="translate(-413.914 -272.47)"/>
    <path id="Path_1891" data-name="Path 1891" d="M397.62,334.216c.837.729,2.156.948,2.647,1.944l-.811.4a9.124,9.124,0,0,1-1.552-.928,2.67,2.67,0,0,1-.885-2.2A2.437,2.437,0,0,0,397.62,334.216Z" transform="translate(-397.01 -306.873)"/>
    <path id="Path_1892" data-name="Path 1892" d="M428.207,268.305c1.473-.811,3.3-1.742,4.713-.834.721.462,1.152,1.331,1.946,1.654a2.971,2.971,0,0,0,1.578.074,12.581,12.581,0,0,0,6.974-3.606,5.224,5.224,0,0,1,1.824-1.473c1.481-.531,2.991.621,4.54.936,2.6.531,5.028-1.348,6.932-3.2a11.008,11.008,0,0,0,3.144-4.392c.76-2.449.023-5.533,1.878-7.3,2.119-2.017,6.148-.735,8.072-2.937,1.047-1.2,1.024-2.874,1.83-4.182.681-1.1,2.446-1.887,2.7-3.217a2.469,2.469,0,0,1,.315,1.135c-.031,1.5-1.986,2.318-2.727,3.5-.806,1.308-.783,2.979-1.83,4.182-1.924,2.2-5.958.919-8.072,2.937-1.856,1.768-1.118,4.852-1.878,7.3A11.028,11.028,0,0,1,457,263.275c-1.9,1.85-4.333,3.728-6.932,3.2-1.543-.315-3.053-1.467-4.54-.936a5.256,5.256,0,0,0-1.824,1.473,12.581,12.581,0,0,1-6.974,3.606,2.97,2.97,0,0,1-1.577-.074c-.794-.323-1.226-1.192-1.946-1.654-1.419-.908-3.24.023-4.713.834A32.978,32.978,0,0,1,401.4,271.67l1.586-.786A33.04,33.04,0,0,0,428.207,268.305Z" transform="translate(-400.155 -239.83)"/>
  </g>
  <path id="Path_1893" data-name="Path 1893" d="M740.493,595.5l2.386-1.155v-.451a13.271,13.271,0,0,0-3.379.536C740.561,594.615,740.519,595.327,740.493,595.5Z" transform="translate(-549.878 -437.945)" opacity="0.1"/>
  <ellipse id="Ellipse_99" data-name="Ellipse 99" cx="5.748" cy="6.994" rx="5.748" ry="6.994" transform="translate(186.944 117.404)" fill="#9abc5c"/>
  <path id="Path_1894" data-name="Path 1894" d="M383.43,405.42l-9.241,9.113L343.81,414l8.353-8.583Z" transform="translate(-246.148 -290.135)" fill="#7dc4a6"/>
  <path id="Path_1895" data-name="Path 1895" d="M460.121,436.6V405.42l-9.241,9.113V445.04Z" transform="translate(-322.819 -290.094)" fill="#7dc4a6"/>
  <path id="Path_1896" data-name="Path 1896" d="M343.81,435.67v31.037h30.379V436.2Z" transform="translate(-246.152 -311.752)" fill="#7dc4a6"/>
  <path id="Path_1897" data-name="Path 1897" d="M343.81,435.67v31.037h30.379V436.2Z" transform="translate(-246.152 -311.752)" fill="#fff" opacity="0.3"/>
  <path id="Path_1898" data-name="Path 1898" d="M377.709,457.859l-22.593-3.879-2.945,14.833,23.26,4.273Z" transform="translate(-252.139 -324.872)" fill="#fff"/>
  <path id="Path_1899" data-name="Path 1899" d="M387.148,473.836,371.96,471.45l-.38,1.98,15.188,2.576Z" transform="translate(-266.04 -337.394)" fill="#7dc4a6"/>
  <path id="Path_1900" data-name="Path 1900" d="M388.96,491.624l-8.64-1.254-.38,2.2,9.02,1.265Z" transform="translate(-272.028 -350.936)" fill="#7dc4a6"/>
  <path id="Path_1901" data-name="Path 1901" d="M463.246,432.1l-.411-12.274-2.375,2.344.414,12.3Z" transform="translate(-329.681 -300.44)" fill="#4faf86"/>
  <path id="Path_1902" data-name="Path 1902" d="M357.6,416.49l29.193.394.982.553-2.375,2.344-.82-.482-28.915-.82Z" transform="translate(-254.635 -298.064)" fill="#4faf86"/>
</svg>
