<svg id="Ratings_and_reviews" data-name="Ratings and reviews" xmlns="http://www.w3.org/2000/svg" xmlns:xlink="http://www.w3.org/1999/xlink" width="300" height="230.168" viewBox="0 0 300 230.168">
  <defs>
    <linearGradient id="linear-gradient" x1="0.5" y1="1" x2="0.5" gradientUnits="objectBoundingBox">
      <stop offset="0" stop-color="gray" stop-opacity="0.251"/>
      <stop offset="0.54" stop-color="gray" stop-opacity="0.122"/>
      <stop offset="1" stop-color="gray" stop-opacity="0.102"/>
    </linearGradient>
    <filter id="Rectangle_1792" x="122.573" y="122.975" width="54.186" height="59.19" filterUnits="userSpaceOnUse">
      <feOffset dy="3" input="SourceAlpha"/>
      <feGaussianBlur stdDeviation="5" result="blur"/>
      <feFlood flood-color="#fff"/>
      <feComposite operator="in" in2="blur"/>
      <feComposite in="SourceGraphic"/>
    </filter>
  </defs>
  <path id="Path_2308" data-name="Path 2308" d="M337.471,201.263q-1.4,1.232-2.871,2.4c-.164.133-.333.277-.5.4a100.861,100.861,0,0,1-10.964,7.406c-4.375,2.585-8.941,4.937-13.568,7.156a224.954,224.954,0,0,1-21.344,9l-.327.119q-4.794,1.709-9.7,3.154l-.058.017q-3.421,1-6.888,1.845l-.316.078q-5.1,1.232-10.312,2.094l-.8.128q-3.806.6-7.665.976c-14.459,1.387-29.093.261-43.463-1.686-29.02-3.936-57.655-11.314-83.779-22.881a232.156,232.156,0,0,1-28.829-15.2q-1.964-1.223-3.9-2.5c-.2-.136-.408-.277-.61-.408-12.744-8.518-24.254-18.892-29.609-31.984C56,146.756,59.82,128.233,74.615,119.581c5.11-2.968,11.005-4.585,16.97-5.919l.61-.136c1.01-.222,2.02-.435,3.027-.649,3.52-.746,7.06-1.487,10.567-2.316h0a103.758,103.758,0,0,0,18.886-6.052q.66-.294,1.315-.607a49.73,49.73,0,0,0,13.593-9.325c3.312-3.348,5.7-7.187,6.089-11.306h0a12.48,12.48,0,0,0-.155-3.506c-.411-2.191-.807-4.333-1.11-6.424a32.687,32.687,0,0,1,.025-11.306h0a21.278,21.278,0,0,1,5.851-10.69q.757-.782,1.626-1.556a34.317,34.317,0,0,1,9.027-5.708q.613-.277,1.232-.519c9.155-3.706,20.16-4.48,30.441-3.969a166.162,166.162,0,0,1,28.527,3.964c.743.166,1.487.341,2.219.519a197.9,197.9,0,0,1,23.508,7.264c22.573,8.488,43.7,20.717,63.234,33.992l.932.635q.685.469,1.37.943,1.4.965,2.791,1.942,1.032.718,2.058,1.448h0l1.473,1.046.918.66c4.993,3.606,9.907,7.342,14.459,11.35l.5.444a87.626,87.626,0,0,1,14.595,16.243C366.256,145.349,361.2,180.412,337.471,201.263Z" transform="translate(-59.271 -39.451)" fill="#7dc4a6" opacity="0.1"/>
  <g id="Group_1510" data-name="Group 1510" transform="translate(53.719 39.571)">
    <g id="Group_1508" data-name="Group 1508" transform="translate(0 0)">
      <path id="Path_2307" data-name="Path 2307" d="M504.5,20.39v95.621H644.867V20.39Z" transform="translate(-504.5 -20.39)" fill="url(#linear-gradient)"/>
      <rect id="Rectangle_1793" data-name="Rectangle 1793" width="136.798" height="89.552" transform="translate(2.083 4.337)" fill="#fff"/>
      <rect id="Rectangle_1794" data-name="Rectangle 1794" width="136.798" height="6.589" transform="translate(2.082 0.078)" fill="#eee"/>
      <circle id="Ellipse_168" data-name="Ellipse 168" cx="1.598" cy="1.598" r="1.598" transform="translate(5.688 1.674)" fill="#fff"/>
      <circle id="Ellipse_169" data-name="Ellipse 169" cx="1.598" cy="1.598" r="1.598" transform="translate(10.083 1.674)" fill="#fff"/>
      <circle id="Ellipse_170" data-name="Ellipse 170" cx="1.598" cy="1.598" r="1.598" transform="translate(14.476 1.674)" fill="#fff"/>
    </g>
    <g id="Group_1507" data-name="Group 1507" transform="translate(56.427 43.321)">
      <path id="Path_1923" data-name="Path 1923" d="M504.5,651.159l1.5,3.034,3.348.486-2.422,2.362.572,3.334L504.5,658.8l-2.994,1.574.572-3.334-2.422-2.362,3.348-.486Z" transform="translate(-499.654 -651.159)" fill="#7dc4a6"/>
      <path id="Path_1924" data-name="Path 1924" d="M567.074,651.159l1.5,3.034,3.348.486-2.423,2.362.572,3.334-2.994-1.574-2.994,1.574.572-3.334-2.422-2.362,3.348-.486Z" transform="translate(-548.759 -651.159)" fill="#7dc4a6"/>
      <path id="Path_1925" data-name="Path 1925" d="M629.649,651.159l1.5,3.034,3.348.486-2.423,2.362.572,3.334-2.994-1.574-2.994,1.574.572-3.334-2.422-2.362,3.348-.486Z" transform="translate(-597.863 -651.159)" fill="#7dc4a6"/>
      <path id="Path_1926" data-name="Path 1926" d="M692.224,651.159l1.5,3.034,3.348.486-2.423,2.362.572,3.334-2.994-1.574-2.994,1.574.572-3.334-2.422-2.362,3.348-.486Z" transform="translate(-646.968 -651.159)" fill="#7dc4a6"/>
      <path id="Path_1927" data-name="Path 1927" d="M754.8,651.159l1.5,3.034,3.348.486-2.423,2.362.572,3.334L754.8,658.8l-2.995,1.574.572-3.334-2.422-2.362,3.348-.486Z" transform="translate(-696.073 -651.159)" fill="#7dc4a6"/>
    </g>
    <g id="Group_1509" data-name="Group 1509" transform="translate(17.792 28.912)">
      <rect id="Rectangle_1703" data-name="Rectangle 1703" width="29.156" height="38.279" transform="translate(0 0)" fill="#7dc4a6" opacity="0.1"/>
      <g id="beauty-salon" transform="translate(4.797 8.248)">
        <path id="Path_2120" data-name="Path 2120" d="M31.685,251.864h7.805a.65.65,0,0,0,.65-.65v-9.193a.65.65,0,0,0-.65-.65h-.65v-1.3h-6.5v1.3h-.65a.65.65,0,0,0-.65.65v9.193A.65.65,0,0,0,31.685,251.864Z" transform="translate(-31.035 -229.66)" fill="#7dc4a6"/>
        <path id="Path_2121" data-name="Path 2121" d="M62.975,4.47c1.142.991,3.252,2.209,4.226,1.088.88-1.013-.247-2.8-1.665-4.033-1.4-1.216-3.314-2.079-4.213-1.1A1.289,1.289,0,0,0,61,1.4,5.173,5.173,0,0,0,62.975,4.47Z" transform="translate(-59.7 0)" fill="#7dc4a6"/>
        <path id="Path_2122" data-name="Path 2122" d="M280.141,212.021a1.953,1.953,0,0,0-1.951-1.951h-5.2a1.953,1.953,0,0,0-1.951,1.951v7.241h9.106Z" transform="translate(-260.628 -200.961)" fill="#7dc4a6"/>
        <path id="Path_2123" data-name="Path 2123" d="M271.685,454.672h7.805a.65.65,0,0,0,.65-.65V452.07h-9.106v1.951A.65.65,0,0,0,271.685,454.672Z" transform="translate(-260.628 -432.467)" fill="#7dc4a6"/>
        <path id="Path_2124" data-name="Path 2124" d="M67.539,101.841a2.717,2.717,0,0,1-1.361.357,7.121,7.121,0,0,1-4.023-1.855,9.617,9.617,0,0,1-1.121-1.15V104h6.5Z" transform="translate(-59.734 -94.892)" fill="#7dc4a6"/>
      </g>
    </g>
  </g>
  <ellipse id="Ellipse_160" data-name="Ellipse 160" cx="72.002" cy="9.035" rx="72.002" ry="9.035" transform="translate(75.865 212.098)" fill="#7dc4a6" opacity="0.1"/>
  <rect id="Rectangle_1791" data-name="Rectangle 1791" width="282.928" height="0.556" transform="translate(8.618 212.653)" fill="#2f2e41"/>
  <path id="Path_2277" data-name="Path 2277" d="M937.085,668.9,915,636.1s33.445,11.676,29.65,32.8Z" transform="translate(-677.664 -456.248)" fill="#3f3d56"/>
  <path id="Path_2278" data-name="Path 2278" d="M977.131,668.9l22.085-32.8s-33.445,11.676-29.65,32.8Z" transform="translate(-716.844 -456.248)" fill="#7dc4a6"/>
  <path id="Path_2282" data-name="Path 2282" d="M544.931,346.3c-5.75-9.716-17.127-10.169-17.127-10.169s-11.086-1.418-18.2,13.38c-6.628,13.793-15.777,27.11-1.473,30.339l2.584-8.042,1.6,8.64a55.962,55.962,0,0,0,6.12.1c15.318-.495,29.906.145,29.437-5.352C547.25,367.9,550.464,355.653,544.931,346.3Z" transform="translate(-378.112 -239.411)" fill="#464353"/>
  <path id="Path_2283" data-name="Path 2283" d="M518.832,665.63a22.681,22.681,0,0,1-.734,3.158c-.36,1.012-.915,1.948-1.244,2.97-1.049,3.259.405,6.892,2.727,9.407a15.35,15.35,0,0,0,7.484,4.444,30.533,30.533,0,0,0,6.432.676c5.978.2,12.109.384,17.773-1.537a30.876,30.876,0,0,0,5.164-2.346,3.865,3.865,0,0,0,1.34-1.055,3.687,3.687,0,0,0,.484-2.164c-.013-2.534-.526-5.055-.4-7.586a30.09,30.09,0,0,0,.2-4.2,7.749,7.749,0,0,0-5.922-6.675,16.086,16.086,0,0,0-4.909,0,125.175,125.175,0,0,1-12.777.571c-4.359-.028-8.69-.693-13.027-.763-1.283-.021-1.257.375-1.665,1.616a30.245,30.245,0,0,0-.921,3.485Z" transform="translate(-389.631 -473.885)" fill="#8eb44a"/>
  <path id="Path_2284" data-name="Path 2284" d="M555.835,440.237a7.609,7.609,0,0,1-1.095,3.135c-.758,1.037-1.995,1.629-2.81,2.622-1.228,1.494-1.3,3.6-1.3,5.529,0,1.781.032,3.681,1.025,5.16a9.017,9.017,0,0,0,2.584,2.278c3.725,2.51,7.751,5.066,12.242,5.149a6.51,6.51,0,0,0,5.081-1.848,7.631,7.631,0,0,0,1.23-2.195,29.145,29.145,0,0,0,2.063-8.872,10.419,10.419,0,0,0-.393-4.262c-.546-1.521-1.649-2.773-2.378-4.215a9.384,9.384,0,0,1-.9-5.553.6.6,0,0,0-.032-.4.586.586,0,0,0-.483-.2l-8.906-.641a19.383,19.383,0,0,1-2.473-.283c-.48-.1-1.748-.779-2.206-.6C556.231,435.38,556.009,439.327,555.835,440.237Z" transform="translate(-414.267 -310.877)" fill="#ffb8b8"/>
  <path id="Path_2285" data-name="Path 2285" d="M555.835,440.237a7.609,7.609,0,0,1-1.095,3.135c-.758,1.037-1.995,1.629-2.81,2.622-1.228,1.494-1.3,3.6-1.3,5.529,0,1.781.032,3.681,1.025,5.16a9.017,9.017,0,0,0,2.584,2.278c3.725,2.51,7.751,5.066,12.242,5.149a6.51,6.51,0,0,0,5.081-1.848,7.631,7.631,0,0,0,1.23-2.195,29.145,29.145,0,0,0,2.063-8.872,10.419,10.419,0,0,0-.393-4.262c-.546-1.521-1.649-2.773-2.378-4.215a9.384,9.384,0,0,1-.9-5.553.6.6,0,0,0-.032-.4.586.586,0,0,0-.483-.2l-8.906-.641a19.383,19.383,0,0,1-2.473-.283c-.48-.1-1.748-.779-2.206-.6C556.231,435.38,556.009,439.327,555.835,440.237Z" transform="translate(-414.267 -310.877)" opacity="0.1"/>
  <path id="Path_2309" data-name="Path 2309" d="M17,0c7.216,0,11.291,6.355,11.291,13.571S24.216,26.132,17,26.132,5.449,20.787,5.449,13.571,9.784,0,17,0Z" transform="translate(133.082 104.473)" fill="#ffb8b8"/>
  <path id="Path_2286" data-name="Path 2286" d="M563.694,493.714a8.013,8.013,0,0,0,2.3,1.834,7.212,7.212,0,0,0,2.867.546c2.355.066,4.909-.365,6.547-2.059,2.112-2.183,2.042-5.7,3.7-8.25a1.838,1.838,0,0,1,.533-.583,1.729,1.729,0,0,1,.907-.209c2.091-.02,3.912,1.336,5.556,2.629a7.319,7.319,0,0,1,1.956,1.992,6.752,6.752,0,0,1,.659,2.02,88.721,88.721,0,0,1,1.342,12.109c.145,2.24.29,4.483.279,6.728-.035,7.4-1.755,14.669-3.464,21.865a3.416,3.416,0,0,1-1.365,2.408,3.365,3.365,0,0,1-1.191.291,145.751,145.751,0,0,1-14.733,1.227q-2.886.044-5.769-.14a3.109,3.109,0,0,1-.972-.169,2.741,2.741,0,0,1-1.059-.9c-2.666-3.36-2.824-8.005-2.807-12.3q.063-15.731,1.124-31.438a3.458,3.458,0,0,0-.552-2.594A32.476,32.476,0,0,0,563.694,493.714Z" transform="translate(-420.307 -347.036)" fill="#d0cde1"/>
  <path id="Path_2287" data-name="Path 2287" d="M513.624,459.065c-.441.8-3.695,2.782-4.323,3.445-3.509,3.7-9.915,3.56-13.124,7.522a12.346,12.346,0,0,0-2.147,4.887c-.61,2.463-.936,5.149.086,7.471.984,2.234,3.055,3.779,4.46,5.775a22.243,22.243,0,0,1,2.9,7.449,17.144,17.144,0,0,1,.8,5.852c-.217,2.24-1.3,4.291-1.941,6.448s-.75,4.727.729,6.423a7.327,7.327,0,0,0,4.422,2.017,50.8,50.8,0,0,0,6.3.549c1.863.082,3.917.1,5.349-1.1a5.378,5.378,0,0,0,1.685-3.942,25.432,25.432,0,0,0-.434-4.386c-.2-1.512-.275-3.038-.339-4.562q-.43-10.258-.117-20.528a17.472,17.472,0,0,0-.208-4.26,23.356,23.356,0,0,0-2.215-5.152,19.494,19.494,0,0,1-2.161-10.3C513.6,459.015,515.194,456.223,513.624,459.065Z" transform="translate(-372.956 -327.468)" fill="#7dc4a6"/>
  <path id="Path_2288" data-name="Path 2288" d="M620.272,456.033c.672.691,2.956.919,3.811,1.363a13.356,13.356,0,0,0,2.505.867,32.527,32.527,0,0,1,8.8,4.04,5.34,5.34,0,0,1,1.472,1.271,5.829,5.829,0,0,1,.814,2.3,19.566,19.566,0,0,1-.7,12.846l-2.5,8.009c-1.87,5.978-3.752,12.015-4.278,18.257a42.948,42.948,0,0,0,.385,10.369,1.229,1.229,0,0,1-.126,1,.989.989,0,0,1-.613.282,6.017,6.017,0,0,1-3.475-.973,38.481,38.481,0,0,0-10.607-3.471,24.659,24.659,0,0,0,3.294-6.791,41.093,41.093,0,0,0,1-4.671l1.165-6.74a66.24,66.24,0,0,0,1-7.453,9.331,9.331,0,0,0-.162-2.808,13.619,13.619,0,0,0-1.064-2.532,21.635,21.635,0,0,1-2.066-12.922c.331-1.911.973-3.826.705-5.747-.258-1.847.01-3.283-.464-5.111C617.214,449.917,619.007,454.733,620.272,456.033Z" transform="translate(-461.33 -324.163)" fill="#7dc4a6"/>
  <path id="Path_2289" data-name="Path 2289" d="M495.094,510.42c-.876,1.817-2.339,3.365-2.838,5.319a11.622,11.622,0,0,0-.247,2.78,13.206,13.206,0,0,0,.412,4.18c.278.862.73,1.657,1.056,2.5a9.071,9.071,0,0,1,.594,3.706c-.088,1.75-.682,3.449-.729,5.2-.073,2.755,1.2,5.344,2.444,7.8a5.737,5.737,0,0,1,8.339-2.73,1.71,1.71,0,0,0,.376-1.247q.138-4.794.266-9.588c.135-4.943.263-9.952-.874-14.765a13.929,13.929,0,0,0-2.777-6.022c-.771-.887-3.389-3.225-4.655-2.231-.569.447-.436,1.664-.526,2.28A9.675,9.675,0,0,1,495.094,510.42Z" transform="translate(-371.893 -361.532)" fill="#7dc4a6"/>
  <path id="Path_2290" data-name="Path 2290" d="M658.694,493.359a13.374,13.374,0,0,1,.447,4.022q.025,4.144-.11,8.287a15.45,15.45,0,0,1-.538,4.2c-.283.889-.719,1.723-1.011,2.609-.875,2.656-.4,5.536-.322,8.331a9.468,9.468,0,0,1-.229,2.7c-.462,1.733-1.7,3.133-2.569,4.7a46.223,46.223,0,0,1-2.3,4.554c-.983,1.391-2.684,2.493-4.332,2.066a4.782,4.782,0,0,1-2.751-2.564,12.577,12.577,0,0,1-1.3-8.159c.616-3.393,2.609-6.4,3.328-9.775.987-4.631-.513-9.41-.468-14.145a6.837,6.837,0,0,1,.3-2.193,9.176,9.176,0,0,1,1.935-2.813,35.507,35.507,0,0,0,2.6-3.412c.536-.8,1.263-2.852,2.212-3.023C655.7,488.358,658.168,491.722,658.694,493.359Z" transform="translate(-481.355 -349.713)" fill="#7dc4a6"/>
  <path id="Path_2291" data-name="Path 2291" d="M432.272,670.469a12.894,12.894,0,0,0-3.587-.381,8.954,8.954,0,0,0-8.313,10.555,15.041,15.041,0,0,0,1.422,3.885,12.979,12.979,0,0,0,3.854,5.094,15.01,15.01,0,0,0,3.4,1.619l9.276,3.495c1.365.514,2.73,1.028,4.108,1.505a80.351,80.351,0,0,0,21.455,4.265,23.233,23.233,0,0,0,6.662-.338,2.169,2.169,0,0,0,1.364-.737,2.337,2.337,0,0,0,.3-1.007l.571-4a3.347,3.347,0,0,0-.048-1.685,3.227,3.227,0,0,0-1.542-1.453c-6.1-3.5-13.22-5.435-18.353-10.243-1.208-1.132-2.22-2.926-3.688-3.694-1.665-.872-3.626-1.369-5.347-2.173C440.049,673.424,436.35,671.406,432.272,670.469Z" transform="translate(-320.06 -480.783)" fill="#8eb44a"/>
  <path id="Path_2292" data-name="Path 2292" d="M486.086,688.473c3.279,1.028,17.122,8.145,19.495,10.631-.318.115-11.109-5.933-11.433-6.03a65.195,65.195,0,0,1-8.7-3.065c-.562-.26-3.653-1.482-3.513-2.192C482.095,687.016,485.5,688.291,486.086,688.473Z" transform="translate(-364.626 -493.4)" opacity="0.1"/>
  <path id="Path_2293" data-name="Path 2293" d="M609.1,764.951a.77.77,0,0,0,.52-.153.8.8,0,0,0,.162-.6q-.008-2.722-.015-5.444a16.734,16.734,0,0,0-5.036-1.215l-8.02-1.072c.184.025-1.254,3.454-1.033,3.912.389.807,3.359,1.522,4.2,1.9C602.788,763.609,605.817,765.065,609.1,764.951Z" transform="translate(-446.793 -543.157)" fill="#ffb8b8"/>
  <path id="Path_2294" data-name="Path 2294" d="M540.669,754.472c-1.514.241-3.2.454-4.185,1.633-1.244,1.495-.714,3.723-.121,5.575a1.808,1.808,0,0,0,2.109,1.508,7.289,7.289,0,0,0,4.057-.521A17.777,17.777,0,0,0,544.1,761.5a10.105,10.105,0,0,1,2.9-1.325,29.306,29.306,0,0,1,5.817-1.2,9.043,9.043,0,0,0,2.291-.4A2.539,2.539,0,0,0,556.724,757a3.733,3.733,0,0,0-.847-2.866,11.431,11.431,0,0,0-2.439-3.015c-1.494-1.161-2.234-.27-3.739.473A31.72,31.72,0,0,1,540.669,754.472Z" transform="translate(-403.496 -538.891)" fill="#ffb8b8"/>
  <path id="Path_2295" data-name="Path 2295" d="M491.706,760.353l-9.615-2.842a12.729,12.729,0,0,0-3.578-.693,4.3,4.3,0,0,0-3.286,1.329,6.4,6.4,0,0,0-1.145,3.205l-.4,2.427a12.189,12.189,0,0,0-.223,3.727,4.121,4.121,0,0,0,1.91,3.07c1.331.726,2.961.371,4.446.068a48.413,48.413,0,0,1,9.111-.977,7.312,7.312,0,0,0,3.375-.538,4.214,4.214,0,0,0,2.056-3.358C494.55,763.7,493.859,760.989,491.706,760.353Z" transform="translate(-358.451 -543.408)" fill="#4ba67f"/>
  <path id="Path_2296" data-name="Path 2296" d="M647.028,755.617a23.342,23.342,0,0,0,3.541-1.345,15.75,15.75,0,0,1,5.284-.582,2.558,2.558,0,0,1,3.013,2.88l.8,5.629a8.834,8.834,0,0,1,.066,3.189,3,3,0,0,1-1.982,2.318c-1.257.327-2.49-.476-3.677-1-2.967-1.319-6.416-.982-9.51-1.967a2.131,2.131,0,0,1-1.423-1.018,2.317,2.317,0,0,1-.111-.973c.053-1.809-.329-4.28.216-6.01C643.74,755.181,645.637,755.617,647.028,755.617Z" transform="translate(-480.976 -541.149)" fill="#4ba67f"/>
  <path id="Path_2297" data-name="Path 2297" d="M626.72,662.027a16.7,16.7,0,0,1,5.882-.4,6.2,6.2,0,0,1,6.224,7,16.553,16.553,0,0,1-3.6,10.571,9.59,9.59,0,0,1-2.057,1.98,13.53,13.53,0,0,1-2.676,1.29l-20.774,8.194a134.228,134.228,0,0,1-16.65,5.739,1.3,1.3,0,0,1-1.746-.633,43.04,43.04,0,0,1-4.553-8.329.561.561,0,0,1,.248-.885l14.694-8.443a14.854,14.854,0,0,0,2.991-2.061,7.426,7.426,0,0,0,1.536-2.138c.3-.636.333-2.137.722-2.608s1.684-.5,2.286-.678a20.738,20.738,0,0,0,2.488-.941c3.287-1.471,6.214-3.607,9.365-5.329a24.027,24.027,0,0,1,5.62-2.326Z" transform="translate(-440.332 -474.607)" fill="#8eb44a"/>
  <path id="Path_2298" data-name="Path 2298" d="M639.585,681.829c-2.525,1.9-5.793,3.639-8.3,5.585-.854.664-15.089,8.667-15.29,9.73,2.334.393,17.2-10.009,19.331-11.047a34.357,34.357,0,0,0,5.882-3.955c.476-.37,2.495-1.483,1.127-1.9C641.57,680.013,640.154,681.451,639.585,681.829Z" transform="translate(-461.512 -488.105)" opacity="0.1"/>
  <path id="Path_2299" data-name="Path 2299" d="M483.184,271.248l-11.24-5.887-15.521,2.408-3.211,14.183,7.994-.307,2.233-5.211v5.125l3.688-.142,2.141-8.3,1.338,8.831,13.113-.268Z" transform="translate(-318.916 -165.269)" fill="#464353"/>
  <g transform="matrix(1, 0, 0, 1, 0, 0)" filter="url(#Rectangle_1792)">
    <rect id="Rectangle_1792-2" data-name="Rectangle 1792" width="24.186" height="29.19" transform="translate(137.57 134.98)" fill="#3f3d56"/>
  </g>
  <path id="Path_2300" data-name="Path 2300" d="M507.907,562.787a5.84,5.84,0,0,0,2.1,2.087,4.1,4.1,0,0,0,3.607-.1,6.348,6.348,0,0,0,2.6-2.609,12.987,12.987,0,0,0,1.322-7.212c-.152-2.474-.681-4.91-.915-7.378-.17-1.794-.184-3.6-.2-5.4a1.8,1.8,0,0,1,.227-1.092,2.144,2.144,0,0,1,1.2-.6c2.465-.732,4.1-3.043,5.275-5.332a9.242,9.242,0,0,0,1.314-4.909,3.854,3.854,0,0,0-3.089-3.608,4.953,4.953,0,0,0-3.725,1.737,15.972,15.972,0,0,0-4.677,9.346,36.2,36.2,0,0,1-.632,5.214c-1.01,3.605-4.171,5.816-5.746,9.06C504.84,555.565,505.8,559.624,507.907,562.787Z" transform="translate(-381.779 -377.096)" fill="#ffb8b8"/>
  <path id="Path_2301" data-name="Path 2301" d="M642.8,521.09a6.814,6.814,0,0,1-3.821,3.671,5.277,5.277,0,0,1-3.322.2,3.683,3.683,0,0,1-2.433-2.176,5.861,5.861,0,0,1-.274-1.635,16.842,16.842,0,0,1,.786-7.207c.341-.876.8-1.706,1.069-2.607a13.071,13.071,0,0,0,.4-3.181l.29-6.634a4.317,4.317,0,0,0-.1-1.438,4.546,4.546,0,0,0-2.01-2.156c-1.988-1.382-3.952-3-4.916-5.217a3.659,3.659,0,0,1-.34-2.161,3.592,3.592,0,0,1,2.915-2.457,6.52,6.52,0,0,1,7.817,5.254c.13.749.128,1.513.2,2.269.161,1.6.671,3.15.989,4.73.784,3.892.378,7.915,1.154,11.806C641.861,515.407,644.307,517.53,642.8,521.09Z" transform="translate(-470.236 -349.142)" fill="#ffb8b8"/>
  <path id="Path_2302" data-name="Path 2302" d="M141.187,639.159l-.556-.011A128.948,128.948,0,0,1,142.6,620.72c2.4-13.033,6.4-21.592,11.883-25.44l.319.455C142,604.724,141.193,638.815,141.187,639.159Z" transform="translate(-117.938 -426.778)" fill="#2f2e41"/>
  <path id="Path_2303" data-name="Path 2303" d="M166.187,702.907l-.556-.011c.012-.616.359-15.127,6.072-19.138l.319.455C166.54,688.062,166.19,702.759,166.187,702.907Z" transform="translate(-135.988 -490.659)" fill="#2f2e41"/>
  <circle id="Ellipse_166" data-name="Ellipse 166" cx="2.78" cy="2.78" r="2.78" transform="translate(37.252 163.58)" fill="#7dc4a6"/>
  <circle id="Ellipse_167" data-name="Ellipse 167" cx="2.78" cy="2.78" r="2.78" transform="translate(35.875 187.436)" fill="#7dc4a6"/>
  <path id="Path_2304" data-name="Path 2304" d="M153.387,588.126a12.349,12.349,0,0,1-.839,6.322,11.254,11.254,0,0,1-1.892-12.085A12.35,12.35,0,0,1,153.387,588.126Z" transform="translate(-124.483 -417.333)" fill="#2f2e41"/>
  <path id="Path_2305" data-name="Path 2305" d="M179.11,621.887a12.348,12.348,0,0,1-6.371.275,11.254,11.254,0,0,1,11.57-3.969A12.348,12.348,0,0,1,179.11,621.887Z" transform="translate(-141.119 -442.998)" fill="#2f2e41"/>
  <path id="Path_2306" data-name="Path 2306" d="M184.428,701.076a8.656,8.656,0,0,1-4.466.193,7.888,7.888,0,0,1,8.11-2.782A8.655,8.655,0,0,1,184.428,701.076Z" transform="translate(-146.335 -501.124)" fill="#2f2e41"/>
</svg>
