<svg id="Search_order" data-name="Search &amp; order" xmlns="http://www.w3.org/2000/svg" xmlns:xlink="http://www.w3.org/1999/xlink" width="298.118" height="230" viewBox="0 0 298.118 230">
  <defs>
    <linearGradient id="linear-gradient" x1="0.5" y1="1" x2="0.5" gradientUnits="objectBoundingBox">
      <stop offset="0" stop-color="gray" stop-opacity="0.251"/>
      <stop offset="0.54" stop-color="gray" stop-opacity="0.122"/>
      <stop offset="1" stop-color="gray" stop-opacity="0.102"/>
    </linearGradient>
    <linearGradient id="linear-gradient-2" y1="1" y2="-0.001" xlink:href="#linear-gradient"/>
  </defs>
  <path id="Path_1536" data-name="Path 1536" d="M300.59,134.991c-12.407,9.267-28.5,8.664-42.6,3.847s-27.057-13.409-40.791-19.512a125.963,125.963,0,0,0-35.84-9.967c-17.511-2.138-37.064.464-49.266,15.447-13.587,16.688-12.545,46.787,2.151,62.1,7.474,7.791,17.264,11.614,25.8,17.7s16.434,16.185,15.709,27.927c-.672,10.868-8.5,19.211-16.592,24.444-6.259,4.044-13.969,8.46-14.723,16.837-.728,8.106,5.752,14.459,11.941,18.07a64.069,64.069,0,0,0,65.174-.3c7.175-4.27,13.772-9.947,21.3-13.274,19.759-8.737,41.527.059,62.448,3.275a117.347,117.347,0,0,0,53.116-4.128c10.359-3.265,20.759-8.255,28.037-17.554,5.247-6.706,8.51-15.19,11.589-23.567q4.909-13.405,9.438-27c1.814-5.441,3.6-10.986,4.064-16.809.848-10.546-2.723-20.971-7.592-29.875-11.562-21.138-31.022-36-52.092-39.773s-43.37,3.6-59.716,19.73" transform="translate(-113.548 -102.887)" fill="#7dc4a6" opacity="0.1"/>
  <ellipse id="Ellipse_60" data-name="Ellipse 60" cx="40.218" cy="7.864" rx="40.218" ry="7.864" transform="translate(0 214.273)" fill="#7dc4a6" opacity="0.1"/>
  <ellipse id="Ellipse_61" data-name="Ellipse 61" cx="84.306" cy="7.864" rx="84.306" ry="7.864" transform="translate(73.801 197.85)" fill="#7dc4a6" opacity="0.1"/>
  <path id="Path_1537" data-name="Path 1537" d="M824.35,450.742s11.819-20.936,29.629-26.962a36.435,36.435,0,0,0,18.45-13.8,61.4,61.4,0,0,0,5.446-9.8" transform="translate(-610.217 -300.064)" fill="none" stroke="#535461" stroke-miterlimit="10" stroke-width="0.5"/>
  <path id="Path_1538" data-name="Path 1538" d="M1015.475,366.242c-2.03,1.967-11.475,4-11.475,4s2.32-9.378,4.347-11.348a5.118,5.118,0,0,1,7.129,7.345Z" transform="translate(-736.638 -269.665)" fill="#7dc4a6"/>
  <path id="Path_1539" data-name="Path 1539" d="M996.657,420.325c-2.773.548-11.807-2.877-11.807-2.877s7.043-6.613,9.813-7.164a5.119,5.119,0,1,1,1.994,10.042Z" transform="translate(-723.162 -306.915)" fill="#7dc4a6"/>
  <path id="Path_1540" data-name="Path 1540" d="M938.241,482.877c-2.667-.924-8.741-8.441-8.741-8.441s9.419-2.157,12.089-1.233a5.12,5.12,0,1,1-3.348,9.674Z" transform="translate(-684.212 -351.28)" fill="#7dc4a6"/>
  <path id="Path_1541" data-name="Path 1541" d="M874.941,518.014c-2.788-.459-10.041-6.847-10.041-6.847s8.918-3.715,11.706-3.259a5.117,5.117,0,1,1-1.665,10.1Z" transform="translate(-638.204 -375.937)" fill="#7dc4a6"/>
  <path id="Path_1542" data-name="Path 1542" d="M958.26,398.14c0,2.827,5.114,11.025,5.114,11.025s5.12-8.2,5.123-11.022a5.12,5.12,0,0,0-10.237,0Z" transform="translate(-704.451 -294.902)" fill="#7dc4a6"/>
  <path id="Path_1543" data-name="Path 1543" d="M887.754,436.83c.844,2.7,8.175,8.989,8.175,8.989s2.436-9.351,1.591-12.047a5.122,5.122,0,0,0-9.778,3.058Z" transform="translate(-654.133 -321.069)" fill="#7dc4a6"/>
  <path id="Path_1544" data-name="Path 1544" d="M825.95,489.644c.376,2.8,6.542,10.243,6.542,10.243s3.979-8.8,3.6-11.606a5.118,5.118,0,0,0-10.145,1.363Z" transform="translate(-610.607 -358.995)" fill="#7dc4a6"/>
  <path id="Path_1545" data-name="Path 1545" d="M1015.475,366.242c-2.03,1.967-11.475,4-11.475,4s2.32-9.378,4.347-11.348a5.118,5.118,0,0,1,7.129,7.345Z" transform="translate(-736.638 -269.665)" opacity="0.25"/>
  <path id="Path_1546" data-name="Path 1546" d="M996.657,420.325c-2.773.548-11.807-2.877-11.807-2.877s7.043-6.613,9.813-7.164a5.119,5.119,0,1,1,1.994,10.042Z" transform="translate(-723.162 -306.915)" opacity="0.25"/>
  <path id="Path_1547" data-name="Path 1547" d="M938.241,482.877c-2.667-.924-8.741-8.441-8.741-8.441s9.419-2.157,12.089-1.233a5.12,5.12,0,1,1-3.348,9.674Z" transform="translate(-684.212 -351.28)" opacity="0.25"/>
  <path id="Path_1548" data-name="Path 1548" d="M874.941,518.014c-2.788-.459-10.041-6.847-10.041-6.847s8.918-3.715,11.706-3.259a5.117,5.117,0,1,1-1.665,10.1Z" transform="translate(-638.204 -375.937)" opacity="0.25"/>
  <path id="Path_1549" data-name="Path 1549" d="M958.26,398.14c0,2.827,5.114,11.025,5.114,11.025s5.12-8.2,5.123-11.022a5.12,5.12,0,0,0-10.237,0Z" transform="translate(-704.451 -294.902)" opacity="0.25"/>
  <path id="Path_1550" data-name="Path 1550" d="M887.754,436.83c.844,2.7,8.175,8.989,8.175,8.989s2.436-9.351,1.591-12.047a5.122,5.122,0,0,0-9.778,3.058Z" transform="translate(-654.133 -321.069)" opacity="0.25"/>
  <path id="Path_1551" data-name="Path 1551" d="M825.95,489.644c.376,2.8,6.542,10.243,6.542,10.243s3.979-8.8,3.6-11.606a5.118,5.118,0,0,0-10.145,1.363Z" transform="translate(-610.607 -358.995)" opacity="0.25"/>
  <path id="Path_1552" data-name="Path 1552" d="M826.65,408.137s2.32-23.928,16.145-36.654a36.443,36.443,0,0,0,11.277-20.094,61.322,61.322,0,0,0,1.007-11.158" transform="translate(-611.274 -257.771)" fill="none" stroke="#535461" stroke-miterlimit="10" stroke-width="0.5"/>
  <path id="Path_1553" data-name="Path 1553" d="M928.474,296.738c-1.058,2.622-8.868,8.3-8.868,8.3s-1.683-9.514-.625-12.148a5.117,5.117,0,0,1,9.481,3.825Z" transform="translate(-676.564 -221.933)" fill="#7dc4a6"/>
  <path id="Path_1554" data-name="Path 1554" d="M930.168,350.566c-2.311,1.627-11.958,2.157-11.958,2.157s3.76-8.889,6.071-10.527a5.117,5.117,0,1,1,5.887,8.37Z" transform="translate(-676.267 -258.221)" fill="#7dc4a6"/>
  <path id="Path_1555" data-name="Path 1555" d="M896.56,431.675c-2.815.237-11.41-4.175-11.41-4.175s7.736-5.787,10.554-6.024a5.117,5.117,0,1,1,.856,10.2Z" transform="translate(-652.514 -314.881)" fill="#7dc4a6"/>
  <path id="Path_1556" data-name="Path 1556" d="M854.672,489.076c-2.735.708-11.952-2.187-11.952-2.187s6.649-7.013,9.383-7.721a5.118,5.118,0,1,1,2.569,9.908Z" transform="translate(-622.53 -355.541)" fill="#7dc4a6"/>
  <path id="Path_1557" data-name="Path 1557" d="M882.834,351.013c1.147,2.584,9.144,8,9.144,8s1.36-9.564.216-12.148a5.119,5.119,0,0,0-9.36,4.148Z" transform="translate(-650.52 -260.041)" fill="#7dc4a6"/>
  <path id="Path_1558" data-name="Path 1558" d="M834.193,415.25c1.867,2.121,11.12,4.9,11.12,4.9s-1.564-9.535-3.428-11.659a5.123,5.123,0,1,0-7.7,6.755Z" transform="translate(-615.573 -304.502)" fill="#7dc4a6"/>
  <path id="Path_1559" data-name="Path 1559" d="M799.091,488.591c1.481,2.409,10.13,6.714,10.13,6.714s.071-9.662-1.407-12.071a5.118,5.118,0,1,0-8.723,5.357Z" transform="translate(-591.131 -356.83)" fill="#7dc4a6"/>
  <path id="Path_1560" data-name="Path 1560" d="M281.84,0V206.869H432.178V0Z" transform="translate(-199.881)" fill="url(#linear-gradient)"/>
  <rect id="Rectangle_1670" data-name="Rectangle 1670" width="147.701" height="7.967" transform="translate(83.28 1.834)" fill="#f6f7f9"/>
  <g id="Group_1473" data-name="Group 1473" transform="translate(83.28 1.834)" opacity="0.2">
    <rect id="Rectangle_1671" data-name="Rectangle 1671" width="147.701" height="7.967" transform="translate(0)" fill="#7dc4a6"/>
  </g>
  <rect id="Rectangle_1672" data-name="Rectangle 1672" width="147.701" height="195.233" transform="translate(83.28 9.801)" fill="#fff"/>
  <circle id="Ellipse_62" data-name="Ellipse 62" cx="1.351" cy="1.351" r="1.351" transform="translate(86.541 4.465)" fill="#f6f7f9"/>
  <circle id="Ellipse_63" data-name="Ellipse 63" cx="1.351" cy="1.351" r="1.351" transform="translate(90.169 4.465)" fill="#f6f7f9"/>
  <circle id="Ellipse_64" data-name="Ellipse 64" cx="1.351" cy="1.351" r="1.351" transform="translate(93.797 4.465)" fill="#f6f7f9"/>
  <g id="Group_1474" data-name="Group 1474" transform="translate(109.68 21.97)" opacity="0.2">
    <rect id="Rectangle_1673" data-name="Rectangle 1673" width="94.976" height="3.718" fill="#7dc4a6"/>
  </g>
  <rect id="Rectangle_1674" data-name="Rectangle 1674" width="12.619" height="3.718" transform="translate(191.67 21.97)" fill="#7dc4a6"/>
  <g id="Group_1475" data-name="Group 1475" transform="translate(96.445 96.846)" opacity="0.2">
    <rect id="Rectangle_1675" data-name="Rectangle 1675" width="59.768" height="42.811" transform="translate(0)" fill="#7dc4a6" opacity="0.2"/>
  </g>
  <g id="Group_1476" data-name="Group 1476" transform="translate(96.445 41.944)" opacity="0.2">
    <rect id="Rectangle_1676" data-name="Rectangle 1676" width="59.768" height="42.811" transform="translate(0)" fill="#7dc4a6" opacity="0.2"/>
  </g>
  <g id="Group_1477" data-name="Group 1477" transform="translate(96.445 151.034)" opacity="0.2">
    <rect id="Rectangle_1677" data-name="Rectangle 1677" width="59.768" height="42.811" transform="translate(0)" fill="#7dc4a6" opacity="0.2"/>
  </g>
  <g id="Group_1478" data-name="Group 1478" transform="translate(158.157 96.846)" opacity="0.2">
    <rect id="Rectangle_1678" data-name="Rectangle 1678" width="59.768" height="42.811" fill="#7dc4a6" opacity="0.2"/>
  </g>
  <g id="Group_1479" data-name="Group 1479" transform="translate(158.157 41.944)" opacity="0.2">
    <rect id="Rectangle_1679" data-name="Rectangle 1679" width="59.768" height="42.811" fill="#7dc4a6" opacity="0.2"/>
  </g>
  <g id="Group_1480" data-name="Group 1480" transform="translate(158.157 151.034)" opacity="0.2">
    <rect id="Rectangle_1680" data-name="Rectangle 1680" width="59.768" height="42.811" fill="#7dc4a6" opacity="0.2"/>
  </g>
  <path id="Path_1642" data-name="Path 1642" d="M535.18,611.6" transform="translate(-405.152 -449.162)" fill="none" stroke="#7dc4a6" stroke-miterlimit="10" stroke-width="1"/>
  <path id="Path_1665" data-name="Path 1665" d="M194.255,388.052l.015-.021-.027-.021h0l-.16-.107.033.024a.53.53,0,0,0-.7.154l-.065.092h0l-3.6,5.179-.628.921c-1.9-.572-4.984,1.834-6.545,3.215-.1.086-.19.166-.273.243-.124-.279-.2-.456-.2-.456-.077.847-3.07,2.118-3.769,2.581a2.518,2.518,0,0,1-1.043.35c.1-3.221-2.391-6.61-2.391-6.61l-6.089-7.748a6.839,6.839,0,0,1,.622-4.11c.05-.1.1-.2.157-.3h.03a6.738,6.738,0,0,0-.382,2.024c.015.524.5,3.067,1.185,2.963a.373.373,0,0,0,.35-.166,4.133,4.133,0,0,0,.566-2.711,5.554,5.554,0,0,1-.1.874c.044-.83-.05-1.707-.05-2.332,0-.249,0-.495.018-.744h.074v0h.077a8.18,8.18,0,0,0,3.718-1.724,1.994,1.994,0,0,0,1.4-.655,1.36,1.36,0,0,1-.264,1.268,2.212,2.212,0,0,0,1.819-1.416,4.941,4.941,0,0,0,.231-2.37,16.474,16.474,0,0,1-.175-2.409,8.858,8.858,0,0,0,.071-1.313,2.53,2.53,0,0,0-.071-.4h.024a.593.593,0,0,0,.424-.166,1.975,1.975,0,0,0,.533-1.162,9.891,9.891,0,0,0,.314-2.758c-.018.281-.053.566-.095.847a3.727,3.727,0,0,0-.779-2.877,5.679,5.679,0,0,0-1.816-1.152,1.331,1.331,0,0,1-.593-.424,1.716,1.716,0,0,1-.184-.735c-.228-1.559-1.695-2.643-3.156-3.259-1.879-.818-4.148-1.167-5.941-.2a18.844,18.844,0,0,0-2.37,1.81c-1,.761-2.157,1.295-3.227,1.958a6.463,6.463,0,0,0-2.6,2.649c-.785,1.778-.2,3.792-.1,5.721a9.312,9.312,0,0,1-3.57,8,3.2,3.2,0,0,0-.785.679.847.847,0,0,0-.065.969c.127.166.329.261.468.418a1.327,1.327,0,0,1,.116,1.218,7.635,7.635,0,0,1-2.074,3.514c.044.314.433.439.75.486a17.262,17.262,0,0,0,2.533.184h.364c-.039.1-.08.2-.121.311a9.855,9.855,0,0,0-.856,4.207c.3,1.8,1.244,10.006.776,11.446s.753,11.881.753,11.881.163.806.444,2.009c-.732,1.724-1.567,3.638-1.985,4.406-.841,1.538-.427,9.389,2.474,12.88,0,0,1.185,1.695.889,2.308a2.889,2.889,0,0,0,.053,1.695l.459,10.16a26.341,26.341,0,0,1-.213,3.105c-1.239,1.532-3.147,3.766-4.044,4.13-1.39.566-11.754,13.137-11.754,13.137s.083.151.246.4l-.3.338-1.988,2.305-.157.181c-.373-.071-2.859-.521-4.83-.664h-.2v-.035a7.366,7.366,0,0,0-2.074.056.666.666,0,0,0-.344.178c-.673.824-1.034,13.754-1.034,13.754s.717,6.474,2.963,6.835a1.182,1.182,0,0,0,.356.065h.1a3.094,3.094,0,0,0,2.667-1.662,2.576,2.576,0,0,0,.222-.593,4.775,4.775,0,0,1,.439-2.744c.7-1.591,2.006-4.391,2.006-4.391s2.37-2.492,1.947-3.7c.065-.1.142-.2.225-.326.889-1.268,2.69-3.772,4.148-5.443a4.291,4.291,0,0,1,.3-.32,7.278,7.278,0,0,0,1.653.477,6.018,6.018,0,0,0,3.055-2.821,16.776,16.776,0,0,1,3.209-3.713l-.047.376-.05,12.367a8.832,8.832,0,0,0,1.523.839v.3a39.7,39.7,0,0,1-.32,5.271l-.044.275c-.184-.13-.344-.175-.444-.074-.456.462-.741,3.413-.767,4.773v.136c-.074,1.357-.847,3.33,1.481,3.431,1.742.074,9.253.187,13.271.246a8.933,8.933,0,0,0,5.926-2.1c1.277-1.093,2.05-2.394.311-3.351-.107-.059-.219-.116-.344-.172l-3.852-.593-6.581-3.36s-.039-2.033-.83-1.695a2.222,2.222,0,0,0-.667.264c-.039-.074-.08-.154-.118-.237a7.57,7.57,0,0,1-.812-3.425,2.423,2.423,0,0,1,.015-.326,6.535,6.535,0,0,0,.545-.56s-.05-4.619.468-5.49,2.124-9.7,2.124-9.7a4.182,4.182,0,0,1,1.087-2.616c1.037-.975.673-3.8.673-3.8a4.567,4.567,0,0,0,1.917-3.283c.465-2.513,1.97-8,1.97-8s3.108-8.109,2.9-13.238a38.741,38.741,0,0,1,.3-7.8l.646-11.923v-.184c.258.2.433.356.433.356v-.13c.095.08.148.13.148.13s.332-5.41.219-7.555c1.813-.616,4.575-1.63,4.741-2.145.231-.767,3.342-3.194,3.342-3.194a.517.517,0,0,1-.19-.071c.1-.044.2-.1.3-.154,2.038-1.09,5.825-4.278,5.188-6.222l4.148-5.952a1.01,1.01,0,0,0-.1-1.265Z" transform="translate(-120.544 -272.645)" fill="url(#linear-gradient-2)"/>
  <path id="Path_1666" data-name="Path 1666" d="M300.443,486.3a2.7,2.7,0,0,1-.993.376c-1.295.038-2.37-3.467-2.37-3.467s.367-.373.954-.889c1.736-1.544,5.378-4.394,7.084-2.8C307.044,481.305,302.686,485.1,300.443,486.3Z" transform="translate(-236.961 -355.564)" fill="#ecb4b6"/>
  <path id="Path_1667" data-name="Path 1667" d="M221.938,768.22l-4.779,5.158s-4.421.05-3.555-2.388a8.921,8.921,0,0,0,.367-1.624,39.9,39.9,0,0,0,.311-5.221c0-1.144-.018-1.947-.018-1.947s6.96-3.049,6.249.127a5.971,5.971,0,0,0-.142,1.209,7.567,7.567,0,0,0,.794,3.392A7.686,7.686,0,0,0,221.938,768.22Z" transform="translate(-177.56 -554.845)" fill="#ecb4b6"/>
  <path id="Path_1668" data-name="Path 1668" d="M221.938,782.582l-4.779,5.158s-4.421.05-3.555-2.388a8.921,8.921,0,0,0,.367-1.624,10.188,10.188,0,0,1,1.538,1.929s3.049.889,3.887-1.778a4.527,4.527,0,0,1,1.778-2.59A7.679,7.679,0,0,0,221.938,782.582Z" transform="translate(-177.56 -569.207)" opacity="0.1"/>
  <path id="Path_1669" data-name="Path 1669" d="M230.811,790.177a8.693,8.693,0,0,1-5.819,2.074c-3.941-.056-11.3-.172-13.013-.243-2.287-.1-1.529-2.053-1.455-3.4v-.133c.027-1.348.3-4.27.753-4.726s2.018,2.033,2.018,2.033,3.049.889,3.887-1.778,2.542-2.924,2.542-2.924c.773-.335.812,1.677.812,1.677l6.453,3.327,3.787.592c.121.056.231.113.335.169C232.823,787.806,232.065,789.092,230.811,790.177Z" transform="translate(-175.346 -569.033)" fill="#4faf86"/>
  <circle id="Ellipse_70" data-name="Ellipse 70" cx="0.279" cy="0.279" r="0.279" transform="translate(43.264 215.458)" fill="#fff" opacity="0.25"/>
  <circle id="Ellipse_71" data-name="Ellipse 71" cx="0.279" cy="0.279" r="0.279" transform="translate(45.883 216.756)" fill="#fff" opacity="0.25"/>
  <circle id="Ellipse_72" data-name="Ellipse 72" cx="0.279" cy="0.279" r="0.279" transform="translate(47.229 217.357)" fill="#fff" opacity="0.25"/>
  <circle id="Ellipse_73" data-name="Ellipse 73" cx="0.279" cy="0.279" r="0.279" transform="translate(50.023 218.43)" fill="#fff" opacity="0.25"/>
  <circle id="Ellipse_74" data-name="Ellipse 74" cx="0.279" cy="0.279" r="0.279" transform="translate(48.6 217.974)" fill="#fff" opacity="0.25"/>
  <path id="Path_1670" data-name="Path 1670" d="M230.811,803.981a8.693,8.693,0,0,1-5.819,2.074c-3.941-.056-11.3-.172-13.013-.243-2.287-.1-1.529-2.053-1.455-3.4l14.361.889s5.881-.889,6.222-2.643C232.823,801.611,232.065,802.9,230.811,803.981Z" transform="translate(-175.346 -582.838)" fill="#fff"/>
  <path id="Path_1671" data-name="Path 1671" d="M230.811,803.981a8.693,8.693,0,0,1-5.819,2.074c-3.941-.056-11.3-.172-13.013-.243-2.287-.1-1.529-2.053-1.455-3.4l14.361.889s5.881-.889,6.222-2.643C232.823,801.611,232.065,802.9,230.811,803.981Z" transform="translate(-175.346 -582.838)" fill="#fff" opacity="0.25"/>
  <path id="Path_1672" data-name="Path 1672" d="M165.481,733.9a9.91,9.91,0,0,0-1.44,1.446c-1.425,1.653-3.188,4.148-4.062,5.386-.338.486-.542.791-.542.791l-1.908-.282s-2.056-3.149-2.03-3.224,1.63-3.458,1.63-3.458l.619-.726,1.953-2.282.889-1.031S167.2,732.653,165.481,733.9Z" transform="translate(-136.75 -533.479)" fill="#ecb4b6"/>
  <path id="Path_1673" data-name="Path 1673" d="M159.979,748.6c-.338.486-.542.791-.542.791l-1.908-.281s-2.056-3.15-2.03-3.224,1.63-3.464,1.63-3.464l.619-.726.2.038h.486c-1.7,1.778.124,5.689.124,5.689A2.077,2.077,0,0,1,159.979,748.6Z" transform="translate(-136.75 -541.347)" opacity="0.1"/>
  <path id="Path_1674" data-name="Path 1674" d="M143.515,751.317s-1.271,2.744-1.958,4.32a4.77,4.77,0,0,0-.433,2.717,2.669,2.669,0,0,1-.216.593,2.992,2.992,0,0,1-2.6,1.647h-.124c-2.317-.059-3.052-6.785-3.052-6.785s.356-12.8,1.016-13.629a.635.635,0,0,1,.335-.178,7.11,7.11,0,0,1,2.041-.056c2.095.151,4.788.667,4.788.667h.483c-1.7,1.778.124,5.692.124,5.692a2.094,2.094,0,0,1,1.449,1.218C146,748.665,143.515,751.317,143.515,751.317Z" transform="translate(-122.416 -540.078)" fill="#4faf86"/>
  <circle id="Ellipse_75" data-name="Ellipse 75" cx="0.279" cy="0.279" r="0.279" transform="translate(18.023 207.15)" fill="#fff" opacity="0.25"/>
  <circle id="Ellipse_76" data-name="Ellipse 76" cx="0.279" cy="0.279" r="0.279" transform="translate(17.884 209.369)" fill="#fff" opacity="0.25"/>
  <path id="Path_1675" data-name="Path 1675" d="M140.278,758.757a2.992,2.992,0,0,1-2.6,1.647h-.121c-2.317-.059-3.055-6.785-3.055-6.785s.356-12.8,1.016-13.629a.633.633,0,0,1,.335-.178,7.11,7.11,0,0,1,2.041-.056c-.039,2.3-.148,9.576,0,10.3S139.353,756.828,140.278,758.757Z" transform="translate(-121.973 -539.944)" fill="#fff"/>
  <path id="Path_1676" data-name="Path 1676" d="M140.278,758.757a2.992,2.992,0,0,1-2.6,1.647h-.121c-2.317-.059-3.055-6.785-3.055-6.785s.356-12.8,1.016-13.629a.633.633,0,0,1,.335-.178,7.11,7.11,0,0,1,2.041-.056c-.039,2.3-.148,9.576,0,10.3S139.353,756.828,140.278,758.757Z" transform="translate(-121.973 -539.944)" fill="#fff" opacity="0.25"/>
  <path id="Path_1677" data-name="Path 1677" d="M137.545,760.672c-2.317-.059-3.055-6.785-3.055-6.785s.356-12.8,1.016-13.629a.635.635,0,0,1,.335-.178c.486.723.913,2.323.527,5.843-.723,6.669.148,7.09.148,7.09A59.347,59.347,0,0,1,137.545,760.672Z" transform="translate(-121.966 -540.207)"/>
  <path id="Path_1678" data-name="Path 1678" d="M137.545,760.672c-2.317-.059-3.055-6.785-3.055-6.785s.356-12.8,1.016-13.629a.635.635,0,0,1,.335-.178c.486.723.913,2.323.527,5.843-.723,6.669.148,7.09.148,7.09A59.347,59.347,0,0,1,137.545,760.672Z" transform="translate(-121.966 -540.207)" opacity="0.1"/>
  <path id="Path_1679" data-name="Path 1679" d="M300.443,494.069a2.7,2.7,0,0,1-.993.376c-1.295.038-2.37-3.467-2.37-3.467s.367-.373.954-.889C298.458,491.038,299.625,493.6,300.443,494.069Z" transform="translate(-236.951 -363.343)" opacity="0.1"/>
  <path id="Path_1680" data-name="Path 1680" d="M277.4,492.293a3.258,3.258,0,0,0,1.751-.379c.684-.456,3.621-1.716,3.7-2.554,0,0,1.751,4.267,2.744,4.421,0,0-3.049,2.4-3.277,3.161s-6.175,2.631-6.175,2.631Z" transform="translate(-222.168 -362.859)" fill="#4bcc96"/>
  <path id="Path_1681" data-name="Path 1681" d="M277.4,492.293a3.258,3.258,0,0,0,1.751-.379c.684-.456,3.621-1.716,3.7-2.554,0,0,1.751,4.267,2.744,4.421,0,0-3.049,2.4-3.277,3.161s-6.175,2.631-6.175,2.631Z" transform="translate(-222.168 -362.859)" opacity="0.1"/>
  <path id="Path_1682" data-name="Path 1682" d="M175.454,733.9a9.91,9.91,0,0,0-1.44,1.446,10.277,10.277,0,0,1-4.344-3.793l.889-1.031S177.175,732.653,175.454,733.9Z" transform="translate(-146.722 -533.479)" opacity="0.1"/>
  <path id="Path_1683" data-name="Path 1683" d="M186.433,669s-3.727,4.981-5.09,5.541-11.523,13.007-11.523,13.007,2.184,4.015,6.2,4.673a5.931,5.931,0,0,0,3-2.794c.815-1.932,7.215-7.39,7.215-7.39Z" transform="translate(-146.828 -490.187)" fill="#8eb44a"/>
  <path id="Path_1684" data-name="Path 1684" d="M186.433,669s-3.727,4.981-5.09,5.541-11.523,13.007-11.523,13.007,2.184,4.015,6.2,4.673a5.931,5.931,0,0,0,3-2.794c.815-1.932,7.215-7.39,7.215-7.39Z" transform="translate(-146.828 -490.187)" opacity="0.1"/>
  <path id="Path_1685" data-name="Path 1685" d="M187.78,725.2a16.219,16.219,0,0,0,3.393,0C193.178,725.007,191.667,726.228,187.78,725.2Z" transform="translate(-159.466 -529.721)" opacity="0.1"/>
  <path id="Path_1686" data-name="Path 1686" d="M184.69,729.62s2.667,1.523,3.7.761S187.4,731.116,184.69,729.62Z" transform="translate(-157.292 -532.846)" opacity="0.1"/>
  <path id="Path_1687" data-name="Path 1687" d="M222.369,762.315a5.973,5.973,0,0,0-.142,1.209,5.448,5.448,0,0,1-6.089.611c0-1.144-.018-1.947-.018-1.947S223.08,759.126,222.369,762.315Z" transform="translate(-179.41 -554.833)" opacity="0.1"/>
  <path id="Path_1688" data-name="Path 1688" d="M229.517,541.142l-.074,1.4-.634,11.807a37.117,37.117,0,0,0-.3,7.721c.213,5.078-2.856,13.126-2.856,13.126s-1.481,5.437-1.932,7.926a4.534,4.534,0,0,1-1.878,3.259s.356,2.794-.661,3.76a4.17,4.17,0,0,0-1.067,2.59s-1.576,8.74-2.074,9.606-.459,5.437-.459,5.437c-3.3,3.911-8.127.355-8.127.355l.05-12.246s1.372-11.28,2.388-12.856,1.016-5.893,1.016-5.893l-.453-10.074a2.715,2.715,0,0,1-.05-1.677c.311-.61-.868-2.284-.868-2.284-2.847-3.458-3.259-11.232-2.427-12.74s3.295-7.621,3.295-7.621l3.4-1.982,6.142.181Z" transform="translate(-174.211 -399.943)" fill="#8eb44a"/>
  <path id="Path_1689" data-name="Path 1689" d="M230.1,744.15s.8,2.782,1.449,3.087S230.1,744.15,230.1,744.15Z" transform="translate(-189.247 -543.071)" opacity="0.1"/>
  <path id="Path_1690" data-name="Path 1690" d="M233.83,712.9s2.074,1.641,2.963,1.639S233.83,712.9,233.83,712.9Z" transform="translate(-191.872 -521.08)" opacity="0.1"/>
  <path id="Path_1691" data-name="Path 1691" d="M237.4,433.859v3.354l-2.213-.954-2.207-.951-4.806-4.726a36.383,36.383,0,0,1-5.834-4.717c-1.161-1.283-1.745-2.495-.723-3.135a6.368,6.368,0,0,0,1.33-1.165,21.871,21.871,0,0,0,2.649-3.911c.033-.056.065-.113.095-.169.99-1.816,1.644-3.366,1.644-3.366a20.028,20.028,0,0,1,4.575,2.157c.145.1.281.2.412.311,1,.818,1.5,1.778.575,2.714a7.113,7.113,0,0,0-.655.782h0a6.439,6.439,0,0,0-.409.64c-.053.1-.107.2-.154.3a6.832,6.832,0,0,0-.61,4.068Z" transform="translate(-182.907 -309.759)" fill="#ecb4b6"/>
  <path id="Path_1692" data-name="Path 1692" d="M274.465,395.406c.116.2.276.373.382.578a2.777,2.777,0,0,1,.169,1.422,8.09,8.09,0,0,0,.148,2.27,10.567,10.567,0,0,1,.474,2,5.256,5.256,0,0,1-.957,2.705,1.947,1.947,0,0,0,1.393-.649,1.351,1.351,0,0,1-.255,1.253,2.154,2.154,0,0,0,1.778-1.4,4.887,4.887,0,0,0,.228-2.37,16.165,16.165,0,0,1-.172-2.385,8.716,8.716,0,0,0,.068-1.3,4.719,4.719,0,0,0-1.114-2.311l-1.031-1.416a.729.729,0,0,0-.3-.27C274.3,393.119,274.192,394.914,274.465,395.406Z" transform="translate(-220.377 -295.112)" fill="#464353"/>
  <path id="Path_1693" data-name="Path 1693" d="M243.661,419.288a7.109,7.109,0,0,0-.655.782h0a6.413,6.413,0,0,0-.409.64c-.053.1-.107.2-.154.3a8,8,0,0,1-5.988-3.236c-.033-.044-.065-.089-.095-.136.033-.056.065-.113.095-.169.99-1.816,1.644-3.366,1.644-3.366a20.028,20.028,0,0,1,4.575,2.157c.145.1.281.2.412.311C244.072,417.392,244.57,418.34,243.661,419.288Z" transform="translate(-193.653 -309.667)" opacity="0.1"/>
  <path id="Path_1694" data-name="Path 1694" d="M247.373,390.453a8,8,0,0,1-6.553,7.87,8.089,8.089,0,0,1-1.45.13h-.3a8,8,0,1,1,8.3-8Z" transform="translate(-190.141 -287.349)" fill="#ecb4b6"/>
  <path id="Path_1695" data-name="Path 1695" d="M254.936,458.579s4.029,2.273,3,.356l-5.259-7.775h0l5.97,7.671s3.81,5.235,1.727,8.841c0,0-.3,3,.05,3.71s-.1,8.3-.1,8.3-1.425-1.321-2.187-1.07-6.136.7-6.136.7Z" transform="translate(-204.659 -335.969)" opacity="0.1"/>
  <path id="Path_1696" data-name="Path 1696" d="M260.3,541.515l-.074,1.4c-.483-.35-1.156-.741-1.6-.593-.762.255-6.145.714-6.145.714l.246-1.751Z" transform="translate(-204.997 -399.501)" opacity="0.1"/>
  <path id="Path_1697" data-name="Path 1697" d="M255.425,458.579s4.032,2.273,3,.356l-5.259-7.775h0l5.97,7.671s3.81,5.235,1.727,8.841c0,0-.3,3,.05,3.71s-.1,8.3-.1,8.3-1.422-1.321-2.184-1.07-6.148.714-6.148.714Z" transform="translate(-204.997 -335.969)" fill="#464353"/>
  <path id="Path_1698" data-name="Path 1698" d="M228.4,454.439a27.761,27.761,0,0,1-1.239,5.351s-.711,7.215-1.633,9.36-.51,5.081-1.016,10.518a6.881,6.881,0,0,1-1.665,4.21,6.241,6.241,0,0,1-4.972,1.713l-.373-.03c-2.542-.252-4.981-12.5-4.981-12.5s-1.167-10.418-.711-11.852-.45-9.544-.756-11.321a9.835,9.835,0,0,1,.838-4.166c.264-.693.48-1.185.48-1.185a12.276,12.276,0,0,1,2.287-4.166,2.1,2.1,0,0,1,1.508-.634,3.772,3.772,0,0,1,1.881.593.529.529,0,0,1,.065.044s9.25,9.452,10.112,11.635A5.587,5.587,0,0,1,228.4,454.439Z" transform="translate(-175.82 -328.008)" opacity="0.1"/>
  <path id="Path_1699" data-name="Path 1699" d="M227.376,453.943a27.905,27.905,0,0,1-1.241,5.348s-.711,7.218-1.627,9.351-.507,5.081-1.016,10.518a6.9,6.9,0,0,1-1.665,4.21,6.251,6.251,0,0,1-4.972,1.713l-.373-.03c-2.542-.255-4.981-12.5-4.981-12.5s-1.167-10.415-.711-11.837-.456-9.552-.761-11.333a9.842,9.842,0,0,1,.839-4.166c.264-.693.48-1.17.48-1.17a12.276,12.276,0,0,1,2.287-4.166,2.074,2.074,0,0,1,1.508-.631,3.71,3.71,0,0,1,1.881.593l.065.041s9.25,9.452,10.112,11.635A5.471,5.471,0,0,1,227.376,453.943Z" transform="translate(-175.095 -327.661)" fill="#4bcc96"/>
  <path id="Path_1700" data-name="Path 1700" d="M226.77,614.38s-2.1,1.867-2.821,1.778S226.77,614.38,226.77,614.38Z" transform="translate(-184.85 -451.138)" opacity="0.1"/>
  <path id="Path_1701" data-name="Path 1701" d="M228.515,620.361a30.066,30.066,0,0,1-2.871,1.185C224.983,621.706,227.661,620.1,228.515,620.361Z" transform="translate(-186.039 -455.338)" opacity="0.1"/>
  <path id="Path_1702" data-name="Path 1702" d="M264.44,525.646s3.277.039,3.772,1.067S265.495,525.225,264.44,525.646Z" transform="translate(-213.413 -388.413)" opacity="0.1"/>
  <path id="Path_1703" data-name="Path 1703" d="M262.89,531.8a11.918,11.918,0,0,1,3.277,1.144C266.928,533.554,262.89,531.8,262.89,531.8Z" transform="translate(-212.322 -392.794)" opacity="0.1"/>
  <path id="Path_1704" data-name="Path 1704" d="M244.542,510.84s-.3,10.326-1.428,11.662S244.542,510.84,244.542,510.84Z" transform="translate(-198.202 -378.046)" opacity="0.1"/>
  <path id="Path_1705" data-name="Path 1705" d="M237.854,607.7s-2.1,9.108,2.116,9.671S242.885,607,242.885,607Z" transform="translate(-194.335 -445.983)" opacity="0.1"/>
  <path id="Path_1706" data-name="Path 1706" d="M237.346,607.2s-2.092,9.108,2.118,9.677,2.913-10.37,2.913-10.37Z" transform="translate(-193.981 -445.637)" fill="#ecb4b6"/>
  <path id="Path_1707" data-name="Path 1707" d="M234.374,389.578a3.082,3.082,0,0,1-.3-.554c-.56-1.167-2-.593-3.055-.038l-.563.726a4.518,4.518,0,0,0-.643.992,7.514,7.514,0,0,0-.27.889c-.145.516-.359,1.007-.551,1.511a17.566,17.566,0,0,0-1.123,5.227,8.1,8.1,0,0,1-1.452.13h-.036v-.036c.053-.2.1-.406.139-.61h0a10.572,10.572,0,0,0,.08-3.5v-.077c-.039-.258-.089-.518-.11-.776-.1.178-.193.358-.3.542a5.805,5.805,0,0,1-2.51,2.889,5.148,5.148,0,0,1-1.526.344,8.7,8.7,0,0,0-1.908.317,1.185,1.185,0,0,0-.554.335,1.636,1.636,0,0,0-.278.836,6.735,6.735,0,0,1-.3,1.159,10.156,10.156,0,0,1-2.489,3.71l-.276.267A5.158,5.158,0,0,1,214.715,405a5.037,5.037,0,0,1-1.745.261c.264-.693.48-1.17.48-1.17a12.276,12.276,0,0,1,2.287-4.166,2.074,2.074,0,0,1,1.508-.631,22.376,22.376,0,0,0,2.744-4.08,8,8,0,1,1,14.391-5.63Z" transform="translate(-177.193 -287.389)" opacity="0.1"/>
  <path id="Path_1708" data-name="Path 1708" d="M226.671,370.408a5.459,5.459,0,0,0-1.778-1.141,1.355,1.355,0,0,1-.578-.421,1.76,1.76,0,0,1-.178-.726c-.222-1.547-1.662-2.616-3.093-3.244a6.743,6.743,0,0,0-5.825-.2,18.9,18.9,0,0,0-2.314,1.8c-.984.753-2.116,1.28-3.164,1.938a6.217,6.217,0,0,0-2.548,2.625c-.77,1.748-.193,3.754-.095,5.662a9.31,9.31,0,0,1-3.5,7.935,3.059,3.059,0,0,0-.77.673.845.845,0,0,0-.062.957c.121.166.323.261.456.415a1.317,1.317,0,0,1,.113,1.209,7.561,7.561,0,0,1-2.033,3.476c.042.314.421.435.732.483a16.628,16.628,0,0,0,2.486.181,4.178,4.178,0,0,0,3.475-1.4,9.437,9.437,0,0,0,3.07-5.135,1.691,1.691,0,0,1,.278-.836,1.253,1.253,0,0,1,.554-.335c1.105-.379,2.37-.193,3.434-.661,1.387-.593,2.074-2.074,2.8-3.431.024.258.071.519.113.779a10.537,10.537,0,0,1-.207,4.184,8.683,8.683,0,0,0-.465,2.341c.015.593.616,3.689,1.407,2.761s.5-2.978.5-4.127a17.643,17.643,0,0,1,1.164-6.3c.19-.5.406-1,.551-1.511a8.107,8.107,0,0,1,.267-.889,4.643,4.643,0,0,1,.646-.993l.566-.726c1.055-.56,2.495-1.129,3.055.038.213.447.329.942.889.507a1.99,1.99,0,0,0,.521-1.15C227.489,373.534,227.779,371.635,226.671,370.408Z" transform="translate(-168.981 -274.429)" fill="#464353"/>
  <path id="Path_1709" data-name="Path 1709" d="M225.876,468.484a4.972,4.972,0,0,0-9.662-1.428.75.75,0,0,0-.036.107c-1.17,3.505-.661,12.382-.661,12.382s.151,5.961.711,7.944,2.133,7.671,2.133,8.592,1.461,4.421,2.074,4.675.924,2.234,1.076,2.59.593,4.981.593,4.981,5.742-.355,5.843-1.271-1.271-5.387-1.271-5.387a10.365,10.365,0,0,1-1.141-3.3c-.13-1.473-.924-2.142-.767-3.158s-.459-1.523-.459-2.184a16.254,16.254,0,0,0-.456-2.438s-.966-.764-.812-1.677-1.372-2.744-.966-3.4a6.875,6.875,0,0,0,.507-2.287s.51-7.315.865-9.3a19.69,19.69,0,0,1,2.438-5.182S225.882,468.647,225.876,468.484Z" transform="translate(-178.908 -344.956)" opacity="0.1"/>
  <path id="Path_1710" data-name="Path 1710" d="M224.2,500.221a6.251,6.251,0,0,1-4.972,1.713c-.184-.693-.45-1.547-.839-1.707-.616-.255-2.074-3.76-2.074-4.673s-1.573-6.607-2.133-8.592-.711-7.941-.711-7.941-.51-8.889.661-12.385a.309.309,0,0,1,.036-.1,4.972,4.972,0,0,1,9.662,1.428v.252a19.988,19.988,0,0,0-2.438,5.182c-.364,1.982-.859,9.3-.859,9.3a6.9,6.9,0,0,1-.51,2.287c-.406.661,1.117,2.492.966,3.4a2.087,2.087,0,0,0,.812,1.677,16.234,16.234,0,0,1,.456,2.441c0,.664.61,1.167.459,2.184s.661,1.677.791,3.15A8.212,8.212,0,0,0,224.2,500.221Z" transform="translate(-177.466 -344.543)" opacity="0.1"/>
  <path id="Path_1711" data-name="Path 1711" d="M224.846,467.974a4.972,4.972,0,0,0-9.662-1.428l-.036.1c-1.17,3.508-.661,12.385-.661,12.385s.151,5.958.711,7.941,2.133,7.674,2.133,8.592,1.461,4.421,2.074,4.676.924,2.237,1.076,2.592.593,4.978.593,4.978,5.742-.355,5.843-1.268-1.268-5.387-1.268-5.387a10.368,10.368,0,0,1-1.144-3.3c-.13-1.473-.942-2.133-.788-3.15s-.459-1.526-.459-2.187a16.255,16.255,0,0,0-.456-2.439,2.073,2.073,0,0,1-.812-1.677c.154-.915-1.372-2.744-.966-3.4a6.863,6.863,0,0,0,.507-2.284s.51-7.318.865-9.3a19.69,19.69,0,0,1,2.439-5.182A1.292,1.292,0,0,0,224.846,467.974Z" transform="translate(-178.183 -344.595)" fill="#4bcc96"/>
  <path id="Path_1712" data-name="Path 1712" d="M217.88,520.955c.151-.154,3.049-3.354,3.961-2.21S217.88,520.955,217.88,520.955Z" transform="translate(-180.648 -383.403)" opacity="0.1"/>
  <path id="Path_1713" data-name="Path 1713" d="M218.78,529.951c.113-.116,2.895-.228,3.582-1.778S218.78,529.951,218.78,529.951Z" transform="translate(-181.282 -389.946)" opacity="0.1"/>
  <g id="Group_1485" data-name="Group 1485" transform="translate(32.405 97.941)" opacity="0.1">
    <path id="Path_1714" data-name="Path 1714" d="M206.7,437.418a.785.785,0,0,1,.151.275,1.185,1.185,0,0,0-.151-1.037c-.136-.157-.335-.249-.459-.415l-.024-.042a.785.785,0,0,0,.024.8C206.378,437.169,206.562,437.264,206.7,437.418Z" transform="translate(-204.775 -423.154)"/>
    <path id="Path_1715" data-name="Path 1715" d="M220.445,397.486v-.865c-.053-1.037-.246-2.1-.3-3.141a37.946,37.946,0,0,0,.3,3.9C220.445,397.412,220.442,397.444,220.445,397.486Z" transform="translate(-214.644 -393.092)"/>
    <path id="Path_1716" data-name="Path 1716" d="M257.907,444.022c-.705.827-1.259-1.553-1.381-2.492a3.9,3.9,0,0,0-.027.492c.018.593.616,3.689,1.407,2.761a4.063,4.063,0,0,0,.557-2.684A3.2,3.2,0,0,1,257.907,444.022Z" transform="translate(-240.23 -426.905)"/>
    <path id="Path_1717" data-name="Path 1717" d="M218.532,417.5a10.192,10.192,0,0,1,.11,1.2,10.409,10.409,0,0,0-.11-1.967c-.039-.258-.089-.518-.113-.779-.732,1.369-1.41,2.833-2.8,3.434-1.076.465-2.329.281-3.434.661a1.185,1.185,0,0,0-.554.335,1.653,1.653,0,0,0-.278.836,9.478,9.478,0,0,1-3.073,5.135,4.177,4.177,0,0,1-3.475,1.4,16.966,16.966,0,0,1-2.483-.181,1.872,1.872,0,0,1-.373-.1c-.116.13-.237.255-.361.376.042.314.424.436.735.483a16.6,16.6,0,0,0,2.483.181,4.178,4.178,0,0,0,3.476-1.4,9.461,9.461,0,0,0,3.073-5.135,1.662,1.662,0,0,1,.278-.836,1.22,1.22,0,0,1,.554-.335c1.105-.379,2.37-.193,3.434-.661,1.387-.593,2.074-2.074,2.8-3.431C218.443,416.982,218.493,417.243,218.532,417.5Z" transform="translate(-201.59 -408.911)"/>
    <path id="Path_1718" data-name="Path 1718" d="M270.6,394.14a2,2,0,0,1-.524,1.15c-.557.433-.67-.059-.889-.507-.56-1.167-2-.593-3.055-.038l-.566.726a4.515,4.515,0,0,0-.643.993,6.979,6.979,0,0,0-.267.889c-.148.515-.361,1.007-.554,1.508a17.733,17.733,0,0,0-1.162,6.3v.314a17.69,17.69,0,0,1,1.158-5.846c.193-.5.406-1,.554-1.511a6.985,6.985,0,0,1,.267-.889,4.512,4.512,0,0,1,.643-.993l.566-.726c1.055-.56,2.495-1.129,3.055.038.216.447.329.942.889.507a1.994,1.994,0,0,0,.524-1.15,10.046,10.046,0,0,0,.3-2.732A13.065,13.065,0,0,1,270.6,394.14Z" transform="translate(-244.763 -392.17)"/>
  </g>
  <path id="Path_1719" data-name="Path 1719" d="M311.887,469.369l.157.107a.628.628,0,0,1-.163-.889l7.064-10.234a.625.625,0,0,1,.874-.16l-.157-.11a1.01,1.01,0,0,1,.258,1.4l-6.628,9.62A1.013,1.013,0,0,1,311.887,469.369Z" transform="translate(-247.335 -340.764)" fill="#464353"/>
  <path id="Path_1720" data-name="Path 1720" d="M.516,0H.661V13.706H.516A.516.516,0,0,1,0,13.191V.519A.516.516,0,0,1,.516,0Z" transform="translate(71.98 117.068) rotate(34.56)" fill="#9f9eff"/>
  <rect id="Rectangle_1684" data-name="Rectangle 1684" width="0.127" height="1.117" rx="0.064" transform="translate(71.422 118.896) rotate(34.56)" fill="#464353"/>
  <path id="Path_1721" data-name="Path 1721" d="M817.314,328.105A5.117,5.117,0,1,1,812.2,323,5.117,5.117,0,0,1,817.314,328.105Zm-5.71,2.708,3.8-3.8a.332.332,0,0,0,0-.465l-.468-.468a.326.326,0,0,0-.465,0l-3.1,3.1-1.446-1.44a.335.335,0,0,0-.468,0l-.465.468a.326.326,0,0,0,0,.465l2.145,2.145a.326.326,0,0,0,.465,0Z" transform="translate(-597.307 -245.312)" fill="#4faf86"/>
  <path id="Path_1722" data-name="Path 1722" d="M608.1,517.617a5.117,5.117,0,1,1-5.117-5.117A5.117,5.117,0,0,1,608.1,517.617Zm-5.71,2.708,3.81-3.8a.329.329,0,0,0,0-.468l-.48-.45a.329.329,0,0,0-.468,0l-3.1,3.081-1.446-1.446a.326.326,0,0,0-.465,0l-.468.465a.335.335,0,0,0,0,.468l2.145,2.145a.329.329,0,0,0,.468,0Z" transform="translate(-449.489 -379.21)" fill="#4faf86"/>
  <path id="Path_1723" data-name="Path 1723" d="M608.1,706.277a5.117,5.117,0,1,1-5.117-5.117A5.117,5.117,0,0,1,608.1,706.277Zm-5.71,2.708,3.81-3.8a.329.329,0,0,0,0-.468l-.465-.465a.329.329,0,0,0-.468,0l-3.1,3.1-1.446-1.446a.326.326,0,0,0-.465,0l-.468.465a.335.335,0,0,0,0,.468l2.145,2.145a.329.329,0,0,0,.468,0Z" transform="translate(-449.489 -512.818)" fill="#4faf86"/>
</svg>
