<svg width="64" height="64" viewBox="0 0 64 64" fill="none" xmlns="http://www.w3.org/2000/svg">
<path d="M38 54H26V40H20V26C20 22.686 22.686 20 26 20H38C41.314 20 44 22.686 44 26V40H38V54Z" stroke="#3878DF" stroke-width="3" stroke-miterlimit="10" stroke-linecap="square"/>
<path d="M32 14C35.3137 14 38 11.3137 38 8C38 4.68629 35.3137 2 32 2C28.6863 2 26 4.68629 26 8C26 11.3137 28.6863 14 32 14Z" stroke="#3878DF" stroke-width="3" stroke-miterlimit="10" stroke-linecap="square"/>
<path d="M46 48.8081C55.516 49.9821 62 52.3141 62 55.0001C62 58.8661 48.568 62.0001 32 62.0001C15.432 62.0001 2 58.8661 2 55.0001C2 52.3141 8.484 49.9821 18 48.8081" stroke="#3878DF" stroke-width="3" stroke-miterlimit="10"/>
</svg>
