<svg width="64" height="64" viewBox="0 0 64 64" fill="none" xmlns="http://www.w3.org/2000/svg">
<path d="M17.144 14.66C18.784 15.872 20.264 17 21.818 18.884C23.126 20.47 24.692 26.134 22.546 28.91C20.118 32.048 13.09 33.108 13.09 36C13.09 38.176 16.172 40.66 17.818 43.09C20.294 46.744 19.168 50.284 17.818 52.544C17.118 53.716 15.928 54.654 14.688 55.398" stroke="#3878DF" stroke-width="3" stroke-miterlimit="10"/>
<path d="M57.304 30C57.76 31.926 58 33.934 58 36C58 50.36 46.36 62 32 62C17.64 62 6 50.36 6 36C6 21.64 17.64 10 32 10C32.18 10 32.362 10.002 32.542 10.006" stroke="#3878DF" stroke-width="3" stroke-miterlimit="10"/>
<path d="M44 16C45.1046 16 46 15.1046 46 14C46 12.8954 45.1046 12 44 12C42.8954 12 42 12.8954 42 14C42 15.1046 42.8954 16 44 16Z" fill="#3878DF"/>
<path d="M31.67 61.998C26.484 57.806 26.204 44.016 34.368 40.816C38.7 39.118 39.896 47.654 48.6 46.222C50.906 45.842 53.218 47.25 53.386 50.788" stroke="#3878DF" stroke-width="3" stroke-miterlimit="10"/>
<path d="M56 13.688C56 20.902 44 32 44 32C44 32 32 20.902 32 13.688C32 6.292 38.202 2 44 2C49.798 2 56 6.292 56 13.688Z" stroke="#3878DF" stroke-width="3" stroke-miterlimit="10" stroke-linecap="square"/>
</svg>
