<svg xmlns="http://www.w3.org/2000/svg" width="45.096" height="47" viewBox="0 0 45.096 47">
    <defs>
        <style>
            .cls-1{fill:#c9c9c9}
        </style>
    </defs>
    <g id="microsoft" transform="translate(-.952)">
        <g id="Group_263" data-name="Group 263">
            <path id="Path_306" d="M45.707.248a1 1 0 0 0-.792-.239L24.819 2.7a1 1 0 0 0-.867.991v17.591a1 1 0 0 0 1 1h20.1a1 1 0 0 0 1-1V1a1 1 0 0 0-.345-.752zm-1.659 20.034h-18.1V4.565l18.1-2.422z" class="cls-1" data-name="Path 306"/>
            <path id="Path_307" d="M20.952 24.336l-18.9.039a1 1 0 0 0-1 1v15a1 1 0 0 0 .873.992l18.9 2.406a1.1 1.1 0 0 0 .127.008 1 1 0 0 0 1-1V25.336a1 1 0 0 0-1-1zm-1 17.311l-16.9-2.152V26.373l16.9-.035z" class="cls-1" data-name="Path 307"/>
            <path id="Path_308" d="M20.824 3.187l-19 2.445a1 1 0 0 0-.872.992v14.658a1 1 0 0 0 1 1h19a1 1 0 0 0 1-1V4.179a1 1 0 0 0-1.128-.992zm-.872 17.095h-17V7.5l17-2.188z" class="cls-1" data-name="Path 308"/>
            <path id="Path_309" d="M45.05 24.375l-20.1-.028a1 1 0 0 0-1 1v17.935a1 1 0 0 0 .866.991l20.1 2.718a.964.964 0 0 0 .132.009 1 1 0 0 0 1-1V25.375a1 1 0 0 0-.998-1zm-1 20.48l-18.1-2.447v-16.06l18.1.025z" class="cls-1" data-name="Path 309"/>
        </g>
    </g>
</svg>
