<?xml version="1.0" encoding="UTF-8"?>
<svg width="61px" height="74px" viewBox="0 0 61 74" version="1.1" xmlns="http://www.w3.org/2000/svg" xmlns:xlink="http://www.w3.org/1999/xlink">
    <!-- Generator: Sketch 60 (88103) - https://sketch.com -->
    <title>Accounting</title>
    <desc>Created with Sketch.</desc>
    <defs>
        <linearGradient x1="50%" y1="0%" x2="50%" y2="100%" id="linearGradient-1">
            <stop stop-color="#0DB0D4" offset="0%"></stop>
            <stop stop-color="#9D32FF" offset="100%"></stop>
        </linearGradient>
    </defs>
    <g id="Design" stroke="none" stroke-width="1" fill="none" fill-rule="evenodd">
        <g id="1.-Home" transform="translate(-243.000000, -428.000000)" fill="url(#linearGradient-1)" fill-rule="nonzero">
            <g id="Group-31" transform="translate(135.000000, 347.000000)">
                <g id="Group-5" transform="translate(41.000000, 41.000000)">
                    <g id="Group-15" transform="translate(37.500000, 33.000000)">
                        <g id="Icon/Software/Accounting" transform="translate(30.000000, 7.000000)">
                            <path d="M19.2512734,0 C20.0495195,0 20.6965859,0.647210938 20.6965859,1.4453125 C20.6965859,2.24341406 20.0495195,2.890625 19.2512734,2.890625 L19.2512734,2.890625 L2.890625,2.890625 L2.890625,63.5733711 L23.2877422,63.5733711 L23.2877422,57.7304063 L9.93175391,57.7304063 C9.13350781,57.7304063 8.48644141,57.0831953 8.48644141,56.2850938 L8.48644141,56.2850938 L8.48644141,46.9657188 C8.48644141,46.1676172 9.13350781,45.5204063 9.93175391,45.5204063 L9.93175391,45.5204063 L23.2877422,45.5204063 L23.2877422,30.772293 C23.2877422,27.3785547 26.0487227,24.6174297 29.4424609,24.6174297 L29.4424609,24.6174297 L48.3803906,24.6174297 L48.3803906,2.890625 L31.9593281,2.890625 C31.1612266,2.890625 30.5140156,2.24341406 30.5140156,1.4453125 C30.5140156,0.647210937 31.1612266,0 31.9593281,0 L31.9593281,0 L49.8255586,0 C50.6236602,0 51.2708711,0.647210937 51.2708711,1.4453125 L51.2708711,1.4453125 L51.2708711,24.6174297 L54.1616406,24.6174297 C57.5553789,24.6174297 60.3165039,27.3785547 60.3165039,30.772293 L60.3165039,30.772293 L60.3165039,67.8452812 C60.3165039,71.238875 57.5553789,74 54.1616406,74 L54.1616406,74 L29.4423164,74 C26.0487227,74 23.2875977,71.238875 23.2875977,67.8452812 L23.2875977,67.8452812 L23.2875977,66.4639961 L1.4453125,66.4639961 C0.647066406,66.4639961 -3.62376795e-13,65.8167852 -3.62376795e-13,65.0186836 L-3.62376795e-13,65.0186836 L-3.62376795e-13,1.4453125 C-3.62376795e-13,0.647210937 0.647066406,0 1.4453125,0 L1.4453125,0 Z M54.1617852,27.5080547 L29.4424609,27.5086328 C27.6429023,27.5086328 26.1789453,28.9725898 26.1789453,30.7721484 L26.1789453,30.7721484 L26.1783672,67.8452812 C26.1783672,69.6451289 27.6426133,71.109375 29.4424609,71.109375 L29.4424609,71.109375 L54.1617852,71.109375 C55.9616328,71.109375 57.4260234,69.6451289 57.4260234,67.8452812 L57.4260234,67.8452812 L57.4260234,30.772293 C57.4260234,28.9724453 55.9616328,27.5080547 54.1617852,27.5080547 L54.1617852,27.5080547 Z M38.773543,58.5160781 C39.5717891,58.5160781 40.2188555,59.1632891 40.2188555,59.9613906 L40.2188555,59.9613906 L40.2188555,66.8978789 C40.2188555,67.6959805 39.5716445,68.3431914 38.773543,68.3431914 L38.773543,68.3431914 L31.4761602,68.3431914 C30.6780586,68.3431914 30.0308477,67.6959805 30.0308477,66.8978789 L30.0308477,66.8978789 L30.0308477,59.9613906 C30.0308477,59.1632891 30.6780586,58.5160781 31.4761602,58.5160781 L31.4761602,58.5160781 Z M52.3099062,58.5160781 C53.1080078,58.5160781 53.7552187,59.1632891 53.7552187,59.9613906 L53.7552187,59.9613906 L53.7552187,66.8978789 C53.7552187,67.6959805 53.1080078,68.3431914 52.3099062,68.3431914 L52.3099062,68.3431914 L45.0125234,68.3431914 C44.2144219,68.3431914 43.5672109,67.6959805 43.5672109,66.8978789 L43.5672109,66.8978789 L43.5672109,59.9613906 C43.5672109,59.1632891 44.2144219,58.5160781 45.0125234,58.5160781 L45.0125234,58.5160781 Z M37.3282305,61.4067031 L32.9214727,61.4067031 L32.9214727,65.4525664 L37.3282305,65.4525664 L37.3282305,61.4067031 Z M50.8645937,61.4067031 L46.4578359,61.4067031 L46.4578359,65.4525664 L50.8645937,65.4525664 L50.8645937,61.4067031 Z M38.773543,46.1363984 C39.5717891,46.1363984 40.2188555,46.7834648 40.2188555,47.5817109 L40.2188555,47.5817109 L40.2188555,54.5181992 C40.2188555,55.3163008 39.5716445,55.9635117 38.773543,55.9635117 L38.773543,55.9635117 L31.4760156,55.9635117 C31.0927188,55.9635117 30.7251758,55.8111758 30.4540352,55.5401797 C30.1830391,55.2690391 30.0307031,54.9014961 30.0307031,54.5181992 L30.0307031,54.5181992 L30.0308477,47.5817109 C30.0308477,46.7834648 30.6780586,46.1363984 31.4761602,46.1363984 L31.4761602,46.1363984 Z M52.3099062,46.1363984 C53.1080078,46.1363984 53.7552187,46.7834648 53.7552187,47.5817109 L53.7552187,47.5817109 L53.7552187,54.5181992 C53.7552187,55.3163008 53.1080078,55.9635117 52.3099062,55.9635117 L52.3099062,55.9635117 L45.0125234,55.9635117 C44.2144219,55.9635117 43.5672109,55.3163008 43.5672109,54.5181992 L43.5672109,54.5181992 L43.5672109,47.5817109 C43.5672109,46.7836094 44.2144219,46.1363984 45.0125234,46.1363984 L45.0125234,46.1363984 Z M23.2877422,48.4111758 L11.3770664,48.4111758 L11.3770664,54.8399258 L23.2877422,54.8399258 L23.2877422,48.4111758 Z M37.3282305,49.0270234 L32.9214727,49.0270234 L32.9213281,53.0728867 L37.3282305,53.0728867 L37.3282305,49.0270234 Z M50.8645937,49.0270234 L46.4578359,49.0270234 L46.4578359,53.0728867 L50.8645937,53.0728867 L50.8645937,49.0270234 Z M52.3097617,30.6680859 C53.1078633,30.6680859 53.7550742,31.3152969 53.7550742,32.1133984 L53.7550742,32.1133984 L53.7550742,41.886457 C53.7550742,42.6845586 53.1078633,43.3317695 52.3097617,43.3317695 L52.3097617,43.3317695 L31.4760156,43.3317695 C30.6779141,43.3317695 30.0307031,42.6845586 30.0307031,41.886457 L30.0307031,41.886457 L30.0307031,32.1133984 C30.0307031,31.3152969 30.6779141,30.6680859 31.4760156,30.6680859 L31.4760156,30.6680859 Z M18.3262734,37.9453789 C19.1245195,37.9453789 19.7715859,38.5925898 19.7715859,39.3906914 C19.7715859,40.188793 19.1245195,40.8360039 18.3262734,40.8360039 L18.3262734,40.8360039 L9.93175391,40.8360039 C9.13350781,40.8360039 8.48644141,40.188793 8.48644141,39.3906914 C8.48644141,38.5925898 9.13350781,37.9453789 9.93175391,37.9453789 L9.93175391,37.9453789 Z M50.8645937,33.5587109 L32.9213281,33.5587109 L32.9213281,40.4412891 L50.8645937,40.4412891 L50.8645937,33.5587109 Z M18.3262734,31.2462109 C19.1245195,31.2462109 19.7715859,31.8934219 19.7715859,32.6915234 C19.7715859,33.489625 19.1245195,34.1368359 18.3262734,34.1368359 L18.3262734,34.1368359 L9.93175391,34.1368359 C9.13350781,34.1368359 8.48644141,33.489625 8.48644141,32.6915234 C8.48644141,31.8934219 9.13350781,31.2462109 9.93175391,31.2462109 L9.93175391,31.2462109 Z M19.4248555,24.1498711 C20.2231016,24.1498711 20.870168,24.797082 20.870168,25.5951836 C20.870168,26.3932852 20.2231016,27.0404961 19.4248555,27.0404961 L19.4248555,27.0404961 L9.93175391,27.0404961 C9.13350781,27.0404961 8.48644141,26.3932852 8.48644141,25.5951836 C8.48644141,24.797082 9.13350781,24.1498711 9.93175391,24.1498711 L9.93175391,24.1498711 Z M41.5709453,8.65019531 C42.3690469,8.65019531 43.0162578,9.29740625 43.0162578,10.0955078 L43.0162578,10.0955078 L43.0162578,18.0065703 C43.0162578,18.8046719 42.3690469,19.4518828 41.5709453,19.4518828 L41.5709453,19.4518828 L9.70050391,19.4518828 C8.90225781,19.4518828 8.25519141,18.8046719 8.25519141,18.0065703 L8.25519141,18.0065703 L8.25519141,10.0955078 C8.25519141,9.29726172 8.90225781,8.65019531 9.70050391,8.65019531 L9.70050391,8.65019531 Z M40.1256328,11.5408203 L11.1458164,11.5408203 L11.1458164,16.5612578 L40.1256328,16.5612578 L40.1256328,11.5408203 Z M24.683625,0.359015625 C25.6430234,-0.480132813 27.2055508,0.30525 27.0738828,1.58680859 C26.9378789,2.91042578 25.1734414,3.34676562 24.4334414,2.24746094 C24.0364141,1.65170312 24.1451016,0.829898437 24.683625,0.359015625 Z" id="Accounting"></path>
                        </g>
                    </g>
                </g>
            </g>
        </g>
    </g>
</svg>