<?xml version="1.0" encoding="UTF-8"?>
<svg width="56px" height="74px" viewBox="0 0 56 74" version="1.1" xmlns="http://www.w3.org/2000/svg" xmlns:xlink="http://www.w3.org/1999/xlink">
    <!-- Generator: Sketch 60 (88103) - https://sketch.com -->
    <title>Billing</title>
    <desc>Created with Sketch.</desc>
    <defs>
        <linearGradient x1="50%" y1="0%" x2="50%" y2="100%" id="linearGradient-1">
            <stop stop-color="#0DB0D4" offset="0%"></stop>
            <stop stop-color="#9D32FF" offset="100%"></stop>
        </linearGradient>
    </defs>
    <g id="Design" stroke="none" stroke-width="1" fill="none" fill-rule="evenodd">
        <g id="1.-Home" transform="translate(-915.000000, -427.000000)" fill="url(#linearGradient-1)" fill-rule="nonzero">
            <g id="Billing" transform="translate(915.000000, 427.000000)">
                <path d="M38.5415705,0 C38.951172,0 39.3425627,0.162597657 39.6316252,0.451660158 L39.6316252,0.451660158 L55.0483401,15.8683751 C55.3374026,16.1574376 55.5,16.5488282 55.5,16.9582852 L55.5,16.9582852 L55.5,67.8332854 C55.5,71.2343948 52.7328049,74 49.3334299,74 L49.3334299,74 L6.16671487,74 C2.76719532,74 -2.84217094e-14,71.2343948 -2.84217094e-14,67.83343 L-2.84217094e-14,67.83343 L-2.84217094e-14,6.16671487 C-2.84217094e-14,2.76560548 2.76719532,0 6.16657034,0 L6.16657034,0 Z M37.0000002,3.0834297 L6.16671487,3.0834297 C4.46558205,3.0834297 3.0834297,4.46702736 3.0834297,6.16671487 L3.0834297,6.16671487 L3.0834297,67.8332854 C3.0834297,69.5329729 4.46543752,70.9165706 6.16671487,70.9165706 L6.16671487,70.9165706 L49.3334299,70.9165706 C51.0345627,70.9165706 52.4167151,69.5329729 52.4167151,67.8332854 L52.4167151,67.8332854 L52.4167151,18.5000001 L43.166715,18.5000001 C39.7671955,18.5000001 37.0000002,15.7343946 37.0000002,12.3334297 L37.0000002,12.3334297 L37.0000002,3.0834297 Z M29.291715,61.6667151 C30.1438712,61.6667151 30.8334298,62.3562737 30.8334298,63.20843 C30.8334298,64.0605862 30.1438712,64.7501448 29.291715,64.7501448 L29.291715,64.7501448 L10.7917149,64.7501448 C9.93955864,64.7501448 9.25000004,64.0605862 9.25000004,63.20843 C9.25000004,62.3562737 9.93955864,61.6667151 10.7917149,61.6667151 L10.7917149,61.6667151 Z M44.7082853,52.4167151 C45.5604416,52.4167151 46.2501447,53.1062737 46.2501447,53.9584299 C46.2501447,54.8105862 45.5605861,55.5001448 44.7084299,55.5001448 L44.7084299,55.5001448 L10.7917149,55.5001448 C9.93955864,55.5001448 9.25000004,54.8105862 9.25000004,53.9584299 C9.25000004,53.1062737 9.93955864,52.4167151 10.7917149,52.4167151 L10.7917149,52.4167151 Z M44.7082853,43.166715 C45.5604416,43.166715 46.2501447,43.8562736 46.2501447,44.7084299 C46.2501447,45.5605861 45.5605861,46.2501447 44.7084299,46.2501447 L44.7084299,46.2501447 L10.7917149,46.2501447 C9.93955864,46.2501447 9.25000004,45.5605861 9.25000004,44.7084299 C9.25000004,43.8562736 9.93955864,43.166715 10.7917149,43.166715 L10.7917149,43.166715 Z M44.7082853,33.916715 C45.5604416,33.916715 46.2501447,34.6062736 46.2501447,35.4584298 C46.2501447,36.3105861 45.5605861,37.0001447 44.7084299,37.0001447 L44.7084299,37.0001447 L10.7917149,37.0001447 C9.93955864,37.0001447 9.25000004,36.3105861 9.25000004,35.4584298 C9.25000004,34.6062736 9.93955864,33.916715 10.7917149,33.916715 L10.7917149,33.916715 Z M13.8748555,10.7914258 C14.7270118,10.7914258 15.4165704,11.4809844 15.4165704,12.3331407 L15.4165704,12.3331407 L16.9582852,12.3331407 C17.8104415,12.3331407 18.5000001,13.0226993 18.5000001,13.8748555 C18.5000001,14.7270118 17.8104415,15.4165704 16.9582852,15.4165704 L16.9582852,15.4165704 L13.8750001,15.4165704 C13.025879,15.4165704 12.3332852,16.1077188 12.3332852,16.9582852 C12.3332852,17.8089962 13.025879,18.5000001 13.8750001,18.5000001 C16.4253985,18.5000001 18.5000001,20.5746016 18.5000001,23.1250001 C18.5000001,25.1322501 17.2073126,26.8274571 15.4168594,27.4661407 L15.4168594,27.4661407 L15.4168594,27.7501446 C15.4168594,28.6023009 14.7273008,29.2918595 13.8751446,29.2918595 C13.0229883,29.2918595 12.3334297,28.6023009 12.3334297,27.7501446 L12.3334297,27.7501446 L10.7917149,27.7501446 C9.93955864,27.7501446 9.25000004,27.0605861 9.25000004,26.2084298 C9.25000004,25.3562735 9.93955864,24.6667149 10.7917149,24.6667149 L10.7917149,24.6667149 L13.8750001,24.6667149 C14.7241212,24.6667149 15.4167149,23.975711 15.4167149,23.1250001 C15.4167149,22.2742892 14.7241212,21.5832852 13.8750001,21.5832852 C11.3246016,21.5832852 9.25000004,19.5086837 9.25000004,16.9582852 C9.25000004,14.9510352 10.5426875,13.2558282 12.3331407,12.6171446 L12.3331407,12.6171446 L12.3331407,12.3331407 C12.3331407,11.4809844 13.0226993,10.7914258 13.8748555,10.7914258 Z M44.7084299,24.6665704 C45.5605861,24.6665704 46.2501447,25.356129 46.2501447,26.2082853 C46.2501447,27.0604415 45.5605861,27.7500001 44.7084299,27.7500001 L44.7084299,27.7500001 L26.2084298,27.7500001 C25.3562735,27.7500001 24.6667149,27.0604415 24.6667149,26.2082853 C24.6667149,25.3562735 25.3562735,24.6667149 26.2084298,24.6665704 L26.2084298,24.6665704 Z M40.0832853,5.26339455 L40.0832853,12.3334297 C40.0832853,14.0331172 41.4652931,15.4167149 43.1665705,15.4167149 L43.1665705,15.4167149 L50.2366057,15.4167149 L40.0832853,5.26339455 Z"></path>
            </g>
        </g>
    </g>
</svg>