<?xml version="1.0" encoding="UTF-8"?>
<svg width="74px" height="74px" viewBox="0 0 74 74" version="1.1" xmlns="http://www.w3.org/2000/svg" xmlns:xlink="http://www.w3.org/1999/xlink">
    <!-- Generator: Sketch 60 (88103) - https://sketch.com -->
    <title>Ecommerce</title>
    <desc>Created with Sketch.</desc>
    <defs>
        <linearGradient x1="50%" y1="100%" x2="50%" y2="5.73018335e-15%" id="linearGradient-1">
            <stop stop-color="#9F2FFF" offset="0%"></stop>
            <stop stop-color="#0BB1D3" offset="100%"></stop>
        </linearGradient>
    </defs>
    <g id="Design" stroke="none" stroke-width="1" fill="none" fill-rule="evenodd">
        <g id="1.-Home" transform="translate(-781.000000, -624.000000)" fill="url(#linearGradient-1)" fill-rule="nonzero">
            <g id="Group-31" transform="translate(135.000000, 347.000000)">
                <g id="Stacked-Group" transform="translate(139.000000, 250.000000)">
                    <g id="Group-6" transform="translate(446.000000, 0.000000)">
                        <g id="Group-14" transform="translate(23.470270, 20.000000)">
                            <g id="Icon/Software/Ecommerce-&amp;-Inventory" transform="translate(38.000000, 7.000000)">
                                <path d="M16.483871,21.483871 L18.8387097,21.483871 L18.8387097,28.6451613 L4.70967742,28.6451613 L4.70967742,13.1290323 L10.5967742,13.1290323 L10.5967742,15.516129 L7.06451613,15.516129 L7.06451613,26.2580645 L16.483871,26.2580645 L16.483871,21.483871 Z M11.7741935,19.796119 L10.2518271,18.2528982 L8.58688256,19.9406502 L11.7741935,23.171623 L20.8486013,13.9729083 L19.1836568,12.2851563 L11.7741935,19.796119 Z M54.1612903,63.2580645 C54.1612903,66.5484817 51.5201456,69.2258065 48.2741935,69.2258065 C45.0282415,69.2258065 42.3870968,66.5484817 42.3870968,63.2580645 C42.3870968,59.9676474 45.0282415,57.2903226 48.2741935,57.2903226 C51.5201456,57.2903226 54.1612903,59.9676474 54.1612903,63.2580645 Z M51.8064516,63.2580645 C51.8064516,61.2841639 50.2214198,59.6774194 48.2741935,59.6774194 C46.3269673,59.6774194 44.7419355,61.2841639 44.7419355,63.2580645 C44.7419355,65.2319651 46.3269673,66.8387097 48.2741935,66.8387097 C50.2214198,66.8387097 51.8064516,65.2319651 51.8064516,63.2580645 Z M73,11.3054908 C73,13.6267327 71.136136,15.516129 68.8462623,15.516129 L68.5846774,15.516129 C68.3127442,15.516129 68.0385111,15.488738 67.7700274,15.4339561 L62.1698115,14.2986864 L59.873039,24.4858084 L63.6444604,32.0719506 L57.7326424,58.4419103 C58.4541567,59.8924678 58.8709677,61.524855 58.8709677,63.2580645 C58.8709677,69.1815146 54.1164471,74 48.2741935,74 C42.7648138,74 38.2281849,69.7153478 37.7280116,64.2604587 L8.86686464,58.8428679 C7.13982961,58.5182555 5.88709677,56.9919355 5.88709677,55.2109375 C5.88709677,54.9090536 5.92331625,54.6083355 5.99518019,54.3157762 L6.59251358,51.8954606 C6.9656313,50.3866242 8.1677719,49.2769972 9.6337969,49.0036699 L12.9751843,33.4193548 L0,33.4193548 L0,7.86063508 L7.75441028,0 L25.9032258,0 L25.9032258,23.3697707 L51.4730028,28.5542465 L56.7972609,4.56905242 L69.6609123,7.17702562 C71.5954904,7.56924143 73,9.30478208 73,11.3054908 Z M29.740187,32.5026305 L33.3115393,33.2270351 L34.890247,27.6270318 L31.3194698,26.9026272 L29.740187,32.5026305 Z M35.6272838,33.6961788 L39.198636,34.4205835 L40.7773437,28.8205802 L37.2065666,28.0961756 L35.6272838,33.6961788 Z M4.01978327,7.16129032 L7.06451613,7.16129032 L7.06451613,4.07484879 L4.01978327,7.16129032 Z M2.35483871,31.0322581 L23.5483871,31.0322581 L23.5483871,2.38709677 L9.41935484,2.38709677 L9.41935484,9.5483871 L2.35483871,9.5483871 L2.35483871,31.0322581 Z M15.3852145,33.4193548 L12.0024335,49.1971553 L41.3499559,55.1468308 C42.6872007,53.9725145 44.3107516,53.124559 46.1056263,52.7451644 L50.9573069,30.88423 L43.0936633,29.289724 L40.8658801,37.1934854 L26.775942,34.3360792 L29.0031502,26.432318 L25.9032258,25.8046561 L25.9032258,33.4193548 L15.3852145,33.4193548 Z M9.29574877,56.4954007 L37.7809035,61.8424742 C38.0033944,60.1430664 38.6099264,58.5648784 39.5234612,57.2104808 L10.6260947,51.3511372 C9.86433664,51.1961158 9.06980847,51.6984784 8.87778785,52.4730028 L8.28102949,54.8927357 C8.25515849,54.9976373 8.24193548,55.1037046 8.24193548,55.2109375 C8.24193548,55.8403478 8.68461749,56.3805916 9.29574877,56.4954007 Z M56.516129,63.2580645 C56.516129,58.6522965 52.8188712,54.9032258 48.2741935,54.9032258 C43.7295159,54.9032258 40.0322581,58.6522965 40.0322581,63.2580645 C40.0322581,67.8638326 43.7295159,71.6129032 48.2741935,71.6129032 C52.8188712,71.6129032 56.516129,67.8638326 56.516129,63.2580645 Z M55.9049978,55.823447 L57.7619629,47.5402912 L54.8086411,46.9423513 L53.2650028,53.7871881 C54.2498267,54.3233524 55.1374905,55.0139555 55.9049978,55.823447 L55.9049978,55.823447 Z M55.3341104,44.6146988 L58.2834078,45.2126386 L60.2191359,36.5809759 L57.2801868,35.9853674 L55.3341104,44.6146988 Z M59.0497653,28.1340569 L57.8045063,33.6571321 L60.7405809,34.2527407 L61.1608415,32.3796623 L59.0497653,28.1340569 Z M59.859816,13.8307082 L57.2721381,13.3056168 L48.5662487,52.5318643 C49.424592,52.5557586 50.2547646,52.683389 51.0504426,52.9030998 L59.859816,13.8307082 Z M70.6451613,11.3054908 C70.6451613,10.4388861 70.0363297,9.68825605 69.1981083,9.51749941 L58.5898359,7.36643145 L57.7889838,10.9756332 L68.2328314,13.0934823 C68.3489637,13.1173765 68.4668205,13.1290323 68.5858272,13.1290323 L68.8474121,13.1290323 C69.8374103,13.1290323 70.6451613,12.3102161 70.6451613,11.3054908 L70.6451613,11.3054908 Z" id="Ecommerce"></path>
                            </g>
                        </g>
                    </g>
                </g>
            </g>
        </g>
    </g>
</svg>