<?xml version="1.0" encoding="UTF-8"?>
<svg width="75px" height="74px" viewBox="0 0 75 74" version="1.1" xmlns="http://www.w3.org/2000/svg" xmlns:xlink="http://www.w3.org/1999/xlink">
    <!-- Generator: Sketch 60 (88103) - https://sketch.com -->
    <title>Enterprise ERP</title>
    <desc>Created with Sketch.</desc>
    <defs>
        <linearGradient x1="50%" y1="0%" x2="50%" y2="100%" id="linearGradient-1">
            <stop stop-color="#0DB0D4" offset="0%"></stop>
            <stop stop-color="#9D32FF" offset="100%"></stop>
        </linearGradient>
    </defs>
    <g id="Design" stroke="none" stroke-width="1" fill="none" fill-rule="evenodd">
        <g id="1.-Home" transform="translate(-334.000000, -637.000000)" fill="url(#linearGradient-1)" fill-rule="nonzero">
            <g id="Group-31" transform="translate(135.000000, 347.000000)">
                <g id="Stacked-Group" transform="translate(139.000000, 250.000000)">
                    <g id="Group-22">
                        <g id="Group-17" transform="translate(24.458564, 33.000000)">
                            <g id="Icon/Software/ERP" transform="translate(35.999927, 7.000000)">
                                <path d="M14.9683811,32.0935385 C15.4495112,31.8942157 16.0040152,32.0192872 16.3529965,32.4058462 L16.3529965,32.4058462 L19.5245349,35.9187692 L22.3217657,35.9187692 L25.4933042,32.4058462 C25.8422854,32.0192872 26.3967894,31.8942157 26.8779195,32.0935385 L26.8779195,32.0935385 L31.4411503,33.9836923 C31.9223047,34.1829984 32.2259296,34.6635735 32.1993042,35.1836923 L32.1993042,35.1836923 L31.9579195,39.9103077 L33.9359195,41.8883077 L38.6625349,41.6469231 C39.182727,41.6200175 39.6634503,41.923736 39.8625349,42.4050769 L39.8625349,42.4050769 L41.7526888,46.9683077 C41.9520115,47.4494378 41.8269401,48.0039418 41.4403811,48.3529231 L41.4403811,48.3529231 L37.927458,51.5244615 L37.927458,54.3224615 L41.4403811,57.494 C41.8269401,57.8429812 41.9520115,58.3974853 41.7526888,58.8786154 L41.7526888,58.8786154 L39.8625349,63.4418462 C39.6624577,63.9223504 39.1823977,64.2256499 38.6625349,64.2 L38.6625349,64.2 L33.9368426,63.9578462 L31.9588426,65.9358462 L32.2002272,70.6624615 C32.2268527,71.1825803 31.9232278,71.6631554 31.4420734,71.8624615 L31.4420734,71.8624615 L26.8788426,73.7526154 C26.3977125,73.9519382 25.8432085,73.8268667 25.4942272,73.4403077 L25.4942272,73.4403077 L22.3226888,69.9273846 L19.525458,69.9273846 L16.3539195,73.4403077 C16.0049383,73.8268667 15.4504343,73.9519382 14.9693042,73.7526154 L14.9693042,73.7526154 L10.4060734,71.8624615 C9.92491899,71.6631554 9.6212941,71.1825803 9.64791954,70.6624615 L9.64791954,70.6624615 L9.88930416,65.9358462 L7.91130416,63.9578462 L3.18468877,64.1992308 C2.66456998,64.2258562 2.18399486,63.9222313 1.98468877,63.4410769 L1.98468877,63.4410769 L0.0937656944,58.8778462 C-0.105557078,58.396716 0.0195143848,57.842212 0.406073387,57.4932308 L0.406073387,57.4932308 L3.91899646,54.3216923 L3.91899646,51.5244615 L0.406073387,48.3529231 C0.0195143848,48.0039418 -0.105557078,47.4494378 0.0937656944,46.9683077 L0.0937656944,46.9683077 L1.98376569,42.4050769 C2.18273937,41.9236426 2.66353688,41.6198772 3.18376569,41.6469231 L3.18376569,41.6469231 L7.91038108,41.8883077 L9.88838108,39.9112308 L9.64699646,35.1846154 C9.62037102,34.6644966 9.92399591,34.1839215 10.4051503,33.9846154 L10.4051503,33.9846154 Z M26.7385349,34.7003077 L23.7819195,37.9744615 C23.5485569,38.2329402 23.2166185,38.3804621 22.8683811,38.3804615 L22.8683811,38.3804615 L18.9773042,38.3804615 C18.6290667,38.3804621 18.2971283,38.2329402 18.0637657,37.9744615 L18.0637657,37.9744615 L15.1076118,34.7003077 L12.1493042,35.9256923 L12.3743811,40.3310769 C12.3921369,40.6788747 12.2617198,41.0179147 12.015458,41.2641538 L12.015458,41.2641538 L9.26422723,44.0155385 C9.01770903,44.2613706 8.67886728,44.3917115 8.33115031,44.3744615 L8.33115031,44.3744615 L3.92576569,44.1493846 L2.70038108,47.1076923 L5.97453493,50.064 C6.23301356,50.2973626 6.38053553,50.629301 6.38053493,50.9775385 L6.38053493,50.9775385 L6.38053493,54.8687692 C6.38053553,55.2170067 6.23301356,55.5489451 5.97453493,55.7823077 L5.97453493,55.7823077 L2.70038108,58.7384615 L3.92576569,61.6969231 L8.33115031,61.4718462 C8.67886107,61.4546349 9.01768767,61.58497 9.26422723,61.8307692 L9.26422723,61.8307692 L12.0156118,64.582 C12.2618736,64.8282392 12.3922908,65.1672791 12.3745349,65.5150769 L12.3745349,65.5150769 L12.149458,69.9204615 L15.1077657,71.1458462 L18.0640734,67.8716923 C18.297436,67.6132137 18.6293744,67.4656917 18.9776118,67.4656923 L18.9776118,67.4656923 L22.8688426,67.4656923 C23.2170801,67.4656917 23.5490185,67.6132137 23.7823811,67.8716923 L23.7823811,67.8716923 L26.7385349,71.1458462 L29.6969965,69.9204615 L29.4719195,65.5150769 C29.4541637,65.1672791 29.5845809,64.8282392 29.8308426,64.582 L29.8308426,64.582 L32.5820734,61.8307692 C32.8281997,61.5843184 33.1673044,61.4538203 33.5151503,61.4716923 L33.5151503,61.4716923 L37.9205349,61.6967692 L39.1459195,58.7384615 L35.8717657,55.7818462 C35.6132871,55.5484835 35.4657651,55.2165451 35.4657657,54.8683077 L35.4657657,54.8683077 L35.4657657,50.9772308 C35.4657651,50.6289933 35.6132871,50.2970549 35.8717657,50.0636923 L35.8717657,50.0636923 L39.1459195,47.1075385 L37.9205349,44.1492308 L33.5151503,44.3743077 C33.1673338,44.3921808 32.8282478,44.261746 32.5820734,44.0153846 L32.5820734,44.0153846 L29.8306888,41.2641538 C29.584427,41.0179147 29.4540098,40.6788747 29.4717657,40.3310769 L29.4717657,40.3310769 L29.6968426,35.9256923 L26.7385349,34.7003077 Z M72.615458,-1.42108547e-14 C73.2951931,-1.42108547e-14 73.8462272,0.551034154 73.8462272,1.23076923 L73.8462272,1.23076923 L73.8462272,67.6923077 C73.8462272,68.3720428 73.2951931,68.9230769 72.615458,68.9230769 L72.615458,68.9230769 L34.4616118,68.9230769 L34.4616118,66.4615385 L71.3846888,66.4615385 L71.3846888,2.46153846 L19.6923811,2.46153846 L19.6923811,30.7692308 L17.2308426,30.7692308 L17.2308426,1.23076923 C17.2308426,0.551034154 17.7818768,-1.42108547e-14 18.4616118,-1.42108547e-14 L18.4616118,-1.42108547e-14 Z M20.9231503,41.8461538 C27.0379191,41.8530214 31.9932059,46.8083081 32.0000734,52.9230769 C32.0000734,59.0406926 27.040766,64 20.9231503,64 C14.8055346,64 9.84622723,59.0406926 9.84622723,52.9230769 C9.84622723,46.8054612 14.8055346,41.8461538 20.9231503,41.8461538 Z M66.4616118,4.92307692 L66.4616118,7.38461538 L53.4328426,7.38461538 L51.5539195,9.26338462 C53.0290638,11.3335997 53.3343611,14.0174762 52.3618721,16.3661154 C51.3893831,18.7147546 49.2761449,20.3972005 46.7693042,20.8186154 L46.7693042,20.8186154 L46.7693042,24.6153846 L50.4616118,24.6153846 L50.4616118,23.3846154 C50.4616118,22.7048803 51.012646,22.1538462 51.6923811,22.1538462 L51.6923811,22.1538462 L66.4616118,22.1538462 C67.1413469,22.1538462 67.6923811,22.7048803 67.6923811,23.3846154 L67.6923811,23.3846154 L67.6923811,28.3076923 C67.6923811,28.9874274 67.1413469,29.5384615 66.4616118,29.5384615 L66.4616118,29.5384615 L60.3077657,29.5384615 L60.3077657,32 L66.4616118,32 C67.1413469,32 67.6923811,32.5510342 67.6923811,33.2307692 L67.6923811,33.2307692 L67.6923811,38.1538462 C67.6923811,38.8335812 67.1413469,39.3846154 66.4616118,39.3846154 L66.4616118,39.3846154 L51.6923811,39.3846154 C51.012646,39.3846154 50.4616118,38.8335812 50.4616118,38.1538462 L50.4616118,38.1538462 L50.4616118,33.2307692 C50.4616118,32.5510342 51.012646,32 51.6923811,32 L51.6923811,32 L57.8462272,32 L57.8462272,29.5384615 L51.6923811,29.5384615 C51.012646,29.5384615 50.4616118,28.9874274 50.4616118,28.3076923 L50.4616118,28.3076923 L50.4616118,27.0769231 L46.7693042,27.0769231 L46.7693042,45.5384615 L50.4616118,45.5384615 L50.4616118,44.3076923 C50.4616118,43.6279572 51.012646,43.0769231 51.6923811,43.0769231 L51.6923811,43.0769231 L66.4616118,43.0769231 C67.1413469,43.0769231 67.6923811,43.6279572 67.6923811,44.3076923 L67.6923811,44.3076923 L67.6923811,49.2307692 C67.6923811,49.9105043 67.1413469,50.4615385 66.4616118,50.4615385 L66.4616118,50.4615385 L60.3077657,50.4615385 L60.3077657,52.9230769 L66.4616118,52.9230769 C67.1413469,52.9230769 67.6923811,53.4741111 67.6923811,54.1538462 L67.6923811,54.1538462 L67.6923811,59.0769231 C67.6923811,59.7566582 67.1413469,60.3076923 66.4616118,60.3076923 L66.4616118,60.3076923 L60.3077657,60.3076923 L60.3077657,62.7692308 L57.8462272,62.7692308 L57.8462272,60.3076923 L51.6923811,60.3076923 C51.012646,60.3076923 50.4616118,59.7566582 50.4616118,59.0769231 L50.4616118,59.0769231 L50.4616118,54.1538462 C50.4616118,53.4741111 51.012646,52.9230769 51.6923811,52.9230769 L51.6923811,52.9230769 L57.8462272,52.9230769 L57.8462272,50.4615385 L51.6923811,50.4615385 C51.012646,50.4615385 50.4616118,49.9105043 50.4616118,49.2307692 L50.4616118,49.2307692 L50.4616118,48 L46.7693042,48 L46.7693042,62.7692308 L44.3077657,62.7692308 L44.3077657,27.0769231 L40.615458,27.0769231 L40.615458,28.3076923 C40.615458,28.9874274 40.0644238,29.5384615 39.3846888,29.5384615 L39.3846888,29.5384615 L33.2308426,29.5384615 L33.2308426,32 L30.7693042,32 L30.7693042,29.5384615 L24.615458,29.5384615 C23.9357229,29.5384615 23.3846888,28.9874274 23.3846888,28.3076923 L23.3846888,28.3076923 L23.3846888,23.3846154 C23.3846888,22.7048803 23.9357229,22.1538462 24.615458,22.1538462 L24.615458,22.1538462 L39.3846888,22.1538462 C40.0644238,22.1538462 40.615458,22.7048803 40.615458,23.3846154 L40.615458,23.3846154 L40.615458,24.6153846 L44.3077657,24.6153846 L44.3077657,20.8186154 C41.3119608,20.3133021 38.9316631,18.0242001 38.3097607,15.0504103 C37.6878584,12.0766204 38.9513661,9.02549711 41.493617,7.36202205 C44.0358678,5.69854699 47.3376431,5.76246134 49.8136118,7.52307692 L49.8136118,7.52307692 L52.0528426,5.28353846 C52.2836658,5.05272719 52.5967255,4.92307692 52.9231503,4.92307692 L52.9231503,4.92307692 L66.4616118,4.92307692 Z M20.9231503,44.3076923 C16.1650048,44.3076923 12.3077657,48.1649314 12.3077657,52.9230769 C12.3077657,57.6812225 16.1650048,61.5384615 20.9231503,61.5384615 C25.6790465,61.5330355 29.5331089,57.6789731 29.5385349,52.9230769 C29.5385349,48.1649314 25.6812958,44.3076923 20.9231503,44.3076923 Z M20.9231503,46.7692308 C24.3202441,46.7730461 27.0731812,49.5259831 27.0769965,52.9230769 C27.0769965,56.3217523 24.3218257,59.0769231 20.9231503,59.0769231 C17.5244749,59.0769231 14.7693042,56.3217523 14.7693042,52.9230769 C14.7693042,49.5244015 17.5244749,46.7692308 20.9231503,46.7692308 Z M65.2308426,55.3846154 L52.9231503,55.3846154 L52.9231503,57.8461538 L65.2308426,57.8461538 L65.2308426,55.3846154 Z M20.9231503,49.2307692 C18.8839451,49.2307692 17.2308426,50.8838717 17.2308426,52.9230769 C17.2308426,54.9622822 18.8839451,56.6153846 20.9231503,56.6153846 C22.9613715,56.6130108 24.6130842,54.9612981 24.615458,52.9230769 C24.615458,50.8838717 22.9623555,49.2307692 20.9231503,49.2307692 Z M65.2308426,45.5384615 L52.9231503,45.5384615 L52.9231503,48 L65.2308426,48 L65.2308426,45.5384615 Z M65.2308426,34.4615385 L52.9231503,34.4615385 L52.9231503,36.9230769 L65.2308426,36.9230769 L65.2308426,34.4615385 Z M65.2308426,24.6153846 L52.9231503,24.6153846 L52.9231503,27.0769231 L65.2308426,27.0769231 L65.2308426,24.6153846 Z M38.1539195,24.6153846 L25.8462272,24.6153846 L25.8462272,27.0769231 L38.1539195,27.0769231 L38.1539195,24.6153846 Z M27.0769965,17.2307692 L27.0769965,19.6923077 L24.615458,19.6923077 L24.615458,17.2307692 L27.0769965,17.2307692 Z M32.0000734,17.2307692 L32.0000734,19.6923077 L29.5385349,19.6923077 L29.5385349,17.2307692 L32.0000734,17.2307692 Z M61.5385349,17.2307692 L61.5385349,19.6923077 L59.0769965,19.6923077 L59.0769965,17.2307692 L61.5385349,17.2307692 Z M66.4616118,17.2307692 L66.4616118,19.6923077 L64.0000734,19.6923077 L64.0000734,17.2307692 L66.4616118,17.2307692 Z M48.0373042,9.29907692 C46.5158806,8.40047493 44.6294169,8.38677271 43.0951007,9.26317952 C41.5607845,10.1395863 40.6142925,11.7714828 40.6154569,13.5384615 C40.6151594,15.6132458 41.9159054,17.4654368 43.8676249,18.169369 C45.8193445,18.8733011 48.0029048,18.2778047 49.3270325,16.6804896 C50.6511603,15.0831745 50.8314983,12.8270651 49.7779195,11.0396923 L49.7779195,11.0396923 L46.4086888,14.4089231 L44.6680734,12.6683077 Z" id="Enterprise-ERP"></path>
                            </g>
                        </g>
                    </g>
                </g>
            </g>
        </g>
    </g>
</svg>