<?xml version="1.0" encoding="UTF-8"?>
<svg width="75px" height="74px" viewBox="0 0 75 74" version="1.1" xmlns="http://www.w3.org/2000/svg" xmlns:xlink="http://www.w3.org/1999/xlink">
    <!-- Generator: Sketch 60 (88103) - https://sketch.com -->
    <title>Hr Software</title>
    <desc>Created with Sketch.</desc>
    <defs>
        <linearGradient x1="50%" y1="100%" x2="50%" y2="0%" id="linearGradient-1">
            <stop stop-color="#9F2FFF" offset="0%"></stop>
            <stop stop-color="#0BB1D3" offset="100%"></stop>
        </linearGradient>
    </defs>
    <g id="Design" stroke="none" stroke-width="1" fill="none" fill-rule="evenodd">
        <g id="1.-Home" transform="translate(-459.000000, -428.000000)" fill="url(#linearGradient-1)" fill-rule="nonzero">
            <g id="Group-31" transform="translate(135.000000, 347.000000)">
                <g id="Group-24" transform="translate(264.000000, 41.000000)">
                    <g id="Group-19" transform="translate(31.539906, 33.000000)">
                        <g id="Icon/Software/HR-software" transform="translate(29.000000, 7.000000)">
                            <path d="M68.0322581,11.9354839 L50.1290323,11.9354839 C50.1290323,5.35425806 44.7747742,0 38.1935484,0 C31.6123226,0 26.2580645,5.35425806 26.2580645,11.9354839 L5.96774194,11.9354839 C2.67712903,11.9354839 0,14.6126129 0,17.9032258 L0,53.7096774 C0,57.0002903 2.67712903,59.6774194 5.96774194,59.6774194 L26.714,59.6774194 L24.3269032,64.4516129 L22.6774194,64.4516129 C19.3868065,64.4516129 16.7096774,67.1287419 16.7096774,70.4193548 L16.7096774,74 L57.2903226,74 L57.2903226,70.4193548 C57.2903226,67.1287419 54.6131935,64.4516129 51.3225806,64.4516129 L49.6730968,64.4516129 L47.286,59.6774194 L68.0322581,59.6774194 C71.322871,59.6774194 74,57.0002903 74,53.7096774 L74,17.9032258 C74,14.6126129 71.322871,11.9354839 68.0322581,11.9354839 Z M34.6129032,10.7419355 C34.6129032,8.76780645 36.2194194,7.16129032 38.1935484,7.16129032 C40.1676774,7.16129032 41.7741935,8.76780645 41.7741935,10.7419355 C41.7741935,12.7160645 40.1676774,14.3225806 38.1935484,14.3225806 C36.2194194,14.3225806 34.6129032,12.7160645 34.6129032,10.7419355 Z M22.6774194,35.8064516 C26.8799032,35.8064516 30.3662581,38.924 30.9475161,42.9677419 L12.0202258,42.9677419 C12.6002903,38.924 16.0878387,35.8064516 20.2903226,35.8064516 L22.6774194,35.8064516 Z M21.483871,33.4193548 C18.8509032,33.4193548 16.7096774,31.278129 16.7096774,28.6451613 C16.7096774,26.0121935 18.8509032,23.8709677 21.483871,23.8709677 C24.1168387,23.8709677 26.2580645,26.0121935 26.2580645,28.6451613 C26.2580645,31.278129 24.1168387,33.4193548 21.483871,33.4193548 Z M21.483871,21.483871 C17.5344194,21.483871 14.3225806,24.6957097 14.3225806,28.6451613 C14.3225806,30.7887742 15.2738387,32.7103871 16.7705484,34.0232903 C12.5728387,35.4853871 9.5483871,39.4718387 9.5483871,44.1612903 L9.5483871,45.3548387 L33.4193548,45.3548387 L33.4193548,44.1612903 C33.4193548,42.9044839 33.1913871,41.7025806 32.7927419,40.5806452 L41.5844194,40.5806452 C43.4308387,44.7902903 47.6333226,47.7419355 52.516129,47.7419355 C59.0973548,47.7419355 64.4516129,42.3876774 64.4516129,35.8064516 C64.4516129,29.2252258 59.0973548,23.8709677 52.516129,23.8709677 C45.9349032,23.8709677 40.5806452,29.2252258 40.5806452,35.8064516 C40.5806452,36.6240323 40.6641935,37.4225161 40.8217419,38.1935484 L31.6039677,38.1935484 C30.3149355,36.2719355 28.4195806,34.7967097 26.1971935,34.0232903 C27.6939032,32.7103871 28.6451613,30.7887742 28.6451613,28.6451613 C28.6451613,26.4931935 27.6867419,24.5644194 26.1792903,23.2503226 L29.4245484,20.0050645 C31.6075484,22.3742581 34.7250968,23.8709677 38.1935484,23.8709677 C42.0857097,23.8709677 45.5386452,21.9887419 47.7192581,19.0967742 L66.8387097,19.0967742 L66.8387097,50.1290323 L24.3650968,50.1290323 L22.6774194,48.4413548 C22.2334194,47.9973548 21.6175484,47.7419355 20.9897419,47.7419355 L7.16129032,47.7419355 L7.16129032,19.0967742 L26.9574839,19.0967742 L24.0774516,21.9768065 C23.2718065,21.6629032 22.3993226,21.483871 21.483871,21.483871 Z M48.9354839,34.6129032 C48.9354839,32.6387742 50.542,31.0322581 52.516129,31.0322581 C54.4902581,31.0322581 56.0967742,32.6387742 56.0967742,34.6129032 C56.0967742,36.5870323 54.4902581,38.1935484 52.516129,38.1935484 C50.542,38.1935484 48.9354839,36.5870323 48.9354839,34.6129032 Z M59.9543226,41.7789677 C59.0090323,40.602129 57.8107097,39.6747419 56.4560323,39.0600645 C57.6901613,37.9655806 58.483871,36.3877097 58.483871,34.6129032 C58.483871,31.3222903 55.8067419,28.6451613 52.516129,28.6451613 C49.2255161,28.6451613 46.5483871,31.3222903 46.5483871,34.6129032 C46.5483871,36.3877097 47.3420968,37.9655806 48.5762258,39.0600645 C47.2215484,39.6759355 46.0232258,40.602129 45.0779355,41.7789677 C43.7602581,40.1426129 42.9677419,38.0658387 42.9677419,35.8064516 C42.9677419,30.5417097 47.2513871,26.2580645 52.516129,26.2580645 C57.780871,26.2580645 62.0645161,30.5417097 62.0645161,35.8064516 C62.0645161,38.0658387 61.272,40.1426129 59.9543226,41.7789677 Z M58.2356129,43.4344194 C56.6398387,44.6339355 54.6633226,45.3548387 52.516129,45.3548387 C50.3689355,45.3548387 48.3924194,44.6339355 46.7966452,43.4344194 C48.1393871,41.6536452 50.2519677,40.5806452 52.516129,40.5806452 C54.7802903,40.5806452 56.892871,41.6536452 58.2356129,43.4344194 Z M32.4740645,19.5622581 C33.8168065,17.7826774 35.9293871,16.7096774 38.1935484,16.7096774 C40.4577097,16.7096774 42.5702903,17.7826774 43.9130323,19.5634516 C42.3172581,20.7629677 40.3407419,21.483871 38.1935484,21.483871 C36.0463548,21.483871 34.0698387,20.7629677 32.4740645,19.5622581 L32.4740645,19.5622581 Z M38.1935484,2.38709677 C43.4582903,2.38709677 47.7419355,6.67074194 47.7419355,11.9354839 C47.7419355,14.194871 46.9482258,16.2716452 45.6317419,17.9091935 C44.6864516,16.7323548 43.488129,15.8049677 42.1334516,15.1902903 C43.3675806,14.0946129 44.1612903,12.5167419 44.1612903,10.7419355 C44.1612903,7.45132258 41.4841613,4.77419355 38.1935484,4.77419355 C34.9029355,4.77419355 32.2258065,7.45132258 32.2258065,10.7419355 C32.2258065,12.5167419 33.0195161,14.0946129 34.2536452,15.1890968 C32.8989677,15.8049677 31.7006452,16.7323548 30.7553548,17.908 C29.4376774,16.2716452 28.6451613,14.194871 28.6451613,11.9354839 C28.6451613,6.67074194 32.9288065,2.38709677 38.1935484,2.38709677 Z M54.9032258,70.4193548 L54.9032258,71.6129032 L19.0967742,71.6129032 L19.0967742,70.4193548 C19.0967742,68.4452258 20.7032903,66.8387097 22.6774194,66.8387097 L51.3225806,66.8387097 C53.2967097,66.8387097 54.9032258,68.4452258 54.9032258,70.4193548 Z M47.0043226,64.4516129 L26.9956774,64.4516129 L29.3827742,59.6774194 L44.6172258,59.6774194 L47.0043226,64.4516129 Z M71.6129032,53.7096774 C71.6129032,55.6838065 70.0063871,57.2903226 68.0322581,57.2903226 L5.96774194,57.2903226 C3.9936129,57.2903226 2.38709677,55.6838065 2.38709677,53.7096774 L2.38709677,17.9032258 C2.38709677,15.9290968 3.9936129,14.3225806 5.96774194,14.3225806 L26.4991613,14.3225806 C26.6686452,15.1532903 26.9288387,15.9505806 27.2618387,16.7096774 L7.16129032,16.7096774 C5.84480645,16.7096774 4.77419355,17.7802903 4.77419355,19.0967742 L4.77419355,47.7419355 C4.77419355,49.0584194 5.84480645,50.1290323 7.16129032,50.1290323 L20.9897419,50.1290323 L22.6774194,51.8167097 C23.1214194,52.2607097 23.7372903,52.516129 24.3650968,52.516129 L66.8387097,52.516129 C68.1551935,52.516129 69.2258065,51.4455161 69.2258065,50.1290323 L69.2258065,19.0967742 C69.2258065,17.7802903 68.1551935,16.7096774 66.8387097,16.7096774 L49.1252581,16.7096774 C49.4582581,15.9505806 49.7184516,15.1532903 49.8879355,14.3225806 L68.0322581,14.3225806 C70.0063871,14.3225806 71.6129032,15.9290968 71.6129032,17.9032258 L71.6129032,53.7096774 Z M7.16129032,52.516129 L9.5483871,52.516129 L9.5483871,54.9032258 L7.16129032,54.9032258 L7.16129032,52.516129 Z M11.9354839,52.516129 L14.3225806,52.516129 L14.3225806,54.9032258 L11.9354839,54.9032258 L11.9354839,52.516129 Z M16.7096774,52.516129 L19.0967742,52.516129 L19.0967742,54.9032258 L16.7096774,54.9032258 L16.7096774,52.516129 Z M9.5483871,21.483871 L11.9354839,21.483871 L11.9354839,23.8709677 L9.5483871,23.8709677 L9.5483871,21.483871 Z M9.5483871,26.2580645 L11.9354839,26.2580645 L11.9354839,28.6451613 L9.5483871,28.6451613 L9.5483871,26.2580645 Z M9.5483871,31.0322581 L11.9354839,31.0322581 L11.9354839,33.4193548 L9.5483871,33.4193548 L9.5483871,31.0322581 Z" id="Hr-Software"></path>
                        </g>
                    </g>
                </g>
            </g>
        </g>
    </g>
</svg>