<?xml version="1.0" encoding="UTF-8"?>
<svg width="75px" height="74px" viewBox="0 0 75 74" version="1.1" xmlns="http://www.w3.org/2000/svg" xmlns:xlink="http://www.w3.org/1999/xlink">
    <!-- Generator: Sketch 60 (88103) - https://sketch.com -->
    <title>PMS</title>
    <desc>Created with Sketch.</desc>
    <defs>
        <linearGradient x1="50%" y1="100%" x2="50%" y2="5.75179898e-15%" id="linearGradient-1">
            <stop stop-color="#9F2FFF" offset="0%"></stop>
            <stop stop-color="#0BB1D3" offset="100%"></stop>
        </linearGradient>
    </defs>
    <g id="Design" stroke="none" stroke-width="1" fill="none" fill-rule="evenodd">
        <g id="1.-Home" transform="translate(-556.000000, -637.000000)" fill="url(#linearGradient-1)" fill-rule="nonzero">
            <g id="Group-31" transform="translate(135.000000, 347.000000)">
                <g id="Stacked-Group" transform="translate(139.000000, 250.000000)">
                    <g id="Group-23" transform="translate(223.000000, 0.000000)">
                        <g id="Group-18" transform="translate(59.630890, 33.000000)">
                            <path d="M28.6451613,48.9317759 L28.6451613,45.3376237 L31.0322581,45.3376237 L31.0322581,42.9415222 L33.4193548,42.9415222 L33.4193548,45.558065 C34.8050645,46.054058 35.8064516,47.3719138 35.8064516,48.9317759 L33.4193548,48.9317759 C33.4193548,48.2704519 32.8846452,47.7337251 32.2258065,47.7337251 L31.0322581,47.7337251 L31.0322581,48.9317759 C31.0322581,49.5930999 31.5669677,50.1298266 32.2258065,50.1298266 C34.1999355,50.1298266 35.8064516,51.7424029 35.8064516,53.7239788 L35.8064516,57.318131 L33.4193548,57.318131 L33.4193548,59.7142325 L31.0322581,59.7142325 L31.0322581,57.0976897 C29.6465484,56.6016967 28.6451613,55.2838409 28.6451613,53.7239788 L31.0322581,53.7239788 C31.0322581,54.3853028 31.5669677,54.9220296 32.2258065,54.9220296 L33.4193548,54.9220296 L33.4193548,53.7239788 C33.4193548,53.0626548 32.8846452,52.5259281 32.2258065,52.5259281 C30.2516774,52.5259281 28.6451613,50.9133518 28.6451613,48.9317759 Z M8.8817842e-16,76.4869429 L2.38709677,76.4869429 L2.38709677,74.0908414 L8.8817842e-16,74.0908414 L8.8817842e-16,76.4869429 Z M7.16129032,74.0908414 L4.77419355,74.0908414 L4.77419355,76.4869429 L7.16129032,76.4869429 L7.16129032,74.0908414 Z M11.9354839,76.4869429 L11.9354839,74.0908414 L9.5483871,74.0908414 L9.5483871,76.4869429 L11.9354839,76.4869429 Z M4.77419355,66.902537 L2.38709677,66.902537 L2.38709677,69.2986384 L4.77419355,69.2986384 L4.77419355,66.902537 Z M9.28222581,24.709586 C6.58122581,23.0143442 4.77419355,20.010831 4.77419355,16.5844059 C4.77419355,11.2998041 9.05783871,7 14.3225806,7 C19.5873226,7 23.8709677,11.2998041 23.8709677,16.5844059 C23.8709677,20.010831 22.0639355,23.0143442 19.3629355,24.709586 C21.0577742,25.3529393 22.5974516,26.3065877 23.9163226,27.5058364 C26.6340323,26.6324575 29.4233548,26.1688118 32.2258065,26.1688118 C46.7047419,26.1688118 58.483871,37.4556478 58.483871,51.3278773 C58.483871,57.2055143 56.3629355,62.6147134 52.8240645,66.902537 L58.483871,66.902537 L58.483871,62.3894798 L73.9319677,71.6947399 L58.483871,81 L58.483871,76.4869429 L14.3225806,76.4869429 L14.3225806,74.0908414 L32.2258065,74.0908414 C45.3882581,74.0908414 56.0967742,63.8798549 56.0967742,51.3278773 C56.0967742,38.7758998 45.3882581,28.5649133 32.2258065,28.5649133 C30.0344516,28.5649133 27.8514516,28.8740104 25.7078387,29.4622533 C26.7056452,30.776515 27.4957742,32.2585037 27.9970645,33.87108 C29.3827742,33.5332297 30.8007097,33.3571163 32.2258065,33.3571163 C42.0976452,33.3571163 50.1290323,41.4187997 50.1290323,51.3278773 C50.1290323,61.236955 42.0976452,69.2986384 32.2258065,69.2986384 L7.16129032,69.2986384 L7.16129032,66.902537 L11.6156129,66.902537 C7.96216129,62.4793336 5.96774194,57.0461735 5.96774194,51.3278773 C5.96774194,49.3019735 6.23032258,47.2952386 6.72922581,45.3376237 L0,45.3376237 L0,38.1493192 C0,32.004517 3.86709677,26.763045 9.28222581,24.709586 Z M50.5778065,69.2986384 C48.4902903,71.2562533 46.0661935,72.8832062 43.3962258,74.0908414 L60.8709677,74.0908414 L60.8709677,76.7660887 L69.2938387,71.6947399 L60.8709677,66.6233911 L60.8709677,69.2986384 L50.5778065,69.2986384 Z M23.3314839,66.902537 C17.9569355,63.7983875 14.3225806,57.9866434 14.3225806,51.3278773 C14.3225806,49.2744184 14.6782581,47.2676834 15.3669355,45.3376237 L9.2106129,45.3376237 C8.65322581,47.2892483 8.35483871,49.2983794 8.35483871,51.3278773 C8.35483871,57.1599883 10.6643548,62.6662295 14.8417742,66.902537 L23.3314839,66.902537 Z M28.4995484,36.2156653 C28.5854839,36.8506322 28.6451613,37.4915894 28.6451613,38.1493192 L28.6451613,38.6656791 C29.8076774,38.332621 31.0036129,38.1493192 32.2258065,38.1493192 C39.4646774,38.1493192 45.3548387,44.0616996 45.3548387,51.3278773 C45.3548387,58.5940551 39.4646774,64.5064355 32.2258065,64.5064355 C24.9869355,64.5064355 19.0967742,58.5940551 19.0967742,51.3278773 C19.0967742,49.219308 19.5944839,47.1850179 20.5433548,45.3376237 L17.9438065,45.3376237 C17.1393548,47.2557029 16.7096774,49.2636359 16.7096774,51.3278773 C16.7096774,59.915505 23.6704516,66.902537 32.2258065,66.902537 C40.7811613,66.902537 47.7419355,59.915505 47.7419355,51.3278773 C47.7419355,42.7402496 40.7811613,35.7532177 32.2258065,35.7532177 C30.969,35.7532177 29.7217419,35.9125585 28.4995484,36.2156653 Z M23.3183548,45.3376237 C22.1212258,47.1203231 21.483871,49.1773763 21.483871,51.3278773 C21.483871,57.2738032 26.3022258,62.110334 32.2258065,62.110334 C38.1493871,62.110334 42.9677419,57.2738032 42.9677419,51.3278773 C42.9677419,45.3819515 38.1493871,40.5454207 32.2258065,40.5454207 C30.9964516,40.5454207 29.798129,40.765862 28.6451613,41.1767934 L28.6451613,45.3376237 L23.3183548,45.3376237 Z M14.5612903,26.1807923 C14.4813226,26.1795943 14.4025484,26.1688118 14.3225806,26.1688118 C14.2426129,26.1688118 14.1638387,26.1795943 14.083871,26.1807923 L12.048871,35.3710396 L14.3225806,37.6533262 L16.5950968,35.3710396 L14.5612903,26.1807923 Z M14.3225806,23.7727103 C18.2720323,23.7727103 21.483871,20.5487558 21.483871,16.5844059 C21.483871,12.620056 18.2720323,9.39610148 14.3225806,9.39610148 C10.373129,9.39610148 7.16129032,12.620056 7.16129032,16.5844059 C7.16129032,20.5487558 10.373129,23.7727103 14.3225806,23.7727103 Z M2.38709677,38.1493192 L2.38709677,42.9415222 L5.96774194,42.9415222 L5.96774194,35.7532177 L8.35483871,35.7532177 L8.35483871,42.9415222 L20.2903226,42.9415222 L20.2903226,35.7532177 L22.6774194,35.7532177 L22.6774194,42.9415222 L26.2580645,42.9415222 L26.2580645,38.1493192 C26.2580645,32.4969158 22.3336774,27.7574271 17.0784839,26.504266 L19.2101613,36.1353959 L14.3225806,41.0414137 L9.43380645,36.1353959 L11.5654839,26.504266 C6.31148387,27.7574271 2.38709677,32.4969158 2.38709677,38.1493192 Z M74,15.3863552 L74,20.1785581 C74,24.8018359 70.2510645,28.5649133 65.6451613,28.5649133 L45.3548387,28.5649133 L45.3548387,15.3863552 C45.3548387,10.7630774 49.1037742,7 53.7096774,7 L65.6451613,7 C70.2510645,7 74,10.7630774 74,15.3863552 Z M71.6129032,15.3863552 C71.6129032,12.0833293 68.9357742,9.39610148 65.6451613,9.39610148 L53.7096774,9.39610148 C50.4190645,9.39610148 47.7419355,12.0833293 47.7419355,15.3863552 L47.7419355,26.1688118 L65.6451613,26.1688118 C68.9357742,26.1688118 71.6129032,23.481584 71.6129032,20.1785581 L71.6129032,15.3863552 Z M52.516129,11.792203 L50.1290323,11.792203 L50.1290323,14.1883044 L52.516129,14.1883044 L52.516129,11.792203 Z M57.2903226,11.792203 L54.9032258,11.792203 L54.9032258,14.1883044 L57.2903226,14.1883044 L57.2903226,11.792203 Z M59.6774194,14.1883044 L69.2258065,14.1883044 L69.2258065,11.792203 L59.6774194,11.792203 L59.6774194,14.1883044 Z M50.1290323,18.9805074 L69.2258065,18.9805074 L69.2258065,16.5844059 L50.1290323,16.5844059 L50.1290323,18.9805074 Z M50.1290323,23.7727103 L69.2258065,23.7727103 L69.2258065,21.3766089 L50.1290323,21.3766089 L50.1290323,23.7727103 Z" id="PMS"></path>
                        </g>
                    </g>
                </g>
            </g>
        </g>
    </g>
</svg>