<?xml version="1.0" encoding="UTF-8"?>
<svg width="58px" height="74px" viewBox="0 0 58 74" version="1.1" xmlns="http://www.w3.org/2000/svg" xmlns:xlink="http://www.w3.org/1999/xlink">
    <!-- Generator: Sketch 60 (88103) - https://sketch.com -->
    <title>POS</title>
    <desc>Created with Sketch.</desc>
    <defs>
        <linearGradient x1="50%" y1="0%" x2="50%" y2="100%" id="linearGradient-1">
            <stop stop-color="#0DB0D4" offset="0%"></stop>
            <stop stop-color="#9D32FF" offset="100%"></stop>
        </linearGradient>
    </defs>
    <g id="Design" stroke="none" stroke-width="1" fill="none" fill-rule="evenodd">
        <g id="1.-Home" transform="translate(-1137.000000, -415.000000)" fill="url(#linearGradient-1)" fill-rule="nonzero">
            <g id="Group-31" transform="translate(135.000000, 347.000000)">
                <g id="Group-26" transform="translate(933.000000, 41.000000)">
                    <g id="Group-25" transform="translate(17.458564, 20.000000)">
                        <g id="Icon/Software/POS" transform="translate(52.000000, 7.000000)">
                            <path d="M37,0 C41.0852163,0.00407910074 44.3959209,3.31478366 44.4,7.4 L44.4,7.4 L44.4,39.4666667 L55.5,39.4666667 C56.1811512,39.4666667 56.7333333,40.0188488 56.7333333,40.7 L56.7333333,40.7 L56.7333333,44.4 C56.7292542,48.4852163 53.4185497,51.7959209 49.3333333,51.8 L49.3333333,51.8 L37,51.8 L37,67.8333333 C36.9959225,71.2373989 34.2373989,73.9959225 30.8333333,74 L30.8333333,74 L6.16666667,74 C2.76260111,73.9959225 0.00407754348,71.2373989 2.48689958e-13,67.8333333 L2.48689958e-13,67.8333333 L2.48689958e-13,20.9666667 C0.00369788782,18.0373756 2.06408595,15.5134003 4.93333333,14.9233333 L4.93333333,14.9233333 L4.93333333,6.16666667 C4.93741088,2.76260111 7.69593445,0.00407754348 11.1,0 L11.1,0 Z M32.0666667,17.4936 L32.0666667,25.9 C32.0666667,26.5811512 31.5144845,27.1333333 30.8333333,27.1333333 L30.8333333,27.1333333 L6.16666667,27.1333333 C5.48551548,27.1333333 4.93333333,26.5811512 4.93333333,25.9 L4.93333333,25.9 L4.93333333,17.4936 C3.4603006,18.0143806 2.47314339,19.404298 2.46666667,20.9666667 L2.46666667,20.9666667 L2.46666667,67.8333333 C2.46666667,69.8767869 4.12321309,71.5333333 6.16666667,71.5333333 L6.16666667,71.5333333 L30.8333333,71.5333333 C32.8767869,71.5333333 34.5333333,69.8767869 34.5333333,67.8333333 L34.5333333,67.8333333 L34.5333333,20.9666667 C34.5268566,19.404298 33.5396994,18.0143806 32.0666667,17.4936 L32.0666667,17.4936 Z M11.1,61.6666667 C11.7811512,61.6666667 12.3333333,62.2188488 12.3333333,62.9 L12.3333333,62.9 L12.3333333,67.8333333 C12.3333333,68.5144845 11.7811512,69.0666667 11.1,69.0666667 L11.1,69.0666667 L6.16666667,69.0666667 C5.48551548,69.0666667 4.93333333,68.5144845 4.93333333,67.8333333 L4.93333333,67.8333333 L4.93333333,62.9 C4.93333333,62.2188488 5.48551548,61.6666667 6.16666667,61.6666667 L6.16666667,61.6666667 Z M20.9666667,61.6666667 C21.6478179,61.6666667 22.2,62.2188488 22.2,62.9 L22.2,62.9 L22.2,67.8333333 C22.2,68.5144845 21.6478179,69.0666667 20.9666667,69.0666667 L20.9666667,69.0666667 L16.0333333,69.0666667 C15.3521821,69.0666667 14.8,68.5144845 14.8,67.8333333 L14.8,67.8333333 L14.8,62.9 C14.8,62.2188488 15.3521821,61.6666667 16.0333333,61.6666667 L16.0333333,61.6666667 Z M30.8333333,61.6666667 C31.5144845,61.6666667 32.0666667,62.2188488 32.0666667,62.9 L32.0666667,62.9 L32.0666667,67.8333333 C32.0666667,68.5144845 31.5144845,69.0666667 30.8333333,69.0666667 L30.8333333,69.0666667 L25.9,69.0666667 C25.2188488,69.0666667 24.6666667,68.5144845 24.6666667,67.8333333 L24.6666667,67.8333333 L24.6666667,62.9 C24.6666667,62.2188488 25.2188488,61.6666667 25.9,61.6666667 L25.9,61.6666667 Z M9.86666667,64.1333333 L7.4,64.1333333 L7.4,66.6 L9.86666667,66.6 L9.86666667,64.1333333 Z M19.7333333,64.1333333 L17.2666667,64.1333333 L17.2666667,66.6 L19.7333333,66.6 L19.7333333,64.1333333 Z M29.6,64.1333333 L27.1333333,64.1333333 L27.1333333,66.6 L29.6,66.6 L29.6,64.1333333 Z M11.1,51.8 C11.7811512,51.8 12.3333333,52.3521821 12.3333333,53.0333333 L12.3333333,53.0333333 L12.3333333,57.9666667 C12.3333333,58.6478179 11.7811512,59.2 11.1,59.2 L11.1,59.2 L6.16666667,59.2 C5.48551548,59.2 4.93333333,58.6478179 4.93333333,57.9666667 L4.93333333,57.9666667 L4.93333333,53.0333333 C4.93333333,52.3521821 5.48551548,51.8 6.16666667,51.8 L6.16666667,51.8 Z M20.9666667,51.8 C21.6478179,51.8 22.2,52.3521821 22.2,53.0333333 L22.2,53.0333333 L22.2,57.9666667 C22.2,58.6478179 21.6478179,59.2 20.9666667,59.2 L20.9666667,59.2 L16.0333333,59.2 C15.3521821,59.2 14.8,58.6478179 14.8,57.9666667 L14.8,57.9666667 L14.8,53.0333333 C14.8,52.3521821 15.3521821,51.8 16.0333333,51.8 L16.0333333,51.8 Z M30.8333333,51.8 C31.5144845,51.8 32.0666667,52.3521821 32.0666667,53.0333333 L32.0666667,53.0333333 L32.0666667,57.9666667 C32.0666667,58.6478179 31.5144845,59.2 30.8333333,59.2 L30.8333333,59.2 L25.9,59.2 C25.2188488,59.2 24.6666667,58.6478179 24.6666667,57.9666667 L24.6666667,57.9666667 L24.6666667,53.0333333 C24.6666667,52.3521821 25.2188488,51.8 25.9,51.8 L25.9,51.8 Z M29.6,54.2666667 L27.1333333,54.2666667 L27.1333333,56.7333333 L29.6,56.7333333 L29.6,54.2666667 Z M9.86666667,54.2666667 L7.4,54.2666667 L7.4,56.7333333 L9.86666667,56.7333333 L9.86666667,54.2666667 Z M19.7333333,54.2666667 L17.2666667,54.2666667 L17.2666667,56.7333333 L19.7333333,56.7333333 L19.7333333,54.2666667 Z M11.1,41.9333333 C11.7811512,41.9333333 12.3333333,42.4855155 12.3333333,43.1666667 L12.3333333,43.1666667 L12.3333333,48.1 C12.3333333,48.7811512 11.7811512,49.3333333 11.1,49.3333333 L11.1,49.3333333 L6.16666667,49.3333333 C5.48551548,49.3333333 4.93333333,48.7811512 4.93333333,48.1 L4.93333333,48.1 L4.93333333,43.1666667 C4.93333333,42.4855155 5.48551548,41.9333333 6.16666667,41.9333333 L6.16666667,41.9333333 Z M37,2.46666667 C34.2753952,2.46666667 32.0666667,4.67539523 32.0666667,7.4 L32.0666667,7.4 L32.0666667,14.9233333 C34.9359141,15.5134003 36.9963021,18.0373756 37,20.9666667 L37,20.9666667 L37,49.3333333 L43.8326667,49.3333333 C42.6106078,47.9807548 41.9338265,46.2228813 41.9333333,44.4 L41.9333333,44.4 L41.9333333,7.4 C41.9333333,4.67539523 39.7246048,2.46666667 37,2.46666667 Z M54.2666667,41.9333333 L44.4,41.9333333 L44.4,44.4 C44.4,47.1246048 46.6087286,49.3333333 49.3333333,49.3333333 C52.0579381,49.3333333 54.2666667,47.1246048 54.2666667,44.4 L54.2666667,44.4 L54.2666667,41.9333333 Z M20.9666667,41.9333333 C21.6478179,41.9333333 22.2,42.4855155 22.2,43.1666667 L22.2,43.1666667 L22.2,48.1 C22.2,48.7811512 21.6478179,49.3333333 20.9666667,49.3333333 L20.9666667,49.3333333 L16.0333333,49.3333333 C15.3521821,49.3333333 14.8,48.7811512 14.8,48.1 L14.8,48.1 L14.8,43.1666667 C14.8,42.4855155 15.3521821,41.9333333 16.0333333,41.9333333 L16.0333333,41.9333333 Z M30.8333333,41.9333333 C31.5144845,41.9333333 32.0666667,42.4855155 32.0666667,43.1666667 L32.0666667,43.1666667 L32.0666667,48.1 C32.0666667,48.7811512 31.5144845,49.3333333 30.8333333,49.3333333 L30.8333333,49.3333333 L25.9,49.3333333 C25.2188488,49.3333333 24.6666667,48.7811512 24.6666667,48.1 L24.6666667,48.1 L24.6666667,43.1666667 C24.6666667,42.4855155 25.2188488,41.9333333 25.9,41.9333333 L25.9,41.9333333 Z M9.86666667,44.4 L7.4,44.4 L7.4,46.8666667 L9.86666667,46.8666667 L9.86666667,44.4 Z M19.7333333,44.4 L17.2666667,44.4 L17.2666667,46.8666667 L19.7333333,46.8666667 L19.7333333,44.4 Z M29.6,44.4 L27.1333333,44.4 L27.1333333,46.8666667 L29.6,46.8666667 L29.6,44.4 Z M30.8333333,32.0666667 C31.5144845,32.0666667 32.0666667,32.6188488 32.0666667,33.3 L32.0666667,33.3 L32.0666667,38.2333333 C32.0666667,38.9144845 31.5144845,39.4666667 30.8333333,39.4666667 L30.8333333,39.4666667 L6.16666667,39.4666667 C5.48551548,39.4666667 4.93333333,38.9144845 4.93333333,38.2333333 L4.93333333,38.2333333 L4.93333333,33.3 C4.93333333,32.6188488 5.48551548,32.0666667 6.16666667,32.0666667 L6.16666667,32.0666667 Z M29.6,34.5333333 L7.4,34.5333333 L7.4,37 L29.6,37 L29.6,34.5333333 Z M31.4894667,2.46666667 L11.1,2.46666667 C9.05654643,2.46666667 7.4,4.12321309 7.4,6.16666667 L7.4,6.16666667 L7.4,24.6666667 L29.6,24.6666667 L29.6,7.4 C29.5986069,5.57857796 30.2717014,3.82115106 31.4894667,2.46666667 L31.4894667,2.46666667 Z M17.2666667,19.7333333 L17.2666667,22.2 L9.86666667,22.2 L9.86666667,19.7333333 L17.2666667,19.7333333 Z M27.1333333,19.7333333 L27.1333333,22.2 L19.7333333,22.2 L19.7333333,19.7333333 L27.1333333,19.7333333 Z M17.2666667,14.8 L17.2666667,17.2666667 L9.86666667,17.2666667 L9.86666667,14.8 L17.2666667,14.8 Z M27.1333333,14.8 L27.1333333,17.2666667 L19.7333333,17.2666667 L19.7333333,14.8 L27.1333333,14.8 Z M17.2666667,9.86666667 L17.2666667,12.3333333 L9.86666667,12.3333333 L9.86666667,9.86666667 L17.2666667,9.86666667 Z M27.1333333,9.86666667 L27.1333333,12.3333333 L19.7333333,12.3333333 L19.7333333,9.86666667 L27.1333333,9.86666667 Z M17.2666667,4.93333333 L17.2666667,7.4 L9.86666667,7.4 L9.86666667,4.93333333 L17.2666667,4.93333333 Z M27.1333333,4.93333333 L27.1333333,7.4 L19.7333333,7.4 L19.7333333,4.93333333 L27.1333333,4.93333333 Z" id="POS"></path>
                        </g>
                    </g>
                </g>
            </g>
        </g>
    </g>
</svg>