<?xml version="1.0" encoding="UTF-8"?>
<svg width="69px" height="74px" viewBox="0 0 69 74" version="1.1" xmlns="http://www.w3.org/2000/svg" xmlns:xlink="http://www.w3.org/1999/xlink">
    <!-- Generator: Sketch 60 (88103) - https://sketch.com -->
    <title>RTM</title>
    <desc>Created with Sketch.</desc>
    <defs>
        <linearGradient x1="50%" y1="0%" x2="50%" y2="100%" id="linearGradient-1">
            <stop stop-color="#0DB0D4" offset="0%"></stop>
            <stop stop-color="#9D32FF" offset="100%"></stop>
        </linearGradient>
    </defs>
    <g id="Design" stroke="none" stroke-width="1" fill="none" fill-rule="evenodd">
        <g id="1.-Home" transform="translate(-997.000000, -624.000000)" fill="url(#linearGradient-1)" fill-rule="nonzero">
            <g id="Group-31" transform="translate(135.000000, 347.000000)">
                <g id="Stacked-Group" transform="translate(139.000000, 250.000000)">
                    <g id="Group-20" transform="translate(669.000000, 0.000000)">
                        <g id="Group-4" transform="translate(23.470270, 19.000000)">
                            <g id="Icon/Software/RTM" transform="translate(31.028598, 8.000000)">
                                <path d="M45.4884781,17.7629482 C46.3024781,17.7629482 46.9625817,18.4229044 46.9625817,19.2370518 C46.9625817,20.0511992 46.3024781,20.7111554 45.4884781,20.7111554 L45.4884781,20.7111554 L44.4237331,20.7111554 C38.3458566,20.7111554 33.4009761,25.6558884 33.4009761,31.7339124 C33.4009761,37.8119363 38.3458566,42.7568167 44.4237331,42.7568167 L44.4237331,42.7568167 L54.3700996,42.7568167 C62.0737649,42.7568167 68.3410637,49.0242629 68.3410637,56.7277809 C68.3410637,64.4312988 62.0737649,70.698745 54.3700996,70.698745 L54.3700996,70.698745 L18.3907689,70.698745 C17.7681076,72.6124263 15.9682271,73.9998526 13.849498,73.9998526 C11.2164542,73.9998526 9.07428685,71.8576853 9.07428685,69.2246414 C9.07428685,66.5915976 11.2164542,64.4494303 13.849498,64.4494303 C15.9682271,64.4494303 17.7681076,65.8368566 18.3907689,67.7505378 L18.3907689,67.7505378 L54.3700996,67.7505378 C60.4479761,67.7505378 65.3928566,62.8058048 65.3928566,56.7277809 C65.3928566,50.649757 60.4479761,45.7050239 54.3700996,45.7050239 L54.3700996,45.7050239 L44.4237331,45.7050239 C36.7202151,45.7050239 30.4527689,39.4377251 30.4527689,31.7340598 C30.4527689,24.0303944 36.7200677,17.7629482 44.4237331,17.7629482 L44.4237331,17.7629482 Z M13.849498,67.3977849 C12.8420956,67.3977849 12.022494,68.2173865 12.022494,69.2247888 C12.022494,70.2321912 12.8420956,71.0517928 13.849498,71.0517928 C14.8569004,71.0517928 15.676502,70.2321912 15.676502,69.2247888 C15.676502,68.2173865 14.8569004,67.3977849 13.849498,67.3977849 Z M13.849498,23.7364582 C21.4860916,23.7364582 27.698996,29.9493625 27.698996,37.5859562 C27.698996,40.7036853 25.5404661,45.6989801 21.283255,52.4332749 C18.1895538,57.327004 15.147741,61.3084104 15.0197888,61.4755737 C14.7408884,61.8396773 14.308239,62.0532749 13.849498,62.0532749 C13.390757,62.0532749 12.9581076,61.8396773 12.6790598,61.4754263 C12.5511076,61.3084104 9.50929482,57.327004 6.41574104,52.4332749 C2.15867729,45.6991275 -4.56523708e-13,40.7036853 -4.56523708e-13,37.5859562 C-4.56523708e-13,29.9493625 6.21290438,23.7364582 13.849498,23.7364582 Z M13.8496454,26.6845179 C7.83854582,26.6845179 2.94835458,31.5748566 2.94835458,37.5858088 C2.94835458,42.2535578 9.98660956,52.8373267 13.8496454,58.116239 C17.7125339,52.8371793 24.7509363,42.2535578 24.7509363,37.5858088 C24.7509363,31.5748566 19.860745,26.6845179 13.8496454,26.6845179 Z M13.849498,29.1551155 C18.4982311,29.1551155 22.2801912,32.9370757 22.2801912,37.5858088 C22.2801912,42.2345418 18.4982311,46.016502 13.849498,46.016502 C9.20076494,46.016502 5.41880478,42.2345418 5.41880478,37.5858088 C5.41880478,32.9370757 9.20076494,29.1551155 13.849498,29.1551155 Z M13.849498,32.1033227 C10.8264064,32.1033227 8.36701195,34.5627171 8.36701195,37.5858088 C8.36701195,40.6089004 10.8264064,43.0682948 13.849498,43.0682948 C16.8725896,43.0682948 19.3319841,40.6089004 19.3319841,37.5858088 C19.3319841,34.5627171 16.8725896,32.1033227 13.849498,32.1033227 Z M63.5657052,1.82964754e-13 C64.3797052,1.82964754e-13 65.0398088,0.659956175 65.0398088,1.47410359 L65.0398088,1.47410359 L65.0398088,14.6957809 C66.9536375,15.3184422 68.3410637,17.1183227 68.3410637,19.2370518 C68.3410637,21.8700956 66.1988964,24.0122629 63.5657052,24.0122629 C60.9325139,24.0122629 58.790494,21.8700956 58.790494,19.2370518 C58.790494,17.1183227 60.1779203,15.3184422 62.0916016,14.6957809 L62.0916016,14.6957809 L62.0916016,9.39313546 L54.9200876,9.39313546 C54.1060876,9.39313546 53.4459841,8.73317928 53.4459841,7.91903187 L53.4459841,7.91903187 L53.4459841,1.47410359 C53.4459841,0.659956175 54.1060876,1.82964754e-13 54.9200876,1.82964754e-13 L54.9200876,1.82964754e-13 Z M63.5658526,17.4100478 C62.5584502,17.4100478 61.7388486,18.2296494 61.7388486,19.2370518 C61.7388486,20.2444542 62.5584502,21.0640558 63.5658526,21.0640558 C64.573255,21.0640558 65.393004,20.2444542 65.393004,19.2370518 C65.393004,18.2296494 64.573255,17.4100478 63.5658526,17.4100478 Z M55.0773745,17.7629482 C55.8913745,17.7629482 56.5514781,18.4229044 56.5514781,19.2370518 C56.5514781,20.0511992 55.8913745,20.7111554 55.0773745,20.7111554 L55.0773745,20.7111554 L50.9902749,20.7111554 C50.1762749,20.7111554 49.5161713,20.0511992 49.5161713,19.2370518 C49.5161713,18.4229044 50.1762749,17.7629482 50.9902749,17.7629482 L50.9902749,17.7629482 Z M62.0916016,2.94820717 L56.3941912,2.94820717 L56.3941912,6.44492829 L62.0916016,6.44492829 L62.0916016,2.94820717 Z" id="RTM"></path>
                            </g>
                        </g>
                    </g>
                </g>
            </g>
        </g>
    </g>
</svg>