<?xml version="1.0" encoding="UTF-8"?>
<svg width="73px" height="74px" viewBox="0 0 73 74" version="1.1" xmlns="http://www.w3.org/2000/svg" xmlns:xlink="http://www.w3.org/1999/xlink">
    <!-- Generator: Sketch 60 (88103) - https://sketch.com -->
    <title>Vat Software</title>
    <desc>Created with Sketch.</desc>
    <defs>
        <linearGradient x1="50%" y1="100%" x2="50%" y2="0%" id="linearGradient-1">
            <stop stop-color="#9F2FFF" offset="0%"></stop>
            <stop stop-color="#0BB1D3" offset="100%"></stop>
        </linearGradient>
    </defs>
    <g id="Design" stroke="none" stroke-width="1" fill="none" fill-rule="evenodd">
        <g id="1.-Home" transform="translate(-684.000000, -427.000000)" fill="url(#linearGradient-1)" fill-rule="nonzero">
            <g id="Group-31" transform="translate(135.000000, 347.000000)">
                <g id="Group-2-Copy" transform="translate(487.000000, 41.000000)">
                    <g id="Group-16" transform="translate(29.000000, 32.000000)">
                        <g id="Icon/Software/Vat-software" transform="translate(33.000000, 7.000000)">
                            <path d="M30.2679194,45.005129 L16.1388871,59.3277097 L14.4740161,57.6400323 L28.6030484,43.3174516 L30.2679194,45.005129 Z M14.1290323,46.5483871 C14.1290323,44.5742581 15.7138387,42.9677419 17.6612903,42.9677419 C19.6087419,42.9677419 21.1935484,44.5742581 21.1935484,46.5483871 C21.1935484,48.5225161 19.6087419,50.1290323 17.6612903,50.1290323 C15.7138387,50.1290323 14.1290323,48.5225161 14.1290323,46.5483871 Z M16.483871,46.5483871 C16.483871,47.2072258 17.0113548,47.7419355 17.6612903,47.7419355 C18.3112258,47.7419355 18.8387097,47.2072258 18.8387097,46.5483871 C18.8387097,45.8895484 18.3112258,45.3548387 17.6612903,45.3548387 C17.0113548,45.3548387 16.483871,45.8895484 16.483871,46.5483871 Z M30.6129032,56.0967742 C30.6129032,58.0709032 29.0280968,59.6774194 27.0806452,59.6774194 C25.1331935,59.6774194 23.5483871,58.0709032 23.5483871,56.0967742 C23.5483871,54.1226452 25.1331935,52.516129 27.0806452,52.516129 C29.0280968,52.516129 30.6129032,54.1226452 30.6129032,56.0967742 Z M28.2580645,56.0967742 C28.2580645,55.4379355 27.7305806,54.9032258 27.0806452,54.9032258 C26.4307097,54.9032258 25.9032258,55.4379355 25.9032258,56.0967742 C25.9032258,56.7556129 26.4307097,57.2903226 27.0806452,57.2903226 C27.7305806,57.2903226 28.2580645,56.7556129 28.2580645,56.0967742 Z M73,5.96774194 L73,56.0967742 C73,59.3873871 70.3590484,62.0645161 67.1129032,62.0645161 L42.0656613,62.0645161 C38.2826129,69.1637419 30.8742903,74 22.3709677,74 C10.0351452,74 0,63.8273871 0,51.3225806 C0,38.8177742 10.0351452,28.6451613 22.3709677,28.6451613 C24.4114355,28.6451613 26.3789032,28.947129 28.2580645,29.4687097 L28.2580645,5.96774194 C28.2580645,2.67712903 30.8990161,0 34.1451613,0 L67.1129032,0 C70.3590484,0 73,2.67712903 73,5.96774194 Z M22.3709677,38.1935484 C15.2299194,38.1935484 9.41935484,44.0837097 9.41935484,51.3225806 C9.41935484,58.5614516 15.2299194,64.4516129 22.3709677,64.4516129 C29.5120161,64.4516129 35.3225806,58.5614516 35.3225806,51.3225806 C35.3225806,44.0837097 29.5120161,38.1935484 22.3709677,38.1935484 Z M21.1935484,31.093129 C16.5627581,31.3676452 12.3570161,33.2379355 9.09556452,36.1788387 L12.424129,39.553 C14.8213548,37.467871 17.8579194,36.1263226 21.192371,35.8673226 L21.192371,31.093129 L21.1935484,31.093129 Z M7.43069355,37.8653226 C4.52953226,41.1714516 2.68569355,45.4348065 2.4148871,50.1290323 L7.12456452,50.1290323 C7.38006452,46.7477097 8.70348387,43.6707419 10.7604355,41.2406774 L7.43069355,37.8653226 Z M2.4148871,52.516129 C2.68569355,57.2103548 4.53070968,61.4737097 7.43187097,64.7798387 L10.7604355,61.4056774 C8.70348387,58.9744194 7.38006452,55.8974516 7.12456452,52.516129 L2.4148871,52.516129 Z M9.09556452,66.4675161 C12.3570161,69.4084194 16.5615806,71.2775161 21.1935484,71.5532258 L21.1935484,66.7790323 C17.8579194,66.5200323 14.8225323,65.1784839 12.4253065,63.0933548 L9.09556452,66.4675161 Z M23.5483871,71.5520323 C28.1791774,71.2775161 32.3849194,69.4072258 35.646371,66.4663226 L32.3178065,63.0921613 C29.9205806,65.1772903 26.8840161,66.5188387 23.5495645,66.7778387 L23.5495645,71.5520323 L23.5483871,71.5520323 Z M37.3112419,64.7798387 C40.2124032,61.4737097 42.0562419,57.2115484 42.3282258,52.516129 L37.6185484,52.516129 C37.3630484,55.8974516 36.039629,58.9744194 33.9826774,61.4044839 L37.3112419,64.7798387 Z M44.7419355,51.3225806 C44.7419355,52.5435806 44.6194839,53.7335484 44.434629,54.9032258 L45.9193548,54.9032258 C46.5692903,54.9032258 47.0967742,54.3685161 47.0967742,53.7096774 L47.0967742,44.1612903 C47.0967742,43.5024516 46.5692903,42.9677419 45.9193548,42.9677419 L43.1488871,42.9677419 C44.1661774,45.5565484 44.7419355,48.3709355 44.7419355,51.3225806 Z M37.3112419,37.8653226 L33.9826774,41.2394839 C36.039629,43.6695484 37.3630484,46.7477097 37.6185484,50.1278387 L42.3282258,50.1278387 C42.0562419,45.4348065 40.2124032,41.1714516 37.3112419,37.8653226 Z M38.6405484,35.8064516 L45.9193548,35.8064516 C46.5692903,35.8064516 47.0967742,35.2717419 47.0967742,34.6129032 L47.0967742,25.0645161 C47.0967742,24.4056774 46.5692903,23.8709677 45.9193548,23.8709677 L36.5,23.8709677 C35.8500645,23.8709677 35.3225806,24.4056774 35.3225806,25.0645161 L35.3225806,32.8667419 C36.5235484,33.7356452 37.6326774,34.7203226 38.6405484,35.8064516 Z M23.5483871,31.093129 L23.5483871,35.8673226 C26.8840161,36.1263226 29.9194032,37.467871 32.316629,39.553 L35.6451935,36.1788387 C32.3849194,33.2367419 28.1791774,31.3676452 23.5483871,31.093129 L23.5483871,31.093129 Z M70.6451613,5.96774194 C70.6451613,3.9936129 69.0603548,2.38709677 67.1129032,2.38709677 L34.1451613,2.38709677 C32.1977097,2.38709677 30.6129032,3.9936129 30.6129032,5.96774194 L30.6129032,30.2600323 C31.4194355,30.585871 32.2106613,30.9427419 32.9677419,31.3580968 L32.9677419,25.0645161 C32.9677419,23.0903871 34.5525484,21.483871 36.5,21.483871 L45.9193548,21.483871 C47.8668065,21.483871 49.4516129,23.0903871 49.4516129,25.0645161 L49.4516129,34.6129032 C49.4516129,36.5870323 47.8668065,38.1935484 45.9193548,38.1935484 L40.5774032,38.1935484 C41.1166613,38.9586129 41.6229516,39.7487419 42.0656613,40.5806452 L45.9193548,40.5806452 C47.8668065,40.5806452 49.4516129,42.1871613 49.4516129,44.1612903 L49.4516129,53.7096774 C49.4516129,55.6838065 47.8668065,57.2903226 45.9193548,57.2903226 L43.9295161,57.2903226 C43.7093387,58.1043226 43.4526613,58.9016129 43.1488871,59.6774194 L67.1129032,59.6774194 C69.0603548,59.6774194 70.6451613,58.0709032 70.6451613,56.0967742 L70.6451613,5.96774194 Z M68.2903226,8.35483871 L68.2903226,15.516129 C68.2903226,17.4902581 66.7055161,19.0967742 64.7580645,19.0967742 L36.5,19.0967742 C34.5525484,19.0967742 32.9677419,17.4902581 32.9677419,15.516129 L32.9677419,8.35483871 C32.9677419,6.38070968 34.5525484,4.77419355 36.5,4.77419355 L64.7580645,4.77419355 C66.7055161,4.77419355 68.2903226,6.38070968 68.2903226,8.35483871 Z M65.9354839,8.35483871 C65.9354839,7.696 65.408,7.16129032 64.7580645,7.16129032 L36.5,7.16129032 C35.8500645,7.16129032 35.3225806,7.696 35.3225806,8.35483871 L35.3225806,15.516129 C35.3225806,16.1749677 35.8500645,16.7096774 36.5,16.7096774 L64.7580645,16.7096774 C65.408,16.7096774 65.9354839,16.1749677 65.9354839,15.516129 L65.9354839,8.35483871 Z M68.2903226,25.0645161 L68.2903226,34.6129032 C68.2903226,36.5870323 66.7055161,38.1935484 64.7580645,38.1935484 L55.3387097,38.1935484 C53.3912581,38.1935484 51.8064516,36.5870323 51.8064516,34.6129032 L51.8064516,25.0645161 C51.8064516,23.0903871 53.3912581,21.483871 55.3387097,21.483871 L64.7580645,21.483871 C66.7055161,21.483871 68.2903226,23.0903871 68.2903226,25.0645161 L68.2903226,25.0645161 Z M65.9354839,25.0645161 C65.9354839,24.4056774 65.408,23.8709677 64.7580645,23.8709677 L55.3387097,23.8709677 C54.6887742,23.8709677 54.1612903,24.4056774 54.1612903,25.0645161 L54.1612903,34.6129032 C54.1612903,35.2717419 54.6887742,35.8064516 55.3387097,35.8064516 L64.7580645,35.8064516 C65.408,35.8064516 65.9354839,35.2717419 65.9354839,34.6129032 L65.9354839,25.0645161 Z M68.2903226,44.1612903 L68.2903226,53.7096774 C68.2903226,55.6838065 66.7055161,57.2903226 64.7580645,57.2903226 L55.3387097,57.2903226 C53.3912581,57.2903226 51.8064516,55.6838065 51.8064516,53.7096774 L51.8064516,44.1612903 C51.8064516,42.1871613 53.3912581,40.5806452 55.3387097,40.5806452 L64.7580645,40.5806452 C66.7055161,40.5806452 68.2903226,42.1871613 68.2903226,44.1612903 Z M65.9354839,44.1612903 C65.9354839,43.5024516 65.408,42.9677419 64.7580645,42.9677419 L55.3387097,42.9677419 C54.6887742,42.9677419 54.1612903,43.5024516 54.1612903,44.1612903 L54.1612903,53.7096774 C54.1612903,54.3685161 54.6887742,54.9032258 55.3387097,54.9032258 L64.7580645,54.9032258 C65.408,54.9032258 65.9354839,54.3685161 65.9354839,53.7096774 L65.9354839,44.1612903 Z" id="Vat-Software"></path>
                        </g>
                    </g>
                </g>
            </g>
        </g>
    </g>
</svg>