<svg xmlns="http://www.w3.org/2000/svg" width="479.303" height="446.825" viewBox="0 0 479.303 446.825">
  <g id="Auto_Tech" data-name="Auto Tech" transform="translate(-9.348 -36.868)">
    <g id="Floor">
      <ellipse id="Floor-2" data-name="Floor" cx="239.651" cy="137.314" rx="239.651" ry="137.314" transform="translate(9.348 209.065)" fill="#e6efef"/>
    </g>
    <g id="Group_3243" data-name="Group 3243">
      <g id="Grid">
        <g id="Grid-2" data-name="Grid">
          <g id="Group_18" data-name="Group 18">
            <g id="Group_1" data-name="Group 1">
              <rect id="Rectangle_1" data-name="Rectangle 1" width="242.109" height="1.057" transform="translate(54.424 200.881) rotate(-30.043)" fill="#e0e0e0"/>
            </g>
            <g id="Group_2" data-name="Group 2">
              <rect id="Rectangle_2" data-name="Rectangle 2" width="242.109" height="1.057" transform="translate(54.421 226.291) rotate(-30.041)" fill="#e0e0e0"/>
            </g>
            <g id="Group_3" data-name="Group 3">
              <rect id="Rectangle_3" data-name="Rectangle 3" width="242.109" height="1.057" transform="translate(54.396 251.661) rotate(-30.016)" fill="#e0e0e0"/>
            </g>
            <g id="Group_4" data-name="Group 4">
              <rect id="Rectangle_4" data-name="Rectangle 4" width="242.109" height="1.058" transform="translate(54.393 277.07) rotate(-30.014)" fill="#e0e0e0"/>
            </g>
            <g id="Group_5" data-name="Group 5">
              <rect id="Rectangle_5" data-name="Rectangle 5" width="242.109" height="1.057" transform="translate(54.396 302.49) rotate(-30.016)" fill="#e0e0e0"/>
            </g>
            <g id="Group_6" data-name="Group 6">
              <rect id="Rectangle_6" data-name="Rectangle 6" width="242.109" height="1.058" transform="translate(54.396 327.905) rotate(-30.016)" fill="#e0e0e0"/>
            </g>
            <g id="Group_7" data-name="Group 7">
              <rect id="Rectangle_7" data-name="Rectangle 7" width="1.057" height="177.904" transform="translate(73.176 164.927)" fill="#e0e0e0"/>
            </g>
            <g id="Group_8" data-name="Group 8">
              <rect id="Rectangle_8" data-name="Rectangle 8" width="1.057" height="177.904" transform="translate(92.237 153.921)" fill="#e0e0e0"/>
            </g>
            <g id="Group_9" data-name="Group 9">
              <rect id="Rectangle_9" data-name="Rectangle 9" width="1.057" height="177.904" transform="translate(111.298 142.917)" fill="#e0e0e0"/>
            </g>
            <g id="Group_10" data-name="Group 10">
              <rect id="Rectangle_10" data-name="Rectangle 10" width="1.057" height="177.904" transform="translate(130.36 131.912)" fill="#e0e0e0"/>
            </g>
            <g id="Group_11" data-name="Group 11">
              <rect id="Rectangle_11" data-name="Rectangle 11" width="1.057" height="177.904" transform="translate(149.42 120.907)" fill="#e0e0e0"/>
            </g>
            <g id="Group_12" data-name="Group 12">
              <rect id="Rectangle_12" data-name="Rectangle 12" width="1.057" height="177.904" transform="translate(168.482 109.902)" fill="#e0e0e0"/>
            </g>
            <g id="Group_13" data-name="Group 13">
              <rect id="Rectangle_13" data-name="Rectangle 13" width="1.057" height="177.905" transform="translate(187.543 98.896)" fill="#e0e0e0"/>
            </g>
            <g id="Group_14" data-name="Group 14">
              <rect id="Rectangle_14" data-name="Rectangle 14" width="1.057" height="177.905" transform="translate(206.604 87.892)" fill="#e0e0e0"/>
            </g>
            <g id="Group_15" data-name="Group 15">
              <rect id="Rectangle_15" data-name="Rectangle 15" width="1.057" height="177.905" transform="translate(225.665 76.887)" fill="#e0e0e0"/>
            </g>
            <g id="Group_16" data-name="Group 16">
              <rect id="Rectangle_16" data-name="Rectangle 16" width="1.057" height="177.905" transform="translate(244.726 65.882)" fill="#e0e0e0"/>
            </g>
            <g id="Group_17" data-name="Group 17">
              <path id="Path_1" data-name="Path 1" d="M54.643,354.277a.544.544,0,0,1-.265-.07.531.531,0,0,1-.263-.458V175.932a.528.528,0,0,1,.263-.458L264.051,54.419a.528.528,0,0,1,.793.458V232.693a.528.528,0,0,1-.263.458L54.908,354.207A.544.544,0,0,1,54.643,354.277Zm.528-178.04v176.6L263.788,232.388V55.792Z" fill="#e0e0e0"/>
            </g>
          </g>
          <g id="Group_34" data-name="Group 34">
            <g id="Group_19" data-name="Group 19">
              <rect id="Rectangle_17" data-name="Rectangle 17" width="242.109" height="1.058" transform="translate(73.396 364.296) rotate(-30.021)" fill="#e0e0e0"/>
            </g>
            <g id="Group_20" data-name="Group 20">
              <rect id="Rectangle_18" data-name="Rectangle 18" width="242.109" height="1.058" transform="translate(92.454 375.296) rotate(-30.018)" fill="#e0e0e0"/>
            </g>
            <g id="Group_21" data-name="Group 21">
              <rect id="Rectangle_19" data-name="Rectangle 19" width="242.109" height="1.058" transform="translate(111.518 386.305) rotate(-30.021)" fill="#e0e0e0"/>
            </g>
            <g id="Group_22" data-name="Group 22">
              <rect id="Rectangle_20" data-name="Rectangle 20" width="242.109" height="1.058" transform="translate(130.579 397.31) rotate(-30.021)" fill="#e0e0e0"/>
            </g>
            <g id="Group_23" data-name="Group 23">
              <rect id="Rectangle_21" data-name="Rectangle 21" width="1.058" height="110.048" transform="matrix(0.5, -0.866, 0.866, 0.5, 73.44, 343.202)" fill="#e0e0e0"/>
            </g>
            <g id="Group_24" data-name="Group 24">
              <rect id="Rectangle_22" data-name="Rectangle 22" width="1.058" height="110.049" transform="translate(92.501 332.197) rotate(-60)" fill="#e0e0e0"/>
            </g>
            <g id="Group_25" data-name="Group 25">
              <rect id="Rectangle_23" data-name="Rectangle 23" width="1.058" height="110.049" transform="translate(111.562 321.192) rotate(-60)" fill="#e0e0e0"/>
            </g>
            <g id="Group_26" data-name="Group 26">
              <rect id="Rectangle_24" data-name="Rectangle 24" width="1.058" height="110.049" transform="matrix(0.5, -0.866, 0.866, 0.5, 130.624, 310.186)" fill="#e0e0e0"/>
            </g>
            <g id="Group_27" data-name="Group 27">
              <rect id="Rectangle_25" data-name="Rectangle 25" width="1.058" height="110.049" transform="translate(149.684 299.181) rotate(-60)" fill="#e0e0e0"/>
            </g>
            <g id="Group_28" data-name="Group 28">
              <rect id="Rectangle_26" data-name="Rectangle 26" width="1.058" height="110.049" transform="translate(168.746 288.176) rotate(-60)" fill="#e0e0e0"/>
            </g>
            <g id="Group_29" data-name="Group 29">
              <rect id="Rectangle_27" data-name="Rectangle 27" width="1.058" height="110.048" transform="translate(187.807 277.172) rotate(-60)" fill="#e0e0e0"/>
            </g>
            <g id="Group_30" data-name="Group 30">
              <rect id="Rectangle_28" data-name="Rectangle 28" width="1.058" height="110.049" transform="translate(206.868 266.167) rotate(-60)" fill="#e0e0e0"/>
            </g>
            <g id="Group_31" data-name="Group 31">
              <rect id="Rectangle_29" data-name="Rectangle 29" width="1.058" height="110.049" transform="translate(225.929 255.162) rotate(-60)" fill="#e0e0e0"/>
            </g>
            <g id="Group_32" data-name="Group 32">
              <rect id="Rectangle_30" data-name="Rectangle 30" width="1.058" height="110.049" transform="translate(244.99 244.157) rotate(-60)" fill="#e0e0e0"/>
            </g>
            <g id="Group_33" data-name="Group 33">
              <path id="Path_2" data-name="Path 2" d="M149.882,409.263a.53.53,0,0,1-.264-.07l-95.24-54.986a.53.53,0,0,1,0-.916L264.051,232.236a.528.528,0,0,1,.53,0l95.24,54.986a.53.53,0,0,1,0,.916L150.147,409.193A.533.533,0,0,1,149.882,409.263ZM55.7,353.749l94.182,54.375L358.5,287.68,264.316,233.3Z" fill="#e0e0e0"/>
            </g>
          </g>
        </g>
      </g>
      <g id="Charts">
        <g id="Charts-2" data-name="Charts">
          <g id="Group_38" data-name="Group 38">
            <g id="Group_37" data-name="Group 37">
              <g id="Group_36" data-name="Group 36">
                <g id="Group_35" data-name="Group 35">
                  <path id="Path_3" data-name="Path 3" d="M106.956,181.589c0,11.5-6.524,24.862-14.576,29.846s-14.568-.309-14.568-11.8,6.525-24.862,14.568-29.846v22.07L106.245,175.6A23.464,23.464,0,0,1,106.956,181.589Z" fill="#3d4642"/>
                </g>
              </g>
            </g>
            <path id="Path_4" data-name="Path 4" d="M107.587,172.389c-1.9-7.177-7.387-9.817-13.863-5.81v22.067Z" fill="#80c19c"/>
          </g>
          <g id="Group_43" data-name="Group 43">
            <g id="Group_41" data-name="Group 41">
              <g id="Group_40" data-name="Group 40">
                <g id="Group_39" data-name="Group 39">
                  <path id="Path_5" data-name="Path 5" d="M140.315,163.579l8.571,11.555a27.63,27.63,0,0,1-8.571,9.269c-8.043,4.985-14.567-.3-14.567-11.8s6.524-24.862,14.567-29.846Z" fill="#3d4642"/>
                </g>
              </g>
            </g>
            <g id="Group_42" data-name="Group 42">
              <path id="Path_6" data-name="Path 6" d="M151.1,174.23a41.576,41.576,0,0,0,6.006-20.565c0-11.5-6.524-16.787-14.572-11.807v20.823Z" fill="#80c19c"/>
            </g>
          </g>
          <g id="Group_48" data-name="Group 48">
            <g id="Group_46" data-name="Group 46">
              <g id="Group_45" data-name="Group 45">
                <g id="Group_44" data-name="Group 44">
                  <path id="Path_7" data-name="Path 7" d="M234.078,87.98v20.825l-13.865,2.142C222.1,101.42,227.6,91.987,234.078,87.98Z" fill="#3d4642"/>
                </g>
              </g>
            </g>
            <g id="Group_47" data-name="Group 47">
              <path id="Path_8" data-name="Path 8" d="M222.674,113.335a35.333,35.333,0,0,0-.709,6.876c0,11.5,6.524,16.787,14.572,11.807s14.572-18.34,14.572-29.841S244.585,85.39,236.537,90.37v20.825Z" fill="#80c19c"/>
            </g>
          </g>
          <g id="Group_53" data-name="Group 53">
            <g id="Group_51" data-name="Group 51">
              <g id="Group_50" data-name="Group 50">
                <g id="Group_49" data-name="Group 49">
                  <path id="Path_9" data-name="Path 9" d="M187.915,114.255v20.824l-8.562,22.153c-3.642-1.535-6.015-6.21-6.015-13.141C173.338,132.6,179.862,119.229,187.915,114.255Z" fill="#3d4642"/>
                </g>
              </g>
            </g>
            <g id="Group_52" data-name="Group 52">
              <path id="Path_10" data-name="Path 10" d="M181.69,157.893c2.4,1.012,5.364.655,8.565-1.325,8.047-4.981,14.572-18.341,14.572-29.842s-6.525-16.787-14.572-11.807v20.826Z" fill="#80c19c"/>
            </g>
          </g>
          <g id="Group_54" data-name="Group 54">
            <path id="Path_11" data-name="Path 11" d="M83.578,239.106v-6.8a.557.557,0,0,1,.253-.437l17.208-10.061c.139-.08.253-.015.253.146v6.8a.56.56,0,0,1-.253.437L83.831,239.252C83.691,239.332,83.578,239.267,83.578,239.106Z" fill="#80c19c"/>
            <path id="Path_12" data-name="Path 12" d="M131.319,211.683v-6.8a.557.557,0,0,1,.253-.437l17.208-10.061c.139-.08.253-.015.253.146v6.8a.558.558,0,0,1-.253.437l-17.208,10.061C131.432,211.909,131.319,211.844,131.319,211.683Z" fill="#80c19c"/>
            <path id="Path_13" data-name="Path 13" d="M179.06,184.26v-6.8a.557.557,0,0,1,.253-.437l17.208-10.06c.14-.081.253-.016.253.145v6.8a.556.556,0,0,1-.253.437l-17.208,10.061C179.173,184.486,179.06,184.421,179.06,184.26Z" fill="#80c19c"/>
            <path id="Path_14" data-name="Path 14" d="M226.8,156.837v-6.8a.557.557,0,0,1,.253-.437l17.208-10.06c.14-.081.253-.016.253.145v6.8a.556.556,0,0,1-.253.437l-17.208,10.061C226.914,157.063,226.8,157,226.8,156.837Z" fill="#80c19c"/>
          </g>
        </g>
        <g id="Graph">
          <g id="Group_55" data-name="Group 55">
            <path id="Path_15" data-name="Path 15" d="M298.079,126.266,279.018,159.04l-19.061,56.214L240.9,204.82l-19.061,52.442-19.061-10.434L183.712,258.25l-19.061,26.4-19.061-1.38L126.528,322.4l-19.061-1.079L88.406,347.826v25.415L92.7,375.72,302.372,254.637V128.745Z" fill="#263238"/>
            <path id="Path_16" data-name="Path 16" d="M92.7,350.305,111.761,323.8l19.061,1.079,19.061-39.133,19.061,1.38,19.061-26.4,19.061-11.423,19.061,10.434L245.189,207.3l19.061,10.434,19.061-56.214,19.061-32.774V254.637L92.7,375.72Z" fill="#455a64"/>
            <path id="Path_17" data-name="Path 17" d="M88.406,347.826l4.294,2.479L111.761,323.8l-4.294-2.479Z" fill="#37474f"/>
            <path id="Path_18" data-name="Path 18" d="M145.589,283.266l4.294,2.479-19.061,39.133-4.294-2.479Z" fill="#37474f"/>
            <path id="Path_19" data-name="Path 19" d="M164.651,284.646l4.294,2.479,19.061-26.4-4.293-2.479Z" fill="#37474f"/>
            <path id="Path_20" data-name="Path 20" d="M240.9,204.82l4.294,2.479L226.128,259.74l-4.294-2.479Z" fill="#37474f"/>
            <path id="Path_21" data-name="Path 21" d="M279.018,159.04l4.294,2.479L264.25,217.733l-4.294-2.479Z" fill="#37474f"/>
          </g>
          <g id="Group_80" data-name="Group 80">
            <g id="Group_67" data-name="Group 67">
              <g id="Group_56" data-name="Group 56">
                <path id="Path_22" data-name="Path 22" d="M282.208,136.443a.449.449,0,0,1-.245-.073.443.443,0,0,1-.123-.612l16.287-24.577a.441.441,0,1,1,.735.487l-16.287,24.578A.439.439,0,0,1,282.208,136.443Z" fill="#455a64"/>
              </g>
              <g id="Group_57" data-name="Group 57">
                <path id="Path_23" data-name="Path 23" d="M262.39,192.258a.443.443,0,0,1-.418-.583l16.3-48.059a.441.441,0,0,1,.836.283l-16.3,48.059A.441.441,0,0,1,262.39,192.258Z" fill="#455a64"/>
              </g>
              <g id="Group_58" data-name="Group 58">
                <path id="Path_24" data-name="Path 24" d="M258.855,195.157a.448.448,0,0,1-.212-.054l-13.249-7.239a.441.441,0,0,1,.424-.774l13.249,7.238a.442.442,0,0,1-.212.829Z" fill="#455a64"/>
              </g>
              <g id="Group_59" data-name="Group 59">
                <path id="Path_25" data-name="Path 25" d="M225.867,235.119a.446.446,0,0,1-.151-.027.441.441,0,0,1-.264-.565l16.11-44.321a.441.441,0,0,1,.829.3l-16.11,44.322A.44.44,0,0,1,225.867,235.119Z" fill="#455a64"/>
              </g>
              <g id="Group_60" data-name="Group 60">
                <path id="Path_26" data-name="Path 26" d="M222.237,238a.435.435,0,0,1-.212-.055l-14.752-8.076a.441.441,0,1,1,.424-.773l14.752,8.075a.442.442,0,0,1-.212.829Z" fill="#455a64"/>
              </g>
              <g id="Group_61" data-name="Group 61">
                <path id="Path_27" data-name="Path 27" d="M189.084,238.481a.441.441,0,0,1-.226-.819l13.418-8.041a.441.441,0,0,1,.453.757l-13.418,8.041A.434.434,0,0,1,189.084,238.481Z" fill="#455a64"/>
              </g>
              <g id="Group_62" data-name="Group 62">
                <path id="Path_28" data-name="Path 28" d="M169.689,263.128a.44.44,0,0,1-.357-.7l14.311-19.819a.441.441,0,0,1,.715.517l-14.312,19.818A.437.437,0,0,1,169.689,263.128Z" fill="#455a64"/>
              </g>
              <g id="Group_63" data-name="Group 63">
                <path id="Path_29" data-name="Path 29" d="M164.6,266.378l-.032,0-13.878-1.005a.44.44,0,0,1-.407-.472.425.425,0,0,1,.471-.407l13.878,1.005a.441.441,0,0,1-.032.881Z" fill="#455a64"/>
              </g>
              <g id="Group_64" data-name="Group 64">
                <path id="Path_30" data-name="Path 30" d="M131.052,300.279a.442.442,0,0,1-.4-.635l15.153-31.11a.441.441,0,0,1,.793.386l-15.153,31.111A.443.443,0,0,1,131.052,300.279Z" fill="#455a64"/>
              </g>
              <g id="Group_65" data-name="Group 65">
                <path id="Path_31" data-name="Path 31" d="M126.475,304.171h-.025l-13.9-.786a.44.44,0,0,1-.415-.466.433.433,0,0,1,.466-.415l13.9.787a.441.441,0,0,1-.025.881Z" fill="#455a64"/>
              </g>
              <g id="Group_66" data-name="Group 66">
                <path id="Path_32" data-name="Path 32" d="M90.962,329.747a.452.452,0,0,1-.258-.083.443.443,0,0,1-.1-.617l16.65-23.153a.442.442,0,1,1,.717.516l-16.65,23.153A.445.445,0,0,1,90.962,329.747Z" fill="#455a64"/>
              </g>
            </g>
            <g id="Group_79" data-name="Group 79">
              <g id="Group_68" data-name="Group 68">
                <path id="Path_33" data-name="Path 33" d="M108.9,307.352a1.867,1.867,0,0,1-.946-.25,2.934,2.934,0,0,1-1.2-2.67,7.163,7.163,0,0,1,3.049-5.787,2.24,2.24,0,0,1,2.293-.148,2.933,2.933,0,0,1,1.2,2.669,7.163,7.163,0,0,1-3.049,5.787A2.72,2.72,0,0,1,108.9,307.352Zm2.247-8.224a1.873,1.873,0,0,0-.9.281,6.3,6.3,0,0,0-2.608,5.023,2.118,2.118,0,0,0,.757,1.906,1.424,1.424,0,0,0,1.409-.149,6.3,6.3,0,0,0,2.609-5.023,2.12,2.12,0,0,0-.757-1.906A1.008,1.008,0,0,0,111.145,299.128Z" fill="#455a64"/>
              </g>
              <g id="Group_69" data-name="Group 69">
                <path id="Path_34" data-name="Path 34" d="M147.021,269.42a1.867,1.867,0,0,1-.946-.25,2.935,2.935,0,0,1-1.2-2.669,7.165,7.165,0,0,1,3.05-5.788,2.238,2.238,0,0,1,2.292-.149,2.935,2.935,0,0,1,1.2,2.67,7.16,7.16,0,0,1-3.049,5.787A2.706,2.706,0,0,1,147.021,269.42Zm2.247-8.224a1.873,1.873,0,0,0-.9.281,6.3,6.3,0,0,0-2.609,5.024,2.121,2.121,0,0,0,.757,1.906,1.429,1.429,0,0,0,1.41-.15,6.3,6.3,0,0,0,2.609-5.023,2.119,2.119,0,0,0-.757-1.906A1,1,0,0,0,149.268,261.2Z" fill="#455a64"/>
              </g>
              <g id="Group_70" data-name="Group 70">
                <path id="Path_35" data-name="Path 35" d="M127.959,308.233a1.87,1.87,0,0,1-.946-.25,2.936,2.936,0,0,1-1.2-2.67,7.161,7.161,0,0,1,3.05-5.787,2.236,2.236,0,0,1,2.292-.149,2.937,2.937,0,0,1,1.2,2.669,7.161,7.161,0,0,1-3.05,5.787A2.708,2.708,0,0,1,127.959,308.233Zm2.248-8.225a1.875,1.875,0,0,0-.9.282,6.3,6.3,0,0,0-2.608,5.023,2.119,2.119,0,0,0,.756,1.906,1.429,1.429,0,0,0,1.411-.149,6.3,6.3,0,0,0,2.608-5.024,2.118,2.118,0,0,0-.757-1.906A1,1,0,0,0,130.207,300.008Z" fill="#455a64"/>
              </g>
              <g id="Group_71" data-name="Group 71">
                <path id="Path_36" data-name="Path 36" d="M166.082,270.454a1.875,1.875,0,0,1-.948-.251,2.936,2.936,0,0,1-1.2-2.669,7.158,7.158,0,0,1,3.05-5.787,2.238,2.238,0,0,1,2.293-.15,2.94,2.94,0,0,1,1.2,2.67,7.161,7.161,0,0,1-3.05,5.787A2.707,2.707,0,0,1,166.082,270.454Zm2.246-8.225a1.88,1.88,0,0,0-.9.281,6.3,6.3,0,0,0-2.608,5.024,2.116,2.116,0,0,0,.757,1.9,1.429,1.429,0,0,0,1.41-.148,6.3,6.3,0,0,0,2.608-5.024,2.117,2.117,0,0,0-.757-1.906A1,1,0,0,0,168.328,262.229Z" fill="#455a64"/>
              </g>
              <g id="Group_72" data-name="Group 72">
                <path id="Path_37" data-name="Path 37" d="M185.143,243.864a1.867,1.867,0,0,1-.946-.25,2.936,2.936,0,0,1-1.2-2.67,7.161,7.161,0,0,1,3.049-5.787,2.237,2.237,0,0,1,2.292-.15,2.937,2.937,0,0,1,1.2,2.67,7.161,7.161,0,0,1-3.05,5.787A2.708,2.708,0,0,1,185.143,243.864Zm2.247-8.225a1.877,1.877,0,0,0-.9.281,6.3,6.3,0,0,0-2.609,5.024,2.119,2.119,0,0,0,.757,1.906,1.432,1.432,0,0,0,1.41-.149,6.3,6.3,0,0,0,2.609-5.024,2.12,2.12,0,0,0-.757-1.906A1.008,1.008,0,0,0,187.39,235.639Z" fill="#455a64"/>
              </g>
              <g id="Group_73" data-name="Group 73">
                <path id="Path_38" data-name="Path 38" d="M204.2,232.858a1.876,1.876,0,0,1-.947-.25,2.937,2.937,0,0,1-1.2-2.669,7.165,7.165,0,0,1,3.05-5.788A2.242,2.242,0,0,1,207.4,224a2.938,2.938,0,0,1,1.2,2.67,7.161,7.161,0,0,1-3.05,5.787A2.706,2.706,0,0,1,204.2,232.858Zm2.248-8.224a1.874,1.874,0,0,0-.9.281,6.3,6.3,0,0,0-2.608,5.024,2.118,2.118,0,0,0,.757,1.906,1.43,1.43,0,0,0,1.41-.149,6.3,6.3,0,0,0,2.608-5.024,2.118,2.118,0,0,0-.757-1.906A1,1,0,0,0,206.452,224.634Z" fill="#455a64"/>
              </g>
              <g id="Group_74" data-name="Group 74">
                <path id="Path_39" data-name="Path 39" d="M223.265,243.293a1.867,1.867,0,0,1-.946-.25,2.935,2.935,0,0,1-1.2-2.67,7.16,7.16,0,0,1,3.049-5.787,2.24,2.24,0,0,1,2.293-.149,2.938,2.938,0,0,1,1.2,2.669,7.162,7.162,0,0,1-3.05,5.788A2.719,2.719,0,0,1,223.265,243.293Zm2.247-8.225a1.874,1.874,0,0,0-.9.282A6.4,6.4,0,0,0,222,240.373a2.118,2.118,0,0,0,.757,1.906,1.432,1.432,0,0,0,1.41-.149,6.3,6.3,0,0,0,2.609-5.024,2.118,2.118,0,0,0-.757-1.9A1,1,0,0,0,225.512,235.068Z" fill="#455a64"/>
              </g>
              <g id="Group_75" data-name="Group 75">
                <path id="Path_40" data-name="Path 40" d="M242.327,190.851a1.871,1.871,0,0,1-.947-.25,2.936,2.936,0,0,1-1.2-2.67,7.161,7.161,0,0,1,3.05-5.787,2.238,2.238,0,0,1,2.293-.149,2.938,2.938,0,0,1,1.2,2.67,7.161,7.161,0,0,1-3.05,5.787A2.719,2.719,0,0,1,242.327,190.851Zm2.247-8.224a1.877,1.877,0,0,0-.9.281,6.3,6.3,0,0,0-2.608,5.023,2.115,2.115,0,0,0,.757,1.906,1.433,1.433,0,0,0,1.41-.149,6.3,6.3,0,0,0,2.608-5.023,2.119,2.119,0,0,0-.756-1.906A1,1,0,0,0,244.574,182.627Z" fill="#455a64"/>
              </g>
              <g id="Group_76" data-name="Group 76">
                <path id="Path_41" data-name="Path 41" d="M259.882,200.447a1.873,1.873,0,0,1-.947-.25,2.938,2.938,0,0,1-1.2-2.67,7.161,7.161,0,0,1,3.05-5.787,2.234,2.234,0,0,1,2.291-.149,2.934,2.934,0,0,1,1.2,2.67,7.161,7.161,0,0,1-3.05,5.787A2.706,2.706,0,0,1,259.882,200.447Zm2.247-8.225a1.878,1.878,0,0,0-.9.282,6.3,6.3,0,0,0-2.608,5.023,2.119,2.119,0,0,0,.756,1.906,1.429,1.429,0,0,0,1.411-.149,6.3,6.3,0,0,0,2.608-5.023,2.115,2.115,0,0,0-.757-1.906A1,1,0,0,0,262.129,192.222Z" fill="#455a64"/>
              </g>
              <g id="Group_77" data-name="Group 77">
                <path id="Path_42" data-name="Path 42" d="M278.944,144.233a1.88,1.88,0,0,1-.948-.25,2.939,2.939,0,0,1-1.2-2.669,7.162,7.162,0,0,1,3.05-5.788,2.241,2.241,0,0,1,2.292-.149,2.935,2.935,0,0,1,1.2,2.67,7.163,7.163,0,0,1-3.049,5.787A2.712,2.712,0,0,1,278.944,144.233Zm2.247-8.225a1.878,1.878,0,0,0-.9.282,6.3,6.3,0,0,0-2.609,5.024,2.118,2.118,0,0,0,.757,1.9,1.425,1.425,0,0,0,1.41-.149,6.4,6.4,0,0,0,2.609-5.023,2.118,2.118,0,0,0-.757-1.906A1,1,0,0,0,281.191,136.008Z" fill="#455a64"/>
              </g>
              <g id="Group_78" data-name="Group 78">
                <path id="Path_43" data-name="Path 43" d="M299.51,112.3a1.873,1.873,0,0,1-.947-.25,2.938,2.938,0,0,1-1.2-2.67,7.16,7.16,0,0,1,3.05-5.787,2.24,2.24,0,0,1,2.293-.15,2.941,2.941,0,0,1,1.2,2.67,7.163,7.163,0,0,1-3.05,5.788A2.706,2.706,0,0,1,299.51,112.3Zm2.247-8.225a1.874,1.874,0,0,0-.9.282,6.3,6.3,0,0,0-2.609,5.023,2.119,2.119,0,0,0,.757,1.906,1.424,1.424,0,0,0,1.411-.149,6.3,6.3,0,0,0,2.608-5.024,2.117,2.117,0,0,0-.757-1.9A1,1,0,0,0,301.757,104.073Z" fill="#455a64"/>
              </g>
            </g>
          </g>
        </g>
        <g id="Graph-2" data-name="Graph">
          <g id="Group_105" data-name="Group 105">
            <g id="Group_92" data-name="Group 92">
              <g id="Group_81" data-name="Group 81">
                <path id="Path_44" data-name="Path 44" d="M319.14,134.749a.443.443,0,0,1-.391-.646l15.061-28.776a.441.441,0,0,1,.781.409l-15.06,28.776A.443.443,0,0,1,319.14,134.749Z" fill="#80c19c"/>
              </g>
              <g id="Group_82" data-name="Group 82">
                <path id="Path_45" data-name="Path 45" d="M299.342,196.3a.451.451,0,0,1-.13-.02.443.443,0,0,1-.292-.552L315.453,142.1a.442.442,0,0,1,.844.26l-16.533,53.633A.441.441,0,0,1,299.342,196.3Z" fill="#80c19c"/>
              </g>
              <g id="Group_83" data-name="Group 83">
                <path id="Path_46" data-name="Path 46" d="M296.078,198.893a.438.438,0,0,1-.265-.089l-15.061-11.386a.441.441,0,1,1,.532-.7l15.06,11.386a.441.441,0,0,1-.266.793Z" fill="#80c19c"/>
              </g>
              <g id="Group_84" data-name="Group 84">
                <path id="Path_47" data-name="Path 47" d="M261.438,234.212a.441.441,0,0,1-.414-.592l16.1-44.157a.441.441,0,0,1,.829.3l-16.1,44.156A.439.439,0,0,1,261.438,234.212Z" fill="#80c19c"/>
              </g>
              <g id="Group_85" data-name="Group 85">
                <path id="Path_48" data-name="Path 48" d="M257.56,237.666a.4.4,0,0,1-.108-.015l-14.268-3.634a.441.441,0,1,1,.217-.854l14.267,3.634a.441.441,0,0,1-.108.869Z" fill="#80c19c"/>
              </g>
              <g id="Group_86" data-name="Group 86">
                <path id="Path_49" data-name="Path 49" d="M223.386,283.819a.449.449,0,0,1-.144-.024.442.442,0,0,1-.273-.562l16.1-46.328a.441.441,0,0,1,.834.289l-16.1,46.328A.44.44,0,0,1,223.386,283.819Z" fill="#80c19c"/>
              </g>
              <g id="Group_87" data-name="Group 87">
                <path id="Path_50" data-name="Path 50" d="M219.785,286.458a.442.442,0,0,1-.294-.112l-15.2-13.556a.441.441,0,1,1,.587-.659l15.2,13.557a.441.441,0,0,1-.293.77Z" fill="#80c19c"/>
              </g>
              <g id="Group_88" data-name="Group 88">
                <path id="Path_51" data-name="Path 51" d="M200.3,270.661a.444.444,0,0,1-.108-.014l-14.156-3.605a.441.441,0,1,1,.216-.856l14.157,3.606a.441.441,0,0,1-.109.869Z" fill="#80c19c"/>
              </g>
              <g id="Group_89" data-name="Group 89">
                <path id="Path_52" data-name="Path 52" d="M166.414,307.129a.438.438,0,0,1-.173-.035.443.443,0,0,1-.234-.579l15.561-36.607a.441.441,0,1,1,.812.345l-15.56,36.608A.442.442,0,0,1,166.414,307.129Z" fill="#80c19c"/>
              </g>
              <g id="Group_90" data-name="Group 90">
                <path id="Path_53" data-name="Path 53" d="M148.272,313.5a.442.442,0,0,1-.059-.879l13.654-1.852a.45.45,0,0,1,.5.378.443.443,0,0,1-.378.5l-13.653,1.852C148.312,313.495,148.292,313.5,148.272,313.5Z" fill="#80c19c"/>
              </g>
              <g id="Group_91" data-name="Group 91">
                <path id="Path_54" data-name="Path 54" d="M126.528,350.28a.434.434,0,0,1-.2-.051.44.44,0,0,1-.187-.6l17.061-32.6a.441.441,0,1,1,.781.408l-17.061,32.6A.439.439,0,0,1,126.528,350.28Z" fill="#80c19c"/>
              </g>
            </g>
            <g id="Group_104" data-name="Group 104">
              <g id="Group_93" data-name="Group 93">
                <path id="Path_55" data-name="Path 55" d="M144.464,317.972a1.867,1.867,0,0,1-.946-.25,2.935,2.935,0,0,1-1.2-2.67,7.164,7.164,0,0,1,3.05-5.787,2.238,2.238,0,0,1,2.292-.149,2.937,2.937,0,0,1,1.2,2.67,7.163,7.163,0,0,1-3.05,5.787A2.716,2.716,0,0,1,144.464,317.972Zm2.247-8.224a1.874,1.874,0,0,0-.9.281,6.3,6.3,0,0,0-2.608,5.023,2.119,2.119,0,0,0,.756,1.906,1.429,1.429,0,0,0,1.411-.149,6.3,6.3,0,0,0,2.608-5.023,2.12,2.12,0,0,0-.757-1.907A1.007,1.007,0,0,0,146.711,309.748Z" fill="#80c19c"/>
              </g>
              <g id="Group_94" data-name="Group 94">
                <path id="Path_56" data-name="Path 56" d="M182.586,270.67a1.871,1.871,0,0,1-.947-.25,2.94,2.94,0,0,1-1.2-2.671,7.164,7.164,0,0,1,3.05-5.787,2.242,2.242,0,0,1,2.293-.148,2.935,2.935,0,0,1,1.2,2.669,7.158,7.158,0,0,1-3.05,5.787A2.711,2.711,0,0,1,182.586,270.67Zm2.247-8.225a1.884,1.884,0,0,0-.9.281,6.3,6.3,0,0,0-2.608,5.023,2.119,2.119,0,0,0,.757,1.907,1.428,1.428,0,0,0,1.41-.15,6.3,6.3,0,0,0,2.608-5.023,2.114,2.114,0,0,0-.757-1.9A1,1,0,0,0,184.833,262.445Z" fill="#80c19c"/>
              </g>
              <g id="Group_95" data-name="Group 95">
                <path id="Path_57" data-name="Path 57" d="M163.526,315.189a1.873,1.873,0,0,1-.947-.25,2.938,2.938,0,0,1-1.2-2.67,7.165,7.165,0,0,1,3.049-5.787,2.234,2.234,0,0,1,2.292-.149,2.935,2.935,0,0,1,1.2,2.67,7.161,7.161,0,0,1-3.049,5.787A2.719,2.719,0,0,1,163.526,315.189Zm2.246-8.225a1.874,1.874,0,0,0-.9.282,6.4,6.4,0,0,0-2.608,5.023,2.119,2.119,0,0,0,.757,1.906,1.423,1.423,0,0,0,1.409-.149A6.394,6.394,0,0,0,167.038,309a2.121,2.121,0,0,0-.757-1.907A1.008,1.008,0,0,0,165.772,306.964Z" fill="#80c19c"/>
              </g>
              <g id="Group_96" data-name="Group 96">
                <path id="Path_58" data-name="Path 58" d="M201.648,275.178a1.867,1.867,0,0,1-.946-.25,2.936,2.936,0,0,1-1.2-2.67,7.16,7.16,0,0,1,3.05-5.787,2.238,2.238,0,0,1,2.292-.149,2.935,2.935,0,0,1,1.2,2.67,7.165,7.165,0,0,1-3.049,5.787A2.706,2.706,0,0,1,201.648,275.178Zm2.247-8.224a1.873,1.873,0,0,0-.9.281,6.391,6.391,0,0,0-2.609,5.023,2.122,2.122,0,0,0,.757,1.907,1.43,1.43,0,0,0,1.41-.15,6.3,6.3,0,0,0,2.609-5.023,2.119,2.119,0,0,0-.757-1.906A1,1,0,0,0,203.9,266.954Z" fill="#80c19c"/>
              </g>
              <g id="Group_97" data-name="Group 97">
                <path id="Path_59" data-name="Path 59" d="M220.709,291.98a1.873,1.873,0,0,1-.947-.25,2.938,2.938,0,0,1-1.2-2.67,7.16,7.16,0,0,1,3.049-5.787,2.238,2.238,0,0,1,2.293-.149,2.938,2.938,0,0,1,1.2,2.669,7.165,7.165,0,0,1-3.05,5.788A2.716,2.716,0,0,1,220.709,291.98Zm2.247-8.225a1.871,1.871,0,0,0-.9.282,6.394,6.394,0,0,0-2.607,5.023,2.115,2.115,0,0,0,.756,1.9,1.43,1.43,0,0,0,1.41-.148,6.3,6.3,0,0,0,2.608-5.024,2.119,2.119,0,0,0-.757-1.906A1,1,0,0,0,222.956,283.755Z" fill="#80c19c"/>
              </g>
              <g id="Group_98" data-name="Group 98">
                <path id="Path_60" data-name="Path 60" d="M239.77,237.532a1.867,1.867,0,0,1-.946-.25,2.934,2.934,0,0,1-1.2-2.67,7.161,7.161,0,0,1,3.05-5.787,2.242,2.242,0,0,1,2.293-.149,2.938,2.938,0,0,1,1.2,2.67,7.161,7.161,0,0,1-3.05,5.787A2.709,2.709,0,0,1,239.77,237.532Zm2.247-8.224a1.873,1.873,0,0,0-.9.281,6.4,6.4,0,0,0-2.609,5.023,2.121,2.121,0,0,0,.757,1.907,1.43,1.43,0,0,0,1.41-.15,6.4,6.4,0,0,0,2.609-5.023,2.12,2.12,0,0,0-.757-1.906A1,1,0,0,0,242.017,229.308Z" fill="#80c19c"/>
              </g>
              <g id="Group_99" data-name="Group 99">
                <path id="Path_61" data-name="Path 61" d="M258.832,242.387a1.886,1.886,0,0,1-.948-.249,2.938,2.938,0,0,1-1.2-2.67,7.158,7.158,0,0,1,3.05-5.787,2.236,2.236,0,0,1,2.292-.15,2.936,2.936,0,0,1,1.2,2.67,7.161,7.161,0,0,1-3.05,5.787A2.706,2.706,0,0,1,258.832,242.387Zm2.246-8.224a1.877,1.877,0,0,0-.9.281,6.3,6.3,0,0,0-2.608,5.024,2.118,2.118,0,0,0,.757,1.906,1.424,1.424,0,0,0,1.41-.149,6.3,6.3,0,0,0,2.608-5.024,2.118,2.118,0,0,0-.757-1.906A1.008,1.008,0,0,0,261.078,234.163Z" fill="#80c19c"/>
              </g>
              <g id="Group_100" data-name="Group 100">
                <path id="Path_62" data-name="Path 62" d="M277.892,190.107a1.873,1.873,0,0,1-.947-.25,2.938,2.938,0,0,1-1.2-2.669,7.162,7.162,0,0,1,3.05-5.788,2.236,2.236,0,0,1,2.292-.149,2.936,2.936,0,0,1,1.2,2.67,7.161,7.161,0,0,1-3.05,5.787A2.706,2.706,0,0,1,277.892,190.107Zm2.247-8.225a1.878,1.878,0,0,0-.9.282,6.4,6.4,0,0,0-2.609,5.024,2.118,2.118,0,0,0,.757,1.9,1.425,1.425,0,0,0,1.41-.149,6.4,6.4,0,0,0,2.609-5.023,2.118,2.118,0,0,0-.757-1.906A1,1,0,0,0,280.139,181.882Z" fill="#80c19c"/>
              </g>
              <g id="Group_101" data-name="Group 101">
                <path id="Path_63" data-name="Path 63" d="M296.953,204.517a1.879,1.879,0,0,1-.946-.249,2.939,2.939,0,0,1-1.2-2.671,7.161,7.161,0,0,1,3.05-5.787,2.238,2.238,0,0,1,2.293-.149,2.938,2.938,0,0,1,1.2,2.67,7.163,7.163,0,0,1-3.05,5.787A2.706,2.706,0,0,1,296.953,204.517Zm2.248-8.225a1.874,1.874,0,0,0-.9.282,6.3,6.3,0,0,0-2.608,5.023,2.115,2.115,0,0,0,.757,1.906,1.427,1.427,0,0,0,1.41-.148,6.3,6.3,0,0,0,2.608-5.024,2.118,2.118,0,0,0-.757-1.906A1,1,0,0,0,299.2,196.292Z" fill="#80c19c"/>
              </g>
              <g id="Group_102" data-name="Group 102">
                <path id="Path_64" data-name="Path 64" d="M316.015,142.682a1.883,1.883,0,0,1-.947-.249,2.938,2.938,0,0,1-1.2-2.67,7.158,7.158,0,0,1,3.049-5.787,2.234,2.234,0,0,1,2.292-.15,2.937,2.937,0,0,1,1.2,2.67,7.161,7.161,0,0,1-3.05,5.787A2.706,2.706,0,0,1,316.015,142.682Zm2.247-8.224a1.877,1.877,0,0,0-.9.281,6.3,6.3,0,0,0-2.609,5.024,2.117,2.117,0,0,0,.757,1.9,1.427,1.427,0,0,0,1.41-.148,6.3,6.3,0,0,0,2.609-5.024,2.12,2.12,0,0,0-.757-1.906A1.008,1.008,0,0,0,318.262,134.458Z" fill="#80c19c"/>
              </g>
              <g id="Group_103" data-name="Group 103">
                <path id="Path_65" data-name="Path 65" d="M335.076,106.262a1.886,1.886,0,0,1-.948-.249,2.94,2.94,0,0,1-1.2-2.67,7.158,7.158,0,0,1,3.05-5.787,2.236,2.236,0,0,1,2.292-.15,2.936,2.936,0,0,1,1.2,2.67,7.161,7.161,0,0,1-3.05,5.787A2.706,2.706,0,0,1,335.076,106.262Zm2.247-8.224a1.881,1.881,0,0,0-.9.281,6.3,6.3,0,0,0-2.608,5.024,2.118,2.118,0,0,0,.757,1.906,1.425,1.425,0,0,0,1.41-.149,6.3,6.3,0,0,0,2.608-5.024,2.12,2.12,0,0,0-.756-1.906A1.011,1.011,0,0,0,337.323,98.038Z" fill="#80c19c"/>
              </g>
            </g>
          </g>
          <g id="Group_106" data-name="Group 106">
            <path id="Path_66" data-name="Path 66" d="M336.2,121.707l-19.061,36.42L298.271,219.34l-14.959-11.309-4.294-2.479-19.061,52.28L240.9,252.977l-18.7,53.835-15.125-13.486-4.294-2.479-19.061-4.855L164.65,330.832l-19.061,2.584-19.061,36.42v25.415l4.294,2.479L340.495,276.676V124.186Z" fill="#80c19c" opacity="0.4"/>
            <path id="Path_67" data-name="Path 67" d="M130.822,372.315l19.061-36.42,19.061-2.584,19.061-44.841,19.061,4.855,19.061,16.995,19.061-54.865,19.061,4.855,19.061-52.28,19.061,14.41,19.061-61.835,19.061-36.42v152.49L130.822,397.73Z" fill="#80c19c" opacity="0.3"/>
            <path id="Path_68" data-name="Path 68" d="M126.528,369.836l4.294,2.479V397.73l-4.294-2.479Z" fill="#80c19c"/>
            <path id="Path_69" data-name="Path 69" d="M126.528,369.836l4.294,2.479V397.73l-4.294-2.479Z" opacity="0.05"/>
            <path id="Path_70" data-name="Path 70" d="M164.65,330.832l4.294,2.479,19.061-44.841-4.294-2.479Z" fill="#80c19c" opacity="0.3"/>
            <path id="Path_71" data-name="Path 71" d="M164.65,330.832l4.294,2.479,19.061-44.841-4.294-2.479Z" opacity="0.15"/>
            <path id="Path_72" data-name="Path 72" d="M145.589,333.416l4.294,2.479-19.061,36.42-4.294-2.479Z" fill="#80c19c" opacity="0.3"/>
            <path id="Path_73" data-name="Path 73" d="M145.589,333.416l4.294,2.479-19.061,36.42-4.294-2.479Z" opacity="0.15"/>
            <path id="Path_74" data-name="Path 74" d="M245.189,255.456l-4.294-2.479-18.7,53.835,3.936,3.509Z" fill="#80c19c" opacity="0.3"/>
            <path id="Path_75" data-name="Path 75" d="M245.189,255.456l-4.294-2.479-18.7,53.835,3.936,3.509Z" opacity="0.15"/>
            <path id="Path_76" data-name="Path 76" d="M259.956,257.832l4.294,2.479,19.061-52.28-4.294-2.479Z" fill="#80c19c" opacity="0.3"/>
            <path id="Path_77" data-name="Path 77" d="M259.956,257.832l4.294,2.479,19.061-52.28-4.294-2.479Z" opacity="0.15"/>
            <path id="Path_78" data-name="Path 78" d="M321.433,160.606l-4.294-2.479L298.271,219.34l4.1,3.1Z" fill="#80c19c" opacity="0.3"/>
            <path id="Path_79" data-name="Path 79" d="M321.433,160.606l-4.294-2.479L298.271,219.34l4.1,3.1Z" opacity="0.15"/>
          </g>
        </g>
      </g>
      <g id="Arrow">
        <g id="Arrow-2" data-name="Arrow">
          <path id="Path_80" data-name="Path 80" d="M357.764,90.554l-4.293-2.479-10.734,24.789,4.293,2.479,2.148-1.24V267.214l4.293,2.479,8.586-4.958V106.667l6.44-3.718Z" fill="#80c19c"/>
          <path id="Path_81" data-name="Path 81" d="M368.5,102.948,357.764,90.554,347.03,115.343l6.441-3.719V269.693l8.586-4.958V106.667Z" fill="#80c19c"/>
          <path id="Path_82" data-name="Path 82" d="M342.737,112.864l4.293,2.479,10.734-24.789-4.293-2.479Z" opacity="0.15"/>
          <path id="Path_83" data-name="Path 83" d="M349.178,267.214l4.293,2.479V111.624l-4.293,2.479Z" opacity="0.15"/>
        </g>
      </g>
      <g id="Speech_bubbles" data-name="Speech bubbles">
        <g id="Speech_Bubble" data-name="Speech Bubble">
          <g id="Speech_Bubble-2" data-name="Speech Bubble">
            <g id="Group_133" data-name="Group 133">
              <path id="Path_153" data-name="Path 153" d="M337.563,66.253l-8.13,4.707,3.23,7.259a.734.734,0,0,0,.308.346c.386.218,2.667,1.539,2.793,1.612a.747.747,0,0,0,1.091-.434l3.506-11.874Z" fill="#80c19c"/>
              <path id="Path_154" data-name="Path 154" d="M337.563,66.253l-8.13,4.707,3.23,7.259a.734.734,0,0,0,.308.346c.386.218,2.667,1.539,2.793,1.612a.747.747,0,0,0,1.091-.434l3.506-11.874Z" opacity="0.2"/>
              <path id="Path_155" data-name="Path 155" d="M332.231,72.576l3.23,7.258a.744.744,0,0,0,1.394-.091l3.506-11.874Z" fill="#80c19c"/>
            </g>
            <g id="Group_134" data-name="Group 134">
              <path id="Path_156" data-name="Path 156" d="M349.03,37.056l-33.586,19.39a1.7,1.7,0,0,0-.77,1.335v20.78a1.681,1.681,0,0,0,.775,1.327l2.762,1.549a1.727,1.727,0,0,0,1.546-.008L353.342,62.04a1.7,1.7,0,0,0,.771-1.336V39.924a1.681,1.681,0,0,0-.775-1.327l-2.762-1.549A1.727,1.727,0,0,0,349.03,37.056Z" fill="#80c19c"/>
              <path id="Path_157" data-name="Path 157" d="M318.986,80.984V60.2a1.7,1.7,0,0,1,.771-1.335l33.585-19.39c.426-.245.771-.046.771.445V60.7a1.7,1.7,0,0,1-.771,1.336L319.757,81.429C319.331,81.675,318.986,81.476,318.986,80.984Z" fill="#80c19c"/>
              <path id="Path_158" data-name="Path 158" d="M319.757,81.429a1.768,1.768,0,0,1-1.548.009l-2.76-1.551a1.677,1.677,0,0,1-.776-1.325V57.78a1.582,1.582,0,0,1,.246-.786l4.294,2.451a1.54,1.54,0,0,0-.227.759V80.982C318.986,81.433,319.3,81.692,319.757,81.429Z" opacity="0.2"/>
              <path id="Path_159" data-name="Path 159" d="M354.1,39.785c-.061-.389-.378-.528-.762-.307L319.758,58.869a1.578,1.578,0,0,0-.545.576l-4.3-2.451a1.54,1.54,0,0,1,.531-.549l33.586-19.39a1.722,1.722,0,0,1,1.545-.007l2.76,1.547A1.7,1.7,0,0,1,354.1,39.785Z" fill="#fff" opacity="0.4"/>
            </g>
          </g>
          <g id="Group_135" data-name="Group 135">
            <path id="Path_160" data-name="Path 160" d="M325.225,68.115a.492.492,0,0,1-.431-.271.568.568,0,0,1,.182-.74l22.649-14.238a.478.478,0,0,1,.68.2.57.57,0,0,1-.182.741l-22.65,14.237A.466.466,0,0,1,325.225,68.115Z" fill="#fff"/>
          </g>
        </g>
        <g id="Speech_Bubble-3" data-name="Speech Bubble">
          <g id="Speech_Bubble-4" data-name="Speech Bubble">
            <g id="Group_136" data-name="Group 136">
              <path id="Path_161" data-name="Path 161" d="M89.017,279.148l-8.13,4.707,3.23,7.259a.731.731,0,0,0,.309.346c.385.218,2.666,1.539,2.792,1.612a.746.746,0,0,0,1.091-.434l3.506-11.874Z" fill="#80c19c"/>
              <path id="Path_162" data-name="Path 162" d="M89.017,279.148l-8.13,4.707,3.23,7.259a.731.731,0,0,0,.309.346c.385.218,2.666,1.539,2.792,1.612a.746.746,0,0,0,1.091-.434l3.506-11.874Z" opacity="0.2"/>
              <path id="Path_163" data-name="Path 163" d="M83.686,285.471l3.229,7.259a.745.745,0,0,0,1.394-.092l3.506-11.874Z" fill="#80c19c"/>
            </g>
            <g id="Group_137" data-name="Group 137">
              <path id="Path_164" data-name="Path 164" d="M100.484,249.951,66.9,269.341a1.7,1.7,0,0,0-.771,1.335v20.78a1.68,1.68,0,0,0,.775,1.327l2.762,1.549a1.727,1.727,0,0,0,1.546-.008L104.8,274.935a1.7,1.7,0,0,0,.771-1.335V252.819a1.683,1.683,0,0,0-.775-1.327l-2.762-1.548A1.724,1.724,0,0,0,100.484,249.951Z" fill="#80c19c"/>
              <path id="Path_165" data-name="Path 165" d="M70.44,293.879V273.1a1.7,1.7,0,0,1,.771-1.335l33.585-19.39c.426-.245.771-.046.771.445V273.6a1.7,1.7,0,0,1-.771,1.335L71.211,294.324C70.785,294.57,70.44,294.371,70.44,293.879Z" fill="#80c19c"/>
              <path id="Path_166" data-name="Path 166" d="M71.211,294.324a1.768,1.768,0,0,1-1.548.009l-2.76-1.551a1.677,1.677,0,0,1-.776-1.325V270.676a1.583,1.583,0,0,1,.246-.787l4.294,2.452a1.533,1.533,0,0,0-.227.758v20.778C70.44,294.328,70.757,294.587,71.211,294.324Z" opacity="0.2"/>
              <path id="Path_167" data-name="Path 167" d="M105.557,252.68c-.061-.388-.378-.527-.762-.307L71.212,271.764a1.589,1.589,0,0,0-.545.577l-4.3-2.452a1.54,1.54,0,0,1,.531-.549l33.586-19.39a1.722,1.722,0,0,1,1.545-.007l2.76,1.547A1.7,1.7,0,0,1,105.557,252.68Z" fill="#fff" opacity="0.4"/>
            </g>
          </g>
          <g id="Group_138" data-name="Group 138">
            <path id="Path_168" data-name="Path 168" d="M76.679,281.01a.492.492,0,0,1-.431-.271.568.568,0,0,1,.182-.74l22.649-14.238a.478.478,0,0,1,.68.2.569.569,0,0,1-.182.741l-22.65,14.237A.461.461,0,0,1,76.679,281.01Z" fill="#fff"/>
          </g>
        </g>
      </g>
    </g>
    <g id="Light_bulb" data-name="Light bulb" transform="translate(-30 89)">
      <g id="Idea">
        <g id="Light">
          <g id="Group_149" data-name="Group 149">
            <g id="Group_148" data-name="Group 148">
              <g id="Group_139" data-name="Group 139">
                <path id="Path_169" data-name="Path 169" d="M434.307,97.794a2.946,2.946,0,1,1-2.915-2.977A2.945,2.945,0,0,1,434.307,97.794Z" fill="#37474f"/>
              </g>
              <g id="Group_140" data-name="Group 140">
                <path id="Path_170" data-name="Path 170" d="M427.828,97.919c-1.939-1.147-1.92-2.973.043-4.078a7.8,7.8,0,0,1,7.063.075c1.938,1.146,1.919,2.972-.043,4.078A7.81,7.81,0,0,1,427.828,97.919Z" fill="#455a64"/>
              </g>
              <g id="Group_141" data-name="Group 141">
                <path id="Path_171" data-name="Path 171" d="M427.73,96.854c-2-1.182-1.978-3.064.045-4.2a8.044,8.044,0,0,1,7.28.077c2,1.182,1.978,3.064-.044,4.2A8.049,8.049,0,0,1,427.73,96.854Z" fill="#37474f"/>
              </g>
              <g id="Group_142" data-name="Group 142">
                <path id="Path_172" data-name="Path 172" d="M427.63,95.757c-2.059-1.219-2.039-3.158.046-4.333a8.3,8.3,0,0,1,7.5.08c2.059,1.218,2.039,3.158-.046,4.332A8.3,8.3,0,0,1,427.63,95.757Z" fill="#455a64"/>
              </g>
              <g id="Group_143" data-name="Group 143">
                <path id="Path_173" data-name="Path 173" d="M427.527,94.626c-2.123-1.255-2.1-3.255.047-4.465a8.545,8.545,0,0,1,7.734.082c2.123,1.255,2.1,3.255-.047,4.465A8.548,8.548,0,0,1,427.527,94.626Z" fill="#37474f"/>
              </g>
              <g id="Group_144" data-name="Group 144">
                <path id="Path_174" data-name="Path 174" d="M427.461,93.439c-2.166-1.281-2.145-3.321.048-4.556a8.724,8.724,0,0,1,7.892.083c2.166,1.282,2.144,3.322-.048,4.557A8.721,8.721,0,0,1,427.461,93.439Z" fill="#455a64"/>
              </g>
              <g id="Group_145" data-name="Group 145">
                <path id="Path_175" data-name="Path 175" d="M431.77,59.178A14.031,14.031,0,0,0,417.591,73.06c-.118,11.137,9.052,13.084,9.005,17.573a2.4,2.4,0,0,0,1.4,1.991,7.564,7.564,0,0,0,6.845.072,2.4,2.4,0,0,0,1.438-1.961h0c.047-4.489,9.256-6.241,9.374-17.378A14.031,14.031,0,0,0,431.77,59.178Z" fill="#80c19c"/>
              </g>
              <g id="Group_146" data-name="Group 146" opacity="0.6">
                <path id="Path_176" data-name="Path 176" d="M431.77,59.178A14.031,14.031,0,0,0,417.591,73.06c-.118,11.137,9.052,13.084,9.005,17.573a2.4,2.4,0,0,0,1.4,1.991,7.564,7.564,0,0,0,6.845.072,2.4,2.4,0,0,0,1.438-1.961h0c.047-4.489,9.256-6.241,9.374-17.378A14.031,14.031,0,0,0,431.77,59.178Z" fill="#fff"/>
              </g>
              <g id="Group_147" data-name="Group 147">
                <path id="Path_177" data-name="Path 177" d="M428.848,92.026c-1.413-.836-1.4-2.167.031-2.972a5.688,5.688,0,0,1,5.148.054c1.413.836,1.4,2.166-.031,2.972A5.691,5.691,0,0,1,428.848,92.026Z" fill="#80c19c"/>
              </g>
            </g>
          </g>
          <g id="Group_150" data-name="Group 150">
            <path id="Path_178" data-name="Path 178" d="M433.313,90.238a.475.475,0,0,1-.471-.471,33.991,33.991,0,0,1,1.068-8.006,17.342,17.342,0,0,1,.722-2.222,6.472,6.472,0,0,1-1.211-.608,8.236,8.236,0,0,1-1.844-1.585,8.21,8.21,0,0,1-1.876,1.545,6.4,6.4,0,0,1-1.225.583,17.2,17.2,0,0,1,.676,2.236,34.014,34.014,0,0,1,.9,8.028.483.483,0,0,1-.491.46.476.476,0,0,1-.461-.491,33.8,33.8,0,0,0-.874-7.78,15.8,15.8,0,0,0-.685-2.228,2.977,2.977,0,0,1-2.646-.807,1.524,1.524,0,0,1-.184-1.967,1.261,1.261,0,0,1,1.3-.529c.749.156,1.472.935,2.086,2.2a5.378,5.378,0,0,0,1.111-.518A7.267,7.267,0,0,0,431,76.568a3.529,3.529,0,0,1-.666-2.683,1.339,1.339,0,0,1,2.56.028,3.522,3.522,0,0,1-.723,2.667,7.287,7.287,0,0,0,1.76,1.547,5.355,5.355,0,0,0,1.1.541c.641-1.249,1.38-2.013,2.132-2.154a1.271,1.271,0,0,1,1.289.556,1.523,1.523,0,0,1-.225,1.963,2.98,2.98,0,0,1-2.662.751A15.615,15.615,0,0,0,434.832,82a33.6,33.6,0,0,0-1.038,7.759.476.476,0,0,1-.472.481ZM425.748,77.32c-.081,0-.17.035-.275.175-.235.315.037.658.126.757a1.9,1.9,0,0,0,1.516.524c-.5-.937-.983-1.382-1.3-1.448A.31.31,0,0,0,425.748,77.32Zm10.26,1.55a1.912,1.912,0,0,0,1.528-.492c.091-.1.37-.434.141-.754-.131-.185-.243-.192-.34-.174C437.021,77.509,436.525,77.944,436.008,78.87ZM431.614,73.9a.316.316,0,0,0-.367.252.822.822,0,1,0,.728.007A.316.316,0,0,0,431.614,73.9Z" fill="#fff"/>
          </g>
        </g>
        <g id="Group_160" data-name="Group 160">
          <g id="Group_151" data-name="Group 151">
            <path id="Path_179" data-name="Path 179" d="M431.912,53.834a.9.9,0,0,1-.244.031.916.916,0,0,1-.912-.92l.02-4.778a.917.917,0,0,1,1.833.007l-.021,4.778A.916.916,0,0,1,431.912,53.834Z" fill="#e0e0e0"/>
          </g>
          <g id="Group_152" data-name="Group 152">
            <path id="Path_180" data-name="Path 180" d="M421.7,56.524a.918.918,0,0,1-1.033-.431L418.3,51.946a.917.917,0,0,1,1.591-.911l2.373,4.147a.92.92,0,0,1-.558,1.342Z" fill="#e0e0e0"/>
          </g>
          <g id="Group_153" data-name="Group 153">
            <path id="Path_181" data-name="Path 181" d="M414.21,63.954a.909.909,0,0,1-.7-.092l-4.128-2.407a.916.916,0,0,1,.922-1.584l4.128,2.407a.915.915,0,0,1-.223,1.676Z" fill="#e0e0e0"/>
          </g>
          <g id="Group_154" data-name="Group 154">
            <path id="Path_182" data-name="Path 182" d="M411.437,74.139a.89.89,0,0,1-.243.031l-4.779-.02a.917.917,0,0,1,.008-1.833l4.778.02a.917.917,0,0,1,.236,1.8Z" fill="#e0e0e0"/>
          </g>
          <g id="Group_155" data-name="Group 155">
            <path id="Path_183" data-name="Path 183" d="M453.569,86.9a.914.914,0,0,1-.7-.093L448.742,84.4a.916.916,0,0,1,.922-1.584l4.128,2.407a.915.915,0,0,1-.223,1.676Z" fill="#e0e0e0"/>
          </g>
          <g id="Group_156" data-name="Group 156">
            <path id="Path_184" data-name="Path 184" d="M409.767,86.9a.917.917,0,0,0,.7-.093L414.6,84.4a.916.916,0,0,0-.922-1.584l-4.128,2.407a.916.916,0,0,0,.222,1.676Z" fill="#e0e0e0"/>
          </g>
          <g id="Group_157" data-name="Group 157">
            <path id="Path_185" data-name="Path 185" d="M456.995,74.328a.891.891,0,0,1-.243.032l-4.778-.02a.916.916,0,1,1,.007-1.832l4.778.019a.916.916,0,0,1,.236,1.8Z" fill="#e0e0e0"/>
          </g>
          <g id="Group_158" data-name="Group 158">
            <path id="Path_186" data-name="Path 186" d="M449.526,64.1a.917.917,0,0,1-.693-1.681l4.148-2.372a.917.917,0,0,1,.911,1.591l-4.149,2.372A.923.923,0,0,1,449.526,64.1Z" fill="#e0e0e0"/>
          </g>
          <g id="Group_159" data-name="Group 159">
            <path id="Path_187" data-name="Path 187" d="M442.094,56.608a.916.916,0,0,1-1.03-1.346l2.407-4.128a.916.916,0,1,1,1.583.922l-2.406,4.128A.919.919,0,0,1,442.094,56.608Z" fill="#e0e0e0"/>
          </g>
        </g>
      </g>
    </g>
    <g id="Gears" transform="translate(117.442 175.051)">
      <g id="Group_36-2" data-name="Group 36" transform="translate(41.968 60.041)">
        <g id="Group_11-2" data-name="Group 11" transform="translate(262.306 14.689)">
          <path id="Path_14-2" data-name="Path 14" d="M370.788,104.32l-24.9-14.375a40.563,40.563,0,0,0-2.831-12.84,24.063,24.063,0,0,1,14.453,2.465l.549.321C365.212,84.056,369.908,92.464,370.788,104.32Z" transform="translate(-343.058 -76.902)" fill="#b6bc83"/>
          <path id="Path_15-2" data-name="Path 15" d="M370.788,104.32l-24.9-14.375a40.563,40.563,0,0,0-2.831-12.84,24.063,24.063,0,0,1,14.453,2.465l.549.321C365.212,84.056,369.908,92.464,370.788,104.32Z" transform="translate(-343.058 -76.902)" opacity="0.3"/>
        </g>
        <g id="Group_18-2" data-name="Group 18" transform="translate(189.488 15.138)">
          <path id="Path_16-2" data-name="Path 16" d="M367.907,111.333h0a1.216,1.216,0,0,0-.835.079l-9.322,4.2a1.1,1.1,0,0,1-1.551-.714c-.366-1.176-6.752-2.529-7.274-3.54l3.588-8.9Z" transform="translate(-270.996 -80.643)" fill="#a9b3b2"/>
          <path id="Path_17-2" data-name="Path 17" d="M340.994,99.263v-.02a.873.873,0,0,0-.81,0L333.3,83.315a1.411,1.411,0,0,0-.551-1.824L326.009,77.6a1.411,1.411,0,0,0-1.856.435l-7.742,11.644a2.579,2.579,0,0,1-2.027,1.007,19.6,19.6,0,0,0-2.705.126V82.3l-5.173-2.983v0a.863.863,0,0,0-.846.075l-10.473,6.047a2.822,2.822,0,0,0-1.248,1.955L292.89,99.043a3.9,3.9,0,0,1-1.089,2.176,62.951,62.951,0,0,0-5.818,6.158,2.006,2.006,0,0,1-2.058.583l-6.722-2.348a1.64,1.64,0,0,0-1.887.7l-7.7,13.334a1.641,1.641,0,0,0,.336,1.985l5.394,4.649a2,2,0,0,1,.524,2.073,63.052,63.052,0,0,0-2.424,8.118,3.9,3.9,0,0,1-1.34,2.03l-9.567,6.734a2.824,2.824,0,0,0-1.068,2.059v12.092a.853.853,0,0,0,.372.777l0,0,12.125,7-4.423,8.917a1.409,1.409,0,0,0,.551,1.823l16.484,9.549a1.41,1.41,0,0,0,1.855-.435l7.49-7.659a.876.876,0,0,0,.4.715l15.355,8.862.41-12.022s-3.247-4.191-3.182-4.91l16.736-18.224a1.636,1.636,0,0,0,1.886-.7l7.7-13.334a1.64,1.64,0,0,0-.336-1.985l7.413-23.6a2.822,2.822,0,0,0,1.068-2.059Zm-40.57,50.864c-4.494,2.6-8.207,3.149-10.9,1.894-3.168-1.474,22.534-45.54,25.232-43.134,2.181,1.945,3.364,5.554,3.364,10.6C318.115,130.767,310.194,144.486,300.424,150.127Z" transform="translate(-259.473 -77.417)" fill="#3d4642"/>
          <path id="Path_18-2" data-name="Path 18" d="M351.89,89.23l-2.082,4.208-6.691,7.719L335.233,96.6l-11.047-6.386a1.838,1.838,0,0,0,.558-.54l7.745-11.639a1.413,1.413,0,0,1,1.838-.444l6.76,3.9,10.254,5.915A1.41,1.41,0,0,1,351.89,89.23Z" transform="translate(-267.809 -77.417)" fill="#a9b3b2"/>
          <path id="Path_19-2" data-name="Path 19" d="M270.878,146.677a3.265,3.265,0,0,1-.708.747l-9.567,6.734a2.487,2.487,0,0,0-.657.765l16.086,9.307,12.7-7.226Z" transform="translate(-259.534 -86.338)" fill="#a9b3b2"/>
          <path id="Path_20-2" data-name="Path 20" d="M277.749,109.7a1.636,1.636,0,0,0-1.257.768l-7.7,13.334a1.577,1.577,0,0,0-.172,1.028l16.857,9.755,10.538-14.256Z" transform="translate(-260.649 -81.576)" fill="#a9b3b2"/>
          <path id="Path_21-2" data-name="Path 21" d="M327.017,88.471V92.3L317.7,97.688,299.226,87.016a2.792,2.792,0,0,1,1.08-1.307l10.472-6.046a1.083,1.083,0,0,1,.523-.157.654.654,0,0,1,.322.078l5.044,2.9.131.078,6.961,4.025Z" transform="translate(-264.594 -77.686)" fill="#a9b3b2"/>
          <path id="Path_22-2" data-name="Path 22" d="M359.045,122.3V110.209a.781.781,0,0,0-1.192-.77l-9.321,4.2a1.106,1.106,0,0,1-1.552-.719A20.9,20.9,0,0,0,344.9,108.3a2.571,2.571,0,0,1-.141-2.258l6.212-12.528a1.411,1.411,0,0,0-.551-1.824L343.679,87.8a1.41,1.41,0,0,0-1.855.435l-7.743,11.644a2.579,2.579,0,0,1-2.027,1.007,20.881,20.881,0,0,0-5.042.511,1.106,1.106,0,0,1-1.4-.984l-1.022-10.173a.78.78,0,0,0-1.262-.647l-10.472,6.046a2.821,2.821,0,0,0-1.249,1.955l-1.049,11.652a3.9,3.9,0,0,1-1.089,2.176,63.159,63.159,0,0,0-5.818,6.158,2,2,0,0,1-2.057.583l-6.723-2.348a1.639,1.639,0,0,0-1.887.7l-7.7,13.335a1.64,1.64,0,0,0,.336,1.985l5.394,4.648a2.008,2.008,0,0,1,.524,2.074,63,63,0,0,0-2.424,8.117,3.881,3.881,0,0,1-1.34,2.03l-9.567,6.734a2.824,2.824,0,0,0-1.068,2.059v12.092a.781.781,0,0,0,1.191.77l9.321-4.2a1.108,1.108,0,0,1,1.553.72,20.913,20.913,0,0,0,2.077,4.622,2.576,2.576,0,0,1,.142,2.259l-6.213,12.527a1.41,1.41,0,0,0,.551,1.824L292.508,192a1.412,1.412,0,0,0,1.856-.435l7.742-11.643a2.578,2.578,0,0,1,2.028-1.007,20.887,20.887,0,0,0,5.042-.512,1.107,1.107,0,0,1,1.4.985L311.6,189.56a.781.781,0,0,0,1.262.647l10.472-6.047a2.82,2.82,0,0,0,1.249-1.955l1.049-11.653a3.893,3.893,0,0,1,1.089-2.175,63.017,63.017,0,0,0,5.816-6.156,2.005,2.005,0,0,1,2.059-.584l6.722,2.347a1.641,1.641,0,0,0,1.887-.7l7.7-13.334a1.639,1.639,0,0,0-.337-1.985l-5.394-4.649a2,2,0,0,1-.524-2.073,63.155,63.155,0,0,0,2.424-8.118,3.893,3.893,0,0,1,1.34-2.03l9.567-6.734A2.823,2.823,0,0,0,359.045,122.3Zm-40.951,38.025c-9.771,5.642-17.692,1.068-17.692-10.214s7.921-25,17.692-30.643,17.692-1.068,17.692,10.214S327.865,154.684,318.094,160.326Z" transform="translate(-261.749 -78.731)" fill="#717a78"/>
          <g id="Group_17-2" data-name="Group 17" transform="translate(41.057 44.877)">
            <g id="Group_14-2" data-name="Group 14">
              <g id="Group_13-2" data-name="Group 13">
                <g id="Group_12-2" data-name="Group 12">
                  <path id="Path_23-2" data-name="Path 23" d="M330.776,132.371l-4.654-2.684-.005,0-.043-.025,0,.008c-2.066-1.167-4.9-.991-8.036.819C311.72,134.132,306.6,143,306.6,150.289c0,3.64,1.277,6.2,3.338,7.395h0l.01.005v0l4.235,2.417,1.011-1.692a11.592,11.592,0,0,0,3.279-1.275c6.314-3.645,11.433-12.512,11.434-19.8a12.244,12.244,0,0,0-.359-2.92Z" transform="translate(-306.601 -128.929)" fill="#80c19c"/>
                </g>
              </g>
            </g>
            <g id="Group_15-2" data-name="Group 15" transform="translate(0.002 0.001)">
              <path id="Path_24-2" data-name="Path 24" d="M306.6,151.669c0,3.641,1.274,6.2,3.335,7.394v0l.013,0,4.235,2.418L315.2,159.8a11.685,11.685,0,0,0,3.28-1.278,23.788,23.788,0,0,0,8.508-9.3L310.4,139.648A23.774,23.774,0,0,0,306.6,151.669Z" transform="translate(-306.603 -130.31)" opacity="0.1"/>
              <path id="Path_25-2" data-name="Path 25" d="M331.339,132.371l-4.652-2.685h0l-.047-.026,0,.009c-2.066-1.167-4.9-.994-8.035.818a22.827,22.827,0,0,0-7.631,7.781l16.582,9.572a22.889,22.889,0,0,0,2.926-10.5,12.165,12.165,0,0,0-.362-2.922Z" transform="translate(-307.165 -128.93)" fill="#fff" opacity="0.4"/>
            </g>
            <path id="Path_26-2" data-name="Path 26" d="M323.109,133.4c-6.315,3.646-11.434,12.512-11.434,19.8s5.119,10.247,11.434,6.6,11.433-12.512,11.434-19.8S329.424,129.75,323.109,133.4Z" transform="translate(-307.255 -129.303)" fill="#80c19c"/>
            <g id="Group_3246" data-name="Group 3246" transform="translate(7.719 6.808)">
              <path id="Path_71-2" data-name="Path 71" d="M103.386,35.584c-.018-.011-.985-.694-.985-.694a.353.353,0,0,0-.058-.03l-1.929-.8a.428.428,0,0,0-.524.182L92.1,48.208l-3.1-1.7a.391.391,0,0,0-.518.138l-1.52,2.406a.352.352,0,0,0,.112.484c.007,0,.831.6.986.695l.02.012,5.39,2.971a.374.374,0,0,0,.506-.145l9.508-17.046A.321.321,0,0,0,103.386,35.584Z" transform="translate(-86.915 -34.034)" fill="#f9dbd9"/>
              <path id="Path_72-2" data-name="Path 72" d="M160.985,35.585c-.018-.011-.985-.694-.985-.694a.352.352,0,0,0-.058-.03l-1.929-.8a.424.424,0,0,0-.359.023l3.363,2.066.073-.131A.321.321,0,0,0,160.985,35.585Z" transform="translate(-144.514 -34.034)" fill="#f8aead"/>
              <path id="Path_73-2" data-name="Path 73" d="M107.648,38.6l-1.929-.8a.428.428,0,0,0-.524.183L97.407,51.944l-3.1-1.7a.391.391,0,0,0-.518.138l-1.52,2.406a.353.353,0,0,0,.132.5l5.39,2.971a.374.374,0,0,0,.506-.145l9.508-17.046A.323.323,0,0,0,107.648,38.6Z" transform="translate(-91.235 -37.076)" fill="#f7b0c4"/>
              <path id="Path_74-2" data-name="Path 74" d="M100.012,102.674l.982.695-3.093-1.7a.384.384,0,0,0-.289-.033l-.984-.695a.388.388,0,0,1,.287.033Z" transform="translate(-94.825 -88.5)" fill="#f8aead"/>
            </g>
          </g>
        </g>
        <path id="Path_28-2" data-name="Path 28" d="M312.085,63.355l-.418-.244c-8.015-4.757-19.166-4.147-31.485,2.962-24.428,14.087-44.23,48.394-44.23,76.611s-19.811,62.543-44.239,76.648a43.2,43.2,0,0,1-16.335,5.827,24.117,24.117,0,0,0,9.409,11.605l.436.26c8.015,4.722,19.14,4.087,31.424-3.006,24.428-14.1,44.23-48.421,44.23-76.646s19.8-62.526,44.239-76.613a43.088,43.088,0,0,1,16.344-5.827A24.063,24.063,0,0,1,335.912,77.4Z" transform="translate(-59.153 -60.041)" fill="#b6bc83"/>
        <g id="Group_27-2" data-name="Group 27" transform="translate(99.503 56.125)">
          <g id="Group_19-2" data-name="Group 19" transform="translate(0.002 0)">
            <path id="Path_29-2" data-name="Path 29" d="M231.894,180.909l21.518-4.826a.144.144,0,0,0-.044-.026c-.514-.3-4.914-2.85-9.2-5.324-4.225-2.447-8.355-4.835-8.538-4.94a1.2,1.2,0,0,0-.6-.174l-7.553-.426a1.225,1.225,0,0,1-1.272-1.228,40.685,40.685,0,0,0,.009-7.284,3.621,3.621,0,0,1,.828-2.229l12.083-.984c.514-.628,10.4-10.168,10.4-10.168l-.052-.025c-1.037-.6-17.65-10.228-17.755-10.29a.731.731,0,0,0-.34-.07c-5.114-2.953-14.078-8.145-14.287-8.276a1.434,1.434,0,0,0-.871-.165l-8.808.871a2.456,2.456,0,0,0-1.925,1.342l-4.774,12.806a4.214,4.214,0,0,1-1.925,1.864c-.932.436-1.864.932-2.805,1.471l-9.243-5.349c-.366-.244-.95-.086-1.429.419l-9.67,10.21a2.555,2.555,0,0,0-.749,2.125l2.692,9.113a3.06,3.06,0,0,1-.5,2.195,73.711,73.711,0,0,0-4.443,7.728,3.521,3.521,0,0,1-2.1,1.559l-8.276,2a2.713,2.713,0,0,0-1.873,1.559L156.231,188.4a.905.905,0,0,0,.314,1.018c.183.148,9.374,5.437,9.374,5.437-.009,1.281.044,2.535.157,3.754a3.6,3.6,0,0,1-.819,2.231l-8.442,10.21a2.3,2.3,0,0,0-.505,2.1l4.007,8.86a.643.643,0,0,0,.253.287c.322.192,17.154,9.931,17.781,10.288,0,.009,0,.009.009.009l.009.01h.017a.216.216,0,0,0,.052-.078c.087.052.174.095.261.157h.009c5.027,2.909,13.747,7.954,14.3,8.268.009.009.017.009.026.017.244-.661,7.5-30.726,7.815-30.247l4.513,6.891a.84.84,0,0,0,.139.157l8.6,4.991,9.278,5.376-.009-.018-6.708-20.943C222.581,209.223,236.093,183.741,231.894,180.909ZM179.8,194.9l32.7-34.509a17.2,17.2,0,0,1,1.35,7.179,19.8,19.8,0,0,1,2.222-1.132q.1,1.137.1,2.4c0,11.291-7.919,25-17.694,30.648-.714.41-1.42.776-2.091,1.089a18.925,18.925,0,0,1-.139-2.56C189.267,202.1,182.637,201.164,179.8,194.9Z" transform="translate(-156.186 -124.465)" fill="#3d4642"/>
          </g>
          <path id="Path_30-2" data-name="Path 30" d="M178.373,245.563l-.854-8.24L156.295,225.07a1.645,1.645,0,0,0,.018,1.044l4.007,8.857a.605.605,0,0,0,.256.288h0l.042.024C161.478,235.776,178.37,245.561,178.373,245.563Z" transform="translate(-156.188 -137.424)" fill="#a9b3b2"/>
          <path id="Path_31-2" data-name="Path 31" d="M181.052,192.844,160.7,181.138a1.68,1.68,0,0,0-.3.544L156.228,195.7a.914.914,0,0,0,.319,1.021c.011.01.064.042.149.092l9.173,5.313.049.028h0l8.527,4.94Z" transform="translate(-156.184 -131.765)" fill="#a9b3b2"/>
          <path id="Path_32-2" data-name="Path 32" d="M177.732,151.229l17.805,10.223,11.747-11.778-17.77-10.289h0c-.367-.237-.946-.082-1.424.423l-9.675,10.213A3.049,3.049,0,0,0,177.732,151.229Z" transform="translate(-158.959 -126.372)" fill="#a9b3b2"/>
          <path id="Path_33-2" data-name="Path 33" d="M224.448,124.642a1.371,1.371,0,0,0-.869-.168l-8.809.873a2.608,2.608,0,0,0-1.471.7l23.158,13.37L242.373,136l-.17-1.078S224.738,124.825,224.448,124.642Z" transform="translate(-163.541 -124.464)" fill="#a9b3b2"/>
          <g id="Group_20-2" data-name="Group 20" transform="translate(17.791 10.3)">
            <path id="Path_34-2" data-name="Path 34" d="M256.043,177.606a.144.144,0,0,0-.044-.026,1.307,1.307,0,0,0-.549-.14l-7.553-.427a1.223,1.223,0,0,1-1.272-1.228c.1-1.193.166-2.377.174-3.528a35.349,35.349,0,0,0-.166-3.754,3.663,3.663,0,0,1,.828-2.231l8.433-10.209a2.31,2.31,0,0,0,.514-2.1L252.4,145.1a.594.594,0,0,0-.244-.279l-.052-.025a1.222,1.222,0,0,0-1.289.4l-9.008,8.223a1.592,1.592,0,0,1-1.969.331,14.021,14.021,0,0,0-3.851-2.238,1.443,1.443,0,0,1-.906-1.578l2.779-12.605a.781.781,0,0,0-.383-.889,1.475,1.475,0,0,0-.836-.149l-8.808.881a2.419,2.419,0,0,0-1.925,1.342l-4.774,12.806a4.11,4.11,0,0,1-1.925,1.857,39.572,39.572,0,0,0-5.454,3.162c-.741.5-1.568.531-1.89.044l-4.5-6.883c-.322-.487-1.045-.382-1.629.218l-9.67,10.22a2.547,2.547,0,0,0-.749,2.116L198,171.175a3.114,3.114,0,0,1-.488,2.2,73.571,73.571,0,0,0-4.452,7.719,3.53,3.53,0,0,1-2.1,1.568l-8.276,2a2.742,2.742,0,0,0-1.873,1.55l-4.164,14.027a.994.994,0,0,0,1.028,1.263l7.562.426a1.231,1.231,0,0,1,1.272,1.228,39.915,39.915,0,0,0-.017,7.284,3.554,3.554,0,0,1-.819,2.229l-8.433,10.22a2.3,2.3,0,0,0-.514,2.1l4.007,8.851a.55.55,0,0,0,.244.278c0,.009,0,.009.009.009a.03.03,0,0,0,.026.01.654.654,0,0,0,.314.078h.009a1.556,1.556,0,0,0,.984-.463l9-8.233a1.6,1.6,0,0,1,1.969-.331,14.264,14.264,0,0,0,3.851,2.24,1.427,1.427,0,0,1,.906,1.576l-2.779,12.616a.776.776,0,0,0,.366.862c.009.009.017.009.026.017a1.364,1.364,0,0,0,.828.148l8.808-.871a2.456,2.456,0,0,0,1.925-1.342L212,227.62a4.166,4.166,0,0,1,1.925-1.863c.923-.436,1.864-.933,2.8-1.473.88-.514,1.769-1.079,2.657-1.681.732-.505,1.568-.54,1.882-.051l4.513,6.891a.586.586,0,0,0,.218.2c.366.227.932.07,1.4-.427L237.077,219a2.559,2.559,0,0,0,.741-2.118l-2.692-9.113a3.1,3.1,0,0,1,.5-2.195,72.2,72.2,0,0,0,4.443-7.728,3.515,3.515,0,0,1,2.108-1.559l8.268-2a2.7,2.7,0,0,0,1.873-1.559l4.173-14.017A.934.934,0,0,0,256.043,177.606ZM211.882,211.86c-.166.044-.322.088-.488.123-.122.035-.235.052-.348.078q-.392.077-.784.13c-.308.044-.61.069-.91.089-.189.011-.377.017-.564.02-.089,0-.177,0-.265,0a8.843,8.843,0,0,1-8.3-5.579,15.2,15.2,0,0,1-1.211-4.618,18.925,18.925,0,0,1-.139-2.56c.052-7.989,4.156-17.886,10.925-25.039a30.4,30.4,0,0,1,6.673-5.41,19.8,19.8,0,0,1,2.222-1.132,14.041,14.041,0,0,1,6.246-1.325.176.176,0,0,1,.07.01c.1,0,.209.009.314.017s.218.018.322.035a2.384,2.384,0,0,1,.34.044,8.836,8.836,0,0,1,6.926,5.471c3.737,8.268-.549,22.694-9.574,32.217C219.557,208.419,215.541,210.919,211.882,211.86Z" transform="translate(-176.605 -136.287)" fill="#717a78"/>
          </g>
          <line id="Line_1" data-name="Line 1" x2="17.807" y2="10.31" transform="translate(75.533 8.522)" fill="#263238"/>
          <g id="Group_26-2" data-name="Group 26" transform="translate(42.571 46.859)">
            <g id="Group_23-2" data-name="Group 23">
              <g id="Group_22-2" data-name="Group 22">
                <g id="Group_21-2" data-name="Group 21">
                  <path id="Path_35-2" data-name="Path 35" d="M229.224,181.694l-4.653-2.685-.006,0-.043-.024,0,.007c-2.066-1.166-4.9-.991-8.036.819-6.314,3.646-11.433,12.512-11.433,19.8,0,3.639,1.277,6.2,3.338,7.394v0l.01.005h0l4.234,2.418,1.011-1.692a11.635,11.635,0,0,0,3.279-1.275c6.313-3.646,11.433-12.512,11.434-19.8A12.252,12.252,0,0,0,228,183.74Z" transform="translate(-205.049 -178.251)" fill="#80c19c"/>
                </g>
              </g>
            </g>
            <g id="Group_24-2" data-name="Group 24" transform="translate(0.002 0.001)">
              <path id="Path_36-2" data-name="Path 36" d="M205.051,200.991c0,3.642,1.274,6.2,3.336,7.394v0l.013,0,4.235,2.418,1.011-1.691a11.7,11.7,0,0,0,3.28-1.278,23.778,23.778,0,0,0,8.508-9.3l-16.582-9.571A23.771,23.771,0,0,0,205.051,200.991Z" transform="translate(-205.051 -179.633)" opacity="0.1"/>
              <path id="Path_37-2" data-name="Path 37" d="M229.787,181.694l-4.652-2.686h0l-.047-.025,0,.009c-2.066-1.167-4.9-.995-8.035.817a22.837,22.837,0,0,0-7.631,7.781L226,197.161a22.883,22.883,0,0,0,2.926-10.5,12.179,12.179,0,0,0-.362-2.923Z" transform="translate(-205.613 -178.252)" fill="#fff" opacity="0.4"/>
            </g>
            <path id="Path_38-2" data-name="Path 38" d="M221.557,182.719c-6.314,3.645-11.434,12.511-11.434,19.8s5.119,10.246,11.433,6.6,11.433-12.511,11.434-19.8S227.872,179.073,221.557,182.719Z" transform="translate(-205.703 -178.626)" fill="#80c19c"/>
            <g id="Group_3245" data-name="Group 3245" transform="translate(8.189 6.839)">
              <path id="Path_71-3" data-name="Path 71" d="M103.386,35.584c-.018-.011-.985-.694-.985-.694a.353.353,0,0,0-.058-.03l-1.929-.8a.428.428,0,0,0-.524.182L92.1,48.208l-3.1-1.7a.391.391,0,0,0-.518.138l-1.52,2.406a.352.352,0,0,0,.112.484c.007,0,.831.6.986.695l.02.012,5.39,2.971a.374.374,0,0,0,.506-.145l9.508-17.046A.321.321,0,0,0,103.386,35.584Z" transform="translate(-86.915 -34.034)" fill="#f9dbd9"/>
              <path id="Path_72-3" data-name="Path 72" d="M160.985,35.585c-.018-.011-.985-.694-.985-.694a.352.352,0,0,0-.058-.03l-1.929-.8a.424.424,0,0,0-.359.023l3.363,2.066.073-.131A.321.321,0,0,0,160.985,35.585Z" transform="translate(-144.514 -34.034)" fill="#f8aead"/>
              <path id="Path_73-3" data-name="Path 73" d="M107.648,38.6l-1.929-.8a.428.428,0,0,0-.524.183L97.407,51.944l-3.1-1.7a.391.391,0,0,0-.518.138l-1.52,2.406a.353.353,0,0,0,.132.5l5.39,2.971a.374.374,0,0,0,.506-.145l9.508-17.046A.323.323,0,0,0,107.648,38.6Z" transform="translate(-91.235 -37.076)" fill="#f7b0c4"/>
              <path id="Path_74-3" data-name="Path 74" d="M100.012,102.674l.982.695-3.093-1.7a.384.384,0,0,0-.289-.033l-.984-.695a.388.388,0,0,1,.287.033Z" transform="translate(-94.825 -88.5)" fill="#f8aead"/>
            </g>
          </g>
        </g>
        <g id="Group_28-2" data-name="Group 28" transform="translate(85.368 116.813)">
          <path id="Path_40-2" data-name="Path 40" d="M170.815,242.432a43.373,43.373,0,0,1-2.971-16.709c0-13.922-4.818-23.767-12.641-28.462l-.793-.463a23.948,23.948,0,0,0-14.453-2.465,43.5,43.5,0,0,1,2.962,16.7c0,14.036,4.887,23.915,12.815,28.575l24.489,14.428A24.117,24.117,0,0,1,170.815,242.432Z" transform="translate(-139.958 -194.126)" fill="#b6bc83"/>
          <path id="Path_41-2" data-name="Path 41" d="M170.815,242.432a43.373,43.373,0,0,1-2.971-16.709c0-13.922-4.818-23.767-12.641-28.462l-.793-.463a23.948,23.948,0,0,0-14.453-2.465,43.5,43.5,0,0,1,2.962,16.7c0,14.036,4.887,23.915,12.815,28.575l24.489,14.428A24.117,24.117,0,0,1,170.815,242.432Z" transform="translate(-139.958 -194.126)" opacity="0.3"/>
        </g>
        <g id="Group_35-2" data-name="Group 35" transform="translate(12.724 117.193)">
          <path id="Path_42-2" data-name="Path 42" d="M165.007,228.477h0a1.222,1.222,0,0,0-.835.08l-9.322,4.2a1.1,1.1,0,0,1-1.551-.714c-.366-1.177-6.752-2.53-7.274-3.54l3.588-8.9Z" transform="translate(-68.096 -197.788)" fill="#a9b3b2"/>
          <path id="Path_43-2" data-name="Path 43" d="M138.094,216.408v-.02a.874.874,0,0,0-.81,0L130.4,200.46a1.411,1.411,0,0,0-.551-1.824l-6.742-3.892a1.411,1.411,0,0,0-1.856.435l-7.742,11.644a2.576,2.576,0,0,1-2.028,1.006,19.726,19.726,0,0,0-2.7.126v-8.514l-5.173-2.983h0a.861.861,0,0,0-.846.076l-10.473,6.047a2.82,2.82,0,0,0-1.248,1.955L89.99,216.188a3.9,3.9,0,0,1-1.089,2.176,62.95,62.95,0,0,0-5.818,6.158,2,2,0,0,1-2.058.583L74.3,222.757a1.64,1.64,0,0,0-1.887.7l-7.7,13.335a1.641,1.641,0,0,0,.336,1.985l5.394,4.648a2.006,2.006,0,0,1,.524,2.074,63.055,63.055,0,0,0-2.424,8.118,3.9,3.9,0,0,1-1.34,2.03l-9.567,6.734a2.823,2.823,0,0,0-1.068,2.059v12.093a.853.853,0,0,0,.372.777l0,0,12.124,7-4.422,8.917a1.41,1.41,0,0,0,.551,1.824L81.68,304.6a1.409,1.409,0,0,0,1.855-.435l7.49-7.659a.877.877,0,0,0,.4.715l15.355,8.862.41-12.022s-3.247-4.191-3.182-4.91l16.736-18.224a1.636,1.636,0,0,0,1.886-.7l7.7-13.335a1.641,1.641,0,0,0-.336-1.985l7.413-23.6a2.823,2.823,0,0,0,1.068-2.059ZM97.523,267.272c-4.494,2.594-8.206,3.149-10.9,1.894-3.168-1.474,22.535-45.541,25.233-43.135,2.181,1.945,3.364,5.555,3.364,10.6C115.215,247.912,107.294,261.63,97.523,267.272Z" transform="translate(-56.573 -194.562)" fill="#3d4642"/>
          <g id="Group_34-2" data-name="Group 34" transform="translate(41.225 44.309)">
            <g id="Group_31-2" data-name="Group 31">
              <g id="Group_30-2" data-name="Group 30">
                <g id="Group_29-2" data-name="Group 29">
                  <path id="Path_44-2" data-name="Path 44" d="M128.068,248.864l-4.653-2.684-.006,0-.043-.024,0,.007c-2.066-1.166-4.9-.991-8.036.819-6.313,3.646-11.433,12.512-11.433,19.8,0,3.64,1.277,6.2,3.338,7.395v0l.01.005h0l4.234,2.418,1.011-1.692a11.635,11.635,0,0,0,3.279-1.275c6.313-3.646,11.433-12.512,11.434-19.8a12.251,12.251,0,0,0-.359-2.921Z" transform="translate(-103.893 -245.422)" fill="#80c19c"/>
                </g>
              </g>
            </g>
            <g id="Group_32-2" data-name="Group 32" transform="translate(0.002 0.001)">
              <path id="Path_45-2" data-name="Path 45" d="M103.895,268.162c0,3.642,1.274,6.2,3.336,7.394v0l.012,0,4.235,2.418,1.011-1.691a11.7,11.7,0,0,0,3.28-1.278,23.785,23.785,0,0,0,8.508-9.3L107.7,256.142A23.771,23.771,0,0,0,103.895,268.162Z" transform="translate(-103.895 -246.804)" opacity="0.1"/>
              <path id="Path_46-2" data-name="Path 46" d="M128.631,248.865l-4.652-2.686h-.009l-.043-.025,0,.009c-2.066-1.167-4.9-.995-8.035.817a22.837,22.837,0,0,0-7.631,7.781l16.582,9.571a22.889,22.889,0,0,0,2.926-10.5,12.179,12.179,0,0,0-.362-2.923Z" transform="translate(-104.457 -245.423)" fill="#fff" opacity="0.4"/>
            </g>
            <path id="Path_47-2" data-name="Path 47" d="M120.4,249.89c-6.315,3.645-11.434,12.511-11.434,19.8s5.119,10.247,11.433,6.6,11.433-12.511,11.434-19.8S126.716,246.244,120.4,249.89Z" transform="translate(-104.547 -245.797)" fill="#80c19c"/>
            <g id="Group_3244" data-name="Group 3244" transform="translate(7.316 7.321)">
              <path id="Path_71-4" data-name="Path 71" d="M103.386,35.584c-.018-.011-.985-.694-.985-.694a.353.353,0,0,0-.058-.03l-1.929-.8a.428.428,0,0,0-.524.182L92.1,48.208l-3.1-1.7a.391.391,0,0,0-.518.138l-1.52,2.406a.352.352,0,0,0,.112.484c.007,0,.831.6.986.695l.02.012,5.39,2.971a.374.374,0,0,0,.506-.145l9.508-17.046A.321.321,0,0,0,103.386,35.584Z" transform="translate(-86.915 -34.034)" fill="#f9dbd9"/>
              <path id="Path_72-4" data-name="Path 72" d="M160.985,35.585c-.018-.011-.985-.694-.985-.694a.352.352,0,0,0-.058-.03l-1.929-.8a.424.424,0,0,0-.359.023l3.363,2.066.073-.131A.321.321,0,0,0,160.985,35.585Z" transform="translate(-144.514 -34.034)" fill="#f8aead"/>
              <path id="Path_73-4" data-name="Path 73" d="M107.648,38.6l-1.929-.8a.428.428,0,0,0-.524.183L97.407,51.944l-3.1-1.7a.391.391,0,0,0-.518.138l-1.52,2.406a.353.353,0,0,0,.132.5l5.39,2.971a.374.374,0,0,0,.506-.145l9.508-17.046A.323.323,0,0,0,107.648,38.6Z" transform="translate(-91.235 -37.076)" fill="#f7b0c4"/>
              <path id="Path_74-4" data-name="Path 74" d="M100.012,102.674l.982.695-3.093-1.7a.384.384,0,0,0-.289-.033l-.984-.695a.388.388,0,0,1,.287.033Z" transform="translate(-94.825 -88.5)" fill="#f8aead"/>
            </g>
          </g>
          <path id="Path_49-2" data-name="Path 49" d="M148.99,206.375l-2.082,4.208-6.691,7.719-7.884-4.556-11.047-6.386a1.838,1.838,0,0,0,.558-.54l7.745-11.639a1.413,1.413,0,0,1,1.838-.444l6.76,3.9,10.254,5.915A1.41,1.41,0,0,1,148.99,206.375Z" transform="translate(-64.909 -194.562)" fill="#a9b3b2"/>
          <path id="Path_50-2" data-name="Path 50" d="M67.978,263.822a3.265,3.265,0,0,1-.708.747L57.7,271.3a2.488,2.488,0,0,0-.657.765l16.086,9.306,12.7-7.225Z" transform="translate(-56.634 -203.483)" fill="#a9b3b2"/>
          <path id="Path_51-2" data-name="Path 51" d="M74.849,226.849a1.635,1.635,0,0,0-1.257.768l-7.7,13.335a1.577,1.577,0,0,0-.172,1.028l16.857,9.755,10.538-14.256Z" transform="translate(-57.749 -198.721)" fill="#a9b3b2"/>
          <path id="Path_52-2" data-name="Path 52" d="M124.117,205.616v3.833l-9.322,5.384L96.326,204.161a2.792,2.792,0,0,1,1.08-1.307l10.472-6.046a1.083,1.083,0,0,1,.523-.157.654.654,0,0,1,.322.078l5.044,2.9.131.078,6.961,4.025Z" transform="translate(-61.694 -194.831)" fill="#a9b3b2"/>
          <path id="Path_53-2" data-name="Path 53" d="M156.145,239.446V227.354a.781.781,0,0,0-1.192-.77l-9.321,4.2a1.106,1.106,0,0,1-1.552-.719A20.9,20.9,0,0,0,142,225.445a2.571,2.571,0,0,1-.141-2.258l6.212-12.528a1.411,1.411,0,0,0-.551-1.824l-6.743-3.892a1.41,1.41,0,0,0-1.855.435l-7.743,11.644a2.575,2.575,0,0,1-2.027,1.006,20.883,20.883,0,0,0-5.042.511,1.106,1.106,0,0,1-1.4-.985l-1.022-10.173a.78.78,0,0,0-1.262-.646l-10.472,6.046a2.821,2.821,0,0,0-1.249,1.955l-1.049,11.652a3.9,3.9,0,0,1-1.089,2.176,63.06,63.06,0,0,0-5.818,6.158,2,2,0,0,1-2.057.583l-6.723-2.348a1.639,1.639,0,0,0-1.887.7l-7.7,13.335a1.638,1.638,0,0,0,.336,1.985l5.394,4.648a2.008,2.008,0,0,1,.524,2.074,63,63,0,0,0-2.424,8.117,3.888,3.888,0,0,1-1.34,2.03l-9.567,6.734a2.824,2.824,0,0,0-1.069,2.059v12.093a.781.781,0,0,0,1.192.769l9.321-4.2a1.107,1.107,0,0,1,1.552.719,20.922,20.922,0,0,0,2.078,4.623,2.576,2.576,0,0,1,.142,2.259l-6.213,12.527a1.41,1.41,0,0,0,.551,1.824l6.742,3.892a1.411,1.411,0,0,0,1.856-.436l7.742-11.643a2.583,2.583,0,0,1,2.028-1.007,20.882,20.882,0,0,0,5.042-.511,1.106,1.106,0,0,1,1.4.985L108.7,306.7a.78.78,0,0,0,1.262.646l10.472-6.046a2.821,2.821,0,0,0,1.249-1.955l1.049-11.653a3.893,3.893,0,0,1,1.089-2.175,62.927,62.927,0,0,0,5.816-6.157,2.006,2.006,0,0,1,2.058-.584l6.723,2.347a1.64,1.64,0,0,0,1.887-.7l7.7-13.334a1.641,1.641,0,0,0-.337-1.985l-5.394-4.648a2.008,2.008,0,0,1-.524-2.074,63,63,0,0,0,2.425-8.117,3.888,3.888,0,0,1,1.34-2.03l9.567-6.734A2.824,2.824,0,0,0,156.145,239.446Zm-40.951,38.025c-9.771,5.641-17.692,1.068-17.692-10.214s7.921-25,17.692-30.644,17.692-1.068,17.692,10.215S124.965,271.829,115.194,277.471Z" transform="translate(-58.849 -195.876)" fill="#717a78"/>
        </g>
        <path id="Path_54-2" data-name="Path 54" d="M141.789,194.626a23.948,23.948,0,0,0-14.453-2.465,43.13,43.13,0,0,0-16.352,5.829c-23.208,13.4-42.235,45.04-44.082,72.36L41.968,255.671C43.806,228.35,62.85,196.7,86.059,183.3c12.066-6.969,23-7.7,30.979-3.258l.941.558Z" transform="translate(-41.968 -75.141)" fill="#b6bc83"/>
      </g>
    </g>
  </g>
</svg>
