<svg xmlns="http://www.w3.org/2000/svg" xmlns:xlink="http://www.w3.org/1999/xlink" width="442.622" height="362.24" viewBox="0 0 442.622 362.24">
  <defs>
    <linearGradient id="linear-gradient" x1="128.152" y1="-47.087" x2="127.089" y2="-47.087" gradientUnits="objectBoundingBox">
      <stop offset="0" stop-color="#231f20"/>
      <stop offset="0.09" stop-color="#231f20"/>
      <stop offset="1" stop-color="#231f20"/>
    </linearGradient>
  </defs>
  <g id="Delivery" transform="translate(-25.371 -61.838)">
    <g id="Group_1" data-name="Group 1" transform="matrix(0.974, -0.225, 0.225, 0.974, -71.425, -30.13)">
      <path id="Path_2" data-name="Path 2" d="M64.806,316.321a85.738,85.738,0,0,0,4.3-20.221c.785-10.548-4.324-26.7-13.689-32.1s-14.425,1.278-11.287,7.036,13.731,21.955,13.861,35.956Z" fill="#80c19c"/>
      <path id="Path_3" data-name="Path 3" d="M61.545,316.091a.456.456,0,0,1-.082-.007.5.5,0,0,1-.412-.574l.021-.13c.786-4.758,1.863-11.275.448-23.183-1.59-13.4-5.966-19.6-10.037-23.9a.5.5,0,0,1,.727-.688c4.183,4.416,8.679,10.777,10.3,24.467,1.431,12.049.341,18.645-.454,23.463l-.022.129A.5.5,0,0,1,61.545,316.091Z" fill="#fff"/>
      <path id="Path_4" data-name="Path 4" d="M59.48,322.318c-.972-4.943-4.661-10.495-11.687-13.762s-14.254-5.174-15.561-9.381,3.138-9.08,12.292-7.036,18.961,15.643,18.437,24.8Z" fill="#80c19c"/>
      <path id="Path_5" data-name="Path 5" d="M61.543,319.628a.5.5,0,0,1-.493-.425c-1.874-12.4-12.393-21.865-20.661-22.606a.5.5,0,0,1-.454-.542.505.505,0,0,1,.543-.454c8.638.774,19.618,10.6,21.56,23.452a.5.5,0,0,1-.419.569A.487.487,0,0,1,61.543,319.628Z" fill="#fff"/>
    </g>
    <g id="Floor">
      <path id="Path_1" data-name="Path 1" d="M96.533,390.783c84.977,44.393,222.751,44.394,307.727,0s84.977-116.367,0-160.76-222.752-44.393-307.728,0S11.555,346.391,96.533,390.783Z" fill="#e6efef"/>
    </g>
    <g id="Group_2" data-name="Group 2" transform="matrix(0.996, 0.087, -0.087, 0.996, 19.757, 5.828)">
      <path id="Path_6" data-name="Path 6" d="M402.647,232.394s-5.176-11.444-4.328-21.259c.868-10.036,4.451-19.433,12.954-26.035s15.116-3.609,16.519-1.194,1.433,7.178-4.9,12.358-13.256,19.326-11.3,33.457l-2.909,8.265Z" fill="#80c19c"/>
      <path id="Path_7" data-name="Path 7" d="M405.237,233.227a.554.554,0,0,1-.487-.291c-2.159-3.976-2.487-20.47.993-29.7,4.237-11.224,11.874-17.569,17.609-19.764a.555.555,0,0,1,.4,1.036c-5.511,2.109-12.862,8.238-16.968,19.12-3.324,8.81-3.08,25.051-1.056,28.775a.556.556,0,0,1-.488.82Z" transform="translate(0.536 0.257)" fill="#fff"/>
      <path id="Path_8" data-name="Path 8" d="M426.608,255.35c.869-5.7,1.006-9.208,6.321-12.7s10.043-5.965,10.424-10.95-2.905-10.6-2.737-14.948,2.833-6.386,8.448-10.21,11.368-10.344,5.853-15-13.736-.329-17.483,2.915-6.787,4.444-12.531,2.915-11.366,2.451-10,9.779.659,10.664-3.964,10.407-11.407,4.545-5.974,15.61Z" transform="translate(0.517 0.921)" fill="#80c19c"/>
      <path id="Path_9" data-name="Path 9" d="M413.782,243.478a.672.672,0,0,1-.068,0,.555.555,0,0,1-.485-.617c2.635-22.134,24.6-45.9,34.586-49.353a.555.555,0,1,1,.362,1.049c-9.767,3.379-31.257,26.693-33.846,48.434A.554.554,0,0,1,413.782,243.478Z" transform="translate(1.641 1.355)" fill="#fff"/>
      <path id="Path_10" data-name="Path 10" d="M422.661,218.113a.558.558,0,0,1-.531-.393,93.189,93.189,0,0,1-3.159-15.228.554.554,0,1,1,1.1-.118,91.946,91.946,0,0,0,3.118,15.022.555.555,0,0,1-.53.717Z" transform="translate(2.269 2.274)" fill="#fff"/>
      <path id="Path_11" data-name="Path 11" d="M416.763,227.644a.555.555,0,0,1-.223-1.063,28.967,28.967,0,0,1,19.627-1.153.555.555,0,0,1-.361,1.049,28.372,28.372,0,0,0-18.821,1.119A.566.566,0,0,1,416.763,227.644Z" transform="translate(1.967 4.719)" fill="#fff"/>
    </g>
    <g id="Boxes" transform="translate(194.417 163.866)">
      <g id="Group_29" data-name="Group 29" transform="translate(0)">
        <path id="Path_12" data-name="Path 12" d="M234.157,127.974,258.529,113.9l24.363,14.071-24.363,14.071Z" transform="translate(-234.156 -106.866)" fill="#f5f5f5"/>
        <path id="Path_13" data-name="Path 13" d="M282.892,170.187l-24.372-14.07V127.974l24.372,14.07Z" transform="translate(-258.52 -106.866)" fill="#ebebeb"/>
        <g id="Group_3" data-name="Group 3" transform="translate(18.009 48.324)">
          <path id="Path_14" data-name="Path 14" d="M264.06,160.852a.719.719,0,0,0,.366-.1,1.112,1.112,0,0,0,.457-1.011v-3.208l-.152.027-2.338-1.373v3.332a2.7,2.7,0,0,0,1.152,2.177A1.031,1.031,0,0,0,264.06,160.852Zm.448-3.869v2.761a.768.768,0,0,1-.269.687.514.514,0,0,1-.507-.057,2.361,2.361,0,0,1-.964-1.852v-.244h.866l.17-1.169Zm-1.2.92h-.542v-2.058l1.395.819-.691.123Z" transform="translate(-262.393 -155.19)" fill="#fff"/>
        </g>
        <g id="Group_4" data-name="Group 4" transform="translate(19.067 53.483)">
          <path id="Path_15" data-name="Path 15" d="M263.637,163.229a.188.188,0,0,0,.188-.188v-2.5a.188.188,0,1,0-.375,0v2.5A.188.188,0,0,0,263.637,163.229Z" transform="translate(-263.45 -160.349)" fill="#fff"/>
        </g>
        <g id="Group_5" data-name="Group 5" transform="translate(17.979 55.359)">
          <path id="Path_16" data-name="Path 16" d="M264.725,163.857a.185.185,0,0,0,.162-.093.188.188,0,0,0-.068-.257l-2.177-1.257a.187.187,0,1,0-.187.325l2.176,1.257A.189.189,0,0,0,264.725,163.857Z" transform="translate(-262.362 -162.226)" fill="#fff"/>
        </g>
        <g id="Group_6" data-name="Group 6" transform="translate(11.758 47.901)">
          <path id="Path_17" data-name="Path 17" d="M270.705,159.543a.4.4,0,0,0,.2-.052.5.5,0,0,0,.225-.451v-.514a.188.188,0,0,0-.375,0v.514c0,.077-.021.117-.035.125s-.059.005-.124-.032a1.1,1.1,0,0,1-.348-.848v-3.331a.188.188,0,0,0-.375,0v3.331a1.431,1.431,0,0,0,.533,1.171A.59.59,0,0,0,270.705,159.543Z" transform="translate(-269.877 -154.767)" fill="#fff"/>
        </g>
        <g id="Group_7" data-name="Group 7" transform="translate(9.577 44.945)">
          <path id="Path_18" data-name="Path 18" d="M273.315,156.631v-.325a5.31,5.31,0,0,0-2.4-4.154,1.587,1.587,0,0,0-2.586,1.493v.108Zm-3.521-4.445a1.91,1.91,0,0,1,.935.291,4.952,4.952,0,0,1,2.193,3.494l-4.214-2.433a1.387,1.387,0,0,1,.579-1.223A1,1,0,0,1,269.794,152.186Z" transform="translate(-268.331 -151.811)" fill="#fff"/>
        </g>
        <g id="Group_10" data-name="Group 10" transform="translate(5.116 41.923)">
          <g id="Group_8" data-name="Group 8" transform="translate(0.549 0.161)">
            <path id="Path_19" data-name="Path 19" d="M277.04,155.705a.187.187,0,0,0,.187-.188v-6.38a.188.188,0,0,0-.375,0v6.38A.188.188,0,0,0,277.04,155.705Z" transform="translate(-276.852 -148.95)" fill="#fff"/>
          </g>
          <g id="Group_9" data-name="Group 9" transform="translate(0)">
            <path id="Path_20" data-name="Path 20" d="M277.588,150.592a.192.192,0,0,0,.074-.015.188.188,0,0,0,.1-.247l-.667-1.541-.744.86a.186.186,0,0,0,.018.264.188.188,0,0,0,.265-.019l.353-.408.431.993A.187.187,0,0,0,277.588,150.592Z" transform="translate(-276.303 -148.789)" fill="#fff"/>
          </g>
        </g>
        <g id="Group_13" data-name="Group 13" transform="translate(3.382 40.935)">
          <g id="Group_11" data-name="Group 11" transform="translate(0.549 0.16)">
            <path id="Path_21" data-name="Path 21" d="M278.774,154.716a.187.187,0,0,0,.187-.187v-6.38a.188.188,0,1,0-.375,0v6.38A.188.188,0,0,0,278.774,154.716Z" transform="translate(-278.586 -147.961)" fill="#fff"/>
          </g>
          <g id="Group_12" data-name="Group 12" transform="translate(0)">
            <path id="Path_22" data-name="Path 22" d="M279.322,149.6a.181.181,0,0,0,.075-.016.187.187,0,0,0,.1-.246l-.667-1.541-.744.859a.187.187,0,1,0,.283.245l.354-.408.431.994A.187.187,0,0,0,279.322,149.6Z" transform="translate(-278.038 -147.801)" fill="#fff"/>
          </g>
        </g>
        <path id="Path_23" data-name="Path 23" d="M234.147,170.187l24.373-14.071-.01-28.143-24.363,14.071Z" transform="translate(-209.775 -106.866)" fill="#e0e0e0"/>
        <path id="Path_24" data-name="Path 24" d="M269.259,135.772,244.9,121.693l2.755-1.591,24.359,14.079Z" transform="translate(-234.023 -106.866)" fill="#fff"/>
        <path id="Path_25" data-name="Path 25" d="M246.575,144.108l-8.721,5.036a3.828,3.828,0,0,0-1.732,3v5.381c0,1.105.776,1.552,1.732,1l8.723-5.036a3.829,3.829,0,0,0,1.732-3v-5.381C248.307,144,247.532,143.556,246.575,144.108Z" transform="translate(-201.537 -106.866)" fill="#80c19c"/>
        <g id="Group_14" data-name="Group 14" transform="translate(45.383 38.587)">
          <path id="Path_26" data-name="Path 26" d="M237.509,145.454l-.331.191v5.976l.331-.191Z" transform="translate(-237.178 -145.454)" fill="#80c19c"/>
        </g>
        <g id="Group_15" data-name="Group 15" transform="translate(43.794 39.366)">
          <path id="Path_27" data-name="Path 27" d="M239.1,146.232l-.571.336v5.976l.571-.336Z" transform="translate(-238.527 -146.232)" fill="#80c19c"/>
        </g>
        <g id="Group_16" data-name="Group 16" transform="translate(42.685 40.144)">
          <path id="Path_28" data-name="Path 28" d="M240.207,147.01l-.331.191v5.976l.331-.191Z" transform="translate(-239.876 -147.01)" fill="#80c19c"/>
        </g>
        <g id="Group_17" data-name="Group 17" transform="translate(41.335 40.721)">
          <path id="Path_29" data-name="Path 29" d="M241.556,147.587l-.663.393v5.976l.663-.393Z" transform="translate(-240.893 -147.587)" fill="#80c19c"/>
        </g>
        <g id="Group_18" data-name="Group 18" transform="translate(39.986 41.701)">
          <path id="Path_30" data-name="Path 30" d="M242.906,148.568l-.331.191v5.976l.331-.191Z" transform="translate(-242.574 -148.568)" fill="#80c19c"/>
        </g>
        <g id="Group_19" data-name="Group 19" transform="translate(38.637 42.25)">
          <path id="Path_31" data-name="Path 31" d="M244.255,149.116l-.709.422v5.976l.709-.421Z" transform="translate(-243.546 -149.116)" fill="#80c19c"/>
        </g>
        <g id="Group_20" data-name="Group 20" transform="translate(37.288 43.258)">
          <path id="Path_32" data-name="Path 32" d="M245.6,150.125l-.331.191v5.976l.331-.191Z" transform="translate(-245.272 -150.125)" fill="#80c19c"/>
        </g>
        <g id="Group_21" data-name="Group 21" transform="translate(36.684 43.696)">
          <path id="Path_33" data-name="Path 33" d="M246.208,150.563l-.166.1v5.976l.166-.1Z" transform="translate(-246.042 -150.563)" fill="#80c19c"/>
        </g>
        <g id="Group_22" data-name="Group 22" transform="translate(38.069 42.933)">
          <path id="Path_34" data-name="Path 34" d="M244.823,149.8l-.166.1v5.976l.166-.1Z" transform="translate(-244.657 -149.799)" fill="#80c19c"/>
        </g>
        <g id="Group_23" data-name="Group 23" transform="translate(40.787 41.341)">
          <path id="Path_35" data-name="Path 35" d="M242.105,148.207l-.166.1v5.976l.166-.1Z" transform="translate(-241.94 -148.207)" fill="#80c19c"/>
        </g>
        <g id="Group_24" data-name="Group 24" transform="translate(42.275 40.487)">
          <path id="Path_36" data-name="Path 36" d="M240.617,147.353l-.166.1v5.976l.166-.1Z" transform="translate(-240.451 -147.353)" fill="#80c19c"/>
        </g>
        <g id="Group_25" data-name="Group 25" transform="translate(43.344 39.897)">
          <path id="Path_37" data-name="Path 37" d="M239.548,146.763l-.166.1v5.976l.166-.1Z" transform="translate(-239.382 -146.763)" fill="#80c19c"/>
        </g>
        <g id="Group_26" data-name="Group 26" transform="translate(44.793 39.017)">
          <path id="Path_38" data-name="Path 38" d="M238.1,145.883l-.166.1v5.976l.165-.1Z" transform="translate(-237.933 -145.883)" fill="#80c19c"/>
        </g>
        <g id="Group_27" data-name="Group 27" transform="translate(35.939 44.037)">
          <path id="Path_39" data-name="Path 39" d="M246.953,150.9l-.331.191v5.976l.331-.191Z" transform="translate(-246.621 -150.903)" fill="#80c19c"/>
        </g>
        <path id="Path_40" data-name="Path 40" d="M193.526,123.283l28.434-16.416L250.4,123.283,221.961,139.7Z" transform="translate(-161.029 -106.866)" fill="#f5f5f5"/>
        <path id="Path_41" data-name="Path 41" d="M235.453,132.662l-28.434-16.417,2.757-1.59,28.433,16.416Z" transform="translate(-162.335 -106.866)" fill="#fff"/>
        <path id="Path_42" data-name="Path 42" d="M250.4,191.294l-28.435-16.417v-51.6L250.4,139.7Z" transform="translate(-189.464 -106.866)" fill="#ebebeb"/>
        <path id="Path_43" data-name="Path 43" d="M227.5,181.959a.728.728,0,0,0,.366-.1,1.113,1.113,0,0,0,.457-1.012v-3.208l-.152.027-2.338-1.373v3.333a2.7,2.7,0,0,0,1.151,2.176A1.037,1.037,0,0,0,227.5,181.959Zm.448-3.868v2.76a.768.768,0,0,1-.269.687.517.517,0,0,1-.507-.056,2.359,2.359,0,0,1-.964-1.852v-.244h.865l.171-1.17Zm-1.2.92h-.541v-2.058l1.394.818-.69.124Z" transform="translate(-171.264 -106.866)" fill="#fff"/>
        <path id="Path_44" data-name="Path 44" d="M227.079,184.336a.187.187,0,0,0,.187-.187v-2.505a.188.188,0,1,0-.375,0v2.505A.188.188,0,0,0,227.079,184.336Z" transform="translate(-171.265 -106.866)" fill="#fff"/>
        <path id="Path_45" data-name="Path 45" d="M228.167,184.965a.188.188,0,0,0,.094-.35l-2.177-1.257a.188.188,0,0,0-.188.325l2.177,1.257A.2.2,0,0,0,228.167,184.965Z" transform="translate(-171.265 -106.866)" fill="#fff"/>
        <path id="Path_46" data-name="Path 46" d="M234.146,180.651a.4.4,0,0,0,.2-.053.5.5,0,0,0,.225-.451v-.513a.188.188,0,1,0-.375,0v.513c0,.077-.022.118-.035.126s-.059.006-.124-.032a1.1,1.1,0,0,1-.348-.848v-3.331a.188.188,0,1,0-.375,0v3.331a1.431,1.431,0,0,0,.533,1.171A.59.59,0,0,0,234.146,180.651Z" transform="translate(-185.001 -106.866)" fill="#fff"/>
        <path id="Path_47" data-name="Path 47" d="M236.756,177.738v-.325a5.31,5.31,0,0,0-2.4-4.154,1.587,1.587,0,0,0-2.585,1.493v.109Zm-3.521-4.444a1.91,1.91,0,0,1,.935.29,4.955,4.955,0,0,1,2.193,3.494l-4.214-2.433a1.388,1.388,0,0,1,.579-1.222A1,1,0,0,1,233.235,173.294Z" transform="translate(-185.636 -106.866)" fill="#fff"/>
        <path id="Path_48" data-name="Path 48" d="M240.481,176.812a.187.187,0,0,0,.187-.187v-6.38a.188.188,0,1,0-.375,0v6.38A.188.188,0,0,0,240.481,176.812Z" transform="translate(-198.069 -106.866)" fill="#fff"/>
        <path id="Path_49" data-name="Path 49" d="M241.029,171.7a.18.18,0,0,0,.075-.015.188.188,0,0,0,.1-.247l-.667-1.54-.744.859a.187.187,0,0,0,.283.245l.354-.408.431.994A.184.184,0,0,0,241.029,171.7Z" transform="translate(-198.069 -106.866)" fill="#fff"/>
        <path id="Path_50" data-name="Path 50" d="M242.213,175.824a.188.188,0,0,0,.188-.188v-6.38a.188.188,0,0,0-.375,0v6.38A.188.188,0,0,0,242.213,175.824Z" transform="translate(-201.535 -106.866)" fill="#fff"/>
        <path id="Path_51" data-name="Path 51" d="M242.764,170.711a.192.192,0,0,0,.074-.015.187.187,0,0,0,.1-.247l-.667-1.541-.744.859a.187.187,0,1,0,.283.245l.353-.408.431.995A.187.187,0,0,0,242.764,170.711Z" transform="translate(-201.538 -106.866)" fill="#fff"/>
        <path id="Path_52" data-name="Path 52" d="M193.526,191.295l28.434-16.416v-51.6L193.526,139.7Z" transform="translate(-132.595 -106.866)" fill="#e0e0e0"/>
        <path id="Path_53" data-name="Path 53" d="M208.033,164.149l-8.721,5.035a3.833,3.833,0,0,0-1.733,3v5.381c0,1.1.775,1.553,1.732,1l8.723-5.035a3.832,3.832,0,0,0,1.732-3v-5.381C209.765,164.044,208.99,163.6,208.033,164.149Z" transform="translate(-124.453 -106.866)" fill="#f5f5f5"/>
        <path id="Path_54" data-name="Path 54" d="M198.968,165.494l-.331.191v5.976l.331-.191Z" transform="translate(-114.712 -106.866)" fill="#e0e0e0"/>
        <path id="Path_55" data-name="Path 55" d="M200.556,166.272l-.571.336v5.976l.571-.336Z" transform="translate(-117.649 -106.866)" fill="#e0e0e0"/>
        <path id="Path_56" data-name="Path 56" d="M201.666,167.051l-.331.191v5.976l.331-.191Z" transform="translate(-120.108 -106.866)" fill="#e0e0e0"/>
        <path id="Path_57" data-name="Path 57" d="M203.015,167.627l-.663.393V174l.663-.393Z" transform="translate(-122.474 -106.866)" fill="#e0e0e0"/>
        <path id="Path_58" data-name="Path 58" d="M204.364,168.608l-.331.191v5.976l.331-.191Z" transform="translate(-125.504 -106.866)" fill="#e0e0e0"/>
        <path id="Path_59" data-name="Path 59" d="M205.713,169.156l-.709.422v5.976l.709-.421Z" transform="translate(-127.825 -106.866)" fill="#e0e0e0"/>
        <path id="Path_60" data-name="Path 60" d="M207.062,170.165l-.332.191v5.976l.331-.191Z" transform="translate(-130.901 -106.866)" fill="#e0e0e0"/>
        <path id="Path_61" data-name="Path 61" d="M207.666,170.6l-.166.1v5.976l.166-.1Z" transform="translate(-132.274 -106.866)" fill="#e0e0e0"/>
        <path id="Path_62" data-name="Path 62" d="M206.281,169.839l-.166.1v5.976l.166-.1Z" transform="translate(-129.505 -106.866)" fill="#e0e0e0"/>
        <path id="Path_63" data-name="Path 63" d="M203.564,168.248l-.166.1v5.976l.165-.1Z" transform="translate(-124.07 -106.866)" fill="#e0e0e0"/>
        <path id="Path_64" data-name="Path 64" d="M202.075,167.393l-.166.1v5.976l.165-.1Z" transform="translate(-121.093 -106.866)" fill="#e0e0e0"/>
        <path id="Path_65" data-name="Path 65" d="M201.006,166.8l-.166.1v5.976l.165-.1Z" transform="translate(-118.955 -106.866)" fill="#e0e0e0"/>
        <path id="Path_66" data-name="Path 66" d="M199.557,165.923l-.166.1V172l.166-.1Z" transform="translate(-116.056 -106.866)" fill="#e0e0e0"/>
        <path id="Path_67" data-name="Path 67" d="M208.411,170.943l-.331.191v5.976l.331-.191Z" transform="translate(-133.599 -106.866)" fill="#e0e0e0"/>
        <g id="Group_28" data-name="Group 28" transform="translate(73.118 24.204)">
          <path id="Path_68" data-name="Path 68" d="M209.774,137.729l-2.755,1.591v-6.658l2.755-1.591Z" transform="translate(-207.019 -131.071)" fill="#f0f0f0"/>
        </g>
      </g>
      <g id="Group_117" data-name="Group 117" transform="translate(117.799 37.524)">
        <g id="Group_30" data-name="Group 30" transform="translate(0 21.107)">
          <path id="Path_69" data-name="Path 69" d="M116.348,177.223,136.659,165.5l28.434,16.417L144.783,193.64Z" transform="translate(-116.348 -165.497)" fill="#f5f5f5"/>
        </g>
        <g id="Group_31" data-name="Group 31" transform="translate(0 32.833)">
          <path id="Path_70" data-name="Path 70" d="M165.093,240.544l-28.435-16.417v-46.9l28.435,16.417Z" transform="translate(-136.659 -177.223)" fill="#ebebeb"/>
        </g>
        <g id="Group_35" data-name="Group 35" transform="translate(22.041 81.157)">
          <g id="Group_32" data-name="Group 32" transform="translate(0.031)">
            <path id="Path_71" data-name="Path 71" d="M142.2,231.208a.732.732,0,0,0,.365-.1,1.114,1.114,0,0,0,.457-1.011v-3.209l-.153.027-2.337-1.372v3.332a2.694,2.694,0,0,0,1.151,2.177A1.047,1.047,0,0,0,142.2,231.208Zm.447-3.868V230.1a.765.765,0,0,1-.27.686.52.52,0,0,1-.507-.056,2.361,2.361,0,0,1-.963-1.852v-.244h.865l.171-1.17Zm-1.2.92h-.541V226.2l1.394.818-.69.124Z" transform="translate(-140.531 -225.547)" fill="#fff"/>
          </g>
          <g id="Group_33" data-name="Group 33" transform="translate(1.088 5.158)">
            <path id="Path_72" data-name="Path 72" d="M141.777,233.586a.188.188,0,0,0,.187-.188v-2.5a.188.188,0,1,0-.375,0v2.5A.188.188,0,0,0,141.777,233.586Z" transform="translate(-141.589 -230.705)" fill="#fff"/>
          </g>
          <g id="Group_34" data-name="Group 34" transform="translate(0 7.036)">
            <path id="Path_73" data-name="Path 73" d="M142.866,234.214a.187.187,0,0,0,.093-.35l-2.177-1.257a.189.189,0,0,0-.256.069.186.186,0,0,0,.068.256l2.178,1.257A.184.184,0,0,0,142.866,234.214Z" transform="translate(-140.5 -232.583)" fill="#fff"/>
          </g>
        </g>
        <g id="Group_38" data-name="Group 38" transform="translate(13.639 77.778)">
          <g id="Group_36" data-name="Group 36" transform="translate(2.181 2.955)">
            <path id="Path_74" data-name="Path 74" d="M148.845,229.9a.4.4,0,0,0,.2-.053.5.5,0,0,0,.224-.45v-.514a.188.188,0,0,0-.375,0v.514c0,.077-.021.117-.035.125a.16.16,0,0,1-.123-.032,1.1,1.1,0,0,1-.348-.848v-3.331a.188.188,0,1,0-.375,0v3.331a1.427,1.427,0,0,0,.534,1.171A.581.581,0,0,0,148.845,229.9Z" transform="translate(-148.017 -225.123)" fill="#fff"/>
          </g>
          <g id="Group_37" data-name="Group 37" transform="translate(0)">
            <path id="Path_75" data-name="Path 75" d="M151.454,226.987v-.325a5.307,5.307,0,0,0-2.4-4.153A1.587,1.587,0,0,0,146.471,224v.108Zm-3.52-4.444a1.909,1.909,0,0,1,.934.291,4.955,4.955,0,0,1,2.194,3.494l-4.214-2.433a1.385,1.385,0,0,1,.579-1.223A1,1,0,0,1,147.934,222.543Z" transform="translate(-146.471 -222.168)" fill="#fff"/>
          </g>
        </g>
        <g id="Group_45" data-name="Group 45" transform="translate(7.444 73.768)">
          <g id="Group_41" data-name="Group 41" transform="translate(1.734 0.988)">
            <g id="Group_39" data-name="Group 39" transform="translate(0.549 0.16)">
              <path id="Path_76" data-name="Path 76" d="M155.178,226.062a.188.188,0,0,0,.188-.188v-6.38a.188.188,0,1,0-.375,0v6.38A.188.188,0,0,0,155.178,226.062Z" transform="translate(-154.991 -219.306)" fill="#fff"/>
            </g>
            <g id="Group_40" data-name="Group 40" transform="translate(0)">
              <path id="Path_77" data-name="Path 77" d="M155.728,220.949a.173.173,0,0,0,.074-.016.186.186,0,0,0,.1-.246l-.667-1.541-.744.859a.187.187,0,1,0,.283.245l.354-.408.43.994A.188.188,0,0,0,155.728,220.949Z" transform="translate(-154.443 -219.146)" fill="#fff"/>
            </g>
          </g>
          <g id="Group_44" data-name="Group 44" transform="translate(0)">
            <g id="Group_42" data-name="Group 42" transform="translate(0.55 0.16)">
              <path id="Path_78" data-name="Path 78" d="M156.913,225.073a.187.187,0,0,0,.187-.187v-6.38a.188.188,0,1,0-.375,0v6.38A.188.188,0,0,0,156.913,225.073Z" transform="translate(-156.725 -218.318)" fill="#fff"/>
            </g>
            <g id="Group_43" data-name="Group 43" transform="translate(0)">
              <path id="Path_79" data-name="Path 79" d="M157.462,219.96a.192.192,0,0,0,.074-.015.187.187,0,0,0,.1-.247l-.667-1.54-.744.858a.187.187,0,1,0,.283.246l.353-.408.431.993A.187.187,0,0,0,157.462,219.96Z" transform="translate(-156.177 -218.158)" fill="#fff"/>
            </g>
          </g>
        </g>
        <g id="Group_46" data-name="Group 46" transform="translate(28.435 37.524)">
          <path id="Path_80" data-name="Path 80" d="M116.348,240.544l20.309-11.726v-46.9L116.348,193.64Z" transform="translate(-116.348 -181.914)" fill="#e0e0e0"/>
        </g>
        <g id="Group_47" data-name="Group 47" transform="translate(36.559 42.968)">
          <path id="Path_81" data-name="Path 81" d="M128.534,194.017l-2.755,1.591v-6.658l2.755-1.591Z" transform="translate(-125.779 -187.359)" fill="#f5f5f5"/>
        </g>
        <g id="Group_48" data-name="Group 48" transform="translate(8.125 26.553)">
          <path id="Path_82" data-name="Path 82" d="M154.213,188.95l-28.434-16.417,2.757-1.59,28.433,16.415Z" transform="translate(-125.779 -170.943)" fill="#fff"/>
        </g>
        <g id="Group_49" data-name="Group 49" transform="translate(36.559 51.595)">
          <path id="Path_83" data-name="Path 83" d="M55.417,217.092l36.559-21.107,36.558,21.107L91.976,238.2Z" transform="translate(-55.417 -195.985)" fill="#f5f5f5"/>
        </g>
        <g id="Group_50" data-name="Group 50" transform="translate(36.559 72.702)">
          <path id="Path_84" data-name="Path 84" d="M128.534,266.342,91.976,245.235V217.092L128.535,238.2Z" transform="translate(-91.976 -217.092)" fill="#ebebeb"/>
        </g>
        <g id="Group_54" data-name="Group 54" transform="translate(66.724 106.955)">
          <g id="Group_51" data-name="Group 51" transform="translate(0.031)">
            <path id="Path_85" data-name="Path 85" d="M97.516,257.007a.729.729,0,0,0,.366-.1,1.115,1.115,0,0,0,.457-1.012V252.69l-.152.028-2.338-1.373v3.332A2.7,2.7,0,0,0,97,256.853,1.033,1.033,0,0,0,97.516,257.007Zm.448-3.869v2.76a.767.767,0,0,1-.269.687.522.522,0,0,1-.507-.056,2.363,2.363,0,0,1-.964-1.852v-.245h.865l.171-1.168Zm-1.2.919h-.541V252l1.395.819-.691.123Z" transform="translate(-95.849 -251.345)" fill="#fff"/>
          </g>
          <g id="Group_52" data-name="Group 52" transform="translate(1.089 5.159)">
            <path id="Path_86" data-name="Path 86" d="M97.093,259.384a.188.188,0,0,0,.188-.188v-2.505a.188.188,0,0,0-.375,0V259.2A.188.188,0,0,0,97.093,259.384Z" transform="translate(-96.906 -256.504)" fill="#fff"/>
          </g>
          <g id="Group_53" data-name="Group 53" transform="translate(0 7.033)">
            <path id="Path_87" data-name="Path 87" d="M98.182,260.012a.188.188,0,0,0,.094-.35L96.1,258.4a.184.184,0,0,0-.256.069.187.187,0,0,0,.069.255l2.177,1.257A.181.181,0,0,0,98.182,260.012Z" transform="translate(-95.818 -258.378)" fill="#fff"/>
          </g>
        </g>
        <g id="Group_57" data-name="Group 57" transform="translate(58.322 103.576)">
          <g id="Group_55" data-name="Group 55" transform="translate(2.181 2.956)">
            <path id="Path_88" data-name="Path 88" d="M104.16,255.7a.4.4,0,0,0,.205-.053.5.5,0,0,0,.225-.451v-.513a.188.188,0,1,0-.375,0v.513c0,.077-.021.117-.036.126s-.059,0-.122-.032a1.1,1.1,0,0,1-.349-.848v-3.331a.188.188,0,0,0-.375,0v3.331a1.427,1.427,0,0,0,.532,1.17A.585.585,0,0,0,104.16,255.7Z" transform="translate(-103.333 -250.922)" fill="#fff"/>
          </g>
          <g id="Group_56" data-name="Group 56" transform="translate(0)">
            <path id="Path_89" data-name="Path 89" d="M106.771,252.786v-.325a5.31,5.31,0,0,0-2.4-4.155,1.587,1.587,0,0,0-2.586,1.493v.109Zm-3.521-4.445a1.91,1.91,0,0,1,.936.291,4.95,4.95,0,0,1,2.192,3.494l-4.213-2.434a1.385,1.385,0,0,1,.579-1.222A1,1,0,0,1,103.25,248.341Z" transform="translate(-101.788 -247.966)" fill="#fff"/>
          </g>
        </g>
        <g id="Group_64" data-name="Group 64" transform="translate(52.128 99.565)">
          <g id="Group_60" data-name="Group 60" transform="translate(1.733 0.989)">
            <g id="Group_58" data-name="Group 58" transform="translate(0.55 0.16)">
              <path id="Path_90" data-name="Path 90" d="M110.5,251.859a.187.187,0,0,0,.187-.187v-6.38a.188.188,0,1,0-.375,0v6.38A.188.188,0,0,0,110.5,251.859Z" transform="translate(-110.308 -245.104)" fill="#fff"/>
            </g>
            <g id="Group_59" data-name="Group 59" transform="translate(0)">
              <path id="Path_91" data-name="Path 91" d="M111.045,246.747a.176.176,0,0,0,.074-.016.186.186,0,0,0,.1-.246l-.667-1.541-.744.859a.186.186,0,0,0,.018.264.188.188,0,0,0,.265-.019l.353-.408.431.994A.188.188,0,0,0,111.045,246.747Z" transform="translate(-109.76 -244.944)" fill="#fff"/>
            </g>
          </g>
          <g id="Group_63" data-name="Group 63" transform="translate(0)">
            <g id="Group_61" data-name="Group 61" transform="translate(0.549 0.161)">
              <path id="Path_92" data-name="Path 92" d="M112.23,250.871a.188.188,0,0,0,.187-.188V244.3a.188.188,0,0,0-.375,0v6.38A.188.188,0,0,0,112.23,250.871Z" transform="translate(-112.042 -244.116)" fill="#fff"/>
            </g>
            <g id="Group_62" data-name="Group 62" transform="translate(0)">
              <path id="Path_93" data-name="Path 93" d="M112.778,245.758a.2.2,0,0,0,.075-.015.188.188,0,0,0,.1-.247l-.667-1.541-.744.859a.187.187,0,1,0,.283.245l.354-.408.431.994A.185.185,0,0,0,112.778,245.758Z" transform="translate(-111.493 -243.955)" fill="#fff"/>
            </g>
          </g>
        </g>
        <g id="Group_65" data-name="Group 65" transform="translate(73.117 72.702)">
          <path id="Path_94" data-name="Path 94" d="M55.418,266.342l36.559-21.107V217.092L55.418,238.2Z" transform="translate(-55.418 -217.092)" fill="#e0e0e0"/>
        </g>
        <g id="Group_66" data-name="Group 66" transform="translate(90.019 82.46)">
          <path id="Path_95" data-name="Path 95" d="M75.075,233.509,72.319,235.1v-6.658l2.755-1.591Z" transform="translate(-72.319 -226.85)" fill="#f5f5f5"/>
        </g>
        <g id="Group_67" data-name="Group 67" transform="translate(53.461 61.353)">
          <path id="Path_96" data-name="Path 96" d="M108.878,228.442,72.319,207.335l2.755-1.591,36.558,21.107Z" transform="translate(-72.319 -205.743)" fill="#fff"/>
        </g>
        <path id="Path_97" data-name="Path 97" d="M69.933,234.508l-8.721,5.036a3.833,3.833,0,0,0-1.733,3v5.381c0,1.1.775,1.552,1.732,1l8.723-5.035a3.832,3.832,0,0,0,1.732-3v-5.382C71.665,234.4,70.89,233.956,69.933,234.508Z" transform="translate(33.948 -144.39)" fill="#f5f5f5"/>
        <g id="Group_68" data-name="Group 68" transform="translate(104.226 91.463)">
          <path id="Path_98" data-name="Path 98" d="M60.867,235.854l-.331.191v5.976l.331-.191Z" transform="translate(-60.536 -235.854)" fill="#e0e0e0"/>
        </g>
        <g id="Group_69" data-name="Group 69" transform="translate(102.637 92.242)">
          <path id="Path_99" data-name="Path 99" d="M62.456,236.632l-.571.336v5.976l.571-.336Z" transform="translate(-61.885 -236.632)" fill="#e0e0e0"/>
        </g>
        <g id="Group_70" data-name="Group 70" transform="translate(101.528 93.021)">
          <path id="Path_100" data-name="Path 100" d="M63.566,237.411l-.331.191v5.976l.331-.191Z" transform="translate(-63.234 -237.411)" fill="#e0e0e0"/>
        </g>
        <g id="Group_71" data-name="Group 71" transform="translate(100.179 93.597)">
          <path id="Path_101" data-name="Path 101" d="M64.915,237.987l-.663.393v5.976l.663-.393Z" transform="translate(-64.251 -237.987)" fill="#e0e0e0"/>
        </g>
        <g id="Group_72" data-name="Group 72" transform="translate(98.83 94.577)">
          <path id="Path_102" data-name="Path 102" d="M66.264,238.968l-.331.191v5.976l.331-.191Z" transform="translate(-65.932 -238.968)" fill="#e0e0e0"/>
        </g>
        <g id="Group_73" data-name="Group 73" transform="translate(97.481 95.126)">
          <path id="Path_103" data-name="Path 103" d="M67.613,239.516l-.709.422v5.976l.709-.421Z" transform="translate(-66.904 -239.516)" fill="#e0e0e0"/>
        </g>
        <g id="Group_74" data-name="Group 74" transform="translate(96.132 96.135)">
          <path id="Path_104" data-name="Path 104" d="M68.962,240.525l-.331.191v5.976l.331-.191Z" transform="translate(-68.63 -240.525)" fill="#e0e0e0"/>
        </g>
        <g id="Group_75" data-name="Group 75" transform="translate(95.528 96.573)">
          <path id="Path_105" data-name="Path 105" d="M69.566,240.963l-.166.1v5.976l.166-.1Z" transform="translate(-69.4 -240.963)" fill="#e0e0e0"/>
        </g>
        <g id="Group_76" data-name="Group 76" transform="translate(96.912 95.809)">
          <path id="Path_106" data-name="Path 106" d="M68.181,240.2l-.166.1v5.976l.166-.1Z" transform="translate(-68.015 -240.199)" fill="#e0e0e0"/>
        </g>
        <g id="Group_77" data-name="Group 77" transform="translate(99.63 94.217)">
          <path id="Path_107" data-name="Path 107" d="M65.464,238.607l-.166.1v5.976l.166-.1Z" transform="translate(-65.298 -238.607)" fill="#e0e0e0"/>
        </g>
        <g id="Group_78" data-name="Group 78" transform="translate(101.118 93.363)">
          <path id="Path_108" data-name="Path 108" d="M63.975,237.753l-.166.1v5.976l.166-.1Z" transform="translate(-63.81 -237.753)" fill="#e0e0e0"/>
        </g>
        <g id="Group_79" data-name="Group 79" transform="translate(102.187 92.773)">
          <path id="Path_109" data-name="Path 109" d="M62.906,237.163l-.166.1v5.976l.166-.1Z" transform="translate(-62.741 -237.163)" fill="#e0e0e0"/>
        </g>
        <g id="Group_80" data-name="Group 80" transform="translate(103.636 91.893)">
          <path id="Path_110" data-name="Path 110" d="M61.457,236.283l-.166.1v5.976l.166-.1Z" transform="translate(-61.291 -236.283)" fill="#e0e0e0"/>
        </g>
        <g id="Group_81" data-name="Group 81" transform="translate(94.782 96.913)">
          <path id="Path_111" data-name="Path 111" d="M70.311,241.3l-.331.191v5.976l.331-.191Z" transform="translate(-69.98 -241.303)" fill="#e0e0e0"/>
        </g>
        <g id="Group_82" data-name="Group 82" transform="translate(44.683)">
          <path id="Path_112" data-name="Path 112" d="M63.542,160.807,91.976,144.39l28.434,16.416L91.976,177.223Z" transform="translate(-63.542 -144.39)" fill="#f5f5f5"/>
        </g>
        <g id="Group_83" data-name="Group 83" transform="translate(44.683 16.416)">
          <path id="Path_113" data-name="Path 113" d="M120.41,233.508,91.976,217.092V160.806l28.435,16.417Z" transform="translate(-91.976 -160.806)" fill="#ebebeb"/>
        </g>
        <g id="Group_87" data-name="Group 87" transform="translate(66.724 74.121)">
          <g id="Group_84" data-name="Group 84" transform="translate(0.031)">
            <path id="Path_114" data-name="Path 114" d="M97.516,224.173a.728.728,0,0,0,.366-.1,1.115,1.115,0,0,0,.457-1.012v-3.208l-.152.027-2.338-1.373v3.333A2.7,2.7,0,0,0,97,224.02,1.031,1.031,0,0,0,97.516,224.173Zm.448-3.868v2.76a.765.765,0,0,1-.269.687.517.517,0,0,1-.507-.056,2.363,2.363,0,0,1-.964-1.852V221.6h.865l.171-1.169Zm-1.2.919h-.541v-2.058l1.395.819-.691.124Z" transform="translate(-95.849 -218.511)" fill="#fff"/>
          </g>
          <g id="Group_85" data-name="Group 85" transform="translate(1.089 5.159)">
            <path id="Path_115" data-name="Path 115" d="M97.093,226.551a.188.188,0,0,0,.188-.188v-2.505a.188.188,0,1,0-.375,0v2.505A.188.188,0,0,0,97.093,226.551Z" transform="translate(-96.906 -223.67)" fill="#fff"/>
          </g>
          <g id="Group_86" data-name="Group 86" transform="translate(0 7.036)">
            <path id="Path_116" data-name="Path 116" d="M98.182,227.179a.188.188,0,0,0,.094-.35L96.1,225.572a.187.187,0,1,0-.187.325l2.177,1.257A.189.189,0,0,0,98.182,227.179Z" transform="translate(-95.818 -225.547)" fill="#fff"/>
          </g>
        </g>
        <g id="Group_90" data-name="Group 90" transform="translate(58.322 70.743)">
          <g id="Group_88" data-name="Group 88" transform="translate(2.181 2.955)">
            <path id="Path_117" data-name="Path 117" d="M104.16,222.865a.409.409,0,0,0,.205-.053.5.5,0,0,0,.225-.45v-.515a.188.188,0,0,0-.375,0v.515c0,.076-.021.116-.035.124s-.06.007-.124-.032a1.1,1.1,0,0,1-.348-.847v-3.331a.188.188,0,1,0-.375,0v3.331a1.431,1.431,0,0,0,.533,1.171A.587.587,0,0,0,104.16,222.865Z" transform="translate(-103.333 -218.088)" fill="#fff"/>
          </g>
          <g id="Group_89" data-name="Group 89" transform="translate(0)">
            <path id="Path_118" data-name="Path 118" d="M106.771,219.952v-.325a5.306,5.306,0,0,0-2.4-4.153,1.587,1.587,0,0,0-2.586,1.492v.108Zm-3.521-4.444a1.91,1.91,0,0,1,.936.291,4.95,4.95,0,0,1,2.192,3.493l-4.213-2.433a1.385,1.385,0,0,1,.579-1.222A1,1,0,0,1,103.25,215.508Z" transform="translate(-101.788 -215.133)" fill="#fff"/>
          </g>
        </g>
        <g id="Group_97" data-name="Group 97" transform="translate(52.128 66.732)">
          <g id="Group_93" data-name="Group 93" transform="translate(1.733 0.989)">
            <g id="Group_91" data-name="Group 91" transform="translate(0.55 0.16)">
              <path id="Path_119" data-name="Path 119" d="M110.5,219.026a.187.187,0,0,0,.187-.187v-6.38a.188.188,0,1,0-.375,0v6.38A.188.188,0,0,0,110.5,219.026Z" transform="translate(-110.308 -212.271)" fill="#fff"/>
            </g>
            <g id="Group_92" data-name="Group 92" transform="translate(0)">
              <path id="Path_120" data-name="Path 120" d="M111.045,213.914a.176.176,0,0,0,.074-.016.186.186,0,0,0,.1-.246l-.667-1.541-.744.859a.186.186,0,0,0,.018.264.189.189,0,0,0,.265-.019l.353-.408.431.994A.188.188,0,0,0,111.045,213.914Z" transform="translate(-109.76 -212.111)" fill="#fff"/>
            </g>
          </g>
          <g id="Group_96" data-name="Group 96" transform="translate(0)">
            <g id="Group_94" data-name="Group 94" transform="translate(0.549 0.161)">
              <path id="Path_121" data-name="Path 121" d="M112.23,218.037a.187.187,0,0,0,.187-.187v-6.38a.188.188,0,0,0-.375,0v6.38A.188.188,0,0,0,112.23,218.037Z" transform="translate(-112.042 -211.283)" fill="#fff"/>
            </g>
            <g id="Group_95" data-name="Group 95" transform="translate(0)">
              <path id="Path_122" data-name="Path 122" d="M112.778,212.925a.181.181,0,0,0,.075-.016.186.186,0,0,0,.1-.246l-.667-1.541-.744.859a.187.187,0,0,0,.283.245l.354-.408.431.994A.185.185,0,0,0,112.778,212.925Z" transform="translate(-111.493 -211.122)" fill="#fff"/>
            </g>
          </g>
        </g>
        <g id="Group_98" data-name="Group 98" transform="translate(73.117 16.416)">
          <path id="Path_123" data-name="Path 123" d="M63.542,233.509l28.434-16.416V160.806L63.542,177.223Z" transform="translate(-63.542 -160.806)" fill="#e0e0e0"/>
        </g>
        <g id="Group_99" data-name="Group 99" transform="translate(85.304 24.204)">
          <path id="Path_124" data-name="Path 124" d="M79.79,175.253l-2.755,1.591v-6.659l2.755-1.591Z" transform="translate(-77.034 -168.595)" fill="#f5f5f5"/>
        </g>
        <g id="Group_100" data-name="Group 100" transform="translate(56.869 7.789)">
          <path id="Path_125" data-name="Path 125" d="M105.469,170.186,77.034,153.769l2.757-1.59,28.433,16.416Z" transform="translate(-77.034 -152.179)" fill="#fff"/>
        </g>
        <g id="Group_101" data-name="Group 101" transform="translate(85.312 61.736)">
          <path id="Path_126" data-name="Path 126" d="M78.049,206.363,69.327,211.4a3.832,3.832,0,0,0-1.732,3v5.381c0,1.1.775,1.553,1.732,1l8.722-5.035a3.829,3.829,0,0,0,1.732-3v-5.381C79.781,206.258,79.005,205.81,78.049,206.363Z" transform="translate(-67.595 -206.126)" fill="#f5f5f5"/>
        </g>
        <g id="Group_116" data-name="Group 116" transform="translate(86.667 63.318)">
          <g id="Group_102" data-name="Group 102" transform="translate(9.444)">
            <path id="Path_127" data-name="Path 127" d="M68.983,207.708l-.331.191v5.976l.331-.191Z" transform="translate(-68.651 -207.708)" fill="#e0e0e0"/>
          </g>
          <g id="Group_103" data-name="Group 103" transform="translate(7.855 0.779)">
            <path id="Path_128" data-name="Path 128" d="M70.572,208.486l-.571.336V214.8l.571-.336Z" transform="translate(-70 -208.486)" fill="#e0e0e0"/>
          </g>
          <g id="Group_104" data-name="Group 104" transform="translate(6.745 1.557)">
            <path id="Path_129" data-name="Path 129" d="M71.681,209.265l-.331.191v5.976l.331-.191Z" transform="translate(-71.35 -209.265)" fill="#e0e0e0"/>
          </g>
          <g id="Group_105" data-name="Group 105" transform="translate(5.396 2.134)">
            <path id="Path_130" data-name="Path 130" d="M73.03,209.841l-.663.393v5.976l.663-.393Z" transform="translate(-72.367 -209.841)" fill="#e0e0e0"/>
          </g>
          <g id="Group_106" data-name="Group 106" transform="translate(4.047 3.114)">
            <path id="Path_131" data-name="Path 131" d="M74.379,210.822l-.332.192v5.976l.331-.191Z" transform="translate(-74.048 -210.822)" fill="#e0e0e0"/>
          </g>
          <g id="Group_107" data-name="Group 107" transform="translate(2.698 3.663)">
            <path id="Path_132" data-name="Path 132" d="M75.728,211.37l-.709.421v5.976l.709-.422Z" transform="translate(-75.019 -211.37)" fill="#e0e0e0"/>
          </g>
          <g id="Group_108" data-name="Group 108" transform="translate(1.349 4.671)">
            <path id="Path_133" data-name="Path 133" d="M77.077,212.379l-.331.191v5.976l.331-.191Z" transform="translate(-76.746 -212.379)" fill="#e0e0e0"/>
          </g>
          <g id="Group_109" data-name="Group 109" transform="translate(0.745 5.109)">
            <path id="Path_134" data-name="Path 134" d="M77.681,212.817l-.166.1v5.976l.166-.1Z" transform="translate(-77.515 -212.817)" fill="#e0e0e0"/>
          </g>
          <g id="Group_110" data-name="Group 110" transform="translate(2.13 4.346)">
            <path id="Path_135" data-name="Path 135" d="M76.3,212.053l-.166.1v5.976l.165-.1Z" transform="translate(-76.131 -212.053)" fill="#e0e0e0"/>
          </g>
          <g id="Group_111" data-name="Group 111" transform="translate(4.847 2.754)">
            <path id="Path_136" data-name="Path 136" d="M73.579,210.462l-.166.1v5.976l.166-.1Z" transform="translate(-73.413 -210.462)" fill="#e0e0e0"/>
          </g>
          <g id="Group_112" data-name="Group 112" transform="translate(6.336 1.9)">
            <path id="Path_137" data-name="Path 137" d="M72.091,209.607l-.166.1v5.976l.166-.1Z" transform="translate(-71.925 -209.607)" fill="#e0e0e0"/>
          </g>
          <g id="Group_113" data-name="Group 113" transform="translate(7.405 1.31)">
            <path id="Path_138" data-name="Path 138" d="M71.022,209.017l-.166.1v5.976l.166-.1Z" transform="translate(-70.856 -209.017)" fill="#e0e0e0"/>
          </g>
          <g id="Group_114" data-name="Group 114" transform="translate(8.854 0.43)">
            <path id="Path_139" data-name="Path 139" d="M69.573,208.137l-.166.1v5.976l.166-.1Z" transform="translate(-69.407 -208.137)" fill="#e0e0e0"/>
          </g>
          <g id="Group_115" data-name="Group 115" transform="translate(0 5.45)">
            <path id="Path_140" data-name="Path 140" d="M78.426,213.157l-.331.191v5.976l.331-.191Z" transform="translate(-78.095 -213.157)" fill="#e0e0e0"/>
          </g>
        </g>
      </g>
    </g>
    <g id="Group_3240" data-name="Group 3240" transform="translate(99.127 149.264)">
      <path id="Path_8316" data-name="Path 8316" d="M291.127,409.867c-.026-7.22,10.178-13.113,22.785-13.159s22.85,5.778,22.876,13S326.614,422.815,314,422.863,291.155,417.086,291.127,409.867Z" transform="translate(-191.336 -213.264)" fill="#f0f0f0"/>
      <path id="Path_8317" data-name="Path 8317" d="M413.29,339.315c12.612-.043,22.85,5.78,22.878,13s-10.176,13.109-22.789,13.158-22.847-5.778-22.872-13S400.682,339.362,413.29,339.315Z" transform="translate(-390.096 -213.264)" fill="#f0f0f0"/>
      <g id="Group_3160" data-name="Group 3160" transform="translate(6.59 126.189)">
        <path id="Path_8318" data-name="Path 8318" d="M313.344,365.471c12.613-.049,22.817-5.94,22.789-13.158a9.448,9.448,0,0,0-3.43-6.86l96.286,55.59-31.814,18.368-99.524-57.46A33.514,33.514,0,0,0,313.344,365.471Z" transform="translate(-297.651 -345.453)" fill="#f0f0f0"/>
      </g>
      <g id="Group_3173" data-name="Group 3173">
        <path id="Path_8344" data-name="Path 8344" d="M322.041,291.526c.464-.27,1.225.168,1.7.981s.48,1.688.015,1.958-1.225-.168-1.7-.979S321.576,291.8,322.041,291.526Z" transform="translate(-210.214 -219.264)" fill="#000405"/>
        <rect id="Rectangle_139" data-name="Rectangle 139" width="3.403" height="15.411" transform="translate(100.187 82.907) rotate(-120.008)" fill="#000405"/>
        <path id="Path_8345" data-name="Path 8345" d="M401.475,324.811l-5.451,3.058,20.351,34.548,5.275-2.948Z" transform="translate(-382.094 -219.264)" fill="#0a2b38"/>
        <path id="Path_8346" data-name="Path 8346" d="M396.024,324.811c5.481-3.191,14.442,1.982,20.013,11.551s5.639,19.917.162,23.107-14.44-1.981-20.015-11.553S390.545,328,396.024,324.811Z" transform="translate(-376.643 -219.264)" fill="#0a2b38"/>
        <path id="Path_8347" data-name="Path 8347" d="M401.3,327.76c5.48-3.192,14.441,1.981,20.015,11.55s5.639,19.918.16,23.107-14.44-1.981-20.016-11.553S395.82,330.95,401.3,327.76Z" transform="translate(-387.194 -219.264)" fill="#000405"/>
        <path id="Path_8348" data-name="Path 8348" d="M404.911,334.221c3.436-2,9.056,1.242,12.551,7.244s3.535,12.491.1,14.492-9.056-1.243-12.554-7.245S401.474,336.221,404.911,334.221Z" transform="translate(-386.894 -219.264)" fill="#7b8a8e"/>
        <path id="Path_8349" data-name="Path 8349" d="M408.048,339.613c1.732-1.009,4.565.626,6.326,3.65s1.781,6.294.05,7.3-4.562-.627-6.324-3.652S406.318,340.621,408.048,339.613Z" transform="translate(-386.894 -219.264)" fill="#3f4a4c"/>
        <path id="Path_8350" data-name="Path 8350" d="M431.822,357.426c-1.648-1.368-32.377-9.09-30.727-18.438s11.811-18.451,9.062-19.549-30.468-12.529-37.936-11.823c-11.524,1.091-26.082,6.819-27.369,18.834-.2,1.808,23.141,17.844,27.006,21.1.818.69,3.753,1.354,4.176,2.459,1.395,3.639-.951,9.168,2.972,11.7,13.561,8.759,30.12,17.262,35.824,17.869,10.222,1.09,14-12.593,17.033-23.31Z" transform="translate(-341.135 -219.264)" fill="#80c19c"/>
        <path id="Path_8351" data-name="Path 8351" d="M355.62,352.287s3.041-1.76,4.37-2.276l41.955,24.175c3.732.723,3.794,6.284,1.8,5.457S355.62,352.287,355.62,352.287Z" transform="translate(-325.091 -219.264)" fill="#b6bc83"/>
        <path id="Path_8352" data-name="Path 8352" d="M332.687,341.627s3.041-1.76,4.37-2.276l41.957,24.173c3.731.725,3.792,6.286,1.8,5.459S332.687,341.627,332.687,341.627Z" transform="translate(-279.226 -219.264)" fill="#b6bc83"/>
        <path id="Path_8353" data-name="Path 8353" d="M352.843,326.45c2.858-1.639,11.1-4.594,11.1-4.594h0c-1.919.225-6.311,7.743-7.047,16.63-.873,10.556,20.705,16.9,26.454,18.94,4.5,5.4,2.911,1.446,2.8,1.7V360.9c-.476,1.68-3.731-1.2-4.266.56-2.15,5.083-4.164,9.676-4.523,9.9-.817.513-16.4-5.353-28.882-13.692S342.821,332.2,352.843,326.45Z" transform="translate(-292.665 -219.264)" fill="#b6bc83"/>
        <path id="Path_8354" data-name="Path 8354" d="M420.872,347.552c-.278.364-4.22.475-6.239-.6-7.4-3.937-18.086-15.867-19.049-17.554-1.227-2.147-.585-9.026,12.062-12.672C418.27,313.665,444.793,316.181,420.872,347.552Z" transform="translate(-390.149 -219.264)" fill="#9bc08c"/>
        <path id="Path_8355" data-name="Path 8355" d="M422.448,347.73c-1.288,1.688-20.837-13.832-22.051-15.954s-4.382-9.583,8.12-13.186C419.018,315.563,446.092,316.722,422.448,347.73Z" transform="translate(-395.415 -219.264)" fill="#b6bc83"/>
        <path id="Path_8356" data-name="Path 8356" d="M412.864,257.978l-22.715,13.116,22.715,13.113,22.715-13.113Z" transform="translate(-390.149 -219.264)" fill="#80c19c"/>
        <path id="Path_8357" data-name="Path 8357" d="M390.149,284.207v26.229l22.715-13.115V271.094Z" transform="translate(-367.435 -219.264)" fill="#526d60"/>
        <path id="Path_8358" data-name="Path 8358" d="M415.682,287.022v-9.132l14.33,8.273V295.3Z" transform="translate(-410.114 -219.264)" fill="#7d9baa"/>
        <path id="Path_8359" data-name="Path 8359" d="M435.579,284.207v26.229l-22.715-13.115V271.094Z" transform="translate(-412.864 -219.264)" fill="#68967e"/>
        <path id="Path_8360" data-name="Path 8360" d="M408.563,315.167a15.921,15.921,0,0,1,.02,4.72c-.5,3.16-8.442,6.2-10.461,7.506a5.205,5.205,0,0,1-3.351.476c-6.568-1.522-26.958-13.412-31.03-18.039-1.966-2.233-1.535-4.063-.448-5.714s10.022-7.094,14.463-7.094C380.634,297.022,406.479,310.259,408.563,315.167Z" transform="translate(-335.542 -219.264)" fill="#9bc08c"/>
        <g id="Group_3169" data-name="Group 3169" transform="translate(35.438)">
          <path id="Path_8361" data-name="Path 8361" d="M350.979,257.74c4,8.3,11.062,22.321,15.8,21.716,1.211-.154,3.811-5.343,2.435-7.962-3.212-6.128-6.176-14.464-8.678-19.65-4-8.292-6.748-8.77-9.674-7.357S346.979,249.447,350.979,257.74Z" transform="translate(-317.776 -219.264)" fill="#e2b48a"/>
          <path id="Path_8362" data-name="Path 8362" d="M333.613,279.476c5.9,5.947,18.322,15.17,20.335,13.09.755-.78,3.572-2.963,2.01-5.131-2.457-3.408-12.614-9.458-17.5-15.941a3.921,3.921,0,0,0-5.953-.293C330.49,273.282,329.438,275.269,333.613,279.476Z" transform="translate(-287.019 -219.264)" fill="#e2b48a"/>
          <path id="Path_8363" data-name="Path 8363" d="M338.087,347.6c-.99.2-1.542,1.528-1.962,2.31a3.224,3.224,0,0,0,.442,3.9c1.254,1.443,3.8,1.44,4.788,2.427a52.708,52.708,0,0,0,7.626,4.758c1.438.776,4.611.863,5.6-.394a4.2,4.2,0,0,0-.164-3.974,39.474,39.474,0,0,1-3.85-4.146,14.478,14.478,0,0,1-2.021-2.229c-.415-.55-1.954-3.219-2.882-2.549Z" transform="translate(-290.53 -219.264)" fill="#1e160d"/>
          <path id="Path_8364" data-name="Path 8364" d="M345.292,311.186c4.366,1.394,8.168,3.927,12.411,5.647,5.03,2.039,10.065,6.026,15.662,6.271,1.688.077,5.041-.854,6.27-3.62.709-1.6,2.055-5.131.882-5.49-1.225-.375-2.718-2.336-3.73-2.827-1.89-.917-12.833-6.994-16.3-9.064-2.829-1.689-4.653-2.618-7.865-4.344,0,0-5.574-3.964-8.425,3.505S344.661,310.982,345.292,311.186Z" transform="translate(-323.895 -219.264)" fill="#3d4642"/>
          <path id="Path_8365" data-name="Path 8365" d="M364.455,318.995c4.365,1.393,8.166,3.927,12.409,5.647,5.031,2.039,10.066,6.027,15.663,6.271,1.688.076,5.041-.853,6.269-3.62.71-1.6,2.056-5.133.882-5.489-1.223-.375-2.718-2.336-3.73-2.829-1.889-.916-12.833-6.994-16.3-9.063-2.83-1.689-4.654-2.618-7.865-4.345,0,0-11.569-6.3-14.422,1.169S363.822,318.791,364.455,318.995Z" transform="translate(-356.823 -219.264)" fill="#3d4642"/>
          <path id="Path_8366" data-name="Path 8366" d="M343.819,318.844c.441-2.906.088-5.212.141-8.446.038-2.381,12.631.193,12.864,5.958,0,0-2.335,22.471-.68,29.577l.216,1.188a1.768,1.768,0,0,1-.469,1.831,7.648,7.648,0,0,1-2.835,1.423c-2.206.528-5.157.307-6.7-1.353C342.559,344.957,342.341,328.6,343.819,318.844Z" transform="translate(-299.653 -219.264)" fill="#3d4642"/>
          <path id="Path_8367" data-name="Path 8367" d="M354.314,357.137c-.988.2-1.541,1.525-1.962,2.307a3.057,3.057,0,0,0,.441,3.9c.517.5,3.8,1.439,4.789,2.428a53.869,53.869,0,0,0,6.317,4.462,9.024,9.024,0,0,0,3.289,1.356c1.445.134,3.435-.175,4.423-1.431.714-.912.761-1.946.158-2.462-2.1-1.808-3.014-3.678-4.338-5.04a24.215,24.215,0,0,1-2.663-2.871c-.413-.549-1.95-3.219-2.879-2.548Z" transform="translate(-323.897 -219.264)" fill="#1e160d"/>
          <path id="Path_8368" data-name="Path 8368" d="M358.333,328.272c.678-2.861.514-5.19.833-8.409.234-2.371,12.973-1.161,12.737,4.606,0,0-4.572,24.592-3.509,31.81l.121,1.2a1.77,1.77,0,0,1-.615,1.789,7.848,7.848,0,0,1-2.945,1.186c-2.244.346-5.164-.124-6.569-1.9C354.936,354.193,356.061,337.874,358.333,328.272Z" transform="translate(-327.96 -219.264)" fill="#3d4642"/>
          <g id="Group_3168" data-name="Group 3168" transform="translate(0.501 19.152)">
            <g id="Group_3167" data-name="Group 3167">
              <path id="Path_8369" data-name="Path 8369" d="M379.8,247.81c-.732.153-8.472,4.045-11.909,7.947-2.524,2.863-2.834,9.626-2.8,10.518.1,2.889-5.229,26.858-5.229,29.5,0,2.455-.756,9.777-.534,10.963.74,3.933,11.007,3.149,12.978,3.032,6.351-.376,14.33-5.18,13.673-8.287-1.894-8.915,8.86-29.1,9.679-32.274s7.008-19.449,2.122-23.778a8.806,8.806,0,0,0-5.287-1.749C387.084,243.942,380.712,247.619,379.8,247.81Z" transform="translate(-359.287 -238.416)" fill="#68967e"/>
              <path id="Path_8370" data-name="Path 8370" d="M372.933,245.076c.128.159,5.857-.136,9.325,3.812s2.517,3.334,2.517,3.334l-2.442-.795s-1.5,5.554-2.646,6.987l-9.163-1.86-.741,4.493s-7.541-8.34-6.539-10.491C365.652,245.38,371.642,243.458,372.933,245.076Z" transform="translate(-348.407 -238.416)" fill="#e2b48a"/>
              <path id="Path_8371" data-name="Path 8371" d="M377.144,246.341s3.646,2.732,3.837,3.625c.164.762-.011,8.448-.011,8.448-.025-.411-5.223-.865-10.005-4.4-.522-.386-5.774-4.287,0-6.965Z" transform="translate(-349.69 -238.416)" fill="#f28f8f"/>
              <path id="Path_8372" data-name="Path 8372" d="M367.625,254.084a16.808,16.808,0,0,0,6.3-.66,6.377,6.377,0,0,0,3.613-3.458.029.029,0,0,1,.006.014,12.608,12.608,0,0,1-.017,8.434c0-.009.008.01,0,0A21.966,21.966,0,0,1,367.625,254.084Z" transform="translate(-346.249 -238.416)" fill="#fff"/>
              <path id="Path_8373" data-name="Path 8373" d="M371.328,238.416c0,2.549.426,3.838.076,6.9a26.069,26.069,0,0,0-.554,3.591c0,2.322,2.523,3.316,3.8,3.975,1.171.608,5.975-1.008,5.7-2.647-.228-1.324.05-3.26-.408-4.569-.506-1.448-1.874-2.236-1.874-3.749Z" transform="translate(-351.573 -238.416)" fill="#f28f8f"/>
            </g>
          </g>
          <path id="Path_8374" data-name="Path 8374" d="M379.022,228.832a17.438,17.438,0,0,0,.921,4.091,2.624,2.624,0,0,1-.038,2.09,5.588,5.588,0,0,0-.036,3.781,9.315,9.315,0,0,1-.482,4.75c-.333,1.209-.5,2.634-1.588,3.378-2.7,1.854-5.772-.076-8.534-1-2.735-.919-2.347-4.866-3.223-7.115-1.582-4.06-.522-9.783,3.953-11.615,2-.82,5.311-1.247,7.379-.49.719.267,2.151,1.833,1.5,2.616Z" transform="translate(-345.351 -219.264)" fill="#ffa8a7"/>
          <path id="Path_8375" data-name="Path 8375" d="M369.657,222.748c2.631-2.4,7.955-1.651,12.308.338,2.172.992,2.7,3.984,2.7,3.984.487.826-1.855,2.6-2.458,2.919a9.5,9.5,0,0,1-3.946.934,17.814,17.814,0,0,1-2.554-.029,12.1,12.1,0,0,0-1.873-.218c-1.3.139-1.306,1.866-1.534,2.894a15.7,15.7,0,0,0-.549,2.5c-.031.422.727,5.109.063,5.232-.91.168-4.572-4.127-4.827-6.535C366.823,233.173,365.008,226.983,369.657,222.748Z" transform="translate(-351.097 -219.264)" fill="url(#linear-gradient)"/>
          <path id="Path_8376" data-name="Path 8376" d="M378.781,238.457c.606,1.5,1.63,2.5,2.29,2.232a2.591,2.591,0,0,0,.75-3.2c-.6-1.5-2.29-2.49-2.945-2.223S378.174,236.958,378.781,238.457Z" transform="translate(-360.264 -219.264)" fill="#f7b0c4"/>
          <path id="Path_8377" data-name="Path 8377" d="M382.288,268.853c1.132,9.14,3.673,27.957,6.9,27.558,1.212-.15,4.965-8.213,4.5-11.135-1.075-6.836.25-13.228-.455-18.941-1.131-9.139-3.578-10.471-6.8-10.072S381.158,259.713,382.288,268.853Z" transform="translate(-375.558 -219.264)" fill="#e2b48a"/>
          <path id="Path_8378" data-name="Path 8378" d="M370.213,296.416c3.68,7.527,12.838,21.343,15.413,20.019.965-.495,4.291-1.828,3.505-4.381-1.232-4.016-7.778-14.841-11.365-22.747-.786-1.733-3.642-8.243-6.216-6.918S367.61,291.092,370.213,296.416Z" transform="translate(-357.922 -219.264)" fill="#e2b48a"/>
          <path id="Path_8379" data-name="Path 8379" d="M384.895,225.963s-1.334-4.188-3.862-5.223c-3.011-1.234-7.536-1.9-8.99-1.175-1.983.992-3.865,2.156-4.654,4.55a10.878,10.878,0,0,0-.51,5.668.518.518,0,0,0,.17.439c1.149.993,5.318,4.047,8.4,3.314a38.42,38.42,0,0,1,4.455-.783Z" transform="translate(-351.471 -219.264)" fill="#3d4642"/>
          <path id="Path_8380" data-name="Path 8380" d="M370.527,225.963s-.571-.758-4.208,1.206c-2.321,1.255-6.5,5.714-5.6,6.657,1.507,1.579,5.458,1.739,7.573.858,2.559-1.065,3.689-5.6,7.731-5.084,2.912.371-2.559-3.071-5.289-3.637Z" transform="translate(-337.314 -219.264)" fill="#526d60"/>
        </g>
        <path id="Path_8381" data-name="Path 8381" d="M335.383,299.221c.466-.272,1.226.168,1.7.979s.477,1.69.014,1.96-1.224-.168-1.7-.98S334.919,299.491,335.383,299.221Z" transform="translate(-236.9 -219.264)" fill="#000405"/>
        <path id="Path_8382" data-name="Path 8382" d="M333.844,296.689c1.562-.91,4.118.566,5.7,3.291s1.607,5.676.046,6.585-4.114-.563-5.7-3.292S332.283,297.6,333.844,296.689Z" transform="translate(-237.86 -219.264)" fill="#80c19c"/>
        <path id="Path_8383" data-name="Path 8383" d="M386.085,315.186c-1.535-2.748-20.779,2.584-25.452,7.532s-6.617,19.593-4.674,24.632c7.423,19.245-1.474,29.064-6.6,28.746l-42.167-23.809a55.225,55.225,0,0,1,4.3,6.843c2.19,4.348,48.306,33.459,59.433,32.06,4.881-.611,30.433-7.8,33.488-22.956C409.017,345.424,387.007,316.839,386.085,315.186Z" transform="translate(-276.664 -219.264)" fill="#80c19c"/>
        <path id="Path_8384" data-name="Path 8384" d="M309.321,378.049l-5.452,3.058,20.35,34.549,5.276-2.948Z" transform="translate(-197.785 -219.264)" fill="#0a2b38"/>
        <path id="Path_8385" data-name="Path 8385" d="M303.87,378.049c5.48-3.191,14.441,1.982,20.014,11.552s5.637,19.916.16,23.106-14.439-1.982-20.016-11.555S298.391,381.238,303.87,378.049Z" transform="translate(-192.334 -219.264)" fill="#0a2b38"/>
        <g id="Group_3170" data-name="Group 3170" transform="translate(102.196 161.293)">
          <path id="Path_8386" data-name="Path 8386" d="M313.816,380.571c2.349.238,6.265,2.639,9.787,4.84a32.657,32.657,0,0,1,5.556,7.138c5.571,9.572,5.639,19.918.161,23.106s-14.44-1.981-20.014-11.552c-3.257-5.594-4.632-11.455-4.12-15.994C307.4,385.578,310.591,380.245,313.816,380.571Z" transform="translate(-305.082 -380.557)" fill="#000405"/>
        </g>
        <path id="Path_8387" data-name="Path 8387" d="M312.906,387.457c3.437-2,9.059,1.244,12.552,7.245s3.537,12.491.1,14.493-9.055-1.244-12.553-7.246S309.47,389.459,312.906,387.457Z" transform="translate(-202.886 -219.264)" fill="#7b8a8e"/>
        <path id="Path_8388" data-name="Path 8388" d="M316.045,392.851c1.732-1.009,4.564.626,6.325,3.649s1.781,6.3.05,7.3-4.562-.626-6.324-3.653S314.314,393.858,316.045,392.851Z" transform="translate(-202.886 -219.264)" fill="#3f4a4c"/>
        <path id="Path_8389" data-name="Path 8389" d="M335.143,382.7c-.029,1.159-2.212,8.537-10.511,6.388-2.929-.758-12.253-8.093-16.482-8.521s-8.4,8.883-10.39,8.832c-1-.025,5.136-3.175,8.183-17.788,0,0,8.365-8.894,13.64-7.875C326.694,365.112,335.389,372.865,335.143,382.7Z" transform="translate(-197.22 -219.264)" fill="#b6bc83"/>
        <path id="Path_8390" data-name="Path 8390" d="M330.346,316.628s12.462,13.737,14.686,26.987c0,0,1.487,5.126-2.71,6.4-5.089,1.539-5.588-3.6-5.588-3.6-3.7-11.954-13.166-25.5-14.7-27.188Z" transform="translate(-231.741 -219.264)" fill="#b6bc83"/>
        <path id="Path_8391" data-name="Path 8391" d="M360.213,312.125c0,.18.285,10.792-7.171,9.644s-22.972-.171-23.545-2.047-.257-12-.257-12c-.575-.86,15.32-11.056,16.467-10.483s15.31,7.648,14.506,13.951Z" transform="translate(-253.82 -219.264)" fill="#80c19c"/>
        <path id="Path_8392" data-name="Path 8392" d="M338.075,306.5a9.782,9.782,0,0,1,4.82,1.262c-2.7-1.347-6.95,1.175-9.617,5.756-2.686,4.619-2.758,9.6-.2,11.243h0a9.72,9.72,0,0,1-4.852-8.413A9.848,9.848,0,0,1,338.075,306.5Z" transform="translate(-235.543 -219.264)" fill="#595959"/>
        <path id="Path_8393" data-name="Path 8393" d="M337.922,307.856c-2.685-1.562-7.074.972-9.8,5.66s-2.762,9.756-.079,11.319,7.073-.971,9.8-5.659S340.606,309.42,337.922,307.856Z" transform="translate(-230.383 -219.264)" fill="#7b8a8e"/>
        <path id="Path_8394" data-name="Path 8394" d="M337.03,309.507c-2.164-1.261-5.7.781-7.9,4.558s-2.226,7.862-.062,9.12,5.7-.782,7.9-4.559S339.192,310.766,337.03,309.507Z" transform="translate(-230.515 -219.264)" fill="#fff"/>
        <path id="Path_8395" data-name="Path 8395" d="M358.032,310.959c1.561-.909,4.115.564,5.7,3.292s1.607,5.676.047,6.585-4.114-.564-5.7-3.292S356.468,311.868,358.032,310.959Z" transform="translate(-286.232 -219.264)" fill="#80c19c"/>
        <path id="Path_8396" data-name="Path 8396" d="M357.182,307.717s-1.144,2.781-3.62,3.242,5.749,9.877,5.749,9.877,2.939-1.917,4.933-.873Z" transform="translate(-281.762 -219.264)" fill="#80c19c"/>
        <path id="Path_8397" data-name="Path 8397" d="M374.23,321.3c.464-.271,1.225.168,1.7.98s.478,1.691.014,1.961-1.225-.168-1.7-.981S373.764,321.573,374.23,321.3Z" transform="translate(-314.59 -219.264)" fill="#000405"/>
        <path id="Path_8398" data-name="Path 8398" d="M360.885,313.608c.464-.27,1.225.168,1.7.981s.48,1.687.013,1.958-1.224-.168-1.7-.979S360.421,313.879,360.885,313.608Z" transform="translate(-287.903 -219.264)" fill="#000405"/>
        <rect id="Rectangle_140" data-name="Rectangle 140" width="3.402" height="15.412" transform="matrix(-0.5, -0.866, 0.866, -0.5, 61.34, 104.986)" fill="#000405"/>
        <path id="Path_8399" data-name="Path 8399" d="M336.72,297.234a7.92,7.92,0,0,0,4.1-.545c2.427-1.271,2.875,6.48,2.875,6.48Z" transform="translate(-244.833 -219.264)" fill="#80c19c"/>
        <g id="Group_3171" data-name="Group 3171" transform="translate(96.548 54.199)">
          <path id="Path_8400" data-name="Path 8400" d="M329.349,298.7a.4.4,0,0,0,.4-.4l.008-3.295L339,274.022a.4.4,0,1,0-.729-.321l-9.307,21.136-.012,3.46a.4.4,0,0,0,.4.4Z" transform="translate(-328.949 -273.463)" fill="#231f20"/>
        </g>
        <g id="Group_3172" data-name="Group 3172" transform="translate(65.344 80.197)">
          <path id="Path_8401" data-name="Path 8401" d="M369.839,311.459a.4.4,0,0,0,.4-.4v-3.852l-9.288-7.656a.4.4,0,1,0-.5.613l9,7.418v3.477A.4.4,0,0,0,369.839,311.459Z" transform="translate(-360.296 -299.461)" fill="#231f20"/>
        </g>
        <path id="Path_8402" data-name="Path 8402" d="M331.813,267.485c-2.016-1.172-5.313.731-7.363,4.251s-2.073,7.328-.058,8.5,5.31-.728,7.362-4.25S333.829,268.66,331.813,267.485Z" transform="translate(-220.626 -219.264)" fill="#7b8a8e"/>
        <path id="Path_8403" data-name="Path 8403" d="M376.59,293.059c-2.016-1.174-5.313.728-7.363,4.25s-2.074,7.328-.059,8.5,5.311-.73,7.364-4.251S378.607,294.231,376.59,293.059Z" transform="translate(-310.18 -219.264)" fill="#7b8a8e"/>
        <path id="Path_8404" data-name="Path 8404" d="M324.2,288.7c1.732-.789,2.8,1.178,3.534,1.4,1.657.492,2.865.266,4.339,1.433a9.653,9.653,0,0,1,1.469,1.736,10.12,10.12,0,0,1,.9,2.172,4.221,4.221,0,0,1,.286,1.41,1.25,1.25,0,0,1-1.113.9c-.141.01-.453-.181-.533-.155-.079.413.04,1.15-1.157,1.361-1.09-.588-.612.438-1.2.691a1.033,1.033,0,0,1-1.521-.449s-.4,1.6-1.582,1.03c-.764-.37-.17-1.161-.349-2.023a4.472,4.472,0,0,0-2.772-2.995c-.994-.432-1.132-.4-1.629-1.466-.156-.334-1.116-1.93-.739-3.116C322.492,289.458,324.2,288.7,324.2,288.7Z" transform="translate(-221.185 -219.264)" fill="#fed8a7"/>
      </g>
      <path id="Path_8428" data-name="Path 8428" d="M367.754,311.98c1.537,1.255,4.821,3.731,5.5,5.447.709,1.325.868,1.949.452,2.313-.52.455-.8.179-1.091.455-.2.193-.209.63-.621.909-.559.379-.885.046-1.2.316-.658.551-.191,1.387-1.53,1.074,0,0-.567-.1-.6.015-.179.005-.352.586-.617.647-.9.2-1.639-1.355-1.5-1.948A15.852,15.852,0,0,1,364.107,318a6.791,6.791,0,0,1-.194-4.054A2.847,2.847,0,0,1,367.754,311.98Z" transform="translate(-302.047 -219.264)" fill="#fed8a7"/>
    </g>
    <g id="Line" transform="translate(249.697 355.141)">
      <g id="Line-2" data-name="Line" transform="translate(0 0)">
        <g id="Arrow">
          <path id="Path_12-2" data-name="Path 12" d="M201.244,329.312l9.359,5.4-3.12,1.8h12.479v-7.2l-3.12,1.8-9.359-5.4Z" transform="translate(-201.244 -325.709)" fill="#80c19c"/>
        </g>
        <g id="Line-3" data-name="Line" transform="translate(21.07 11.84)">
          <g id="Group_15-2" data-name="Group 15">
            <path id="Path_13-2" data-name="Path 13" d="M230.757,343.435a.766.766,0,0,1-.383-.1l-2.328-1.345a.768.768,0,1,1,.768-1.33L231.143,342a.768.768,0,0,1-.385,1.433Z" transform="translate(-227.662 -340.555)" fill="#80c19c"/>
          </g>
          <g id="Group_16-2" data-name="Group 16" transform="translate(8.742 5.047)">
            <path id="Path_14-2" data-name="Path 14" d="M298.391,382.484a.758.758,0,0,1-.383-.1l-4.489-2.591a.768.768,0,0,1,.768-1.33l4.49,2.591a.768.768,0,0,1-.385,1.433Zm-10.9-6.294a.768.768,0,0,1-.384-.1l-4.489-2.592a.768.768,0,0,1,.768-1.331l4.489,2.592a.768.768,0,0,1-.384,1.433Zm-10.9-6.294a.764.764,0,0,1-.383-.1l-4.489-2.591a.768.768,0,0,1,.768-1.33l4.489,2.591a.768.768,0,0,1-.385,1.433Zm-10.9-6.294a.767.767,0,0,1-.383-.1l-4.489-2.592a.768.768,0,1,1,.768-1.33l4.489,2.592a.768.768,0,0,1-.385,1.433Zm-10.9-6.3a.761.761,0,0,1-.384-.1l-4.489-2.591a.768.768,0,1,1,.768-1.33l4.489,2.591a.768.768,0,0,1-.384,1.433Zm-10.9-6.294a.759.759,0,0,1-.383-.1l-4.489-2.592a.768.768,0,0,1,.768-1.33l4.489,2.592a.768.768,0,0,1-.385,1.433Z" transform="translate(-238.623 -346.883)" fill="#80c19c"/>
          </g>
        </g>
      </g>
    </g>
    <g id="Locator" transform="translate(323.468 351.128)">
      <g id="Group_122" data-name="Group 122" transform="translate(0)">
        <path id="Path_152" data-name="Path 152" d="M355.147,169.625l-.675-.39a19.073,19.073,0,0,1,.675,5.236v2.441c0,8.754-10.513,31.135-14.374,39.06-.4.828,4.909,6.477,4.909,6.477l-6.31-3.643S323.6,205.85,323.6,195.126v-2.44c0-10.724,7.062-23.5,15.774-28.525,4.392-2.535,8.364-2.617,11.224-.7v0l5.993,3.442Zm-7.888,8.2c0-5.029-3.531-7.068-7.887-4.553.353,3.228-5.542,13.292-7.887,13.661,0,5.03,3.531,7.068,7.887,4.554A17.435,17.435,0,0,0,347.259,177.822Z" transform="translate(-323.598 -162.128)" fill="#80c19c"/>
        <path id="Path_153" data-name="Path 153" d="M350.314,180.816c-.176,10.722-16.461,41.629-16.461,41.629s-15.56-13.213-15.384-23.936l.041-2.44c.176-10.722,7.448-23.375,16.241-28.261s15.779-.155,15.6,10.567Zm-7.9.781c.082-5.029-3.415-7.126-7.812-4.683a17.432,17.432,0,0,0-8.11,13.53c-.083,5.029,3.414,7.125,7.811,4.682A17.433,17.433,0,0,0,342.413,181.6Z" transform="translate(-312.235 -162.128)" fill="#80c19c"/>
        <path id="Path_154" data-name="Path 154" d="M350.314,180.816c-.176,10.722-16.461,41.629-16.461,41.629s-15.56-13.213-15.384-23.936l.041-2.44c.176-10.722,7.448-23.375,16.241-28.261s15.779-.155,15.6,10.567Zm-7.9.781c.082-5.029-3.415-7.126-7.812-4.683a17.432,17.432,0,0,0-8.11,13.53c-.083,5.029,3.414,7.125,7.811,4.682A17.433,17.433,0,0,0,342.413,181.6Z" transform="translate(-312.235 -162.128)" opacity="0.1"/>
      </g>
    </g>
    <g id="Group_18-2" data-name="Group 18" transform="translate(57.649 214.063)">
      <rect id="Rectangle_7" data-name="Rectangle 7" width="3.438" height="4.188" transform="translate(16.56 5.957) rotate(-79.523)" fill="#ebebeb"/>
      <path id="Path_36-2" data-name="Path 36" d="M97.067,294.293l4.8.888-.213,1.15c4.5,3.376,6.873,10.171,5.543,17.368s-5.979,12.692-11.387,14.237l-.212,1.15-4.8-.888c-7.328-1.355-11.865-10.044-10.134-19.406S89.739,292.937,97.067,294.293Z" transform="translate(-80.296 -289.484)" fill="#e0e0e0"/>
      <path id="Path_37-2" data-name="Path 37" d="M90.007,310.519c-1.731,9.362,2.806,18.051,10.134,19.406s14.673-5.136,16.4-14.5-2.806-18.051-10.134-19.406S91.738,301.156,90.007,310.519Z" transform="translate(-84.834 -290.323)" fill="#ebebeb"/>
      <path id="Path_38-2" data-name="Path 38" d="M95.419,314.378c-1.373,7.424,2.226,14.314,8.037,15.389s11.635-4.073,13.008-11.5-2.225-14.315-8.036-15.389S96.793,306.953,95.419,314.378Z" transform="translate(-87.5 -293.673)" fill="#f0f0f0"/>
      <g id="Group_17-2" data-name="Group 17" transform="translate(12.713 12.491)">
        <path id="Path_39-2" data-name="Path 39" d="M110.746,320.216a.654.654,0,0,1-.373-.117l-5.073-3.508a.656.656,0,0,1,.746-1.079l4.239,2.932,1.573-8.507a.656.656,0,0,1,1.29.238l-1.758,9.5a.656.656,0,0,1-.645.537Z" transform="translate(-105.018 -309.401)" fill="#e0e0e0"/>
      </g>
      <path id="Path_40-2" data-name="Path 40" d="M112.775,285.572l-.447,2.416a.568.568,0,0,0,.454.659l4.227.782a.567.567,0,0,0,.659-.454l.447-2.416a.568.568,0,0,0-.453-.659l-4.227-.782A.567.567,0,0,0,112.775,285.572Z" transform="translate(-95.852 -285.11)" fill="#e0e0e0"/>
      <path id="Path_41-2" data-name="Path 41" d="M116.111,286.189l-.447,2.416a.568.568,0,0,0,.454.659l2.511.464a.567.567,0,0,0,.659-.454l.447-2.416a.568.568,0,0,0-.453-.659l-2.512-.464A.567.567,0,0,0,116.111,286.189Z" transform="translate(-97.473 -285.41)" fill="#ebebeb"/>
    </g>
    <g id="Clouds" transform="translate(-79 23)">
      <g id="Clouds-2" data-name="Clouds">
        <path id="Path_54-2" data-name="Path 54" d="M317.794,72.831l7.445-4.3a7.124,7.124,0,0,1-.063-.913V65.463a13.3,13.3,0,0,1,6.018-10.424,4.691,4.691,0,0,1,3.587-.692c.544-5.455,4.331-11.624,8.929-14.279,4.973-2.871,9-.544,9,5.2v3.226a15.661,15.661,0,0,1-.762,4.618l6.183-3.57c1.844-1.064,3.338-.2,3.338,1.927a7.377,7.377,0,0,1-3.338,5.782L317.794,80.54c-1.843,1.065-3.338.2-3.338-1.927A7.379,7.379,0,0,1,317.794,72.831Z" fill="#bee1db"/>
        <path id="Path_55-2" data-name="Path 55" d="M282.121,122.836l5.619-3.243a5.382,5.382,0,0,1-.047-.689v-1.628a10.037,10.037,0,0,1,4.542-7.867,3.538,3.538,0,0,1,2.706-.523,15.191,15.191,0,0,1,6.74-10.776c3.752-2.167,6.8-.411,6.8,3.923v2.435a11.81,11.81,0,0,1-.576,3.485l4.667-2.694c1.391-.8,2.519-.153,2.519,1.454a5.569,5.569,0,0,1-2.519,4.364l-30.446,17.577c-1.391.8-2.519.153-2.519-1.454A5.571,5.571,0,0,1,282.121,122.836Z" fill="#bee1db"/>
      </g>
    </g>
  </g>
</svg>
