<svg xmlns="http://www.w3.org/2000/svg" xmlns:xlink="http://www.w3.org/1999/xlink" width="487.428" height="424.464" viewBox="0 0 487.428 424.464">
  <defs>
    <clipPath id="clip-path">
      <path id="Path_142" data-name="Path 142" d="M177.743,358.836l19.7-11.376a3.609,3.609,0,0,1,3.264,0l15.876,9.165a1,1,0,0,1,0,1.885l-19.7,11.375a3.605,3.605,0,0,1-3.265,0l-15.875-9.164A1,1,0,0,1,177.743,358.836Z" transform="translate(-177.067 -347.07)" fill="none"/>
    </clipPath>
  </defs>
  <g id="ecommerce" transform="translate(-6.286 -49.769)">
    <g id="Floor">
      <ellipse id="Floor-2" data-name="Floor" cx="243.714" cy="136.018" rx="243.714" ry="136.018" transform="translate(6.286 202.198)" fill="#e6efef"/>
    </g>
    <g id="Plant" transform="translate(384.007 251.535)">
      <g id="Plants" transform="translate(0 0)">
        <g id="Group_3" data-name="Group 3">
          <g id="Group_1" data-name="Group 1">
            <path id="Path_1" data-name="Path 1" d="M17.445,312.577c4.619-19.164,18.943-40.571,33.172-33.041S40.31,303.892,33.206,319.718c-6.226,13.869-13.2,32.686-14.823,37.129l-5.334-2.513C13.084,349.633,13.473,329.056,17.445,312.577Z" transform="translate(-13.048 -277.99)" fill="#80c19c"/>
            <path id="Path_2" data-name="Path 2" d="M17.445,312.577c4.619-19.164,18.943-40.571,33.172-33.041S40.31,303.892,33.206,319.718c-6.226,13.869-13.2,32.686-14.823,37.129l-5.334-2.513C13.084,349.633,13.473,329.056,17.445,312.577Z" transform="translate(-13.048 -277.99)" opacity="0.15"/>
          </g>
          <g id="Group_2" data-name="Group 2" transform="translate(3.681 4.623)">
            <path id="Path_3" data-name="Path 3" d="M24.637,353.742h-.014a.5.5,0,0,1-.5-.5C24.253,315.959,39.975,292.8,53.4,284.3a.5.5,0,0,1,.532.839c-13.212,8.365-28.686,31.223-28.811,68.106A.5.5,0,0,1,24.637,353.742Z" transform="translate(-24.128 -284.225)" fill="#fff"/>
          </g>
        </g>
        <g id="Group_4" data-name="Group 4" transform="translate(1.641 35.729)">
          <path id="Path_4" data-name="Path 4" d="M19.294,347.954c10.994-22.219,26.348-24.6,32.027-19.552,4.533,4.03,1.128,10.158-3.1,12.777-5.506,3.411-24.2,12.312-30.5,28.347l-4.152-1.957C13.719,364.7,14.591,357.457,19.294,347.954Z" transform="translate(-13.567 -326.18)" fill="#80c19c"/>
        </g>
        <g id="Group_5" data-name="Group 5" transform="translate(3.423 43.181)">
          <path id="Path_5" data-name="Path 5" d="M24.945,369.379a.625.625,0,0,1-.1-.01.528.528,0,0,1-.413-.621c3.633-18.04,20.823-30.562,29.425-32.5a.527.527,0,0,1,.233,1.028C45.722,339.16,29,351.362,25.461,368.956A.527.527,0,0,1,24.945,369.379Z" transform="translate(-24.418 -336.231)" fill="#fff"/>
        </g>
      </g>
    </g>
    <g id="Group_28" data-name="Group 28" transform="translate(-252 -73)">
      <path id="Path_83" data-name="Path 83" d="M582.441,367.457c36.7,20.3,59.581,36.054,58.571,45.247s-18.885,8.345-55.58-11.957-72.272-44.213-71.263-53.406S545.746,347.154,582.441,367.457Z" fill="#e0e0e0" fill-rule="evenodd"/>
      <path id="Path_84" data-name="Path 84" d="M538.071,337.1V138.569c0-14.753,9.944-19.022,19.611-13.444l69.4,40.045c12,6.927,17.588,18.863,17.588,34.865v195.1c0,13.6-9.575,19.233-19.243,13.654L555.66,368.537C545.993,362.959,538.071,350.7,538.071,337.1Z" fill="#2e3e45" fill-rule="evenodd"/>
      <path id="Path_85" data-name="Path 85" d="M604.026,389.272l-6.639,4.065,34.595,19.921,6.639-4.065Z" fill="#342054" fill-rule="evenodd"/>
      <path id="Path_86" data-name="Path 86" d="M544.017,124.368l-6.816,4.184,34.594,19.922,6.816-4.184Z" fill="#342054" fill-rule="evenodd"/>
      <path id="Path_87" data-name="Path 87" d="M531.309,341.247V142.716c0-14.753,9.944-19.022,19.611-13.443l69.4,40.045c12,6.927,17.588,18.862,17.588,34.865v195.1c0,13.6-9.575,19.234-19.243,13.655L548.9,372.685C539.23,367.106,531.309,354.852,531.309,341.247Z" fill="#455a64" fill-rule="evenodd"/>
      <path id="Path_88" data-name="Path 88" d="M533.935,339.332v-195.1c0-11.574,6.743-17.181,14.963-12.427l70.683,40.886c13.388,7.743,15.7,21.411,15.7,34.332V397.774c0,11.572-6.738,17.173-14.962,12.427L548.9,368.992C540.673,364.246,533.935,350.906,533.935,339.332Z" fill="#263238" fill-rule="evenodd" opacity="0.7"/>
      <path id="Path_89" data-name="Path 89" d="M642.52,213.262V202.851c0-1-.583-1.484-1.292-1.073l-3.02,1.752a3.1,3.1,0,0,0-1.356,2.964v10.035c0,1,.582,1.483,1.292,1.073l3.084-1.779A3.211,3.211,0,0,0,642.52,213.262Z" fill="#4c735d" fill-rule="evenodd"/>
      <path id="Path_90" data-name="Path 90" d="M642.52,247.318V223.04c0-1-.583-1.484-1.292-1.073l-3.02,1.751a3.1,3.1,0,0,0-1.356,2.965v23.9c0,1,.582,1.484,1.292,1.074l3.084-1.78A3.209,3.209,0,0,0,642.52,247.318Z" fill="#4c735d" fill-rule="evenodd"/>
      <path id="Path_91" data-name="Path 91" d="M642.041,201.718l1.19.694-4.646,15.975-1.265-.729Z" fill="#4c735d" fill-rule="evenodd"/>
      <path id="Path_92" data-name="Path 92" d="M642.037,221.9l1.19.694-4.616,29.86-1.265-.73Z" fill="#4c735d" fill-rule="evenodd"/>
      <path id="Path_93" data-name="Path 93" d="M643.788,213.993v-10.41c0-1-.583-1.484-1.292-1.073l-3.02,1.752a3.1,3.1,0,0,0-1.355,2.964v10.035c0,1,.581,1.483,1.292,1.073l3.083-1.779A3.211,3.211,0,0,0,643.788,213.993Z" fill="#6da485" fill-rule="evenodd"/>
      <path id="Path_94" data-name="Path 94" d="M643.788,248.05V223.772c0-1-.583-1.484-1.292-1.073l-3.02,1.751a3.1,3.1,0,0,0-1.355,2.965v23.9c0,1,.581,1.483,1.292,1.074l3.083-1.78A3.211,3.211,0,0,0,643.788,248.05Z" fill="#6da485" fill-rule="evenodd"/>
      <g id="Group_21" data-name="Group 21">
        <path id="Path_95" data-name="Path 95" d="M592.875,164.675c0-1.384.8-2.047,1.782-1.48a4.4,4.4,0,0,1,1.782,3.532c0,1.385-.8,2.047-1.782,1.48A4.406,4.406,0,0,1,592.875,164.675Z" fill="#263238" fill-rule="evenodd"/>
        <path id="Path_96" data-name="Path 96" d="M588.371,159.558c.042.021.085.043.128.068a4.408,4.408,0,0,1,1.782,3.533c0,1.384-.8,2.047-1.782,1.48-.045-.026-.089-.054-.133-.084l-13.788-7.962a4.407,4.407,0,0,1-1.782-3.533c0-1.384.8-2.047,1.782-1.48Z" fill="#263238" fill-rule="evenodd"/>
      </g>
      <path id="Path_97" data-name="Path 97" d="M537.734,140.942l92.129,53.474v195.76c0,5.291-3.082,7.854-6.843,5.684q-39.236-22.638-78.442-45.327c-3.762-2.17-6.844-8.272-6.844-13.567Z" fill="#cce6d7" fill-rule="evenodd"/>
      <path id="Path_98" data-name="Path 98" d="M545.614,227.7l32.906,19.1v47.886l-32.906-19.1Z" fill="#fff" fill-rule="evenodd"/>
      <path id="Path_99" data-name="Path 99" d="M585.011,250.571l5.509,3.2v8.017l-5.509-3.2Z" fill="#fa492a" fill-rule="evenodd"/>
      <path id="Path_100" data-name="Path 100" d="M600.471,305.809c0,.869-.507,1.291-1.126.934q-6.45-3.722-12.9-7.452a2.8,2.8,0,0,1-1.125-2.231v-4.8c0-.869.507-1.29,1.125-.934q6.45,3.721,12.9,7.452a2.8,2.8,0,0,1,1.126,2.231Z" fill="#80c19c" fill-rule="evenodd"/>
      <path id="Path_101" data-name="Path 101" d="M593.274,255.367l5.509,3.2v8.017l-5.509-3.2Z" fill="#fcda8f" fill-rule="evenodd"/>
      <path id="Path_102" data-name="Path 102" d="M601.538,260.163l5.509,3.2v8.017l-5.509-3.2Z" fill="#006be0" fill-rule="evenodd"/>
      <path id="Path_103" data-name="Path 103" d="M585.011,262.055l32.906,19.1v3.468l-32.906-19.1Z" fill="#fff" fill-rule="evenodd"/>
      <path id="Path_104" data-name="Path 104" d="M585.011,268.992l32.906,19.1v3.468l-32.906-19.1Z" fill="#fff" fill-rule="evenodd"/>
      <path id="Path_105" data-name="Path 105" d="M585.011,275.929l32.906,19.1V298.5l-32.906-19.1Z" fill="#fff" fill-rule="evenodd"/>
      <path id="Path_106" data-name="Path 106" d="M545.614,162.711l32.906,19.1V229.7l-32.906-19.1Z" fill="#fff" fill-rule="evenodd"/>
      <path id="Path_107" data-name="Path 107" d="M585.011,185.578l5.509,3.2v8.017l-5.509-3.2Z" fill="#fa492a" fill-rule="evenodd"/>
      <path id="Path_108" data-name="Path 108" d="M600.471,240.816c0,.87-.507,1.291-1.126.934q-6.45-3.722-12.9-7.452a2.8,2.8,0,0,1-1.125-2.23v-4.8c0-.87.507-1.291,1.125-.935q6.45,3.723,12.9,7.453a2.794,2.794,0,0,1,1.126,2.23Z" fill="#80c19c" fill-rule="evenodd"/>
      <path id="Path_109" data-name="Path 109" d="M593.274,190.374l5.509,3.2v8.017l-5.509-3.2Z" fill="#fa492a" fill-rule="evenodd"/>
      <path id="Path_110" data-name="Path 110" d="M601.538,195.171l5.509,3.2v8.017l-5.509-3.2Z" fill="#fa492a" fill-rule="evenodd"/>
      <path id="Path_111" data-name="Path 111" d="M585.011,197.062l32.906,19.1v3.469l-32.906-19.1Z" fill="#fff" fill-rule="evenodd"/>
      <path id="Path_112" data-name="Path 112" d="M585.011,204l32.906,19.1v3.468l-32.906-19.1Z" fill="#fff" fill-rule="evenodd"/>
      <path id="Path_113" data-name="Path 113" d="M585.011,210.936l32.906,19.1V233.5l-32.906-19.1Z" fill="#fff" fill-rule="evenodd"/>
      <g id="Group_22" data-name="Group 22">
        <path id="Path_114" data-name="Path 114" d="M567.567,250.857a20,20,0,0,0-8.733-4.923C555.541,253.977,566.854,258.287,567.567,250.857Z" fill="#c6aa80" fill-rule="evenodd"/>
        <path id="Path_115" data-name="Path 115" d="M573.648,257.594c1.06,1.627,1.94,5.483,2.622,9.633a3.374,3.374,0,0,1-5.016,1.02c-.412-2-.7-3.422-.7-3.422-1.395,4.24-.558,8.274-.713,14.575-4.411.962-16.527-7.042-17.854-9.232,1.247-2.964,1.325-11.477,1.048-14.756-.349.591-.756,1.35-1.2,2.2-3.056-.554-3.8-3.649-3.961-5.763,1.529-3.246,3.717-6.715,5.352-6.915,2.014-.245,3.868.377,5.978,1.127-.237,4.328,5.082,8.616,8.152,4.775A22.608,22.608,0,0,1,573.648,257.594Z" fill="#e2b48a" fill-rule="evenodd"/>
      </g>
      <path id="Path_116" data-name="Path 116" d="M585.011,315.563l5.509,3.2v8.017l-5.509-3.2Z" fill="#fa492a" fill-rule="evenodd"/>
      <path id="Path_117" data-name="Path 117" d="M593.274,320.36l5.509,3.2v8.017l-5.509-3.2Z" fill="#fcda8f" fill-rule="evenodd"/>
      <path id="Path_118" data-name="Path 118" d="M601.538,325.156l5.509,3.2v8.017l-5.509-3.2Z" fill="#006be0" fill-rule="evenodd"/>
      <path id="Path_119" data-name="Path 119" d="M585.011,327.047l32.906,19.1v3.469l-32.906-19.1Z" fill="#fff" fill-rule="evenodd"/>
      <path id="Path_120" data-name="Path 120" d="M585.011,333.984l32.906,19.1v3.468l-32.906-19.1Z" fill="#fff" fill-rule="evenodd"/>
      <path id="Path_121" data-name="Path 121" d="M585.011,340.922l32.906,19.1v3.468l-32.906-19.1Z" fill="#fff" fill-rule="evenodd"/>
      <g id="Group_23" data-name="Group 23">
        <path id="Path_122" data-name="Path 122" d="M538.071,141.138,499.3,172.526l18.32,10.634,38.775-31.389S538.964,141.653,538.071,141.138Z" fill="#80c19c" fill-rule="evenodd"/>
        <path id="Path_123" data-name="Path 123" d="M556.392,151.771,517.618,183.16l18.321,10.634,38.774-31.388S557.285,152.287,556.392,151.771Z" fill="#f9dbd9" fill-rule="evenodd"/>
        <path id="Path_124" data-name="Path 124" d="M574.713,162.406l-38.774,31.388,18.321,10.633,38.774-31.388S575.606,162.921,574.713,162.406Z" fill="#80c19c" fill-rule="evenodd"/>
        <path id="Path_125" data-name="Path 125" d="M593.034,173.039,554.26,204.427l18.321,10.635,38.775-31.389S593.927,173.554,593.034,173.039Z" fill="#f9dbd9" fill-rule="evenodd"/>
        <path id="Path_126" data-name="Path 126" d="M611.356,183.673l-38.775,31.389L590.9,225.7l38.775-31.388S612.248,184.188,611.356,183.673Z" fill="#80c19c" fill-rule="evenodd"/>
        <path id="Path_127" data-name="Path 127" d="M517.617,183.136v.024c.085,6.881-4.353,9.926-9.321,7.029s-8.991-10.809-9-17.686Z" fill="#80c19c" fill-rule="evenodd"/>
        <path id="Path_128" data-name="Path 128" d="M535.938,193.747v.023c.085,6.882-4.353,9.949-9.321,7.053s-8.991-10.809-9-17.687Z" fill="#f9dbd9" fill-rule="evenodd"/>
        <path id="Path_129" data-name="Path 129" d="M554.259,204.381v.023c.085,6.882-4.353,9.926-9.321,7.03s-8.992-10.81-9-17.687Z" fill="#80c19c" fill-rule="evenodd"/>
        <path id="Path_130" data-name="Path 130" d="M572.58,214.991v.024c.085,6.881-4.352,9.949-9.32,7.053s-8.991-10.81-9-17.687Z" fill="#f9dbd9" fill-rule="evenodd"/>
        <path id="Path_131" data-name="Path 131" d="M590.9,225.625v.024c.085,6.881-4.353,9.925-9.321,7.029s-8.992-10.81-9-17.687Z" fill="#80c19c" fill-rule="evenodd"/>
      </g>
      <path id="Path_132" data-name="Path 132" d="M545.614,292.7l32.906,19.1v47.886l-32.906-19.1Z" fill="#fff" fill-rule="evenodd"/>
      <g id="Group_25" data-name="Group 25">
        <g id="Group_24" data-name="Group 24">
          <path id="Path_133" data-name="Path 133" d="M570.494,321.836c2.177.817,5.179,2.45,5.484,4.9s-2.9,4.559-9.031,3.778c-3.661-.466-13.1-4.666-14.789-7.027a4.3,4.3,0,0,1-.351-2.647c.208-2.054,2.553-4.1,4.859-4.665C560.043,315.337,565.3,320,570.494,321.836Z" fill="#e2b48a" fill-rule="evenodd"/>
          <path id="Path_134" data-name="Path 134" d="M570.494,321.835c1.93.725,4.508,2.091,5.28,4.1-.613,2.018-3.712,3.673-8.937,3.007-3.661-.467-12.731-4.007-14.6-7.114a4.142,4.142,0,0,1-.417-.945c.384-2.412,1.513-5.193,5.149-5.291S565.3,320,570.494,321.835Z" fill="#fcda8f" fill-rule="evenodd"/>
          <path id="Path_135" data-name="Path 135" d="M572.541,322.769a6.845,6.845,0,0,1,3.233,3.161c-.526,2.538-3.6,4.321-8.937,3.007l-.156-.021A15.449,15.449,0,0,1,572.541,322.769Z" fill="#e2b48a" fill-rule="evenodd"/>
        </g>
        <path id="Path_136" data-name="Path 136" d="M553.348,317.159c-.737,1.075,1.334,2.627,3.566,3.092,3.126.652,5.985-2.19,4.4-3.3C559.543,315.711,555.176,314.495,553.348,317.159Z" fill="#e2b48a" fill-rule="evenodd"/>
        <path id="Path_137" data-name="Path 137" d="M567.076,324.791c-1.25-.6-6.5-4.553-9.832-4.484-1.217-.887,2.424-3.863,4.5-2.538-.044,2.293,6.089,4.047,7.355,4.885S568.888,325.5,567.076,324.791Z" fill="#ebc77b" fill-rule="evenodd"/>
        <path id="Path_138" data-name="Path 138" d="M568.117,320.783a15.938,15.938,0,0,0-8.9,1.535" fill="none" stroke="#fff" stroke-linecap="round" stroke-miterlimit="22.926" stroke-width="0.567" fill-rule="evenodd"/>
        <path id="Path_139" data-name="Path 139" d="M568.117,320.783c-1.023-.073-3.278,2.864-3.93,4.444" fill="none" stroke="#fff" stroke-linecap="round" stroke-miterlimit="22.926" stroke-width="0.567" fill-rule="evenodd"/>
        <path id="Path_140" data-name="Path 140" d="M565.253,319.118a8.808,8.808,0,0,0-3.583,4.587" fill="none" stroke="#fff" stroke-linecap="round" stroke-miterlimit="22.926" stroke-width="0.567" fill-rule="evenodd"/>
        <path id="Path_141" data-name="Path 141" d="M570.494,321.835c-1.686-.256-5.493.332-8.74,1.883" fill="none" stroke="#fff" stroke-linecap="round" stroke-miterlimit="22.926" stroke-width="0.567" fill-rule="evenodd"/>
      </g>
      <g id="Group_27" data-name="Group 27">
        <g id="Group_26" data-name="Group 26">
          <path id="Path_142-2" data-name="Path 142" d="M566.2,330.916c2.177.816,5.179,2.45,5.485,4.9s-2.9,4.559-9.032,3.778c-3.66-.466-13.1-4.666-14.789-7.027a4.308,4.308,0,0,1-.351-2.648c.208-2.053,2.553-4.1,4.86-4.664C555.747,324.417,561,329.081,566.2,330.916Z" fill="#e2b48a" fill-rule="evenodd"/>
          <path id="Path_143" data-name="Path 143" d="M566.2,330.915c1.93.725,4.508,2.091,5.281,4.1-.613,2.017-3.713,3.673-8.938,3.007-3.66-.467-12.731-4.007-14.595-7.114a4.1,4.1,0,0,1-.417-.945c.383-2.412,1.513-5.193,5.148-5.291S561,329.081,566.2,330.915Z" fill="#fcda8f" fill-rule="evenodd"/>
          <path id="Path_144" data-name="Path 144" d="M568.244,331.849a6.844,6.844,0,0,1,3.234,3.161c-.526,2.537-3.605,4.321-8.938,3.007l-.155-.022A15.443,15.443,0,0,1,568.244,331.849Z" fill="#e2b48a" fill-rule="evenodd"/>
        </g>
        <path id="Path_145" data-name="Path 145" d="M549.052,326.239c-.738,1.075,1.333,2.627,3.566,3.092,3.126.652,5.984-2.19,4.4-3.3C555.246,324.791,550.879,323.575,549.052,326.239Z" fill="#e2b48a" fill-rule="evenodd"/>
        <path id="Path_146" data-name="Path 146" d="M562.779,333.87c-1.25-.6-6.5-4.552-9.832-4.483-1.217-.887,2.425-3.863,4.5-2.539-.043,2.294,6.089,4.048,7.355,4.886S564.592,334.579,562.779,333.87Z" fill="#ebc77b" fill-rule="evenodd"/>
        <path id="Path_147" data-name="Path 147" d="M563.82,329.863a15.933,15.933,0,0,0-8.9,1.535" fill="none" stroke="#fff" stroke-linecap="round" stroke-miterlimit="22.926" stroke-width="0.567" fill-rule="evenodd"/>
        <path id="Path_148" data-name="Path 148" d="M563.82,329.863c-1.022-.073-3.277,2.864-3.93,4.444" fill="none" stroke="#fff" stroke-linecap="round" stroke-miterlimit="22.926" stroke-width="0.567" fill-rule="evenodd"/>
        <path id="Path_149" data-name="Path 149" d="M560.956,328.2a8.81,8.81,0,0,0-3.582,4.587" fill="none" stroke="#fff" stroke-linecap="round" stroke-miterlimit="22.926" stroke-width="0.567" fill-rule="evenodd"/>
        <path id="Path_150" data-name="Path 150" d="M566.2,330.915c-1.685-.256-5.492.332-8.74,1.883" fill="none" stroke="#fff" stroke-linecap="round" stroke-miterlimit="22.926" stroke-width="0.567" fill-rule="evenodd"/>
      </g>
      <path id="Path_151" data-name="Path 151" d="M600.471,370.8c0,.87-.507,1.292-1.126.935q-6.45-3.723-12.9-7.453a2.8,2.8,0,0,1-1.125-2.23v-4.8c0-.87.507-1.291,1.125-.934q6.45,3.722,12.9,7.452A2.8,2.8,0,0,1,600.471,366Z" fill="#80c19c" fill-rule="evenodd"/>
    </g>
    <g id="Groceries" transform="translate(-29.337 159.817)">
      <path id="Shadow" d="M416.775,295.892l-71.012-41a5.423,5.423,0,0,0-4.9,0l-48,27.717a1.745,1.745,0,0,0-1.019,1.416,1.718,1.718,0,0,0,1.019,1.415l71.013,41a5.42,5.42,0,0,0,4.9,0l48-27.716a1.732,1.732,0,0,0,1.014-1.416C417.789,296.64,417.031,296.04,416.775,295.892Z" transform="translate(0 -37.076)" fill="#e0e0e0"/>
      <g id="Group_49" data-name="Group 49" transform="translate(304.206 223.539)">
        <path id="Path_94-2" data-name="Path 94" d="M310.425,286.366l62.113,35.861,39.108-22.579L349.53,263.784Z" transform="translate(-310.425 -263.784)" fill="#80c19c"/>
        <path id="Path_95-2" data-name="Path 95" d="M310.425,286.366l62.113,35.861,39.108-22.579L349.53,263.784Z" transform="translate(-310.425 -263.784)" opacity="0.5"/>
        <path id="Path_96-2" data-name="Path 96" d="M405.752,295.979l-52.494-30.33a5.287,5.287,0,0,0-4.785,0L330.024,276.3a25.249,25.249,0,0,0-13.852,2.525c-6.454,3.45-7.357,8.954-2.016,12.291,5.138,3.211,14.2,3.239,20.657.166l39.522,22.835a5.289,5.289,0,0,0,4.785,0l26.631-15.376C407.074,297.979,407.074,296.742,405.752,295.979Z" transform="translate(-310.508 -264.216)" opacity="0.15"/>
      </g>
      <g id="Group_52" data-name="Group 52" transform="translate(291.837 165.934)">
        <g id="Group_50" data-name="Group 50" transform="translate(3.166 1.826)">
          <path id="Path_97-2" data-name="Path 97" d="M344.9,179.963v55.778l-39.1,22.583-9.2-50.469Z" transform="translate(-296.595 -179.963)" fill="#80c19c"/>
          <path id="Path_98-2" data-name="Path 98" d="M296.595,207.855,344.9,179.963v55.778l-39.1,22.583-9.2-50.469" transform="translate(-296.595 -179.963)" opacity="0.4"/>
        </g>
        <g id="Group_51" data-name="Group 51" transform="translate(51.474 1.826)">
          <path id="Path_99-2" data-name="Path 99" d="M440.508,221.136l-9.2,50.47L369.19,235.741V179.963Z" transform="translate(-369.19 -179.963)" fill="#80c19c"/>
          <path id="Path_100-2" data-name="Path 100" d="M440.508,221.136l-9.2,50.47L369.19,235.741V179.963Z" transform="translate(-369.19 -179.963)" opacity="0.3"/>
        </g>
        <path id="Path_101-2" data-name="Path 101" d="M417.789,220.217h-3.16l-71.318-41.173L295,206.937l.708.408-3.874-.408a1.745,1.745,0,0,1,1.019-1.416l48-27.716a5.42,5.42,0,0,1,4.9,0l71.012,41C417.031,218.949,417.789,219.549,417.789,220.217Z" transform="translate(-291.837 -177.219)" fill="#455a64"/>
      </g>
      <g id="Group_53" data-name="Group 53" transform="translate(370.843 143.488)">
        <path id="Path_102-2" data-name="Path 102" d="M418.472,147l-1.691-3.064a4.089,4.089,0,0,1,3.771.033l-.039,0a3.174,3.174,0,0,1,1.362,3.257c-1.855,7.688-8.332,35.152-8.488,35.423L410.563,181Z" transform="translate(-410.563 -143.488)" fill="#80c19c"/>
        <path id="Path_103-2" data-name="Path 103" d="M418.472,147l-1.691-3.064a4.089,4.089,0,0,1,3.771.033l-.039,0a3.174,3.174,0,0,1,1.362,3.257c-1.855,7.688-8.332,35.152-8.488,35.423L410.563,181Z" transform="translate(-410.563 -143.488)" opacity="0.25"/>
      </g>
      <path id="Path_104-2" data-name="Path 104" d="M427.414,146.2a4.962,4.962,0,0,1,2.113,3.209l6.258,44.376-3.142-1.815-6.591-43.651-2.342-2.074A4.113,4.113,0,0,1,427.414,146.2Z" transform="translate(-44.118 -0.768)" fill="#80c19c"/>
      <g id="Group_54" data-name="Group 54" transform="translate(327.455 143.933)">
        <path id="Path_105-2" data-name="Path 105" d="M345.362,172.835l1.008,3.577,50.289-29.193-1.69-3.064Z" transform="translate(-345.362 -144.156)" fill="#80c19c"/>
        <path id="Path_106-2" data-name="Path 106" d="M345.362,172.835l1.008,3.577,50.289-29.193-1.69-3.064Z" transform="translate(-345.362 -144.156)" opacity="0.25"/>
      </g>
      <path id="Path_107-2" data-name="Path 107" d="M398,146.481l2.341,2.074-51.612,30.078-1.857-2.883Z" transform="translate(-18.414 -1.001)" fill="#80c19c"/>
      <g id="Light_Bag" data-name="Light Bag" transform="translate(317.092 181.989)">
        <path id="Path_11" data-name="Path 11" d="M86.669,135.77a3.226,3.226,0,0,0-3.3.2c-2.708,1.563-4.91,6.081-4.91,10.072v9.408a.428.428,0,1,0,.855,0v-9.408c0-3.718,2.011-7.9,4.483-9.331a2.377,2.377,0,0,1,2.449-.2c1.021.589,1.606,2.086,1.606,4.1v9.366a.428.428,0,0,0,.855,0v-9.366C88.7,138.283,87.961,136.517,86.669,135.77Z" transform="translate(-68.534 -135.403)" fill="#37474f"/>
        <g id="Group_4-2" data-name="Group 4" transform="translate(26.502 4.744)">
          <path id="Path_12" data-name="Path 12" d="M139.908,198.934l-2.635-45.228-7.543-4.342-2.474,42.265Z" transform="translate(-127.256 -149.365)" fill="#80c19c"/>
          <path id="Path_13" data-name="Path 13" d="M139.908,198.934l-2.635-45.228-7.543-4.342-2.474,42.265Z" transform="translate(-127.256 -149.365)" fill="#fff" opacity="0.6"/>
          <path id="Path_14" data-name="Path 14" d="M139.908,198.934l-2.635-45.228-7.543-4.342-2.474,42.265Z" transform="translate(-127.256 -149.365)" opacity="0.05"/>
        </g>
        <g id="Group_5-2" data-name="Group 5" transform="translate(0 4.744)">
          <path id="Path_15" data-name="Path 15" d="M51.732,164.665,49.259,206.93l26.5-15.3,2.474-42.265Z" transform="translate(-49.259 -149.365)" fill="#80c19c"/>
          <path id="Path_16" data-name="Path 16" d="M51.732,164.665,49.259,206.93l26.5-15.3,2.474-42.265Z" transform="translate(-49.259 -149.365)" fill="#fff" opacity="0.3"/>
          <path id="Path_17" data-name="Path 17" d="M51.732,164.665,49.259,206.93l26.5-15.3,2.474-42.265Z" transform="translate(-49.259 -149.365)" opacity="0.05"/>
        </g>
        <g id="Group_6" data-name="Group 6" transform="translate(0 20.045)">
          <path id="Path_18" data-name="Path 18" d="M51.732,194.4l7.543,4.342,2.635,45.228-12.651-7.3Z" transform="translate(-49.259 -194.396)" fill="#80c19c"/>
          <path id="Path_19" data-name="Path 19" d="M51.732,194.4l7.543,4.342,2.635,45.228-12.651-7.3Z" transform="translate(-49.259 -194.396)" fill="#fff" opacity="0.55"/>
        </g>
        <path id="Path_20" data-name="Path 20" d="M61.91,273.651l-5.438-7.634-.681-26.658-.679,26.2-5.854.792Z" transform="translate(-49.258 -204.037)" opacity="0.05"/>
        <path id="Path_21" data-name="Path 21" d="M105.24,162.142l-26.5,15.3,2.635,45.227,26.5-15.3ZM86.629,178.5c-.523.3-.946.048-.946-.555a2.092,2.092,0,0,1,.947-1.639c.523-.3.947-.053.947.555A2.078,2.078,0,0,1,86.629,178.5Zm9.393-5.465c-.523.3-.946.049-.946-.555a2.091,2.091,0,0,1,.947-1.639c.523-.3.947-.053.946.555A2.077,2.077,0,0,1,96.021,173.037Z" transform="translate(-68.722 -153.057)" fill="#80c19c"/>
        <path id="Path_22" data-name="Path 22" d="M105.24,162.142l-26.5,15.3,2.635,45.227,26.5-15.3ZM86.629,178.5c-.523.3-.946.048-.946-.555a2.092,2.092,0,0,1,.947-1.639c.523-.3.947-.053.947.555A2.078,2.078,0,0,1,86.629,178.5Zm9.393-5.465c-.523.3-.946.049-.946-.555a2.091,2.091,0,0,1,.947-1.639c.523-.3.947-.053.946.555A2.077,2.077,0,0,1,96.021,173.037Z" transform="translate(-68.722 -153.057)" fill="#fff" opacity="0.7"/>
        <path id="Path_23" data-name="Path 23" d="M108.916,148.429a3.223,3.223,0,0,0-3.3.2c-2.708,1.563-4.911,6.081-4.911,10.072v9.408a.428.428,0,0,0,.856,0V158.7c0-3.718,2.011-7.9,4.483-9.331a2.376,2.376,0,0,1,2.448-.2c1.021.589,1.606,2.086,1.606,4.1v9.367a.428.428,0,0,0,.856,0v-9.367C110.951,150.942,110.209,149.176,108.916,148.429Z" transform="translate(-83.223 -143.76)" fill="#455a64"/>
      </g>
      <g id="Group_57" data-name="Group 57" transform="translate(333.098 216.969)">
        <path id="Path_108-2" data-name="Path 108" d="M346.011,250.793c6.893,3.979,18.068,3.979,24.961,0s6.893-10.432,0-14.412-18.068-3.979-24.96,0S339.118,246.813,346.011,250.793Z" transform="translate(-340.842 -205.125)" opacity="0.05"/>
        <g id="Group_56" data-name="Group 56" transform="translate(4.519 0)">
          <path id="Path_109-2" data-name="Path 109" d="M377.419,233.6h.023V203.841H347.636V233.6h.023c-.125,2.292,1.312,4.608,4.343,6.357,5.819,3.361,15.255,3.361,21.075,0C376.106,238.205,377.544,235.89,377.419,233.6Z" transform="translate(-347.633 -195.237)" fill="#ebebeb"/>
          <path id="Path_110-2" data-name="Path 110" d="M352,205.6c5.819,3.361,15.255,3.361,21.075,0s5.82-8.807,0-12.168-15.255-3.36-21.075,0S346.182,202.239,352,205.6Z" transform="translate(-347.634 -190.911)" fill="#fafafa"/>
          <path id="Path_111-2" data-name="Path 111" d="M353.1,205.456c5.464,3.085,14.324,3.085,19.788,0s5.465-8.089,0-11.174-14.324-3.086-19.788,0S347.638,202.37,353.1,205.456Z" transform="translate(-348.091 -191.265)" fill="#ebebeb"/>
          <path id="Path_112-2" data-name="Path 112" d="M372.921,196.454c-5.464-3.086-14.324-3.086-19.788,0-2.406,1.358-3.75,3.089-4.037,4.864.287,1.775,1.631,3.506,4.037,4.864,5.464,3.086,14.324,3.086,19.788,0,2.406-1.358,3.75-3.089,4.037-4.864C376.671,199.544,375.327,197.813,372.921,196.454Z" transform="translate(-348.122 -191.992)" fill="#f5f5f5"/>
          <path id="Path_113-2" data-name="Path 113" d="M347.637,230.983c-.02,2.217,1.435,4.438,4.365,6.129,5.819,3.361,15.255,3.361,21.075,0,2.91-1.68,4.365-3.882,4.365-6.084V211.106c0,2.2-1.455,4.4-4.365,6.084-5.819,3.361-15.255,3.361-21.075,0-2.93-1.691-4.385-3.912-4.365-6.129Z" transform="translate(-347.634 -197.652)" fill="#80c19c"/>
          <path id="Path_114-2" data-name="Path 114" d="M347.637,230.983c-.02,2.217,1.435,4.438,4.365,6.129,5.819,3.361,15.255,3.361,21.075,0,2.91-1.68,4.365-3.882,4.365-6.084V211.106c0,2.2-1.455,4.4-4.365,6.084-5.819,3.361-15.255,3.361-21.075,0-2.93-1.691-4.385-3.912-4.365-6.129Z" transform="translate(-347.634 -197.652)" fill="#fff" opacity="0.5"/>
          <path id="Path_115-2" data-name="Path 115" d="M368.64,241.715c-5.48,1.413-12.142.84-16.636-1.765-3.032-1.742-4.469-4.056-4.347-6.358h-.025V203.839c0,2.2,1.461,4.409,4.372,6.09a12.168,12.168,0,0,0,1.437.719v26.574C353.441,239.706,361.747,242.665,368.64,241.715Z" transform="translate(-347.632 -195.236)" opacity="0.05"/>
          <g id="Group_55" data-name="Group 55" transform="translate(15.486 10.485)">
            <path id="Path_116-2" data-name="Path 116" d="M373.724,210.093l-1.58-.913c-1.283-.741-1.626-1.743-.767-2.24a4.48,4.48,0,0,1,3.881.443l1.58.912c1.284.741,1.626,1.744.767,2.241A4.482,4.482,0,0,1,373.724,210.093Z" transform="translate(-370.903 -206.667)" fill="#e0e0e0"/>
            <ellipse id="Ellipse_1" data-name="Ellipse 1" cx="1.2" cy="0.693" rx="1.2" ry="0.693" transform="translate(0.815 0.471)" fill="#f5f5f5"/>
            <path id="Path_117-2" data-name="Path 117" d="M377.189,211.1a1.875,1.875,0,0,0,1.7,0,.517.517,0,0,0,0-.98,1.875,1.875,0,0,0-1.7,0A.517.517,0,0,0,377.189,211.1Z" transform="translate(-372.889 -207.755)" fill="#f5f5f5"/>
          </g>
        </g>
      </g>
      <g id="Wine_Bottle" data-name="Wine Bottle" transform="translate(366.895 156.054)">
        <ellipse id="Shadow-2" data-name="Shadow" cx="16.421" cy="9.481" rx="16.421" ry="9.481" transform="translate(0 85.508)" opacity="0.1"/>
        <g id="Wine_Bottle-2" data-name="Wine Bottle" transform="translate(2.976)">
          <path id="Path_125-2" data-name="Path 125" d="M409.873,167.414V153.786l-4.41.181-4.41-.181v13.628a22.022,22.022,0,0,1-5.561,14.758c-2.223,2.469-4.289,6.463-4.39,12.8v45.938h0c.029,3.093,3.036,6.241,9.022,7.7a22.542,22.542,0,0,0,10.684,0c5.982-1.463,8.988-4.609,9.016-7.7h0V194.977c-.1-6.342-2.167-10.335-4.39-12.8A22.022,22.022,0,0,1,409.873,167.414Z" transform="translate(-391.102 -149.517)" fill="#80c19c"/>
          <path id="Path_126-2" data-name="Path 126" d="M409.873,167.414V153.786l-4.41.181-4.41-.181v13.628a22.022,22.022,0,0,1-5.561,14.758c-2.223,2.469-4.289,6.463-4.39,12.8v45.938h0c.029,3.093,3.036,6.241,9.022,7.7a22.542,22.542,0,0,0,10.684,0c5.982-1.463,8.988-4.609,9.016-7.7h0V194.977c-.1-6.342-2.167-10.335-4.39-12.8A22.022,22.022,0,0,1,409.873,167.414Z" transform="translate(-391.102 -149.517)" opacity="0.5"/>
          <path id="Path_127-2" data-name="Path 127" d="M414.882,150.132c0-.041-.018-.075-.021-.114a2.123,2.123,0,0,0-1.278-1.9,6.9,6.9,0,0,0-6.246,0,2.619,2.619,0,0,0-1.138,1.169,1.222,1.222,0,0,0-.067.131c-.01.029-.011.058-.019.087a.977.977,0,0,0-.067.293v6.672a2.184,2.184,0,0,0,1.291,1.818,6.9,6.9,0,0,0,6.246,0,2.334,2.334,0,0,0,1.248-1.531.439.439,0,0,0,.051-.141Z" transform="translate(-396.102 -147.371)" fill="#37474f"/>
          <path id="Path_128-2" data-name="Path 128" d="M413.582,151.724a6.9,6.9,0,0,1-6.246,0c-1.725-1-1.725-2.611,0-3.606a6.9,6.9,0,0,1,6.246,0C415.306,149.114,415.306,150.728,413.582,151.724Z" transform="translate(-396.1 -147.371)" fill="#455a64"/>
          <path id="Path_129-2" data-name="Path 129" d="M423.939,217.8v24.99c0,2.131-1.4,4.25-4.208,5.861-4.409,2.544-11,3.084-16.331,1.611v-24.99c5.331,1.483,11.923.943,16.331-1.611C422.54,222.051,423.939,219.92,423.939,217.8Z" transform="translate(-395.216 -170.934)" fill="#fff"/>
        </g>
      </g>
      <g id="Apple" transform="translate(300.042 208.209)">
        <g id="Group_70" data-name="Group 70" transform="translate(0)">
          <g id="Group_67" data-name="Group 67" transform="translate(0 6.776)">
            <path id="Path_130-2" data-name="Path 130" d="M315.084,253.146c-2.8.445-7.657,1.316-10.073,7.9-2.752,7.5,1.62,16.04,7.331,19.253,7.173,4.036,17.7,3.259,23.318-3,6.209-6.92,5.519-18.78.331-23.473s-12.222-2.5-14.014-1.521C319.286,253.78,317.262,252.8,315.084,253.146Z" transform="translate(-304.167 -250.931)" fill="#f7b0c4"/>
            <path id="Path_131-2" data-name="Path 131" d="M333.652,279.956c-6.887,4.721-16.968,4.48-23.462.473a14.993,14.993,0,0,0,4.167,3.585c7.173,4.036,17.7,3.259,23.318-3,4.708-5.246,5.443-13.328,3.265-18.977C341.382,263.638,341.232,274.761,333.652,279.956Z" transform="translate(-306.182 -254.647)" fill="#f7b0c4" opacity="0.1"/>
            <g id="Group_65" data-name="Group 65" transform="translate(1.804 5.013)" opacity="0.2">
              <path id="Path_132-2" data-name="Path 132" d="M313.323,258.464c-1.832.027-4.3,1.9-5.434,4.514-1.4,3.245-1.182,7.6-.33,10.7,1.717,6.251,8.2,8.966,8.743,8.366s-4.345-4.306-2.525-10.883C315.623,264.49,316.323,258.419,313.323,258.464Z" transform="translate(-306.877 -258.464)" fill="#f7b0c4"/>
            </g>
            <g id="Group_66" data-name="Group 66" transform="translate(2.843 5.882)" opacity="0.2">
              <path id="Path_133-2" data-name="Path 133" d="M312.546,260.07c-1.786.811-3.628,3.983-3.975,6.132s.07,3.544.379,3.76c.556.389,3.94-3.659,4.995-5.431C315.44,262.022,315.425,258.761,312.546,260.07Z" transform="translate(-308.44 -259.77)" fill="#f7b0c4"/>
            </g>
            <path id="Path_134-2" data-name="Path 134" d="M324.567,260.9c-1.065-.688-2.034-.99-2.408.244s2.445,2.83,5.271,1.684,3.642-3.146,3.482-4.1a5.36,5.36,0,0,1-3.032,2.651A4.931,4.931,0,0,1,324.567,260.9Z" transform="translate(-310.175 -253.54)" fill="#f7b0c4"/>
          </g>
          <g id="Group_68" data-name="Group 68" transform="translate(4.147 1.051)">
            <path id="Path_135-2" data-name="Path 135" d="M323.432,256.6a27.379,27.379,0,0,0-2.117-7.828c-1.7-3.6-4.289-5.975-4.95-6.2a7.856,7.856,0,0,0-3.236-.158c-1.492.171-3.171,1.356-2.625,1.881s2.744.738,5.6,2.916,5.835,6.671,6.125,9.508A1.162,1.162,0,0,0,323.432,256.6Z" transform="translate(-310.399 -242.327)" fill="#f7b0c4"/>
            <path id="Path_136-2" data-name="Path 136" d="M316.294,242.537c-.05-.015-.1-.031-.151-.044l-.017,0a8.7,8.7,0,0,0-2.955-.077,4.074,4.074,0,0,0-2.637,1.363c-.081.226.277.483,1.632.536a8.314,8.314,0,0,0,3.892-.765C316.616,243.277,316.789,242.739,316.294,242.537Z" transform="translate(-310.44 -242.328)" fill="#f7b0c4"/>
            <path id="Path_137-2" data-name="Path 137" d="M322.359,253.634c-1.517-3.247-5.367-5.691-7.936-6.684h0a15.162,15.162,0,0,1,3.032,1.806c2.86,2.177,5.835,6.671,6.125,9.508a1.162,1.162,0,0,0,1.2-.121s-.1-1.019-.4-2.479C324.437,257.042,323.758,256.626,322.359,253.634Z" transform="translate(-311.745 -243.874)" fill="#f7b0c4" opacity="0.1"/>
          </g>
          <g id="Group_69" data-name="Group 69" transform="translate(15.359)">
            <path id="Path_138-2" data-name="Path 138" d="M327.77,250.276a7.054,7.054,0,0,0,6.255-3.207c1.783-2.915.087-6.3.087-6.3a6.578,6.578,0,0,0-5.555,2.376A7.786,7.786,0,0,0,327.77,250.276Z" transform="translate(-327.248 -240.748)" fill="#f7b0c4"/>
            <path id="Path_139-2" data-name="Path 139" d="M327.77,250.276a7.054,7.054,0,0,0,6.255-3.207c1.783-2.915.087-6.3.087-6.3a6.578,6.578,0,0,0-5.555,2.376A7.786,7.786,0,0,0,327.77,250.276Z" transform="translate(-327.248 -240.748)" fill="#f7b0c4" opacity="0.3"/>
            <path id="Path_140-2" data-name="Path 140" d="M334.111,240.769a6.578,6.578,0,0,0-5.555,2.376,7.786,7.786,0,0,0-.787,7.131C328.918,244.9,334.111,240.769,334.111,240.769Z" transform="translate(-327.248 -240.748)" fill="#f7b0c4"/>
          </g>
        </g>
      </g>
      <g id="Group_87" data-name="Group 87" transform="translate(291.837 195.545)">
        <g id="Group_83" data-name="Group 83" transform="translate(3.166 0.108)">
          <path id="Path_183" data-name="Path 183" d="M367.913,263.051l-71.319-41.173,4.134,44.825a12.156,12.156,0,0,0,5.375,8.472l56.905,32.858a10.968,10.968,0,0,0,8.982.4c.073-.029.141-.057.209-.085a1.017,1.017,0,0,0,.119-.057,4.53,4.53,0,0,0,.5-.255l33.9-19.573a12.165,12.165,0,0,0,5.374-8.478l4.134-44.825ZM318.676,271a3.5,3.5,0,0,1-.328,1.574,3.453,3.453,0,0,1-1.529-.5l-1.847-1.064a8.132,8.132,0,0,1-3.681-6.372v-16.2a3.486,3.486,0,0,1,.328-1.574,3.374,3.374,0,0,1,1.535.5l1.847,1.07a8.117,8.117,0,0,1,3.675,6.372Zm18.4,10.625a3.571,3.571,0,0,1-.323,1.574,3.453,3.453,0,0,1-1.529-.5l-1.846-1.065a8.128,8.128,0,0,1-3.681-6.371v-16.2a3.561,3.561,0,0,1,.323-1.574,3.328,3.328,0,0,1,1.535.5l1.852,1.07a8.111,8.111,0,0,1,3.67,6.372Zm18.406,10.625a1.081,1.081,0,1,1-1.857,1.082l-1.846-1.065A8.148,8.148,0,0,1,348.1,285.9v-16.2a3.486,3.486,0,0,1,.328-1.574,3.379,3.379,0,0,1,1.535.5l1.847,1.065a8.116,8.116,0,0,1,3.675,6.371Zm31.319-5.822a8.131,8.131,0,0,1-3.681,6.372l-1.847,1.065a1.08,1.08,0,1,1-1.857-1.076V276.6a8.115,8.115,0,0,1,3.675-6.371l1.847-1.071a3.373,3.373,0,0,1,1.535-.5,3.486,3.486,0,0,1,.329,1.574Zm16.1-9.3a8.128,8.128,0,0,1-3.681,6.371l-1.841,1.065a3.365,3.365,0,0,1-1.535.5,3.485,3.485,0,0,1-.329-1.574V267.3a8.131,8.131,0,0,1,3.681-6.371l1.841-1.065a3.387,3.387,0,0,1,1.535-.5,3.473,3.473,0,0,1,.328,1.569Z" transform="translate(-296.594 -221.878)" fill="#80c19c"/>
          <path id="Path_184" data-name="Path 184" d="M367.913,263.051l-71.319-41.173,4.134,44.825a12.156,12.156,0,0,0,5.375,8.472l56.905,32.858a10.968,10.968,0,0,0,8.982.4c.073-.029.141-.057.209-.085a1.017,1.017,0,0,0,.119-.057,4.53,4.53,0,0,0,.5-.255l33.9-19.573a12.165,12.165,0,0,0,5.374-8.478l4.134-44.825ZM318.676,271a3.5,3.5,0,0,1-.328,1.574,3.453,3.453,0,0,1-1.529-.5l-1.847-1.064a8.132,8.132,0,0,1-3.681-6.372v-16.2a3.486,3.486,0,0,1,.328-1.574,3.374,3.374,0,0,1,1.535.5l1.847,1.07a8.117,8.117,0,0,1,3.675,6.372Zm18.4,10.625a3.571,3.571,0,0,1-.323,1.574,3.453,3.453,0,0,1-1.529-.5l-1.846-1.065a8.128,8.128,0,0,1-3.681-6.371v-16.2a3.561,3.561,0,0,1,.323-1.574,3.328,3.328,0,0,1,1.535.5l1.852,1.07a8.111,8.111,0,0,1,3.67,6.372Zm18.406,10.625a1.081,1.081,0,1,1-1.857,1.082l-1.846-1.065A8.148,8.148,0,0,1,348.1,285.9v-16.2a3.486,3.486,0,0,1,.328-1.574,3.379,3.379,0,0,1,1.535.5l1.847,1.065a8.116,8.116,0,0,1,3.675,6.371Zm31.319-5.822a8.131,8.131,0,0,1-3.681,6.372l-1.847,1.065a1.08,1.08,0,1,1-1.857-1.076V276.6a8.115,8.115,0,0,1,3.675-6.371l1.847-1.071a3.373,3.373,0,0,1,1.535-.5,3.486,3.486,0,0,1,.329,1.574Zm16.1-9.3a8.128,8.128,0,0,1-3.681,6.371l-1.841,1.065a3.365,3.365,0,0,1-1.535.5,3.485,3.485,0,0,1-.329-1.574V267.3a8.131,8.131,0,0,1,3.681-6.371l1.841-1.065a3.387,3.387,0,0,1,1.535-.5,3.473,3.473,0,0,1,.328,1.569Z" transform="translate(-296.594 -221.878)" fill="#fff" opacity="0.45"/>
          <path id="Path_185" data-name="Path 185" d="M403.768,269.727v42.152c0,2.786,1.767,4.106,4.078,3.228.073-.029.141-.057.209-.085a1.02,1.02,0,0,0,.119-.057,4.535,4.535,0,0,0,.5-.255l33.9-19.573a12.165,12.165,0,0,0,5.374-8.478l4.134-44.825Zm18.887,23.378a8.131,8.131,0,0,1-3.681,6.372l-1.847,1.065a1.08,1.08,0,1,1-1.857-1.076V283.274a8.115,8.115,0,0,1,3.675-6.371l1.847-1.071a3.374,3.374,0,0,1,1.535-.5,3.486,3.486,0,0,1,.329,1.574Zm16.1-9.3a8.128,8.128,0,0,1-3.681,6.371l-1.841,1.065a3.365,3.365,0,0,1-1.535.5,3.486,3.486,0,0,1-.329-1.574V273.974a8.131,8.131,0,0,1,3.681-6.371l1.841-1.065a3.386,3.386,0,0,1,1.535-.5,3.473,3.473,0,0,1,.328,1.569Z" transform="translate(-332.449 -228.555)" fill="#fff" opacity="0.4"/>
        </g>
        <g id="Group_84" data-name="Group 84" transform="translate(86.315 37.59)">
          <path id="Path_186" data-name="Path 186" d="M430.415,294.8v16.2a8.125,8.125,0,0,1-3.675,6.371l-1.847,1.065c-1.489.855-2.764.578-3.347-.549a3.461,3.461,0,0,0,1.529-.5l1.847-1.065a8.131,8.131,0,0,0,3.681-6.372v-16.2a3.486,3.486,0,0,0-.329-1.574C429.538,292.111,430.415,293.085,430.415,294.8Z" transform="translate(-421.547 -282.877)" fill="#455a64"/>
          <path id="Path_187" data-name="Path 187" d="M454.616,280.83v16.191a8.121,8.121,0,0,1-3.681,6.372l-1.841,1.065c-1.489.86-2.769.583-3.353-.55a3.366,3.366,0,0,0,1.535-.5l1.841-1.065a8.128,8.128,0,0,0,3.681-6.371v-16.2a3.473,3.473,0,0,0-.328-1.569C453.739,278.146,454.616,279.119,454.616,280.83Z" transform="translate(-429.642 -278.205)" fill="#455a64"/>
        </g>
        <g id="Group_85" data-name="Group 85">
          <path id="Path_188" data-name="Path 188" d="M455.242,241.786V247.1a1.72,1.72,0,0,1-1.019,1.416l-48,27.716a5.027,5.027,0,0,1-2.452.589V271.5a5.025,5.025,0,0,0,2.452-.584l48-27.716a1.655,1.655,0,0,0,1.008-1.513A.268.268,0,0,1,455.242,241.786Z" transform="translate(-329.284 -228.398)" fill="#37474f"/>
          <path id="Path_189" data-name="Path 189" d="M366.321,264.82v5.318a5,5,0,0,1-2.452-.589l-71.013-41a1.726,1.726,0,0,1-1.019-1.415c.006-.516,0-4.8,0-5.312a.742.742,0,0,1,.011-.108,1.661,1.661,0,0,0,1.008,1.524l71.013,41A5,5,0,0,0,366.321,264.82Z" transform="translate(-291.837 -221.716)" fill="#263238"/>
          <path id="Path_190" data-name="Path 190" d="M417.789,235.158a1.731,1.731,0,0,1-1.014,1.416l-48,27.716a5.42,5.42,0,0,1-4.9,0l-71.013-41a1.721,1.721,0,0,1-1.019-1.416H295l48.309,27.886,23.01,13.286,48.308-27.892Z" transform="translate(-291.837 -221.77)" fill="#455a64"/>
        </g>
        <g id="Group_86" data-name="Group 86" transform="translate(16.049 25.098)">
          <path id="Path_191" data-name="Path 191" d="M371.268,293.991v16.2a8.125,8.125,0,0,0,3.675,6.372l1.846,1.065c1.49.855,2.764.578,3.347-.55a3.455,3.455,0,0,1-1.529-.5l-1.846-1.065a8.128,8.128,0,0,1-3.681-6.371v-16.2a3.5,3.5,0,0,1,.328-1.574C372.146,291.307,371.268,292.281,371.268,293.991Z" transform="translate(-334.46 -270.116)" fill="#37474f"/>
          <path id="Path_192" data-name="Path 192" d="M343.611,278.024v16.2a8.124,8.124,0,0,0,3.675,6.371l1.847,1.065c1.489.856,2.764.578,3.347-.549a3.452,3.452,0,0,1-1.529-.5l-1.846-1.065a8.129,8.129,0,0,1-3.681-6.371v-16.2a3.484,3.484,0,0,1,.328-1.574C344.489,275.34,343.611,276.314,343.611,278.024Z" transform="translate(-325.207 -264.774)" fill="#37474f"/>
          <path id="Path_193" data-name="Path 193" d="M315.955,262.057v16.2a8.125,8.125,0,0,0,3.675,6.371l1.847,1.065c1.489.855,2.764.578,3.347-.55a3.442,3.442,0,0,1-1.529-.5l-1.847-1.065a8.131,8.131,0,0,1-3.681-6.372v-16.2a3.485,3.485,0,0,1,.329-1.574C316.833,259.372,315.955,260.346,315.955,262.057Z" transform="translate(-315.955 -259.432)" fill="#37474f"/>
        </g>
      </g>
      <g id="Group_90" data-name="Group 90" transform="translate(315.476 172.612)">
        <g id="Group_88" data-name="Group 88" transform="translate(0 37.513)">
          <path id="Path_194" data-name="Path 194" d="M327.36,243.626v.463c0,1.781.369,2.665,1.914,3.551h0c.818.469,1.254-.122,1.254-1.065l0-1.121Z" transform="translate(-327.36 -243.626)" fill="#80c19c"/>
          <path id="Path_195" data-name="Path 195" d="M327.36,243.626v.463c0,1.781.369,2.665,1.914,3.551h0c.818.469,1.254-.122,1.254-1.065l0-1.121Z" transform="translate(-327.36 -243.626)" opacity="0.25"/>
        </g>
        <g id="Group_89" data-name="Group 89">
          <path id="Path_196" data-name="Path 196" d="M336.939,190.48a5.81,5.81,0,0,1,2.4-3.226l1.008,3.577-9.823,35.763-3.164-1.829Z" transform="translate(-327.36 -187.254)" fill="#80c19c"/>
          <path id="Path_197" data-name="Path 197" d="M336.939,190.48a5.81,5.81,0,0,1,2.4-3.226l1.008,3.577-9.823,35.763-3.164-1.829Z" transform="translate(-327.36 -187.254)" opacity="0.25"/>
        </g>
      </g>
      <g id="Group_91" data-name="Group 91" transform="translate(326.873 174.698)">
        <path id="Path_198" data-name="Path 198" d="M346.167,190.389l1.767,2.934,6.674,44.918-3.655-2.111-6.439-42.438A3.57,3.57,0,0,1,346.167,190.389Z" transform="translate(-344.488 -190.389)" fill="#80c19c"/>
        <path id="Path_199" data-name="Path 199" d="M354.2,259.125v.463c0,1.781.272,3.03,1.817,3.917h0a1.228,1.228,0,0,0,1.838-1.065v-1.2Z" transform="translate(-347.739 -213.385)" fill="#80c19c"/>
      </g>
    </g>
    <g id="Boxes" transform="translate(-24 102)">
      <g id="Group_29" data-name="Group 29">
        <path id="Path_12-2" data-name="Path 12" d="M282.892,127.974,258.52,113.9l-24.363,14.071,24.363,14.071Z" fill="#f5f5f5"/>
        <path id="Path_13-2" data-name="Path 13" d="M258.52,170.187l24.372-14.07V127.974l-24.372,14.07Z" fill="#ebebeb"/>
        <g id="Group_3-2" data-name="Group 3">
          <path id="Path_14-2" data-name="Path 14" d="M263.216,160.852a.719.719,0,0,1-.366-.1,1.112,1.112,0,0,1-.457-1.011v-3.208l.152.027,2.338-1.373v3.332a2.7,2.7,0,0,1-1.152,2.177A1.031,1.031,0,0,1,263.216,160.852Zm-.448-3.869v2.761a.768.768,0,0,0,.269.687.514.514,0,0,0,.507-.057,2.361,2.361,0,0,0,.964-1.852v-.244h-.866l-.17-1.169Zm1.2.92h.542v-2.058l-1.395.819.691.123Z" fill="#fff"/>
        </g>
        <g id="Group_4-3" data-name="Group 4">
          <path id="Path_15-2" data-name="Path 15" d="M263.638,163.229a.188.188,0,0,1-.188-.188v-2.5a.188.188,0,1,1,.375,0v2.5A.188.188,0,0,1,263.638,163.229Z" fill="#fff"/>
        </g>
        <g id="Group_5-3" data-name="Group 5">
          <path id="Path_16-2" data-name="Path 16" d="M262.549,163.857a.185.185,0,0,1-.162-.093.188.188,0,0,1,.068-.257l2.177-1.257a.187.187,0,1,1,.187.325l-2.176,1.257A.189.189,0,0,1,262.549,163.857Z" fill="#fff"/>
        </g>
        <g id="Group_6-2" data-name="Group 6">
          <path id="Path_17-2" data-name="Path 17" d="M270.306,159.543a.4.4,0,0,1-.2-.052.5.5,0,0,1-.225-.451v-.514a.188.188,0,0,1,.375,0v.514c0,.077.021.117.035.125s.059.005.124-.032a1.1,1.1,0,0,0,.348-.848v-3.331a.188.188,0,0,1,.375,0v3.331a1.431,1.431,0,0,1-.533,1.171A.59.59,0,0,1,270.306,159.543Z" fill="#fff"/>
        </g>
        <g id="Group_7" data-name="Group 7">
          <path id="Path_18-2" data-name="Path 18" d="M268.331,156.631v-.325a5.31,5.31,0,0,1,2.4-4.154,1.587,1.587,0,0,1,2.586,1.493v.108Zm3.521-4.445a1.91,1.91,0,0,0-.935.291,4.952,4.952,0,0,0-2.193,3.494l4.214-2.433a1.387,1.387,0,0,0-.579-1.223A1,1,0,0,0,271.852,152.186Z" fill="#fff"/>
        </g>
        <g id="Group_10" data-name="Group 10">
          <g id="Group_8" data-name="Group 8">
            <path id="Path_19-2" data-name="Path 19" d="M277.039,155.705a.187.187,0,0,1-.187-.188v-6.38a.188.188,0,0,1,.375,0v6.38A.188.188,0,0,1,277.039,155.705Z" fill="#fff"/>
          </g>
          <g id="Group_9" data-name="Group 9">
            <path id="Path_20-2" data-name="Path 20" d="M276.49,150.592a.192.192,0,0,1-.074-.015.188.188,0,0,1-.1-.247l.667-1.541.744.86a.186.186,0,0,1-.018.264.188.188,0,0,1-.265-.019l-.353-.408-.431.993A.187.187,0,0,1,276.49,150.592Z" fill="#fff"/>
          </g>
        </g>
        <g id="Group_13" data-name="Group 13">
          <g id="Group_11" data-name="Group 11">
            <path id="Path_21-2" data-name="Path 21" d="M278.773,154.716a.187.187,0,0,1-.187-.187v-6.38a.188.188,0,1,1,.375,0v6.38A.188.188,0,0,1,278.773,154.716Z" fill="#fff"/>
          </g>
          <g id="Group_12" data-name="Group 12">
            <path id="Path_22-2" data-name="Path 22" d="M278.225,149.6a.181.181,0,0,1-.075-.016.187.187,0,0,1-.1-.246l.667-1.541.744.859a.187.187,0,1,1-.283.245l-.354-.408-.431.994A.187.187,0,0,1,278.225,149.6Z" fill="#fff"/>
          </g>
        </g>
        <path id="Path_23-2" data-name="Path 23" d="M258.52,170.187l-24.373-14.071.01-28.143,24.363,14.071Z" fill="#e0e0e0"/>
        <path id="Path_24" data-name="Path 24" d="M247.656,135.772l24.358-14.079-2.755-1.591L244.9,134.18Z" fill="#fff"/>
        <path id="Path_25" data-name="Path 25" d="M237.854,144.108l8.721,5.036a3.828,3.828,0,0,1,1.732,3v5.381c0,1.105-.776,1.552-1.732,1l-8.723-5.036a3.829,3.829,0,0,1-1.732-3v-5.381C236.122,144,236.9,143.556,237.854,144.108Z" fill="#80c19c"/>
        <g id="Group_14" data-name="Group 14">
          <path id="Path_26" data-name="Path 26" d="M237.178,145.454l.331.191v5.976l-.331-.191Z" fill="#80c19c"/>
        </g>
        <g id="Group_15" data-name="Group 15">
          <path id="Path_27" data-name="Path 27" d="M238.527,146.232l.571.336v5.976l-.571-.336Z" fill="#80c19c"/>
        </g>
        <g id="Group_16" data-name="Group 16">
          <path id="Path_28" data-name="Path 28" d="M239.876,147.01l.331.191v5.976l-.331-.191Z" fill="#80c19c"/>
        </g>
        <g id="Group_17" data-name="Group 17">
          <path id="Path_29" data-name="Path 29" d="M240.893,147.587l.663.393v5.976l-.663-.393Z" fill="#80c19c"/>
        </g>
        <g id="Group_18" data-name="Group 18">
          <path id="Path_30" data-name="Path 30" d="M242.574,148.568l.331.191v5.976l-.331-.191Z" fill="#80c19c"/>
        </g>
        <g id="Group_19" data-name="Group 19">
          <path id="Path_31" data-name="Path 31" d="M243.546,149.116l.709.422v5.976l-.709-.421Z" fill="#80c19c"/>
        </g>
        <g id="Group_20" data-name="Group 20">
          <path id="Path_32" data-name="Path 32" d="M245.272,150.125l.331.191v5.976l-.331-.191Z" fill="#80c19c"/>
        </g>
        <g id="Group_21-2" data-name="Group 21">
          <path id="Path_33" data-name="Path 33" d="M246.042,150.563l.166.1v5.976l-.166-.1Z" fill="#80c19c"/>
        </g>
        <g id="Group_22-2" data-name="Group 22">
          <path id="Path_34" data-name="Path 34" d="M244.657,149.8l.166.1v5.976l-.166-.1Z" fill="#80c19c"/>
        </g>
        <g id="Group_23-2" data-name="Group 23">
          <path id="Path_35" data-name="Path 35" d="M241.94,148.207l.166.1v5.976l-.166-.1Z" fill="#80c19c"/>
        </g>
        <g id="Group_24-2" data-name="Group 24">
          <path id="Path_36" data-name="Path 36" d="M240.451,147.353l.166.1v5.976l-.166-.1Z" fill="#80c19c"/>
        </g>
        <g id="Group_25-2" data-name="Group 25">
          <path id="Path_37" data-name="Path 37" d="M239.382,146.763l.166.1v5.976l-.166-.1Z" fill="#80c19c"/>
        </g>
        <g id="Group_26-2" data-name="Group 26">
          <path id="Path_38" data-name="Path 38" d="M237.933,145.883l.166.1v5.976l-.165-.1Z" fill="#80c19c"/>
        </g>
        <g id="Group_27-2" data-name="Group 27">
          <path id="Path_39" data-name="Path 39" d="M246.621,150.9l.331.191v5.976l-.331-.191Z" fill="#80c19c"/>
        </g>
        <path id="Path_40" data-name="Path 40" d="M250.4,123.283l-28.434-16.416-28.434,16.416L221.96,139.7Z" fill="#f5f5f5"/>
        <path id="Path_41" data-name="Path 41" d="M209.774,132.662l28.434-16.417-2.757-1.59-28.433,16.416Z" fill="#fff"/>
        <path id="Path_42" data-name="Path 42" d="M221.961,191.294,250.4,174.878v-51.6L221.961,139.7Z" fill="#ebebeb"/>
        <path id="Path_43" data-name="Path 43" d="M226.656,181.959a.728.728,0,0,1-.366-.1,1.113,1.113,0,0,1-.457-1.012v-3.208l.152.027,2.338-1.373v3.333a2.7,2.7,0,0,1-1.151,2.176A1.037,1.037,0,0,1,226.656,181.959Zm-.448-3.868v2.76a.768.768,0,0,0,.269.687.517.517,0,0,0,.507-.056,2.359,2.359,0,0,0,.964-1.852v-.244h-.865l-.171-1.17Zm1.2.92h.541v-2.058l-1.394.818.69.124Z" fill="#fff"/>
        <path id="Path_44" data-name="Path 44" d="M227.078,184.336a.187.187,0,0,1-.187-.187v-2.505a.188.188,0,1,1,.375,0v2.505A.188.188,0,0,1,227.078,184.336Z" fill="#fff"/>
        <path id="Path_45" data-name="Path 45" d="M225.99,184.965a.188.188,0,0,1-.094-.35l2.177-1.257a.188.188,0,0,1,.188.325l-2.177,1.257A.2.2,0,0,1,225.99,184.965Z" fill="#fff"/>
        <path id="Path_46" data-name="Path 46" d="M233.747,180.651a.4.4,0,0,1-.2-.053.5.5,0,0,1-.225-.451v-.513a.188.188,0,1,1,.375,0v.513c0,.077.022.118.035.126s.059.006.124-.032a1.1,1.1,0,0,0,.348-.848v-3.331a.188.188,0,1,1,.375,0v3.331a1.431,1.431,0,0,1-.533,1.171A.59.59,0,0,1,233.747,180.651Z" fill="#fff"/>
        <path id="Path_47" data-name="Path 47" d="M231.772,177.738v-.325a5.31,5.31,0,0,1,2.4-4.154,1.587,1.587,0,0,1,2.585,1.493v.109Zm3.521-4.444a1.91,1.91,0,0,0-.935.29,4.955,4.955,0,0,0-2.193,3.494l4.214-2.433a1.388,1.388,0,0,0-.579-1.222A1,1,0,0,0,235.293,173.294Z" fill="#fff"/>
        <path id="Path_48" data-name="Path 48" d="M240.48,176.812a.187.187,0,0,1-.187-.187v-6.38a.188.188,0,1,1,.375,0v6.38A.188.188,0,0,1,240.48,176.812Z" fill="#fff"/>
        <path id="Path_49" data-name="Path 49" d="M239.932,171.7a.18.18,0,0,1-.075-.015.188.188,0,0,1-.1-.247l.667-1.54.744.859a.187.187,0,0,1-.283.245l-.354-.408-.431.994A.184.184,0,0,1,239.932,171.7Z" fill="#fff"/>
        <path id="Path_50" data-name="Path 50" d="M242.214,175.824a.188.188,0,0,1-.188-.188v-6.38a.188.188,0,0,1,.375,0v6.38A.188.188,0,0,1,242.214,175.824Z" fill="#fff"/>
        <path id="Path_51" data-name="Path 51" d="M241.666,170.711a.192.192,0,0,1-.074-.015.187.187,0,0,1-.1-.247l.667-1.541.744.859a.187.187,0,1,1-.283.245l-.353-.408-.431.995A.187.187,0,0,1,241.666,170.711Z" fill="#fff"/>
        <path id="Path_52" data-name="Path 52" d="M221.961,191.295l-28.434-16.416v-51.6L221.96,139.7Z" fill="#e0e0e0"/>
        <path id="Path_53" data-name="Path 53" d="M199.312,164.149l8.721,5.035a3.833,3.833,0,0,1,1.733,3v5.381c0,1.1-.775,1.553-1.732,1l-8.723-5.035a3.832,3.832,0,0,1-1.732-3v-5.381C197.58,164.044,198.355,163.6,199.312,164.149Z" fill="#f5f5f5"/>
        <path id="Path_54" data-name="Path 54" d="M198.636,165.494l.331.191v5.976l-.331-.191Z" fill="#e0e0e0"/>
        <path id="Path_55" data-name="Path 55" d="M199.985,166.272l.571.336v5.976l-.571-.336Z" fill="#e0e0e0"/>
        <path id="Path_56" data-name="Path 56" d="M201.334,167.051l.331.191v5.976l-.331-.191Z" fill="#e0e0e0"/>
        <path id="Path_57" data-name="Path 57" d="M202.351,167.627l.663.393V174l-.663-.393Z" fill="#e0e0e0"/>
        <path id="Path_58" data-name="Path 58" d="M204.032,168.608l.331.191v5.976l-.331-.191Z" fill="#e0e0e0"/>
        <path id="Path_59" data-name="Path 59" d="M205,169.156l.709.422v5.976l-.709-.421Z" fill="#e0e0e0"/>
        <path id="Path_60" data-name="Path 60" d="M206.73,170.165l.332.191v5.976l-.331-.191Z" fill="#e0e0e0"/>
        <path id="Path_61" data-name="Path 61" d="M207.5,170.6l.166.1v5.976l-.166-.1Z" fill="#e0e0e0"/>
        <path id="Path_62" data-name="Path 62" d="M206.115,169.839l.166.1v5.976l-.166-.1Z" fill="#e0e0e0"/>
        <path id="Path_63" data-name="Path 63" d="M203.4,168.248l.166.1v5.976l-.165-.1Z" fill="#e0e0e0"/>
        <path id="Path_64" data-name="Path 64" d="M201.91,167.393l.166.1v5.976l-.165-.1Z" fill="#e0e0e0"/>
        <path id="Path_65" data-name="Path 65" d="M200.841,166.8l.166.1v5.976l-.165-.1Z" fill="#e0e0e0"/>
        <path id="Path_66" data-name="Path 66" d="M199.391,165.923l.166.1V172l-.166-.1Z" fill="#e0e0e0"/>
        <path id="Path_67" data-name="Path 67" d="M208.08,170.943l.331.191v5.976l-.331-.191Z" fill="#e0e0e0"/>
        <g id="Group_28-2" data-name="Group 28">
          <path id="Path_68" data-name="Path 68" d="M207.019,137.729l2.755,1.591v-6.658l-2.755-1.591Z" fill="#f0f0f0"/>
        </g>
      </g>
      <g id="Group_117" data-name="Group 117">
        <g id="Group_30" data-name="Group 30">
          <path id="Path_69" data-name="Path 69" d="M165.093,177.223,144.782,165.5l-28.434,16.417,20.311,11.726Z" fill="#f5f5f5"/>
        </g>
        <g id="Group_31" data-name="Group 31">
          <path id="Path_70" data-name="Path 70" d="M136.659,240.544l28.435-16.417v-46.9L136.659,193.64Z" fill="#ebebeb"/>
        </g>
        <g id="Group_35" data-name="Group 35">
          <g id="Group_32" data-name="Group 32">
            <path id="Path_71" data-name="Path 71" d="M141.353,231.208a.732.732,0,0,1-.365-.1,1.114,1.114,0,0,1-.457-1.011v-3.209l.153.027,2.337-1.372v3.332a2.694,2.694,0,0,1-1.151,2.177A1.047,1.047,0,0,1,141.353,231.208Zm-.447-3.868V230.1a.765.765,0,0,0,.27.686.52.52,0,0,0,.507-.056,2.361,2.361,0,0,0,.963-1.852v-.244h-.865l-.171-1.17Zm1.2.92h.541V226.2l-1.394.818.69.124Z" fill="#fff"/>
          </g>
          <g id="Group_33" data-name="Group 33">
            <path id="Path_72" data-name="Path 72" d="M141.776,233.586a.188.188,0,0,1-.187-.188v-2.5a.188.188,0,1,1,.375,0v2.5A.188.188,0,0,1,141.776,233.586Z" fill="#fff"/>
          </g>
          <g id="Group_34" data-name="Group 34">
            <path id="Path_73" data-name="Path 73" d="M140.687,234.214a.187.187,0,0,1-.093-.35l2.177-1.257a.189.189,0,0,1,.256.069.186.186,0,0,1-.068.256l-2.178,1.257A.184.184,0,0,1,140.687,234.214Z" fill="#fff"/>
          </g>
        </g>
        <g id="Group_38" data-name="Group 38">
          <g id="Group_36" data-name="Group 36">
            <path id="Path_74" data-name="Path 74" d="M148.445,229.9a.4.4,0,0,1-.2-.053.5.5,0,0,1-.224-.45v-.514a.188.188,0,0,1,.375,0v.514c0,.077.021.117.035.125a.16.16,0,0,0,.123-.032,1.1,1.1,0,0,0,.348-.848v-3.331a.188.188,0,1,1,.375,0v3.331a1.427,1.427,0,0,1-.534,1.171A.581.581,0,0,1,148.445,229.9Z" fill="#fff"/>
          </g>
          <g id="Group_37" data-name="Group 37">
            <path id="Path_75" data-name="Path 75" d="M146.471,226.987v-.325a5.307,5.307,0,0,1,2.4-4.153A1.587,1.587,0,0,1,151.454,224v.108Zm3.52-4.444a1.909,1.909,0,0,0-.934.291,4.955,4.955,0,0,0-2.194,3.494l4.214-2.433a1.385,1.385,0,0,0-.579-1.223A1,1,0,0,0,149.991,222.543Z" fill="#fff"/>
          </g>
        </g>
        <g id="Group_45" data-name="Group 45">
          <g id="Group_41" data-name="Group 41">
            <g id="Group_39" data-name="Group 39">
              <path id="Path_76" data-name="Path 76" d="M155.179,226.062a.188.188,0,0,1-.188-.188v-6.38a.188.188,0,1,1,.375,0v6.38A.188.188,0,0,1,155.179,226.062Z" fill="#fff"/>
            </g>
            <g id="Group_40" data-name="Group 40">
              <path id="Path_77" data-name="Path 77" d="M154.63,220.949a.173.173,0,0,1-.074-.016.186.186,0,0,1-.1-.246l.667-1.541.744.859a.187.187,0,1,1-.283.245l-.354-.408-.43.994A.188.188,0,0,1,154.63,220.949Z" fill="#fff"/>
            </g>
          </g>
          <g id="Group_44" data-name="Group 44">
            <g id="Group_42" data-name="Group 42">
              <path id="Path_78" data-name="Path 78" d="M156.912,225.073a.187.187,0,0,1-.187-.187v-6.38a.188.188,0,1,1,.375,0v6.38A.188.188,0,0,1,156.912,225.073Z" fill="#fff"/>
            </g>
            <g id="Group_43" data-name="Group 43">
              <path id="Path_79" data-name="Path 79" d="M156.364,219.96a.192.192,0,0,1-.074-.015.187.187,0,0,1-.1-.247l.667-1.54.744.858a.187.187,0,1,1-.283.246l-.353-.408-.431.993A.187.187,0,0,1,156.364,219.96Z" fill="#fff"/>
            </g>
          </g>
        </g>
        <g id="Group_46" data-name="Group 46">
          <path id="Path_80" data-name="Path 80" d="M136.659,240.544l-20.309-11.726v-46.9l20.311,11.726Z" fill="#e0e0e0"/>
        </g>
        <g id="Group_47" data-name="Group 47">
          <path id="Path_81" data-name="Path 81" d="M125.779,194.017l2.755,1.591v-6.658l-2.755-1.591Z" fill="#f5f5f5"/>
        </g>
        <g id="Group_48" data-name="Group 48">
          <path id="Path_82" data-name="Path 82" d="M128.534,188.95l28.434-16.417-2.757-1.59-28.433,16.415Z" fill="#fff"/>
        </g>
        <g id="Group_49-2" data-name="Group 49">
          <path id="Path_83-2" data-name="Path 83" d="M128.534,217.092,91.976,195.985,55.417,217.092,91.976,238.2Z" fill="#f5f5f5"/>
        </g>
        <g id="Group_50-2" data-name="Group 50">
          <path id="Path_84-2" data-name="Path 84" d="M91.976,266.342l36.558-21.107V217.092L91.976,238.2Z" fill="#ebebeb"/>
        </g>
        <g id="Group_54-2" data-name="Group 54">
          <g id="Group_51-2" data-name="Group 51">
            <path id="Path_85-2" data-name="Path 85" d="M96.672,257.007a.729.729,0,0,1-.366-.1,1.115,1.115,0,0,1-.457-1.012V252.69l.152.028,2.338-1.373v3.332a2.7,2.7,0,0,1-1.152,2.176A1.033,1.033,0,0,1,96.672,257.007Zm-.448-3.869v2.76a.767.767,0,0,0,.269.687.522.522,0,0,0,.507-.056,2.363,2.363,0,0,0,.964-1.852v-.245H97.1l-.171-1.168Zm1.2.919h.541V252l-1.395.819.691.123Z" fill="#fff"/>
          </g>
          <g id="Group_52-2" data-name="Group 52">
            <path id="Path_86-2" data-name="Path 86" d="M97.094,259.384a.188.188,0,0,1-.188-.188v-2.505a.188.188,0,0,1,.375,0V259.2A.188.188,0,0,1,97.094,259.384Z" fill="#fff"/>
          </g>
          <g id="Group_53-2" data-name="Group 53">
            <path id="Path_87-2" data-name="Path 87" d="M96,260.012a.188.188,0,0,1-.094-.35l2.178-1.257a.184.184,0,0,1,.256.069.187.187,0,0,1-.069.255L96.1,259.986A.181.181,0,0,1,96,260.012Z" fill="#fff"/>
          </g>
        </g>
        <g id="Group_57-2" data-name="Group 57">
          <g id="Group_55-2" data-name="Group 55">
            <path id="Path_88-2" data-name="Path 88" d="M103.763,255.7a.4.4,0,0,1-.205-.053.5.5,0,0,1-.225-.451v-.513a.188.188,0,1,1,.375,0v.513c0,.077.021.117.036.126s.059,0,.122-.032a1.1,1.1,0,0,0,.349-.848v-3.331a.188.188,0,0,1,.375,0v3.331a1.427,1.427,0,0,1-.532,1.17A.585.585,0,0,1,103.763,255.7Z" fill="#fff"/>
          </g>
          <g id="Group_56-2" data-name="Group 56">
            <path id="Path_89-2" data-name="Path 89" d="M101.788,252.786v-.325a5.31,5.31,0,0,1,2.4-4.155,1.587,1.587,0,0,1,2.586,1.493v.109Zm3.521-4.445a1.91,1.91,0,0,0-.936.291,4.95,4.95,0,0,0-2.192,3.494l4.213-2.434a1.385,1.385,0,0,0-.579-1.222A1,1,0,0,0,105.309,248.341Z" fill="#fff"/>
          </g>
        </g>
        <g id="Group_64" data-name="Group 64">
          <g id="Group_60" data-name="Group 60">
            <g id="Group_58" data-name="Group 58">
              <path id="Path_90-2" data-name="Path 90" d="M110.5,251.859a.187.187,0,0,1-.187-.187v-6.38a.188.188,0,1,1,.375,0v6.38A.188.188,0,0,1,110.5,251.859Z" fill="#fff"/>
            </g>
            <g id="Group_59" data-name="Group 59">
              <path id="Path_91-2" data-name="Path 91" d="M109.947,246.747a.176.176,0,0,1-.074-.016.186.186,0,0,1-.1-.246l.667-1.541.744.859a.186.186,0,0,1-.018.264.188.188,0,0,1-.265-.019l-.353-.408-.431.994A.188.188,0,0,1,109.947,246.747Z" fill="#fff"/>
            </g>
          </g>
          <g id="Group_63" data-name="Group 63">
            <g id="Group_61" data-name="Group 61">
              <path id="Path_92-2" data-name="Path 92" d="M112.229,250.871a.188.188,0,0,1-.187-.188V244.3a.188.188,0,0,1,.375,0v6.38A.188.188,0,0,1,112.229,250.871Z" fill="#fff"/>
            </g>
            <g id="Group_62" data-name="Group 62">
              <path id="Path_93-2" data-name="Path 93" d="M111.681,245.758a.2.2,0,0,1-.075-.015.188.188,0,0,1-.1-.247l.667-1.541.744.859a.187.187,0,1,1-.283.245l-.354-.408-.431.994A.185.185,0,0,1,111.681,245.758Z" fill="#fff"/>
            </g>
          </g>
        </g>
        <g id="Group_65-2" data-name="Group 65">
          <path id="Path_94-3" data-name="Path 94" d="M91.976,266.342,55.417,245.235V217.092L91.976,238.2Z" fill="#e0e0e0"/>
        </g>
        <g id="Group_66-2" data-name="Group 66">
          <path id="Path_95-3" data-name="Path 95" d="M72.319,233.509l2.755,1.591v-6.658l-2.755-1.591Z" fill="#f5f5f5"/>
        </g>
        <g id="Group_67-2" data-name="Group 67">
          <path id="Path_96-3" data-name="Path 96" d="M75.074,228.442l36.558-21.107-2.755-1.591L72.319,226.85Z" fill="#fff"/>
        </g>
        <path id="Path_97-3" data-name="Path 97" d="M61.212,234.508l8.721,5.036a3.833,3.833,0,0,1,1.733,3v5.381c0,1.1-.775,1.552-1.732,1l-8.723-5.035a3.832,3.832,0,0,1-1.732-3v-5.382C59.48,234.4,60.255,233.956,61.212,234.508Z" fill="#f5f5f5"/>
        <g id="Group_68-2" data-name="Group 68">
          <path id="Path_98-3" data-name="Path 98" d="M60.536,235.854l.331.191v5.976l-.331-.191Z" fill="#e0e0e0"/>
        </g>
        <g id="Group_69-2" data-name="Group 69">
          <path id="Path_99-3" data-name="Path 99" d="M61.885,236.632l.571.336v5.976l-.571-.336Z" fill="#e0e0e0"/>
        </g>
        <g id="Group_70-2" data-name="Group 70">
          <path id="Path_100-3" data-name="Path 100" d="M63.234,237.411l.331.191v5.976l-.331-.191Z" fill="#e0e0e0"/>
        </g>
        <g id="Group_71" data-name="Group 71">
          <path id="Path_101-3" data-name="Path 101" d="M64.251,237.987l.663.393v5.976l-.663-.393Z" fill="#e0e0e0"/>
        </g>
        <g id="Group_72" data-name="Group 72">
          <path id="Path_102-3" data-name="Path 102" d="M65.932,238.968l.331.191v5.976l-.331-.191Z" fill="#e0e0e0"/>
        </g>
        <g id="Group_73" data-name="Group 73">
          <path id="Path_103-3" data-name="Path 103" d="M66.9,239.516l.709.422v5.976l-.709-.421Z" fill="#e0e0e0"/>
        </g>
        <g id="Group_74" data-name="Group 74">
          <path id="Path_104-3" data-name="Path 104" d="M68.631,240.525l.331.191v5.976l-.331-.191Z" fill="#e0e0e0"/>
        </g>
        <g id="Group_75" data-name="Group 75">
          <path id="Path_105-3" data-name="Path 105" d="M69.4,240.963l.166.1v5.976l-.166-.1Z" fill="#e0e0e0"/>
        </g>
        <g id="Group_76" data-name="Group 76">
          <path id="Path_106-3" data-name="Path 106" d="M68.015,240.2l.166.1v5.976l-.166-.1Z" fill="#e0e0e0"/>
        </g>
        <g id="Group_77" data-name="Group 77">
          <path id="Path_107-3" data-name="Path 107" d="M65.3,238.607l.166.1v5.976l-.166-.1Z" fill="#e0e0e0"/>
        </g>
        <g id="Group_78" data-name="Group 78">
          <path id="Path_108-3" data-name="Path 108" d="M63.81,237.753l.166.1v5.976l-.166-.1Z" fill="#e0e0e0"/>
        </g>
        <g id="Group_79" data-name="Group 79">
          <path id="Path_109-3" data-name="Path 109" d="M62.741,237.163l.166.1v5.976l-.166-.1Z" fill="#e0e0e0"/>
        </g>
        <g id="Group_80" data-name="Group 80">
          <path id="Path_110-3" data-name="Path 110" d="M61.291,236.283l.166.1v5.976l-.166-.1Z" fill="#e0e0e0"/>
        </g>
        <g id="Group_81" data-name="Group 81">
          <path id="Path_111-3" data-name="Path 111" d="M69.98,241.3l.331.191v5.976l-.331-.191Z" fill="#e0e0e0"/>
        </g>
        <g id="Group_82" data-name="Group 82">
          <path id="Path_112-3" data-name="Path 112" d="M120.41,160.807,91.976,144.39,63.542,160.806l28.434,16.417Z" fill="#f5f5f5"/>
        </g>
        <g id="Group_83-2" data-name="Group 83">
          <path id="Path_113-3" data-name="Path 113" d="M91.976,233.508l28.434-16.417V160.806L91.976,177.223Z" fill="#ebebeb"/>
        </g>
        <g id="Group_87-2" data-name="Group 87">
          <g id="Group_84-2" data-name="Group 84">
            <path id="Path_114-3" data-name="Path 114" d="M96.672,224.173a.728.728,0,0,1-.366-.1,1.115,1.115,0,0,1-.457-1.012v-3.208l.152.027,2.338-1.373v3.333a2.7,2.7,0,0,1-1.152,2.176A1.031,1.031,0,0,1,96.672,224.173Zm-.448-3.868v2.76a.765.765,0,0,0,.269.687A.517.517,0,0,0,97,223.7a2.363,2.363,0,0,0,.964-1.852V221.6H97.1l-.171-1.169Zm1.2.919h.541v-2.058l-1.395.819.691.124Z" fill="#fff"/>
          </g>
          <g id="Group_85-2" data-name="Group 85">
            <path id="Path_115-3" data-name="Path 115" d="M97.094,226.551a.188.188,0,0,1-.188-.188v-2.505a.188.188,0,1,1,.375,0v2.505A.188.188,0,0,1,97.094,226.551Z" fill="#fff"/>
          </g>
          <g id="Group_86-2" data-name="Group 86">
            <path id="Path_116-3" data-name="Path 116" d="M96,227.179a.188.188,0,0,1-.094-.35l2.178-1.257a.187.187,0,1,1,.187.325L96.1,227.154A.189.189,0,0,1,96,227.179Z" fill="#fff"/>
          </g>
        </g>
        <g id="Group_90-2" data-name="Group 90">
          <g id="Group_88-2" data-name="Group 88">
            <path id="Path_117-3" data-name="Path 117" d="M103.763,222.865a.409.409,0,0,1-.205-.053.5.5,0,0,1-.225-.45v-.515a.188.188,0,0,1,.375,0v.515c0,.076.021.116.035.124s.06.007.124-.032a1.1,1.1,0,0,0,.348-.847v-3.331a.188.188,0,1,1,.375,0v3.331a1.431,1.431,0,0,1-.533,1.171A.587.587,0,0,1,103.763,222.865Z" fill="#fff"/>
          </g>
          <g id="Group_89-2" data-name="Group 89">
            <path id="Path_118-2" data-name="Path 118" d="M101.788,219.952v-.325a5.306,5.306,0,0,1,2.4-4.153,1.587,1.587,0,0,1,2.586,1.492v.108Zm3.521-4.444a1.91,1.91,0,0,0-.936.291,4.95,4.95,0,0,0-2.192,3.493l4.213-2.433a1.385,1.385,0,0,0-.579-1.222A1,1,0,0,0,105.309,215.508Z" fill="#fff"/>
          </g>
        </g>
        <g id="Group_97" data-name="Group 97">
          <g id="Group_93" data-name="Group 93">
            <g id="Group_91-2" data-name="Group 91">
              <path id="Path_119-2" data-name="Path 119" d="M110.5,219.026a.187.187,0,0,1-.187-.187v-6.38a.188.188,0,1,1,.375,0v6.38A.188.188,0,0,1,110.5,219.026Z" fill="#fff"/>
            </g>
            <g id="Group_92" data-name="Group 92">
              <path id="Path_120-2" data-name="Path 120" d="M109.947,213.914a.176.176,0,0,1-.074-.016.186.186,0,0,1-.1-.246l.667-1.541.744.859a.186.186,0,0,1-.018.264.189.189,0,0,1-.265-.019l-.353-.408-.431.994A.188.188,0,0,1,109.947,213.914Z" fill="#fff"/>
            </g>
          </g>
          <g id="Group_96" data-name="Group 96">
            <g id="Group_94" data-name="Group 94">
              <path id="Path_121-2" data-name="Path 121" d="M112.229,218.037a.187.187,0,0,1-.187-.187v-6.38a.188.188,0,0,1,.375,0v6.38A.188.188,0,0,1,112.229,218.037Z" fill="#fff"/>
            </g>
            <g id="Group_95" data-name="Group 95">
              <path id="Path_122-2" data-name="Path 122" d="M111.681,212.925a.181.181,0,0,1-.075-.016.186.186,0,0,1-.1-.246l.667-1.541.744.859a.187.187,0,0,1-.283.245l-.354-.408-.431.994A.185.185,0,0,1,111.681,212.925Z" fill="#fff"/>
            </g>
          </g>
        </g>
        <g id="Group_98" data-name="Group 98">
          <path id="Path_123-2" data-name="Path 123" d="M91.976,233.509,63.542,217.092V160.806l28.434,16.417Z" fill="#e0e0e0"/>
        </g>
        <g id="Group_99" data-name="Group 99">
          <path id="Path_124-2" data-name="Path 124" d="M77.034,175.253l2.755,1.591v-6.659l-2.755-1.591Z" fill="#f5f5f5"/>
        </g>
        <g id="Group_100" data-name="Group 100">
          <path id="Path_125-3" data-name="Path 125" d="M79.79,170.186l28.434-16.417-2.757-1.59L77.034,168.595Z" fill="#fff"/>
        </g>
        <g id="Group_101" data-name="Group 101">
          <path id="Path_126-3" data-name="Path 126" d="M69.327,206.363l8.722,5.035a3.832,3.832,0,0,1,1.732,3v5.381c0,1.1-.775,1.553-1.732,1l-8.722-5.035a3.829,3.829,0,0,1-1.732-3v-5.381C67.6,206.258,68.371,205.81,69.327,206.363Z" fill="#f5f5f5"/>
        </g>
        <g id="Group_116" data-name="Group 116">
          <g id="Group_102" data-name="Group 102">
            <path id="Path_127-3" data-name="Path 127" d="M68.651,207.708l.331.191v5.976l-.331-.191Z" fill="#e0e0e0"/>
          </g>
          <g id="Group_103" data-name="Group 103">
            <path id="Path_128-3" data-name="Path 128" d="M70,208.486l.571.336V214.8L70,214.463Z" fill="#e0e0e0"/>
          </g>
          <g id="Group_104" data-name="Group 104">
            <path id="Path_129-3" data-name="Path 129" d="M71.35,209.265l.331.191v5.976l-.331-.191Z" fill="#e0e0e0"/>
          </g>
          <g id="Group_105" data-name="Group 105">
            <path id="Path_130-3" data-name="Path 130" d="M72.367,209.841l.663.393v5.976l-.663-.393Z" fill="#e0e0e0"/>
          </g>
          <g id="Group_106" data-name="Group 106">
            <path id="Path_131-3" data-name="Path 131" d="M74.048,210.822l.332.192v5.976l-.331-.191Z" fill="#e0e0e0"/>
          </g>
          <g id="Group_107" data-name="Group 107">
            <path id="Path_132-3" data-name="Path 132" d="M75.019,211.37l.709.421v5.976l-.709-.422Z" fill="#e0e0e0"/>
          </g>
          <g id="Group_108" data-name="Group 108">
            <path id="Path_133-3" data-name="Path 133" d="M76.746,212.379l.331.191v5.976l-.331-.191Z" fill="#e0e0e0"/>
          </g>
          <g id="Group_109" data-name="Group 109">
            <path id="Path_134-3" data-name="Path 134" d="M77.516,212.817l.166.1v5.976l-.166-.1Z" fill="#e0e0e0"/>
          </g>
          <g id="Group_110" data-name="Group 110">
            <path id="Path_135-3" data-name="Path 135" d="M76.131,212.053l.166.1v5.976l-.165-.1Z" fill="#e0e0e0"/>
          </g>
          <g id="Group_111" data-name="Group 111">
            <path id="Path_136-3" data-name="Path 136" d="M73.413,210.462l.166.1v5.976l-.166-.1Z" fill="#e0e0e0"/>
          </g>
          <g id="Group_112" data-name="Group 112">
            <path id="Path_137-3" data-name="Path 137" d="M71.925,209.607l.166.1v5.976l-.166-.1Z" fill="#e0e0e0"/>
          </g>
          <g id="Group_113" data-name="Group 113">
            <path id="Path_138-3" data-name="Path 138" d="M70.856,209.017l.166.1v5.976l-.166-.1Z" fill="#e0e0e0"/>
          </g>
          <g id="Group_114" data-name="Group 114">
            <path id="Path_139-3" data-name="Path 139" d="M69.407,208.137l.166.1v5.976l-.166-.1Z" fill="#e0e0e0"/>
          </g>
          <g id="Group_115" data-name="Group 115">
            <path id="Path_140-3" data-name="Path 140" d="M78.1,213.157l.331.191v5.976l-.331-.191Z" fill="#e0e0e0"/>
          </g>
        </g>
      </g>
    </g>
    <path id="Shadow-3" data-name="Shadow" d="M173.49,435.357l121.489-70.143a1.394,1.394,0,0,0,0-2.641L222.2,320.526a5.055,5.055,0,0,0-4.575,0L96.141,390.669a1.4,1.4,0,0,0,0,2.642l72.775,42.046A5.055,5.055,0,0,0,173.49,435.357Z" transform="translate(-31.374 4.793)" fill="#e0e0e0"/>
    <g id="Credit_card" data-name="Credit card" transform="translate(63.819 321.397)">
      <g id="Group_149" data-name="Group 149" transform="translate(0 0)">
        <g id="Group_121" data-name="Group 121">
          <g id="Group_119" data-name="Group 119">
            <path id="Path_123-3" data-name="Path 123" d="M153.312,350.766l115.4-66.627a3.6,3.6,0,0,1,3.264,0l73.294,42.316a3.612,3.612,0,0,1,1.633,2.827v.651a3.608,3.608,0,0,1-1.633,2.827l-115.4,66.627a3.572,3.572,0,0,1-3.258-.012l-73.307-43.017a3.214,3.214,0,0,1,.007-5.592Z" transform="translate(-151.68 -283.748)" fill="#c6aa80"/>
          </g>
          <g id="Group_120" data-name="Group 120" opacity="0.2">
            <path id="Path_124-3" data-name="Path 124" d="M153.312,350.766l115.4-66.627a3.6,3.6,0,0,1,3.264,0l73.294,42.316a3.612,3.612,0,0,1,1.633,2.827v.651a3.608,3.608,0,0,1-1.633,2.827l-115.4,66.627a3.572,3.572,0,0,1-3.258-.012l-73.307-43.017a3.214,3.214,0,0,1,.007-5.592Z" transform="translate(-151.68 -283.748)" fill="#fff"/>
          </g>
        </g>
        <g id="Group_122" data-name="Group 122" transform="translate(0 50.279)">
          <path id="Path_125-4" data-name="Path 125" d="M151.68,356.631a3.605,3.605,0,0,0,1.626,2.8l73.307,43.017a5.968,5.968,0,0,0,1.626.4v-12.7l-3.828-50.832L182.3,337.1l-28.99,16.738A3.571,3.571,0,0,0,151.68,356.631Z" transform="translate(-151.68 -337.103)" fill="#80c19c"/>
          <line id="Line_1" data-name="Line 1" x2="73.307" y2="43.017" transform="translate(1.625 22.33)" fill="#27debf"/>
        </g>
        <g id="Group_125" data-name="Group 125" transform="translate(0 50.279)">
          <g id="Group_123" data-name="Group 123">
            <path id="Path_126-4" data-name="Path 126" d="M151.68,356.631a3.605,3.605,0,0,0,1.626,2.8l73.307,43.017a5.968,5.968,0,0,0,1.626.4v-12.7l-3.828-50.832L182.3,337.1l-28.99,16.738A3.571,3.571,0,0,0,151.68,356.631Z" transform="translate(-151.68 -337.103)" fill="#c6aa80"/>
            <line id="Line_2" data-name="Line 2" x2="73.307" y2="43.017" transform="translate(1.625 22.33)" fill="#27debf"/>
          </g>
          <g id="Group_124" data-name="Group 124" opacity="0.2">
            <path id="Path_127-4" data-name="Path 127" d="M151.68,356.631a3.605,3.605,0,0,0,1.626,2.8l73.307,43.017a5.968,5.968,0,0,0,1.626.4v-12.7l-3.828-50.832L182.3,337.1l-28.99,16.738A3.571,3.571,0,0,0,151.68,356.631Z" transform="translate(-151.68 -337.103)"/>
            <line id="Line_3" data-name="Line 3" x2="73.307" y2="43.017" transform="translate(1.625 22.33)"/>
          </g>
        </g>
        <g id="Group_126" data-name="Group 126" transform="translate(0.956)">
          <path id="Path_128-4" data-name="Path 128" d="M272.035,284.139l73.294,42.316a1,1,0,0,1,0,1.885l-115.4,66.628a3.615,3.615,0,0,1-3.264,0L153.371,352.65a1,1,0,0,1,0-1.885l115.4-66.627A3.6,3.6,0,0,1,272.035,284.139Z" transform="translate(-152.695 -283.748)" fill="#c6aa80"/>
        </g>
        <g id="Group_127" data-name="Group 127" transform="translate(57.568 9.482)">
          <path id="Path_129-4" data-name="Path 129" d="M220.874,334.486a1.35,1.35,0,0,1-.593-.2l-7.162-4.134c-.214-.124-.331-.24-.349-.35s.074-.221.274-.337l3.193-1.842a4.777,4.777,0,0,1,2.49-.7,4.859,4.859,0,0,1,2.376.678,1.9,1.9,0,0,1,.766.72.7.7,0,0,1,.01.731,3.656,3.656,0,0,1,2.854.422c.751.434,1.137.919,1.164,1.458s-.4,1.06-1.281,1.567l-3.16,1.823A1.062,1.062,0,0,1,220.874,334.486Zm-1.754-4.729c.222-.128.329-.265.323-.408s-.134-.288-.381-.431a1.512,1.512,0,0,0-.74-.229,1.373,1.373,0,0,0-.7.2l-1.178.679,1.5.864Zm3.51,1.815c.229-.131.329-.277.3-.438s-.166-.312-.413-.454a1.7,1.7,0,0,0-.835-.248,1.489,1.489,0,0,0-.767.2l-1.317.76,1.67.964Z" transform="translate(-212.769 -295.718)" fill="#fff"/>
          <path id="Path_130-4" data-name="Path 130" d="M227.418,330.739a.708.708,0,0,1-.194-.173l-4.8-5.912a.484.484,0,0,1-.141-.3q.01-.112.212-.229l.974-.564a.839.839,0,0,1,.4-.122,1.849,1.849,0,0,1,.516.08l10.241,2.771a1.346,1.346,0,0,1,.289.1c.074.042.112.088.114.134s-.032.09-.1.131l-1.66.959a.673.673,0,0,1-.3.1,1.066,1.066,0,0,1-.368-.051l-1.562-.468-2.249,1.3.823.9a.27.27,0,0,1,.09.212c-.013.06-.072.12-.179.182l-1.65.953A.42.42,0,0,1,227.418,330.739Zm1.459-4.241-2.757-.838,1.45,1.592Z" transform="translate(-213.317 -295.518)" fill="#fff"/>
          <path id="Path_131-4" data-name="Path 131" d="M236.164,325.612a1.362,1.362,0,0,1-.594-.2L228.4,321.27c-.214-.124-.329-.239-.341-.346s.083-.22.29-.339l.845-.488a1.126,1.126,0,0,1,.368-.141,1.553,1.553,0,0,1,.466.016l6.581.942-3.785-2.185c-.215-.124-.331-.239-.349-.35s.074-.221.274-.336l1.038-.6a1.08,1.08,0,0,1,.594-.165,1.379,1.379,0,0,1,.606.2l7.173,4.143q.322.187.335.342c.009.1-.089.216-.3.335l-.846.488a1.134,1.134,0,0,1-.367.147,1.42,1.42,0,0,1-.456-.014l-6.58-.942,3.8,2.192q.324.187.337.342t-.3.335l-1.038.6A1.062,1.062,0,0,1,236.164,325.612Z" transform="translate(-213.65 -295.162)" fill="#fff"/>
          <path id="Path_132-4" data-name="Path 132" d="M250.424,317.279c.074.041.113.087.114.133s-.032.091-.1.132l-1.66.958a1.039,1.039,0,0,1-.256.113.8.8,0,0,1-.269,0l-5.589-.8,3.031,1.75c.214.123.329.239.342.346s-.083.22-.291.339l-1.038.6a1.058,1.058,0,0,1-.582.164,1.339,1.339,0,0,1-.594-.2l-7.162-4.135c-.214-.123-.329-.239-.348-.349s.073-.222.273-.337l1.04-.6a1.056,1.056,0,0,1,.593-.164,1.344,1.344,0,0,1,.6.2l2.968,1.713-1.413-3.141a.151.151,0,0,1,0-.155.626.626,0,0,1,.2-.161l1.65-.953a.435.435,0,0,1,.228-.059.468.468,0,0,1,.233.066.3.3,0,0,1,.159.178l1.407,3.458,6.151.806A.741.741,0,0,1,250.424,317.279Z" transform="translate(-214.109 -294.897)" fill="#fff"/>
          <path id="Path_133-4" data-name="Path 133" d="M255.379,313.68a8.911,8.911,0,0,1-4.323-1.283q-2.164-1.251-2.254-2.484t1.806-2.328a8.65,8.65,0,0,1,1.68-.749,7.216,7.216,0,0,1,1.654-.332.568.568,0,0,1,.339.059.64.64,0,0,1,.185.193l.442.788c.066.087.062.151-.01.192a1.069,1.069,0,0,1-.3.074,5.1,5.1,0,0,0-1.921.636q-1,.575-.874,1.27t1.406,1.437a5.516,5.516,0,0,0,2.534.793,4.052,4.052,0,0,0,2.243-.523,2.565,2.565,0,0,0,1.145-1.133.377.377,0,0,1,.128-.173.492.492,0,0,1,.319-.013l1.435.271a.907.907,0,0,1,.285.091.187.187,0,0,1,.1.2q-.182.933-1.939,1.947A7.727,7.727,0,0,1,255.379,313.68Z" transform="translate(-214.846 -294.541)" fill="#fff"/>
          <path id="Path_134-4" data-name="Path 134" d="M262.543,310.459a.727.727,0,0,1-.2-.173l-4.8-5.914a.479.479,0,0,1-.141-.3c.007-.074.077-.152.212-.23l.976-.563a.83.83,0,0,1,.4-.123,1.94,1.94,0,0,1,.516.081l10.242,2.771a1.333,1.333,0,0,1,.287.106c.074.042.114.088.114.134s-.033.09-.1.131l-1.661.959a.689.689,0,0,1-.3.1,1.063,1.063,0,0,1-.368-.051l-1.563-.469-2.249,1.3.824.9a.269.269,0,0,1,.09.212c-.011.059-.071.12-.179.182l-1.649.952A.42.42,0,0,1,262.543,310.459ZM264,306.217l-2.756-.836,1.451,1.591Z" transform="translate(-215.342 -294.349)" fill="#fff"/>
          <path id="Path_135-4" data-name="Path 135" d="M271.289,305.39a1.352,1.352,0,0,1-.595-.2l-7.161-4.135c-.214-.123-.329-.24-.348-.349s.074-.221.274-.336l2.635-1.522a5.765,5.765,0,0,1,2.914-.854,5.7,5.7,0,0,1,2.848.827q1.77,1.022,1.257,2.087l3.721.923a.919.919,0,0,1,.239.09c.074.043.114.092.117.147s-.034.106-.113.153l-1.5.865a.913.913,0,0,1-.3.117.707.707,0,0,1-.32-.03l-3.4-.937-.825.477,2.128,1.229c.215.123.329.239.341.346s-.082.219-.289.338l-1.04.6A1.052,1.052,0,0,1,271.289,305.39Zm-1.534-4.157q.977-.564-.063-1.164a1.861,1.861,0,0,0-1.973-.074l-.845.489,2.089,1.206Z" transform="translate(-215.675 -294.051)" fill="#fff"/>
          <path id="Path_136-4" data-name="Path 136" d="M278.507,301.221a1.351,1.351,0,0,1-.593-.2l-7.163-4.135c-.213-.124-.329-.24-.349-.35s.074-.221.274-.336l2.357-1.361a7.278,7.278,0,0,1,3.824-1.028A8.621,8.621,0,0,1,281,295.1q2.115,1.221,2.2,2.381t-1.75,2.218l-2.358,1.36A1.05,1.05,0,0,1,278.507,301.221Zm1.243-2.617q.77-.444.6-.97t-1.5-1.295a6.018,6.018,0,0,0-2.237-.865,2.717,2.717,0,0,0-1.672.352l-.848.489,4.814,2.778Z" transform="translate(-216.091 -293.81)" fill="#fff"/>
        </g>
        <g id="Group_128" data-name="Group 128" transform="translate(23.924 59.672)">
          <path id="Path_137-4" data-name="Path 137" d="M177.743,358.836l19.7-11.376a3.609,3.609,0,0,1,3.264,0l15.876,9.165a1,1,0,0,1,0,1.885l-19.7,11.375a3.605,3.605,0,0,1-3.265,0l-15.875-9.164A1,1,0,0,1,177.743,358.836Z" transform="translate(-177.067 -347.07)" fill="#e0e0e0"/>
        </g>
        <g id="Group_135" data-name="Group 135" transform="translate(23.924 59.672)">
          <g id="Group_134" data-name="Group 134" clip-path="url(#clip-path)">
            <g id="Group_133" data-name="Group 133" transform="translate(2.636 -1.096)">
              <g id="Group_129" data-name="Group 129" transform="translate(0 13.911)">
                <path id="Path_138-4" data-name="Path 138" d="M206.983,369.813l-13.745-7.773a3.333,3.333,0,0,0-3.3.015l-9.606,5.546-.471-.815,9.606-5.547a4.28,4.28,0,0,1,4.231-.02l13.745,7.773Z" transform="translate(-179.864 -360.669)" fill="#fff"/>
              </g>
              <g id="Group_130" data-name="Group 130" transform="translate(7.657 2.346)">
                <path id="Path_139-4" data-name="Path 139" d="M203.535,357.521a4.3,4.3,0,0,1-2.15-.574l-13.4-7.735.471-.815,13.4,7.734a3.377,3.377,0,0,0,3.36,0l9.568-5.524.471.815-9.568,5.525A4.3,4.3,0,0,1,203.535,357.521Z" transform="translate(-187.989 -348.397)" fill="#fff"/>
              </g>
              <g id="Group_131" data-name="Group 131" transform="translate(15.312)">
                <path id="Path_140-4" data-name="Path 140" d="M200.411,355.7l-.471-.815,10.777-6.223-2.886-1.666-11.248,6.493-.471-.815,11.719-6.766,4.771,2.753Z" transform="translate(-196.113 -345.907)" fill="#fff"/>
              </g>
              <g id="Group_132" data-name="Group 132" transform="translate(3.119 15.606)">
                <path id="Path_141-2" data-name="Path 141" d="M187.947,372.26l-4.773-2.756,12.275-7.036.469.817-10.854,6.223,2.883,1.665,11.327-6.539.471.815Z" transform="translate(-183.173 -362.468)" fill="#fff"/>
              </g>
            </g>
          </g>
        </g>
        <g id="Group_136" data-name="Group 136" transform="translate(51.186 75.422)">
          <path id="Path_143-2" data-name="Path 143" d="M207.011,374.8l18.071-10.434a5.408,5.408,0,0,1,4.9,0l2.759,1.594c1.352.78,1.352,2.047,0,2.827l-18.071,10.433a5.414,5.414,0,0,1-4.9,0l-2.759-1.593C205.659,376.848,205.659,375.583,207.011,374.8Z" transform="translate(-205.997 -363.783)" fill="#c6aa80"/>
        </g>
        <g id="Group_137" data-name="Group 137" transform="translate(52.128 75.422)" opacity="0.7">
          <path id="Path_144-2" data-name="Path 144" d="M208.011,374.8l18.071-10.434a5.408,5.408,0,0,1,4.9,0l2.759,1.594c1.352.78,1.352,2.047,0,2.827l-18.071,10.433a5.414,5.414,0,0,1-4.9,0l-2.759-1.593C206.659,376.848,206.659,375.583,208.011,374.8Z" transform="translate(-206.997 -363.783)" fill="#fff"/>
        </g>
        <g id="Group_138" data-name="Group 138" transform="translate(77.982 59.952)">
          <path id="Path_145-2" data-name="Path 145" d="M235.446,358.386l18.071-10.434a5.414,5.414,0,0,1,4.9,0l2.759,1.594c1.351.781,1.351,2.047,0,2.827L243.1,362.806a5.41,5.41,0,0,1-4.9,0l-2.758-1.593C234.094,360.432,234.094,359.167,235.446,358.386Z" transform="translate(-234.432 -347.367)" fill="#80c19c"/>
        </g>
        <g id="Group_139" data-name="Group 139" transform="translate(77.982 59.952)">
          <path id="Path_146-2" data-name="Path 146" d="M235.446,358.386l18.071-10.434a5.414,5.414,0,0,1,4.9,0l2.759,1.594c1.351.781,1.351,2.047,0,2.827L243.1,362.806a5.41,5.41,0,0,1-4.9,0l-2.758-1.593C234.094,360.432,234.094,359.167,235.446,358.386Z" transform="translate(-234.432 -347.367)" fill="#c6aa80"/>
          <path id="Path_147-2" data-name="Path 147" d="M235.446,358.386l18.071-10.434a5.414,5.414,0,0,1,4.9,0l2.759,1.594c1.351.781,1.351,2.047,0,2.827L243.1,362.806a5.41,5.41,0,0,1-4.9,0l-2.758-1.593C234.094,360.432,234.094,359.167,235.446,358.386Z" transform="translate(-234.432 -347.367)" fill="#fff" opacity="0.7"/>
        </g>
        <g id="Group_140" data-name="Group 140" transform="translate(104.777 44.481)">
          <path id="Path_148-2" data-name="Path 148" d="M263.88,341.97l18.071-10.434a5.408,5.408,0,0,1,4.9,0l2.759,1.594c1.352.78,1.352,2.046,0,2.827L271.536,346.39a5.414,5.414,0,0,1-4.9,0L263.88,344.8C262.528,344.016,262.528,342.75,263.88,341.97Z" transform="translate(-262.866 -330.95)" fill="#c6aa80"/>
          <path id="Path_149-2" data-name="Path 149" d="M263.88,341.97l18.071-10.434a5.408,5.408,0,0,1,4.9,0l2.759,1.594c1.352.78,1.352,2.046,0,2.827L271.536,346.39a5.414,5.414,0,0,1-4.9,0L263.88,344.8C262.528,344.016,262.528,342.75,263.88,341.97Z" transform="translate(-262.866 -330.95)" fill="#fff" opacity="0.7"/>
        </g>
        <g id="Group_141" data-name="Group 141" transform="translate(131.572 29.011)">
          <path id="Path_150-2" data-name="Path 150" d="M292.314,325.553l18.072-10.434a5.412,5.412,0,0,1,4.9,0l2.76,1.594c1.351.78,1.351,2.047,0,2.827L299.97,329.973a5.412,5.412,0,0,1-4.9,0l-2.76-1.593C290.962,327.6,290.962,326.333,292.314,325.553Z" transform="translate(-291.3 -314.534)" fill="#c6aa80"/>
          <path id="Path_151-2" data-name="Path 151" d="M292.314,325.553l18.072-10.434a5.412,5.412,0,0,1,4.9,0l2.76,1.594c1.351.78,1.351,2.047,0,2.827L299.97,329.973a5.412,5.412,0,0,1-4.9,0l-2.76-1.593C290.962,327.6,290.962,326.333,292.314,325.553Z" transform="translate(-291.3 -314.534)" fill="#fff" opacity="0.7"/>
        </g>
        <g id="Group_148" data-name="Group 148" transform="translate(120.474 38.082)">
          <g id="Group_144" data-name="Group 144">
            <g id="Group_142" data-name="Group 142">
              <path id="Path_152" data-name="Path 152" d="M329.83,324.474c.8.459.709,1.252-.192,1.773l-46.5,26.845a3.4,3.4,0,0,1-3.071.111c-.8-.458-.709-1.252.193-1.773l46.5-26.846A3.411,3.411,0,0,1,329.83,324.474Z" transform="translate(-279.524 -324.16)" fill="#c6aa80"/>
            </g>
            <g id="Group_143" data-name="Group 143" opacity="0.1">
              <path id="Path_153" data-name="Path 153" d="M329.83,324.474c.8.459.709,1.252-.192,1.773l-46.5,26.845a3.4,3.4,0,0,1-3.071.111c-.8-.458-.709-1.252.193-1.773l46.5-26.846A3.411,3.411,0,0,1,329.83,324.474Z" transform="translate(-279.524 -324.16)"/>
            </g>
          </g>
          <g id="Group_147" data-name="Group 147" transform="translate(24.419 4.425)">
            <g id="Group_145" data-name="Group 145">
              <path id="Path_154" data-name="Path 154" d="M339.019,329.17c.794.459.709,1.252-.193,1.773l-29.775,17.184a3.411,3.411,0,0,1-3.07.112c-.8-.46-.709-1.253.192-1.774l29.774-17.184A3.405,3.405,0,0,1,339.019,329.17Z" transform="translate(-305.436 -328.855)" fill="#c6aa80"/>
            </g>
            <g id="Group_146" data-name="Group 146" opacity="0.1">
              <path id="Path_155" data-name="Path 155" d="M339.019,329.17c.794.459.709,1.252-.193,1.773l-29.775,17.184a3.411,3.411,0,0,1-3.07.112c-.8-.46-.709-1.253.192-1.774l29.774-17.184A3.405,3.405,0,0,1,339.019,329.17Z" transform="translate(-305.436 -328.855)"/>
            </g>
          </g>
        </g>
      </g>
    </g>
  </g>
</svg>
