<svg xmlns="http://www.w3.org/2000/svg" width="458.187" height="319.737" viewBox="0 0 458.187 319.737">
  <g id="ERP" transform="translate(-20.907 -99.351)">
    <g id="Floor">
      <g id="Group_1" data-name="Group 1">
        <path id="Path_1" data-name="Path 1" d="M88.007,384.034c89.467,46.738,234.521,46.739,323.986,0s89.467-122.516,0-169.254-234.52-46.739-323.987,0S-1.46,337.3,88.007,384.034Z" fill="#e6efef"/>
      </g>
    </g>
    <g id="Gears" transform="translate(-138 98)">
      <g id="Gears-2" data-name="Gears">
        <g id="Group_57" data-name="Group 57">
          <path id="Path_81" data-name="Path 81" d="M337.347,82.206l-1.279-7.432-6.632,4.364a9.144,9.144,0,0,0-2.521-3.061l3.173-8.584-5.908-1.321-4.365,8.317a15.9,15.9,0,0,0-4.547,1.481l-1.889-6.27L306.3,75.264l.463,7.389a39.6,39.6,0,0,0-3.912,5.171l-5.847-.289-4.1,9.188,5.02,2.142a29.94,29.94,0,0,0-.991,5.823l-6.374,5.861,1.28,7.431,6.632-4.363A9.144,9.144,0,0,0,301,116.678l-3.173,8.583,5.908,1.322,6.244-6.088c1.447-.223,1.094-2.94,2.668-3.71l1.889,6.269,7.076-5.563-.182-2.907c1.432-1.593,6.84-5.108,8.009-6.942l1.468-2.422,4.1-9.189-1.91-3.459-2.119-4.5ZM315.734,106.7c-5.429,4.267-7.082,5.2-8.064-.5s2.193-14.395,7.622-18.663,7.511-4.587,8.493,1.115S321.162,102.433,315.734,106.7Z" fill="#e0e0e0"/>
          <path id="Path_82" data-name="Path 82" d="M324.18,66.172l7.73,4.458-4.365,8.317-7.73-4.458Z" fill="#f5f5f5"/>
          <path id="Path_83" data-name="Path 83" d="M343.8,79.232,337.166,83.6l-7.73-4.458,6.631-4.364Z" fill="#f5f5f5"/>
          <path id="Path_84" data-name="Path 84" d="M342.733,100.489l-5.02-2.141-7.73-4.458L335,96.031Z" fill="#e0e0e0"/>
          <path id="Path_85" data-name="Path 85" d="M297.824,125.261l7.73,4.458,3.173-8.583L301,116.678Z" fill="#e0e0e0"/>
          <path id="Path_86" data-name="Path 86" d="M322.263,127.512l-7.73-4.458-1.889-6.269,7.73,4.458Z" fill="#e0e0e0"/>
          <path id="Path_87" data-name="Path 87" d="M345.077,86.663,343.8,79.232,337.166,83.6a9.157,9.157,0,0,0-2.521-3.062l3.173-8.583L331.91,70.63l-4.365,8.317A15.919,15.919,0,0,0,323,80.427l-1.889-6.269-7.076,5.563.463,7.39a39.581,39.581,0,0,0-3.912,5.17l-5.846-.288-4.1,9.188,5.021,2.141a29.888,29.888,0,0,0-.992,5.824l-6.373,5.861,1.279,7.431,6.632-4.364a9.148,9.148,0,0,0,2.521,3.062l-3.173,8.583,5.908,1.321,4.365-8.317a15.888,15.888,0,0,0,4.547-1.48l1.889,6.269,7.076-5.563-.463-7.39a39.67,39.67,0,0,0,3.912-5.17l5.846.289,4.1-9.189-5.021-2.141a29.888,29.888,0,0,0,.992-5.824Zm-21.613,24.495c-5.429,4.268-10.625,3.106-11.607-2.595s2.623-13.783,8.051-18.051,10.625-3.106,11.607,2.6S328.892,106.89,323.464,111.158Z" fill="#ebebeb"/>
          <path id="Path_88" data-name="Path 88" d="M321.109,74.158l-7.73-4.458L306.3,75.264l7.73,4.458Z" fill="#f5f5f5"/>
          <path id="Path_89" data-name="Path 89" d="M306.3,75.264l.463,7.39,7.73,4.458-.463-7.39Z" fill="#e0e0e0"/>
          <path id="Path_90" data-name="Path 90" d="M310.584,92.281l-7.73-4.458-5.847-.289,7.73,4.458Z" fill="#f5f5f5"/>
          <path id="Path_91" data-name="Path 91" d="M297.008,87.535l-4.1,9.189,7.73,4.458,4.1-9.189Z" fill="#e0e0e0"/>
          <path id="Path_92" data-name="Path 92" d="M304.668,109.146l-7.73-4.458-6.374,5.861,7.73,4.458Z" fill="#f5f5f5"/>
          <path id="Path_93" data-name="Path 93" d="M299.574,122.438l-7.73-4.458-1.28-7.432,7.73,4.458Z" fill="#e0e0e0"/>
          <path id="Path_94" data-name="Path 94" d="M331.91,70.63l-7.73-4.458,5.908,1.321,7.73,4.458Z" fill="#f5f5f5"/>
        </g>
        <g id="Group_58" data-name="Group 58">
          <path id="Path_95" data-name="Path 95" d="M275.957,66.99V55.89l-8.834,3.983a15.7,15.7,0,0,0-2.386-5.258L270.3,43.393l-6.8-3.925L256.569,49.9a15.718,15.718,0,0,0-5.746.563l-.968-9.642-9.613,5.55-.968,10.76a47.5,47.5,0,0,0-5.747,6.073l-6.936-2.422-6.8,11.773,5.566,4.8a47.491,47.491,0,0,0-2.387,8.013l-8.834,6.218v11.1l8.834-3.982a15.72,15.72,0,0,0,2.387,5.257l-5.566,11.223,6.8,3.924,6.936-10.431a15.723,15.723,0,0,0,5.747-.563l.968,9.642,9.613-5.55.968-10.76a18.023,18.023,0,0,0,7.707-5.4l4.975,1.752,6.8-11.774-4.171-3.594c1.042-2.653,1.153-6.895.991-9.214ZM245.048,94.705c-7.375,4.257-11.958,1.237-11.958-7.279s6.094-18.948,13.469-23.205S258.4,63.06,258.4,71.576,252.423,90.447,245.048,94.705Z" fill="#e0e0e0"/>
          <path id="Path_96" data-name="Path 96" d="M271.236,43.926l-7.73-4.458L256.569,49.9l7.73,4.458Z" fill="#f5f5f5"/>
          <path id="Path_97" data-name="Path 97" d="M283.687,60.348l-7.73-4.458-8.834,3.982,7.73,4.458Z" fill="#f5f5f5"/>
          <path id="Path_98" data-name="Path 98" d="M247.972,122.209l-7.73-4.458-.968-9.641,7.73,4.458Z" fill="#e0e0e0"/>
          <path id="Path_99" data-name="Path 99" d="M219.794,115.179l7.73,4.458,5.566-11.223-7.73-4.458Z" fill="#e0e0e0"/>
          <path id="Path_100" data-name="Path 100" d="M283.687,71.448v-11.1l-8.834,3.982a15.7,15.7,0,0,0-2.386-5.257l5.566-11.223-6.8-3.924L264.3,54.357a15.74,15.74,0,0,0-5.746.562l-.968-9.641-9.613,5.55L247,61.588a47.491,47.491,0,0,0-5.747,6.072l-6.936-2.422-6.8,11.774,5.566,4.795A47.547,47.547,0,0,0,230.7,89.82l-8.833,6.219v11.1l8.833-3.983a15.726,15.726,0,0,0,2.387,5.258l-5.566,11.223,6.8,3.924,6.936-10.432a15.7,15.7,0,0,0,5.747-.562l.968,9.642,9.613-5.551.968-10.759a47.424,47.424,0,0,0,5.746-6.073l6.937,2.422,6.8-11.773-5.566-4.8a47.4,47.4,0,0,0,2.386-8.013ZM252.778,99.162c-7.374,4.258-13.353.807-13.353-7.709s5.979-18.871,13.353-23.129,13.354-.806,13.354,7.71S260.153,94.9,252.778,99.162Z" fill="#ebebeb"/>
          <path id="Path_101" data-name="Path 101" d="M233.527,63.2l7.73,4.458-6.936-2.422-7.73-4.458Z" fill="#f5f5f5"/>
          <rect id="Rectangle_1" data-name="Rectangle 1" width="13.595" height="8.923" transform="translate(219.797 72.556) rotate(-60.029)" fill="#f5f5f5"/>
          <path id="Path_102" data-name="Path 102" d="M219.794,72.554l7.73,4.458,5.566,4.8-7.73-4.458Z" fill="#e0e0e0"/>
          <path id="Path_103" data-name="Path 103" d="M222.973,85.363l7.73,4.458-8.834,6.218-7.73-4.458Z" fill="#f5f5f5"/>
          <path id="Path_104" data-name="Path 104" d="M214.139,91.581l7.73,4.458v11.1l-7.73-4.458Z" fill="#e0e0e0"/>
          <path id="Path_105" data-name="Path 105" d="M257.585,45.278l-7.73-4.458-9.613,5.55,7.73,4.458Z" fill="#f5f5f5"/>
        </g>
      </g>
    </g>
    <g id="Plants" transform="translate(-26 -10)">
      <g id="Group_5" data-name="Group 5">
        <path id="Path_2" data-name="Path 2" d="M436.853,245.657s2.363-7.319,10.074-15.118c3.4-3.443,5.628-5.84,4.91-7.887-.637-1.815-2.8-2.756-5.886-1.293-4.391,2.084-7.354,5.937-9.1,13.7Z" fill="#80c19c"/>
        <path id="Path_3" data-name="Path 3" d="M436.853,245.657s2.363-7.319,10.074-15.118c3.4-3.443,5.628-5.84,4.91-7.887-.637-1.815-2.8-2.756-5.886-1.293-4.391,2.084-7.354,5.937-9.1,13.7Z" opacity="0.1"/>
        <path id="Path_4" data-name="Path 4" d="M436.364,241.059a.344.344,0,0,1-.094-.013.374.374,0,0,1-.269-.457c2.751-10.617,9.858-17.2,12.87-18.719a.375.375,0,1,1,.338.669c-2.912,1.473-9.8,7.869-12.482,18.239A.374.374,0,0,1,436.364,241.059Z" fill="#fff"/>
        <g id="Group_4" data-name="Group 4">
          <g id="Group_2" data-name="Group 2">
            <path id="Path_5" data-name="Path 5" d="M436.854,254.755s3.289-6.459,7.259-9.881,9.071-6.933,4.746-9.611c-4.443-2.751-11.427,2.577-12.005,7.766Z" fill="#80c19c"/>
          </g>
          <g id="Group_3" data-name="Group 3">
            <path id="Path_6" data-name="Path 6" d="M436.364,250.156a.358.358,0,0,1-.085-.01.374.374,0,0,1-.28-.45c1.869-7.993,8.577-12.518,10.81-13.262a.375.375,0,0,1,.236.711c-2.04.681-8.541,5.133-10.316,12.722A.374.374,0,0,1,436.364,250.156Z" fill="#fff"/>
          </g>
        </g>
      </g>
      <g id="Group_9" data-name="Group 9">
        <g id="Group_6" data-name="Group 6">
          <path id="Path_7" data-name="Path 7" d="M144.388,319.581s-1.523-3.383-7.866-4.811c-6.177-1.393-9.248-.053-13.421-.715-4.226-.67-3.086-8.513,8.14-7.7,10.267.737,13.147,8.82,13.147,8.82Z" fill="#80c19c"/>
          <path id="Path_8" data-name="Path 8" d="M145,317.723a.374.374,0,0,1-.347-.234c-.975-2.391-4.694-6.292-9.911-7.479-6.463-1.468-9.9.022-9.938.037a.375.375,0,1,1-.307-.684c.149-.066,3.708-1.608,10.411-.084,5.788,1.317,9.475,5.561,10.439,7.927a.376.376,0,0,1-.206.489A.37.37,0,0,1,145,317.723Z" fill="#fff"/>
        </g>
        <g id="Group_8" data-name="Group 8">
          <g id="Group_7" data-name="Group 7">
            <path id="Path_9" data-name="Path 9" d="M144.388,315.73a24.428,24.428,0,0,0-4.8-6.073c-6.028-5.814-13.97-7.648-18.044-10.826-4.4-3.431.932-7.4,6.592-7.139,3.242.147,6.66,2.288,8.545,3.83,6.616,5.412,7.7,14.135,7.7,14.135Z" fill="#80c19c"/>
            <path id="Path_10" data-name="Path 10" d="M144.388,315.73a24.428,24.428,0,0,0-4.8-6.073c-6.028-5.814-13.97-7.648-18.044-10.826-4.4-3.431.932-7.4,6.592-7.139,3.242.147,6.66,2.288,8.545,3.83,6.616,5.412,7.7,14.135,7.7,14.135Z" fill="#fff" opacity="0.5"/>
          </g>
          <path id="Path_11" data-name="Path 11" d="M145,315.145a.376.376,0,0,1-.371-.328,23.793,23.793,0,0,0-5.523-11.329c-4.72-5.371-12.793-8.247-12.874-8.275a.375.375,0,1,1,.248-.707c.338.118,8.341,2.97,13.189,8.488a24.083,24.083,0,0,1,5.7,11.728.376.376,0,0,1-.324.42A.4.4,0,0,1,145,315.145Z" fill="#fff"/>
        </g>
      </g>
      <g id="Group_12" data-name="Group 12">
        <g id="Group_10" data-name="Group 10">
          <path id="Path_12" data-name="Path 12" d="M281.634,377.877s1.7-3.3,8.112-4.384c6.243-1.059,9.237.442,13.439,0,4.255-.443,3.538-8.335-7.714-8.13-10.292.188-13.6,8.1-13.6,8.1Z" fill="#80c19c"/>
          <path id="Path_13" data-name="Path 13" d="M281.634,377.877s1.7-3.3,8.112-4.384c6.243-1.059,9.237.442,13.439,0,4.255-.443,3.538-8.335-7.714-8.13-10.292.188-13.6,8.1-13.6,8.1Z" opacity="0.1"/>
        </g>
        <path id="Path_14" data-name="Path 14" d="M281.138,376.3a.37.37,0,0,1-.215-.068.375.375,0,0,1-.093-.522c2.387-3.417,6.742-5.98,11.651-6.855,6.308-1.126,10.006.87,10.161.955a.375.375,0,0,1-.364.656c-.035-.02-3.631-1.948-9.666-.873-4.717.841-8.891,3.289-11.167,6.547A.375.375,0,0,1,281.138,376.3Z" fill="#fff"/>
        <g id="Group_11" data-name="Group 11">
          <path id="Path_15" data-name="Path 15" d="M282.081,373.254a31.634,31.634,0,0,1,4.89-4.952c6.33-5.484,14.343-6.375,18.581-9.33,4.574-3.191-.534-7.435-6.2-7.482-3.246-.026-6.772,1.929-8.738,3.367a25.762,25.762,0,0,0-8.98,12.468Z" fill="#80c19c"/>
          <path id="Path_16" data-name="Path 16" d="M282.081,373.254a31.634,31.634,0,0,1,4.89-4.952c6.33-5.484,14.343-6.375,18.581-9.33,4.574-3.191-.534-7.435-6.2-7.482-3.246-.026-6.772,1.929-8.738,3.367a25.762,25.762,0,0,0-8.98,12.468Z" fill="#fff" opacity="0.5"/>
        </g>
        <path id="Path_17" data-name="Path 17" d="M281.138,373.175a.376.376,0,0,1-.358-.489A31.809,31.809,0,0,1,288,361.252a23.9,23.9,0,0,1,12.918-6.876.375.375,0,1,1,.088.744,23.616,23.616,0,0,0-12.477,6.663,31.015,31.015,0,0,0-7.032,11.13A.375.375,0,0,1,281.138,373.175Z" fill="#fff"/>
      </g>
    </g>
    <g id="Bar_Charts" data-name="Bar Charts" transform="translate(-26 -10)">
      <g id="Group_13" data-name="Group 13">
        <path id="Path_18" data-name="Path 18" d="M185.006,320.424V244.867H144.387v75.562h0c0,3,1.986,6,5.948,8.283,7.932,4.579,20.791,4.579,28.723,0,3.962-2.287,5.944-5.285,5.948-8.283h0Z" fill="#3d4642"/>
        <path id="Path_19" data-name="Path 19" d="M185.006,320.424V244.867H144.387v75.562h0c0,3,1.986,6,5.948,8.283,7.932,4.579,20.791,4.579,28.723,0,3.962-2.287,5.944-5.285,5.948-8.283h0Z" fill="#e0e0e0" opacity="0"/>
        <path id="Path_20" data-name="Path 20" d="M150.336,253.665c-7.931-4.579-7.931-12,0-16.583s20.791-4.579,28.723,0,7.931,12,0,16.583S158.268,258.244,150.336,253.665Z" fill="#526d60"/>
      </g>
      <g id="Group_14" data-name="Group 14">
        <path id="Path_21" data-name="Path 21" d="M233.751,348.566V293.578H193.132v54.993h0c0,3,1.986,6,5.948,8.283,7.931,4.58,20.791,4.58,28.722,0,3.962-2.287,5.945-5.285,5.948-8.283h0Z" fill="#3d4642"/>
        <path id="Path_22" data-name="Path 22" d="M233.751,348.566V293.578H193.132v54.993h0c0,3,1.986,6,5.948,8.283,7.931,4.58,20.791,4.58,28.722,0,3.962-2.287,5.945-5.285,5.948-8.283h0Z" fill="#e0e0e0" opacity="0"/>
        <path id="Path_23" data-name="Path 23" d="M199.081,302.376c-7.931-4.579-7.931-12,0-16.583s20.792-4.579,28.723,0,7.931,12,0,16.583S207.013,306.956,199.081,302.376Z" fill="#526d60"/>
      </g>
      <g id="Group_15" data-name="Group 15">
        <path id="Path_24" data-name="Path 24" d="M282.5,376.71V333.985h-40.62v42.729h0c0,3,1.986,6,5.948,8.283,7.932,4.58,20.791,4.58,28.723,0,3.962-2.287,5.944-5.284,5.947-8.283h0Z" fill="#3d4642"/>
        <path id="Path_25" data-name="Path 25" d="M282.5,376.71V333.985h-40.62v42.729h0c0,3,1.986,6,5.948,8.283,7.932,4.58,20.791,4.58,28.723,0,3.962-2.287,5.944-5.284,5.947-8.283h0Z" fill="#e0e0e0" opacity="0"/>
        <ellipse id="Ellipse_3" data-name="Ellipse 3" cx="20.31" cy="11.726" rx="20.31" ry="11.726" transform="translate(241.878 322.766)" fill="#526d60"/>
      </g>
      <path id="Path_26" data-name="Path 26" d="M141.789,347.064l-9.588-5.537,5.312-6.88c.675-.875.356-1.36-.714-1.084l-12.722,3.274-9.588-5.536a5.747,5.747,0,0,0-5.2,0l-15.113,8.726c-1.435.828-1.435,2.172,0,3l27.3,15.762a5.745,5.745,0,0,0,5.2,0l15.114-8.725C143.224,349.234,143.224,347.892,141.789,347.064Z" fill="#80c19c"/>
      <path id="Path_27" data-name="Path 27" d="M126.447,343.671a2.543,2.543,0,0,1,.474.005,1.156,1.156,0,0,1,.441.158l1.364.788c.123.07.189.145.2.221s-.033.144-.133.2a.431.431,0,0,1-.1.039,1,1,0,0,1-.15.029l-19.031,1.5a2.531,2.531,0,0,1-.473,0,1.143,1.143,0,0,1-.441-.159l-1.365-.787c-.121-.07-.188-.144-.2-.22s.034-.145.135-.2a.492.492,0,0,1,.1-.038.823.823,0,0,1,.149-.028Zm-6.121-1.268a10.728,10.728,0,0,1-1.265.731,5.707,5.707,0,0,1-1.114.422,4.822,4.822,0,0,1-1.231.154,5.237,5.237,0,0,1-2.627-.721,3.239,3.239,0,0,1-.949-.759,1.179,1.179,0,0,1-.291-.753,1.2,1.2,0,0,1,.266-.711,2.866,2.866,0,0,1,.723-.648c.2-.141.4-.267.591-.38s.418-.229.673-.35a5.393,5.393,0,0,1,1.124-.418,5.175,5.175,0,0,1,1.231-.154,5.037,5.037,0,0,1,1.305.168,5.326,5.326,0,0,1,1.315.548,3.236,3.236,0,0,1,.947.758,1.174,1.174,0,0,1,.291.754,1.2,1.2,0,0,1-.265.711A2.91,2.91,0,0,1,120.326,342.4Zm1.9,7.818a10.489,10.489,0,0,1-1.264.73,5.669,5.669,0,0,1-1.114.423,4.835,4.835,0,0,1-1.232.153,5.168,5.168,0,0,1-1.313-.173,5.252,5.252,0,0,1-1.315-.547,3.257,3.257,0,0,1-.948-.759,1.181,1.181,0,0,1-.291-.754,1.213,1.213,0,0,1,.266-.711,2.909,2.909,0,0,1,.724-.648c.2-.14.4-.267.59-.379s.419-.229.674-.351a5.457,5.457,0,0,1,1.123-.418,5.293,5.293,0,0,1,1.231-.153,5.014,5.014,0,0,1,1.306.168,5.266,5.266,0,0,1,1.314.548,3.272,3.272,0,0,1,.948.758,1.189,1.189,0,0,1,.291.754,1.208,1.208,0,0,1-.266.71A2.873,2.873,0,0,1,122.222,350.221Zm-6.371-9.037a1.193,1.193,0,0,0-.474.475c-.05.138.047.276.292.418a1.151,1.151,0,0,0,.723.168,2.633,2.633,0,0,0,.824-.274,8.084,8.084,0,0,0,1.1-.634,1.193,1.193,0,0,0,.474-.475c.05-.137-.047-.277-.29-.418a1.153,1.153,0,0,0-.725-.168,2.646,2.646,0,0,0-.823.274A8.036,8.036,0,0,0,115.851,341.184Zm1.9,7.817a1.2,1.2,0,0,0-.476.476c-.048.137.049.277.292.418a1.157,1.157,0,0,0,.724.168,2.643,2.643,0,0,0,.824-.274,8.036,8.036,0,0,0,1.1-.634,1.192,1.192,0,0,0,.474-.475q.075-.207-.291-.418a1.151,1.151,0,0,0-.725-.168,2.636,2.636,0,0,0-.822.273A8.291,8.291,0,0,0,117.748,349Z" fill="#fff"/>
      <path id="Path_28" data-name="Path 28" d="M194.614,377.541l-9.589-5.536,5.313-6.88c.675-.875.355-1.36-.715-1.085L176.9,367.315l-9.589-5.537a5.745,5.745,0,0,0-5.2,0L147,370.505c-1.435.828-1.435,2.171,0,3l27.3,15.762a5.745,5.745,0,0,0,5.2,0l15.114-8.726C196.049,379.712,196.049,378.369,194.614,377.541Z" fill="#80c19c"/>
      <path id="Path_29" data-name="Path 29" d="M179.272,374.148a2.724,2.724,0,0,1,.474.005,1.191,1.191,0,0,1,.441.158l1.363.789c.123.07.19.144.2.22s-.033.145-.132.2a.436.436,0,0,1-.1.038,1.018,1.018,0,0,1-.15.03l-19.032,1.5a2.52,2.52,0,0,1-.472-.005,1.17,1.17,0,0,1-.442-.159l-1.364-.787c-.121-.071-.188-.145-.2-.221s.034-.144.135-.2a.427.427,0,0,1,.1-.038.851.851,0,0,1,.15-.029Zm-6.121-1.267a10.858,10.858,0,0,1-1.265.73,5.642,5.642,0,0,1-1.114.422,4.786,4.786,0,0,1-1.232.155,5.182,5.182,0,0,1-1.313-.174,5.241,5.241,0,0,1-1.313-.547,3.259,3.259,0,0,1-.95-.759,1.189,1.189,0,0,1-.291-.754,1.21,1.21,0,0,1,.267-.711,2.883,2.883,0,0,1,.723-.647c.2-.142.4-.268.59-.38s.418-.23.674-.351a5.463,5.463,0,0,1,1.123-.418,5.241,5.241,0,0,1,1.232-.153,4.988,4.988,0,0,1,1.3.168,5.294,5.294,0,0,1,1.316.548,3.25,3.25,0,0,1,.947.758,1.176,1.176,0,0,1,.291.754,1.206,1.206,0,0,1-.266.71A2.886,2.886,0,0,1,173.151,372.881Zm1.9,7.817a10.354,10.354,0,0,1-1.263.731,5.783,5.783,0,0,1-1.115.423,4.866,4.866,0,0,1-1.231.153,5.218,5.218,0,0,1-2.628-.721,3.243,3.243,0,0,1-.948-.759,1.177,1.177,0,0,1-.291-.753,1.221,1.221,0,0,1,.265-.712,2.9,2.9,0,0,1,.725-.647c.2-.141.4-.267.59-.38s.419-.228.674-.35a5.4,5.4,0,0,1,1.123-.418,5.225,5.225,0,0,1,1.231-.154,5.058,5.058,0,0,1,1.306.168,5.3,5.3,0,0,1,1.313.548,3.264,3.264,0,0,1,.949.759,1.2,1.2,0,0,1,.291.754,1.211,1.211,0,0,1-.266.71A2.878,2.878,0,0,1,175.046,380.7Zm-6.371-9.037a1.189,1.189,0,0,0-.473.476c-.05.137.046.276.292.418a1.155,1.155,0,0,0,.722.168,2.622,2.622,0,0,0,.824-.275,7.93,7.93,0,0,0,1.1-.633,1.193,1.193,0,0,0,.474-.475q.075-.207-.29-.418a1.148,1.148,0,0,0-.725-.168,2.607,2.607,0,0,0-.823.273A8.193,8.193,0,0,0,168.675,371.661Zm1.9,7.817a1.2,1.2,0,0,0-.476.476c-.049.138.049.277.292.418a1.148,1.148,0,0,0,.724.168,2.62,2.62,0,0,0,.824-.273,8.308,8.308,0,0,0,1.1-.634,1.2,1.2,0,0,0,.473-.476c.051-.137-.047-.276-.291-.418a1.16,1.16,0,0,0-.724-.168,2.646,2.646,0,0,0-.823.274A8.228,8.228,0,0,0,170.573,379.478Z" fill="#fff"/>
      <path id="Path_30" data-name="Path 30" d="M247.391,408.03l-9.588-5.535,5.312-6.881c.675-.874.356-1.359-.714-1.084L229.679,397.8l-9.588-5.536a5.741,5.741,0,0,0-5.2,0l-15.113,8.725c-1.435.829-1.435,2.172,0,3l27.3,15.763a5.745,5.745,0,0,0,5.2,0l15.114-8.727C248.826,410.2,248.826,408.858,247.391,408.03Z" fill="#80c19c"/>
      <path id="Path_31" data-name="Path 31" d="M232.049,404.638a2.543,2.543,0,0,1,.474.005,1.151,1.151,0,0,1,.441.158l1.364.788c.123.07.189.144.2.221s-.033.144-.133.2a.46.46,0,0,1-.1.039,1,1,0,0,1-.15.029l-19.031,1.5a2.529,2.529,0,0,1-.473-.005,1.143,1.143,0,0,1-.441-.159l-1.365-.787c-.121-.07-.188-.145-.2-.221s.034-.144.135-.2a.438.438,0,0,1,.1-.038.843.843,0,0,1,.149-.028Zm-6.121-1.268a10.8,10.8,0,0,1-1.264.731,5.738,5.738,0,0,1-1.115.421,4.778,4.778,0,0,1-1.231.155,5.238,5.238,0,0,1-2.627-.721,3.239,3.239,0,0,1-.949-.759,1.181,1.181,0,0,1-.291-.754,1.2,1.2,0,0,1,.266-.711,2.884,2.884,0,0,1,.723-.647c.2-.142.4-.268.591-.38s.418-.229.674-.351a5.477,5.477,0,0,1,1.123-.418,5.228,5.228,0,0,1,1.231-.153,5,5,0,0,1,1.3.168,5.288,5.288,0,0,1,1.315.548,3.237,3.237,0,0,1,.947.758,1.174,1.174,0,0,1,.291.754,1.2,1.2,0,0,1-.265.711A2.909,2.909,0,0,1,225.928,403.37Zm1.9,7.818a10.413,10.413,0,0,1-1.264.73,5.711,5.711,0,0,1-1.114.423,4.881,4.881,0,0,1-1.232.153,5.224,5.224,0,0,1-2.628-.721,3.257,3.257,0,0,1-.948-.758,1.182,1.182,0,0,1-.291-.754,1.213,1.213,0,0,1,.266-.711,2.89,2.89,0,0,1,.724-.648q.3-.21.59-.38c.195-.111.419-.228.674-.35a5.442,5.442,0,0,1,1.123-.418,5.189,5.189,0,0,1,1.232-.153,5.011,5.011,0,0,1,1.305.168,5.262,5.262,0,0,1,1.314.547,3.257,3.257,0,0,1,.948.759,1.189,1.189,0,0,1,.291.754,1.208,1.208,0,0,1-.266.71A2.892,2.892,0,0,1,227.824,411.188Zm-6.371-9.038a1.193,1.193,0,0,0-.474.476c-.05.138.047.276.292.418a1.151,1.151,0,0,0,.723.168,2.632,2.632,0,0,0,.824-.274,8.076,8.076,0,0,0,1.1-.634,1.193,1.193,0,0,0,.474-.475q.075-.207-.29-.418a1.152,1.152,0,0,0-.725-.168,2.62,2.62,0,0,0-.823.274A8.138,8.138,0,0,0,221.453,402.15Zm1.9,7.818a1.2,1.2,0,0,0-.476.475c-.048.138.049.278.292.418a1.145,1.145,0,0,0,.724.168,2.612,2.612,0,0,0,.824-.273,8.035,8.035,0,0,0,1.1-.634,1.2,1.2,0,0,0,.474-.475c.05-.138-.047-.277-.291-.419a1.164,1.164,0,0,0-.725-.168,2.668,2.668,0,0,0-.822.274A8.077,8.077,0,0,0,223.35,409.968Z" fill="#fff"/>
      <g id="Group_19" data-name="Group 19">
        <g id="Group_16" data-name="Group 16">
          <path id="Path_32" data-name="Path 32" d="M384.048,243.029,367.8,233.648v-46.9l16.248,9.381Z" fill="#717a78"/>
        </g>
        <g id="Group_17" data-name="Group 17">
          <path id="Path_33" data-name="Path 33" d="M384.047,243.029l16.249-9.381v-46.9l-16.249,9.381Z" fill="#a9b3b2"/>
        </g>
        <g id="Group_18" data-name="Group 18">
          <path id="Path_34" data-name="Path 34" d="M367.8,186.743l16.248,9.381,16.249-9.381-16.248-9.381Z" fill="#a9b3b2"/>
        </g>
      </g>
      <g id="Group_23" data-name="Group 23">
        <g id="Group_20" data-name="Group 20">
          <path id="Path_35" data-name="Path 35" d="M347.489,221.921l-16.248-9.381V118.732l16.248,9.381Z" fill="#717a78"/>
        </g>
        <g id="Group_21" data-name="Group 21">
          <path id="Path_36" data-name="Path 36" d="M347.488,221.921l16.249-9.381V118.732l-16.249,9.381Z" fill="#a9b3b2"/>
        </g>
        <g id="Group_22" data-name="Group 22">
          <path id="Path_37" data-name="Path 37" d="M331.24,118.732l16.248,9.381,16.249-9.381-16.249-9.381Z" fill="#a9b3b2"/>
        </g>
      </g>
      <g id="Group_27" data-name="Group 27">
        <g id="Group_24" data-name="Group 24">
          <path id="Path_38" data-name="Path 38" d="M310.93,200.814l-16.248-9.381V158.6l16.248,9.381Z" fill="#717a78"/>
        </g>
        <g id="Group_25" data-name="Group 25">
          <path id="Path_39" data-name="Path 39" d="M310.929,200.814l16.249-9.381V158.6l-16.249,9.381Z" fill="#a9b3b2"/>
        </g>
        <g id="Group_26" data-name="Group 26">
          <path id="Path_40" data-name="Path 40" d="M294.681,158.6l16.248,9.381,16.249-9.381-16.249-9.38Z" fill="#a9b3b2"/>
        </g>
      </g>
      <g id="Group_31" data-name="Group 31">
        <g id="Group_28" data-name="Group 28">
          <path id="Path_41" data-name="Path 41" d="M420.605,264.136l-16.248-9.381V165.636l16.247,9.381Z" fill="#717a78"/>
        </g>
        <g id="Group_29" data-name="Group 29">
          <path id="Path_42" data-name="Path 42" d="M420.6,264.136l16.25-9.381V165.636l-16.25,9.381Z" fill="#a9b3b2"/>
        </g>
        <g id="Group_30" data-name="Group 30">
          <path id="Path_43" data-name="Path 43" d="M404.357,165.636l16.247,9.381,16.25-9.381-16.249-9.381Z" fill="#a9b3b2"/>
        </g>
      </g>
    </g>
    <g id="Main_Charts" data-name="Main Charts" transform="translate(63 67)">
      <g id="Group_32" data-name="Group 32" opacity="0.3">
        <path id="Path_44" data-name="Path 44" d="M307.01,257.332l-.168-103.88a3.83,3.83,0,0,0-1.738-3l-122.572-70.5c-.957-.55-1.732-.1-1.73,1l.168,103.88a3.826,3.826,0,0,0,1.737,3l122.573,70.5C306.238,258.886,307.012,258.438,307.01,257.332Z" fill="#fff"/>
      </g>
      <g id="Group_33" data-name="Group 33">
        <path id="Path_45" data-name="Path 45" d="M306.058,259.069a2.064,2.064,0,0,1-1.028-.3l-122.573-70.5a4.324,4.324,0,0,1-1.987-3.43L180.3,80.962a1.546,1.546,0,0,1,2.48-1.437l122.572,70.5a4.323,4.323,0,0,1,1.988,3.43l.168,103.88a1.687,1.687,0,0,1-.754,1.556A1.372,1.372,0,0,1,306.058,259.069ZM181.761,80.223a.406.406,0,0,0-.2.048.774.774,0,0,0-.256.689l.168,103.88a3.331,3.331,0,0,0,1.486,2.565l122.573,70.5a.578.578,0,0,0,.981-.569l-.168-103.881a3.33,3.33,0,0,0-1.487-2.564l-122.572-70.5A1.1,1.1,0,0,0,181.761,80.223Z" fill="#80c19c"/>
      </g>
      <g id="Group_36" data-name="Group 36">
        <g id="Group_34" data-name="Group 34">
          <path id="Path_46" data-name="Path 46" d="M295.36,234.412c-3.248-2.312-5.149-4.4-6.443-20.463l-.111-1.369c-1.21-15.086-2.01-25.051-8.879-29.159-3.3-1.973-5.935.04-8.729,2.17-2.525,1.925-5.133,3.911-8.053,2.234-5.156-2.962-6.026-8.935-7.606-19.777q-.291-2-.625-4.229c-.35-2.3-.651-4.46-.931-6.474-1.586-11.387-2.544-18.26-8.36-21.773a4.51,4.51,0,0,0-3.971-.617c-4.408,1.543-7.861,10.878-11.516,20.76-.273.738-.551,1.5-.834,2.279-2.651,7.29-5.657,15.553-9.805,17.087a4.115,4.115,0,0,1-3.582-.364c-4.139-2.333-4.875-8.742-5.587-14.94-.7-6.111-1.426-12.431-5.308-14.756a2.417,2.417,0,0,0-2.253-.195c-4.839,1.885-9.127,16.2-9.169,16.344l-.959-.284c.18-.608,4.474-14.93,9.765-16.992a3.41,3.41,0,0,1,3.131.269c4.3,2.578,5.058,9.147,5.787,15.5.714,6.223,1.389,12.1,5.083,14.183a3.122,3.122,0,0,0,2.745.3c3.714-1.373,6.763-9.755,9.213-16.491.283-.779.561-1.544.835-2.284,3.9-10.548,7.271-19.658,12.124-21.357a5.517,5.517,0,0,1,4.818.705c6.224,3.759,7.206,10.81,8.834,22.491.279,2.01.58,4.162.928,6.461.226,1.488.432,2.9.627,4.236,1.535,10.532,2.38,16.333,7.114,19.054,2.346,1.348,4.477-.279,6.949-2.162,2.8-2.134,5.973-4.551,9.85-2.234,7.31,4.373,8.126,14.543,9.361,29.938l.109,1.368c1.321,16.379,3.3,17.784,6.029,19.73Z" fill="#80c19c"/>
        </g>
        <g id="Group_35" data-name="Group 35" opacity="0.4">
          <path id="Path_47" data-name="Path 47" d="M295.36,234.412c-3.248-2.312-5.149-4.4-6.443-20.463l-.111-1.369c-1.21-15.086-2.01-25.051-8.879-29.159-3.3-1.973-5.935.04-8.729,2.17-2.525,1.925-5.133,3.911-8.053,2.234-5.156-2.962-6.026-8.935-7.606-19.777q-.291-2-.625-4.229c-.35-2.3-.651-4.46-.931-6.474-1.586-11.387-2.544-18.26-8.36-21.773a4.51,4.51,0,0,0-3.971-.617c-4.408,1.543-7.861,10.878-11.516,20.76-.273.738-.551,1.5-.834,2.279-2.651,7.29-5.657,15.553-9.805,17.087a4.115,4.115,0,0,1-3.582-.364c-4.139-2.333-4.875-8.742-5.587-14.94-.7-6.111-1.426-12.431-5.308-14.756a2.417,2.417,0,0,0-2.253-.195c-4.839,1.885-9.127,16.2-9.169,16.344l-.959-.284c.18-.608,4.474-14.93,9.765-16.992a3.41,3.41,0,0,1,3.131.269c4.3,2.578,5.058,9.147,5.787,15.5.714,6.223,1.389,12.1,5.083,14.183a3.122,3.122,0,0,0,2.745.3c3.714-1.373,6.763-9.755,9.213-16.491.283-.779.561-1.544.835-2.284,3.9-10.548,7.271-19.658,12.124-21.357a5.517,5.517,0,0,1,4.818.705c6.224,3.759,7.206,10.81,8.834,22.491.279,2.01.58,4.162.928,6.461.226,1.488.432,2.9.627,4.236,1.535,10.532,2.38,16.333,7.114,19.054,2.346,1.348,4.477-.279,6.949-2.162,2.8-2.134,5.973-4.551,9.85-2.234,7.31,4.373,8.126,14.543,9.361,29.938l.109,1.368c1.321,16.379,3.3,17.784,6.029,19.73Z"/>
        </g>
      </g>
      <g id="Group_39" data-name="Group 39">
        <g id="Group_37" data-name="Group 37">
          <path id="Path_48" data-name="Path 48" d="M278.45,179.041a5.657,5.657,0,0,1,2.565,4.429c0,1.632-1.141,2.295-2.556,1.481a5.656,5.656,0,0,1-2.567-4.428C275.89,178.891,277.034,178.227,278.45,179.041Z" fill="#80c19c"/>
        </g>
        <g id="Group_38" data-name="Group 38" opacity="0.2">
          <path id="Path_49" data-name="Path 49" d="M278.45,179.041a5.657,5.657,0,0,1,2.565,4.429c0,1.632-1.141,2.295-2.556,1.481a5.656,5.656,0,0,1-2.567-4.428C275.89,178.891,277.034,178.227,278.45,179.041Z"/>
        </g>
      </g>
      <g id="Group_42" data-name="Group 42">
        <g id="Group_40" data-name="Group 40">
          <path id="Path_50" data-name="Path 50" d="M245.877,132.19a5.652,5.652,0,0,1,2.566,4.428c0,1.632-1.142,2.295-2.556,1.481a5.656,5.656,0,0,1-2.567-4.428C243.318,132.039,244.462,131.376,245.877,132.19Z" fill="#80c19c"/>
        </g>
        <g id="Group_41" data-name="Group 41" opacity="0.5">
          <path id="Path_51" data-name="Path 51" d="M245.877,132.19a5.652,5.652,0,0,1,2.566,4.428c0,1.632-1.142,2.295-2.556,1.481a5.656,5.656,0,0,1-2.567-4.428C243.318,132.039,244.462,131.376,245.877,132.19Z" fill="#fff"/>
        </g>
      </g>
      <g id="Group_43" data-name="Group 43">
        <path id="Path_52" data-name="Path 52" d="M205.273,141.636a5.659,5.659,0,0,1,2.566,4.428c0,1.633-1.142,2.3-2.557,1.482a5.655,5.655,0,0,1-2.566-4.428C202.713,141.486,203.858,140.823,205.273,141.636Z" fill="#80c19c"/>
      </g>
      <path id="Path_53" data-name="Path 53" d="M241.874,252.755V148.874a3.828,3.828,0,0,0-1.731-3L133.933,84.553c-.957-.552-1.732-.1-1.732,1v103.88a3.826,3.826,0,0,0,1.732,3l106.211,61.322C241.1,254.308,241.874,253.859,241.874,252.755Z" fill="#fff" opacity="0.65"/>
      <g id="Group_44" data-name="Group 44">
        <path id="Path_54" data-name="Path 54" d="M240.919,254.49a2.067,2.067,0,0,1-1.026-.3L133.682,192.866a4.319,4.319,0,0,1-1.982-3.433V85.553a1.545,1.545,0,0,1,2.482-1.433l106.21,61.321a4.323,4.323,0,0,1,1.981,3.433V252.755a1.713,1.713,0,0,1-.757,1.555A1.378,1.378,0,0,1,240.919,254.49ZM133.161,84.816a.409.409,0,0,0-.2.049.771.771,0,0,0-.257.688v103.88A3.327,3.327,0,0,0,134.182,192l106.211,61.322a.577.577,0,0,0,.981-.567V148.874a3.331,3.331,0,0,0-1.481-2.567L133.683,84.986A1.1,1.1,0,0,0,133.161,84.816Z" fill="#80c19c"/>
      </g>
      <g id="Group_47" data-name="Group 47">
        <g id="Group_45" data-name="Group 45">
          <path id="Path_55" data-name="Path 55" d="M223.6,229.14V160.783a1.914,1.914,0,0,0-.866-1.5l-10.455-6.036c-.478-.276-.866-.052-.866.5V222.1a1.917,1.917,0,0,0,.866,1.5l10.455,6.035C223.208,229.917,223.6,229.692,223.6,229.14Z" fill="#80c19c"/>
        </g>
        <g id="Group_46" data-name="Group 46" opacity="0.3">
          <path id="Path_56" data-name="Path 56" d="M223.6,229.14V160.783a1.914,1.914,0,0,0-.866-1.5l-10.455-6.036c-.478-.276-.866-.052-.866.5V222.1a1.917,1.917,0,0,0,.866,1.5l10.455,6.035C223.208,229.917,223.6,229.692,223.6,229.14Z"/>
        </g>
      </g>
      <g id="Group_50" data-name="Group 50">
        <g id="Group_48" data-name="Group 48">
          <path id="Path_57" data-name="Path 57" d="M203.286,217.414V181.891a1.914,1.914,0,0,0-.866-1.5l-10.455-6.036c-.478-.276-.866-.052-.866.5v35.523a1.915,1.915,0,0,0,.866,1.5l10.455,6.036C202.9,218.19,203.286,217.966,203.286,217.414Z" fill="#80c19c"/>
        </g>
        <g id="Group_49" data-name="Group 49" opacity="0.2">
          <path id="Path_58" data-name="Path 58" d="M203.286,217.414V181.891a1.914,1.914,0,0,0-.866-1.5l-10.455-6.036c-.478-.276-.866-.052-.866.5v35.523a1.915,1.915,0,0,0,.866,1.5l10.455,6.036C202.9,218.19,203.286,217.966,203.286,217.414Z" fill="#fff"/>
        </g>
      </g>
      <g id="Group_53" data-name="Group 53">
        <g id="Group_51" data-name="Group 51">
          <path id="Path_59" data-name="Path 59" d="M182.976,205.688V151.4a1.914,1.914,0,0,0-.867-1.5l-10.454-6.036c-.478-.276-.866-.052-.866.5v54.285a1.915,1.915,0,0,0,.866,1.5l10.454,6.036C182.588,206.464,182.976,206.24,182.976,205.688Z" fill="#80c19c"/>
        </g>
        <g id="Group_52" data-name="Group 52" opacity="0.2">
          <path id="Path_60" data-name="Path 60" d="M182.976,205.688V151.4a1.914,1.914,0,0,0-.867-1.5l-10.454-6.036c-.478-.276-.866-.052-.866.5v54.285a1.915,1.915,0,0,0,.866,1.5l10.454,6.036C182.588,206.464,182.976,206.24,182.976,205.688Z"/>
        </g>
      </g>
      <g id="Group_54" data-name="Group 54">
        <path id="Path_61" data-name="Path 61" d="M162.665,193.961V116.224a1.914,1.914,0,0,0-.866-1.5l-10.454-6.036c-.479-.276-.867-.052-.867.5v77.737a1.914,1.914,0,0,0,.867,1.5l10.454,6.036C162.277,194.737,162.665,194.514,162.665,193.961Z" fill="#80c19c"/>
      </g>
    </g>
    <g id="Coins" transform="translate(295.743 63.347)">
      <path id="Path_4-2" data-name="Path 4" d="M120.1,225.121c-9.062-5.231-23.755-5.231-32.816,0s-9.062,13.715,0,18.947,23.754,5.231,32.816,0S129.158,230.353,120.1,225.121Z" transform="translate(0 -1.753)" fill="#e0e0e0"/>
      <g id="Group_126" data-name="Group 126" transform="translate(82.821 214.193)">
        <g id="Group_125" data-name="Group 125" transform="translate(0)">
          <g id="Group_110" data-name="Group 110" transform="translate(0 3.92)">
            <path id="Path_139" data-name="Path 139" d="M124.343,227.586a13.5,13.5,0,0,0-5-4.625c-8.176-4.721-21.432-4.721-29.608,0a13.5,13.5,0,0,0-5,4.625H83.6v4.278h.015c.151,2.974,2.186,5.922,6.118,8.192,8.176,4.721,21.432,4.721,29.608,0,3.932-2.27,5.967-5.218,6.118-8.192h.015v-4.278Z" transform="translate(-83.601 -219.421)" fill="#80c19c"/>
            <path id="Path_140" data-name="Path 140" d="M124.343,227.586a13.5,13.5,0,0,0-5-4.625c-8.176-4.721-21.432-4.721-29.608,0a13.5,13.5,0,0,0-5,4.625H83.6v4.278h.015c.151,2.974,2.186,5.922,6.118,8.192,8.176,4.721,21.432,4.721,29.608,0,3.932-2.27,5.967-5.218,6.118-8.192h.015v-4.278Z" transform="translate(-83.601 -219.421)" fill="#f5f5f5" opacity="0.5"/>
          </g>
          <g id="Group_115" data-name="Group 115" transform="translate(0)">
            <g id="Group_111" data-name="Group 111">
              <path id="Path_141" data-name="Path 141" d="M119.342,217.733c-8.176-4.72-21.432-4.72-29.608,0s-8.177,12.374,0,17.095,21.432,4.721,29.608,0S127.519,222.454,119.342,217.733Z" transform="translate(-83.601 -214.193)" fill="#80c19c"/>
              <path id="Path_142" data-name="Path 142" d="M119.342,217.733c-8.176-4.72-21.432-4.72-29.608,0s-8.177,12.374,0,17.095,21.432,4.721,29.608,0S127.519,222.454,119.342,217.733Z" transform="translate(-83.601 -214.193)" fill="#f5f5f5" opacity="0.6"/>
            </g>
            <g id="Group_114" data-name="Group 114" transform="translate(0.913 0.909)">
              <g id="Group_112" data-name="Group 112" transform="translate(6.133 3.703)">
                <path id="Path_143" data-name="Path 143" d="M116.53,222.4a23.621,23.621,0,0,0-19.28,0C94.508,223.8,93,225.731,93,227.82s1.509,4.013,4.251,5.418a23.59,23.59,0,0,0,19.28,0c2.738-1.405,4.247-3.328,4.247-5.418S119.268,223.8,116.53,222.4Z" transform="translate(-92.999 -220.343)" fill="#80c19c"/>
                <path id="Path_144" data-name="Path 144" d="M116.53,222.4a23.621,23.621,0,0,0-19.28,0C94.508,223.8,93,225.731,93,227.82s1.509,4.013,4.251,5.418a23.59,23.59,0,0,0,19.28,0c2.738-1.405,4.247-3.328,4.247-5.418S119.268,223.8,116.53,222.4Z" transform="translate(-92.999 -220.343)" fill="#f5f5f5" opacity="0.6"/>
              </g>
              <g id="Group_113" data-name="Group 113">
                <path id="Path_145" data-name="Path 145" d="M119.192,218.826a29.189,29.189,0,0,0-14.351-3.421A29.167,29.167,0,0,0,90.5,218.826c-3.663,2.114-5.677,4.865-5.677,7.758s2.014,5.645,5.677,7.759a29.215,29.215,0,0,0,14.346,3.417,29.237,29.237,0,0,0,14.351-3.417c3.658-2.114,5.676-4.87,5.676-7.759S122.85,220.941,119.192,218.826ZM114.484,232a23.59,23.59,0,0,1-19.28,0c-2.741-1.405-4.251-3.328-4.251-5.418s1.509-4.016,4.251-5.42a23.621,23.621,0,0,1,19.28,0c2.738,1.4,4.247,3.331,4.247,5.42S117.221,230.6,114.484,232Z" transform="translate(-84.819 -215.405)" fill="#80c19c"/>
                <path id="Path_146" data-name="Path 146" d="M119.192,218.826a29.189,29.189,0,0,0-14.351-3.421A29.167,29.167,0,0,0,90.5,218.826c-3.663,2.114-5.677,4.865-5.677,7.758s2.014,5.645,5.677,7.759a29.215,29.215,0,0,0,14.346,3.417,29.237,29.237,0,0,0,14.351-3.417c3.658-2.114,5.676-4.87,5.676-7.759S122.85,220.941,119.192,218.826ZM114.484,232a23.59,23.59,0,0,1-19.28,0c-2.741-1.405-4.251-3.328-4.251-5.418s1.509-4.016,4.251-5.42a23.621,23.621,0,0,1,19.28,0c2.738,1.4,4.247,3.331,4.247,5.42S117.221,230.6,114.484,232Z" transform="translate(-84.819 -215.405)" fill="#f5f5f5" opacity="0.7"/>
              </g>
            </g>
          </g>
          <g id="Group_118" data-name="Group 118" transform="translate(7.769 5.329)">
            <g id="Group_116" data-name="Group 116">
              <ellipse id="Ellipse_5" data-name="Ellipse 5" cx="13.168" cy="6.758" rx="13.168" ry="6.758" fill="#80c19c"/>
              <ellipse id="Ellipse_6" data-name="Ellipse 6" cx="13.168" cy="6.758" rx="13.168" ry="6.758" fill="#f5f5f5" opacity="0.5"/>
            </g>
            <g id="Group_117" data-name="Group 117" transform="translate(0.118 1.79)">
              <path id="Path_147" data-name="Path 147" d="M116.481,225.667c-5.142-2.639-13.48-2.639-18.622,0-2.126,1.092-3.371,2.463-3.739,3.883.367,1.42,1.612,2.792,3.739,3.883,5.142,2.639,13.48,2.639,18.622,0,2.126-1.091,3.371-2.462,3.739-3.882C119.852,228.131,118.607,226.758,116.481,225.667Z" transform="translate(-94.12 -223.688)" fill="#80c19c"/>
              <path id="Path_148" data-name="Path 148" d="M116.481,225.667c-5.142-2.639-13.48-2.639-18.622,0-2.126,1.092-3.371,2.463-3.739,3.883.367,1.42,1.612,2.792,3.739,3.883,5.142,2.639,13.48,2.639,18.622,0,2.126-1.091,3.371-2.462,3.739-3.882C119.852,228.131,118.607,226.758,116.481,225.667Z" transform="translate(-94.12 -223.688)" fill="#f5f5f5" opacity="0.6"/>
            </g>
          </g>
          <g id="Group_124" data-name="Group 124" transform="translate(12.823 6.826)">
            <g id="Group_121" data-name="Group 121" transform="translate(0 0.586)">
              <g id="Group_119" data-name="Group 119">
                <path id="Path_149" data-name="Path 149" d="M112.561,224.077v1.931l-.659.7-1.219,1.277v-2.009Z" transform="translate(-103.2 -224.077)" fill="#80c19c"/>
                <path id="Path_150" data-name="Path 150" d="M109.408,226.434v2.01H105.6V226.09S109.122,225.549,109.408,226.434Z" transform="translate(-101.928 -224.54)" fill="#80c19c"/>
                <path id="Path_151" data-name="Path 151" d="M116.926,231.667v1.667l-2.111,1.218-1.563-.9a7.955,7.955,0,0,1-6.048.273v-1.668l.96-.952-.96.265a6.176,6.176,0,0,1-4.711-.539c-.947-.546-1.386-1.143-1.384-1.759v-1.623l.171-.709-.577-.335v-1.668l1.563.9a2.411,2.411,0,0,0-1.157,1.791v.019c.016.6.46,1.182,1.384,1.715,2.054,1.186,4.089.795,5.953.2,1.734-.566,3-1.23,4-.655.62.359.432.795-.265,1.2a3.466,3.466,0,0,1-2.977.172l-2,1.979a7.134,7.134,0,0,0,1.1.324,8.228,8.228,0,0,0,4.945-.595l1.563.9Z" transform="translate(-100.703 -224.291)" fill="#80c19c"/>
                <path id="Path_152" data-name="Path 152" d="M117.438,234.335V236l1.564.9v-1.667Z" transform="translate(-104.89 -226.644)" fill="#80c19c"/>
              </g>
              <g id="Group_120" data-name="Group 120" opacity="0.5">
                <path id="Path_153" data-name="Path 153" d="M112.561,224.077v1.931l-.659.7-1.219,1.277v-2.009Z" transform="translate(-103.2 -224.077)" fill="#f5f5f5"/>
                <path id="Path_154" data-name="Path 154" d="M109.408,226.434v2.01H105.6V226.09S109.122,225.549,109.408,226.434Z" transform="translate(-101.928 -224.54)" fill="#f5f5f5"/>
                <path id="Path_155" data-name="Path 155" d="M116.926,231.667v1.667l-2.111,1.218-1.563-.9a7.955,7.955,0,0,1-6.048.273v-1.668l.96-.952-.96.265a6.176,6.176,0,0,1-4.711-.539c-.947-.546-1.386-1.143-1.384-1.759v-1.623l.171-.709-.577-.335v-1.668l1.563.9a2.411,2.411,0,0,0-1.157,1.791v.019c.016.6.46,1.182,1.384,1.715,2.054,1.186,4.089.795,5.953.2,1.734-.566,3-1.23,4-.655.62.359.432.795-.265,1.2a3.466,3.466,0,0,1-2.977.172l-2,1.979a7.134,7.134,0,0,0,1.1.324,8.228,8.228,0,0,0,4.945-.595l1.563.9Z" transform="translate(-100.703 -224.291)" fill="#f5f5f5"/>
                <path id="Path_156" data-name="Path 156" d="M117.438,234.335V236l1.564.9v-1.667Z" transform="translate(-104.89 -226.644)" fill="#f5f5f5"/>
              </g>
            </g>
            <g id="Group_123" data-name="Group 123">
              <g id="Group_122" data-name="Group 122">
                <path id="Path_157" data-name="Path 157" d="M116.573,231.055l-1.209-.7a2.059,2.059,0,0,0,1.209-1.852,1.561,1.561,0,0,0-.01-.162,2.282,2.282,0,0,0-1.35-1.638V226.7a5.55,5.55,0,0,0-2.81-.732c-.078,0-.162,0-.241,0h-.026l-.25.016c-.073.005-.147.01-.22.021-.031.005-.062.005-.088.01a1.59,1.59,0,0,0-.167.021,11.384,11.384,0,0,0-1.366.283c-.214.058-.429.12-.638.188-.3.094-.6.193-.884.288-.115.042-.225.079-.335.115a10.332,10.332,0,0,1-1.873.533,1.942,1.942,0,0,1-.806-.031,1.646,1.646,0,0,1-.376-.157c-.471-.272-.544-.685.34-1.2a3.09,3.09,0,0,1,2.716-.283l1.878-1.894a8.045,8.045,0,0,0-5.666.314l-1.564-.9-2.13,1.229,1.565.9a2.418,2.418,0,0,0-1.161,1.794v.016c.021.6.46,1.182,1.386,1.716,2.056,1.188,4.092.8,5.954.193,1.732-.565,2.992-1.23,3.992-.654.623.361.434.8-.262,1.2a3.438,3.438,0,0,1-2.977.172l-2,1.983a7.692,7.692,0,0,0,1.1.324,8.242,8.242,0,0,0,4.944-.6l1.564.905,2.108-1.219Z" transform="translate(-100.703 -223.296)" fill="#80c19c"/>
                <path id="Path_158" data-name="Path 158" d="M116.573,231.055l-1.209-.7a2.059,2.059,0,0,0,1.209-1.852,1.561,1.561,0,0,0-.01-.162,2.282,2.282,0,0,0-1.35-1.638V226.7a5.55,5.55,0,0,0-2.81-.732c-.078,0-.162,0-.241,0h-.026l-.25.016c-.073.005-.147.01-.22.021-.031.005-.062.005-.088.01a1.59,1.59,0,0,0-.167.021,11.384,11.384,0,0,0-1.366.283c-.214.058-.429.12-.638.188-.3.094-.6.193-.884.288-.115.042-.225.079-.335.115a10.332,10.332,0,0,1-1.873.533,1.942,1.942,0,0,1-.806-.031,1.646,1.646,0,0,1-.376-.157c-.471-.272-.544-.685.34-1.2a3.09,3.09,0,0,1,2.716-.283l1.878-1.894a8.045,8.045,0,0,0-5.666.314l-1.564-.9-2.13,1.229,1.565.9a2.418,2.418,0,0,0-1.161,1.794v.016c.021.6.46,1.182,1.386,1.716,2.056,1.188,4.092.8,5.954.193,1.732-.565,2.992-1.23,3.992-.654.623.361.434.8-.262,1.2a3.438,3.438,0,0,1-2.977.172l-2,1.983a7.692,7.692,0,0,0,1.1.324,8.242,8.242,0,0,0,4.944-.6l1.564.905,2.108-1.219Z" transform="translate(-100.703 -223.296)" fill="#f5f5f5" opacity="0.7"/>
              </g>
            </g>
          </g>
        </g>
      </g>
    </g>
  </g>
</svg>
