<svg width="15" height="25" viewBox="0 0 15 25" fill="none" xmlns="http://www.w3.org/2000/svg">
<path fill-rule="evenodd" clip-rule="evenodd" d="M13.7646 24.4755C13.5987 24.6418 13.4017 24.7737 13.1848 24.8637C12.9679 24.9537 12.7354 25 12.5005 25C12.2657 25 12.0332 24.9537 11.8163 24.8637C11.5994 24.7737 11.4024 24.6418 11.2365 24.4755L0.524583 13.7635C0.358322 13.5977 0.226414 13.4007 0.13641 13.1838C0.0464067 12.9669 7.82013e-05 12.7344 7.82013e-05 12.4995C7.82013e-05 12.2647 0.0464067 12.0322 0.13641 11.8153C0.226414 11.5984 0.358322 11.4014 0.524583 11.2355L11.2365 0.523569C11.5718 0.188332 12.0265 0 12.5005 0C12.9746 0 13.4293 0.188332 13.7646 0.523569C14.0998 0.858805 14.2881 1.31348 14.2881 1.78758C14.2881 2.26167 14.0998 2.71635 13.7646 3.05159L4.31304 12.4995L13.7646 21.9475C13.9308 22.1133 14.0627 22.3103 14.1527 22.5272C14.2427 22.7441 14.2891 22.9767 14.2891 23.2115C14.2891 23.4463 14.2427 23.6788 14.1527 23.8957C14.0627 24.1126 13.9308 24.3097 13.7646 24.4755Z" fill="#AFC9F2"/>
</svg>
